<?xml version="1.0" encoding="utf-8"?>
<!-- Generator: Adobe Illustrator 24.3.0, SVG Export Plug-In . SVG Version: 6.00 Build 0)  -->
<svg version="1.1" id="レイヤー_1" xmlns="http://www.w3.org/2000/svg" xmlns:xlink="http://www.w3.org/1999/xlink" x="0px"
	 y="0px" viewBox="0 0 200 200" style="enable-background:new 0 0 200 200;" xml:space="preserve">
<style type="text/css">
	.st0{fill:none;}
</style>
<g>
	<path d="M67.2,155.9c-3.2,0-6.3-1.5-8.2-4.3c-3.2-4.5-2.1-10.8,2.5-13.9l53.9-37.8L61.5,62.2c-4.5-3.2-5.6-9.4-2.5-13.9
		c1.9-2.8,5-4.3,8.2-4.3c2,0,4,0.6,5.7,1.8l65.5,45.9c2.5,1.8,4,4.5,4.2,7.3c0,0.3,0,0.6,0.1,0.9v0.1c0,0.3,0,0.6-0.1,0.9
		c-0.2,2.8-1.7,5.6-4.2,7.3L73,154.1C71.2,155.4,69.2,155.9,67.2,155.9z"/>
	<g>
		<g>
			<rect class="st0" width="200" height="200"/>
		</g>
	</g>
</g>
</svg>
