<?xml version="1.0" encoding="utf-8"?>
<!-- Generator: Adobe Illustrator 24.3.0, SVG Export Plug-In . SVG Version: 6.00 Build 0)  -->
<svg version="1.1" id="レイヤー_1" xmlns="http://www.w3.org/2000/svg" xmlns:xlink="http://www.w3.org/1999/xlink" x="0px"
	 y="0px" viewBox="0 0 10 10" style="enable-background:new 0 0 10 10;" xml:space="preserve">
<path d="M10,0.7C10,0.7,10,0.7,10,0.7c0-0.1,0-0.1-0.1-0.2c0,0,0-0.1,0-0.1c0,0,0,0,0-0.1C9.8,0.3,9.7,0.2,9.6,0.2c0,0,0,0-0.1,0
	c0,0-0.1,0-0.1,0c0,0-0.1,0-0.1,0c0,0,0,0-0.1,0C9.2,0,9.2,0,9.1,0H4C3.5,0,3.1,0.4,3.1,0.9S3.5,1.8,4,1.8h3L0.3,8.5
	c-0.3,0.3-0.3,0.9,0,1.3c0.3,0.3,0.9,0.3,1.3,0l6.7-6.7v3c0,0.5,0.4,0.9,0.9,0.9C9.6,6.9,10,6.5,10,6V0.9C10,0.8,10,0.8,10,0.7z"/>
</svg>
