<?xml version="1.0" encoding="utf-8"?>
<!-- Generator: Adobe Illustrator 24.3.0, SVG Export Plug-In . SVG Version: 6.00 Build 0)  -->
<svg version="1.1" id="レイヤー_1" xmlns="http://www.w3.org/2000/svg" xmlns:xlink="http://www.w3.org/1999/xlink" x="0px"
	 y="0px" viewBox="0 0 20 15" style="enable-background:new 0 0 20 15;" xml:space="preserve">
<style type="text/css">
	.st0{fill:#FFFFFF;}
</style>
<path class="st0" d="M9,0.2l10.3,5.9C19.7,6.4,20,6.9,20,7.4c0,0,0,0,0,0c0,0,0,0,0,0c0,0.5-0.3,1-0.7,1.3L9,14.8
	c-0.7,0.4-1.6,0.2-2-0.5c-0.1-0.2-0.2-0.5-0.2-0.7c0-0.5,0.3-1,0.7-1.3L13.1,9H1.5C0.7,9,0,8.3,0,7.5c0-0.4,0.2-0.8,0.4-1
	C0.7,6.2,1.1,6,1.5,6h11.6L7.5,2.8C7,2.5,6.8,2,6.8,1.5C6.8,1.2,6.8,1,7,0.7C7.4,0,8.3-0.2,9,0.2z"/>
</svg>
