<svg xmlns="http://www.w3.org/2000/svg" width="60" height="58.442" viewBox="0 0 60 58.442">
  <g id="グループ_2682" data-name="グループ 2682" transform="translate(170 -829)">
    <g id="パス_147" data-name="パス 147" transform="translate(-170 829)" fill="none">
      <path d="M30,0C46.569,0,60,13.083,60,29.221S46.569,58.442,30,58.442,0,45.359,0,29.221,13.431,0,30,0Z" stroke="none"/>
      <path d="M 30 2 C 26.21268844604492 2 22.54018020629883 2.721858978271484 19.08448028564453 4.145530700683594 C 15.74901962280273 5.519668579101562 12.75387954711914 7.486457824707031 10.18228149414062 9.991268157958984 C 7.614349365234375 12.49250030517578 5.598941802978516 15.40348052978516 4.192050933837891 18.64334869384766 C 2.737510681152344 21.99295043945312 2 25.55170822143555 2 29.22077941894531 C 2 32.88984680175781 2.737510681152344 36.4486083984375 4.192050933837891 39.79821014404297 C 5.598941802978516 43.03807830810547 7.614349365234375 45.94905853271484 10.18228149414062 48.45029067993164 C 12.75387954711914 50.95510101318359 15.74901962280273 52.92189025878906 19.08448028564453 54.29602813720703 C 22.54018020629883 55.71969985961914 26.21268844604492 56.44155883789062 30 56.44155883789062 C 33.78730773925781 56.44155883789062 37.45981979370117 55.71969985961914 40.91551971435547 54.29602813720703 C 44.25098037719727 52.92189025878906 47.24612045288086 50.95510101318359 49.81771850585938 48.45029067993164 C 52.38565063476562 45.94905853271484 54.40106201171875 43.03807830810547 55.80794906616211 39.79821014404297 C 57.26248931884766 36.4486083984375 58 32.88984680175781 58 29.22077941894531 C 58 25.55170822143555 57.26248931884766 21.99295043945312 55.80794906616211 18.64334869384766 C 54.40106201171875 15.40348052978516 52.38565063476562 12.49250030517578 49.81771850585938 9.991268157958984 C 47.24612045288086 7.486457824707031 44.25098037719727 5.519668579101562 40.91551971435547 4.145530700683594 C 37.45981979370117 2.721858978271484 33.78730773925781 2 30 2 M 30 0 C 46.56853866577148 0 60 13.08258819580078 60 29.22077941894531 C 60 45.35897064208984 46.56853866577148 58.44155883789062 30 58.44155883789062 C 13.43146133422852 58.44155883789062 0 45.35897064208984 0 29.22077941894531 C 0 13.08258819580078 13.43146133422852 0 30 0 Z" stroke="none" fill="#000"/>
    </g>
    <g id="Component_-_Next" data-name="Component - Next" transform="translate(-148 850)">
      <g id="シンボル_82" data-name="シンボル 82" transform="translate(-1254 -507)">
        <path id="パス_10" data-name="パス 10" d="M8,0,6.545,1.455l5.506,5.506H0V9.039H12.052L6.545,14.545,8,16l8-8Z" transform="translate(1254 507)"/>
      </g>
    </g>
  </g>
</svg>
