<?xml version="1.0" encoding="utf-8"?>
<!-- Generator: Adobe Illustrator 24.3.0, SVG Export Plug-In . SVG Version: 6.00 Build 0)  -->
<svg version="1.1" id="レイヤー_1" xmlns="http://www.w3.org/2000/svg" xmlns:xlink="http://www.w3.org/1999/xlink" x="0px"
	 y="0px" viewBox="0 0 200 200" style="enable-background:new 0 0 200 200;" xml:space="preserve">
<style type="text/css">
	.st0{fill:#FFFFFF;}
	.st1{fill:none;}
</style>
<g>
	<path class="st0" d="M155.9,132.7c0,3.2-1.5,6.3-4.3,8.2c-4.5,3.2-10.8,2.1-13.9-2.5L99.9,84.5l-37.7,53.9
		c-3.2,4.5-9.4,5.6-13.9,2.5c-2.8-1.9-4.3-5-4.3-8.2c0-2,0.6-4,1.8-5.7l45.9-65.5c1.8-2.5,4.5-4,7.3-4.2c0.3,0,0.6,0,0.9-0.1h0.1
		c0.3,0,0.6,0,0.9,0.1c2.8,0.2,5.6,1.7,7.3,4.2l45.9,65.4C155.4,128.7,155.9,130.7,155.9,132.7z"/>
	<g>
		<g>
			<rect class="st1" width="200" height="200"/>
		</g>
	</g>
</g>
</svg>
