<?xml version="1.0" encoding="utf-8"?>
<!-- Generator: Adobe Illustrator 24.3.0, SVG Export Plug-In . SVG Version: 6.00 Build 0)  -->
<svg version="1.1" id="レイヤー_1" xmlns="http://www.w3.org/2000/svg" xmlns:xlink="http://www.w3.org/1999/xlink" x="0px"
	 y="0px" viewBox="0 0 20 15" style="enable-background:new 0 0 20 15;" xml:space="preserve">
<path d="M13,0.7c0.2,0.3,0.2,0.5,0.2,0.8c0,0.5-0.2,1-0.7,1.3L6.9,6h11.6c0.4,0,0.8,0.2,1.1,0.5c0.2,0.2,0.4,0.6,0.4,1
	C20,8.3,19.3,9,18.5,9H6.9l5.6,3.3c0.4,0.3,0.7,0.8,0.7,1.3c0,0.2-0.1,0.5-0.2,0.7c-0.4,0.7-1.3,0.9-2,0.5L0.7,8.7
	C0.3,8.4,0,7.9,0,7.4l0,0l0,0c0-0.5,0.3-1,0.7-1.3L11,0.2C11.7-0.2,12.6,0,13,0.7z"/>
</svg>
