<svg xmlns="http://www.w3.org/2000/svg" xmlns:xlink="http://www.w3.org/1999/xlink" width="375" height="405" viewBox="0 0 375 405">
  <defs>
    <clipPath id="clip-path">
      <rect width="375" height="405" fill="none"/>
    </clipPath>
    <filter id="長方形_2658" x="0" y="0" width="375" height="405" filterUnits="userSpaceOnUse">
      <feOffset dy="3" input="SourceAlpha"/>
      <feGaussianBlur stdDeviation="5" result="blur"/>
      <feFlood flood-opacity="0.161"/>
      <feComposite operator="in" in2="blur"/>
      <feComposite in="SourceGraphic"/>
    </filter>
  </defs>
  <g id="リピートグリッド_1" data-name="リピートグリッド 1" clip-path="url(#clip-path)">
    <g id="グループ_2681" data-name="グループ 2681" transform="translate(0 -4689)">
      <g transform="matrix(1, 0, 0, 1, 0, 4689)" filter="url(#長方形_2658)">
        <rect id="長方形_2658-2" data-name="長方形 2658" width="345" height="375" transform="translate(15 12)" fill="#eaf2fa"/>
      </g>
      <text id="OPEN_CAMPUSへ_行こう" data-name="OPEN CAMPUSへ
行こう" transform="translate(187 4756)" fill="#326dcc" font-size="35" font-family="NotoSansJP-Regular, Noto Sans JP"><tspan x="-138.32" y="0">OPEN CAMPUS</tspan><tspan y="0">へ</tspan><tspan x="-52.5" y="50">行</tspan><tspan y="50">こう</tspan></text>
      <text id="どなたでもご参加できます_" data-name="どなたでもご参加できます。" transform="translate(58 4844)" fill="#326dcc" font-size="20" font-family="NotoSansJP-Regular, Noto Sans JP"><tspan x="0" y="0">どなたでもご</tspan><tspan y="0">参加</tspan><tspan y="0">できます。</tspan></text>
      <g id="グループ_2592" data-name="グループ 2592" transform="translate(-10.609 -14)">
        <g id="_12351_paint" data-name="12351_paint" transform="translate(119.609 4882.035)">
          <g id="グループ_1922" data-name="グループ 1922" transform="translate(0 0)">
            <path id="パス_147" data-name="パス 147" d="M226.169,152.532c3.811-3.823,8.342-9.84,13.295-6.533,2.766,1.847,6.231,4.359,8.267,6.938,1.114,1.411.626,3.39-.188,4.648a56.9,56.9,0,0,1-8.463,9.98c-4.068,4.058-5.777,5.25-7.865,6.553a4.044,4.044,0,0,1-4.049-.435c-1.6-1.059-5.641-5.916-7.461-8.415C216.8,161.281,222.055,156.938,226.169,152.532Z" transform="translate(-136.624 -90.544)" fill="#7a7473"/>
            <path id="パス_148" data-name="パス 148" d="M216.979,150.468c-1.42-1.594-2.511-2.874-2.936-3.5a7.917,7.917,0,0,1-1.148-2.426,4.644,4.644,0,0,1,1.041-4.458c2.85-3.137,7.04-.906,10.935,2.25l0,0a17.793,17.793,0,0,1,2.353-1.863l.1-.1c-2.029-1.506-6.421-4.584-9.7-4.651a7.187,7.187,0,0,0-4.651,1.526,7.449,7.449,0,0,0-2.826,3.714c-.723,2.993.113,5.433,2.246,8.591.474.7,1.416,1.859,2.612,3.256a28.139,28.139,0,0,1,1.969-2.339Z" transform="translate(-131.025 -84.723)" fill="#645d5c"/>
            <path id="パス_149" data-name="パス 149" d="M252.017,148.3a18.106,18.106,0,0,0-2.259,1.8c.107.085.212.171.318.258,1.992,1.644,10.646,9.9,13.126,12.848l.538.535c.793-.953,1.5-1.881,2.169-2.834l-.172-.178c-3.207-3.32-11.258-10.912-13.464-12.551l-.028-.022C252.168,148.206,252.092,148.255,252.017,148.3Z" transform="translate(-155.907 -92.491)" fill="#645d5c"/>
            <path id="パス_150" data-name="パス 150" d="M224.074,177.966q-.29-.335-.564-.656a28.184,28.184,0,0,1,1.967-2.338c4.356,4.885,11.825,12.723,12.8,13.734l.54.56a33.2,33.2,0,0,1-2.648,2.167l-.155-.178C234.041,189.016,227.99,182.493,224.074,177.966Z" transform="translate(-139.523 -109.227)" fill="#645d5c"/>
            <path id="パス_151" data-name="パス 151" d="M241.14,173.591q3.867-4.112,7.677-8.278c.654-.711-.406-1.777-1.063-1.063q-3.822,4.153-7.677,8.278C239.415,173.233,240.476,174.3,241.14,173.591Z" transform="translate(-149.734 -102.387)" fill="#645d5c"/>
            <path id="パス_152" data-name="パス 152" d="M20.372,66.051a.835.835,0,0,0-.25-.033,1.155,1.155,0,0,0-.767.3,1.008,1.008,0,0,0-.434-.257A1.588,1.588,0,0,0,16.9,67.35a1.584,1.584,0,0,0-.758-.451c-.834-.225-2.393.11-2.6,1.31a2.658,2.658,0,0,0-.747-.155c-1.6-.188-2.19,1.537-2.337,2.72a7.44,7.44,0,0,0,.251,3.194,11.724,11.724,0,0,0,.864,2.067c.239.437.559.832.792,1.272a2.683,2.683,0,0,1,.426,1.609c2.179-.469,4.535-1.028,6.553-1.458a3.147,3.147,0,0,1,.481-1.426,21.607,21.607,0,0,0,1.509-2.621c.281-.78.639-1.265.9-2.081a4.279,4.279,0,0,0,.118-2.127,1.555,1.555,0,0,0-.855-1.27c.52.783.056-.5-.469-1.265a2.138,2.138,0,0,0-.429-.5A.86.86,0,0,0,20.372,66.051Z" transform="translate(-6.484 -41.195)" fill="#fce0cd"/>
            <path id="パス_156" data-name="パス 156" d="M82.9,85.468c-.113-1.382-.185-2.753-.259-4.119q.4-.012.815-.059c.387-.044.761-.1,1.125-.182a15.1,15.1,0,0,0,3.074-1.127,16.1,16.1,0,0,0,2.317-1.276,12.8,12.8,0,0,0,1.044-1.073l.723.253.5.169c-.4,1.531-.951,3.586-1.576,5.828l-.084.081A30.06,30.06,0,0,1,86.44,87.1a1.236,1.236,0,0,1-1.113.109,24.235,24.235,0,0,1-2.367-1.084Q82.926,85.8,82.9,85.468Z" transform="translate(-51.588 -48.465)" fill="#fce0cd"/>
            <path id="パス_157" data-name="パス 157" d="M78.37,37.653a1.638,1.638,0,0,1,1.175-.287,1.478,1.478,0,0,1,1.246.818,3.994,3.994,0,0,1-.15,2.944,4.284,4.284,0,0,1-1.574,1.943,3.156,3.156,0,0,1-1.47.394l-.029.08c-.179.418-.615,1.156-.615,1.156a13.64,13.64,0,0,1-2.459,3.028A16.1,16.1,0,0,1,72.176,49,15.1,15.1,0,0,1,69.1,50.13c-.364.078-.737.139-1.125.182a8.293,8.293,0,0,1-6.37-1.825c-1.841-1.436-2.68-3.748-3.022-6.319-.2-1.482-.376-3.094-.627-4.7,0,0-1.879-9.458,9.563-9.458S78.37,37.653,78.37,37.653Z" transform="translate(-36.108 -17.488)" fill="#fce0cd"/>
            <path id="パス_158" data-name="パス 158" d="M85.5,105.658a33.184,33.184,0,0,1-2.013-9.152,24.065,24.065,0,0,0,2.367,1.085,1.236,1.236,0,0,0,1.113-.109A30.061,30.061,0,0,0,91.1,94.343l.085-.082a131.022,131.022,0,0,1-4.523,14,27.907,27.907,0,0,1-1.168-2.6Z" transform="translate(-52.115 -58.845)" fill="#fff"/>
            <path id="パス_159" data-name="パス 159" d="M33.1,232.476c4.329-6.466,8.848-13.659,13.332-20.479l-.67.376a12.25,12.25,0,0,1-3.882,1.322,2.874,2.874,0,0,1-2.267-.606,2.7,2.7,0,0,1-.724-2.3,6.106,6.106,0,0,1,.812-2.357,77.122,77.122,0,0,1,6.509-10.055l14.923,11.766c-7.249,8.321-20.029,24.778-21.071,26.517l-.478.8a19.486,19.486,0,0,1-6.682-4.885" transform="translate(-20.541 -123.837)" fill="#fce0cd"/>
            <path id="パス_160" data-name="パス 160" d="M33.986,265.512c-.325-.316-.619-.629-.878-.93,3.2-4.768,6.5-9.939,9.814-15.068l.193.159a24.3,24.3,0,0,0,8.677,3.845c-5.647,7.052-10.945,13.969-11.6,15.063l-.478.8a19.99,19.99,0,0,1-5.726-3.867Z" transform="translate(-20.668 -155.759)" fill="#fff"/>
            <path id="パス_161" data-name="パス 161" d="M57.935,274.982q-2.081,2.663-4.126,5.353A33.988,33.988,0,0,0,51.8,283.1a.752.752,0,0,0,1.3.759,33.025,33.025,0,0,1,1.944-2.68c1.3-1.725,2.625-3.433,3.956-5.135a.777.777,0,0,0,0-1.063.756.756,0,0,0-1.063,0Z" transform="translate(-32.265 -171.52)" fill="#d9d9d9"/>
            <path id="パス_162" data-name="パス 162" d="M41.384,251.445c-2.716,4.206-5.413,8.425-8.2,12.588-.539.806.762,1.559,1.3.759,2.784-4.162,5.482-8.38,8.2-12.588.526-.815-.774-1.569-1.3-.758Z" transform="translate(-20.636 -156.747)" fill="#d9d9d9"/>
            <path id="パス_163" data-name="パス 163" d="M75.852,182.757a15,15,0,0,1-8.684-.689c-2.547-.981-4.274-2.521-6.106-5.464a9.9,9.9,0,0,1-1.973,2.562,8.649,8.649,0,0,1-3.465,1.963,11.5,11.5,0,0,1-5.474.47c-1.977,2-4.215,4.33-6.05,6.489a28.325,28.325,0,0,0-3.226,4.284c.259.167.57.351.924.547a78.816,78.816,0,0,0,11.213,4.81,34.359,34.359,0,0,0,11.566,1.176c7.158-.676,12.84-1.706,18.435-6.039a22.148,22.148,0,0,0,4.156-4.393c-1.635-2.342-3.864-5.987-5.617-8.527A13.609,13.609,0,0,1,75.852,182.757Z" transform="translate(-25.516 -110.246)" fill="#a0a0a0"/>
            <path id="パス_164" data-name="パス 164" d="M114.843,198.112a88.051,88.051,0,0,0,1.24,9.822.758.758,0,0,0,.924.526.769.769,0,0,0,.526-.924,84.377,84.377,0,0,1-1.188-9.423c-.056-.962-1.559-.968-1.5,0Z" transform="translate(-71.688 -123.221)" fill="#878787"/>
            <path id="パス_165" data-name="パス 165" d="M139.725,203.743a33.231,33.231,0,0,1-2.123-5.1.752.752,0,1,0-1.449.4,35.95,35.95,0,0,0,2.275,5.459.758.758,0,0,0,1.028.269.767.767,0,0,0,.27-1.028Z" transform="translate(-84.974 -123.659)" fill="#878787"/>
            <path id="パス_166" data-name="パス 166" d="M65.938,204.687l4.558-5.345a.771.771,0,0,0,0-1.063.758.758,0,0,0-1.063,0l-4.558,5.345a.771.771,0,0,0,0,1.063A.758.758,0,0,0,65.938,204.687Z" transform="translate(-40.365 -123.641)" fill="#878787"/>
            <path id="パス_167" data-name="パス 167" d="M21.39,85.507c-.121,2.275-.186,4.138-.208,6.15a69.461,69.461,0,0,0,5.492-5.2c1-.965,2.117-1.963,2.522-2.259a37.53,37.53,0,0,1,5.245-3.029,8,8,0,0,0,4.009.886c.29,5.318.521,10.709,3.5,16.534,2.007-4.608,4.807-14.909,6.1-19.828l3.635,1.228c3.143.423,7.548,1.093,9.8,1.6,6.087,1.631,7.932,1.98,12.889,4.235,2.958,1.339,11.217,7.457,13.487,9.257-1.315,1.647-4.69,5.918-6.3,7.245-2.8-2.176-7.685-6.057-10.009-7.393A21.777,21.777,0,0,0,67.633,93.7c-2.221-.533-4.727-.989-6.377-1.268l-.558-.094c-.639,3.419-1.846,11.447-1.7,13.363.192,1.437,5.493,6.564,6.839,8.468.692.979.491,1.551-.368,2.653a13.993,13.993,0,0,1-7.732,4.859,14.993,14.993,0,0,1-8.684-.689c-2.547-.981-4.274-2.521-6.106-5.464a9.9,9.9,0,0,1-1.973,2.562,8.649,8.649,0,0,1-3.465,1.963,11.2,11.2,0,0,1-6.278.3,3.407,3.407,0,0,1-1.558-.9,1.334,1.334,0,0,1-.237-1.472c.667-2,1.49-4.118,2.076-5.756a28.329,28.329,0,0,0,1.851-8.264,29.049,29.049,0,0,0-1.511-7.121l-.61.436c-1.564,1.3-3.507,2.769-5.246,3.974-1.152.795-2.25,1.5-3.139,1.984a18.58,18.58,0,0,1-4.992,2.267c-1.684.306-4.157-.23-5.073-1.669-.991-1.616-.814-3.706-.92-5.546A107.392,107.392,0,0,1,12.222,87.2c2.96-.593,6.518-1.475,9.186-2C21.4,85.3,21.4,85.4,21.39,85.507Z" transform="translate(-7.397 -49.167)" fill="#3d8dcc"/>
            <path id="パス_168" data-name="パス 168" d="M206.99,124.72c-.485-.231-.929-.443-1.14-.555,0,0-.208-.11-.522-.279-1.182,1.448-2.914,3.489-4.345,4.915.169.192.278.318.278.318.354.409.965.821.782,1.393a4.485,4.485,0,0,0-.1,2.079,11.141,11.141,0,0,0,.546,2.33,5.331,5.331,0,0,0,.636,1.437,1.132,1.132,0,0,0,1.318.44c.595-.223.69-.78.806-1.5.133.169.272.336.454.55a2.911,2.911,0,0,0,.768.7.955.955,0,0,0,1.005-.018c.161-.124.569-.5.723-.639.541-.571,1.98-2.126,2.585-2.907a6.032,6.032,0,0,0,1.326-2.713,4.664,4.664,0,0,0-1.2-2.473,8.339,8.339,0,0,0-.834-1.052,6.321,6.321,0,0,0-1.27-1.131C208.562,125.467,207.729,125.072,206.99,124.72Z" transform="translate(-125.461 -77.338)" fill="#fce0cd"/>
            <path id="パス_169" data-name="パス 169" d="M65.619,95.3c.621.628,1.077,1.394,1.7,2.022l.152-1.18a13.22,13.22,0,0,0-2.213,1.79.764.764,0,0,0-.118.911c1.543,2.4,3.058,4.817,4.587,7.226l.752,1.186c.518.814,1.819.06,1.3-.759q-2.307-3.63-4.609-7.265c-.243-.383-.484-.766-.729-1.147L66.32,99a11.373,11.373,0,0,1,1.909-1.555.762.762,0,0,0,.152-1.18c-.622-.628-1.077-1.394-1.7-2.022-.681-.689-1.744.374-1.063,1.063Z" transform="translate(-40.6 -58.691)" fill="#2679b2"/>
            <path id="パス_170" data-name="パス 170" d="M108.669,89.607c-.627.683-1.24,1.38-1.879,2.052a.757.757,0,0,0,0,1.063c.823.639,1.549,1.39,2.348,2.059l-.118-.911c-2.011,2.735-3.983,5.5-6.028,8.209a.756.756,0,0,0,.269,1.028.77.77,0,0,0,1.028-.27c2.045-2.711,4.017-5.474,6.028-8.209a.752.752,0,0,0-.118-.911c-.8-.668-1.525-1.419-2.348-2.059v1.063c.639-.672,1.251-1.369,1.879-2.052.653-.712-.407-1.777-1.063-1.063Z" transform="translate(-64.228 -55.792)" fill="#2679b2"/>
            <path id="パス_171" data-name="パス 171" d="M32.1,68.581a6.4,6.4,0,0,0-1.567-.075,2.993,2.993,0,0,0-1.543.451,2.085,2.085,0,0,0-.882,1.591,1.785,1.785,0,0,0,.544,1.444c.376.316.839.494,1.234.783a.752.752,0,1,0,.759-1.3c-.274-.2-.585-.344-.874-.523-.059-.038-.113-.075-.172-.113s.1.069.093.072a.211.211,0,0,1-.04-.038c-.087-.1.065.108.038.054a1.158,1.158,0,0,0-.059-.1c-.04-.062.038.092.035.089,0-.019-.014-.038-.02-.057-.015-.045-.025-.091-.038-.138-.029-.117.013.18,0,.015q0-.063,0-.125c0-.028,0-.056,0-.083,0-.081-.007.1-.015.1-.026-.026.056-.222.067-.256.029-.088-.075.15-.028.071.01-.017.018-.035.028-.052a.967.967,0,0,0,.069-.108s-.106.125-.054.07c.014-.015.027-.032.041-.047.038-.04.078-.075.118-.113.092-.086-.131.085-.023.02.035-.021.069-.043.1-.063s.183-.087.059-.032.035-.009.067-.019a2.321,2.321,0,0,1,.251-.058c.026,0,.212-.032.079-.014s.053,0,.086-.008a5.916,5.916,0,0,1,.725-.023c.11,0,.219.009.328.018l.177.018c.026,0,.106.014-.015,0-.139-.018,0,0,.022.005a.815.815,0,0,0,.579-.075.752.752,0,0,0-.18-1.373Z" transform="translate(-17.54 -42.757)" fill="#efc0a0"/>
            <path id="パス_172" data-name="パス 172" d="M17.929,71.857c.208.117.406.25.6.384.085.058.17.116.254.176l.1.073.067.051c-.1-.075-.113-.088-.052-.038s.15.124.218.192c.038.038.072.075.108.113.089.094-.109-.166-.008-.008.02.031.035.063.053.1q.05.107-.026-.064a.75.75,0,0,1,.026.08q.011.042.02.081c.015.08.012.054-.008-.075a1.445,1.445,0,0,0,0,.145c-.006.179.045-.153,0-.017-.006.027-.013.053-.021.079q-.039.113.03-.065c-.014.012-.121.183-.025.062s-.011.008-.031.029-.034.033-.051.048c-.058.048-.038.032.067-.05-.044.021-.083.056-.127.08-.063.035-.156.038.042-.011-.049.012-.1.035-.145.047-.192.047.142,0,.015,0-.038,0-.075,0-.113,0q.209.033.092.008a.655.655,0,0,1-.07-.022q.182.082.079.027l-.066-.04c-.18-.109-.359-.22-.543-.322a.752.752,0,0,0-.759,1.3,3.008,3.008,0,0,0,1.3.557,1.858,1.858,0,0,0,1.348-.566,1.744,1.744,0,0,0,.416-1.627,2.12,2.12,0,0,0-.789-1.147,9.515,9.515,0,0,0-1.26-.868.752.752,0,0,0-.759,1.3Z" transform="translate(-10.798 -43.985)" fill="#efc0a0"/>
            <path id="パス_173" data-name="パス 173" d="M24.21,69.171c.107.158.21.319.3.485q.059.107.113.217c.011.024.084.19.029.059s.007.019.017.045a3.758,3.758,0,0,1,.164.524c.006.028.035.207.015.061s0,.015,0,.045c0,.048,0,.1,0,.145,0,.136.041-.18.008-.038-.009.038-.025.075-.03.113q.081-.178.029-.075l-.019.032c-.058.116.117-.113.021-.032a.516.516,0,0,1-.059.053c.1-.071.12-.091.072-.059a.507.507,0,0,1-.123.067l.105-.045c-.025.009-.05.017-.075.024-.1.026-.106-.017.046,0-.036,0-.075,0-.113,0s-.065,0-.1-.008c-.136-.011.209.032.033,0-.089-.014-.177-.032-.265-.051-.168-.038-.336-.079-.5-.128a.752.752,0,1,0-.4,1.45q.289.086.584.145a3,3,0,0,0,.721.091,1.62,1.62,0,0,0,1.49-1.072,2.452,2.452,0,0,0-.121-1.548,5.585,5.585,0,0,0-.65-1.267.752.752,0,0,0-1.3.759Z" transform="translate(-14.315 -42.477)" fill="#efc0a0"/>
            <path id="パス_174" data-name="パス 174" d="M74,17.446a28.591,28.591,0,0,1-4.123-5.594c-2.5,2.179-9.357,6.523-12.577,7.556l-.062.02a18.618,18.618,0,0,1-.087-5.054A11.848,11.848,0,0,1,59.351,9a12.275,12.275,0,0,1,8.876-4.443,11.282,11.282,0,0,1,5.1.652C73.9,3.025,75,1.08,77.295.286a5.431,5.431,0,0,1,4.462.477,10.291,10.291,0,0,0,2.005.939,3.45,3.45,0,0,0,2.067.062,3.038,3.038,0,0,0,1.1-.564.413.413,0,0,1,.657.239,4.644,4.644,0,0,1,.095,1.3,7.884,7.884,0,0,1-2.57,5.277A6.014,6.014,0,0,1,79.429,9.7l-.018,0a11.3,11.3,0,0,1,1.39,3.179,10.123,10.123,0,0,1,.392,3.1c-.035,1.092-.029,3.618-.748,5.082l-.17-.352a1.478,1.478,0,0,0-1.244-.817,1.638,1.638,0,0,0-1.175.287l-2.463-1.75A4.878,4.878,0,0,1,74,17.446Z" transform="translate(-35.593 -0.012)" fill="#febe69"/>
            <path id="パス_175" data-name="パス 175" d="M76.241,73.88a5.057,5.057,0,0,0,1.667.164,3.6,3.6,0,0,0,.886-.158,7.761,7.761,0,0,0,.906-.43.756.756,0,0,0,.27-1.028.77.77,0,0,0-1.028-.269c-.124.061-.246.129-.369.193a1.055,1.055,0,0,0-.176.089q.16-.065.056-.024l-.077.027a2.466,2.466,0,0,1-.332.083l-.088.014q.188-.024.066-.009c-.053,0-.106.01-.159.014a4.472,4.472,0,0,1-.714-.014c-.064-.006-.254-.059-.022,0-.055-.014-.115-.018-.171-.028q-.159-.03-.315-.072a.752.752,0,0,0-.4,1.449Z" transform="translate(-47.248 -44.987)" fill="#efc0a0"/>
            <path id="パス_176" data-name="パス 176" d="M85.862,56.373c-.154-.523-.036-1.72.952-1.81,1.3.023,1.357,1.473.91,2.149A1.033,1.033,0,0,1,85.862,56.373Z" transform="translate(-53.564 -34.064)" fill="#645d5c"/>
            <path id="パス_177" data-name="パス 177" d="M65.255,56.774c-.142-.526-.038-1.725.869-1.814,1.194.025,1.245,1.479.837,2.157C66.626,57.671,65.656,57.89,65.255,56.774Z" transform="translate(-40.702 -34.312)" fill="#645d5c"/>
            <path id="パス_178" data-name="パス 178" d="M74.548,61.811c-.164.291-.319.587-.458.891a1.451,1.451,0,0,0-.171.6.92.92,0,0,0,.328.718,1.244,1.244,0,0,0,.542.293c.129.026.256.03.385.045a.752.752,0,0,0,.531-1.283l-.152-.118a.747.747,0,0,0-.379-.1c-.051-.006-.1-.007-.154-.014l.2.027a.6.6,0,0,1-.113-.03l.18.075a.583.583,0,0,1-.128-.075l.152.118a.635.635,0,0,1-.072-.067l.118.152a.165.165,0,0,1-.019-.031l.075.18a.251.251,0,0,1-.015-.052l.027.2a.348.348,0,0,1,0-.075l-.027.2a.685.685,0,0,1,.043-.138l-.075.18c.141-.321.307-.632.479-.937a.782.782,0,0,0,.075-.579A.752.752,0,0,0,75,61.464a.777.777,0,0,0-.449.345Z" transform="translate(-46.144 -38.355)" fill="#efc0a0"/>
            <path id="パス_179" data-name="パス 179" d="M86.605,48.447a8.465,8.465,0,0,0,1.5-.549.759.759,0,0,0,.345-.449.768.768,0,0,0-.075-.579.758.758,0,0,0-.451-.345l-.2-.027a.747.747,0,0,0-.379.1c-.075.038-.148.069-.223.1l.18-.075a9,9,0,0,1-1.1.372.776.776,0,0,0-.451.345.752.752,0,0,0,.269,1.028.783.783,0,0,0,.579.075Z" transform="translate(-53.467 -29.03)" fill="#645d5c"/>
            <path id="パス_180" data-name="パス 180" d="M19.421,290a8.6,8.6,0,0,1-1.541,6.02,3.715,3.715,0,0,1-1.746,1.165,5.469,5.469,0,0,1-3.393-.824,56.062,56.062,0,0,1-6.087-3.988c-.743-.554-1.813-1.364-2.555-1.916-1.794-1.338-3.385-2.4-4-4.557a3.377,3.377,0,0,1,.054-1.791,2.437,2.437,0,0,1,.854-1.135,4.288,4.288,0,0,1,1.6-.6,5.072,5.072,0,0,1,2.126.079,35.26,35.26,0,0,1,7.633,2.5A19.452,19.452,0,0,0,19.421,290" transform="translate(-0.002 -176.222)" fill="#7a7473"/>
          </g>
        </g>
        <g id="_12337_paint" data-name="12337_paint" transform="translate(161.678 4888.563)">
          <path id="パス_181" data-name="パス 181" d="M101.6,78.691c1.321-4.47,2.629-9.465,3.481-12.757l-.165-.045-.9-.264a12.514,12.514,0,0,1-1.1,1.118,10.065,10.065,0,0,1-1.1.679c-.326.167-.82.377-1.177.542a14.779,14.779,0,0,1-3.021,1.066,11.024,11.024,0,0,1-1.1.165q-.317.031-.625.043c.007.436.011.707.011.707.07,4.291.574,11.282,3.115,16.515C99.776,84.6,100.691,81.768,101.6,78.691Z" transform="translate(-60.62 -41.483)" fill="#fff"/>
          <path id="パス_182" data-name="パス 182" d="M73.762,18.826A5.5,5.5,0,0,0,70.7,22.969a7.833,7.833,0,0,0,.172,3.254q.046.324.089.648c.179,1.361.316,2.708.468,3.961.3,2.519,1.1,4.792,2.881,6.219a8.07,8.07,0,0,0,5.587,1.906q.308-.011.625-.043a11.026,11.026,0,0,0,1.1-.165,14.778,14.778,0,0,0,3.021-1.066c.357-.164.852-.374,1.177-.542a10.066,10.066,0,0,0,1.1-.679A12.508,12.508,0,0,0,88,35.379l.081-.095a14.466,14.466,0,0,0,1.287-1.754s.435-.716.616-1.123l.037-.078a3.089,3.089,0,0,0,1.436-.368,4.194,4.194,0,0,0,1.564-1.882A3.907,3.907,0,0,0,93.2,27.2a1.445,1.445,0,0,0-1.209-.815,1.6,1.6,0,0,0-1.154.267s.916-8.919-11.481-8.919A12.211,12.211,0,0,0,73.762,18.826Z" transform="translate(-44.637 -11.202)" fill="#fce0cd"/>
          <path id="パス_186" data-name="パス 186" d="M151.471,204.4a10.138,10.138,0,0,1-1.154,2.091,5.336,5.336,0,0,1-1.627,1.572,3.347,3.347,0,0,1-2.377.407,3.062,3.062,0,0,1-2.092-1.885,6.9,6.9,0,0,1-.311-2.648c.021-1.448-.054-3.92-.033-5.369l-.032-3.5a26.565,26.565,0,0,0,1.539-2.172c.323-.517.7-1.1,1.066-1.711l2.222.152a7.472,7.472,0,0,1,2.835.569,3.586,3.586,0,0,1,1.879,2.516,5.984,5.984,0,0,1-.317,3,22.15,22.15,0,0,0-.692,2.153c-.175.812-.175,1.649-.283,2.471A9.56,9.56,0,0,1,151.471,204.4Z" transform="translate(-90.948 -120.874)" fill="#7a7473"/>
          <path id="パス_187" data-name="パス 187" d="M31.7,53.977a1.117,1.117,0,0,0-.635.3,1.009,1.009,0,0,0-.428-.246A1.554,1.554,0,0,0,28.672,55.3a1.548,1.548,0,0,0-.746-.435c-.818-.212-2.34.129-2.535,1.305a2.6,2.6,0,0,0-.732-.145c-1.571-.171-2.129,1.523-2.263,2.682a7.289,7.289,0,0,0,.274,3.124,11.51,11.51,0,0,0,.865,2.016c.238.425.554.809.786,1.237a2.6,2.6,0,0,1,.432,1.475c2.131-.478,4.427-1.045,6.409-1.488a3.1,3.1,0,0,1,.449-1.3,21.2,21.2,0,0,0,1.453-2.578c.268-.766.614-1.244.862-2.044a4.192,4.192,0,0,0,.1-2.082,1.613,1.613,0,0,0-.639-1.118l-.028-.093A5.835,5.835,0,0,0,32.7,54.6a2.077,2.077,0,0,0-.425-.481.7.7,0,0,0-.469-.147.905.905,0,0,0-.11.007Z" transform="translate(-14.121 -34.103)" fill="#fce0cd"/>
          <path id="パス_188" data-name="パス 188" d="M61.1,169.536a12.261,12.261,0,0,1-5.067,4.037,11.262,11.262,0,0,1-5.028.469l-.54.979c-2.6,4.718-4.354,7.829-6.88,13.124a7.449,7.449,0,0,0-.673,3.015,2.626,2.626,0,0,0,.794,2.114,2.784,2.784,0,0,0,2.105.577c-.261.334-.535.681-.813,1.041-3.479,4.468-8.278,10.723-11.459,14.786a1.405,1.405,0,0,0-.416.952,1.391,1.391,0,0,0,.541.82c2.633,2.119,6.009,5.158,8.976,6.961,4.843-6.167,11.3-14.194,15.882-19.674,2.726-3.258,7.867-8.661,11.7-13.072a56.8,56.8,0,0,0,5.157-6.458,16.418,16.418,0,0,0,2.241-4.339,8.16,8.16,0,0,1-1.937.759,14.429,14.429,0,0,1-8.862-1.239,20.142,20.142,0,0,1-5.722-4.854" transform="translate(-20.942 -107.183)" fill="#a0a0a0"/>
          <path id="パス_189" data-name="パス 189" d="M102.12,84.642c.464,1.379.588,1.885,1.036,3.354l.172.481c-.869,2.922-1.738,5.59-2.48,7.37a27.546,27.546,0,0,1-2.048-6.22l.221-.973c.434-1.915.633-2.832.956-4.112-.2-.685-.478-1.61-.662-2.251l-.147-.6c.532-.462,1.12-.961,1.471-1.219.816.418,1.667.809,2.47,1.226-.147.318-.257.564-.257.564-.271.592-.487,1.327-.855,2.025Z" transform="translate(-62.467 -50.871)" fill="#ffda71"/>
          <path id="パス_190" data-name="パス 190" d="M239.2,140.347c3.729-3.741,8.164-9.63,13.01-6.394,2.707,1.808,6.1,4.266,8.09,6.789,1.09,1.381.613,3.318-.184,4.549a55.694,55.694,0,0,1-8.282,9.766c-3.981,3.972-5.653,5.137-7.7,6.413a3.956,3.956,0,0,1-3.963-.426c-1.568-1.036-5.52-5.789-7.3-8.234C230.029,148.908,235.172,144.657,239.2,140.347Z" transform="translate(-146.718 -84.092)" fill="#7a7473"/>
          <path id="パス_191" data-name="パス 191" d="M230.014,138.126c-1.39-1.56-2.457-2.813-2.873-3.427a7.752,7.752,0,0,1-1.123-2.374,4.545,4.545,0,0,1,1.018-4.363c2.789-3.07,6.89-.887,10.7,2.2l0,0a17.412,17.412,0,0,1,2.3-1.822l.1-.1c-1.986-1.473-6.283-4.486-9.494-4.551a7.034,7.034,0,0,0-4.552,1.494,7.289,7.289,0,0,0-2.766,3.634c-.708,2.93.11,5.317,2.2,8.407.464.686,1.386,1.819,2.556,3.186A27.477,27.477,0,0,1,230.014,138.126Z" transform="translate(-141.049 -78.196)" fill="#645d5c"/>
          <path id="パス_192" data-name="パス 192" d="M265.152,136.273a17.686,17.686,0,0,0-2.21,1.762q.157.124.311.252c1.949,1.609,10.418,9.687,12.845,12.573l.527.524c.776-.932,1.471-1.841,2.122-2.774l-.168-.174c-3.139-3.25-11.018-10.679-13.176-12.284l-.028-.021Q265.264,136.2,265.152,136.273Z" transform="translate(-166.249 -86.062)" fill="#645d5c"/>
          <path id="パス_193" data-name="パス 193" d="M237.246,165.877q-.284-.328-.552-.641a27.545,27.545,0,0,1,1.925-2.288c4.262,4.781,11.572,12.451,12.525,13.44l.528.548a32.468,32.468,0,0,1-2.592,2.12l-.152-.174C247,176.691,241.078,170.307,237.246,165.877Z" transform="translate(-149.653 -103.017)" fill="#645d5c"/>
          <path id="パス_194" data-name="パス 194" d="M254.3,161.357q3.784-4.025,7.513-8.1c.64-.7-.4-1.739-1.04-1.04q-3.741,4.065-7.513,8.1C252.609,161.006,253.647,162.048,254.3,161.357Z" transform="translate(-159.996 -96.086)" fill="#645d5c"/>
          <path id="パス_195" data-name="パス 195" d="M.642,283.871a5.725,5.725,0,0,1-.574-1.45A3.45,3.45,0,0,1,.189,280.6a2.487,2.487,0,0,1,.916-1.129,4.416,4.416,0,0,1,1.655-.559,5.225,5.225,0,0,1,2.17.158,34.589,34.589,0,0,1,8.506,3.471s.344-.36.735-.772c1.9,1.578,4.034,3.394,6.072,4.817-.144.45-.321,1.043-.528,1.577-.4,1.232-.419,3.225-1.857,5.251a3.636,3.636,0,0,1-1.824,1.125,5.567,5.567,0,0,1-3.435-.967,57.3,57.3,0,0,1-6.075-4.3c-.735-.592-1.8-1.46-2.537-2.052A12.535,12.535,0,0,1,.642,283.871Z" transform="translate(0.002 -176.305)" fill="#7a7473"/>
          <path id="パス_196" data-name="パス 196" d="M67.566,201.8c3.457-4.692,7.284-9.1,10.855-13.7q1.941-2.5,3.814-5.052a.741.741,0,0,0-.264-1.006.752.752,0,0,0-1.006.264c-3.827,5.22-7.969,10.182-11.985,15.255-.913,1.153-1.813,2.317-2.684,3.5a.74.74,0,0,0,.264,1.006.752.752,0,0,0,1.006-.264Z" transform="translate(-41.854 -115.031)" fill="#878787"/>
          <path id="パス_197" data-name="パス 197" d="M44.5,108.725q-.158-.04-.308-.086a4.509,4.509,0,0,1-.7-.281c-.548-.279-1.04-.7-.868-1.33,1.174-4.332,2.264-9.161,2.264-11.962A66.869,66.869,0,0,0,43.463,84.6l-.092.078c-.769.653-1.667,1.373-2.6,2.1-.287.221-.574.439-.865.655-.481.363-.968.719-1.448,1.06-.1.068-.194.136-.287.2-1.143.8-2.232,1.518-3.116,2.01a18.558,18.558,0,0,1-4.964,2.31c-1.679.321-4.153-.192-5.081-1.62a8,8,0,0,1-.9-3.976c-.028-.527-.052-1.042-.07-1.553S24,84.844,24,84.34q-.01-.376-.009-.751c-.025-2.866.1-5.652.3-8.8,2.95-.62,6.5-1.532,9.154-2.085-.11,2.4-.161,4.33-.166,6.414,2.068-1.342,3.807-3.439,5.553-5.061,1.019-.946,2.29-2.048,2.7-2.337a31.3,31.3,0,0,1,4.946-2.635l.187-.074a7.872,7.872,0,0,0,3.756.746c.008.45.012.707.012.707.07,4.291.574,11.282,3.115,16.515,1.831-4.394,4.439-14.2,5.913-19.887l.154-.643c1.114.312,3.37,1.143,4.248,1.312a78.041,78.041,0,0,1,9.451,1.553c5.959,1.6,7.763,1.936,12.615,4.142,3.081,1.4,12.048,8.1,13.552,9.355-1.316,1.645-4.679,5.9-6.285,7.227C90.4,87.873,85.529,84,83.212,82.671c-2.1-1.015-7.439-2.011-10.263-2.49l-.15-.025c-.575,2.825-2.26,11.051-1.3,15.6,1.133,3.593,2.821,5.406,4.25,7.906.735,1.287.766,2.14-.488,3.435a12.173,12.173,0,0,1-5.358,3.362,14.429,14.429,0,0,1-8.862-1.239,20.142,20.142,0,0,1-5.722-4.854,12.262,12.262,0,0,1-5.067,4.037A10.983,10.983,0,0,1,44.5,108.725Z" transform="translate(-15.164 -42.007)" fill="#3d8dcc"/>
          <path id="パス_198" data-name="パス 198" d="M221.847,125.6a4.062,4.062,0,0,1-.441-.463c-.178-.21-.315-.373-.445-.538-.114.7-.206,1.25-.788,1.469a1.108,1.108,0,0,1-1.29-.431,5.21,5.21,0,0,1-.623-1.406,10.879,10.879,0,0,1-.534-2.28,4.389,4.389,0,0,1,.093-2.035c.178-.56-.419-.963-.765-1.364,0,0-.106-.122-.272-.31l-.227-.256c1.348-1.48,2.952-3.465,4.023-4.805l.455.25c.308.166.512.273.512.273.207.11.641.317,1.116.544.723.344,1.538.73,1.782.872a6.187,6.187,0,0,1,1.243,1.107,8.16,8.16,0,0,1,.816,1.03,4.552,4.552,0,0,1,1.173,2.42,5.886,5.886,0,0,1-1.3,2.655c-.592.765-2,2.287-2.53,2.846-.151.139-.549.5-.707.625a.935.935,0,0,1-.984.017,1.846,1.846,0,0,1-.31-.218Z" transform="translate(-136.921 -71.551)" fill="#fce0cd"/>
          <path id="パス_199" data-name="パス 199" d="M72.075,5.132A12.135,12.135,0,0,0,70.47,9.5a18.487,18.487,0,0,0,.24,6.172c.031-.207.05-.349.05-.349a10.5,10.5,0,0,1,3.457-4.826c.165-.1.392.007.478.288a1.884,1.884,0,0,1,.089.681.357.357,0,0,0,.532.35,28.091,28.091,0,0,1,3.707-2.44A15.283,15.283,0,0,1,82.385,9.1a10.842,10.842,0,0,1,5.92,4.969A4.141,4.141,0,0,0,89.425,15.1a1.686,1.686,0,0,0,1.234.327,1.6,1.6,0,0,1,1.154-.267,1.445,1.445,0,0,1,1.209.815,1.94,1.94,0,0,1,.133.4c.749-1.414.775-3.938.822-5.022a9.919,9.919,0,0,0-.346-3.038,9.482,9.482,0,0,0-2.894-4.951l-.311-.274L88.8,2A11.032,11.032,0,0,0,81.428.021a12.018,12.018,0,0,0-8.739,4.242,8.543,8.543,0,0,0-.614.869Z" transform="translate(-44.458 0.026)" fill="#7a7473"/>
          <path id="パス_200" data-name="パス 200" d="M89.138,61.783a4.942,4.942,0,0,0,1.629.179,3.532,3.532,0,0,0,.869-.147,7.656,7.656,0,0,0,.891-.412A.739.739,0,0,0,92.79,60.4a.755.755,0,0,0-1.006-.264c-.123.058-.242.123-.363.184-.026.013-.165.061-.174.085.1-.043.122-.051.055-.025l-.076.026a3.022,3.022,0,0,1-.326.077q-.119.019.066-.007l-.088.01-.156.011a4.333,4.333,0,0,1-.7-.022l-.088-.01q.184.025.066.008l-.167-.03c-.1-.02-.206-.045-.308-.074a.736.736,0,1,0-.391,1.418Z" transform="translate(-56.016 -37.951)" fill="#efc0a0"/>
          <path id="パス_201" data-name="パス 201" d="M98.973,44.337c-.145-.515-.014-1.683.954-1.76,1.276.039,1.31,1.457.864,2.113A1.011,1.011,0,0,1,98.973,44.337Z" transform="translate(-62.545 -26.911)" fill="#645d5c"/>
          <path id="パス_202" data-name="パス 202" d="M78.362,44.481c-.133-.515-.014-1.689.872-1.765,1.168.039,1.2,1.462.793,2.121C79.694,45.375,78.742,45.578,78.362,44.481Z" transform="translate(-49.516 -26.999)" fill="#645d5c"/>
          <path id="パス_203" data-name="パス 203" d="M87.566,49.68c-.162.279-.317.564-.455.857a1.459,1.459,0,0,0-.173.588.9.9,0,0,0,.3.7,1.278,1.278,0,0,0,.532.3,2.909,2.909,0,0,0,.379.049l-.2-.026h.013a.56.56,0,0,0,.294.013.546.546,0,0,0,.274-.088.735.735,0,0,0,.264-1.006.7.7,0,0,0-.441-.338c-.11-.015-.221-.026-.331-.039l.2.026a.573.573,0,0,1-.126-.032l.176.074a.578.578,0,0,1-.106-.061l.149.115a.654.654,0,0,1-.088-.08l.115.147a.152.152,0,0,1-.019-.031l.074.176a.247.247,0,0,1-.014-.051l.026.2a.353.353,0,0,1,0-.056l-.026.2a.559.559,0,0,1,.037-.135l-.074.176a8.767,8.767,0,0,1,.491-.927.763.763,0,0,0,.074-.567.752.752,0,0,0-.338-.441A.742.742,0,0,0,88,49.341a.766.766,0,0,0-.441.338Z" transform="translate(-54.967 -31.171)" fill="#efc0a0"/>
          <path id="パス_204" data-name="パス 204" d="M99.816,36.044a8.27,8.27,0,0,0,1.475-.521.741.741,0,0,0,.338-.441.753.753,0,0,0-.074-.567.742.742,0,0,0-.441-.338l-.2-.026a.735.735,0,0,0-.371.1l-.159.071.176-.074a8.506,8.506,0,0,1-1.14.376.759.759,0,0,0-.439.338.735.735,0,0,0,.264,1.006.777.777,0,0,0,.567.074Z" transform="translate(-62.521 -21.583)" fill="#645d5c"/>
          <path id="パス_205" data-name="パス 205" d="M78.85,83.607c.6.609,1.045,1.353,1.647,1.962l.149-1.155A12.841,12.841,0,0,0,78.5,86.152a.747.747,0,0,0-.115.891c1.5,2.333,2.973,4.684,4.459,7.026l.72,1.134c.506.8,1.78.06,1.27-.742Q82.59,90.93,80.351,87.4c-.232-.366-.463-.733-.7-1.1l-.115.891a11.035,11.035,0,0,1,1.85-1.508.745.745,0,0,0,.149-1.155c-.6-.609-1.045-1.353-1.648-1.962-.666-.674-1.707.368-1.04,1.04Z" transform="translate(-49.497 -52.057)" fill="#2679b2"/>
          <path id="パス_206" data-name="パス 206" d="M121.8,76.839c-.665.733-1.3,1.489-1.99,2.2a.749.749,0,0,0,.147,1.155c.785.6,1.54,1.245,2.3,1.875l-.115-.891c-1.963,2.675-3.734,5.485-5.73,8.136a.74.74,0,0,0,.264,1.006.753.753,0,0,0,1.006-.264c2-2.651,3.767-5.462,5.73-8.136a.735.735,0,0,0-.115-.891c-.86-.71-1.716-1.425-2.6-2.1l.149,1.155c.687-.712,1.324-1.469,1.99-2.2.635-.7-.4-1.743-1.04-1.04Z" transform="translate(-73.541 -48.426)" fill="#2679b2"/>
          <path id="パス_207" data-name="パス 207" d="M43.877,56.5a6.243,6.243,0,0,0-1.533-.062,2.932,2.932,0,0,0-1.508.453,2.034,2.034,0,0,0-.855,1.561,1.75,1.75,0,0,0,.541,1.41c.371.307.824.478,1.214.756a.738.738,0,0,0,1.006-.264.755.755,0,0,0-.264-1.006c-.27-.194-.576-.331-.859-.5-.058-.035-.11-.074-.169-.11s.093.067.091.071-.042-.037-.039-.034c-.08-.1.065.107.035.053-.019-.033-.041-.065-.059-.1-.009-.017-.015-.037-.025-.053s.054.156.037.084c-.01-.044-.025-.09-.037-.135-.03-.114.013.176,0,.015,0-.049-.03-.233.006-.265.01-.01-.033.174-.011.1.006-.019.008-.04.013-.059.011-.045.027-.088.04-.133.027-.087-.074.147-.028.069.009-.017.017-.034.026-.051.02-.037.044-.071.066-.106.068-.106-.1.11-.014.022.037-.037.074-.074.114-.11.089-.086-.128.083-.023.019.034-.021.067-.043.1-.063s.179-.084.057-.033.035-.01.066-.019a2.164,2.164,0,0,1,.245-.059c.051-.01.1-.017.152-.025.081-.014-.09.011-.083.011a.87.87,0,0,0,.092-.011,5.858,5.858,0,0,1,.709-.029q.161,0,.321.014l.174.016c.025,0,.1.013-.015,0-.136-.018,0,0,.022,0a.8.8,0,0,0,.567-.074.735.735,0,0,0-.176-1.344Z" transform="translate(-25.274 -35.661)" fill="#efc0a0"/>
          <path id="パス_208" data-name="パス 208" d="M30.007,60.2c.166.1.328.21.489.319.063.042.126.085.188.129l.129.094c.108.078-.132-.107-.021-.017.067.054.132.11.194.168.032.03.063.061.092.093.047.052.079.132-.024-.04.019.033.044.063.063.1.037.065.05.176,0-.018a2.55,2.55,0,0,1,.067.268l-.026-.194a1.206,1.206,0,0,1,0,.272l.026-.2c-.008.051-.022.1-.035.151-.026.074-.015.049.031-.068-.011.024-.024.047-.037.069s-.028.045-.044.066q.127-.16.055-.076c-.031.03-.069.06-.1.092q.157-.118.066-.051l-.059.039c-.04.025-.088.042-.127.068q.181-.074.074-.033l-.069.022a1.143,1.143,0,0,1-.14.028l.2-.026a.915.915,0,0,1-.21,0l.2.026c-.037-.006-.068-.015-.1-.024-.052-.018-.044-.015.022.011s.074.031.024.005c-.059-.041-.126-.074-.188-.11-.136-.081-.272-.161-.412-.237a.736.736,0,1,0-.742,1.27c.17.092.335.191.5.29a1.65,1.65,0,0,0,.753.245,1.805,1.805,0,0,0,1.321-.538,1.692,1.692,0,0,0,.438-1.529,1.935,1.935,0,0,0-.688-1.115,9.163,9.163,0,0,0-1.159-.823.736.736,0,1,0-.742,1.27Z" transform="translate(-18.474 -37.185)" fill="#efc0a0"/>
          <path id="パス_209" data-name="パス 209" d="M36.06,57.147c.106.154.209.31.3.473q.059.1.11.211c.021.042.039.084.059.126.031.067-.071-.178-.011-.025a3.721,3.721,0,0,1,.164.511c.011.046.018.092.027.138.014.076-.019-.2-.008-.033a1.405,1.405,0,0,1,0,.142l0,.04q-.011.119.011-.078a.775.775,0,0,0-.029.11q.08-.175.03-.074l-.018.032c-.055.115.115-.11.021-.031a.581.581,0,0,1-.057.052q.141-.1.071-.057c-.034.019-.08.062-.12.067l.1-.044q-.037.014-.074.024c-.091.025-.117-.011.046,0-.037,0-.074,0-.11,0s-.064,0-.1-.007l-.07-.008a1.008,1.008,0,1,0,.1.013c-.087-.015-.173-.029-.26-.047q-.248-.051-.491-.121a.737.737,0,1,0-.392,1.42q.283.081.573.137a2.938,2.938,0,0,0,.706.084A1.587,1.587,0,0,0,38.1,59.153a2.39,2.39,0,0,0-.128-1.514,5.456,5.456,0,0,0-.645-1.235.736.736,0,0,0-1.27.742Z" transform="translate(-22.021 -35.423)" fill="#efc0a0"/>
        </g>
      </g>
      <g id="main-btn" transform="translate(125 5008)">
        <text id="お申し込み" transform="translate(0 28)" font-size="13" font-family="NotoSansJP-Regular, Noto Sans JP"><tspan x="0" y="0">お</tspan><tspan y="0">申</tspan><tspan y="0">し</tspan><tspan y="0">込</tspan><tspan y="0">み</tspan></text>
        <g id="_118" data-name=" 118" transform="translate(-1160 -493)">
          <path id="パス_10" data-name="パス 10" d="M8,0,6.545,1.455l5.506,5.506H0V9.039H12.052L6.545,14.545,8,16l8-8Z" transform="translate(1254 507)"/>
        </g>
        <g id="楕円形_142" data-name="楕円形 142" transform="translate(80)" fill="none" stroke="#000" stroke-width="1">
          <circle cx="22.5" cy="22.5" r="22.5" stroke="none"/>
          <circle cx="22.5" cy="22.5" r="22" fill="none"/>
        </g>
      </g>
    </g>
  </g>
</svg>
