<svg xmlns="http://www.w3.org/2000/svg" xmlns:xlink="http://www.w3.org/1999/xlink" width="614" height="299" viewBox="0 0 614 299">
  <defs>
    <filter id="長方形_2329" x="0" y="0" width="614" height="299" filterUnits="userSpaceOnUse">
      <feOffset dy="3" input="SourceAlpha"/>
      <feGaussianBlur stdDeviation="3" result="blur"/>
      <feFlood flood-opacity="0.161"/>
      <feComposite operator="in" in2="blur"/>
      <feComposite in="SourceGraphic"/>
    </filter>
  </defs>
  <g id="グループ_2679" data-name="グループ 2679" transform="translate(-73 -2368)">
    <g transform="matrix(1, 0, 0, 1, 73, 2368)" filter="url(#長方形_2329)">
      <rect id="長方形_2329-2" data-name="長方形 2329" width="596" height="281" transform="translate(9 6)" fill="#f7faff"/>
    </g>
    <g id="グループ_2561" data-name="グループ 2561" transform="translate(0 -406)">
      <text id="OPEN_CAMPUSへ_行こう" data-name="OPEN CAMPUSへ
行こう" transform="translate(115 2861)" fill="#326dcc" font-size="35" font-family="NotoSansJP-Regular, Noto Sans JP"><tspan x="0" y="0">OPEN CAMPUS</tspan><tspan y="0">へ</tspan><tspan x="0" y="50">行</tspan><tspan y="50">こう</tspan></text>
      <text id="どなたでもご参加できます_" data-name="どなたでもご参加できます。" transform="translate(115 2965)" fill="#326dcc" font-size="25" font-family="NotoSansJP-Regular, Noto Sans JP"><tspan x="0" y="0">どなたでもご</tspan><tspan y="0">参加</tspan><tspan y="0">できます。</tspan></text>
      <g id="グループ_2560" data-name="グループ 2560" transform="translate(389 -161.305)">
        <g id="_12351_paint" data-name="12351_paint" transform="translate(115 3001)">
          <g id="グループ_1922" data-name="グループ 1922" transform="translate(0 0)">
            <path id="パス_147" data-name="パス 147" d="M225.438,151.782c3.429-3.44,7.507-8.855,11.963-5.879a34.09,34.09,0,0,1,7.439,6.243c1,1.269.564,3.05-.169,4.183a51.2,51.2,0,0,1-7.616,8.98,35.028,35.028,0,0,1-7.078,5.9,3.639,3.639,0,0,1-3.644-.392c-1.442-.953-5.076-5.323-6.713-7.572C217.008,159.655,221.736,155.746,225.438,151.782Z" transform="translate(-144.861 -96.002)" fill="#7a7473"/>
            <path id="パス_148" data-name="パス 148" d="M216.269,148.99c-1.278-1.434-2.259-2.586-2.642-3.151a7.125,7.125,0,0,1-1.033-2.183,4.179,4.179,0,0,1,.936-4.012c2.564-2.822,6.335-.816,9.84,2.025l0,0A16.014,16.014,0,0,1,225.492,140l.092-.094c-1.826-1.355-5.778-4.125-8.73-4.185a6.467,6.467,0,0,0-4.185,1.373,6.7,6.7,0,0,0-2.543,3.342c-.651,2.694.1,4.889,2.021,7.73.426.631,1.274,1.672,2.35,2.93a25.319,25.319,0,0,1,1.772-2.1Z" transform="translate(-138.923 -89.83)" fill="#645d5c"/>
            <path id="パス_149" data-name="パス 149" d="M251.791,148.29a16.293,16.293,0,0,0-2.033,1.62c.1.076.191.154.286.232,1.792,1.48,9.58,8.908,11.811,11.562l.484.482c.714-.858,1.353-1.693,1.951-2.551l-.155-.161c-2.886-2.988-10.131-9.819-12.115-11.294l-.025-.02C251.927,148.2,251.859,148.246,251.791,148.29Z" transform="translate(-165.306 -98.066)" fill="#645d5c"/>
            <path id="パス_150" data-name="パス 150" d="M224.017,177.666q-.261-.3-.507-.59a25.356,25.356,0,0,1,1.77-2.1c3.919,4.4,10.64,11.449,11.517,12.359l.486.5a29.869,29.869,0,0,1-2.383,1.95l-.14-.161C232.986,187.609,227.542,181.739,224.017,177.666Z" transform="translate(-147.934 -115.812)" fill="#645d5c"/>
            <path id="パス_151" data-name="パス 151" d="M241.013,172.632q3.479-3.7,6.908-7.449c.588-.64-.366-1.6-.957-.956q-3.439,3.737-6.908,7.449C239.46,172.309,240.415,173.268,241.013,172.632Z" transform="translate(-158.76 -108.559)" fill="#645d5c"/>
            <path id="パス_152" data-name="パス 152" d="M19.372,66.045a.751.751,0,0,0-.225-.029,1.039,1.039,0,0,0-.69.274.907.907,0,0,0-.391-.231,1.429,1.429,0,0,0-1.817,1.155,1.425,1.425,0,0,0-.682-.406c-.75-.2-2.153.1-2.342,1.179a2.392,2.392,0,0,0-.672-.139c-1.443-.169-1.971,1.383-2.1,2.447a6.7,6.7,0,0,0,.226,2.874,10.55,10.55,0,0,0,.778,1.86c.215.394.5.748.713,1.144a2.414,2.414,0,0,1,.384,1.448c1.961-.422,4.081-.925,5.9-1.312a2.832,2.832,0,0,1,.432-1.283,19.443,19.443,0,0,0,1.358-2.358c.253-.7.575-1.139.812-1.872a3.85,3.85,0,0,0,.107-1.914,1.4,1.4,0,0,0-.769-1.143c.468.705.051-.452-.422-1.139a1.924,1.924,0,0,0-.386-.448A.774.774,0,0,0,19.372,66.045Z" transform="translate(-6.875 -43.678)" fill="#fce0cd"/>
            <path id="パス_156" data-name="パス 156" d="M82.874,84.684c-.1-1.244-.166-2.478-.233-3.707q.36-.011.733-.053c.349-.039.685-.094,1.012-.164a13.583,13.583,0,0,0,2.766-1.014A14.488,14.488,0,0,0,89.237,78.6a11.517,11.517,0,0,0,.939-.966l.651.228.452.152c-.361,1.377-.855,3.226-1.418,5.244l-.075.073a27.051,27.051,0,0,1-3.724,2.825,1.112,1.112,0,0,1-1,.1,21.8,21.8,0,0,1-2.13-.976Q82.9,84.979,82.874,84.684Z" transform="translate(-54.698 -51.386)" fill="#fce0cd"/>
            <path id="パス_157" data-name="パス 157" d="M76.314,36.687a1.474,1.474,0,0,1,1.058-.259,1.33,1.33,0,0,1,1.122.736,3.594,3.594,0,0,1-.135,2.649,3.855,3.855,0,0,1-1.417,1.748,2.84,2.84,0,0,1-1.323.354l-.026.072c-.161.376-.553,1.04-.553,1.04a12.274,12.274,0,0,1-2.213,2.724A14.488,14.488,0,0,1,70.741,46.9a13.583,13.583,0,0,1-2.766,1.014c-.327.07-.663.125-1.012.164a7.462,7.462,0,0,1-5.732-1.642c-1.657-1.292-2.411-3.373-2.72-5.686-.178-1.334-.338-2.784-.564-4.232,0,0-1.691-8.511,8.606-8.511S76.314,36.687,76.314,36.687Z" transform="translate(-38.285 -18.541)" fill="#fce0cd"/>
            <path id="パス_158" data-name="パス 158" d="M85.3,104.516a29.861,29.861,0,0,1-1.812-8.235,21.655,21.655,0,0,0,2.13.977,1.112,1.112,0,0,0,1-.1,27.051,27.051,0,0,0,3.724-2.825l.076-.074a117.9,117.9,0,0,1-4.07,12.6,25.107,25.107,0,0,1-1.051-2.343Z" transform="translate(-55.256 -62.392)" fill="#fff"/>
            <path id="パス_159" data-name="パス 159" d="M33.085,229.06c3.9-5.818,7.962-12.291,12-18.428l-.6.338a11.023,11.023,0,0,1-3.494,1.19,2.586,2.586,0,0,1-2.04-.545,2.425,2.425,0,0,1-.652-2.069,5.494,5.494,0,0,1,.73-2.121,69.4,69.4,0,0,1,5.857-9.048l13.428,10.588c-6.523,7.488-18.023,22.3-18.961,23.862l-.43.718a17.535,17.535,0,0,1-6.013-4.4" transform="translate(-21.779 -131.302)" fill="#fce0cd"/>
            <path id="パス_160" data-name="パス 160" d="M33.9,263.91c-.292-.285-.557-.566-.79-.837,2.876-4.291,5.847-8.944,8.831-13.559l.173.143a21.864,21.864,0,0,0,7.808,3.46c-5.082,6.345-9.849,12.57-10.44,13.555l-.43.718A17.989,17.989,0,0,1,33.9,263.91Z" transform="translate(-21.914 -165.148)" fill="#fff"/>
            <path id="パス_161" data-name="パス 161" d="M57.309,274.96q-1.873,2.4-3.712,4.817a30.577,30.577,0,0,0-1.808,2.49.677.677,0,0,0,1.168.683,29.715,29.715,0,0,1,1.75-2.412c1.171-1.552,2.363-3.089,3.56-4.621a.7.7,0,0,0,0-.957.68.68,0,0,0-.956,0Z" transform="translate(-34.21 -181.86)" fill="#d9d9d9"/>
            <path id="パス_162" data-name="パス 162" d="M40.55,251.41c-2.444,3.785-4.871,7.582-7.377,11.328-.485.726.686,1.4,1.168.683,2.506-3.745,4.933-7.54,7.377-11.328.473-.733-.7-1.412-1.168-.682Z" transform="translate(-21.88 -166.196)" fill="#d9d9d9"/>
            <path id="パス_163" data-name="パス 163" d="M72.349,182.141a13.494,13.494,0,0,1-7.815-.62A10.664,10.664,0,0,1,59.04,176.6a8.912,8.912,0,0,1-1.775,2.306,7.783,7.783,0,0,1-3.118,1.767,10.35,10.35,0,0,1-4.926.423c-1.779,1.8-3.793,3.9-5.444,5.839a25.488,25.488,0,0,0-2.9,3.855c.233.15.513.316.832.492a70.928,70.928,0,0,0,10.09,4.328A30.919,30.919,0,0,0,62.2,196.672c6.441-.609,11.554-1.535,16.589-5.434a19.929,19.929,0,0,0,3.74-3.953c-1.471-2.108-3.477-5.388-5.054-7.673A12.246,12.246,0,0,1,72.349,182.141Z" transform="translate(-27.054 -116.892)" fill="#a0a0a0"/>
            <path id="パス_164" data-name="パス 164" d="M114.843,198.039a79.231,79.231,0,0,0,1.116,8.839.682.682,0,0,0,.832.473.692.692,0,0,0,.473-.832,75.931,75.931,0,0,1-1.069-8.479c-.05-.865-1.4-.871-1.353,0Z" transform="translate(-76.01 -130.649)" fill="#878787"/>
            <path id="パス_165" data-name="パス 165" d="M139.364,203.177a29.9,29.9,0,0,1-1.911-4.59.676.676,0,1,0-1.3.36,32.35,32.35,0,0,0,2.047,4.912.682.682,0,0,0,.925.242.69.69,0,0,0,.243-.925Z" transform="translate(-90.097 -131.113)" fill="#878787"/>
            <path id="パス_166" data-name="パス 166" d="M65.81,204.024l4.1-4.809a.694.694,0,0,0,0-.957.682.682,0,0,0-.956,0l-4.1,4.809a.694.694,0,0,0,0,.957A.682.682,0,0,0,65.81,204.024Z" transform="translate(-42.798 -131.094)" fill="#878787"/>
            <path id="パス_167" data-name="パス 167" d="M20.434,84.831c-.109,2.047-.167,3.724-.187,5.534a62.506,62.506,0,0,0,4.942-4.682c.9-.868,1.9-1.766,2.269-2.033a33.77,33.77,0,0,1,4.72-2.726,7.2,7.2,0,0,0,3.608.8c.261,4.786.469,9.637,3.149,14.878,1.806-4.147,4.326-13.416,5.488-17.842l3.271,1.1c2.829.38,6.792.984,8.817,1.437,5.478,1.468,7.138,1.782,11.6,3.811,2.662,1.2,10.094,6.71,12.137,8.33a63.861,63.861,0,0,1-5.671,6.52c-2.52-1.958-6.916-5.451-9.006-6.652A19.6,19.6,0,0,0,62.046,92.2c-2-.48-4.254-.89-5.739-1.141l-.5-.085c-.575,3.077-1.661,10.3-1.532,12.025.173,1.293,4.943,5.906,6.154,7.62.623.881.442,1.4-.331,2.387a12.591,12.591,0,0,1-6.958,4.373,13.492,13.492,0,0,1-7.815-.62,10.664,10.664,0,0,1-5.495-4.917,8.912,8.912,0,0,1-1.775,2.306,7.783,7.783,0,0,1-3.118,1.767,10.079,10.079,0,0,1-5.65.266,3.066,3.066,0,0,1-1.4-.808,1.2,1.2,0,0,1-.213-1.325c.6-1.8,1.34-3.706,1.868-5.179a25.492,25.492,0,0,0,1.666-7.436,26.14,26.14,0,0,0-1.36-6.408l-.549.392c-1.407,1.171-3.156,2.491-4.721,3.576-1.036.715-2.024,1.349-2.825,1.786a16.719,16.719,0,0,1-4.492,2.04c-1.516.275-3.74-.207-4.565-1.5-.891-1.454-.733-3.335-.827-4.991a96.637,96.637,0,0,1,.318-9.975c2.663-.534,5.865-1.327,8.266-1.8C20.444,84.644,20.439,84.738,20.434,84.831Z" transform="translate(-7.842 -52.13)" fill="#3d8dcc"/>
            <path id="パス_168" data-name="パス 168" d="M206.389,124.637c-.436-.208-.836-.4-1.026-.5,0,0-.187-.1-.47-.251-1.063,1.3-2.622,3.139-3.91,4.423.152.173.25.286.25.286.319.368.868.739.7,1.254a4.036,4.036,0,0,0-.086,1.871,10.027,10.027,0,0,0,.491,2.1,4.8,4.8,0,0,0,.572,1.293,1.018,1.018,0,0,0,1.186.4c.535-.2.62-.7.725-1.351.119.153.245.3.409.5a2.619,2.619,0,0,0,.691.627.86.86,0,0,0,.9-.016c.145-.112.512-.447.651-.575.487-.514,1.781-1.913,2.326-2.616A5.428,5.428,0,0,0,211,129.628a4.2,4.2,0,0,0-1.079-2.225,7.5,7.5,0,0,0-.751-.947,5.687,5.687,0,0,0-1.143-1.018C207.8,125.309,207.053,124.953,206.389,124.637Z" transform="translate(-133.024 -82)" fill="#fce0cd"/>
            <path id="パス_169" data-name="パス 169" d="M65.561,95.172c.559.565.969,1.254,1.528,1.82l.137-1.062a11.9,11.9,0,0,0-1.991,1.611.687.687,0,0,0-.106.82c1.389,2.159,2.752,4.335,4.127,6.5l.676,1.067c.466.732,1.637.054,1.168-.683q-2.076-3.267-4.147-6.537c-.218-.344-.436-.689-.656-1.032l-.106.819a10.235,10.235,0,0,1,1.718-1.4.685.685,0,0,0,.137-1.062c-.559-.565-.969-1.255-1.529-1.82-.613-.62-1.569.336-.956.956Z" transform="translate(-43.048 -62.229)" fill="#2679b2"/>
            <path id="パス_170" data-name="パス 170" d="M108.09,89.583c-.564.615-1.116,1.242-1.691,1.847a.681.681,0,0,0,0,.957c.741.575,1.394,1.251,2.113,1.853l-.106-.82c-1.81,2.461-3.584,4.948-5.425,7.387a.681.681,0,0,0,.242.925.693.693,0,0,0,.925-.243c1.84-2.439,3.615-4.926,5.425-7.387a.676.676,0,0,0-.106-.82c-.719-.6-1.372-1.276-2.113-1.853v.957c.575-.6,1.126-1.232,1.691-1.847.588-.64-.366-1.6-.956-.956Z" transform="translate(-68.1 -59.155)" fill="#2679b2"/>
            <path id="パス_171" data-name="パス 171" d="M31.7,68.572a5.759,5.759,0,0,0-1.41-.068,2.693,2.693,0,0,0-1.389.406,1.876,1.876,0,0,0-.794,1.431,1.606,1.606,0,0,0,.49,1.3c.338.285.755.444,1.11.7a.677.677,0,1,0,.683-1.169c-.247-.181-.527-.31-.786-.47-.053-.034-.1-.068-.155-.1s.086.062.084.065a.19.19,0,0,1-.036-.034c-.078-.092.059.1.034.048a1.044,1.044,0,0,0-.053-.092c-.036-.056.034.083.031.08s-.013-.034-.018-.051c-.014-.041-.023-.082-.034-.124-.026-.105.012.162,0,.014q0-.056,0-.113c0-.025,0-.05,0-.075,0-.073-.006.094-.013.087-.023-.023.05-.2.06-.231.026-.079-.068.135-.025.064.009-.015.016-.031.025-.047a.869.869,0,0,0,.062-.1s-.1.113-.049.063c.013-.014.024-.028.037-.042.034-.036.07-.068.106-.1.083-.077-.118.077-.02.018.031-.019.062-.039.094-.056s.165-.078.053-.029.031-.008.061-.017a2.09,2.09,0,0,1,.226-.052c.024,0,.191-.029.071-.013s.047,0,.077-.007a5.321,5.321,0,0,1,.653-.021c.1,0,.2.008.3.016l.16.016c.023,0,.1.012-.014,0-.125-.016,0,0,.02,0a.733.733,0,0,0,.521-.068.676.676,0,0,0-.162-1.236Z" transform="translate(-18.597 -45.334)" fill="#efc0a0"/>
            <path id="パス_172" data-name="パス 172" d="M17.866,71.717c.187.105.366.225.543.346.076.052.153.1.229.159l.091.066.061.046c-.086-.068-.1-.079-.047-.034s.135.112.2.173c.034.034.065.068.1.1.08.084-.1-.149-.007-.007.018.028.032.057.048.086q.045.1-.024-.057a.674.674,0,0,1,.023.072q.01.038.018.073c.013.072.011.049-.007-.068a1.3,1.3,0,0,0,0,.13c-.006.161.041-.137,0-.015-.005.024-.012.048-.019.071q-.036.1.027-.058c-.012.011-.109.165-.023.056s-.01.007-.028.026-.03.029-.046.043c-.052.043-.034.028.06-.045-.04.019-.075.051-.114.072-.057.031-.14.034.038-.009-.044.01-.086.031-.13.042-.172.043.127,0,.014,0-.034,0-.068,0-.1,0q.188.029.083.007a.588.588,0,0,1-.063-.02q.164.074.071.024l-.059-.036c-.162-.1-.323-.2-.489-.289a.676.676,0,1,0-.683,1.168,2.707,2.707,0,0,0,1.173.5,1.672,1.672,0,0,0,1.213-.51,1.569,1.569,0,0,0,.375-1.464,1.908,1.908,0,0,0-.71-1.032,8.562,8.562,0,0,0-1.133-.781.676.676,0,0,0-.683,1.168Z" transform="translate(-11.449 -46.636)" fill="#efc0a0"/>
            <path id="パス_173" data-name="パス 173" d="M24.082,69.058c.1.142.189.287.273.437q.053.1.1.2c.01.021.075.171.026.053s.006.017.015.041a3.382,3.382,0,0,1,.148.471c.006.025.031.187.014.055s0,.014,0,.041c0,.044,0,.087,0,.131,0,.123.037-.162.007-.034-.008.034-.022.068-.027.1q.073-.161.026-.068l-.017.029c-.052.1.106-.1.019-.029a.464.464,0,0,1-.053.047c.086-.064.108-.082.065-.053a.456.456,0,0,1-.11.061l.095-.041-.068.022c-.089.024-.1-.015.042,0-.032,0-.068,0-.1,0s-.058,0-.088-.007c-.122-.01.188.029.029,0-.08-.013-.159-.028-.238-.046-.151-.034-.3-.071-.45-.115a.677.677,0,1,0-.361,1.3q.26.077.525.131a2.7,2.7,0,0,0,.649.082,1.458,1.458,0,0,0,1.341-.965,2.206,2.206,0,0,0-.109-1.393,5.025,5.025,0,0,0-.585-1.14.676.676,0,1,0-1.168.683Z" transform="translate(-15.178 -45.037)" fill="#efc0a0"/>
            <path id="パス_174" data-name="パス 174" d="M72.3,15.7a25.727,25.727,0,0,1-3.71-5.033c-2.253,1.961-8.42,5.87-11.317,6.8l-.056.018a16.754,16.754,0,0,1-.078-4.548A10.661,10.661,0,0,1,59.117,8.1a11.046,11.046,0,0,1,7.987-4,10.152,10.152,0,0,1,4.592.586C72.207,2.723,73.2.973,75.264.259a4.887,4.887,0,0,1,4.015.429,9.261,9.261,0,0,0,1.8.845,3.1,3.1,0,0,0,1.86.056,2.734,2.734,0,0,0,.99-.507.372.372,0,0,1,.591.215,4.178,4.178,0,0,1,.085,1.166A7.1,7.1,0,0,1,82.3,7.211a5.412,5.412,0,0,1-5.113,1.521l-.017,0a10.167,10.167,0,0,1,1.251,2.86,9.109,9.109,0,0,1,.353,2.79A12.761,12.761,0,0,1,78.1,18.95l-.153-.317a1.33,1.33,0,0,0-1.12-.735,1.474,1.474,0,0,0-1.058.259l-2.216-1.575A4.389,4.389,0,0,1,72.3,15.7Z" transform="translate(-37.739 -0.012)" fill="#febe69"/>
            <path id="パス_175" data-name="パス 175" d="M76.186,73.7a4.551,4.551,0,0,0,1.5.148,3.241,3.241,0,0,0,.8-.142,6.983,6.983,0,0,0,.815-.387.681.681,0,0,0,.243-.925.693.693,0,0,0-.925-.242c-.112.055-.221.116-.332.174a.948.948,0,0,0-.159.08q.144-.058.051-.022l-.07.025a2.22,2.22,0,0,1-.3.074l-.079.013q.169-.022.059-.008c-.048,0-.1.009-.143.012A4.024,4.024,0,0,1,77,72.483c-.058-.006-.228-.053-.02,0-.05-.013-.1-.016-.154-.025q-.143-.027-.284-.065a.676.676,0,0,0-.359,1.3Z" transform="translate(-50.096 -47.699)" fill="#efc0a0"/>
            <path id="パス_176" data-name="パス 176" d="M85.857,56.192c-.139-.47-.032-1.547.857-1.629,1.173.021,1.221,1.325.819,1.933A.929.929,0,0,1,85.857,56.192Z" transform="translate(-56.793 -36.117)" fill="#645d5c"/>
            <path id="パス_177" data-name="パス 177" d="M65.25,56.593c-.128-.473-.034-1.552.782-1.633,1.075.023,1.12,1.331.753,1.941C66.484,57.4,65.611,57.6,65.25,56.593Z" transform="translate(-43.156 -36.38)" fill="#645d5c"/>
            <path id="パス_178" data-name="パス 178" d="M74.486,61.773c-.147.262-.287.529-.412.8a1.305,1.305,0,0,0-.154.541.828.828,0,0,0,.295.647,1.12,1.12,0,0,0,.488.264c.116.023.23.027.346.041a.676.676,0,0,0,.478-1.154l-.137-.106a.672.672,0,0,0-.341-.092c-.046-.006-.092-.006-.138-.012l.18.024a.542.542,0,0,1-.1-.027l.162.068a.524.524,0,0,1-.115-.068l.137.106a.57.57,0,0,1-.065-.06l.106.137a.149.149,0,0,1-.017-.028l.068.162a.225.225,0,0,1-.013-.047l.024.18a.312.312,0,0,1,0-.068l-.024.18a.618.618,0,0,1,.039-.124l-.068.162c.127-.289.277-.568.431-.843a.7.7,0,0,0,.068-.521.676.676,0,0,0-.832-.473.7.7,0,0,0-.4.311Z" transform="translate(-48.925 -40.667)" fill="#efc0a0"/>
            <path id="パス_179" data-name="パス 179" d="M86.51,48.252a7.617,7.617,0,0,0,1.353-.494.683.683,0,0,0,.311-.4.691.691,0,0,0-.068-.521.682.682,0,0,0-.406-.311l-.18-.024a.672.672,0,0,0-.341.092c-.068.034-.133.062-.2.091l.162-.068a8.1,8.1,0,0,1-.989.335.7.7,0,0,0-.406.311.676.676,0,0,0,.242.925.705.705,0,0,0,.521.068Z" transform="translate(-56.69 -30.779)" fill="#645d5c"/>
            <path id="パス_180" data-name="パス 180" d="M17.476,289.229a7.735,7.735,0,0,1-1.386,5.417,3.344,3.344,0,0,1-1.571,1.048,4.922,4.922,0,0,1-3.053-.742,50.455,50.455,0,0,1-5.478-3.589c-.668-.5-1.631-1.227-2.3-1.724-1.614-1.2-3.046-2.164-3.6-4.1a3.039,3.039,0,0,1,.049-1.612A2.192,2.192,0,0,1,.9,282.906a3.858,3.858,0,0,1,1.439-.541,4.564,4.564,0,0,1,1.914.071,31.73,31.73,0,0,1,6.868,2.253,17.5,17.5,0,0,0,6.35,4.54" transform="translate(-0.002 -186.845)" fill="#7a7473"/>
          </g>
        </g>
        <g id="_12337_paint" data-name="12337_paint" transform="translate(148.614 3006.874)">
          <path id="パス_181" data-name="パス 181" d="M101.027,77.382c1.188-4.022,2.365-8.517,3.132-11.48l-.149-.04-.812-.237a11.26,11.26,0,0,1-.993,1.006,9.057,9.057,0,0,1-.993.611c-.293.151-.738.34-1.059.487a13.3,13.3,0,0,1-2.719.96,9.921,9.921,0,0,1-.993.148q-.286.028-.563.039c.006.393.01.636.01.636.063,3.862.516,10.152,2.8,14.861C99.386,82.7,100.209,80.152,101.027,77.382Z" transform="translate(-64.152 -43.901)" fill="#fff"/>
          <path id="パス_182" data-name="パス 182" d="M73.445,18.716a4.953,4.953,0,0,0-2.76,3.729,7.048,7.048,0,0,0,.155,2.928q.042.291.08.583c.161,1.224.285,2.436.421,3.564.274,2.267.988,4.312,2.592,5.6a7.261,7.261,0,0,0,5.027,1.715q.277-.01.563-.039a9.921,9.921,0,0,0,.993-.148,13.3,13.3,0,0,0,2.719-.96c.322-.148.767-.337,1.059-.487a9.06,9.06,0,0,0,.993-.611,11.257,11.257,0,0,0,.967-.975l.073-.085a13.017,13.017,0,0,0,1.158-1.579s.391-.645.554-1.011l.033-.07a2.78,2.78,0,0,0,1.292-.331,3.774,3.774,0,0,0,1.408-1.694,3.516,3.516,0,0,0,.165-2.591,1.3,1.3,0,0,0-1.088-.733,1.441,1.441,0,0,0-1.038.24s.825-8.026-10.331-8.026A10.988,10.988,0,0,0,73.445,18.716Z" transform="translate(-47.237 -11.856)" fill="#fce0cd"/>
          <path id="パス_186" data-name="パス 186" d="M150.707,203.078a9.122,9.122,0,0,1-1.039,1.882,4.8,4.8,0,0,1-1.464,1.415,3.011,3.011,0,0,1-2.139.367,2.755,2.755,0,0,1-1.883-1.7,6.208,6.208,0,0,1-.28-2.382c.019-1.3-.049-3.527-.03-4.831l-.029-3.147a23.9,23.9,0,0,0,1.385-1.954c.291-.465.634-.993.96-1.539l2,.136a6.723,6.723,0,0,1,2.551.512,3.227,3.227,0,0,1,1.691,2.264,5.385,5.385,0,0,1-.285,2.7,19.926,19.926,0,0,0-.623,1.937c-.158.731-.157,1.483-.254,2.223a8.6,8.6,0,0,1-.561,2.116Z" transform="translate(-96.245 -127.916)" fill="#7a7473"/>
          <path id="パス_187" data-name="パス 187" d="M30.761,53.975a1,1,0,0,0-.571.267.908.908,0,0,0-.386-.222,1.4,1.4,0,0,0-1.767,1.147,1.393,1.393,0,0,0-.672-.391c-.736-.191-2.106.116-2.281,1.175a2.342,2.342,0,0,0-.659-.13c-1.413-.154-1.916,1.371-2.036,2.414a6.559,6.559,0,0,0,.247,2.811,10.357,10.357,0,0,0,.778,1.814c.214.383.5.728.707,1.113A2.343,2.343,0,0,1,24.51,65.3c1.917-.43,3.983-.94,5.767-1.339a2.787,2.787,0,0,1,.4-1.17,19.072,19.072,0,0,0,1.307-2.32c.242-.689.553-1.119.776-1.839a3.772,3.772,0,0,0,.087-1.874,1.452,1.452,0,0,0-.575-1.006l-.025-.083a5.251,5.251,0,0,0-.587-1.132,1.869,1.869,0,0,0-.382-.433.629.629,0,0,0-.422-.132.814.814,0,0,0-.1.006Z" transform="translate(-14.943 -36.091)" fill="#fce0cd"/>
          <path id="パス_188" data-name="パス 188" d="M58.3,169.536a11.033,11.033,0,0,1-4.56,3.633,10.134,10.134,0,0,1-4.524.422l-.486.881c-2.336,4.246-3.918,7.045-6.191,11.81A6.7,6.7,0,0,0,41.931,189a2.363,2.363,0,0,0,.715,1.9,2.505,2.505,0,0,0,1.894.52c-.235.3-.481.613-.732.936C40.679,196.375,36.36,202,33.5,205.66a1.265,1.265,0,0,0-.374.857,1.252,1.252,0,0,0,.486.738,85.148,85.148,0,0,0,8.077,6.264c4.358-5.549,10.168-12.773,14.291-17.7,2.453-2.932,7.079-7.794,10.527-11.763a51.112,51.112,0,0,0,4.641-5.811,14.774,14.774,0,0,0,2.017-3.9,7.343,7.343,0,0,1-1.743.683,12.984,12.984,0,0,1-7.975-1.115,18.125,18.125,0,0,1-5.149-4.368" transform="translate(-22.162 -113.428)" fill="#a0a0a0"/>
          <path id="パス_189" data-name="パス 189" d="M101.787,84.224c.417,1.241.529,1.7.932,3.018l.155.433c-.782,2.63-1.564,5.03-2.232,6.632a24.787,24.787,0,0,1-1.842-5.6l.2-.875c.39-1.723.569-2.548.86-3.7-.18-.616-.43-1.449-.6-2.025l-.132-.541c.479-.416,1.008-.865,1.324-1.1.735.377,1.5.728,2.223,1.1-.132.286-.232.507-.232.507-.244.532-.438,1.194-.769,1.823Z" transform="translate(-66.106 -53.835)" fill="#ffda71"/>
          <path id="パス_190" data-name="パス 190" d="M238.482,139.613c3.356-3.367,7.346-8.665,11.707-5.753a33.37,33.37,0,0,1,7.28,6.109,3.606,3.606,0,0,1-.165,4.094,50.115,50.115,0,0,1-7.453,8.788,34.272,34.272,0,0,1-6.926,5.771,3.56,3.56,0,0,1-3.566-.383c-1.411-.932-4.967-5.209-6.57-7.41C230.232,147.317,234.859,143.491,238.482,139.613Z" transform="translate(-155.264 -88.992)" fill="#7a7473"/>
          <path id="パス_191" data-name="パス 191" d="M229.32,136.681c-1.251-1.4-2.211-2.531-2.586-3.084a6.975,6.975,0,0,1-1.011-2.136,4.09,4.09,0,0,1,.916-3.926c2.51-2.762,6.2-.8,9.631,1.982l0,0a15.666,15.666,0,0,1,2.072-1.64l.09-.092c-1.787-1.326-5.654-4.037-8.543-4.1a6.33,6.33,0,0,0-4.1,1.344,6.559,6.559,0,0,0-2.489,3.27c-.637,2.636.1,4.784,1.978,7.565.417.618,1.247,1.637,2.3,2.867a24.726,24.726,0,0,1,1.732-2.059Z" transform="translate(-149.265 -82.752)" fill="#645d5c"/>
          <path id="パス_192" data-name="パス 192" d="M264.931,136.259a15.917,15.917,0,0,0-1.989,1.586q.141.112.28.227c1.754,1.448,9.375,8.717,11.559,11.314l.474.471c.7-.839,1.324-1.657,1.91-2.5l-.152-.157c-2.824-2.924-9.914-9.609-11.856-11.054l-.025-.019Q265.031,136.194,264.931,136.259Z" transform="translate(-175.933 -91.076)" fill="#645d5c"/>
          <path id="パス_193" data-name="パス 193" d="M237.19,165.583q-.255-.3-.5-.577a24.781,24.781,0,0,1,1.732-2.059c3.836,4.3,10.413,11.2,11.271,12.094l.476.493a29.217,29.217,0,0,1-2.332,1.908l-.137-.157C245.968,175.314,240.639,169.57,237.19,165.583Z" transform="translate(-158.37 -109.019)" fill="#645d5c"/>
          <path id="パス_194" data-name="パス 194" d="M254.172,160.418q3.4-3.622,6.76-7.289c.576-.626-.358-1.564-.936-.936q-3.366,3.658-6.76,7.289C252.653,160.1,253.587,161.04,254.172,160.418Z" transform="translate(-169.315 -101.684)" fill="#645d5c"/>
          <path id="パス_195" data-name="パス 195" d="M.578,283.369a5.152,5.152,0,0,1-.517-1.305,3.1,3.1,0,0,1,.109-1.641,2.238,2.238,0,0,1,.824-1.016,3.973,3.973,0,0,1,1.489-.5,4.7,4.7,0,0,1,1.952.142,31.122,31.122,0,0,1,7.654,3.124s.309-.324.662-.695c1.708,1.42,3.63,3.054,5.464,4.335-.129.4-.289.938-.475,1.419-.357,1.109-.377,2.9-1.671,4.725a3.272,3.272,0,0,1-1.641,1.013,5.009,5.009,0,0,1-3.091-.87,51.558,51.558,0,0,1-5.467-3.865c-.662-.533-1.618-1.314-2.283-1.846A11.28,11.28,0,0,1,.578,283.369Z" transform="translate(0.002 -186.576)" fill="#7a7473"/>
          <path id="パス_196" data-name="パス 196" d="M67.429,199.816c3.11-4.222,6.555-8.189,9.768-12.33q1.746-2.25,3.432-4.546a.667.667,0,0,0-.237-.906.677.677,0,0,0-.905.238c-3.444,4.7-7.171,9.162-10.785,13.727-.821,1.037-1.632,2.085-2.416,3.149a.666.666,0,0,0,.238.905.677.677,0,0,0,.905-.237Z" transform="translate(-44.292 -121.733)" fill="#878787"/>
          <path id="パス_197" data-name="パス 197" d="M42.449,104.492q-.142-.036-.277-.078a4.057,4.057,0,0,1-.633-.253c-.493-.251-.935-.629-.781-1.2,1.057-3.9,2.037-8.244,2.037-10.764a60.172,60.172,0,0,0-1.283-9.417l-.082.07c-.692.587-1.5,1.236-2.342,1.886-.258.2-.517.395-.778.589-.432.327-.871.647-1.3.954-.087.062-.174.123-.258.184-1.028.724-2.009,1.366-2.8,1.809a16.7,16.7,0,0,1-4.467,2.078c-1.511.289-3.737-.173-4.572-1.458a7.2,7.2,0,0,1-.809-3.578c-.025-.474-.047-.937-.063-1.4S24,83,24,82.549q-.009-.338-.008-.675c-.023-2.579.09-5.086.27-7.916,2.654-.558,5.845-1.379,8.237-1.876-.1,2.16-.145,3.9-.149,5.772a39.972,39.972,0,0,0,5-4.554c.917-.851,2.061-1.843,2.429-2.1a28.165,28.165,0,0,1,4.451-2.371l.168-.066a7.084,7.084,0,0,0,3.38.672c.007.405.011.636.011.636.063,3.862.516,10.152,2.8,14.861,1.648-3.954,3.994-12.78,5.321-17.9l.138-.578c1,.281,3.032,1.028,3.823,1.181a70.228,70.228,0,0,1,8.5,1.4c5.363,1.436,6.986,1.742,11.352,3.727,2.772,1.26,10.842,7.287,12.2,8.418a64.078,64.078,0,0,1-5.655,6.5c-2.513-1.952-6.9-5.436-8.981-6.634-1.889-.913-6.694-1.81-9.236-2.24l-.135-.023c-.517,2.542-2.033,9.944-1.168,14.034,1.019,3.233,2.538,4.864,3.824,7.114.662,1.158.69,1.926-.439,3.091a10.953,10.953,0,0,1-4.821,3.025,12.984,12.984,0,0,1-7.975-1.115,18.125,18.125,0,0,1-5.149-4.368,11.034,11.034,0,0,1-4.56,3.633A9.883,9.883,0,0,1,42.449,104.492Z" transform="translate(-16.048 -44.456)" fill="#3d8dcc"/>
          <path id="パス_198" data-name="パス 198" d="M221.317,124.356a3.653,3.653,0,0,1-.4-.417c-.16-.189-.283-.336-.4-.484-.1.634-.186,1.125-.709,1.322a1,1,0,0,1-1.16-.388,4.689,4.689,0,0,1-.56-1.265,9.79,9.79,0,0,1-.48-2.052,3.95,3.95,0,0,1,.084-1.831c.16-.5-.377-.867-.689-1.227,0,0-.1-.11-.245-.279l-.2-.23c1.213-1.332,2.656-3.118,3.62-4.324l.409.225c.277.149.46.246.46.246.186.1.577.286,1,.489.65.31,1.384.657,1.6.785a5.568,5.568,0,0,1,1.118,1,7.342,7.342,0,0,1,.735.927,4.1,4.1,0,0,1,1.056,2.177,5.3,5.3,0,0,1-1.168,2.389c-.533.688-1.8,2.058-2.276,2.561-.136.125-.494.453-.636.563a.841.841,0,0,1-.885.015,1.661,1.661,0,0,1-.279-.2Z" transform="translate(-144.896 -75.72)" fill="#fce0cd"/>
          <path id="パス_199" data-name="パス 199" d="M71.9,4.616a10.92,10.92,0,0,0-1.445,3.927A16.635,16.635,0,0,0,70.67,14.1c.027-.187.045-.314.045-.314A9.453,9.453,0,0,1,73.826,9.44c.149-.091.353.006.43.259a1.7,1.7,0,0,1,.08.613.321.321,0,0,0,.478.315,25.277,25.277,0,0,1,3.336-2.2,13.753,13.753,0,0,1,3.026-.248A9.757,9.757,0,0,1,86.5,12.655a3.726,3.726,0,0,0,1.007.929,1.517,1.517,0,0,0,1.111.294,1.441,1.441,0,0,1,1.038-.24,1.3,1.3,0,0,1,1.088.733,1.746,1.746,0,0,1,.119.364,12.207,12.207,0,0,0,.74-4.519A8.925,8.925,0,0,0,91.3,7.482a8.533,8.533,0,0,0-2.6-4.455l-.28-.247-1.46-.985A9.927,9.927,0,0,0,80.315.016a10.815,10.815,0,0,0-7.864,3.817,7.687,7.687,0,0,0-.552.782Z" transform="translate(-47.048 0.026)" fill="#7a7473"/>
          <path id="パス_200" data-name="パス 200" d="M89.084,61.608a4.447,4.447,0,0,0,1.466.161,3.178,3.178,0,0,0,.782-.132,6.889,6.889,0,0,0,.8-.371.665.665,0,0,0,.237-.905.679.679,0,0,0-.905-.237c-.111.053-.218.111-.327.165-.023.012-.149.055-.157.076.094-.038.11-.046.049-.023l-.068.023a2.718,2.718,0,0,1-.294.069q-.107.017.06-.007l-.079.009-.14.01a3.9,3.9,0,0,1-.629-.02l-.079-.009q.165.023.06.007l-.15-.027c-.093-.018-.185-.041-.277-.066a.662.662,0,1,0-.352,1.276Z" transform="translate(-59.279 -40.163)" fill="#efc0a0"/>
          <path id="パス_201" data-name="パス 201" d="M98.968,44.161c-.13-.463-.013-1.515.858-1.584,1.148.035,1.179,1.311.778,1.9A.909.909,0,0,1,98.968,44.161Z" transform="translate(-66.188 -28.48)" fill="#645d5c"/>
          <path id="パス_202" data-name="パス 202" d="M78.358,44.3c-.119-.463-.013-1.52.785-1.588,1.051.035,1.08,1.316.713,1.908C79.556,45.109,78.7,45.292,78.358,44.3Z" transform="translate(-52.401 -28.573)" fill="#645d5c"/>
          <path id="パス_203" data-name="パス 203" d="M87.5,49.644c-.146.251-.286.508-.409.771a1.313,1.313,0,0,0-.156.529.807.807,0,0,0,.269.629,1.15,1.15,0,0,0,.479.271,2.618,2.618,0,0,0,.341.044l-.176-.024h.011a.5.5,0,0,0,.265.012.491.491,0,0,0,.246-.079.662.662,0,0,0,.237-.905.633.633,0,0,0-.4-.3c-.1-.014-.2-.023-.3-.035l.176.024a.515.515,0,0,1-.113-.029l.158.066a.52.52,0,0,1-.095-.055l.134.1a.588.588,0,0,1-.079-.072l.1.132a.135.135,0,0,1-.017-.027l.066.158a.222.222,0,0,1-.012-.046l.023.176a.318.318,0,0,1,0-.05l-.023.176a.5.5,0,0,1,.033-.121l-.066.158a7.889,7.889,0,0,1,.442-.834.687.687,0,0,0,.066-.51.677.677,0,0,0-.3-.4.668.668,0,0,0-.51-.066.69.69,0,0,0-.4.3Z" transform="translate(-58.169 -32.988)" fill="#efc0a0"/>
          <path id="パス_204" data-name="パス 204" d="M99.722,35.854a7.442,7.442,0,0,0,1.327-.469.667.667,0,0,0,.3-.4.677.677,0,0,0-.066-.51.667.667,0,0,0-.4-.3l-.176-.024a.662.662,0,0,0-.334.091l-.143.064.158-.066a7.655,7.655,0,0,1-1.026.338.683.683,0,0,0-.4.3.662.662,0,0,0,.237.905.7.7,0,0,0,.51.066Z" transform="translate(-66.162 -22.841)" fill="#645d5c"/>
          <path id="パス_205" data-name="パス 205" d="M78.794,83.481c.542.548.94,1.217,1.482,1.765l.134-1.039a11.555,11.555,0,0,0-1.933,1.564.672.672,0,0,0-.1.8c1.35,2.1,2.676,4.215,4.013,6.322l.648,1.021c.456.717,1.6.054,1.143-.668q-2.019-3.177-4.033-6.356c-.209-.329-.417-.659-.629-.987l-.1.8a9.929,9.929,0,0,1,1.665-1.357.671.671,0,0,0,.134-1.039c-.542-.548-.94-1.217-1.483-1.765-.6-.607-1.536.331-.936.936Z" transform="translate(-52.38 -55.091)" fill="#2679b2"/>
          <path id="パス_206" data-name="パス 206" d="M121.249,76.815c-.6.659-1.172,1.34-1.791,1.981a.674.674,0,0,0,.132,1.039c.706.543,1.386,1.12,2.073,1.688l-.1-.8c-1.766,2.407-3.36,4.935-5.156,7.321a.666.666,0,0,0,.238.905.677.677,0,0,0,.905-.237c1.8-2.386,3.39-4.915,5.156-7.321a.662.662,0,0,0-.1-.8c-.774-.639-1.544-1.282-2.34-1.894l.134,1.039c.618-.641,1.191-1.322,1.791-1.981.572-.629-.362-1.568-.936-.936Z" transform="translate(-77.825 -51.249)" fill="#2679b2"/>
          <path id="パス_207" data-name="パス 207" d="M43.486,56.492a5.617,5.617,0,0,0-1.38-.056,2.638,2.638,0,0,0-1.357.408,1.831,1.831,0,0,0-.769,1.4,1.575,1.575,0,0,0,.487,1.269c.334.276.742.43,1.092.68a.664.664,0,0,0,.905-.237.68.68,0,0,0-.238-.905c-.243-.175-.518-.3-.773-.454-.052-.031-.1-.066-.152-.1s.084.061.082.064-.037-.033-.035-.031c-.072-.094.059.1.031.048-.017-.03-.037-.058-.053-.089-.008-.016-.014-.033-.023-.047s.049.14.033.075c-.009-.04-.023-.081-.033-.121-.027-.1.011.159,0,.014,0-.044-.027-.209.005-.239.009-.009-.03.157-.01.086,0-.017.007-.036.012-.053.01-.04.024-.079.036-.119.024-.078-.066.132-.025.062.008-.015.015-.031.024-.046.018-.033.039-.064.06-.1.062-.1-.091.1-.013.02.033-.033.066-.066.1-.1.08-.077-.115.075-.021.017.03-.019.06-.039.091-.056s.161-.075.051-.03.031-.009.059-.018a1.948,1.948,0,0,1,.221-.053l.137-.023c.073-.013-.081.01-.075.01a.783.783,0,0,0,.083-.01,5.271,5.271,0,0,1,.638-.026q.145,0,.289.013l.157.015c.023,0,.094.012-.013,0-.122-.017,0,0,.02,0a.722.722,0,0,0,.51-.066.662.662,0,0,0-.158-1.209Z" transform="translate(-26.746 -37.74)" fill="#efc0a0"/>
          <path id="パス_208" data-name="パス 208" d="M29.928,60.061c.149.091.3.189.44.287.057.038.113.076.169.116l.116.084c.1.07-.119-.1-.019-.015.06.049.119.1.175.152.028.027.056.055.083.084.043.047.071.118-.022-.036.018.029.04.056.057.086.033.058.045.159,0-.016a2.294,2.294,0,0,1,.06.241l-.023-.175a1.085,1.085,0,0,1,0,.245l.023-.176c-.008.046-.02.09-.031.136-.023.066-.014.044.028-.061-.01.021-.021.042-.033.062s-.025.04-.039.06q.114-.144.049-.069c-.027.027-.062.054-.087.083q.141-.106.059-.046l-.053.035c-.036.023-.079.038-.114.062q.163-.066.066-.03l-.062.02a1.029,1.029,0,0,1-.126.025l.176-.023a.824.824,0,0,1-.189,0l.176.024c-.033-.006-.061-.013-.092-.021-.047-.017-.04-.013.02.01s.066.028.022,0-.113-.066-.169-.1c-.122-.073-.245-.145-.371-.213a.662.662,0,0,0-.668,1.143c.153.083.3.172.451.261a1.485,1.485,0,0,0,.678.221,1.624,1.624,0,0,0,1.188-.484,1.522,1.522,0,0,0,.394-1.376,1.741,1.741,0,0,0-.619-1,8.246,8.246,0,0,0-1.043-.741.662.662,0,0,0-.668,1.143Z" transform="translate(-19.55 -39.352)" fill="#efc0a0"/>
          <path id="パス_209" data-name="パス 209" d="M35.937,57.036c.095.139.188.279.271.425q.053.093.1.19c.019.038.035.076.053.114.028.06-.064-.16-.01-.023a3.349,3.349,0,0,1,.148.46c.01.041.017.082.024.124.013.068-.017-.18-.008-.03a1.264,1.264,0,0,1,0,.128l0,.036q-.01.107.01-.07a.7.7,0,0,0-.026.1q.072-.158.027-.066l-.017.029c-.05.1.1-.1.019-.027a.522.522,0,0,1-.051.047q.127-.094.064-.051c-.031.017-.072.056-.108.06l.093-.04q-.033.013-.066.022c-.082.023-.105-.01.041,0-.033,0-.066,0-.1,0s-.058,0-.086-.006l-.063-.007a.907.907,0,1,0,.092.012c-.078-.013-.156-.026-.234-.042q-.223-.046-.442-.109a.663.663,0,1,0-.353,1.278q.254.073.515.123a2.644,2.644,0,0,0,.635.076,1.428,1.428,0,0,0,1.308-.951,2.151,2.151,0,0,0-.115-1.362,4.909,4.909,0,0,0-.581-1.111.662.662,0,0,0-1.143.668Z" transform="translate(-23.303 -37.488)" fill="#efc0a0"/>
        </g>
      </g>
    </g>
    <g id="main-btn" transform="translate(518 2575)">
      <text id="お申し込み" transform="translate(0 28)" font-size="13" font-family="NotoSansJP-Regular, Noto Sans JP"><tspan x="0" y="0">お</tspan><tspan y="0">申</tspan><tspan y="0">し</tspan><tspan y="0">込</tspan><tspan y="0">み</tspan></text>
      <g id="_118" data-name=" 118" transform="translate(-1160 -493)">
        <path id="パス_10" data-name="パス 10" d="M8,0,6.545,1.455l5.506,5.506H0V9.039H12.052L6.545,14.545,8,16l8-8Z" transform="translate(1254 507)"/>
      </g>
      <g id="楕円形_142" data-name="楕円形 142" transform="translate(80)" fill="none" stroke="#000" stroke-width="1">
        <circle cx="22.5" cy="22.5" r="22.5" stroke="none"/>
        <circle cx="22.5" cy="22.5" r="22" fill="none"/>
      </g>
    </g>
  </g>
</svg>
