<?xml version="1.0" encoding="utf-8"?>
<!-- Generator: Adobe Illustrator 24.3.0, SVG Export Plug-In . SVG Version: 6.00 Build 0)  -->
<svg version="1.1" id="レイヤー_1" xmlns="http://www.w3.org/2000/svg" xmlns:xlink="http://www.w3.org/1999/xlink" x="0px"
	 y="0px" viewBox="0 0 60 60" style="enable-background:new 0 0 60 60;" xml:space="preserve">
<style type="text/css">
	.st0{fill:#ff8b05;}
	.st1{fill:none;}
</style>
<g>
	<g>
		<path class="st0" d="M36.2,20.5C36.2,20.5,36.1,20.5,36.2,20.5c-0.3-0.2-0.6-0.4-0.9-0.5c-0.1,0-0.1-0.1-0.2-0.1
			c-0.3-0.1-0.5-0.3-0.8-0.4c-0.1,0-0.1,0-0.2-0.1c-0.3-0.1-0.6-0.2-0.9-0.3c0,0-0.1,0-0.1,0c-1.2-0.4-2.5-0.5-3.7-0.4
			c-0.1,0-0.2,0-0.3,0c-0.2,0-0.4,0-0.5,0c-2,0.2-3.8,1-5.4,2.2c-2.7,2.2-4.3,5.3-4.3,8.7c0,3.6,1.5,6.7,4.6,9.3
			c0.4,0.3,0.7,1.5,0.9,2.4c0.3,1.3,0.7,2.8,1.7,3.7c0.2,0.2,0.4,0.3,0.7,0.3h6.4c0.3,0,0.5-0.1,0.7-0.3c0.9-0.9,1.4-2.5,1.7-3.7
			c0.2-0.9,0.5-2.1,0.9-2.4c3.1-2.6,4.6-5.6,4.6-9.3c0-3-1.1-5.7-3.2-7.8C37.3,21.3,36.8,20.9,36.2,20.5z M34.7,36.8
			c-1.1,0.9-1.4,2.4-1.8,3.8c-0.3,1-0.6,2.5-1.1,2.5h-3.5c-0.5,0-0.9-1.5-1.1-2.5c-0.4-1.4-0.8-2.9-1.8-3.8
			c-2.4-2.1-3.6-4.3-3.6-7.1c0-2.2,0.9-4.3,2.4-5.8c1.6-1.6,3.6-2.4,5.8-2.4c2.2,0,4.3,0.9,5.8,2.4c1.6,1.6,2.4,3.6,2.4,5.8
			C38.2,32.4,37.1,34.7,34.7,36.8z"/>
		<path class="st0" d="M26.2,48.1c0,1.2,0.6,3,1.7,3s3,0,4.2,0c1.2,0,1.6-1.7,1.7-2.8c0,0,0-0.1,0-0.1h0c0,0,0,0,0,0H26.2L26.2,48.1
			z"/>
		<g>
			<path class="st0" d="M30,8.9c-0.8,0-1.4,0.6-1.4,1.4l0.4,4.2c0,0.6,0.5,1.1,1.1,1.1s1.1-0.5,1.1-1.1l0.4-4.2l0,0
				C31.4,9.6,30.8,8.9,30,8.9z"/>
			<path class="st0" d="M16.9,14.2L16.9,14.2c-0.1-0.1-0.1-0.1-0.2-0.1c-0.1,0-0.1-0.1-0.2-0.1c-0.1-0.1-0.2-0.1-0.3-0.1
				c-0.1,0-0.1,0-0.2,0c-0.1,0-0.3,0-0.4,0c-0.1,0-0.1,0-0.2,0c-0.1,0-0.2,0.1-0.3,0.1c-0.1,0-0.1,0.1-0.2,0.1c0,0-0.1,0.1-0.2,0.1
				c-0.6,0.6-0.6,1.5,0,2l3.2,2.7c0.2,0.2,0.5,0.3,0.7,0.3c0,0,0,0,0,0c0.3,0,0.6-0.1,0.8-0.3c0.2-0.2,0.3-0.5,0.3-0.8
				c0-0.3-0.1-0.5-0.3-0.7L16.9,14.2z"/>
			<path class="st0" d="M14.4,26.8l-4-1.1l0,0c-0.4-0.1-0.8,0-1.1,0.2c-0.3,0.2-0.5,0.5-0.6,0.9c-0.1,0.4,0,0.8,0.2,1.1
				c0.2,0.3,0.5,0.5,0.9,0.6l4.2,0.4c0.1,0,0.1,0,0.2,0c0.5,0,1-0.4,1.1-0.9C15.4,27.5,15,26.9,14.4,26.8z"/>
			<path class="st0" d="M45.3,16.2c0.3-0.3,0.4-0.6,0.4-1c0-0.4-0.1-0.7-0.4-1c-0.1-0.1-0.1-0.1-0.2-0.1c0,0-0.1-0.1-0.2-0.1
				c-0.1-0.1-0.2-0.1-0.3-0.1c-0.1,0-0.1,0-0.2,0c-0.1,0-0.3,0-0.4,0c-0.1,0-0.1,0-0.2,0c-0.1,0-0.2,0.1-0.3,0.1
				c-0.1,0-0.1,0.1-0.2,0.1c0,0-0.1,0.1-0.2,0.1l-2.7,3.2c-0.4,0.4-0.4,1.1,0,1.5c0.2,0.2,0.5,0.3,0.8,0.3c0.3,0,0.5-0.1,0.7-0.3
				L45.3,16.2L45.3,16.2z"/>
			<path class="st0" d="M51.3,26.9c-0.1-0.4-0.3-0.7-0.6-0.9c-0.3-0.2-0.7-0.3-1.1-0.2l-4.1,1.1c-0.6,0.1-1,0.7-0.8,1.2
				c0.1,0.5,0.5,0.9,1.1,0.9c0.1,0,0.1,0,0.2,0l4.2-0.4l0,0c0.4-0.1,0.7-0.3,0.9-0.6C51.3,27.7,51.4,27.3,51.3,26.9z"/>
		</g>
		<path class="st0" d="M34,46.9c0,0.2-0.2,0.4-0.4,0.4h-7.2c-0.2,0-0.4-0.2-0.4-0.4v-0.4c0-0.2,0.2-0.4,0.4-0.4h7.2
			c0.2,0,0.4,0.2,0.4,0.4V46.9z"/>
	</g>
	<rect class="st1" width="60" height="60"/>
</g>
</svg>
