<?xml version="1.0" encoding="utf-8"?>
<!-- Generator: Adobe Illustrator 24.3.0, SVG Export Plug-In . SVG Version: 6.00 Build 0)  -->
<svg version="1.1" id="レイヤー_1" xmlns="http://www.w3.org/2000/svg" xmlns:xlink="http://www.w3.org/1999/xlink" x="0px"
	 y="0px" viewBox="0 0 60 60" style="enable-background:new 0 0 60 60;" xml:space="preserve">
<style type="text/css">
	.st0{fill:#ff8b05;}
	.st1{fill:none;}
</style>
<g>
	<g>
		<path class="st0" d="M47.1,17.7h-6.2V15h4.2l-2.1-5.5H17.1L14.9,15h4.7v2.8h-6.7c-0.5,0-0.9-0.2-1.1-0.6c-0.3-0.4-0.3-0.9-0.1-1.3
			l3.2-8.2c0.2-0.5,0.7-0.9,1.3-0.9h27.7c0.6,0,1.1,0.3,1.3,0.9l3.2,8.2c0.2,0.4,0.1,0.9-0.1,1.3C48,17.5,47.5,17.7,47.1,17.7z"/>
		<path class="st0" d="M41.5,25.5h-23V11.5h23V25.5z M20.2,23.8h19.6V13.2H20.2V23.8z"/>
		<path class="st0" d="M47.1,53.3H12.9c-0.8,0-1.4-0.6-1.4-1.4v-35c0-0.6,0.4-1.1,1-1.3c0.6-0.2,1.2,0,1.6,0.6l4.8,7.2h22.2l4.8-7.2
			c0.3-0.5,1-0.7,1.6-0.6c0.6,0.2,1,0.7,1,1.3v35C48.5,52.7,47.8,53.3,47.1,53.3z M14.3,50.5h31.4V21.5l-2.7,4
			c-0.3,0.4-0.7,0.6-1.1,0.6H18.2c-0.5,0-0.9-0.2-1.1-0.6l-2.7-4V50.5z"/>
		<g>
			<path class="st0" d="M19.6,42.5l-1,2.6h-4.1l5.8-15h4.3l5.7,15h-4.2l-1-2.6H19.6z M22.3,34.7L22.3,34.7l-1.7,4.8h3.2L22.3,34.7z"
				/>
			<path class="st0" d="M45.5,37.3c0,4.9-3.5,8.3-8.3,8.3c-4.8,0-8.3-3.4-8.3-8.3c0-4.5,4-7.7,8.3-7.7S45.5,32.7,45.5,37.3z
				 M33,37.3c0,2.6,1.9,4.5,4.2,4.5c2.3,0,4.2-1.9,4.2-4.5c0-2.1-1.9-4-4.2-4C34.9,33.3,33,35.2,33,37.3z"/>
		</g>
		<g>
			<rect x="22.4" y="15.1" class="st0" width="15.3" height="1.3"/>
			<rect x="22.4" y="17.8" class="st0" width="15.3" height="1.3"/>
			<rect x="22.4" y="20.4" class="st0" width="15.3" height="1.3"/>
		</g>
	</g>
	<rect class="st1" width="60" height="60"/>
</g>
</svg>
