<?xml version="1.0" encoding="utf-8"?>
<!-- Generator: Adobe Illustrator 24.3.0, SVG Export Plug-In . SVG Version: 6.00 Build 0)  -->
<svg version="1.1" id="レイヤー_1" xmlns="http://www.w3.org/2000/svg" xmlns:xlink="http://www.w3.org/1999/xlink" x="0px"
	 y="0px" viewBox="0 0 60 60" style="enable-background:new 0 0 60 60;" xml:space="preserve">
<style type="text/css">
	.st0{fill:#ff8b05;}
	.st1{fill:none;}
</style>
<g>
	<g>
		<path class="st0" d="M51,10.9c-1-0.3-2.1,0.3-2.3,1.3l-1.4,6.4c-1,1.1-2,2.1-2.9,2.9h-1.9c2-0.8,3.5-2.8,3.5-5.1
			c0-3.1-2.5-5.5-5.5-5.5c-3.1,0-5.5,2.5-5.5,5.5c0,2.3,1.4,4.3,3.5,5.1h-2.5c-0.7,0-1.4,0.3-1.7,1l-3.5,6.3
			c-0.1,0.2-0.2,0.5-0.2,0.7l-0.3,5.4c-0.1,1,0.2,2,1.3,2.1c0.1,0,0.2,0,0.2,0c1,0,1.6-0.7,1.7-1.7l0.8-5.1l1-1.5l-0.6,7.4L33,40.1
			c-0.2,0.6-0.1,1.2,0.2,1.7l2.6,4c0.4,0.6,1,0.9,1.6,0.9c0.4,0,0.7-0.1,1-0.3c0.9-0.6,1.2-1.7,0.6-2.6L37.2,41l3.1-4l1.8,10.2
			c0,1.1,0.9,1.9,1.9,1.9s1.9-0.9,1.9-1.9l0.3-10.3c0-0.1,0-0.1,0-0.2l-0.5-9.5c1.3-1.7,4.3-5.7,4.9-6.5c0.4-0.4,1.4-7.4,1.4-7.4
			C52.2,12.3,52,11.2,51,10.9z"/>
		<path class="st0" d="M28.5,34.8L27.9,30c0-0.2-0.1-0.4-0.2-0.7L24,24c-0.3-0.6-1-0.9-1.6-0.9h-2c1.8-0.7,3.1-2.5,3.1-4.6
			c0-2.7-2.2-5-5-5c-2.7,0-5,2.2-5,5c0,2.1,1.3,3.8,3.1,4.6h-1.4c-0.8-0.8-1.8-1.7-2.7-2.7l-1.3-5.9c-0.3-0.9-1.2-1.5-2.2-1.3
			C8,13.5,7.8,14.4,8,15.4c0,0,1,6.5,1.3,6.9c0.7,0.9,4.8,6.4,5,6.7c0,0,0,0,0.1,0l-0.3,4.3L12,41.2l2.3-0.2l0.2,6.3
			c0,1,0.8,1.8,1.8,1.8s1.5-0.8,1.5-1.8l0.6-6.7l0.7-0.1l-0.4,1.8c-0.2,0.5-0.1,1.1,0.2,1.6l2.4,3.8c0.3,0.5,0.9,0.8,1.5,0.8
			c0.3,0,0.4-0.1,0.7-0.3c0.8-0.5,0.7-1.6,0.2-2.5l-1.4-2.6l1.3-3l2.4-0.2l-2.6-5.7l-0.4-5.7l1.5,2.2l1.2,4.4
			c0.1,0.9,0.7,1.6,1.6,1.6c0.1,0,0.1,0,0.2,0C28.3,36.6,28.7,35.7,28.5,34.8z"/>
	</g>
	<rect class="st1" width="60" height="60"/>
</g>
</svg>
