<?xml version="1.0" encoding="utf-8"?>
<!-- Generator: Adobe Illustrator 24.3.0, SVG Export Plug-In . SVG Version: 6.00 Build 0)  -->
<svg version="1.1" id="レイヤー_1" xmlns="http://www.w3.org/2000/svg" xmlns:xlink="http://www.w3.org/1999/xlink" x="0px"
	 y="0px" viewBox="0 0 60 60" style="enable-background:new 0 0 60 60;" xml:space="preserve">
<style type="text/css">
	.st0{fill:#ff8b05;}
	.st1{fill:none;}
</style>
<g>
	<g>
		<path class="st0" d="M46.3,21.3c2-2.4,3.3-4.4,3.9-6.1c0.8-2.3,0-3.7-0.7-4.5l-0.1-0.1c-0.7-0.7-1.6-1-2.6-1
			c-0.6,0-1.2,0.1-1.9,0.3c-1.7,0.6-3.8,1.9-6.1,3.9c-1.6,1.4-3.2,3-4.7,4.7c-0.2,0.2-4.1,4.8-7.6,8.9c0.2,0.2,1.6,2.2,2.8,3.4
			c1.1,1.1,2.9,2.5,3.4,2.8c4.1-3.5,8.9-7.6,8.9-7.6C43.3,24.5,44.9,23,46.3,21.3z"/>
		<path class="st0" d="M27.7,32.4c-1.1-1.1-2.3-2.7-2.7-3.3c-1.8,2.1-3.5,4-3.6,4.2c-0.8,0.9,0,1.9,0.3,2.3c0.3,0.4,0.8,1,1.3,1.5
			c0.5,0.5,1.1,1,1.5,1.3c0.3,0.2,0.8,0.6,1.4,0.6c0.3,0,0.6-0.1,0.9-0.3c0.1-0.1,2.1-1.8,4.2-3.6C29.1,33.7,29,33.7,27.7,32.4
			C27.7,32.4,27.7,32.4,27.7,32.4z"/>
		<path class="st1" d="M17.6,44.8c0.7-0.7,0.7-1.8,0-2.5c-0.7-0.7-1.8-0.7-2.5,0c-0.6,0.6-0.7,1.4-0.3,2.1l-4.8,5l0.4,0.4l5-4.8
			C16.2,45.5,17.1,45.4,17.6,44.8z"/>
		<path class="st0" d="M14.9,44.5c-0.4-0.7-0.3-1.5,0.3-2.1c0.7-0.7,1.8-0.7,2.5,0c0.7,0.7,0.7,1.8,0,2.5c-0.6,0.6-1.4,0.7-2.1,0.3
			l-5,4.8l0.5,0.5c1.9-0.9,4.9-2,8.1-2c1-2.2,2.4-4.8,4.7-7.4c0.3-0.3,0.6-0.6,0.9-0.9c0,0,0,0,0,0c0,0,0,0,0,0
			c-0.2-0.1-0.5-0.2-0.6-0.4c-0.6-0.4-1.4-1-2.1-1.7c-0.7-0.7-1.3-1.5-1.7-2.1c-0.1-0.1-0.2-0.3-0.3-0.5c0,0,0,0,0-0.1c0,0,0,0,0,0
			c0,0,0,0,0,0c-2.9,2.9-5.9,4.5-8.4,5.6c-0.1,3-1.2,6.1-2,8l0.5,0.5L14.9,44.5z"/>
	</g>
	<rect class="st1" width="60" height="60"/>
</g>
</svg>
