<?xml version="1.0" encoding="utf-8"?>
<!-- Generator: Adobe Illustrator 24.3.0, SVG Export Plug-In . SVG Version: 6.00 Build 0)  -->
<svg version="1.1" id="レイヤー_1" xmlns="http://www.w3.org/2000/svg" xmlns:xlink="http://www.w3.org/1999/xlink" x="0px"
	 y="0px" viewBox="0 0 60 60" style="enable-background:new 0 0 60 60;" xml:space="preserve">
<style type="text/css">
	.st0{fill:none;}
	.st1{fill:#ff8b05;}
</style>
<g>
	<g>
		<rect class="st0" width="60" height="60"/>
		<g>
			<path class="st1" d="M29.7,37.8c-1.3-0.4-2,0.9-2.1,1.1c-0.1,0.2-1.5,3.4-1.5,3.4l-2.7-3.6c-0.4-0.7-1.2-1.2-2.1-1.2l-0.7,0
				c1.8-0.8,3.1-2.6,3.1-4.7c0-2.9-2.3-5.2-5.2-5.2c-2.9,0-5.2,2.3-5.2,5.2c0,2,1.1,3.7,2.8,4.6l-0.8,0c0,0-9-7.3-9.3-7.4
				c-0.3-0.1-1.2-0.6-2,0.2c-0.6,0.7-0.3,2,0.3,2.3c0.2,0.2,9.6,9.4,9.6,9.4l-0.8,5.9h4.7h0.5h4.7l-0.4-3.8l2.5,1.8
				c0.6,0.6,1.5,0.6,1.9,0.5c0.6-0.2,0.9-0.6,1.2-1.6c0,0,2.3-4.8,2.4-5.1C30.8,39.3,30.9,38.1,29.7,37.8z"/>
			<path class="st1" d="M50.2,12.3H31.6c-3.6,0-6.5,2.9-6.5,6.5v7.4c0,2,0.9,3.7,2.3,4.9l-1.6,4.5l5.4-3c0.1,0,0.3,0,0.4,0h18.5
				c3.6,0,6.5-2.9,6.5-6.5v-7.4C56.6,15.2,53.7,12.3,50.2,12.3z"/>
			<g>
				<path class="st1" d="M38.2,45.6c-0.4,0-0.7-0.3-0.8-0.6c-1-3.8-2.9-3.9-3-3.9c-0.5,0-0.8-0.3-0.9-0.8c0-0.4,0.3-0.8,0.8-0.9
					c1.8-0.2,2.5-1.9,3-3.5c0-0.1,0.1-0.2,0.1-0.3c0.1-0.3,0.4-0.6,0.8-0.6c0.4,0,0.7,0.2,0.8,0.5c0.1,0.2,0.1,0.4,0.2,0.7
					c0.3,1.1,0.7,2.7,2.2,3.2c0.3,0.1,0.6,0.4,0.6,0.8c0,0.4-0.2,0.7-0.6,0.8c-1.9,0.7-2.4,3.8-2.4,3.8
					C38.9,45.3,38.6,45.6,38.2,45.6C38.2,45.6,38.2,45.6,38.2,45.6z M36.6,40.4c0.5,0.4,1.1,1,1.5,1.9c0.3-0.7,0.8-1.3,1.4-1.9
					c-0.7-0.5-1.1-1.2-1.4-1.9C37.8,39.2,37.3,39.9,36.6,40.4z"/>
			</g>
			<g>
				<path class="st1" d="M9.6,28.6c-0.4,0-0.8-0.3-0.9-0.7c-1.4-5.6-4.4-5.7-4.5-5.7c-0.5,0-0.9-0.4-0.9-0.8c0-0.5,0.3-0.9,0.8-1
					c3.1-0.3,4.1-3.7,4.5-5.1c0-0.2,0.1-0.3,0.1-0.4c0.1-0.4,0.5-0.6,0.8-0.6c0,0,0,0,0,0c0.4,0,0.7,0.2,0.8,0.6
					c0.1,0.3,0.2,0.6,0.3,0.9c0.4,1.6,1,4,3.4,4.8c0.4,0.1,0.6,0.5,0.6,0.8c0,0.4-0.2,0.7-0.6,0.9c-2.9,1-3.6,5.5-3.6,5.6
					C10.5,28.3,10.1,28.6,9.6,28.6C9.7,28.6,9.7,28.6,9.6,28.6z M6.9,21.4c0.9,0.6,1.9,1.7,2.7,3.4c0.5-1.1,1.2-2.4,2.4-3.3
					c-1.2-0.9-1.9-2.1-2.4-3.3C9,19.3,8.2,20.6,6.9,21.4z"/>
			</g>
		</g>
	</g>
	<rect class="st0" width="60" height="60"/>
</g>
</svg>
