<?xml version="1.0" encoding="utf-8"?>
<!-- Generator: Adobe Illustrator 24.3.0, SVG Export Plug-In . SVG Version: 6.00 Build 0)  -->
<svg version="1.1" id="レイヤー_1" xmlns="http://www.w3.org/2000/svg" xmlns:xlink="http://www.w3.org/1999/xlink" x="0px"
	 y="0px" viewBox="0 0 60 60" style="enable-background:new 0 0 60 60;" xml:space="preserve">
<style type="text/css">
	.st0{fill:#ff8b05;}
	.st1{fill:none;}
</style>
<g>
	<g>
		<rect x="45.6" y="19.1" class="st0" width="10.9" height="10.9"/>
		<g>
			<path class="st0" d="M17.6,30H3.5l7.1-12.2L17.6,30z"/>
		</g>
		<path class="st0" d="M53.4,31.5h-5.3c-1.3,0-2.4,0.9-2.6,2.2l-1.1,5.5l-5.5-8.1c-0.6-1.1-1.8-1.6-2.9-1.3c2.9-1.8,4.8-5,4.8-8.7
			c0-5.7-4.6-10.3-10.3-10.3c-5.7,0-10.3,4.6-10.3,10.3c0,3.7,1.9,6.9,4.8,8.7c-1.2-0.3-2.4,0.2-3,1.3l-5.5,8.1l-1.1-5.5
			c-0.2-1.3-1.3-2.2-2.6-2.2H7.5c-1.4,0-2.6,1.2-2.6,2.6s1.2,2.6,2.6,2.6h3l2.6,8c0.2,1.1,1,2,2.2,2.2c0.1,0,0.3,0,0.4,0
			c1,0,1.6-0.5,2.3-1.4l4.5-4.9L22,49.1h17l-0.7-8.4l4.5,4.9c0.8,0.8,1.4,1.4,2.3,1.4c0.1,0,0.3,0,0.4,0c1.1-0.2,2-1.1,2.2-2.2
			l2.6-8h3c1.4,0,2.6-1.2,2.6-2.6S54.8,31.5,53.4,31.5z M30.1,34.7c-1,0-1.8-0.7-1.8-1.8c0-1.1,0.8-1.8,1.8-1.8c1,0,1.8,0.7,1.8,1.8
			C31.9,34,31.1,34.7,30.1,34.7z M33.8,24.7c-1.4,1-2.3,1.5-2.3,2.9V28c0,0.7-0.5,1.1-1.3,1.1c-0.8,0-1.4-0.4-1.4-1.1v-0.5
			c0-1.3,0.3-2.1,0.8-2.8c0.5-0.6,0.7-0.8,2-1.6c1.4-0.9,1.8-1.4,1.8-2.4c0-1.4-1.1-2.2-2.8-2.2c-1.6,0-2.5,0.8-3,2.1
			c-0.3,0.6-0.7,0.9-1.2,0.9c-0.2,0-0.4,0-0.7-0.1c-0.6-0.2-1.1-0.5-1.1-1.2c0-0.1,0-0.3,0.1-0.5c0.3-1,0.9-1.9,1.7-2.5
			c1-0.8,2.4-1.3,4.3-1.3c3.4,0,5.6,1.8,5.6,4.5C36.5,22.6,35.3,23.6,33.8,24.7z"/>
	</g>
	<rect class="st1" width="60" height="60"/>
</g>
</svg>
