<?xml version="1.0" encoding="utf-8"?>
<!-- Generator: Adobe Illustrator 21.0.2, SVG Export Plug-In . SVG Version: 6.00 Build 0)  -->
<!DOCTYPE svg PUBLIC "-//W3C//DTD SVG 1.1//EN" "http://www.w3.org/Graphics/SVG/1.1/DTD/svg11.dtd">
<svg version="1.1" id="レイヤー_1" xmlns="http://www.w3.org/2000/svg" xmlns:xlink="http://www.w3.org/1999/xlink" x="0px"
	 y="0px" viewBox="0 0 67.9 67.9" style="enable-background:new 0 0 67.9 67.9;" xml:space="preserve">
<style type="text/css">
	.st0{fill:#2854A1;}
	.st1{opacity:0.19;}
	.st2{clip-path:url(#SVGID_2_);}
	.st3{clip-path:url(#SVGID_4_);}
	.st4{fill:#FFFFFF;}
	.st5{fill:none;stroke:#FFFFFF;stroke-width:0.8717;stroke-miterlimit:10;}
	.st6{fill:none;stroke:#FFFFFF;stroke-width:1.3787;stroke-linecap:round;stroke-linejoin:round;stroke-miterlimit:10;}
	.st7{fill:none;stroke:#FFFFFF;stroke-width:1.25;stroke-linecap:round;stroke-linejoin:round;stroke-miterlimit:10;}
	.st8{fill:none;stroke:#FFFFFF;stroke-width:1.5158;stroke-linecap:round;stroke-linejoin:round;stroke-miterlimit:10;}
	.st9{fill:none;stroke:#FFFFFF;stroke-width:1.1729;stroke-linecap:round;stroke-linejoin:round;stroke-miterlimit:10;}
	.st10{fill:none;stroke:#FFFFFF;stroke-width:1.3;stroke-miterlimit:10;}
	.st11{fill:none;stroke:#FFFFFF;stroke-miterlimit:10;}
	.st12{fill:none;stroke:#000000;stroke-width:0.246;stroke-miterlimit:10;}
	.st13{fill:none;stroke:#FFFFFF;stroke-width:9.086470e-02;stroke-linecap:round;stroke-linejoin:round;}
	.st14{fill:none;stroke:#FFFFFF;stroke-width:0.2044;stroke-linecap:round;stroke-linejoin:round;}
	.st15{fill:none;stroke:#FFFFFF;stroke-width:0.492;stroke-miterlimit:10;}
	.st16{fill:none;stroke:#FFFFFF;stroke-linecap:round;stroke-miterlimit:10;}
	.st17{fill:none;stroke:#FFFFFF;stroke-width:0.5814;stroke-linecap:round;stroke-miterlimit:10;}
	.st18{fill:none;stroke:#FFFFFF;stroke-linecap:round;stroke-linejoin:bevel;stroke-miterlimit:10;}
</style>
<circle class="st5" cx="33.9" cy="33.9" r="33.5"/>
<g>
	<path class="st4" d="M16.6,26.5h7v0.8h-1c-0.4,0-0.7,0.1-0.8,0.2c-0.2,0.1-0.3,0.3-0.3,0.6v10.2c0,0.8-0.2,1.5-0.6,2.1
		c-0.4,0.6-0.9,1.1-1.7,1.5s-1.6,0.6-2.5,0.6c-1.3,0-2.3-0.4-3.1-1.1c-0.8-0.7-1.2-1.7-1.2-2.7c0-0.8,0.2-1.4,0.6-1.9
		c0.4-0.5,0.9-0.7,1.5-0.7c0.5,0,0.9,0.2,1.2,0.5c0.3,0.3,0.5,0.7,0.5,1.2c0,0.4-0.1,0.8-0.4,1c-0.3,0.3-0.6,0.4-0.9,0.4
		c-0.1,0-0.3,0-0.5-0.1c-0.2-0.1-0.3-0.1-0.4-0.1c-0.1,0-0.2,0.1-0.3,0.2c-0.1,0.1-0.1,0.2-0.1,0.4c0,0.5,0.3,1,0.8,1.5
		c0.5,0.4,1.2,0.7,2,0.7c0.9,0,1.6-0.3,2.1-0.9c0.5-0.6,0.8-1.5,0.8-2.6V28.2c0-0.3-0.1-0.5-0.3-0.6c-0.2-0.1-0.5-0.2-1-0.2h-1.4
		V26.5z"/>
	<path class="st4" d="M32.6,26.2c1.3,0,2.6,0.4,3.7,1.1s2.1,1.7,2.7,2.9s1,2.7,1,4.2c0,1.6-0.3,3-1,4.3c-0.7,1.3-1.6,2.3-2.7,3
		c-1.2,0.7-2.4,1.1-3.7,1.1c-1.3,0-2.5-0.3-3.6-1c-1.1-0.7-2-1.7-2.7-3s-1-2.7-1-4.3c0-1.6,0.3-3,1-4.2c0.7-1.2,1.5-2.2,2.7-2.9
		C30.2,26.6,31.4,26.2,32.6,26.2z M32.8,27c-1.4,0-2.5,0.6-3.4,1.7c-0.9,1.2-1.3,3-1.3,5.6c0,2.8,0.4,4.8,1.3,5.9
		c0.9,1.1,2,1.6,3.3,1.6c0.9,0,1.7-0.2,2.4-0.7s1.2-1.3,1.7-2.3s0.6-2.5,0.6-4.2c0-1.9-0.2-3.4-0.6-4.4c-0.4-1.1-0.9-1.9-1.6-2.4
		S33.7,27,32.8,27z"/>
	<path class="st4" d="M42.3,26.5h8.2c1.6,0,2.9,0.4,3.7,1.1c0.9,0.7,1.3,1.6,1.3,2.7c0,0.9-0.3,1.7-0.9,2.3
		c-0.6,0.6-1.5,1.1-2.7,1.5c1.5,0.3,2.6,0.8,3.3,1.5c0.7,0.7,1.1,1.5,1.1,2.5c0,0.8-0.2,1.5-0.6,2.1s-1.1,1.1-2.1,1.5
		c-1,0.4-2.1,0.6-3.4,0.6h-8v-0.8h1.3c0.4,0,0.7-0.1,0.9-0.2s0.3-0.3,0.3-0.4V28.3c0-0.3-0.1-0.5-0.3-0.7c-0.2-0.2-0.4-0.2-0.8-0.2
		h-1.4V26.5z M47,33.8h3c0.9,0,1.7-0.3,2.2-0.8c0.5-0.5,0.8-1.4,0.8-2.7c0-0.8-0.1-1.4-0.4-1.8c-0.3-0.4-0.6-0.7-1.1-0.9
		s-1.4-0.3-2.6-0.3c-0.9,0-1.4,0.1-1.6,0.2c-0.2,0.1-0.3,0.3-0.3,0.7V33.8z M47,34.6v6.1c0,0.3,0.1,0.5,0.3,0.6s0.5,0.2,0.9,0.2h1.9
		c1.3,0,2.2-0.3,2.8-0.8c0.6-0.6,0.9-1.4,0.9-2.6c0-1.1-0.3-1.9-0.9-2.6s-1.5-0.9-2.6-0.9H47z"/>
</g>
</svg>
