<svg xmlns="http://www.w3.org/2000/svg" width="29.422" height="29.422" viewBox="0 0 29.422 29.422">
  <g id="グループ_2636" data-name="グループ 2636" transform="translate(-2576.124 -964.55)">
    <g id="グループ_2595" data-name="グループ 2595" transform="translate(2577.567 968.887)">
      <path id="パス_981" data-name="パス 981" d="M2611.872,1002.291h-7.043a.414.414,0,0,1-.414-.414v-5.963a.414.414,0,0,0-.414-.414h-10.416a.414.414,0,0,0-.414.414v5.963a.414.414,0,0,1-.414.414h-7.042a.414.414,0,0,0-.414.414v12.709a.413.413,0,0,0,.414.414h8.655a.414.414,0,0,0,.415-.414V1011.2a.413.413,0,0,1,.414-.414h7.279a.414.414,0,0,1,.414.414v4.217a.413.413,0,0,0,.414.414h8.581a.414.414,0,0,0,.414-.414v-12.709A.447.447,0,0,0,2611.872,1002.291Zm-22.459,10.46h-2.1v-2.989h2.1Zm0-5.134h-2.1v-2.989h2.1Zm2.767,5.134h-2.1v-2.989h2.1Zm0-5.134h-2.1v-2.989h2.1Zm6.273,0h-2.1v-2.989h2.1Zm2.767,0h-2.1v-2.989h2.1Zm-2.441-4.483a3.255,3.255,0,1,1,3.255-3.255A3.265,3.265,0,0,1,2598.778,1003.134Zm8.818,9.617h-2.1v-2.989h2.1Zm0-5.134h-2.1v-2.989h2.1Zm2.767,5.134h-2.1v-2.989h2.1Zm0-5.134h-2.1v-2.989h2.1Z" transform="translate(-2585.3 -995.5)" fill="#ff8b05"/>
      <path id="パス_982" data-name="パス 982" d="M2663.66,1014.815l-2.16-1.45.547-.8,1.539,1.05,1.938-1.716.636.71Z" transform="translate(-2650.226 -1009.474)" fill="#ff8b05"/>
    </g>
    <rect id="長方形_2764" data-name="長方形 2764" width="29.422" height="29.422" transform="translate(2576.124 964.55)" fill="none"/>
  </g>
</svg>
