<?xml version="1.0" encoding="utf-8"?>
<!-- Generator: Adobe Illustrator 16.0.4, SVG Export Plug-In . SVG Version: 6.00 Build 0)  -->
<!DOCTYPE svg PUBLIC "-//W3C//DTD SVG 1.1//EN" "http://www.w3.org/Graphics/SVG/1.1/DTD/svg11.dtd">
<svg version="1.1" id="レイヤー_1" xmlns="http://www.w3.org/2000/svg" xmlns:xlink="http://www.w3.org/1999/xlink" x="0px"
	 y="0px" width="18.289px" height="12.001px" viewBox="0 0 18.289 12.001" enable-background="new 0 0 18.289 12.001"
	 xml:space="preserve">
<path fill="#FFFFFF" d="M0,0v1.871c1.439,0.002,2.778,0.278,3.936,0.735C4.15,2.691,4.36,2.783,4.564,2.881
	c0.463-0.222,0.961-0.414,1.489-0.57C7,2.031,8.043,1.871,9.146,1.871c1.445,0,2.791,0.277,3.951,0.735
	c0.217,0.085,0.426,0.177,0.63,0.275c0.462-0.222,0.961-0.414,1.488-0.57c0.942-0.278,1.979-0.438,3.074-0.44V0H0z"/>
<path fill="#FFFFFF" d="M11.452,7.095c0,0.473,0.144,0.907,0.389,1.271c0.244,0.363,0.593,0.652,1,0.824
	c0.271,0.115,0.569,0.178,0.885,0.178c0.473,0,0.908-0.143,1.271-0.389c0.363-0.244,0.652-0.592,0.824-1
	c0.115-0.271,0.179-0.569,0.179-0.885c0-0.226-0.047-0.464-0.146-0.715c-0.099-0.25-0.249-0.512-0.452-0.771
	c-0.385-0.496-0.959-0.985-1.675-1.396c-0.549,0.316-1.016,0.676-1.376,1.051c-0.384,0.399-0.647,0.813-0.782,1.199
	C11.489,6.685,11.452,6.894,11.452,7.095"/>
<path fill="#FFFFFF" d="M15.951,4.447c0.478,0.497,0.839,1.042,1.045,1.624c0.117,0.332,0.183,0.676,0.183,1.024
	c0.001,0.712-0.219,1.38-0.59,1.93c-0.373,0.552-0.899,0.988-1.52,1.251c-0.413,0.174-0.869,0.271-1.344,0.271
	c-0.712,0-1.38-0.219-1.93-0.59c-0.552-0.373-0.988-0.898-1.25-1.519c-0.176-0.414-0.272-0.869-0.272-1.344
	c0-0.522,0.146-1.035,0.396-1.514c0.252-0.48,0.605-0.93,1.043-1.343c0.228-0.215,0.478-0.419,0.747-0.612
	c-0.181-0.066-0.364-0.128-0.556-0.184c-0.84-0.248-1.771-0.392-2.759-0.392C7.935,3.049,6.807,3.268,5.83,3.626
	c0.356,0.255,0.68,0.53,0.96,0.821C7.267,4.944,7.63,5.49,7.834,6.071c0.117,0.332,0.183,0.676,0.183,1.024
	c0,0.712-0.217,1.38-0.589,1.93c-0.372,0.552-0.899,0.988-1.52,1.251c-0.413,0.174-0.869,0.271-1.344,0.271
	c-0.713,0-1.381-0.219-1.93-0.59C2.083,9.585,1.646,9.06,1.384,8.439C1.208,8.025,1.111,7.57,1.111,7.096
	c0-0.522,0.147-1.035,0.397-1.514c0.25-0.48,0.604-0.93,1.043-1.343c0.226-0.215,0.476-0.419,0.746-0.612
	C3.117,3.561,2.933,3.499,2.742,3.442C1.906,3.196,0.98,3.051,0,3.05v8.951h18.289V3.05c-1.203,0.001-2.325,0.219-3.298,0.576
	C15.349,3.881,15.671,4.157,15.951,4.447"/>
<path fill="#FFFFFF" d="M2.291,7.095c0,0.473,0.144,0.907,0.388,1.271C2.924,8.729,3.272,9.019,3.681,9.19
	c0.271,0.115,0.568,0.178,0.884,0.178c0.473,0,0.907-0.143,1.271-0.389c0.363-0.244,0.652-0.592,0.824-1
	C6.774,7.708,6.838,7.41,6.838,7.095c0-0.226-0.048-0.464-0.146-0.715c-0.099-0.25-0.25-0.512-0.452-0.771
	C5.854,5.113,5.28,4.624,4.563,4.213C4.016,4.529,3.549,4.889,3.188,5.264C2.806,5.663,2.541,6.077,2.405,6.463
	C2.328,6.685,2.291,6.894,2.291,7.095"/>
</svg>
