<?xml version="1.0" encoding="utf-8"?>
<!-- Generator: Adobe Illustrator 24.3.0, SVG Export Plug-In . SVG Version: 6.00 Build 0)  -->
<svg version="1.1" id="レイヤー_1" xmlns="http://www.w3.org/2000/svg" xmlns:xlink="http://www.w3.org/1999/xlink" x="0px"
	 y="0px" viewBox="0 0 60 60" style="enable-background:new 0 0 60 60;" xml:space="preserve">
<style type="text/css">
	.st0{fill:#FFFFFF;}
	.st1{fill:none;}
</style>
<g>
	<path class="st0" d="M2349.7,194.5c0.8,17.7,17.7,47.7,23.7,58.1c6,10.4,23.6,40,38.5,49.6c3.6,2.4,9.6,3.1,14.7,2
		c5-1,13.4-4.7,15.1-7.6c1.7-2.9,1.9-5.2,1.5-6.5c-0.7-2.6-3.2-7.4-6.7-12.2c-4-5.6-9.5-10.6-11.7-11.2c-2.2-0.6-4,0.8-5.3,1.9
		c-1.2,1.1-7.5,6.6-10.7,5.4c-3.3-1.1-17.6-21.6-22-29.2c-4.4-7.6-14.9-30.2-14.3-33.6c0.7-3.4,8.5-6,10.1-6.6
		c1.6-0.5,3.7-1.4,4.3-3.6c0.6-2.2-1-9.5-3.8-15.8c-2.5-5.4-5.4-10-7.3-11.9c-1-1-3-2-6.4-1.9c-3.3,0.1-10.7,5.4-14.1,9.3
		C2351.8,184.6,2349.4,190.1,2349.7,194.5z"/>
</g>
<g>
	<g>
		<path class="st0" d="M2852.6,943.4H2805c-1.6,0-2.8-1.3-2.8-2.8v-40.3c0-1.6-1.3-2.8-2.8-2.8H2729c-1.6,0-2.8,1.3-2.8,2.8v40.3
			c0,1.6-1.3,2.8-2.8,2.8h-47.6c-1.6,0-2.8,1.3-2.8,2.8v85.9c0,1.6,1.3,2.8,2.8,2.8h58.5c1.6,0,2.8-1.3,2.8-2.8v-28.5
			c0-1.6,1.3-2.8,2.8-2.8h49.2c1.6,0,2.8,1.3,2.8,2.8v28.5c0,1.6,1.3,2.8,2.8,2.8h58c1.6,0,2.8-1.3,2.8-2.8v-85.9
			C2855.5,944.7,2854.2,943.4,2852.6,943.4z M2700.9,1014.1h-14.2v-20.2h14.2V1014.1z M2700.9,979.4h-14.2v-20.2h14.2V979.4z
			 M2719.5,1014.1h-14.2v-20.2h14.2V1014.1z M2719.5,979.4h-14.2v-20.2h14.2V979.4z M2762,979.4h-14.2v-20.2h14.2V979.4z
			 M2780.6,979.4h-14.2v-20.2h14.2V979.4z M2764.2,949.1c-12.1,0-22-9.9-22-22c0-12.1,9.9-22,22-22c12.1,0,22,9.9,22,22
			C2786.2,939.2,2776.3,949.1,2764.2,949.1z M2823.8,1014.1h-14.2v-20.2h14.2V1014.1z M2823.8,979.4h-14.2v-20.2h14.2V979.4z
			 M2842.4,1014.1h-14.2v-20.2h14.2V1014.1z M2842.4,979.4h-14.2v-20.2h14.2V979.4z"/>
		<polygon class="st0" points="2763.9,933.6 2749.3,923.8 2752.9,918.4 2763.3,925.5 2776.4,913.9 2780.7,918.7 		"/>
	</g>
	<rect x="2664.2" y="866.2" class="st1" width="200" height="200"/>
</g>
<g>
	<g>
		<path class="st1" d="M1762.8,198.9c0.3,1.2,0.6,2.5,0.8,3.7C1763.5,201.3,1763.2,200.1,1762.8,198.9z"/>
		<path class="st1" d="M1759.8,191.8c0.7,1.1,1.2,2.3,1.8,3.5C1761.1,194.1,1760.5,192.9,1759.8,191.8z"/>
		<path class="st1" d="M1662.1,195.3c0.5-1.2,1.1-2.3,1.8-3.5C1663.2,192.9,1662.6,194.1,1662.1,195.3z"/>
		<path class="st1" d="M1763.7,203.4c0-0.2,0-0.5-0.1-0.7C1763.7,202.9,1763.7,203.1,1763.7,203.4L1763.7,203.4z"/>
		<polygon class="st1" points="1666.1,250.2 1686,239.2 1686,239.2 		"/>
		<path class="st1" d="M1753.6,183.9c-9.5-9.2-24.7-15.2-41.7-15.2s-32.2,6-41.7,15.2c9.5-9.2,24.7-15.2,41.7-15.2
			S1744.1,174.7,1753.6,183.9z"/>
		<path class="st1" d="M1659.8,206.5c0-1.3,0.1-2.6,0.3-3.9C1659.8,203.9,1659.8,205.2,1659.8,206.5z"/>
		<path class="st1" d="M1753.6,183.9c2,1.9,3.7,4,5.2,6.2C1757.3,187.9,1755.6,185.8,1753.6,183.9z"/>
		<path class="st1" d="M1660,202.6c0.2-1.3,0.4-2.5,0.8-3.7C1660.5,200.1,1660.2,201.3,1660,202.6z"/>
		<path class="st1" d="M1664.9,190.1c1.5-2.2,3.2-4.3,5.2-6.2C1668.1,185.8,1666.4,187.9,1664.9,190.1z"/>
		<path d="M1763.9,206.5c0-1-0.1-2.1-0.2-3.1l0,0C1763.8,204.4,1763.9,205.4,1763.9,206.5z"/>
		<path class="st0" d="M1835.5,249.7v-22.5c0-13.2-10.7-23.9-23.9-23.9h-39.4c0.1,1,0.1,2.1,0.1,3.1c0,1.8-0.1,3.6-0.4,5.4h39.6
			c8.5,0,15.4,6.9,15.4,15.4v22.5c0,5.5-3,10.6-7.8,13.4l-3,1.7l3,9.7l-15.5-9.4h-48.3c-8.5,0-15.4-6.9-15.4-15.4v-2.3
			c-2.7,1.1-5.6,2-8.5,2.8c0.3,12.9,10.9,23.4,23.9,23.4h45.9l32.5,19.7l-7.6-24.7C1832.1,264.1,1835.5,257.1,1835.5,249.7z"/>
		<path class="st0" d="M1672.7,231.4c-1-0.8-2-1.7-2.9-2.6C1670.7,229.7,1671.7,230.5,1672.7,231.4z"/>
		<path class="st0" d="M1669.8,228.8c-1.8-1.8-3.4-3.7-4.8-5.7C1666.4,225.1,1668,227,1669.8,228.8z"/>
		<path class="st0" d="M1701.5,243.5c-2.2-0.3-4.4-0.8-6.5-1.3C1697.1,242.7,1699.3,243.1,1701.5,243.5z"/>
		<path class="st0" d="M1664.1,221.6c-1.2-2.1-2.2-4.2-3-6.4C1661.9,217.4,1662.9,219.5,1664.1,221.6z"/>
		<path class="st0" d="M1686,239.2c2.9,1.2,5.9,2.2,9,3C1691.9,241.4,1688.8,240.4,1686,239.2L1686,239.2z"/>
		<path class="st0" d="M1763.7,203.4c0-0.2,0-0.5-0.1-0.7c-0.2-1.3-0.4-2.5-0.8-3.7c-0.3-1.2-0.8-2.4-1.3-3.6
			c-0.5-1.2-1.1-2.3-1.8-3.5c-0.3-0.6-0.7-1.1-1-1.7c-1.5-2.2-3.2-4.3-5.2-6.2c-9.5-9.2-24.7-15.2-41.7-15.2s-32.2,6-41.7,15.2
			c-2,1.9-3.7,4-5.2,6.2c-0.4,0.5-0.7,1.1-1,1.7c-0.7,1.1-1.2,2.3-1.8,3.5c-0.5,1.2-0.9,2.4-1.3,3.6c-0.3,1.2-0.6,2.5-0.8,3.7
			c-0.2,1.3-0.3,2.6-0.3,3.9c0,3,0.5,5.9,1.4,8.7c0.7,2.2,1.7,4.4,3,6.4c0.3,0.5,0.6,1,1,1.5c1.4,2,3,3.9,4.8,5.7
			c0.9,0.9,1.9,1.8,2.9,2.6l-6.6,18.9l19.8-11c2.9,1.2,5.9,2.2,9,3c2.1,0.5,4.3,0.9,6.5,1.3c3.3,0.5,6.8,0.7,10.3,0.7
			c7,0,13.6-1,19.7-2.8c3-0.9,5.8-2,8.5-3.2c12.4-5.8,21.2-15.3,23.3-26.3c0.3-1.8,0.5-3.6,0.5-5.4
			C1763.9,205.4,1763.8,204.4,1763.7,203.4z M1680.3,213.6c-3.1,0-5.7-2.5-5.7-5.7c0-3.1,2.5-5.7,5.7-5.7s5.7,2.5,5.7,5.7
			C1685.9,211,1683.4,213.6,1680.3,213.6z M1701.4,213.6c-3.1,0-5.7-2.5-5.7-5.7c0-3.1,2.5-5.7,5.7-5.7s5.7,2.5,5.7,5.7
			C1707.1,211,1704.5,213.6,1701.4,213.6z M1722.5,213.6c-3.1,0-5.7-2.5-5.7-5.7c0-3.1,2.5-5.7,5.7-5.7s5.7,2.5,5.7,5.7
			C1728.2,211,1725.6,213.6,1722.5,213.6z M1743.6,213.6c-3.1,0-5.7-2.5-5.7-5.7c0-3.1,2.5-5.7,5.7-5.7c3.1,0,5.7,2.5,5.7,5.7
			C1749.3,211,1746.8,213.6,1743.6,213.6z"/>
		<g>
			<circle class="st0" cx="1787.3" cy="237.5" r="5.7"/>
			<circle class="st0" cx="1766.2" cy="237.5" r="5.7"/>
			<circle class="st0" cx="1808.4" cy="237.5" r="5.7"/>
		</g>
	</g>
	<rect x="1647.6" y="131" class="st1" width="200" height="200"/>
</g>
<g>
	<g>
		<path class="st0" d="M2093.8,293.8h-87.5c-2.3,0-4.3-1.9-4.3-4.3V173.4c0-2.3,1.9-4.3,4.3-4.3h104.9c2.3,0,4.3,1.9,4.3,4.3v96.9
			c0,1.1-0.4,2.1-1.1,2.8l-17.4,19.3C2096.1,293.3,2095,293.8,2093.8,293.8z M2010.5,285.3h81.3l15.1-16.7v-91h-96.4V285.3z"/>
		<path class="st0" d="M2085.6,283c-1.6,0-2.8-1.3-2.8-2.8v-16.1c0-1.6,1.3-2.8,2.8-2.8h15.6c1.6,0,2.8,1.3,2.8,2.8
			s-1.3,2.8-2.8,2.8h-12.7v13.2C2088.4,281.8,2087.2,283,2085.6,283z"/>
		<g>
			<rect x="2024.7" y="191.3" class="st0" width="68" height="5.7"/>
			<rect x="2024.7" y="207.9" class="st0" width="68" height="5.7"/>
			<rect x="2024.7" y="224.5" class="st0" width="68" height="5.7"/>
			<rect x="2024.7" y="241.1" class="st0" width="68" height="5.7"/>
		</g>
	</g>
	<rect x="1958.7" y="131.5" class="st1" width="200" height="200"/>
</g>
<rect x="2296.5" y="138.1" class="st1" width="200" height="200"/>
<g>
	<g>
		<path class="st0" d="M2918.9,168.1c-3.4-0.9-6.9,1.1-7.8,4.5l-4.8,21.3c-3.2,3.5-6.8,6.9-9.8,9.6h-6.4c6.8-2.7,11.5-9.4,11.5-17.1
			c0-10.2-8.3-18.5-18.5-18.5c-10.2,0-18.5,8.3-18.5,18.5c0,7.7,4.8,14.4,11.5,17.1h-8.4c-2.3-0.1-4.6,1.1-5.8,3.3l-11.6,20.9
			c-0.4,0.7-0.7,1.5-0.8,2.3l-1,18.1c-0.4,3.5,0.8,6.7,4.3,7.1c0.3,0,0.5,0,0.8,0c3.2,0,5.3-2.4,5.7-5.6l2.8-16.9l3.5-5l-1.9,24.6
			l-4.8,12.8c-0.7,1.9-0.5,4,0.6,5.7l8.6,13.5c1.2,1.9,3.3,2.9,5.4,2.9c1.2,0,2.4-0.3,3.4-1c3-1.9,3.8-5.8,2-8.8l-5.9-9.2l10.3-13.2
			l5.9,34c0,3.5,2.8,6.4,6.4,6.4c3.5,0,6.4-2.8,6.4-6.4l1-34.4c0-0.2,0-0.4,0-0.7l-1.6-31.7c4.2-5.6,14.2-19.1,16.2-21.8
			c1.3-1.3,4.7-24.6,4.7-24.6C2923.1,172.5,2922.3,169,2918.9,168.1z"/>
		<path class="st0" d="M2844,247.5l-2.2-15.8c-0.1-0.8-0.3-1.5-0.7-2.2l-12.1-17.9c-1.1-2-3.2-3.1-5.4-3h-6.6
			c6-2.5,10.2-8.4,10.2-15.3c0-9.1-7.4-16.6-16.6-16.6c-9.1,0-16.5,7.4-16.5,16.6c0,6.9,4.2,12.8,10.2,15.3h-4.8
			c-2.8-2.5-6.2-5.7-9.1-9l-4.5-19.8c-0.9-3.2-4.1-5-7.3-4.2c-3.2,0.8-3.8,4.1-3,7.3c0,0,3.2,21.7,4.4,22.9
			c2.3,3.1,15.9,21.4,16.8,22.5c0.1,0.1,0.2,0.1,0.2,0.2l-1.1,14.2l-7.1,26.2l7.7-0.6l0.6,21.2c0,3.3,2.7,5.9,5.9,5.9s5-2.7,5-5.9
			l2.1-22.2l2.5-0.2l-1.4,5.8c-0.7,1.7-0.5,3.7,0.5,5.3l8,12.6c1.1,1.8,3,2.7,5,2.7c1.1,0,1.4-0.3,2.4-0.9c2.8-1.8,2.3-5.4,0.5-8.2
			l-4.7-8.6l4.3-9.8l7.9-0.6l-8.5-19.1l-1.5-19.2l4.8,7.2l3.9,14.7c0.4,3,2.3,5.2,5.3,5.2c0.2,0,0.5,0,0.7,0
			C2843.3,253.7,2844.4,250.8,2844,247.5z"/>
	</g>
	<rect x="2748.9" y="131.7" class="st1" width="200" height="200"/>
</g>
<g>
	<g>
		<path class="st0" d="M1888.7,577.5c-0.1,0-0.1-0.1-0.2-0.1c-0.9-0.6-1.8-1.1-2.7-1.6c-0.2-0.1-0.3-0.2-0.5-0.3
			c-0.9-0.5-1.8-0.9-2.8-1.3c-0.2-0.1-0.4-0.2-0.6-0.2c-1-0.4-1.9-0.7-3-1.1c-0.1,0-0.2-0.1-0.3-0.1c-4-1.2-8.2-1.7-12.5-1.5
			c-0.3,0-0.7,0-1,0.1c-0.6,0-1.2,0-1.8,0.1c-6.5,0.8-12.7,3.4-17.9,7.5c-9.1,7.2-14.2,17.7-14.2,29.1c0,12.1,5,22.2,15.2,30.9
			c1.2,1,2.3,5,3,7.9c1.1,4.2,2.4,9.3,5.6,12.5c0.6,0.6,1.5,0.9,2.3,0.9h21.4c0.9,0,1.7-0.3,2.3-0.9c3.2-3.1,4.5-8.3,5.6-12.5
			c0.8-2.9,1.8-6.9,3-7.9c10.3-8.7,15.2-18.8,15.2-30.9c0-9.9-3.8-19.1-10.8-26.1C1892.5,580.3,1890.6,578.8,1888.7,577.5z
			 M1883.7,631.7c-3.5,3-4.8,7.9-6,12.7c-0.9,3.3-2.1,8.3-3.7,8.3h-11.6c-1.5,0-2.8-5-3.7-8.3c-1.2-4.8-2.5-9.8-6-12.7
			c-8.1-6.9-11.9-14.4-11.9-23.6c0-7.3,2.9-14.2,8-19.4c5.2-5.2,12.1-8,19.4-8c7.3,0,14.2,2.9,19.4,8c5.2,5.2,8,12.1,8,19.4
			C1895.5,617.3,1891.8,624.8,1883.7,631.7z"/>
		<path class="st0" d="M1855.5,669.5c0,4,2,9.9,5.6,9.9s10.1,0,14.2,0s5.5-5.6,5.6-9.5c0-0.1,0-0.2,0-0.3h0c0,0,0,0,0,0H1855.5
			L1855.5,669.5z"/>
		<g>
			<path class="st0" d="M1868.1,539c-2.6,0-4.8,2.1-4.8,4.8l1.2,14c0,1.9,1.6,3.5,3.6,3.5s3.5-1.6,3.6-3.5l1.2-13.9l0-0.1
				C1872.9,541.1,1870.8,539,1868.1,539z"/>
			<path class="st0" d="M1824.5,556.7L1824.5,556.7c-0.3-0.3-0.5-0.4-0.6-0.5c-0.2-0.1-0.4-0.3-0.6-0.4c-0.4-0.2-0.7-0.4-1.1-0.5
				c-0.2,0-0.3-0.1-0.5-0.1c-0.4-0.1-0.9-0.1-1.3,0c-0.2,0-0.3,0.1-0.5,0.1c-0.4,0.1-0.8,0.3-1.1,0.5c-0.2,0.1-0.4,0.2-0.5,0.4
				c-0.1,0.1-0.3,0.2-0.5,0.4c-1.9,1.9-1.9,4.9,0,6.7l10.7,9c0.7,0.6,1.5,1,2.5,1c0,0,0,0,0,0c1,0,1.9-0.4,2.5-1
				c0.7-0.7,1-1.6,1-2.5c0-0.9-0.4-1.8-1-2.5L1824.5,556.7z"/>
			<path class="st0" d="M1816.1,598.6l-13.4-3.6l-0.1,0c-1.3-0.2-2.5,0.1-3.6,0.8c-1,0.7-1.7,1.8-2,3.1c-0.2,1.3,0.1,2.5,0.8,3.6
				c0.7,1,1.8,1.7,3.1,2l14,1.2c0.2,0,0.4,0,0.6,0c1.7,0,3.2-1.2,3.5-3C1819.3,600.8,1818,599,1816.1,598.6z"/>
			<path class="st0" d="M1919,563.4c0.9-0.9,1.4-2.1,1.4-3.4c0-1.3-0.5-2.5-1.4-3.4c-0.2-0.2-0.4-0.3-0.5-0.4
				c-0.2-0.1-0.3-0.2-0.5-0.3c-0.4-0.2-0.8-0.4-1.1-0.5c-0.2,0-0.3-0.1-0.5-0.1c-0.4-0.1-0.9-0.1-1.3,0c-0.2,0-0.4,0.1-0.5,0.1
				c-0.4,0.1-0.8,0.3-1.2,0.5c-0.2,0.1-0.4,0.2-0.5,0.4c-0.1,0.1-0.3,0.2-0.5,0.4l-9,10.7c-1.3,1.4-1.3,3.6,0,5c0.7,0.7,1.6,1,2.5,1
				c0.9,0,1.8-0.4,2.5-1L1919,563.4L1919,563.4z"/>
			<path class="st0" d="M1939.2,598.9c-0.2-1.3-0.9-2.3-2-3.1c-1-0.7-2.3-1-3.6-0.8l-13.6,3.6c-1.9,0.4-3.2,2.2-2.8,4.1
				c0.3,1.7,1.8,3,3.5,3c0.2,0,0.4,0,0.6,0l13.8-1.2l0.1,0c1.3-0.2,2.3-0.9,3.1-2C1939.1,601.4,1939.4,600.1,1939.2,598.9z"/>
		</g>
		<path class="st0" d="M1881.5,665.7c0,0.8-0.6,1.4-1.4,1.4h-23.9c-0.8,0-1.4-0.6-1.4-1.4v-1.4c0-0.8,0.6-1.4,1.4-1.4h23.9
			c0.8,0,1.4,0.6,1.4,1.4V665.7z"/>
	</g>
	<rect x="1768.1" y="509.2" class="st1" width="200" height="200"/>
</g>
<g>
	<g>
		<rect x="2445.3" y="590.3" class="st0" width="36.4" height="36.4"/>
		<g>
			<path class="st0" d="M2352.2,626.7h-47.1l23.5-40.8L2352.2,626.7z"/>
		</g>
		<path class="st0" d="M2471.4,631.7h-17.6c-4.3,0-8,3.1-8.6,7.4l-3.8,18.4l-18.4-27.1c-1.9-3.6-6-5.3-9.8-4.4
			c9.6-6.1,16-16.8,16-29c0-18.9-15.3-34.2-34.2-34.2c-18.9,0-34.2,15.3-34.2,34.2c0,12.2,6.4,23,16.1,29c-3.8-1-8,0.7-9.9,4.3
			l-18.4,27.1l-3.8-18.4c-0.7-4.3-4.3-7.4-8.6-7.4h-17.6c-4.8,0-8.7,3.9-8.7,8.7s3.9,8.7,8.7,8.7h10.1l8.8,26.6
			c0.6,3.7,3.5,6.7,7.2,7.3c0.5,0.1,1,0.1,1.5,0.1c3.2,0,5.2-1.7,7.7-4.6L2369,662l-2.3,28.3h56.6l-2.3-28.2l15.1,16.3
			c2.8,2.8,4.5,4.6,7.7,4.6c0.5,0,1,0,1.5-0.1c3.7-0.6,6.6-3.6,7.2-7.3l8.8-26.6h10.1c4.8,0,8.7-3.9,8.7-8.7
			S2476.3,631.7,2471.4,631.7z M2393.9,642.3c-3.4,0-6-2.4-6-6c0-3.6,2.6-6,6-6c3.3,0,6,2.4,6,6
			C2399.9,639.9,2397.2,642.3,2393.9,642.3z M2406.1,608.8c-4.7,3.2-7.6,4.8-7.6,9.7v1.5c0,2.5-1.7,3.8-4.5,3.8
			c-2.8,0-4.6-1.3-4.6-3.8v-1.6c0-4.4,0.9-6.9,2.8-9.4c1.5-1.9,2.2-2.5,6.8-5.5c4.5-3.1,6-4.7,6-8c0-4.6-3.6-7.3-9.3-7.3
			c-5.5,0-8.4,2.7-10,7.1c-0.9,2.2-2.3,3-4.1,3c-0.7,0-1.4-0.1-2.2-0.4c-1.9-0.5-3.6-1.7-3.6-3.9c0-0.4,0.1-1,0.3-1.6
			c1.2-3.3,3.1-6.2,5.8-8.4c3.5-2.7,8-4.3,14.4-4.3c11.5,0,18.8,5.9,18.8,15.1C2415.1,602.1,2411.1,605.4,2406.1,608.8z"/>
	</g>
	<rect x="2293.4" y="526.6" class="st1" width="200" height="200"/>
</g>
<g>
	<g>
		<path class="st0" d="M2935.2,604.3c6.7-7.9,11-14.8,12.9-20.5c2.5-7.8,0.1-12.5-2.4-15l-0.2-0.2c-2.3-2.2-5.3-3.4-8.8-3.4
			c-1.9,0-4,0.4-6.2,1.1c-5.7,1.8-12.6,6.2-20.5,12.9c-5.5,4.6-10.7,9.9-15.6,15.5c-0.5,0.6-13.8,16.1-25.4,29.6
			c0.6,0.8,5.3,7.3,9.5,11.5c3.8,3.8,9.8,8.3,11.4,9.5c13.8-11.8,29.8-25.4,29.8-25.4C2925.3,615,2930.6,609.7,2935.2,604.3z"/>
		<path class="st0" d="M2873.4,641.1c-3.8-3.8-7.7-9-9.1-10.9c-6,7-11.6,13.4-12.1,13.9c-2.7,2.9,0,6.5,0.9,7.7
			c1.1,1.5,2.7,3.2,4.4,5c1.8,1.8,3.5,3.3,5,4.4c1,0.7,2.8,2.1,4.8,2.1c1.1,0,2.1-0.4,2.9-1.1c0.4-0.4,6.9-6.1,14-12.1
			C2878,645.7,2877.9,645.6,2873.4,641.1C2873.3,641.1,2873.4,641.1,2873.4,641.1z"/>
		<path class="st1" d="M2839.9,682.6c2.3-2.3,2.3-5.9,0-8.2c-2.3-2.3-5.9-2.3-8.2,0c-1.9,1.9-2.2,4.8-0.9,7l-16.1,16.8l1.4,1.4
			l16.8-16.1C2835.1,684.8,2838,684.5,2839.9,682.6z"/>
		<path class="st0" d="M2830.8,681.4c-1.3-2.2-1-5.1,0.9-7c2.3-2.3,5.9-2.3,8.2,0c2.3,2.3,2.3,5.9,0,8.2c-1.9,1.9-4.8,2.2-7,0.9
			l-16.8,16.1l1.7,1.7c6.5-2.9,16.5-6.5,26.9-6.6c3.2-7.2,7.9-16,15.8-24.8c0.9-1,1.9-2.1,2.9-3.1c0,0,0,0,0,0c0,0,0,0,0,0
			c-0.8-0.5-1.6-0.8-2.1-1.2c-1.9-1.5-4.5-3.3-6.9-5.7c-2.4-2.4-4.2-5-5.7-6.9c-0.3-0.4-0.6-1.1-1-1.8c0-0.1-0.1-0.1-0.1-0.2
			c0,0,0,0,0,0c0,0,0,0,0,0c-9.8,9.6-19.8,15.1-27.9,18.7c-0.4,10.1-3.9,20.2-6.8,26.8l1.8,1.8L2830.8,681.4z"/>
	</g>
	<rect x="2781" y="533.2" class="st1" width="200" height="200"/>
</g>
<g>
	<g>
		<path class="st0" d="M1899.6,923.6h-20.8v-9.2h14l-7.1-18.2h-86.1l-7.1,18.2h15.7v9.2h-22.4c-1.5,0-2.9-0.8-3.8-2
			c-0.9-1.3-1-2.9-0.5-4.3l10.7-27.5c0.7-1.8,2.4-2.9,4.3-2.9h92.4c1.9,0,3.6,1.2,4.3,2.9l10.7,27.5c0.6,1.4,0.4,3-0.5,4.3
			C1902.6,922.8,1901.2,923.6,1899.6,923.6z"/>
		<path class="st0" d="M1880.9,949.7h-76.5v-46.9h76.5V949.7z M1810.1,944h65.2v-35.6h-65.2V944z"/>
		<path class="st0" d="M1899.6,1042.1h-113.9c-2.5,0-4.6-2.1-4.6-4.6V920.9c0-2,1.3-3.8,3.3-4.4c1.9-0.6,4,0.2,5.2,1.8l16.1,24h74.1
			l16.1-24c1.1-1.7,3.2-2.4,5.2-1.8c1.9,0.6,3.3,2.4,3.3,4.4v116.6C1904.2,1040,1902.2,1042.1,1899.6,1042.1z M1790.3,1032.9H1895
			V936l-9,13.5c-0.9,1.3-2.3,2-3.8,2h-79c-1.5,0-3-0.8-3.8-2l-9-13.5V1032.9z"/>
		<g>
			<path class="st0" d="M1807.9,1006l-3.5,8.7h-13.8l19.2-50h14.2l18.8,50H1829l-3.3-8.7H1807.9z M1817,980.1h-0.1l-5.4,15.9h10.8
				L1817,980.1z"/>
			<path class="st0" d="M1894.5,988.8c0,16.2-11.6,27.6-27.7,27.6c-16.1,0-27.7-11.4-27.7-27.6c0-15.1,13.3-25.7,27.7-25.7
				S1894.5,973.6,1894.5,988.8z M1852.7,988.8c0,8.6,6.4,14.9,14.1,14.9c7.8,0,14.1-6.3,14.1-14.9c0-6.9-6.4-13.2-14.1-13.2
				C1859,975.6,1852.7,981.9,1852.7,988.8z"/>
		</g>
		<g>
			<rect x="1817.5" y="915" class="st0" width="51" height="4.3"/>
			<rect x="1817.5" y="923.7" class="st0" width="51" height="4.3"/>
			<rect x="1817.5" y="932.5" class="st0" width="51" height="4.3"/>
		</g>
	</g>
	<rect x="1742.7" y="864.5" class="st1" width="200" height="200"/>
</g>
<g>
	<g>
		<rect x="2179.3" y="856.4" class="st1" width="200" height="200"/>
		<g>
			<path class="st0" d="M2278.4,982.3c-4.2-1.4-6.6,2.9-6.9,3.6c-0.2,0.7-5.1,11.5-5.1,11.5l-9.1-12.2c-1.2-2.3-4.1-3.9-7.1-3.9
				l-2.3-0.1c6-2.7,10.2-8.7,10.2-15.7c0-9.5-7.7-17.2-17.2-17.2c-9.5,0-17.2,7.7-17.2,17.2c0,6.6,3.7,12.4,9.2,15.2l-2.5-0.1
				c0,0-30.2-24.2-31-24.7s-4.1-2.1-6.6,0.8c-2.1,2.5-0.8,6.5,0.9,7.8c0.8,0.6,32.1,31.3,32.1,31.3l-2.6,19.7h15.8h1.5h15.8
				l-1.2-12.5l8.2,6.2c2.1,2.1,4.9,2.1,6.3,1.7c1.9-0.6,2.8-2.1,4.1-5.2c0,0,7.6-16.1,8-17.1C2282,987.4,2282.4,983.6,2278.4,982.3z
				"/>
			<path class="st0" d="M2346.5,897.4h-61.8c-11.9,0-21.6,9.7-21.6,21.6v24.7c0,6.5,2.9,12.4,7.6,16.4l-5.2,15.1l17.8-9.9
				c0.5,0,1,0.1,1.4,0.1h61.8c11.9,0,21.6-9.7,21.6-21.6V919C2368.1,907.1,2358.4,897.4,2346.5,897.4z"/>
			<g>
				<path class="st0" d="M2306.5,1008.5c-1.3,0-2.4-0.9-2.7-2.1c-3.2-12.7-9.6-12.9-9.9-12.9c-1.5,0.1-2.7-1.1-2.8-2.6
					c-0.1-1.5,1-2.8,2.5-3c6.1-0.6,8.5-6.2,10-11.6c0.1-0.4,0.2-0.8,0.3-1.1c0.4-1.1,1.4-1.9,2.6-1.9c1.2,0,2.3,0.7,2.7,1.8
					c0.2,0.6,0.4,1.4,0.6,2.3c0.9,3.6,2.3,9.1,7.5,10.7c1.1,0.4,1.9,1.4,1.9,2.6c0,1.2-0.7,2.3-1.8,2.7c-6.5,2.3-8.1,12.5-8.1,12.6
					c-0.2,1.3-1.3,2.3-2.6,2.4C2306.6,1008.5,2306.6,1008.5,2306.5,1008.5z M2301.2,990.9c1.7,1.4,3.5,3.4,5.1,6.4
					c1.1-2.2,2.5-4.4,4.5-6.2c-2.2-1.8-3.6-4-4.6-6.2C2305.2,987,2303.5,989.3,2301.2,990.9z"/>
			</g>
			<g>
				<path class="st0" d="M2211.4,951.8c-1.4,0-2.6-0.9-2.9-2.3c-4.7-18.8-14.5-18.9-14.9-18.9c-1.6,0.1-3-1.2-3.1-2.8s1.1-3,2.7-3.2
					c10.4-1,13.6-12.3,14.9-17.1c0.2-0.6,0.3-1.1,0.4-1.5c0.4-1.2,1.5-2.1,2.8-2.1c0,0,0,0,0.1,0c1.3,0,2.4,0.8,2.8,2
					c0.3,0.8,0.6,1.9,0.9,3.1c1.3,5.3,3.4,13.4,11.2,15.9c1.2,0.4,2.1,1.5,2.1,2.8c0,1.3-0.8,2.5-2,2.9c-9.8,3.4-12,18.4-12,18.6
					c-0.2,1.4-1.4,2.5-2.8,2.6C2211.5,951.8,2211.5,951.8,2211.4,951.8z M2202.3,927.7c3,2.1,6.2,5.5,8.8,11.2c1.6-3.8,4.1-8,7.9-11
					c-4.1-2.9-6.4-7.1-7.9-11C2209.4,920.8,2206.7,925,2202.3,927.7z"/>
			</g>
		</g>
	</g>
	<rect x="2179.3" y="856.4" class="st1" width="200" height="200"/>
</g>
<g>
	<g>
		<path class="st0" d="M581.9,1739.8h-47.6c-1.6,0-2.8-1.3-2.8-2.8v-40.3c0-1.6-1.3-2.8-2.8-2.8h-70.4c-1.6,0-2.8,1.3-2.8,2.8v40.3
			c0,1.6-1.3,2.8-2.8,2.8H405c-1.6,0-2.8,1.3-2.8,2.8v85.9c0,1.6,1.3,2.8,2.8,2.8h58.5c1.6,0,2.8-1.3,2.8-2.8V1800
			c0-1.6,1.3-2.8,2.8-2.8h49.2c1.6,0,2.8,1.3,2.8,2.8v28.5c0,1.6,1.3,2.8,2.8,2.8h58c1.6,0,2.8-1.3,2.8-2.8v-85.9
			C584.7,1741.1,583.5,1739.8,581.9,1739.8z M430.1,1810.5H416v-20.2h14.2V1810.5z M430.1,1775.8H416v-20.2h14.2V1775.8z
			 M448.8,1810.5h-14.2v-20.2h14.2V1810.5z M448.8,1775.8h-14.2v-20.2h14.2V1775.8z M491.2,1775.8H477v-20.2h14.2V1775.8z
			 M509.9,1775.8h-14.2v-20.2h14.2V1775.8z M493.4,1745.5c-12.1,0-22-9.9-22-22c0-12.1,9.9-22,22-22c12.1,0,22,9.9,22,22
			C515.4,1735.6,505.6,1745.5,493.4,1745.5z M553,1810.5h-14.2v-20.2H553V1810.5z M553,1775.8h-14.2v-20.2H553V1775.8z
			 M571.7,1810.5h-14.2v-20.2h14.2V1810.5z M571.7,1775.8h-14.2v-20.2h14.2V1775.8z"/>
		<polygon class="st0" points="493.1,1730 478.6,1720.2 482.2,1714.8 492.6,1721.9 505.7,1710.3 510,1715.1 		"/>
	</g>
	<rect x="393.4" y="1662.6" class="st1" width="200" height="200"/>
</g>
<g>
	<g>
		<path class="st1" d="M-507.9,995.3c0.3,1.2,0.6,2.5,0.8,3.7C-507.3,997.7-507.5,996.5-507.9,995.3z"/>
		<path class="st1" d="M-510.9,988.2c0.7,1.1,1.2,2.3,1.8,3.5C-509.7,990.5-510.3,989.3-510.9,988.2z"/>
		<path class="st1" d="M-608.6,991.6c0.5-1.2,1.1-2.3,1.8-3.5C-607.6,989.3-608.1,990.5-608.6,991.6z"/>
		<path class="st1" d="M-507,999.8c0-0.2,0-0.5-0.1-0.7C-507.1,999.3-507.1,999.5-507,999.8L-507,999.8z"/>
		<polygon class="st1" points="-604.6,1046.6 -584.8,1035.6 -584.8,1035.6 		"/>
		<path class="st1" d="M-517.2,980.3c-9.5-9.2-24.7-15.2-41.7-15.2s-32.2,6-41.7,15.2c9.5-9.2,24.7-15.2,41.7-15.2
			S-526.7,971.1-517.2,980.3z"/>
		<path class="st1" d="M-611,1002.9c0-1.3,0.1-2.6,0.3-3.9C-610.9,1000.3-611,1001.6-611,1002.9z"/>
		<path class="st1" d="M-517.2,980.3c2,1.9,3.7,4,5.2,6.2C-513.4,984.3-515.2,982.2-517.2,980.3z"/>
		<path class="st1" d="M-610.7,999c0.2-1.3,0.4-2.5,0.8-3.7C-610.3,996.5-610.5,997.7-610.7,999z"/>
		<path class="st1" d="M-605.8,986.5c1.5-2.2,3.2-4.3,5.2-6.2C-602.6,982.2-604.4,984.3-605.8,986.5z"/>
		<path d="M-506.8,1002.9c0-1-0.1-2.1-0.2-3.1l0,0C-506.9,1000.8-506.8,1001.8-506.8,1002.9z"/>
		<path class="st0" d="M-435.2,1046.1v-22.5c0-13.2-10.7-23.9-23.9-23.9h-39.4c0.1,1,0.1,2.1,0.1,3.1c0,1.8-0.1,3.6-0.4,5.4h39.6
			c8.5,0,15.4,6.9,15.4,15.4v22.5c0,5.5-3,10.6-7.8,13.4l-3,1.7l3,9.7l-15.5-9.4h-48.3c-8.5,0-15.4-6.9-15.4-15.4v-2.3
			c-2.7,1.1-5.6,2-8.5,2.8c0.3,12.9,10.9,23.4,23.9,23.4h45.9l32.5,19.7l-7.6-24.7C-438.7,1060.5-435.2,1053.5-435.2,1046.1z"/>
		<path class="st0" d="M-598,1027.8c-1-0.8-2-1.7-2.9-2.6C-600,1026.1-599,1026.9-598,1027.8z"/>
		<path class="st0" d="M-600.9,1025.2c-1.8-1.8-3.4-3.7-4.8-5.7C-604.3,1021.5-602.7,1023.4-600.9,1025.2z"/>
		<path class="st0" d="M-569.2,1039.9c-2.2-0.3-4.4-0.8-6.5-1.3C-573.6,1039.1-571.4,1039.5-569.2,1039.9z"/>
		<path class="st0" d="M-606.6,1018c-1.2-2.1-2.2-4.2-3-6.4C-608.9,1013.8-607.9,1015.9-606.6,1018z"/>
		<path class="st0" d="M-584.8,1035.6c2.9,1.2,5.9,2.2,9,3C-578.9,1037.8-581.9,1036.8-584.8,1035.6L-584.8,1035.6z"/>
		<path class="st0" d="M-507,999.8c0-0.2,0-0.5-0.1-0.7c-0.2-1.3-0.4-2.5-0.8-3.7c-0.3-1.2-0.8-2.4-1.3-3.6
			c-0.5-1.2-1.1-2.3-1.8-3.5c-0.3-0.6-0.7-1.1-1-1.7c-1.5-2.2-3.2-4.3-5.2-6.2c-9.5-9.2-24.7-15.2-41.7-15.2s-32.2,6-41.7,15.2
			c-2,1.9-3.7,4-5.2,6.2c-0.4,0.5-0.7,1.1-1,1.7c-0.7,1.1-1.2,2.3-1.8,3.5c-0.5,1.2-0.9,2.4-1.3,3.6c-0.3,1.2-0.6,2.5-0.8,3.7
			c-0.2,1.3-0.3,2.6-0.3,3.9c0,3,0.5,5.9,1.4,8.7c0.7,2.2,1.7,4.4,3,6.4c0.3,0.5,0.6,1,1,1.5c1.4,2,3,3.9,4.8,5.7
			c0.9,0.9,1.9,1.8,2.9,2.6l-6.6,18.9l19.8-11c2.9,1.2,5.9,2.2,9,3c2.1,0.5,4.3,0.9,6.5,1.3c3.3,0.5,6.8,0.7,10.3,0.7
			c7,0,13.6-1,19.7-2.8c3-0.9,5.8-2,8.5-3.2c12.4-5.8,21.2-15.3,23.3-26.3c0.3-1.8,0.5-3.6,0.5-5.4
			C-506.8,1001.8-506.9,1000.8-507,999.8z M-590.5,1010c-3.1,0-5.7-2.5-5.7-5.7c0-3.1,2.5-5.7,5.7-5.7s5.7,2.5,5.7,5.7
			C-584.8,1007.4-587.3,1010-590.5,1010z M-569.3,1010c-3.1,0-5.7-2.5-5.7-5.7c0-3.1,2.5-5.7,5.7-5.7s5.7,2.5,5.7,5.7
			C-563.7,1007.4-566.2,1010-569.3,1010z M-548.2,1010c-3.1,0-5.7-2.5-5.7-5.7c0-3.1,2.5-5.7,5.7-5.7s5.7,2.5,5.7,5.7
			C-542.6,1007.4-545.1,1010-548.2,1010z M-527.1,1010c-3.1,0-5.7-2.5-5.7-5.7c0-3.1,2.5-5.7,5.7-5.7c3.1,0,5.7,2.5,5.7,5.7
			C-521.4,1007.4-524,1010-527.1,1010z"/>
		<g>
			<circle class="st0" cx="-483.4" cy="1033.9" r="5.7"/>
			<circle class="st0" cx="-504.6" cy="1033.9" r="5.7"/>
			<circle class="st0" cx="-462.3" cy="1033.9" r="5.7"/>
		</g>
	</g>
	<rect x="-623.1" y="927.4" class="st1" width="200" height="200"/>
</g>
<g>
	<g>
		<path class="st0" d="M-177,1090.2h-87.5c-2.3,0-4.3-1.9-4.3-4.3V969.7c0-2.3,1.9-4.3,4.3-4.3h104.9c2.3,0,4.3,1.9,4.3,4.3v96.9
			c0,1.1-0.4,2.1-1.1,2.8l-17.4,19.3C-174.6,1089.7-175.8,1090.2-177,1090.2z M-260.2,1081.7h81.3l15.1-16.7v-91h-96.4V1081.7z"/>
		<path class="st0" d="M-185.1,1079.4c-1.6,0-2.8-1.3-2.8-2.8v-16.1c0-1.6,1.3-2.8,2.8-2.8h15.6c1.6,0,2.8,1.3,2.8,2.8
			s-1.3,2.8-2.8,2.8h-12.7v13.2C-182.3,1078.2-183.6,1079.4-185.1,1079.4z"/>
		<g>
			<rect x="-246" y="987.7" class="st0" width="68" height="5.7"/>
			<rect x="-246" y="1004.3" class="st0" width="68" height="5.7"/>
			<rect x="-246" y="1020.9" class="st0" width="68" height="5.7"/>
			<rect x="-246" y="1037.5" class="st0" width="68" height="5.7"/>
		</g>
	</g>
	<rect x="-312" y="927.9" class="st1" width="200" height="200"/>
</g>
<g>
	<g>
		<path class="st0" d="M78.9,990.8c0.8,17.7,17.7,47.7,23.7,58.1c6,10.4,23.6,40,38.5,49.6c3.6,2.4,9.6,3.1,14.7,2
			c5-1,13.4-4.7,15.1-7.6c1.7-2.9,1.9-5.2,1.5-6.5c-0.7-2.6-3.2-7.4-6.7-12.2c-4-5.6-9.5-10.6-11.7-11.2c-2.2-0.6-4,0.8-5.3,1.9
			c-1.2,1.1-7.5,6.6-10.7,5.4c-3.3-1.1-17.6-21.6-22-29.2c-4.4-7.6-14.9-30.2-14.3-33.6c0.7-3.4,8.5-6,10.1-6.6
			c1.6-0.5,3.7-1.4,4.3-3.6c0.6-2.2-1-9.5-3.8-15.8c-2.5-5.4-5.4-10-7.3-11.9c-1-1-3-2-6.4-1.9c-3.3,0.1-10.7,5.4-14.1,9.3
			C81.1,981,78.7,986.5,78.9,990.8z"/>
	</g>
	<rect x="25.7" y="934.5" class="st1" width="200" height="200"/>
</g>
<g>
	<g>
		<path class="st0" d="M648.2,964.5c-3.4-0.9-6.9,1.1-7.8,4.5l-4.8,21.3c-3.2,3.5-6.8,6.9-9.8,9.6h-6.4c6.8-2.7,11.5-9.4,11.5-17.1
			c0-10.2-8.3-18.5-18.5-18.5c-10.2,0-18.5,8.3-18.5,18.5c0,7.7,4.8,14.4,11.5,17.1h-8.4c-2.3-0.1-4.6,1.1-5.8,3.3l-11.6,20.9
			c-0.4,0.7-0.7,1.5-0.8,2.3l-1,18.1c-0.4,3.5,0.8,6.7,4.3,7.1c0.3,0,0.5,0,0.8,0c3.2,0,5.3-2.4,5.7-5.6l2.8-16.9l3.5-5l-1.9,24.6
			l-4.8,12.8c-0.7,1.9-0.5,4,0.6,5.7l8.6,13.5c1.2,1.9,3.3,2.9,5.4,2.9c1.2,0,2.4-0.3,3.4-1c3-1.9,3.8-5.8,2-8.8l-5.9-9.2l10.3-13.2
			l5.9,34c0,3.5,2.8,6.4,6.4,6.4c3.5,0,6.4-2.8,6.4-6.4l1-34.4c0-0.2,0-0.4,0-0.7l-1.6-31.7c4.2-5.6,14.2-19.1,16.2-21.8
			c1.3-1.3,4.7-24.6,4.7-24.6C652.3,968.9,651.6,965.4,648.2,964.5z"/>
		<path class="st0" d="M573.3,1043.9l-2.2-15.8c-0.1-0.8-0.3-1.5-0.7-2.2l-12.1-17.9c-1.1-2-3.2-3.1-5.4-3h-6.6
			c6-2.5,10.2-8.4,10.2-15.3c0-9.1-7.4-16.6-16.6-16.6c-9.1,0-16.5,7.4-16.5,16.6c0,6.9,4.2,12.8,10.2,15.3h-4.8
			c-2.8-2.5-6.2-5.7-9.1-9l-4.5-19.8c-0.9-3.2-4.1-5-7.3-4.2c-3.2,0.8-3.8,4.1-3,7.3c0,0,3.2,21.7,4.4,22.9
			c2.3,3.1,15.9,21.4,16.8,22.5c0.1,0.1,0.2,0.1,0.2,0.2l-1.1,14.2l-7.1,26.2l7.7-0.6l0.6,21.2c0,3.3,2.7,5.9,5.9,5.9
			c3.3,0,5-2.7,5-5.9l2.1-22.2l2.5-0.2l-1.4,5.8c-0.7,1.7-0.5,3.7,0.5,5.3l8,12.6c1.1,1.8,3,2.7,5,2.7c1.1,0,1.4-0.3,2.4-0.9
			c2.8-1.8,2.3-5.4,0.5-8.2l-4.7-8.6l4.3-9.8l7.9-0.6l-8.5-19.1l-1.5-19.2l4.8,7.2l3.9,14.7c0.4,3,2.3,5.2,5.3,5.2
			c0.2,0,0.5,0,0.7,0C572.6,1050.1,573.7,1047.2,573.3,1043.9z"/>
	</g>
	<rect x="478.2" y="928" class="st1" width="200" height="200"/>
</g>
<g>
	<g>
		<path class="st0" d="M-382.1,1373.9c-0.1,0-0.1-0.1-0.2-0.1c-0.9-0.6-1.8-1.1-2.7-1.6c-0.2-0.1-0.3-0.2-0.5-0.3
			c-0.9-0.5-1.8-0.9-2.8-1.3c-0.2-0.1-0.4-0.2-0.6-0.2c-1-0.4-1.9-0.7-3-1.1c-0.1,0-0.2-0.1-0.3-0.1c-4-1.2-8.2-1.7-12.5-1.5
			c-0.3,0-0.7,0-1,0.1c-0.6,0-1.2,0-1.8,0.1c-6.5,0.8-12.7,3.4-17.9,7.5c-9.1,7.2-14.2,17.7-14.2,29.1c0,12.1,5,22.2,15.2,30.9
			c1.2,1,2.3,5,3,7.9c1.1,4.2,2.4,9.3,5.6,12.5c0.6,0.6,1.5,0.9,2.3,0.9h21.4c0.9,0,1.7-0.3,2.3-0.9c3.2-3.1,4.5-8.3,5.6-12.5
			c0.8-2.9,1.8-6.9,3-7.9c10.3-8.7,15.2-18.8,15.2-30.9c0-9.9-3.8-19.1-10.8-26.1C-378.2,1376.7-380.1,1375.2-382.1,1373.9z
			 M-387.1,1428.1c-3.5,3-4.8,7.9-6,12.7c-0.9,3.3-2.1,8.3-3.7,8.3h-11.6c-1.5,0-2.8-5-3.7-8.3c-1.2-4.8-2.5-9.8-6-12.7
			c-8.1-6.9-11.9-14.4-11.9-23.6c0-7.3,2.9-14.2,8-19.4c5.2-5.2,12.1-8,19.4-8c7.3,0,14.2,2.9,19.4,8c5.2,5.2,8,12.1,8,19.4
			C-375.2,1413.7-379,1421.2-387.1,1428.1z"/>
		<path class="st0" d="M-415.3,1465.9c0,4,2,9.9,5.6,9.9c3.6,0,10.1,0,14.2,0s5.5-5.6,5.6-9.5c0-0.1,0-0.2,0-0.3h0c0,0,0,0,0,0
			H-415.3L-415.3,1465.9z"/>
		<g>
			<path class="st0" d="M-402.6,1335.4c-2.6,0-4.8,2.1-4.8,4.8l1.2,14c0,1.9,1.6,3.5,3.6,3.5s3.5-1.6,3.6-3.5l1.2-13.9l0-0.1
				C-397.8,1337.5-400,1335.4-402.6,1335.4z"/>
			<path class="st0" d="M-446.2,1353.1L-446.2,1353.1c-0.3-0.3-0.5-0.4-0.6-0.5c-0.2-0.1-0.4-0.3-0.6-0.4c-0.4-0.2-0.7-0.4-1.1-0.5
				c-0.2,0-0.3-0.1-0.5-0.1c-0.4-0.1-0.9-0.1-1.3,0c-0.2,0-0.3,0.1-0.5,0.1c-0.4,0.1-0.8,0.3-1.1,0.5c-0.2,0.1-0.4,0.2-0.5,0.4
				c-0.1,0.1-0.3,0.2-0.5,0.4c-1.9,1.9-1.9,4.9,0,6.7l10.7,9c0.7,0.6,1.5,1,2.5,1c0,0,0,0,0,0c1,0,1.9-0.4,2.5-1
				c0.7-0.7,1-1.6,1-2.5c0-0.9-0.4-1.8-1-2.5L-446.2,1353.1z"/>
			<path class="st0" d="M-454.6,1395l-13.4-3.6l-0.1,0c-1.3-0.2-2.5,0.1-3.6,0.8c-1,0.7-1.7,1.8-2,3.1c-0.2,1.3,0.1,2.5,0.8,3.6
				c0.7,1,1.8,1.7,3.1,2l14,1.2c0.2,0,0.4,0,0.6,0c1.7,0,3.2-1.2,3.5-3C-451.4,1397.2-452.7,1395.4-454.6,1395z"/>
			<path class="st0" d="M-351.7,1359.8c0.9-0.9,1.4-2.1,1.4-3.4c0-1.3-0.5-2.5-1.4-3.4c-0.2-0.2-0.4-0.3-0.5-0.4
				c-0.2-0.1-0.3-0.2-0.5-0.3c-0.4-0.2-0.8-0.4-1.1-0.5c-0.2,0-0.3-0.1-0.5-0.1c-0.4-0.1-0.9-0.1-1.3,0c-0.2,0-0.4,0.1-0.5,0.1
				c-0.4,0.1-0.8,0.3-1.2,0.5c-0.2,0.1-0.4,0.2-0.5,0.4c-0.1,0.1-0.3,0.2-0.5,0.4l-9,10.7c-1.3,1.4-1.3,3.6,0,5c0.7,0.7,1.6,1,2.5,1
				c0.9,0,1.8-0.4,2.5-1L-351.7,1359.8L-351.7,1359.8z"/>
			<path class="st0" d="M-331.6,1395.3c-0.2-1.3-0.9-2.3-2-3.1c-1-0.7-2.3-1-3.6-0.8l-13.6,3.6c-1.9,0.4-3.2,2.2-2.8,4.1
				c0.3,1.7,1.8,3,3.5,3c0.2,0,0.4,0,0.6,0l13.8-1.2l0.1,0c1.3-0.2,2.3-0.9,3.1-2C-331.6,1397.8-331.3,1396.5-331.6,1395.3z"/>
		</g>
		<path class="st0" d="M-389.2,1462.1c0,0.8-0.6,1.4-1.4,1.4h-23.9c-0.8,0-1.4-0.6-1.4-1.4v-1.4c0-0.8,0.6-1.4,1.4-1.4h23.9
			c0.8,0,1.4,0.6,1.4,1.4V1462.1z"/>
	</g>
	<rect x="-502.6" y="1305.6" class="st1" width="200" height="200"/>
</g>
<g>
	<g>
		<rect x="174.6" y="1386.7" class="st0" width="36.4" height="36.4"/>
		<g>
			<path class="st0" d="M81.5,1423.1H34.4l23.5-40.8L81.5,1423.1z"/>
		</g>
		<path class="st0" d="M200.7,1428.1h-17.6c-4.3,0-8,3.1-8.6,7.4l-3.8,18.4l-18.4-27.1c-1.9-3.6-6-5.3-9.8-4.4
			c9.6-6.1,16-16.8,16-29c0-18.9-15.3-34.2-34.2-34.2c-18.9,0-34.2,15.3-34.2,34.2c0,12.2,6.4,23,16.1,29c-3.8-1-8,0.7-9.9,4.3
			l-18.4,27.1l-3.8-18.4c-0.7-4.3-4.3-7.4-8.6-7.4H47.8c-4.8,0-8.7,3.9-8.7,8.7c0,4.8,3.9,8.7,8.7,8.7h10.1l8.8,26.6
			c0.6,3.7,3.5,6.7,7.2,7.3c0.5,0.1,1,0.1,1.5,0.1c3.2,0,5.2-1.7,7.7-4.6l15.2-16.5l-2.3,28.3h56.6l-2.3-28.2l15.1,16.3
			c2.8,2.8,4.5,4.6,7.7,4.6c0.5,0,1,0,1.5-0.1c3.7-0.6,6.6-3.6,7.2-7.3l8.8-26.6h10.1c4.8,0,8.7-3.9,8.7-8.7
			C209.4,1432,205.5,1428.1,200.7,1428.1z M123.2,1438.7c-3.4,0-6-2.4-6-6c0-3.6,2.6-6,6-6c3.3,0,6,2.4,6,6
			C129.2,1436.3,126.5,1438.7,123.2,1438.7z M135.4,1405.2c-4.7,3.2-7.6,4.8-7.6,9.7v1.5c0,2.5-1.7,3.8-4.5,3.8
			c-2.8,0-4.6-1.3-4.6-3.8v-1.6c0-4.4,0.9-6.9,2.8-9.4c1.5-1.9,2.2-2.5,6.8-5.5c4.5-3.1,6-4.7,6-8c0-4.6-3.6-7.3-9.3-7.3
			c-5.5,0-8.4,2.7-10,7.1c-0.9,2.2-2.3,3-4.1,3c-0.7,0-1.4-0.1-2.2-0.4c-1.9-0.5-3.6-1.7-3.6-3.9c0-0.4,0.1-1,0.3-1.6
			c1.2-3.3,3.1-6.2,5.8-8.4c3.5-2.7,8-4.3,14.4-4.3c11.5,0,18.8,5.9,18.8,15.1C144.3,1398.4,140.4,1401.8,135.4,1405.2z"/>
	</g>
	<rect x="22.7" y="1323" class="st1" width="200" height="200"/>
</g>
<g>
	<g>
		<path class="st0" d="M664.5,1400.7c6.7-7.9,11-14.8,12.9-20.5c2.5-7.8,0.1-12.5-2.4-15l-0.2-0.2c-2.3-2.2-5.3-3.4-8.8-3.4
			c-1.9,0-4,0.4-6.2,1.1c-5.7,1.8-12.6,6.2-20.5,12.9c-5.5,4.6-10.7,9.9-15.6,15.5c-0.5,0.6-13.8,16.1-25.4,29.6
			c0.6,0.8,5.3,7.3,9.5,11.5c3.8,3.8,9.8,8.3,11.4,9.5c13.8-11.8,29.8-25.4,29.8-25.4C654.6,1411.4,659.8,1406.1,664.5,1400.7z"/>
		<path class="st0" d="M602.6,1437.5c-3.8-3.8-7.7-9-9.1-10.9c-6,7-11.6,13.4-12.1,13.9c-2.7,2.9,0,6.5,0.9,7.7
			c1.1,1.5,2.7,3.2,4.4,5c1.8,1.8,3.5,3.3,5,4.4c1,0.7,2.8,2.1,4.8,2.1c1.1,0,2.1-0.4,2.9-1.1c0.4-0.4,6.9-6.1,14-12.1
			C607.2,1442.1,607.1,1442,602.6,1437.5C602.6,1437.5,602.6,1437.5,602.6,1437.5z"/>
		<path class="st1" d="M569.1,1479c2.3-2.3,2.3-5.9,0-8.2c-2.3-2.3-5.9-2.3-8.2,0c-1.9,1.9-2.2,4.8-0.9,7l-16.1,16.8l1.4,1.4
			l16.8-16.1C564.4,1481.2,567.2,1480.9,569.1,1479z"/>
		<path class="st0" d="M560.1,1477.8c-1.3-2.2-1-5.1,0.9-7c2.3-2.3,5.9-2.3,8.2,0c2.3,2.3,2.3,5.9,0,8.2c-1.9,1.9-4.8,2.2-7,0.9
			l-16.8,16.1l1.7,1.7c6.5-2.9,16.5-6.5,26.9-6.6c3.2-7.2,7.9-16,15.8-24.8c0.9-1,1.9-2.1,2.9-3.1c0,0,0,0,0,0c0,0,0,0,0,0
			c-0.8-0.5-1.6-0.8-2.1-1.2c-1.9-1.5-4.5-3.3-6.9-5.7c-2.4-2.4-4.2-5-5.7-6.9c-0.3-0.4-0.6-1.1-1-1.8c0-0.1-0.1-0.1-0.1-0.2
			c0,0,0,0,0,0c0,0,0,0,0,0c-9.8,9.6-19.8,15.1-27.9,18.7c-0.4,10.1-3.9,20.2-6.8,26.8l1.8,1.8L560.1,1477.8z"/>
	</g>
	<rect x="510.3" y="1329.6" class="st1" width="200" height="200"/>
</g>
<g>
	<g>
		<path class="st0" d="M-371.1,1719.9h-20.8v-9.2h14l-7.1-18.2h-86.1l-7.1,18.2h15.7v9.2H-485c-1.5,0-2.9-0.8-3.8-2
			c-0.9-1.3-1-2.9-0.5-4.3l10.7-27.5c0.7-1.8,2.4-2.9,4.3-2.9h92.4c1.9,0,3.6,1.2,4.3,2.9l10.7,27.5c0.6,1.4,0.4,3-0.5,4.3
			C-368.2,1719.2-369.6,1719.9-371.1,1719.9z"/>
		<path class="st0" d="M-389.8,1746.1h-76.5v-46.9h76.5V1746.1z M-460.7,1740.4h65.2v-35.6h-65.2V1740.4z"/>
		<path class="st0" d="M-371.1,1838.5H-485c-2.5,0-4.6-2.1-4.6-4.6v-116.6c0-2,1.3-3.8,3.3-4.4c1.9-0.6,4,0.2,5.2,1.8l16.1,24h74.1
			l16.1-24c1.1-1.7,3.2-2.4,5.2-1.8c1.9,0.6,3.3,2.4,3.3,4.4v116.6C-366.5,1836.4-368.6,1838.5-371.1,1838.5z M-480.4,1829.3h104.7
			v-96.8l-9,13.5c-0.9,1.3-2.3,2-3.8,2h-79c-1.5,0-3-0.8-3.8-2l-9-13.5V1829.3z"/>
		<g>
			<path class="st0" d="M-462.9,1802.4l-3.5,8.7h-13.8l19.2-50h14.2l18.8,50h-13.9l-3.3-8.7H-462.9z M-453.8,1776.5h-0.1l-5.4,15.9
				h10.8L-453.8,1776.5z"/>
			<path class="st0" d="M-376.3,1785.2c0,16.2-11.6,27.6-27.7,27.6c-16.1,0-27.7-11.4-27.7-27.6c0-15.1,13.3-25.7,27.7-25.7
				S-376.3,1770-376.3,1785.2z M-418.1,1785.2c0,8.6,6.4,14.9,14.1,14.9c7.8,0,14.1-6.3,14.1-14.9c0-6.9-6.4-13.2-14.1-13.2
				C-411.7,1772-418.1,1778.3-418.1,1785.2z"/>
		</g>
		<g>
			<rect x="-453.2" y="1711.4" class="st0" width="51" height="4.3"/>
			<rect x="-453.2" y="1720.1" class="st0" width="51" height="4.3"/>
			<rect x="-453.2" y="1728.9" class="st0" width="51" height="4.3"/>
		</g>
	</g>
	<rect x="-528.1" y="1660.9" class="st1" width="200" height="200"/>
</g>
<g>
	<g>
		<rect x="-91.5" y="1652.8" class="st1" width="200" height="200"/>
		<g>
			<path class="st0" d="M7.7,1778.7c-4.2-1.4-6.6,2.9-6.9,3.6c-0.2,0.7-5.1,11.5-5.1,11.5l-9.1-12.2c-1.2-2.3-4.1-3.9-7.1-3.9
				l-2.3-0.1c6-2.7,10.2-8.7,10.2-15.7c0-9.5-7.7-17.2-17.2-17.2c-9.5,0-17.2,7.7-17.2,17.2c0,6.6,3.7,12.4,9.2,15.2l-2.5-0.1
				c0,0-30.2-24.2-31-24.7c-0.8-0.5-4.1-2.1-6.6,0.8c-2.1,2.5-0.8,6.5,0.9,7.8c0.8,0.6,32.1,31.3,32.1,31.3l-2.6,19.7h15.8h1.5h15.8
				l-1.2-12.5l8.2,6.2c2.1,2.1,4.9,2.1,6.3,1.7c1.9-0.6,2.8-2.1,4.1-5.2c0,0,7.6-16.1,8-17.1C11.2,1783.8,11.7,1780,7.7,1778.7z"/>
			<path class="st0" d="M75.8,1693.8H14c-11.9,0-21.6,9.7-21.6,21.6v24.7c0,6.5,2.9,12.4,7.6,16.4l-5.2,15.1l17.8-9.9
				c0.5,0,1,0.1,1.4,0.1h61.8c11.9,0,21.6-9.7,21.6-21.6v-24.7C97.4,1703.5,87.6,1693.8,75.8,1693.8z"/>
			<g>
				<path class="st0" d="M35.8,1804.9c-1.3,0-2.4-0.9-2.7-2.1c-3.2-12.7-9.6-12.9-9.9-12.9c-1.5,0.1-2.7-1.1-2.8-2.6
					c-0.1-1.5,1-2.8,2.5-3c6.1-0.6,8.5-6.2,10-11.6c0.1-0.4,0.2-0.8,0.3-1.1c0.4-1.1,1.4-1.9,2.6-1.9c1.2,0,2.3,0.7,2.7,1.8
					c0.2,0.6,0.4,1.4,0.6,2.3c0.9,3.6,2.3,9.1,7.5,10.7c1.1,0.4,1.9,1.4,1.9,2.6c0,1.2-0.7,2.3-1.8,2.7c-6.5,2.3-8.1,12.5-8.1,12.6
					c-0.2,1.3-1.3,2.3-2.6,2.4C35.9,1804.9,35.8,1804.9,35.8,1804.9z M30.5,1787.3c1.7,1.4,3.5,3.4,5.1,6.4c1.1-2.2,2.5-4.4,4.5-6.2
					c-2.2-1.8-3.6-4-4.6-6.2C34.4,1783.4,32.8,1785.7,30.5,1787.3z"/>
			</g>
			<g>
				<path class="st0" d="M-59.3,1748.2c-1.4,0-2.6-0.9-2.9-2.3c-4.7-18.8-14.5-18.9-14.9-18.9c-1.6,0.1-3-1.2-3.1-2.8
					c-0.1-1.6,1.1-3,2.7-3.2c10.4-1,13.6-12.3,14.9-17.1c0.2-0.6,0.3-1.1,0.4-1.5c0.4-1.2,1.5-2.1,2.8-2.1c0,0,0,0,0.1,0
					c1.3,0,2.4,0.8,2.8,2c0.3,0.8,0.6,1.9,0.9,3.1c1.3,5.3,3.4,13.4,11.2,15.9c1.2,0.4,2.1,1.5,2.1,2.8c0,1.3-0.8,2.5-2,2.9
					c-9.8,3.4-12,18.4-12,18.6c-0.2,1.4-1.4,2.5-2.8,2.6C-59.2,1748.2-59.3,1748.2-59.3,1748.2z M-68.4,1724.1
					c3,2.1,6.2,5.5,8.8,11.2c1.6-3.8,4.1-8,7.9-11c-4.1-2.9-6.4-7.1-7.9-11C-61.3,1717.2-64.1,1721.4-68.4,1724.1z"/>
			</g>
		</g>
	</g>
	<rect x="-91.5" y="1652.8" class="st1" width="200" height="200"/>
</g>
<g>
	<g>
		<path class="st0" d="M56.5,23.2H42.3c-0.5,0-0.9-0.4-0.9-0.9V10.2c0-0.5-0.4-0.9-0.9-0.9H19.4c-0.5,0-0.9,0.4-0.9,0.9v12.1
			c0,0.5-0.4,0.9-0.9,0.9H3.5c-0.5,0-0.9,0.4-0.9,0.9v25.8c0,0.5,0.4,0.9,0.9,0.9H21c0.5,0,0.9-0.4,0.9-0.9v-8.5
			c0-0.5,0.4-0.9,0.9-0.9h14.8c0.5,0,0.9,0.4,0.9,0.9v8.5c0,0.5,0.4,0.9,0.9,0.9h17.4c0.5,0,0.9-0.4,0.9-0.9V24
			C57.4,23.5,57,23.2,56.5,23.2z M11,44.4H6.8v-6.1H11V44.4z M11,34H6.8v-6.1H11V34z M16.6,44.4h-4.3v-6.1h4.3V44.4z M16.6,34h-4.3
			v-6.1h4.3V34z M29.3,34h-4.3v-6.1h4.3V34z M34.9,34h-4.3v-6.1h4.3V34z M30,24.9c-3.6,0-6.6-3-6.6-6.6c0-3.6,3-6.6,6.6-6.6
			c3.6,0,6.6,3,6.6,6.6C36.6,21.9,33.6,24.9,30,24.9z M47.9,44.4h-4.3v-6.1h4.3V44.4z M47.9,34h-4.3v-6.1h4.3V34z M53.5,44.4h-4.3
			v-6.1h4.3V44.4z M53.5,34h-4.3v-6.1h4.3V34z"/>
		<polygon class="st0" points="29.9,20.2 25.5,17.3 26.6,15.7 29.7,17.8 33.7,14.3 35,15.8 		"/>
	</g>
	<rect class="st1" width="60" height="60"/>
</g>
</svg>
