<?xml version="1.0" encoding="utf-8"?>
<!-- Generator: Adobe Illustrator 21.0.2, SVG Export Plug-In . SVG Version: 6.00 Build 0)  -->
<!DOCTYPE svg PUBLIC "-//W3C//DTD SVG 1.1//EN" "http://www.w3.org/Graphics/SVG/1.1/DTD/svg11.dtd">
<svg version="1.1" id="レイヤー_1" xmlns="http://www.w3.org/2000/svg" xmlns:xlink="http://www.w3.org/1999/xlink" x="0px"
	 y="0px" viewBox="0 0 67.9 67.9" style="enable-background:new 0 0 67.9 67.9;" xml:space="preserve">
<style type="text/css">
	.st0{fill:#2854A1;}
	.st1{opacity:0.19;}
	.st2{clip-path:url(#SVGID_2_);}
	.st3{clip-path:url(#SVGID_4_);}
	.st4{fill:#FFFFFF;}
	.st5{fill:none;stroke:#FFFFFF;stroke-width:0.8717;stroke-miterlimit:10;}
	.st6{fill:none;stroke:#FFFFFF;stroke-width:1.3787;stroke-linecap:round;stroke-linejoin:round;stroke-miterlimit:10;}
	.st7{fill:none;stroke:#FFFFFF;stroke-width:1.25;stroke-linecap:round;stroke-linejoin:round;stroke-miterlimit:10;}
	.st8{fill:none;stroke:#FFFFFF;stroke-width:1.5158;stroke-linecap:round;stroke-linejoin:round;stroke-miterlimit:10;}
	.st9{fill:none;stroke:#FFFFFF;stroke-width:1.1729;stroke-linecap:round;stroke-linejoin:round;stroke-miterlimit:10;}
	.st10{fill:none;stroke:#FFFFFF;stroke-width:1.3;stroke-miterlimit:10;}
	.st11{fill:none;stroke:#FFFFFF;stroke-miterlimit:10;}
	.st12{fill:none;stroke:#000000;stroke-width:0.246;stroke-miterlimit:10;}
	.st13{fill:none;stroke:#FFFFFF;stroke-width:9.086470e-02;stroke-linecap:round;stroke-linejoin:round;}
	.st14{fill:none;stroke:#FFFFFF;stroke-width:0.2044;stroke-linecap:round;stroke-linejoin:round;}
	.st15{fill:none;stroke:#FFFFFF;stroke-width:0.492;stroke-miterlimit:10;}
	.st16{fill:none;stroke:#FFFFFF;stroke-linecap:round;stroke-miterlimit:10;}
	.st17{fill:none;stroke:#FFFFFF;stroke-width:0.5814;stroke-linecap:round;stroke-miterlimit:10;}
	.st18{fill:none;stroke:#FFFFFF;stroke-linecap:round;stroke-linejoin:bevel;stroke-miterlimit:10;}
</style>
<g>
	<circle class="st5" cx="33.9" cy="33.9" r="33.5"/>
	<g>
		<line class="st6" x1="28.7" y1="51.7" x2="39.7" y2="51.7"/>
		<line class="st6" x1="34.2" y1="24.2" x2="34.2" y2="51.7"/>
		<circle class="st6" cx="34.1" cy="21.4" r="2.8"/>
		<g>
			<path class="st6" d="M19.4,35c3.7,0,6.6-3,6.6-6.6H12.8C12.8,32,15.8,35,19.4,35z"/>
			<path class="st6" d="M49.2,35.4c3.7,0,6.6-3,6.6-6.6H42.6C42.6,32.4,45.5,35.4,49.2,35.4z"/>
			<line class="st6" x1="26" y1="28.4" x2="19.6" y2="21.1"/>
			<polyline class="st6" points="31.3,21.1 19.6,21.1 12.8,28.4 			"/>
			<polyline class="st6" points="42.6,28.8 49.2,21.1 36.8,21.1 			"/>
			<line class="st6" x1="55.8" y1="28.8" x2="49.2" y2="21.1"/>
		</g>
	</g>
</g>
</svg>
