<?xml version="1.0" encoding="utf-8"?>
<!-- Generator: Adobe Illustrator 24.3.0, SVG Export Plug-In . SVG Version: 6.00 Build 0)  -->
<svg version="1.1" id="レイヤー_1" xmlns="http://www.w3.org/2000/svg" xmlns:xlink="http://www.w3.org/1999/xlink" x="0px"
	 y="0px" viewBox="0 0 60 60" style="enable-background:new 0 0 60 60;" xml:space="preserve">
<style type="text/css">
	.st0{fill:#FFFFFF;}
	.st1{fill:none;}
</style>
<g>
	<path class="st0" d="M2261.9,292.5c0.8,17.7,17.7,47.7,23.7,58.1c6,10.4,23.6,40,38.5,49.6c3.6,2.4,9.6,3.1,14.7,2
		c5-1,13.4-4.7,15.1-7.6c1.7-2.9,1.9-5.2,1.5-6.5c-0.7-2.6-3.2-7.4-6.7-12.2c-4-5.6-9.5-10.6-11.7-11.2c-2.2-0.6-4,0.8-5.3,1.9
		c-1.2,1.1-7.5,6.6-10.7,5.4c-3.3-1.1-17.6-21.6-22-29.2c-4.4-7.6-14.9-30.2-14.3-33.6c0.7-3.4,8.5-6,10.1-6.6
		c1.6-0.5,3.7-1.4,4.3-3.6c0.6-2.2-1-9.5-3.8-15.8c-2.5-5.4-5.4-10-7.3-11.9c-1-1-3-2-6.4-1.9c-3.3,0.1-10.7,5.4-14.1,9.3
		C2264.1,282.6,2261.6,288.1,2261.9,292.5z"/>
</g>
<g>
	<g>
		<path class="st0" d="M2764.9,1041.4h-47.6c-1.6,0-2.8-1.3-2.8-2.8v-40.3c0-1.6-1.3-2.8-2.8-2.8h-70.4c-1.6,0-2.8,1.3-2.8,2.8v40.3
			c0,1.6-1.3,2.8-2.8,2.8h-47.6c-1.6,0-2.8,1.3-2.8,2.8v85.9c0,1.6,1.3,2.8,2.8,2.8h58.5c1.6,0,2.8-1.3,2.8-2.8v-28.5
			c0-1.6,1.3-2.8,2.8-2.8h49.2c1.6,0,2.8,1.3,2.8,2.8v28.5c0,1.6,1.3,2.8,2.8,2.8h58c1.6,0,2.8-1.3,2.8-2.8v-85.9
			C2767.7,1042.7,2766.4,1041.4,2764.9,1041.4z M2613.1,1112.1h-14.2v-20.2h14.2V1112.1z M2613.1,1077.4h-14.2v-20.2h14.2V1077.4z
			 M2631.8,1112.1h-14.2v-20.2h14.2V1112.1z M2631.8,1077.4h-14.2v-20.2h14.2V1077.4z M2674.2,1077.4H2660v-20.2h14.2V1077.4z
			 M2692.9,1077.4h-14.2v-20.2h14.2V1077.4z M2676.4,1047.1c-12.1,0-22-9.9-22-22c0-12.1,9.9-22,22-22c12.1,0,22,9.9,22,22
			C2698.4,1037.2,2688.5,1047.1,2676.4,1047.1z M2736,1112.1h-14.2v-20.2h14.2V1112.1z M2736,1077.4h-14.2v-20.2h14.2V1077.4z
			 M2754.7,1112.1h-14.2v-20.2h14.2V1112.1z M2754.7,1077.4h-14.2v-20.2h14.2V1077.4z"/>
		<polygon class="st0" points="2676.1,1031.6 2661.5,1021.8 2665.2,1016.4 2675.6,1023.5 2688.7,1011.9 2693,1016.7 		"/>
	</g>
	<rect x="2576.4" y="964.2" class="st1" width="200" height="200"/>
</g>
<g>
	<g>
		<path class="st1" d="M1675.1,296.9c0.3,1.2,0.6,2.5,0.8,3.7C1675.7,299.3,1675.4,298.1,1675.1,296.9z"/>
		<path class="st1" d="M1672,289.8c0.7,1.1,1.2,2.3,1.8,3.5C1673.3,292.1,1672.7,290.9,1672,289.8z"/>
		<path class="st1" d="M1574.3,293.3c0.5-1.2,1.1-2.3,1.8-3.5C1575.4,290.9,1574.8,292.1,1574.3,293.3z"/>
		<path class="st1" d="M1675.9,301.4c0-0.2,0-0.5-0.1-0.7C1675.9,300.9,1675.9,301.1,1675.9,301.4L1675.9,301.4z"/>
		<polygon class="st1" points="1578.4,348.2 1598.2,337.2 1598.2,337.2 		"/>
		<path class="st1" d="M1665.8,281.9c-9.5-9.2-24.7-15.2-41.7-15.2s-32.2,6-41.7,15.2c9.5-9.2,24.7-15.2,41.7-15.2
			S1656.3,272.7,1665.8,281.9z"/>
		<path class="st1" d="M1572,304.5c0-1.3,0.1-2.6,0.3-3.9C1572.1,301.9,1572,303.2,1572,304.5z"/>
		<path class="st1" d="M1665.8,281.9c2,1.9,3.7,4,5.2,6.2C1669.5,285.9,1667.8,283.8,1665.8,281.9z"/>
		<path class="st1" d="M1572.2,300.6c0.2-1.3,0.4-2.5,0.8-3.7C1572.7,298.1,1572.4,299.3,1572.2,300.6z"/>
		<path class="st1" d="M1577.1,288.1c1.5-2.2,3.2-4.3,5.2-6.2C1580.3,283.8,1578.6,285.9,1577.1,288.1z"/>
		<path d="M1676.1,304.5c0-1-0.1-2.1-0.2-3.1l0,0C1676.1,302.4,1676.1,303.4,1676.1,304.5z"/>
		<path class="st0" d="M1747.8,347.7v-22.5c0-13.2-10.7-23.9-23.9-23.9h-39.4c0.1,1,0.1,2.1,0.1,3.1c0,1.8-0.1,3.6-0.4,5.4h39.6
			c8.5,0,15.4,6.9,15.4,15.4v22.5c0,5.5-3,10.6-7.8,13.4l-3,1.7l3,9.7l-15.5-9.4h-48.3c-8.5,0-15.4-6.9-15.4-15.4v-2.3
			c-2.7,1.1-5.6,2-8.5,2.8c0.3,12.9,10.9,23.4,23.9,23.4h45.9l32.5,19.7l-7.6-24.7C1744.3,362.1,1747.8,355.1,1747.8,347.7z"/>
		<path class="st0" d="M1584.9,329.4c-1-0.8-2-1.7-2.9-2.6C1583,327.7,1583.9,328.5,1584.9,329.4z"/>
		<path class="st0" d="M1582.1,326.8c-1.8-1.8-3.4-3.7-4.8-5.7C1578.7,323.1,1580.2,325,1582.1,326.8z"/>
		<path class="st0" d="M1613.7,341.5c-2.2-0.3-4.4-0.8-6.5-1.3C1609.4,340.7,1611.5,341.1,1613.7,341.5z"/>
		<path class="st0" d="M1576.3,319.6c-1.2-2.1-2.2-4.2-3-6.4C1574.1,315.4,1575.1,317.5,1576.3,319.6z"/>
		<path class="st0" d="M1598.2,337.2c2.9,1.2,5.9,2.2,9,3C1604.1,339.4,1601.1,338.4,1598.2,337.2L1598.2,337.2z"/>
		<path class="st0" d="M1675.9,301.4c0-0.2,0-0.5-0.1-0.7c-0.2-1.3-0.4-2.5-0.8-3.7c-0.3-1.2-0.8-2.4-1.3-3.6
			c-0.5-1.2-1.1-2.3-1.8-3.5c-0.3-0.6-0.7-1.1-1-1.7c-1.5-2.2-3.2-4.3-5.2-6.2c-9.5-9.2-24.7-15.2-41.7-15.2s-32.2,6-41.7,15.2
			c-2,1.9-3.7,4-5.2,6.2c-0.4,0.5-0.7,1.1-1,1.7c-0.7,1.1-1.2,2.3-1.8,3.5c-0.5,1.2-0.9,2.4-1.3,3.6c-0.3,1.2-0.6,2.5-0.8,3.7
			c-0.2,1.3-0.3,2.6-0.3,3.9c0,3,0.5,5.9,1.4,8.7c0.7,2.2,1.7,4.4,3,6.4c0.3,0.5,0.6,1,1,1.5c1.4,2,3,3.9,4.8,5.7
			c0.9,0.9,1.9,1.8,2.9,2.6l-6.6,18.9l19.8-11c2.9,1.2,5.9,2.2,9,3c2.1,0.5,4.3,0.9,6.5,1.3c3.3,0.5,6.8,0.7,10.3,0.7
			c7,0,13.6-1,19.7-2.8c3-0.9,5.8-2,8.5-3.2c12.4-5.8,21.2-15.3,23.3-26.3c0.3-1.8,0.5-3.6,0.5-5.4
			C1676.1,303.4,1676.1,302.4,1675.9,301.4z M1592.5,311.6c-3.1,0-5.7-2.5-5.7-5.7c0-3.1,2.5-5.7,5.7-5.7s5.7,2.5,5.7,5.7
			C1598.2,309,1595.6,311.6,1592.5,311.6z M1613.6,311.6c-3.1,0-5.7-2.5-5.7-5.7c0-3.1,2.5-5.7,5.7-5.7s5.7,2.5,5.7,5.7
			C1619.3,309,1616.7,311.6,1613.6,311.6z M1634.7,311.6c-3.1,0-5.7-2.5-5.7-5.7c0-3.1,2.5-5.7,5.7-5.7s5.7,2.5,5.7,5.7
			C1640.4,309,1637.9,311.6,1634.7,311.6z M1655.9,311.6c-3.1,0-5.7-2.5-5.7-5.7c0-3.1,2.5-5.7,5.7-5.7c3.1,0,5.7,2.5,5.7,5.7
			C1661.5,309,1659,311.6,1655.9,311.6z"/>
		<g>
			<circle class="st0" cx="1699.5" cy="335.5" r="5.7"/>
			<circle class="st0" cx="1678.4" cy="335.5" r="5.7"/>
			<circle class="st0" cx="1720.6" cy="335.5" r="5.7"/>
		</g>
	</g>
	<rect x="1559.9" y="229" class="st1" width="200" height="200"/>
</g>
<g>
	<g>
		<path class="st0" d="M2006,391.8h-87.5c-2.3,0-4.3-1.9-4.3-4.3V271.4c0-2.3,1.9-4.3,4.3-4.3h104.9c2.3,0,4.3,1.9,4.3,4.3v96.9
			c0,1.1-0.4,2.1-1.1,2.8l-17.4,19.3C2008.4,391.3,2007.2,391.8,2006,391.8z M1922.8,383.3h81.3l15.1-16.7v-91h-96.4V383.3z"/>
		<path class="st0" d="M1997.8,381c-1.6,0-2.8-1.3-2.8-2.8v-16.1c0-1.6,1.3-2.8,2.8-2.8h15.6c1.6,0,2.8,1.3,2.8,2.8
			s-1.3,2.8-2.8,2.8h-12.7v13.2C2000.7,379.8,1999.4,381,1997.8,381z"/>
		<g>
			<rect x="1937" y="289.3" class="st0" width="68" height="5.7"/>
			<rect x="1937" y="305.9" class="st0" width="68" height="5.7"/>
			<rect x="1937" y="322.5" class="st0" width="68" height="5.7"/>
			<rect x="1937" y="339.1" class="st0" width="68" height="5.7"/>
		</g>
	</g>
	<rect x="1871" y="229.5" class="st1" width="200" height="200"/>
</g>
<rect x="2208.7" y="236.1" class="st1" width="200" height="200"/>
<g>
	<g>
		<path class="st0" d="M2831.2,266.1c-3.4-0.9-6.9,1.1-7.8,4.5l-4.8,21.3c-3.2,3.5-6.8,6.9-9.8,9.6h-6.4c6.8-2.7,11.5-9.4,11.5-17.1
			c0-10.2-8.3-18.5-18.5-18.5c-10.2,0-18.5,8.3-18.5,18.5c0,7.7,4.8,14.4,11.5,17.1h-8.4c-2.3-0.1-4.6,1.1-5.8,3.3l-11.6,20.9
			c-0.4,0.7-0.7,1.5-0.8,2.3l-1,18.1c-0.4,3.5,0.8,6.7,4.3,7.1c0.3,0,0.5,0,0.8,0c3.2,0,5.3-2.4,5.7-5.6l2.8-16.9l3.5-5l-1.9,24.6
			l-4.8,12.8c-0.7,1.9-0.5,4,0.6,5.7l8.6,13.5c1.2,1.9,3.3,2.9,5.4,2.9c1.2,0,2.4-0.3,3.4-1c3-1.9,3.8-5.8,2-8.8l-5.9-9.2l10.3-13.2
			l5.9,34c0,3.5,2.8,6.4,6.4,6.4s6.4-2.8,6.4-6.4l1-34.4c0-0.2,0-0.4,0-0.7l-1.6-31.7c4.2-5.6,14.2-19.1,16.2-21.8
			c1.3-1.3,4.7-24.6,4.7-24.6C2835.3,270.5,2834.6,267,2831.2,266.1z"/>
		<path class="st0" d="M2756.3,345.5l-2.2-15.8c-0.1-0.8-0.3-1.5-0.7-2.2l-12.1-17.9c-1.1-2-3.2-3.1-5.4-3h-6.6
			c6-2.5,10.2-8.4,10.2-15.3c0-9.1-7.4-16.6-16.6-16.6c-9.1,0-16.5,7.4-16.5,16.6c0,6.9,4.2,12.8,10.2,15.3h-4.8
			c-2.8-2.5-6.2-5.7-9.1-9l-4.5-19.8c-0.9-3.2-4.1-5-7.3-4.2c-3.2,0.8-3.8,4.1-3,7.3c0,0,3.2,21.7,4.4,22.9
			c2.3,3.1,15.9,21.4,16.8,22.5c0.1,0.1,0.2,0.1,0.2,0.2l-1.1,14.2l-7.1,26.2l7.7-0.6l0.6,21.2c0,3.3,2.7,5.9,5.9,5.9s5-2.7,5-5.9
			l2.1-22.2l2.5-0.2l-1.4,5.8c-0.7,1.7-0.5,3.7,0.5,5.3l8,12.6c1.1,1.8,3,2.7,5,2.7c1.1,0,1.4-0.3,2.4-0.9c2.8-1.8,2.3-5.4,0.5-8.2
			l-4.7-8.6l4.3-9.8l7.9-0.6l-8.5-19.1l-1.5-19.2l4.8,7.2l3.9,14.7c0.4,3,2.3,5.2,5.3,5.2c0.2,0,0.5,0,0.7,0
			C2755.5,351.7,2756.7,348.8,2756.3,345.5z"/>
	</g>
	<rect x="2661.1" y="229.7" class="st1" width="200" height="200"/>
</g>
<g>
	<g>
		<path class="st0" d="M1800.9,675.5c-0.1,0-0.1-0.1-0.2-0.1c-0.9-0.6-1.8-1.1-2.7-1.6c-0.2-0.1-0.3-0.2-0.5-0.3
			c-0.9-0.5-1.8-0.9-2.8-1.3c-0.2-0.1-0.4-0.2-0.6-0.2c-1-0.4-1.9-0.7-3-1.1c-0.1,0-0.2-0.1-0.3-0.1c-4-1.2-8.2-1.7-12.5-1.5
			c-0.3,0-0.7,0-1,0.1c-0.6,0-1.2,0-1.8,0.1c-6.5,0.8-12.7,3.4-17.9,7.5c-9.1,7.2-14.2,17.7-14.2,29.1c0,12.1,5,22.2,15.2,30.9
			c1.2,1,2.3,5,3,7.9c1.1,4.2,2.4,9.3,5.6,12.5c0.6,0.6,1.5,0.9,2.3,0.9h21.4c0.9,0,1.7-0.3,2.3-0.9c3.2-3.1,4.5-8.3,5.6-12.5
			c0.8-2.9,1.8-6.9,3-7.9c10.3-8.7,15.2-18.8,15.2-30.9c0-9.9-3.8-19.1-10.8-26.1C1804.7,678.3,1802.9,676.8,1800.9,675.5z
			 M1795.9,729.7c-3.5,3-4.8,7.9-6,12.7c-0.9,3.3-2.1,8.3-3.7,8.3h-11.6c-1.5,0-2.8-5-3.7-8.3c-1.2-4.8-2.5-9.8-6-12.7
			c-8.1-6.9-11.9-14.4-11.9-23.6c0-7.3,2.9-14.2,8-19.4c5.2-5.2,12.1-8,19.4-8c7.3,0,14.2,2.9,19.4,8c5.2,5.2,8,12.1,8,19.4
			C1807.8,715.3,1804,722.8,1795.9,729.7z"/>
		<path class="st0" d="M1767.7,767.5c0,4,2,9.9,5.6,9.9c3.6,0,10.1,0,14.2,0s5.5-5.6,5.6-9.5c0-0.1,0-0.2,0-0.3h0c0,0,0,0,0,0
			H1767.7L1767.7,767.5z"/>
		<g>
			<path class="st0" d="M1780.3,637c-2.6,0-4.8,2.1-4.8,4.8l1.2,14c0,1.9,1.6,3.5,3.6,3.5s3.5-1.6,3.6-3.5l1.2-13.9l0-0.1
				C1785.1,639.1,1783,637,1780.3,637z"/>
			<path class="st0" d="M1736.8,654.7L1736.8,654.7c-0.3-0.3-0.5-0.4-0.6-0.5c-0.2-0.1-0.4-0.3-0.6-0.4c-0.4-0.2-0.7-0.4-1.1-0.5
				c-0.2,0-0.3-0.1-0.5-0.1c-0.4-0.1-0.9-0.1-1.3,0c-0.2,0-0.3,0.1-0.5,0.1c-0.4,0.1-0.8,0.3-1.1,0.5c-0.2,0.1-0.4,0.2-0.5,0.4
				c-0.1,0.1-0.3,0.2-0.5,0.4c-1.9,1.9-1.9,4.9,0,6.7l10.7,9c0.7,0.6,1.5,1,2.5,1c0,0,0,0,0,0c1,0,1.9-0.4,2.5-1
				c0.7-0.7,1-1.6,1-2.5c0-0.9-0.4-1.8-1-2.5L1736.8,654.7z"/>
			<path class="st0" d="M1728.4,696.6l-13.4-3.6l-0.1,0c-1.3-0.2-2.5,0.1-3.6,0.8c-1,0.7-1.7,1.8-2,3.1c-0.2,1.3,0.1,2.5,0.8,3.6
				c0.7,1,1.8,1.7,3.1,2l14,1.2c0.2,0,0.4,0,0.6,0c1.7,0,3.2-1.2,3.5-3C1731.5,698.8,1730.3,697,1728.4,696.6z"/>
			<path class="st0" d="M1831.2,661.4c0.9-0.9,1.4-2.1,1.4-3.4c0-1.3-0.5-2.5-1.4-3.4c-0.2-0.2-0.4-0.3-0.5-0.4
				c-0.2-0.1-0.3-0.2-0.5-0.3c-0.4-0.2-0.8-0.4-1.1-0.5c-0.2,0-0.3-0.1-0.5-0.1c-0.4-0.1-0.9-0.1-1.3,0c-0.2,0-0.4,0.1-0.5,0.1
				c-0.4,0.1-0.8,0.3-1.2,0.5c-0.2,0.1-0.4,0.2-0.5,0.4c-0.1,0.1-0.3,0.2-0.5,0.4l-9,10.7c-1.3,1.4-1.3,3.6,0,5c0.7,0.7,1.6,1,2.5,1
				c0.9,0,1.8-0.4,2.5-1L1831.2,661.4L1831.2,661.4z"/>
			<path class="st0" d="M1851.4,696.9c-0.2-1.3-0.9-2.3-2-3.1c-1-0.7-2.3-1-3.6-0.8l-13.6,3.6c-1.9,0.4-3.2,2.2-2.8,4.1
				c0.3,1.7,1.8,3,3.5,3c0.2,0,0.4,0,0.6,0l13.8-1.2l0.1,0c1.3-0.2,2.3-0.9,3.1-2C1851.3,699.4,1851.6,698.1,1851.4,696.9z"/>
		</g>
		<path class="st0" d="M1793.7,763.7c0,0.8-0.6,1.4-1.4,1.4h-23.9c-0.8,0-1.4-0.6-1.4-1.4v-1.4c0-0.8,0.6-1.4,1.4-1.4h23.9
			c0.8,0,1.4,0.6,1.4,1.4V763.7z"/>
	</g>
	<rect x="1680.3" y="607.2" class="st1" width="200" height="200"/>
</g>
<g>
	<g>
		<rect x="2357.6" y="688.3" class="st0" width="36.4" height="36.4"/>
		<g>
			<path class="st0" d="M2264.5,724.7h-47.1l23.5-40.8L2264.5,724.7z"/>
		</g>
		<path class="st0" d="M2383.7,729.7h-17.6c-4.3,0-8,3.1-8.6,7.4l-3.8,18.4l-18.4-27.1c-1.9-3.6-6-5.3-9.8-4.4
			c9.6-6.1,16-16.8,16-29c0-18.9-15.3-34.2-34.2-34.2c-18.9,0-34.2,15.3-34.2,34.2c0,12.2,6.4,23,16.1,29c-3.8-1-8,0.7-9.9,4.3
			l-18.4,27.1l-3.8-18.4c-0.7-4.3-4.3-7.4-8.6-7.4h-17.6c-4.8,0-8.7,3.9-8.7,8.7s3.9,8.7,8.7,8.7h10.1l8.8,26.6
			c0.6,3.7,3.5,6.7,7.2,7.3c0.5,0.1,1,0.1,1.5,0.1c3.2,0,5.2-1.7,7.7-4.6l15.2-16.5l-2.3,28.3h56.6l-2.3-28.2l15.1,16.3
			c2.8,2.8,4.5,4.6,7.7,4.6c0.5,0,1,0,1.5-0.1c3.7-0.6,6.6-3.6,7.2-7.3l8.8-26.6h10.1c4.8,0,8.7-3.9,8.7-8.7
			S2388.5,729.7,2383.7,729.7z M2306.2,740.3c-3.4,0-6-2.4-6-6c0-3.6,2.6-6,6-6c3.3,0,6,2.4,6,6
			C2312.1,737.9,2309.5,740.3,2306.2,740.3z M2318.3,706.8c-4.7,3.2-7.6,4.8-7.6,9.7v1.5c0,2.5-1.7,3.8-4.5,3.8
			c-2.8,0-4.6-1.3-4.6-3.8v-1.6c0-4.4,0.9-6.9,2.8-9.4c1.5-1.9,2.2-2.5,6.8-5.5c4.5-3.1,6-4.7,6-8c0-4.6-3.6-7.3-9.3-7.3
			c-5.5,0-8.4,2.7-10,7.1c-0.9,2.2-2.3,3-4.1,3c-0.7,0-1.4-0.1-2.2-0.4c-1.9-0.5-3.6-1.7-3.6-3.9c0-0.4,0.1-1,0.3-1.6
			c1.2-3.3,3.1-6.2,5.8-8.4c3.5-2.7,8-4.3,14.4-4.3c11.5,0,18.8,5.9,18.8,15.1C2327.3,700.1,2323.3,703.4,2318.3,706.8z"/>
	</g>
	<rect x="2205.7" y="624.6" class="st1" width="200" height="200"/>
</g>
<g>
	<g>
		<path class="st0" d="M2847.4,702.3c6.7-7.9,11-14.8,12.9-20.5c2.5-7.8,0.1-12.5-2.4-15l-0.2-0.2c-2.3-2.2-5.3-3.4-8.8-3.4
			c-1.9,0-4,0.4-6.2,1.1c-5.7,1.8-12.6,6.2-20.5,12.9c-5.5,4.6-10.7,9.9-15.6,15.5c-0.5,0.6-13.8,16.1-25.4,29.6
			c0.6,0.8,5.3,7.3,9.5,11.5c3.8,3.8,9.8,8.3,11.4,9.5c13.8-11.8,29.8-25.4,29.8-25.4C2837.6,713,2842.8,707.7,2847.4,702.3z"/>
		<path class="st0" d="M2785.6,739.1c-3.8-3.8-7.7-9-9.1-10.9c-6,7-11.6,13.4-12.1,13.9c-2.7,2.9,0,6.5,0.9,7.7
			c1.1,1.5,2.7,3.2,4.4,5c1.8,1.8,3.5,3.3,5,4.4c1,0.7,2.8,2.1,4.8,2.1c1.1,0,2.1-0.4,2.9-1.1c0.4-0.4,6.9-6.1,14-12.1
			C2790.2,743.7,2790.1,743.6,2785.6,739.1C2785.6,739.1,2785.6,739.1,2785.6,739.1z"/>
		<path class="st1" d="M2752.1,780.6c2.3-2.3,2.3-5.9,0-8.2c-2.3-2.3-5.9-2.3-8.2,0c-1.9,1.9-2.2,4.8-0.9,7l-16.1,16.8l1.4,1.4
			l16.8-16.1C2747.3,782.8,2750.2,782.5,2752.1,780.6z"/>
		<path class="st0" d="M2743,779.4c-1.3-2.2-1-5.1,0.9-7c2.3-2.3,5.9-2.3,8.2,0c2.3,2.3,2.3,5.9,0,8.2c-1.9,1.9-4.8,2.2-7,0.9
			l-16.8,16.1l1.7,1.7c6.5-2.9,16.5-6.5,26.9-6.6c3.2-7.2,7.9-16,15.8-24.8c0.9-1,1.9-2.1,2.9-3.1c0,0,0,0,0,0c0,0,0,0,0,0
			c-0.8-0.5-1.6-0.8-2.1-1.2c-1.9-1.5-4.5-3.3-6.9-5.7c-2.4-2.4-4.2-5-5.7-6.9c-0.3-0.4-0.6-1.1-1-1.8c0-0.1-0.1-0.1-0.1-0.2
			c0,0,0,0,0,0c0,0,0,0,0,0c-9.8,9.6-19.8,15.1-27.9,18.7c-0.4,10.1-3.9,20.2-6.8,26.8l1.8,1.8L2743,779.4z"/>
	</g>
	<rect x="2693.3" y="631.2" class="st1" width="200" height="200"/>
</g>
<g>
	<g>
		<path class="st0" d="M1811.9,1021.6h-20.8v-9.2h14l-7.1-18.2h-86.1l-7.1,18.2h15.7v9.2H1698c-1.5,0-2.9-0.8-3.8-2
			c-0.9-1.3-1-2.9-0.5-4.3l10.7-27.5c0.7-1.8,2.4-2.9,4.3-2.9h92.4c1.9,0,3.6,1.2,4.3,2.9l10.7,27.5c0.6,1.4,0.4,3-0.5,4.3
			C1814.8,1020.8,1813.4,1021.6,1811.9,1021.6z"/>
		<path class="st0" d="M1793.2,1047.7h-76.5v-46.9h76.5V1047.7z M1722.3,1042h65.2v-35.6h-65.2V1042z"/>
		<path class="st0" d="M1811.9,1140.1H1698c-2.5,0-4.6-2.1-4.6-4.6v-116.6c0-2,1.3-3.8,3.3-4.4c1.9-0.6,4,0.2,5.2,1.8l16.1,24h74.1
			l16.1-24c1.1-1.7,3.2-2.4,5.2-1.8c1.9,0.6,3.3,2.4,3.3,4.4v116.6C1816.5,1138,1814.4,1140.1,1811.9,1140.1z M1702.6,1130.9h104.7
			V1034l-9,13.5c-0.9,1.3-2.3,2-3.8,2h-79c-1.5,0-3-0.8-3.8-2l-9-13.5V1130.9z"/>
		<g>
			<path class="st0" d="M1720.1,1104l-3.5,8.7h-13.8l19.2-50h14.2l18.8,50h-13.9l-3.3-8.7H1720.1z M1729.2,1078.1h-0.1l-5.4,15.9
				h10.8L1729.2,1078.1z"/>
			<path class="st0" d="M1806.7,1086.8c0,16.2-11.6,27.6-27.7,27.6c-16.1,0-27.7-11.4-27.7-27.6c0-15.1,13.3-25.7,27.7-25.7
				S1806.7,1071.6,1806.7,1086.8z M1764.9,1086.8c0,8.6,6.4,14.9,14.1,14.9c7.8,0,14.1-6.3,14.1-14.9c0-6.9-6.4-13.2-14.1-13.2
				C1771.3,1073.6,1764.9,1079.9,1764.9,1086.8z"/>
		</g>
		<g>
			<rect x="1729.7" y="1013" class="st0" width="51" height="4.3"/>
			<rect x="1729.7" y="1021.7" class="st0" width="51" height="4.3"/>
			<rect x="1729.7" y="1030.5" class="st0" width="51" height="4.3"/>
		</g>
	</g>
	<rect x="1654.9" y="962.5" class="st1" width="200" height="200"/>
</g>
<g>
	<g>
		<rect x="2091.5" y="954.4" class="st1" width="200" height="200"/>
		<g>
			<path class="st0" d="M2190.6,1080.3c-4.2-1.4-6.6,2.9-6.9,3.6c-0.2,0.7-5.1,11.5-5.1,11.5l-9.1-12.2c-1.2-2.3-4.1-3.9-7.1-3.9
				l-2.3-0.1c6-2.7,10.2-8.7,10.2-15.7c0-9.5-7.7-17.2-17.2-17.2c-9.5,0-17.2,7.7-17.2,17.2c0,6.6,3.7,12.4,9.2,15.2l-2.5-0.1
				c0,0-30.2-24.2-31-24.7c-0.8-0.5-4.1-2.1-6.6,0.8c-2.1,2.5-0.8,6.5,0.9,7.8c0.8,0.6,32.1,31.3,32.1,31.3l-2.6,19.7h15.8h1.5h15.8
				l-1.2-12.5l8.2,6.2c2.1,2.1,4.9,2.1,6.3,1.7c1.9-0.6,2.8-2.1,4.1-5.2c0,0,7.6-16.1,8-17.1S2194.6,1081.6,2190.6,1080.3z"/>
			<path class="st0" d="M2258.7,995.4H2197c-11.9,0-21.6,9.7-21.6,21.6v24.7c0,6.5,2.9,12.4,7.6,16.4l-5.2,15.1l17.8-9.9
				c0.5,0,1,0.1,1.4,0.1h61.8c11.9,0,21.6-9.7,21.6-21.6V1017C2280.3,1005.1,2270.6,995.4,2258.7,995.4z"/>
			<g>
				<path class="st0" d="M2218.8,1106.5c-1.3,0-2.4-0.9-2.7-2.1c-3.2-12.7-9.6-12.9-9.9-12.9c-1.5,0.1-2.7-1.1-2.8-2.6
					c-0.1-1.5,1-2.8,2.5-3c6.1-0.6,8.5-6.2,10-11.6c0.1-0.4,0.2-0.8,0.3-1.1c0.4-1.1,1.4-1.9,2.6-1.9c1.2,0,2.3,0.7,2.7,1.8
					c0.2,0.6,0.4,1.4,0.6,2.3c0.9,3.6,2.3,9.1,7.5,10.7c1.1,0.4,1.9,1.4,1.9,2.6c0,1.2-0.7,2.3-1.8,2.7c-6.5,2.3-8.1,12.5-8.1,12.6
					c-0.2,1.3-1.3,2.3-2.6,2.4C2218.9,1106.5,2218.8,1106.5,2218.8,1106.5z M2213.5,1088.9c1.7,1.4,3.5,3.4,5.1,6.4
					c1.1-2.2,2.5-4.4,4.5-6.2c-2.2-1.8-3.6-4-4.6-6.2C2217.4,1085,2215.8,1087.3,2213.5,1088.9z"/>
			</g>
			<g>
				<path class="st0" d="M2123.6,1049.8c-1.4,0-2.6-0.9-2.9-2.3c-4.7-18.8-14.5-18.9-14.9-18.9c-1.6,0.1-3-1.2-3.1-2.8
					s1.1-3,2.7-3.2c10.4-1,13.6-12.3,14.9-17.1c0.2-0.6,0.3-1.1,0.4-1.5c0.4-1.2,1.5-2.1,2.8-2.1c0,0,0,0,0.1,0c1.3,0,2.4,0.8,2.8,2
					c0.3,0.8,0.6,1.9,0.9,3.1c1.3,5.3,3.4,13.4,11.2,15.9c1.2,0.4,2.1,1.5,2.1,2.8c0,1.3-0.8,2.5-2,2.9c-9.8,3.4-12,18.4-12,18.6
					c-0.2,1.4-1.4,2.5-2.8,2.6C2123.7,1049.8,2123.7,1049.8,2123.6,1049.8z M2114.6,1025.7c3,2.1,6.2,5.5,8.8,11.2
					c1.6-3.8,4.1-8,7.9-11c-4.1-2.9-6.4-7.1-7.9-11C2121.6,1018.8,2118.9,1023,2114.6,1025.7z"/>
			</g>
		</g>
	</g>
	<rect x="2091.5" y="954.4" class="st1" width="200" height="200"/>
</g>
<g>
	<path class="st0" d="M-8.9,1088.8c0.8,17.7,17.7,47.7,23.7,58.1c6,10.4,23.6,40,38.5,49.6c3.6,2.4,9.6,3.1,14.7,2
		c5-1,13.4-4.7,15.1-7.6c1.7-2.9,1.9-5.2,1.5-6.5c-0.7-2.6-3.2-7.4-6.7-12.2c-4-5.6-9.5-10.6-11.7-11.2c-2.2-0.6-4,0.8-5.3,1.9
		c-1.2,1.1-7.5,6.6-10.7,5.4c-3.3-1.1-17.6-21.6-22-29.2c-4.4-7.6-14.9-30.2-14.3-33.6c0.7-3.4,8.5-6,10.1-6.6
		c1.6-0.5,3.7-1.4,4.3-3.6c0.6-2.2-1-9.5-3.8-15.8c-2.5-5.4-5.4-10-7.3-11.9c-1-1-3-2-6.4-1.9c-3.3,0.1-10.7,5.4-14.1,9.3
		C-6.7,1079-9.1,1084.5-8.9,1088.8z"/>
</g>
<g>
	<g>
		<path class="st0" d="M494.1,1837.8h-47.6c-1.6,0-2.8-1.3-2.8-2.8v-40.3c0-1.6-1.3-2.8-2.8-2.8h-70.4c-1.6,0-2.8,1.3-2.8,2.8v40.3
			c0,1.6-1.3,2.8-2.8,2.8h-47.6c-1.6,0-2.8,1.3-2.8,2.8v85.9c0,1.6,1.3,2.8,2.8,2.8h58.5c1.6,0,2.8-1.3,2.8-2.8V1898
			c0-1.6,1.3-2.8,2.8-2.8h49.2c1.6,0,2.8,1.3,2.8,2.8v28.5c0,1.6,1.3,2.8,2.8,2.8h58c1.6,0,2.8-1.3,2.8-2.8v-85.9
			C497,1839.1,495.7,1837.8,494.1,1837.8z M342.4,1908.5h-14.2v-20.2h14.2V1908.5z M342.4,1873.8h-14.2v-20.2h14.2V1873.8z
			 M361,1908.5h-14.2v-20.2H361V1908.5z M361,1873.8h-14.2v-20.2H361V1873.8z M403.4,1873.8h-14.2v-20.2h14.2V1873.8z M422.1,1873.8
			h-14.2v-20.2h14.2V1873.8z M405.7,1843.5c-12.1,0-22-9.9-22-22c0-12.1,9.9-22,22-22c12.1,0,22,9.9,22,22
			C427.6,1833.6,417.8,1843.5,405.7,1843.5z M465.2,1908.5h-14.2v-20.2h14.2V1908.5z M465.2,1873.8h-14.2v-20.2h14.2V1873.8z
			 M483.9,1908.5h-14.2v-20.2h14.2V1908.5z M483.9,1873.8h-14.2v-20.2h14.2V1873.8z"/>
		<polygon class="st0" points="405.4,1828 390.8,1818.2 394.4,1812.8 404.8,1819.9 417.9,1808.3 422.2,1813.1 		"/>
	</g>
	<rect x="305.7" y="1760.6" class="st1" width="200" height="200"/>
</g>
<g>
	<g>
		<path class="st1" d="M-595.7,1093.3c0.3,1.2,0.6,2.5,0.8,3.7C-595.1,1095.7-595.3,1094.5-595.7,1093.3z"/>
		<path class="st1" d="M-598.7,1086.2c0.7,1.1,1.2,2.3,1.8,3.5C-597.5,1088.5-598,1087.3-598.7,1086.2z"/>
		<path class="st1" d="M-696.4,1089.6c0.5-1.2,1.1-2.3,1.8-3.5C-695.3,1087.3-695.9,1088.5-696.4,1089.6z"/>
		<path class="st1" d="M-594.8,1097.8c0-0.2,0-0.5-0.1-0.7C-594.8,1097.3-594.8,1097.5-594.8,1097.8L-594.8,1097.8z"/>
		<polygon class="st1" points="-692.4,1144.6 -672.5,1133.6 -672.5,1133.6 		"/>
		<path class="st1" d="M-605,1078.3c-9.5-9.2-24.7-15.2-41.7-15.2s-32.2,6-41.7,15.2c9.5-9.2,24.7-15.2,41.7-15.2
			S-614.5,1069.1-605,1078.3z"/>
		<path class="st1" d="M-698.8,1100.9c0-1.3,0.1-2.6,0.3-3.9C-698.7,1098.3-698.8,1099.6-698.8,1100.9z"/>
		<path class="st1" d="M-605,1078.3c2,1.9,3.7,4,5.2,6.2C-601.2,1082.3-603,1080.2-605,1078.3z"/>
		<path class="st1" d="M-698.5,1097c0.2-1.3,0.4-2.5,0.8-3.7C-698,1094.5-698.3,1095.7-698.5,1097z"/>
		<path class="st1" d="M-693.6,1084.5c1.5-2.2,3.2-4.3,5.2-6.2C-690.4,1080.2-692.2,1082.3-693.6,1084.5z"/>
		<path d="M-594.6,1100.9c0-1-0.1-2.1-0.2-3.1l0,0C-594.7,1098.8-594.6,1099.8-594.6,1100.9z"/>
		<path class="st0" d="M-523,1144.1v-22.5c0-13.2-10.7-23.9-23.9-23.9h-39.4c0.1,1,0.1,2.1,0.1,3.1c0,1.8-0.1,3.6-0.4,5.4h39.6
			c8.5,0,15.4,6.9,15.4,15.4v22.5c0,5.5-3,10.6-7.8,13.4l-3,1.7l3,9.7l-15.5-9.4h-48.3c-8.5,0-15.4-6.9-15.4-15.4v-2.3
			c-2.7,1.1-5.6,2-8.5,2.8c0.3,12.9,10.9,23.4,23.9,23.4h45.9l32.5,19.7l-7.6-24.7C-526.4,1158.5-523,1151.5-523,1144.1z"/>
		<path class="st0" d="M-685.8,1125.8c-1-0.8-2-1.7-2.9-2.6C-687.8,1124.1-686.8,1124.9-685.8,1125.8z"/>
		<path class="st0" d="M-688.7,1123.2c-1.8-1.8-3.4-3.7-4.8-5.7C-692.1,1119.5-690.5,1121.4-688.7,1123.2z"/>
		<path class="st0" d="M-657,1137.9c-2.2-0.3-4.4-0.8-6.5-1.3C-661.4,1137.1-659.2,1137.5-657,1137.9z"/>
		<path class="st0" d="M-694.4,1116c-1.2-2.1-2.2-4.2-3-6.4C-696.7,1111.8-695.7,1113.9-694.4,1116z"/>
		<path class="st0" d="M-672.5,1133.6c2.9,1.2,5.9,2.2,9,3C-666.7,1135.8-669.7,1134.8-672.5,1133.6L-672.5,1133.6z"/>
		<path class="st0" d="M-594.8,1097.8c0-0.2,0-0.5-0.1-0.7c-0.2-1.3-0.4-2.5-0.8-3.7c-0.3-1.2-0.8-2.4-1.3-3.6
			c-0.5-1.2-1.1-2.3-1.8-3.5c-0.3-0.6-0.7-1.1-1-1.7c-1.5-2.2-3.2-4.3-5.2-6.2c-9.5-9.2-24.7-15.2-41.7-15.2s-32.2,6-41.7,15.2
			c-2,1.9-3.7,4-5.2,6.2c-0.4,0.6-0.7,1.1-1,1.7c-0.7,1.1-1.2,2.3-1.8,3.5c-0.5,1.2-0.9,2.4-1.3,3.6c-0.3,1.2-0.6,2.5-0.8,3.7
			c-0.2,1.3-0.3,2.6-0.3,3.9c0,3,0.5,5.9,1.4,8.7c0.7,2.2,1.7,4.4,3,6.4c0.3,0.5,0.6,1,1,1.5c1.4,2,3,3.9,4.8,5.7
			c0.9,0.9,1.9,1.8,2.9,2.6l-6.6,18.9l19.8-11c2.9,1.2,5.9,2.2,9,3c2.1,0.5,4.3,0.9,6.5,1.3c3.3,0.5,6.8,0.7,10.3,0.7
			c7,0,13.6-1,19.7-2.8c3-0.9,5.8-2,8.5-3.2c12.4-5.8,21.2-15.3,23.3-26.3c0.3-1.8,0.5-3.6,0.5-5.4
			C-594.6,1099.8-594.7,1098.8-594.8,1097.8z M-678.2,1108c-3.1,0-5.7-2.5-5.7-5.7c0-3.1,2.5-5.7,5.7-5.7s5.7,2.5,5.7,5.7
			C-672.6,1105.4-675.1,1108-678.2,1108z M-657.1,1108c-3.1,0-5.7-2.5-5.7-5.7c0-3.1,2.5-5.7,5.7-5.7s5.7,2.5,5.7,5.7
			C-651.5,1105.4-654,1108-657.1,1108z M-636,1108c-3.1,0-5.7-2.5-5.7-5.7c0-3.1,2.5-5.7,5.7-5.7s5.7,2.5,5.7,5.7
			C-630.3,1105.4-632.9,1108-636,1108z M-614.9,1108c-3.1,0-5.7-2.5-5.7-5.7c0-3.1,2.5-5.7,5.7-5.7c3.1,0,5.7,2.5,5.7,5.7
			C-609.2,1105.4-611.7,1108-614.9,1108z"/>
		<g>
			<circle class="st0" cx="-571.2" cy="1131.9" r="5.7"/>
			<circle class="st0" cx="-592.3" cy="1131.9" r="5.7"/>
			<circle class="st0" cx="-550.1" cy="1131.9" r="5.7"/>
		</g>
	</g>
	<rect x="-710.9" y="1025.4" class="st1" width="200" height="200"/>
</g>
<g>
	<g>
		<path class="st0" d="M-264.7,1188.2h-87.5c-2.3,0-4.3-1.9-4.3-4.3v-116.2c0-2.3,1.9-4.3,4.3-4.3h104.9c2.3,0,4.3,1.9,4.3,4.3v96.9
			c0,1.1-0.4,2.1-1.1,2.8l-17.4,19.3C-262.4,1187.7-263.5,1188.2-264.7,1188.2z M-348,1179.7h81.3l15.1-16.7v-91H-348V1179.7z"/>
		<path class="st0" d="M-272.9,1177.4c-1.6,0-2.8-1.3-2.8-2.8v-16.1c0-1.6,1.3-2.8,2.8-2.8h15.6c1.6,0,2.8,1.3,2.8,2.8
			s-1.3,2.8-2.8,2.8h-12.7v13.2C-270.1,1176.2-271.3,1177.4-272.9,1177.4z"/>
		<g>
			<rect x="-333.8" y="1085.7" class="st0" width="68" height="5.7"/>
			<rect x="-333.8" y="1102.3" class="st0" width="68" height="5.7"/>
			<rect x="-333.8" y="1118.9" class="st0" width="68" height="5.7"/>
			<rect x="-333.8" y="1135.5" class="st0" width="68" height="5.7"/>
		</g>
	</g>
	<rect x="-399.8" y="1025.9" class="st1" width="200" height="200"/>
</g>
<rect x="-62" y="1032.5" class="st1" width="200" height="200"/>
<g>
	<g>
		<path class="st0" d="M560.4,1062.5c-3.4-0.9-6.9,1.1-7.8,4.5l-4.8,21.3c-3.2,3.5-6.8,6.9-9.8,9.6h-6.4c6.8-2.7,11.5-9.4,11.5-17.1
			c0-10.2-8.3-18.5-18.5-18.5c-10.2,0-18.5,8.3-18.5,18.5c0,7.7,4.8,14.4,11.5,17.1h-8.4c-2.3-0.1-4.6,1.1-5.8,3.3L492,1122
			c-0.4,0.7-0.7,1.5-0.8,2.3l-1,18.1c-0.4,3.5,0.8,6.7,4.3,7.1c0.3,0,0.5,0,0.8,0c3.2,0,5.3-2.4,5.7-5.6l2.8-16.9l3.5-5l-1.9,24.6
			l-4.8,12.8c-0.7,1.9-0.5,4,0.6,5.7l8.6,13.5c1.2,1.9,3.3,2.9,5.4,2.9c1.2,0,2.4-0.3,3.4-1c3-1.9,3.8-5.8,2-8.8l-5.9-9.2l10.3-13.2
			l5.9,34c0,3.5,2.8,6.4,6.4,6.4c3.5,0,6.4-2.8,6.4-6.4l1-34.4c0-0.2,0-0.4,0-0.7l-1.6-31.7c4.2-5.6,14.2-19.1,16.2-21.8
			c1.3-1.3,4.7-24.6,4.7-24.6C564.6,1066.9,563.8,1063.4,560.4,1062.5z"/>
		<path class="st0" d="M485.5,1141.9l-2.2-15.8c-0.1-0.8-0.3-1.5-0.7-2.2l-12.1-17.9c-1.1-2-3.2-3.1-5.4-3h-6.6
			c6-2.5,10.2-8.4,10.2-15.3c0-9.1-7.4-16.6-16.6-16.6c-9.1,0-16.5,7.4-16.5,16.6c0,6.9,4.2,12.8,10.2,15.3H441
			c-2.8-2.5-6.2-5.7-9.1-9l-4.5-19.8c-0.9-3.2-4.1-5-7.3-4.2c-3.2,0.8-3.8,4.1-3,7.3c0,0,3.2,21.7,4.4,22.9
			c2.3,3.1,15.9,21.4,16.8,22.5c0.1,0.1,0.2,0.1,0.2,0.2l-1.1,14.2l-7.1,26.2l7.7-0.6l0.6,21.2c0,3.3,2.7,5.9,5.9,5.9
			c3.3,0,5-2.7,5-5.9l2.1-22.2l2.5-0.2l-1.4,5.8c-0.7,1.7-0.5,3.7,0.5,5.3l8,12.6c1.1,1.8,3,2.7,5,2.7c1.1,0,1.4-0.3,2.4-0.9
			c2.8-1.8,2.3-5.4,0.5-8.2l-4.7-8.6l4.3-9.8l7.9-0.6l-8.5-19.1l-1.5-19.2l4.8,7.2l3.9,14.7c0.4,3,2.3,5.2,5.3,5.2
			c0.2,0,0.5,0,0.7,0C484.8,1148.1,485.9,1145.2,485.5,1141.9z"/>
	</g>
	<rect x="390.4" y="1026" class="st1" width="200" height="200"/>
</g>
<g>
	<g>
		<path class="st0" d="M-469.8,1471.9c-0.1,0-0.1-0.1-0.2-0.1c-0.9-0.6-1.8-1.1-2.7-1.6c-0.2-0.1-0.3-0.2-0.5-0.3
			c-0.9-0.5-1.8-0.9-2.8-1.3c-0.2-0.1-0.4-0.2-0.6-0.2c-1-0.4-1.9-0.7-3-1.1c-0.1,0-0.2-0.1-0.3-0.1c-4-1.2-8.2-1.7-12.5-1.5
			c-0.3,0-0.7,0-1,0.1c-0.6,0-1.2,0-1.8,0.1c-6.5,0.8-12.7,3.4-17.9,7.5c-9.1,7.2-14.2,17.7-14.2,29.1c0,12.1,5,22.2,15.2,30.9
			c1.2,1,2.3,5,3,7.9c1.1,4.2,2.4,9.3,5.6,12.5c0.6,0.6,1.5,0.9,2.3,0.9h21.4c0.9,0,1.7-0.3,2.3-0.9c3.2-3.1,4.5-8.3,5.6-12.5
			c0.8-2.9,1.8-6.9,3-7.9c10.3-8.7,15.2-18.8,15.2-30.9c0-9.9-3.8-19.1-10.8-26.1C-466,1474.7-467.9,1473.2-469.8,1471.9z
			 M-474.9,1526.1c-3.5,3-4.8,7.9-6,12.7c-0.9,3.3-2.1,8.3-3.7,8.3h-11.6c-1.5,0-2.8-5-3.7-8.3c-1.2-4.8-2.5-9.8-6-12.7
			c-8.1-6.9-11.9-14.4-11.9-23.6c0-7.3,2.9-14.2,8-19.4c5.2-5.2,12.1-8,19.4-8c7.3,0,14.2,2.9,19.4,8c5.2,5.2,8,12.1,8,19.4
			C-463,1511.7-466.7,1519.2-474.9,1526.1z"/>
		<path class="st0" d="M-503.1,1563.9c0,4,2,9.9,5.6,9.9s10.1,0,14.2,0s5.5-5.6,5.6-9.5c0-0.1,0-0.2,0-0.3h0c0,0,0,0,0,0H-503.1
			L-503.1,1563.9z"/>
		<g>
			<path class="st0" d="M-490.4,1433.4c-2.6,0-4.8,2.1-4.8,4.8l1.2,14c0,1.9,1.6,3.5,3.6,3.5s3.5-1.6,3.6-3.5l1.2-13.9l0-0.1
				C-485.6,1435.5-487.8,1433.4-490.4,1433.4z"/>
			<path class="st0" d="M-534,1451.1L-534,1451.1c-0.3-0.3-0.5-0.4-0.6-0.5c-0.2-0.1-0.4-0.3-0.6-0.4c-0.4-0.2-0.7-0.4-1.1-0.5
				c-0.2,0-0.3-0.1-0.5-0.1c-0.4-0.1-0.9-0.1-1.3,0c-0.2,0-0.3,0.1-0.5,0.1c-0.4,0.1-0.8,0.3-1.1,0.5c-0.2,0.1-0.4,0.2-0.5,0.4
				c-0.1,0.1-0.3,0.2-0.5,0.4c-1.9,1.9-1.9,4.9,0,6.7l10.7,9c0.7,0.6,1.5,1,2.5,1c0,0,0,0,0,0c1,0,1.9-0.4,2.5-1
				c0.7-0.7,1-1.6,1-2.5c0-0.9-0.4-1.8-1-2.5L-534,1451.1z"/>
			<path class="st0" d="M-542.4,1493l-13.4-3.6l-0.1,0c-1.3-0.2-2.5,0.1-3.6,0.8c-1,0.7-1.7,1.8-2,3.1c-0.2,1.3,0.1,2.5,0.8,3.6
				c0.7,1,1.8,1.7,3.1,2l14,1.2c0.2,0,0.4,0,0.6,0c1.7,0,3.2-1.2,3.5-3C-539.2,1495.2-540.5,1493.4-542.4,1493z"/>
			<path class="st0" d="M-439.5,1457.8c0.9-0.9,1.4-2.1,1.4-3.4c0-1.3-0.5-2.5-1.4-3.4c-0.2-0.2-0.4-0.3-0.5-0.4
				c-0.2-0.1-0.3-0.2-0.5-0.3c-0.4-0.2-0.8-0.4-1.1-0.5c-0.2,0-0.3-0.1-0.5-0.1c-0.4-0.1-0.9-0.1-1.3,0c-0.2,0-0.4,0.1-0.5,0.1
				c-0.4,0.1-0.8,0.3-1.2,0.5c-0.2,0.1-0.4,0.2-0.5,0.4c-0.1,0.1-0.3,0.2-0.5,0.4l-9,10.7c-1.3,1.4-1.3,3.6,0,5c0.7,0.7,1.6,1,2.5,1
				c0.9,0,1.8-0.4,2.5-1L-439.5,1457.8L-439.5,1457.8z"/>
			<path class="st0" d="M-419.3,1493.3c-0.2-1.3-0.9-2.3-2-3.1c-1-0.7-2.3-1-3.6-0.8l-13.6,3.6c-1.9,0.4-3.2,2.2-2.8,4.1
				c0.3,1.7,1.8,3,3.5,3c0.2,0,0.4,0,0.6,0l13.8-1.2l0.1,0c1.3-0.2,2.3-0.9,3.1-2C-419.4,1495.8-419.1,1494.5-419.3,1493.3z"/>
		</g>
		<path class="st0" d="M-477,1560.1c0,0.8-0.6,1.4-1.4,1.4h-23.9c-0.8,0-1.4-0.6-1.4-1.4v-1.4c0-0.8,0.6-1.4,1.4-1.4h23.9
			c0.8,0,1.4,0.6,1.4,1.4V1560.1z"/>
	</g>
	<rect x="-590.4" y="1403.6" class="st1" width="200" height="200"/>
</g>
<g>
	<g>
		<rect x="86.8" y="1484.7" class="st0" width="36.4" height="36.4"/>
		<g>
			<path class="st0" d="M-6.3,1521.1h-47.1l23.5-40.8L-6.3,1521.1z"/>
		</g>
		<path class="st0" d="M112.9,1526.1H95.3c-4.3,0-8,3.1-8.6,7.4l-3.8,18.4l-18.4-27.1c-1.9-3.6-6-5.3-9.8-4.4c9.6-6.1,16-16.8,16-29
			c0-18.9-15.3-34.2-34.2-34.2c-18.9,0-34.2,15.3-34.2,34.2c0,12.2,6.4,23,16.1,29c-3.8-1-8,0.7-9.9,4.3l-18.4,27.1l-3.8-18.4
			c-0.7-4.3-4.3-7.4-8.6-7.4h-17.6c-4.8,0-8.7,3.9-8.7,8.7c0,4.8,3.9,8.7,8.7,8.7h10.1l8.8,26.6c0.6,3.7,3.5,6.7,7.2,7.3
			c0.5,0.1,1,0.1,1.5,0.1c3.2,0,5.2-1.7,7.7-4.6l15.2-16.5l-2.3,28.3h56.6l-2.3-28.2l15.1,16.3c2.8,2.8,4.5,4.6,7.7,4.6
			c0.5,0,1,0,1.5-0.1c3.7-0.6,6.6-3.6,7.2-7.3l8.8-26.6h10.1c4.8,0,8.7-3.9,8.7-8.7C121.7,1530,117.8,1526.1,112.9,1526.1z
			 M35.4,1536.7c-3.4,0-6-2.4-6-6c0-3.6,2.6-6,6-6c3.3,0,6,2.4,6,6C41.4,1534.3,38.7,1536.7,35.4,1536.7z M47.6,1503.2
			c-4.7,3.2-7.6,4.8-7.6,9.7v1.5c0,2.5-1.7,3.8-4.5,3.8c-2.8,0-4.6-1.3-4.6-3.8v-1.6c0-4.4,0.9-6.9,2.8-9.4c1.5-1.9,2.2-2.5,6.8-5.5
			c4.5-3.1,6-4.7,6-8c0-4.6-3.6-7.3-9.3-7.3c-5.5,0-8.4,2.7-10,7.1c-0.9,2.2-2.3,3-4.1,3c-0.7,0-1.4-0.1-2.2-0.4
			c-1.9-0.5-3.6-1.7-3.6-3.9c0-0.4,0.1-1,0.3-1.6c1.2-3.3,3.1-6.2,5.8-8.4c3.5-2.7,8-4.3,14.4-4.3c11.5,0,18.8,5.9,18.8,15.1
			C56.6,1496.4,52.6,1499.8,47.6,1503.2z"/>
	</g>
	<rect x="-65.1" y="1421" class="st1" width="200" height="200"/>
</g>
<g>
	<g>
		<path class="st0" d="M576.7,1498.7c6.7-7.9,11-14.8,12.9-20.5c2.5-7.8,0.1-12.5-2.4-15l-0.2-0.2c-2.3-2.2-5.3-3.4-8.8-3.4
			c-1.9,0-4,0.4-6.2,1.1c-5.7,1.8-12.6,6.2-20.5,12.9c-5.5,4.6-10.7,9.9-15.6,15.5c-0.5,0.6-13.8,16.1-25.4,29.6
			c0.6,0.8,5.3,7.3,9.5,11.5c3.8,3.8,9.8,8.3,11.4,9.5c13.8-11.8,29.8-25.4,29.8-25.4C566.8,1509.4,572.1,1504.1,576.7,1498.7z"/>
		<path class="st0" d="M514.8,1535.5c-3.8-3.8-7.7-9-9.1-10.9c-6,7-11.6,13.4-12.1,13.9c-2.7,2.9,0,6.5,0.9,7.7
			c1.1,1.5,2.7,3.2,4.4,5c1.8,1.8,3.5,3.3,5,4.4c1,0.7,2.8,2.1,4.8,2.1c1.1,0,2.1-0.4,2.9-1.1c0.4-0.4,6.9-6.1,14-12.1
			C519.4,1540.1,519.4,1540,514.8,1535.5C514.8,1535.5,514.9,1535.5,514.8,1535.5z"/>
		<path class="st1" d="M481.4,1577c2.3-2.3,2.3-5.9,0-8.2c-2.3-2.3-5.9-2.3-8.2,0c-1.9,1.9-2.2,4.8-0.9,7l-16.1,16.8l1.4,1.4
			l16.8-16.1C476.6,1579.2,479.5,1578.9,481.4,1577z"/>
		<path class="st0" d="M472.3,1575.8c-1.3-2.2-1-5.1,0.9-7c2.3-2.3,5.9-2.3,8.2,0c2.3,2.3,2.3,5.9,0,8.2c-1.9,1.9-4.8,2.2-7,0.9
			l-16.8,16.1l1.7,1.7c6.5-2.9,16.5-6.5,26.9-6.6c3.2-7.2,7.9-16,15.8-24.8c0.9-1,1.9-2.1,2.9-3.1c0,0,0,0,0,0c0,0,0,0,0,0
			c-0.8-0.5-1.6-0.8-2.1-1.2c-1.9-1.5-4.5-3.3-6.9-5.7c-2.4-2.4-4.2-5-5.7-6.9c-0.3-0.4-0.6-1.1-1-1.8c0-0.1-0.1-0.1-0.1-0.2
			c0,0,0,0,0,0c0,0,0,0,0,0c-9.8,9.6-19.8,15.1-27.9,18.7c-0.4,10.1-3.9,20.2-6.8,26.8l1.8,1.8L472.3,1575.8z"/>
	</g>
	<rect x="422.5" y="1427.6" class="st1" width="200" height="200"/>
</g>
<g>
	<g>
		<path class="st0" d="M-458.9,1817.9h-20.8v-9.2h14l-7.1-18.2h-86.1l-7.1,18.2h15.7v9.2h-22.4c-1.5,0-2.9-0.8-3.8-2
			c-0.9-1.3-1-2.9-0.5-4.3l10.7-27.5c0.7-1.8,2.4-2.9,4.3-2.9h92.4c1.9,0,3.6,1.2,4.3,2.9l10.7,27.5c0.6,1.4,0.4,3-0.5,4.3
			C-455.9,1817.2-457.4,1817.9-458.9,1817.9z"/>
		<path class="st0" d="M-477.6,1844.1h-76.5v-46.9h76.5V1844.1z M-548.4,1838.4h65.2v-35.6h-65.2V1838.4z"/>
		<path class="st0" d="M-458.9,1936.5h-113.9c-2.5,0-4.6-2.1-4.6-4.6v-116.6c0-2,1.3-3.8,3.3-4.4c1.9-0.6,4,0.2,5.2,1.8l16.1,24
			h74.1l16.1-24c1.1-1.7,3.2-2.4,5.2-1.8c1.9,0.6,3.3,2.4,3.3,4.4v116.6C-454.3,1934.4-456.3,1936.5-458.9,1936.5z M-568.2,1927.3
			h104.7v-96.8l-9,13.5c-0.9,1.3-2.3,2-3.8,2h-79c-1.5,0-3-0.8-3.8-2l-9-13.5V1927.3z"/>
		<g>
			<path class="st0" d="M-550.7,1900.4l-3.5,8.7h-13.8l19.2-50h14.2l18.8,50h-13.9l-3.3-8.7H-550.7z M-541.6,1874.5h-0.1l-5.4,15.9
				h10.8L-541.6,1874.5z"/>
			<path class="st0" d="M-464,1883.2c0,16.2-11.6,27.6-27.7,27.6c-16.1,0-27.7-11.4-27.7-27.6c0-15.1,13.3-25.7,27.7-25.7
				S-464,1868-464,1883.2z M-505.9,1883.2c0,8.6,6.4,14.9,14.1,14.9c7.8,0,14.1-6.3,14.1-14.9c0-6.9-6.4-13.2-14.1-13.2
				C-499.5,1870-505.9,1876.3-505.9,1883.2z"/>
		</g>
		<g>
			<rect x="-541" y="1809.4" class="st0" width="51" height="4.3"/>
			<rect x="-541" y="1818.1" class="st0" width="51" height="4.3"/>
			<rect x="-541" y="1826.9" class="st0" width="51" height="4.3"/>
		</g>
	</g>
	<rect x="-615.8" y="1758.9" class="st1" width="200" height="200"/>
</g>
<g>
	<g>
		<rect x="-179.2" y="1750.8" class="st1" width="200" height="200"/>
		<g>
			<path class="st0" d="M-80.1,1876.7c-4.2-1.4-6.6,2.9-6.9,3.6c-0.2,0.7-5.1,11.5-5.1,11.5l-9.1-12.2c-1.2-2.3-4.1-3.9-7.1-3.9
				l-2.3-0.1c6-2.7,10.2-8.7,10.2-15.7c0-9.5-7.7-17.2-17.2-17.2c-9.5,0-17.2,7.7-17.2,17.2c0,6.6,3.7,12.4,9.2,15.2l-2.5-0.1
				c0,0-30.2-24.2-31-24.7c-0.8-0.5-4.1-2.1-6.6,0.8c-2.1,2.5-0.8,6.5,0.9,7.8c0.8,0.6,32.1,31.3,32.1,31.3l-2.6,19.7h15.8h1.5h15.8
				l-1.2-12.5l8.2,6.2c2.1,2.1,4.9,2.1,6.3,1.7c1.9-0.6,2.8-2.1,4.1-5.2c0,0,7.6-16.1,8-17.1C-76.5,1881.8-76.1,1878-80.1,1876.7z"
				/>
			<path class="st0" d="M-12,1791.8h-61.8c-11.9,0-21.6,9.7-21.6,21.6v24.7c0,6.5,2.9,12.4,7.6,16.4l-5.2,15.1l17.8-9.9
				c0.5,0,1,0.1,1.4,0.1H-12c11.9,0,21.6-9.7,21.6-21.6v-24.7C9.6,1801.5-0.1,1791.8-12,1791.8z"/>
			<g>
				<path class="st0" d="M-52,1902.9c-1.3,0-2.4-0.9-2.7-2.1c-3.2-12.7-9.6-12.9-9.9-12.9c-1.5,0.1-2.7-1.1-2.8-2.6
					c-0.1-1.5,1-2.8,2.5-3c6.1-0.6,8.5-6.2,10-11.6c0.1-0.4,0.2-0.8,0.3-1.1c0.4-1.1,1.4-1.9,2.6-1.9c1.2,0,2.3,0.7,2.7,1.8
					c0.2,0.6,0.4,1.4,0.6,2.3c0.9,3.6,2.3,9.1,7.5,10.7c1.1,0.4,1.9,1.4,1.9,2.6c0,1.2-0.7,2.3-1.8,2.7c-6.5,2.3-8.1,12.5-8.1,12.6
					c-0.2,1.3-1.3,2.3-2.6,2.4C-51.9,1902.9-51.9,1902.9-52,1902.9z M-57.3,1885.3c1.7,1.4,3.5,3.4,5.1,6.4c1.1-2.2,2.5-4.4,4.5-6.2
					c-2.2-1.8-3.6-4-4.6-6.2C-53.4,1881.4-55,1883.7-57.3,1885.3z"/>
			</g>
			<g>
				<path class="st0" d="M-147.1,1846.2c-1.4,0-2.6-0.9-2.9-2.3c-4.7-18.8-14.5-18.9-14.9-18.9c-1.6,0.1-3-1.2-3.1-2.8
					c-0.1-1.6,1.1-3,2.7-3.2c10.4-1,13.6-12.3,14.9-17.1c0.2-0.6,0.3-1.1,0.4-1.5c0.4-1.2,1.5-2.1,2.8-2.1c0,0,0,0,0.1,0
					c1.3,0,2.4,0.8,2.8,2c0.3,0.8,0.6,1.9,0.9,3.1c1.3,5.3,3.4,13.4,11.2,15.9c1.2,0.4,2.1,1.5,2.1,2.8c0,1.3-0.8,2.5-2,2.9
					c-9.8,3.4-12,18.4-12,18.6c-0.2,1.4-1.4,2.5-2.8,2.6C-147,1846.2-147.1,1846.2-147.1,1846.2z M-156.2,1822.1
					c3,2.1,6.2,5.5,8.8,11.2c1.6-3.8,4.1-8,7.9-11c-4.1-2.9-6.4-7.1-7.9-11C-149.1,1815.2-151.9,1819.4-156.2,1822.1z"/>
			</g>
		</g>
	</g>
	<rect x="-179.2" y="1750.8" class="st1" width="200" height="200"/>
</g>
<g>
	<g>
		<path class="st1" d="M34.6,20.4c0.1,0.4,0.2,0.7,0.2,1.1C34.7,21.1,34.7,20.7,34.6,20.4z"/>
		<path class="st1" d="M33.6,18.2c0.2,0.3,0.4,0.7,0.5,1C34,18.9,33.8,18.6,33.6,18.2z"/>
		<path class="st1" d="M4.3,19.3c0.2-0.4,0.3-0.7,0.5-1C4.7,18.6,4.5,18.9,4.3,19.3z"/>
		<path class="st1" d="M34.8,21.7c0-0.1,0-0.1,0-0.2C34.8,21.6,34.8,21.6,34.8,21.7L34.8,21.7z"/>
		<polygon class="st1" points="5.5,35.8 11.5,32.5 11.5,32.5 		"/>
		<path class="st1" d="M31.8,15.9c-2.8-2.8-7.4-4.5-12.5-4.5s-9.7,1.8-12.5,4.5c2.8-2.8,7.4-4.5,12.5-4.5S28.9,13.1,31.8,15.9z"/>
		<path class="st1" d="M3.6,22.6c0-0.4,0-0.8,0.1-1.2C3.7,21.9,3.6,22.2,3.6,22.6z"/>
		<path class="st1" d="M31.8,15.9c0.6,0.6,1.1,1.2,1.6,1.9C32.9,17.1,32.4,16.4,31.8,15.9z"/>
		<path class="st1" d="M3.7,21.5c0.1-0.4,0.1-0.8,0.2-1.1C3.8,20.7,3.8,21.1,3.7,21.5z"/>
		<path class="st1" d="M5.2,17.7c0.4-0.7,1-1.3,1.6-1.9C6.1,16.4,5.6,17.1,5.2,17.7z"/>
		<path d="M34.9,22.6c0-0.3,0-0.6-0.1-0.9l0,0C34.9,22,34.9,22.3,34.9,22.6z"/>
		<path class="st0" d="M56.4,35.6v-6.7c0-4-3.2-7.2-7.2-7.2H37.4c0,0.3,0,0.6,0,0.9c0,0.5,0,1.1-0.1,1.6h11.9c2.5,0,4.6,2.1,4.6,4.6
			v6.7c0,1.7-0.9,3.2-2.4,4l-0.9,0.5l0.9,2.9l-4.6-2.8H32.3c-2.5,0-4.6-2.1-4.6-4.6v-0.7c-0.8,0.3-1.7,0.6-2.5,0.8
			c0.1,3.9,3.3,7,7.2,7h13.8l9.8,5.9l-2.3-7.4C55.3,39.9,56.4,37.8,56.4,35.6z"/>
		<path class="st0" d="M7.5,30.1c-0.3-0.2-0.6-0.5-0.9-0.8C6.9,29.6,7.2,29.9,7.5,30.1z"/>
		<path class="st0" d="M6.7,29.3c-0.5-0.5-1-1.1-1.4-1.7C5.6,28.2,6.1,28.8,6.7,29.3z"/>
		<path class="st0" d="M16.2,33.7c-0.7-0.1-1.3-0.2-1.9-0.4C14.8,33.5,15.5,33.6,16.2,33.7z"/>
		<path class="st0" d="M4.9,27.2c-0.4-0.6-0.7-1.3-0.9-1.9C4.3,25.9,4.6,26.5,4.9,27.2z"/>
		<path class="st0" d="M11.5,32.5c0.9,0.4,1.8,0.7,2.7,0.9C13.3,33.1,12.4,32.8,11.5,32.5L11.5,32.5z"/>
		<path class="st0" d="M34.8,21.7c0-0.1,0-0.1,0-0.2c-0.1-0.4-0.1-0.8-0.2-1.1c-0.1-0.4-0.2-0.7-0.4-1.1c-0.2-0.4-0.3-0.7-0.5-1
			c-0.1-0.2-0.2-0.3-0.3-0.5c-0.4-0.7-1-1.3-1.6-1.9c-2.8-2.8-7.4-4.5-12.5-4.5s-9.7,1.8-12.5,4.5c-0.6,0.6-1.1,1.2-1.6,1.9
			c-0.1,0.2-0.2,0.3-0.3,0.5c-0.2,0.3-0.4,0.7-0.5,1c-0.2,0.4-0.3,0.7-0.4,1.1c-0.1,0.4-0.2,0.7-0.2,1.1c-0.1,0.4-0.1,0.8-0.1,1.2
			c0,0.9,0.1,1.8,0.4,2.6c0.2,0.7,0.5,1.3,0.9,1.9c0.1,0.2,0.2,0.3,0.3,0.5c0.4,0.6,0.9,1.2,1.4,1.7c0.3,0.3,0.6,0.5,0.9,0.8l-2,5.7
			l6-3.3c0.9,0.4,1.8,0.7,2.7,0.9c0.6,0.2,1.3,0.3,1.9,0.4c1,0.1,2,0.2,3.1,0.2c2.1,0,4.1-0.3,5.9-0.8c0.9-0.3,1.7-0.6,2.6-1
			c3.7-1.7,6.3-4.6,7-7.9c0.1-0.5,0.2-1.1,0.2-1.6C34.9,22.3,34.9,22,34.8,21.7z M9.8,24.8c-0.9,0-1.7-0.8-1.7-1.7
			c0-0.9,0.8-1.7,1.7-1.7s1.7,0.8,1.7,1.7C11.5,24,10.7,24.8,9.8,24.8z M16.1,24.8c-0.9,0-1.7-0.8-1.7-1.7c0-0.9,0.8-1.7,1.7-1.7
			c0.9,0,1.7,0.8,1.7,1.7C17.8,24,17.1,24.8,16.1,24.8z M22.5,24.8c-0.9,0-1.7-0.8-1.7-1.7c0-0.9,0.8-1.7,1.7-1.7s1.7,0.8,1.7,1.7
			C24.2,24,23.4,24.8,22.5,24.8z M28.8,24.8c-0.9,0-1.7-0.8-1.7-1.7c0-0.9,0.8-1.7,1.7-1.7c0.9,0,1.7,0.8,1.7,1.7
			C30.5,24,29.7,24.8,28.8,24.8z"/>
		<g>
			<circle class="st0" cx="41.9" cy="32" r="1.7"/>
			<circle class="st0" cx="35.6" cy="32" r="1.7"/>
			<circle class="st0" cx="48.2" cy="32" r="1.7"/>
		</g>
	</g>
	<rect class="st1" width="60" height="60"/>
</g>
</svg>
