<?xml version="1.0" encoding="utf-8"?>
<!-- Generator: Adobe Illustrator 21.0.2, SVG Export Plug-In . SVG Version: 6.00 Build 0)  -->
<!DOCTYPE svg PUBLIC "-//W3C//DTD SVG 1.1//EN" "http://www.w3.org/Graphics/SVG/1.1/DTD/svg11.dtd">
<svg version="1.1" id="レイヤー_1" xmlns="http://www.w3.org/2000/svg" xmlns:xlink="http://www.w3.org/1999/xlink" x="0px"
	 y="0px" viewBox="0 0 67.9 67.9" style="enable-background:new 0 0 67.9 67.9;" xml:space="preserve">
<style type="text/css">
	.st0{fill:#2854A1;}
	.st1{opacity:0.19;}
	.st2{clip-path:url(#SVGID_2_);}
	.st3{clip-path:url(#SVGID_4_);}
	.st4{fill:#FFFFFF;}
	.st5{fill:none;stroke:#FFFFFF;stroke-width:0.8717;stroke-miterlimit:10;}
	.st6{fill:none;stroke:#FFFFFF;stroke-width:1.3787;stroke-linecap:round;stroke-linejoin:round;stroke-miterlimit:10;}
	.st7{fill:none;stroke:#FFFFFF;stroke-width:1.25;stroke-linecap:round;stroke-linejoin:round;stroke-miterlimit:10;}
	.st8{fill:none;stroke:#FFFFFF;stroke-width:1.5158;stroke-linecap:round;stroke-linejoin:round;stroke-miterlimit:10;}
	.st9{fill:none;stroke:#FFFFFF;stroke-width:1.1729;stroke-linecap:round;stroke-linejoin:round;stroke-miterlimit:10;}
	.st10{fill:none;stroke:#FFFFFF;stroke-width:1.3;stroke-miterlimit:10;}
	.st11{fill:none;stroke:#FFFFFF;stroke-miterlimit:10;}
	.st12{fill:none;stroke:#000000;stroke-width:0.246;stroke-miterlimit:10;}
	.st13{fill:none;stroke:#FFFFFF;stroke-width:9.086470e-02;stroke-linecap:round;stroke-linejoin:round;}
	.st14{fill:none;stroke:#FFFFFF;stroke-width:0.2044;stroke-linecap:round;stroke-linejoin:round;}
	.st15{fill:none;stroke:#FFFFFF;stroke-width:0.492;stroke-miterlimit:10;}
	.st16{fill:none;stroke:#FFFFFF;stroke-linecap:round;stroke-miterlimit:10;}
	.st17{fill:none;stroke:#FFFFFF;stroke-width:0.5814;stroke-linecap:round;stroke-miterlimit:10;}
	.st18{fill:none;stroke:#FFFFFF;stroke-linecap:round;stroke-linejoin:bevel;stroke-miterlimit:10;}
</style>
<g>
	<g>
		<path class="st4" d="M42.9,26.5c0.7-0.5,1.2-1.2,1.7-1.9c1.6-2.9,0.5-6.5-2.4-8.1c-2.9-1.6-6.5-0.5-8.1,2.4
			c-0.4,0.8-0.7,1.6-0.7,2.5L42.9,26.5z"/>
		<path class="st4" d="M33.4,22.3c0.2,1.9,1.3,3.7,3.1,4.7c1.8,1,3.9,0.9,5.6,0L33.4,22.3z"/>
	</g>
	<polygon class="st4" points="27.1,50.8 21.8,47.9 31.8,26.1 39.7,30.4 	"/>
	<path class="st4" d="M24.8,48.9c0,0-1.8,3.7,4.2,4.5c1.8,0.2,2,2.1,2,2.1"/>
</g>
<circle class="st5" cx="33.9" cy="33.9" r="33.5"/>
</svg>
