<?xml version="1.0" encoding="utf-8"?>
<!-- Generator: Adobe Illustrator 16.0.4, SVG Export Plug-In . SVG Version: 6.00 Build 0)  -->
<!DOCTYPE svg PUBLIC "-//W3C//DTD SVG 1.1//EN" "http://www.w3.org/Graphics/SVG/1.1/DTD/svg11.dtd">
<svg version="1.1" id="レイヤー_1" xmlns="http://www.w3.org/2000/svg" xmlns:xlink="http://www.w3.org/1999/xlink" x="0px"
	 y="0px" width="21px" height="17.485px" viewBox="0 0 21 17.485" enable-background="new 0 0 21 17.485" xml:space="preserve">
<path fill="#FFFFFF" d="M10.547,0c5.129,0,8.16,1.371,9.781,3.75c1.019,1.498,0.764,3.39,0,3.751
	c-0.531,0.252-3.752-1.537-3.937-1.965c-0.121-0.279,0.152-0.994,0-1.251C15.267,2.384,12.41,2.496,10.427,2.5
	C8.474,2.505,5.808,2.29,4.702,4.166c-0.152,0.258,0.213,1.029,0,1.251C4.29,5.844,1.189,7.514,0.647,7.501
	c-0.835-0.019-0.889-2.134,0-3.751C2.049,1.201,6.253,0,10.547,0"/>
<rect x="9.425" y="4.972" fill="#FFFFFF" width="2.15" height="2.688"/>
<path fill="#FFFFFF" d="M10.5,7.66c-5.307,0-9.609,4.302-9.609,9.609c0,0.023,0.001,0.045,0.002,0.066h19.214
	c0-0.021,0.002-0.043,0.002-0.066C20.109,11.962,15.808,7.66,10.5,7.66 M10.491,15.858c-1.67,0-3.023-1.354-3.023-3.024
	c0-1.67,1.353-3.022,3.023-3.022s3.023,1.353,3.023,3.022C13.515,14.504,12.161,15.858,10.491,15.858"/>
<path fill="none" stroke="#FFFFFF" stroke-width="0.297" stroke-linecap="round" stroke-linejoin="round" d="M10.5,7.66
	c-5.307,0-9.609,4.302-9.609,9.609c0,0.023,0.001,0.045,0.002,0.066h19.214c0-0.021,0.002-0.043,0.002-0.066
	C20.109,11.962,15.808,7.66,10.5,7.66z M10.491,15.858c-1.67,0-3.023-1.354-3.023-3.024c0-1.67,1.353-3.022,3.023-3.022
	s3.023,1.353,3.023,3.022C13.515,14.504,12.161,15.858,10.491,15.858z"/>
</svg>
