<?xml version="1.0" encoding="utf-8"?>
<!-- Generator: Adobe Illustrator 24.3.0, SVG Export Plug-In . SVG Version: 6.00 Build 0)  -->
<svg version="1.1" id="レイヤー_1" xmlns="http://www.w3.org/2000/svg" xmlns:xlink="http://www.w3.org/1999/xlink" x="0px"
	 y="0px" viewBox="0 0 60 60" style="enable-background:new 0 0 60 60;" xml:space="preserve">
<style type="text/css">
	.st0{fill:#ff8b05;}
	.st1{fill:none;}
	.st2{fill:#FFFFFF;}
</style>
<g>
	<path class="st0" d="M2338,173.8c0.8,17.7,17.7,47.7,23.7,58.1c6,10.4,23.6,40,38.5,49.6c3.6,2.4,9.6,3.1,14.7,2
		c5-1,13.4-4.7,15.1-7.6c1.7-2.9,1.9-5.2,1.5-6.5c-0.7-2.6-3.2-7.4-6.7-12.2c-4-5.6-9.5-10.6-11.7-11.2c-2.2-0.6-4,0.8-5.3,1.9
		c-1.2,1.1-7.5,6.6-10.7,5.4c-3.3-1.1-17.6-21.6-22-29.2c-4.4-7.6-14.9-30.2-14.3-33.6c0.7-3.4,8.5-6,10.1-6.6
		c1.6-0.5,3.7-1.4,4.3-3.6c0.6-2.2-1-9.5-3.8-15.8c-2.5-5.4-5.4-10-7.3-11.9c-1-1-3-2-6.4-1.9c-3.3,0.1-10.7,5.4-14.1,9.3
		C2340.2,163.9,2337.7,169.4,2338,173.8z"/>
</g>
<g>
	<g>
		<path class="st0" d="M2841,922.7h-47.6c-1.6,0-2.8-1.3-2.8-2.8v-40.3c0-1.6-1.3-2.8-2.8-2.8h-70.4c-1.6,0-2.8,1.3-2.8,2.8v40.3
			c0,1.6-1.3,2.8-2.8,2.8H2664c-1.6,0-2.8,1.3-2.8,2.8v85.9c0,1.6,1.3,2.8,2.8,2.8h58.5c1.6,0,2.8-1.3,2.8-2.8V983
			c0-1.6,1.3-2.8,2.8-2.8h49.2c1.6,0,2.8,1.3,2.8,2.8v28.5c0,1.6,1.3,2.8,2.8,2.8h58c1.6,0,2.8-1.3,2.8-2.8v-85.9
			C2843.8,924,2842.5,922.7,2841,922.7z M2689.2,993.4H2675v-20.2h14.2V993.4z M2689.2,958.8H2675v-20.2h14.2V958.8z M2707.9,993.4
			h-14.2v-20.2h14.2V993.4z M2707.9,958.8h-14.2v-20.2h14.2V958.8z M2750.3,958.8h-14.2v-20.2h14.2V958.8z M2769,958.8h-14.2v-20.2
			h14.2V958.8z M2752.5,928.4c-12.1,0-22-9.9-22-22c0-12.1,9.9-22,22-22c12.1,0,22,9.9,22,22
			C2774.5,918.6,2764.6,928.4,2752.5,928.4z M2812.1,993.4h-14.2v-20.2h14.2V993.4z M2812.1,958.8h-14.2v-20.2h14.2V958.8z
			 M2830.8,993.4h-14.2v-20.2h14.2V993.4z M2830.8,958.8h-14.2v-20.2h14.2V958.8z"/>
		<polygon class="st0" points="2752.2,913 2737.6,903.1 2741.3,897.8 2751.7,904.8 2764.8,893.2 2769.1,898 		"/>
	</g>
	<rect x="2652.5" y="845.5" class="st1" width="200" height="200"/>
</g>
<g>
	<g>
		<path class="st1" d="M1751.2,178.2c0.3,1.2,0.6,2.5,0.8,3.7C1751.8,180.7,1751.5,179.4,1751.2,178.2z"/>
		<path class="st1" d="M1748.1,171.1c0.7,1.1,1.2,2.3,1.8,3.5C1749.4,173.4,1748.8,172.2,1748.1,171.1z"/>
		<path class="st1" d="M1650.4,174.6c0.5-1.2,1.1-2.3,1.8-3.5C1651.5,172.2,1650.9,173.4,1650.4,174.6z"/>
		<path class="st1" d="M1752,182.7c0-0.2,0-0.5-0.1-0.7C1752,182.2,1752,182.4,1752,182.7L1752,182.7z"/>
		<polygon class="st1" points="1654.5,229.6 1674.3,218.6 1674.3,218.6 		"/>
		<path class="st1" d="M1741.9,163.2c-9.5-9.2-24.7-15.2-41.7-15.2s-32.2,6-41.7,15.2c9.5-9.2,24.7-15.2,41.7-15.2
			S1732.4,154,1741.9,163.2z"/>
		<path class="st1" d="M1648.1,185.8c0-1.3,0.1-2.6,0.3-3.9C1648.2,183.2,1648.1,184.5,1648.1,185.8z"/>
		<path class="st1" d="M1741.9,163.2c2,1.9,3.7,4,5.2,6.2C1745.6,167.2,1743.9,165.2,1741.9,163.2z"/>
		<path class="st1" d="M1648.4,182c0.2-1.3,0.4-2.5,0.8-3.7C1648.8,179.4,1648.5,180.7,1648.4,182z"/>
		<path class="st1" d="M1653.2,169.4c1.5-2.2,3.2-4.3,5.2-6.2C1656.4,165.2,1654.7,167.2,1653.2,169.4z"/>
		<path d="M1752.2,185.8c0-1-0.1-2.1-0.2-3.1l0,0C1752.2,183.7,1752.2,184.8,1752.2,185.8z"/>
		<path class="st0" d="M1823.9,229.1v-22.5c0-13.2-10.7-23.9-23.9-23.9h-39.4c0.1,1,0.1,2.1,0.1,3.1c0,1.8-0.1,3.6-0.4,5.4h39.6
			c8.5,0,15.4,6.9,15.4,15.4v22.5c0,5.5-3,10.6-7.8,13.4l-3,1.7l3,9.7l-15.5-9.4h-48.3c-8.5,0-15.4-6.9-15.4-15.4v-2.3
			c-2.7,1.1-5.6,2-8.5,2.8c0.3,12.9,10.9,23.4,23.9,23.4h45.9l32.5,19.7l-7.6-24.7C1820.4,243.4,1823.9,236.5,1823.9,229.1z"/>
		<path class="st2" d="M1661,210.7c-1-0.8-2-1.7-2.9-2.6C1659.1,209,1660,209.9,1661,210.7z"/>
		<path class="st2" d="M1658.2,208.1c-1.8-1.8-3.4-3.7-4.8-5.7C1654.8,204.4,1656.4,206.3,1658.2,208.1z"/>
		<path class="st2" d="M1689.9,222.8c-2.2-0.3-4.4-0.8-6.5-1.3C1685.5,222.1,1687.6,222.5,1689.9,222.8z"/>
		<path class="st2" d="M1652.4,200.9c-1.2-2.1-2.2-4.2-3-6.4C1650.2,196.7,1651.2,198.8,1652.4,200.9z"/>
		<path class="st2" d="M1674.3,218.6c2.9,1.2,5.9,2.2,9,3C1680.2,220.8,1677.2,219.8,1674.3,218.6L1674.3,218.6z"/>
		<path class="st0" d="M1752,182.7c0-0.2,0-0.5-0.1-0.7c-0.2-1.3-0.4-2.5-0.8-3.7c-0.3-1.2-0.8-2.4-1.3-3.6
			c-0.5-1.2-1.1-2.3-1.8-3.5c-0.3-0.6-0.7-1.1-1-1.7c-1.5-2.2-3.2-4.3-5.2-6.2c-9.5-9.2-24.7-15.2-41.7-15.2s-32.2,6-41.7,15.2
			c-2,1.9-3.7,4-5.2,6.2c-0.4,0.5-0.7,1.1-1,1.7c-0.7,1.1-1.2,2.3-1.8,3.5c-0.5,1.2-0.9,2.4-1.3,3.6c-0.3,1.2-0.6,2.5-0.8,3.7
			c-0.2,1.3-0.3,2.6-0.3,3.9c0,3,0.5,5.9,1.4,8.7c0.7,2.2,1.7,4.4,3,6.4c0.3,0.5,0.6,1,1,1.5c1.4,2,3,3.9,4.8,5.7
			c0.9,0.9,1.9,1.8,2.9,2.6l-6.6,18.9l19.8-11c2.9,1.2,5.9,2.2,9,3c2.1,0.5,4.3,0.9,6.5,1.3c3.3,0.5,6.8,0.7,10.3,0.7
			c7,0,13.6-1,19.7-2.8c3-0.9,5.8-2,8.5-3.2c12.4-5.8,21.2-15.3,23.3-26.3c0.3-1.8,0.5-3.6,0.5-5.4
			C1752.2,184.8,1752.2,183.7,1752,182.7z M1668.6,192.9c-3.1,0-5.7-2.5-5.7-5.7c0-3.1,2.5-5.7,5.7-5.7s5.7,2.5,5.7,5.7
			C1674.3,190.4,1671.7,192.9,1668.6,192.9z M1689.7,192.9c-3.1,0-5.7-2.5-5.7-5.7c0-3.1,2.5-5.7,5.7-5.7s5.7,2.5,5.7,5.7
			C1695.4,190.4,1692.9,192.9,1689.7,192.9z M1710.8,192.9c-3.1,0-5.7-2.5-5.7-5.7c0-3.1,2.5-5.7,5.7-5.7s5.7,2.5,5.7,5.7
			C1716.5,190.4,1714,192.9,1710.8,192.9z M1732,192.9c-3.1,0-5.7-2.5-5.7-5.7c0-3.1,2.5-5.7,5.7-5.7c3.1,0,5.7,2.5,5.7,5.7
			C1737.6,190.4,1735.1,192.9,1732,192.9z"/>
		<g>
			<ellipse class="st0" cx="1779" cy="218.8" rx="6.4" ry="3.7"/>
			<ellipse class="st0" cx="1755.2" cy="218.8" rx="6.4" ry="3.7"/>
			<ellipse class="st0" cx="1802.7" cy="218.8" rx="6.4" ry="3.7"/>
		</g>
	</g>
	<rect x="1636" y="110.4" class="st1" width="200" height="200"/>
</g>
<g>
	<g>
		<path class="st0" d="M2082.1,273.2h-87.5c-2.3,0-4.3-1.9-4.3-4.3V152.7c0-2.3,1.9-4.3,4.3-4.3h104.9c2.3,0,4.3,1.9,4.3,4.3v96.9
			c0,1.1-0.4,2.1-1.1,2.8l-17.4,19.3C2084.5,272.7,2083.3,273.2,2082.1,273.2z M1998.9,264.7h81.3l15.1-16.7v-91h-96.4V264.7z"/>
		<path class="st0" d="M2073.9,262.4c-1.6,0-2.8-1.3-2.8-2.8v-16.1c0-1.6,1.3-2.8,2.8-2.8h15.6c1.6,0,2.8,1.3,2.8,2.8
			s-1.3,2.8-2.8,2.8h-12.7v13.2C2076.8,261.1,2075.5,262.4,2073.9,262.4z"/>
		<g>
			<rect x="2013.1" y="170.6" class="st0" width="68" height="5.7"/>
			<rect x="2013.1" y="187.2" class="st0" width="68" height="5.7"/>
			<rect x="2013.1" y="203.8" class="st0" width="68" height="5.7"/>
			<rect x="2013.1" y="220.4" class="st0" width="68" height="5.7"/>
		</g>
	</g>
	<rect x="1947.1" y="110.8" class="st1" width="200" height="200"/>
</g>
<rect x="2284.8" y="117.4" class="st1" width="200" height="200"/>
<g>
	<g>
		<path class="st0" d="M2907.3,147.4c-3.4-0.9-6.9,1.1-7.8,4.5l-4.8,21.3c-3.2,3.5-6.8,6.9-9.8,9.6h-6.4c6.8-2.7,11.5-9.4,11.5-17.1
			c0-10.2-8.3-18.5-18.5-18.5c-10.2,0-18.5,8.3-18.5,18.5c0,7.7,4.8,14.4,11.5,17.1h-8.4c-2.3-0.1-4.6,1.1-5.8,3.3l-11.6,20.9
			c-0.4,0.7-0.7,1.5-0.8,2.3l-1,18.1c-0.4,3.5,0.8,6.7,4.3,7.1c0.3,0,0.5,0,0.8,0c3.2,0,5.3-2.4,5.7-5.6l2.8-16.9l3.5-5l-1.9,24.6
			l-4.8,12.8c-0.7,1.9-0.5,4,0.6,5.7l8.6,13.5c1.2,1.9,3.3,2.9,5.4,2.9c1.2,0,2.4-0.3,3.4-1c3-1.9,3.8-5.8,2-8.8l-5.9-9.2l10.3-13.2
			l5.9,34c0,3.5,2.8,6.4,6.4,6.4s6.4-2.8,6.4-6.4l1-34.4c0-0.2,0-0.4,0-0.7l-1.6-31.7c4.2-5.6,14.2-19.1,16.2-21.8
			c1.3-1.3,4.7-24.6,4.7-24.6C2911.4,151.8,2910.7,148.3,2907.3,147.4z"/>
		<path class="st0" d="M2832.4,226.9l-2.2-15.8c-0.1-0.8-0.3-1.5-0.7-2.2l-12.1-17.9c-1.1-2-3.2-3.1-5.4-3h-6.6
			c6-2.5,10.2-8.4,10.2-15.3c0-9.1-7.4-16.6-16.6-16.6c-9.1,0-16.5,7.4-16.5,16.6c0,6.9,4.2,12.8,10.2,15.3h-4.8
			c-2.8-2.5-6.2-5.7-9.1-9l-4.5-19.8c-0.9-3.2-4.1-5-7.3-4.2c-3.2,0.8-3.8,4.1-3,7.3c0,0,3.2,21.7,4.4,22.9
			c2.3,3.1,15.9,21.4,16.8,22.5c0.1,0.1,0.2,0.1,0.2,0.2l-1.1,14.2l-7.1,26.2l7.7-0.6l0.6,21.2c0,3.3,2.7,5.9,5.9,5.9s5-2.7,5-5.9
			l2.1-22.2l2.5-0.2l-1.4,5.8c-0.7,1.7-0.5,3.7,0.5,5.3l8,12.6c1.1,1.8,3,2.7,5,2.7c1.1,0,1.4-0.3,2.4-0.9c2.8-1.8,2.3-5.4,0.5-8.2
			l-4.7-8.6l4.3-9.8l7.9-0.6l-8.5-19.1l-1.5-19.2l4.8,7.2l3.9,14.7c0.4,3,2.3,5.2,5.3,5.2c0.2,0,0.5,0,0.7,0
			C2831.6,233.1,2832.8,230.1,2832.4,226.9z"/>
	</g>
	<rect x="2737.3" y="111" class="st1" width="200" height="200"/>
</g>
<g>
	<g>
		<path class="st0" d="M1877,556.8c-0.1,0-0.1-0.1-0.2-0.1c-0.9-0.6-1.8-1.1-2.7-1.6c-0.2-0.1-0.3-0.2-0.5-0.3
			c-0.9-0.5-1.8-0.9-2.8-1.3c-0.2-0.1-0.4-0.2-0.6-0.2c-1-0.4-1.9-0.7-3-1.1c-0.1,0-0.2-0.1-0.3-0.1c-4-1.2-8.2-1.7-12.5-1.5
			c-0.3,0-0.7,0-1,0.1c-0.6,0-1.2,0-1.8,0.1c-6.5,0.8-12.7,3.4-17.9,7.5c-9.1,7.2-14.2,17.7-14.2,29.1c0,12.1,5,22.2,15.2,30.9
			c1.2,1,2.3,5,3,7.9c1.1,4.2,2.4,9.3,5.6,12.5c0.6,0.6,1.5,0.9,2.3,0.9h21.4c0.9,0,1.7-0.3,2.3-0.9c3.2-3.1,4.5-8.3,5.6-12.5
			c0.8-2.9,1.8-6.9,3-7.9c10.3-8.7,15.2-18.8,15.2-30.9c0-9.9-3.8-19.1-10.8-26.1C1880.8,559.6,1879,558.1,1877,556.8z M1872,611
			c-3.5,3-4.8,7.9-6,12.7c-0.9,3.3-2.1,8.3-3.7,8.3h-11.6c-1.5,0-2.8-5-3.7-8.3c-1.2-4.8-2.5-9.8-6-12.7
			c-8.1-6.9-11.9-14.4-11.9-23.6c0-7.3,2.9-14.2,8-19.4c5.2-5.2,12.1-8,19.4-8c7.3,0,14.2,2.9,19.4,8c5.2,5.2,8,12.1,8,19.4
			C1883.9,596.7,1880.1,604.2,1872,611z"/>
		<path class="st0" d="M1843.8,648.9c0,4,2,9.9,5.6,9.9c3.6,0,10.1,0,14.2,0c4,0,5.5-5.6,5.6-9.5c0-0.1,0-0.2,0-0.3h0c0,0,0,0,0,0
			H1843.8L1843.8,648.9z"/>
		<g>
			<path class="st0" d="M1856.5,518.3c-2.6,0-4.8,2.1-4.8,4.8l1.2,14c0,1.9,1.6,3.5,3.6,3.5s3.5-1.6,3.6-3.5l1.2-13.9l0-0.1
				C1861.2,520.5,1859.1,518.3,1856.5,518.3z"/>
			<path class="st0" d="M1812.9,536L1812.9,536c-0.3-0.3-0.5-0.4-0.6-0.5c-0.2-0.1-0.4-0.3-0.6-0.4c-0.4-0.2-0.7-0.4-1.1-0.5
				c-0.2,0-0.3-0.1-0.5-0.1c-0.4-0.1-0.9-0.1-1.3,0c-0.2,0-0.3,0.1-0.5,0.1c-0.4,0.1-0.8,0.3-1.1,0.5c-0.2,0.1-0.4,0.2-0.5,0.4
				c-0.1,0.1-0.3,0.2-0.5,0.4c-1.9,1.9-1.9,4.9,0,6.7l10.7,9c0.7,0.6,1.5,1,2.5,1c0,0,0,0,0,0c1,0,1.9-0.4,2.5-1
				c0.7-0.7,1-1.6,1-2.5c0-0.9-0.4-1.8-1-2.5L1812.9,536z"/>
			<path class="st0" d="M1804.5,578l-13.4-3.6l-0.1,0c-1.3-0.2-2.5,0.1-3.6,0.8c-1,0.7-1.7,1.8-2,3.1c-0.2,1.3,0.1,2.5,0.8,3.6
				c0.7,1,1.8,1.7,3.1,2l14,1.2c0.2,0,0.4,0,0.6,0c1.7,0,3.2-1.2,3.5-3C1807.6,580.2,1806.4,578.3,1804.5,578z"/>
			<path class="st0" d="M1907.4,542.7c0.9-0.9,1.4-2.1,1.4-3.4c0-1.3-0.5-2.5-1.4-3.4c-0.2-0.2-0.4-0.3-0.5-0.4
				c-0.2-0.1-0.3-0.2-0.5-0.3c-0.4-0.2-0.8-0.4-1.1-0.5c-0.2,0-0.3-0.1-0.5-0.1c-0.4-0.1-0.9-0.1-1.3,0c-0.2,0-0.4,0.1-0.5,0.1
				c-0.4,0.1-0.8,0.3-1.2,0.5c-0.2,0.1-0.4,0.2-0.5,0.4c-0.1,0.1-0.3,0.2-0.5,0.4l-9,10.7c-1.3,1.4-1.3,3.6,0,5c0.7,0.7,1.6,1,2.5,1
				c0.9,0,1.8-0.4,2.5-1L1907.4,542.7L1907.4,542.7z"/>
			<path class="st0" d="M1927.5,578.2c-0.2-1.3-0.9-2.3-2-3.1c-1-0.7-2.3-1-3.6-0.8l-13.6,3.6c-1.9,0.4-3.2,2.2-2.8,4.1
				c0.3,1.7,1.8,3,3.5,3c0.2,0,0.4,0,0.6,0l13.8-1.2l0.1,0c1.3-0.2,2.3-0.9,3.1-2C1927.5,580.7,1927.7,579.5,1927.5,578.2z"/>
		</g>
		<path class="st0" d="M1869.8,645c0,0.8-0.6,1.4-1.4,1.4h-23.9c-0.8,0-1.4-0.6-1.4-1.4v-1.4c0-0.8,0.6-1.4,1.4-1.4h23.9
			c0.8,0,1.4,0.6,1.4,1.4V645z"/>
	</g>
	<rect x="1756.5" y="488.5" class="st1" width="200" height="200"/>
</g>
<g>
	<g>
		<rect x="2433.7" y="569.6" class="st0" width="36.4" height="36.4"/>
		<g>
			<path class="st0" d="M2340.6,606h-47.1l23.5-40.8L2340.6,606z"/>
		</g>
		<path class="st0" d="M2459.8,611h-17.6c-4.3,0-8,3.1-8.6,7.4l-3.8,18.4l-18.4-27.1c-1.9-3.6-6-5.3-9.8-4.4c9.6-6.1,16-16.8,16-29
			c0-18.9-15.3-34.2-34.2-34.2c-18.9,0-34.2,15.3-34.2,34.2c0,12.2,6.4,23,16.1,29c-3.8-1-8,0.7-9.9,4.3l-18.4,27.1l-3.8-18.4
			c-0.7-4.3-4.3-7.4-8.6-7.4h-17.6c-4.8,0-8.7,3.9-8.7,8.7s3.9,8.7,8.7,8.7h10.1l8.8,26.6c0.6,3.7,3.5,6.7,7.2,7.3
			c0.5,0.1,1,0.1,1.5,0.1c3.2,0,5.2-1.7,7.7-4.6l15.2-16.5l-2.3,28.3h56.6l-2.3-28.2l15.1,16.3c2.8,2.8,4.5,4.6,7.7,4.6
			c0.5,0,1,0,1.5-0.1c3.7-0.6,6.6-3.6,7.2-7.3l8.8-26.6h10.1c4.8,0,8.7-3.9,8.7-8.7S2464.6,611,2459.8,611z M2382.3,621.6
			c-3.4,0-6-2.4-6-6c0-3.6,2.6-6,6-6c3.3,0,6,2.4,6,6C2388.2,619.2,2385.6,621.6,2382.3,621.6z M2394.5,588.2
			c-4.7,3.2-7.6,4.8-7.6,9.7v1.5c0,2.5-1.7,3.8-4.5,3.8c-2.8,0-4.6-1.3-4.6-3.8v-1.6c0-4.4,0.9-6.9,2.8-9.4c1.5-1.9,2.2-2.5,6.8-5.5
			c4.5-3.1,6-4.7,6-8c0-4.6-3.6-7.3-9.3-7.3c-5.5,0-8.4,2.7-10,7.1c-0.9,2.2-2.3,3-4.1,3c-0.7,0-1.4-0.1-2.2-0.4
			c-1.9-0.5-3.6-1.7-3.6-3.9c0-0.4,0.1-1,0.3-1.6c1.2-3.3,3.1-6.2,5.8-8.4c3.5-2.7,8-4.3,14.4-4.3c11.5,0,18.8,5.9,18.8,15.1
			C2403.4,581.4,2399.4,584.7,2394.5,588.2z"/>
	</g>
	<rect x="2281.8" y="505.9" class="st1" width="200" height="200"/>
</g>
<g>
	<g>
		<path class="st0" d="M2923.6,583.6c6.7-7.9,11-14.8,12.9-20.5c2.5-7.8,0.1-12.5-2.4-15l-0.2-0.2c-2.3-2.2-5.3-3.4-8.8-3.4
			c-1.9,0-4,0.4-6.2,1.1c-5.7,1.8-12.6,6.2-20.5,12.9c-5.5,4.6-10.7,9.9-15.6,15.5c-0.5,0.6-13.8,16.1-25.4,29.6
			c0.6,0.8,5.3,7.3,9.5,11.5c3.8,3.8,9.8,8.3,11.4,9.5c13.8-11.8,29.8-25.4,29.8-25.4C2913.7,594.3,2918.9,589.1,2923.6,583.6z"/>
		<path class="st0" d="M2861.7,620.4c-3.8-3.8-7.7-9-9.1-10.9c-6,7-11.6,13.4-12.1,13.9c-2.7,2.9,0,6.5,0.9,7.7
			c1.1,1.5,2.7,3.2,4.4,5c1.8,1.8,3.5,3.3,5,4.4c1,0.7,2.8,2.1,4.8,2.1c1.1,0,2.1-0.4,2.9-1.1c0.4-0.4,6.9-6.1,14-12.1
			C2866.3,625,2866.2,624.9,2861.7,620.4C2861.7,620.4,2861.7,620.4,2861.7,620.4z"/>
		<path class="st1" d="M2828.2,662c2.3-2.3,2.3-5.9,0-8.2c-2.3-2.3-5.9-2.3-8.2,0c-1.9,1.9-2.2,4.8-0.9,7l-16.1,16.8l1.4,1.4
			l16.8-16.1C2823.4,664.2,2826.3,663.9,2828.2,662z"/>
		<path class="st0" d="M2819.1,660.8c-1.3-2.2-1-5.1,0.9-7c2.3-2.3,5.9-2.3,8.2,0c2.3,2.3,2.3,5.9,0,8.2c-1.9,1.9-4.8,2.2-7,0.9
			l-16.8,16.1l1.7,1.7c6.5-2.9,16.5-6.5,26.9-6.6c3.2-7.2,7.9-16,15.8-24.8c0.9-1,1.9-2.1,2.9-3.1c0,0,0,0,0,0c0,0,0,0,0,0
			c-0.8-0.5-1.6-0.8-2.1-1.2c-1.9-1.5-4.5-3.3-6.9-5.7c-2.4-2.4-4.2-5-5.7-6.9c-0.3-0.4-0.6-1.1-1-1.8c0-0.1-0.1-0.1-0.1-0.2
			c0,0,0,0,0,0c0,0,0,0,0,0c-9.8,9.6-19.8,15.1-27.9,18.7c-0.4,10.1-3.9,20.2-6.8,26.8l1.8,1.8L2819.1,660.8z"/>
	</g>
	<rect x="2769.4" y="512.6" class="st1" width="200" height="200"/>
</g>
<g>
	<g>
		<path class="st0" d="M1888,902.9h-20.8v-9.2h14l-7.1-18.2h-86.1l-7.1,18.2h15.7v9.2h-22.4c-1.5,0-2.9-0.8-3.8-2
			c-0.9-1.3-1-2.9-0.5-4.3l10.7-27.5c0.7-1.8,2.4-2.9,4.3-2.9h92.4c1.9,0,3.6,1.2,4.3,2.9l10.7,27.5c0.6,1.4,0.4,3-0.5,4.3
			C1890.9,902.1,1889.5,902.9,1888,902.9z"/>
		<path class="st0" d="M1869.3,929h-76.5v-46.9h76.5V929z M1798.4,923.3h65.2v-35.6h-65.2V923.3z"/>
		<path class="st0" d="M1888,1021.4h-113.9c-2.5,0-4.6-2.1-4.6-4.6V900.2c0-2,1.3-3.8,3.3-4.4c1.9-0.6,4,0.2,5.2,1.8l16.1,24h74.1
			l16.1-24c1.1-1.7,3.2-2.4,5.2-1.8c1.9,0.6,3.3,2.4,3.3,4.4v116.6C1892.6,1019.4,1890.5,1021.4,1888,1021.4z M1778.7,1012.2h104.7
			v-96.8l-9,13.5c-0.9,1.3-2.3,2-3.8,2h-79c-1.5,0-3-0.8-3.8-2l-9-13.5V1012.2z"/>
		<g>
			<path class="st0" d="M1796.2,985.3l-3.5,8.7h-13.8l19.2-50h14.2l18.8,50h-13.9l-3.3-8.7H1796.2z M1805.3,959.5h-0.1l-5.4,15.9
				h10.8L1805.3,959.5z"/>
			<path class="st0" d="M1882.8,968.1c0,16.2-11.6,27.6-27.7,27.6c-16.1,0-27.7-11.4-27.7-27.6c0-15.1,13.3-25.7,27.7-25.7
				S1882.8,953,1882.8,968.1z M1841,968.2c0,8.6,6.4,14.9,14.1,14.9c7.8,0,14.1-6.3,14.1-14.9c0-6.9-6.4-13.2-14.1-13.2
				C1847.4,955,1841,961.3,1841,968.2z"/>
		</g>
		<g>
			<rect x="1805.8" y="894.3" class="st0" width="51" height="4.3"/>
			<rect x="1805.8" y="903.1" class="st0" width="51" height="4.3"/>
			<rect x="1805.8" y="911.9" class="st0" width="51" height="4.3"/>
		</g>
	</g>
	<rect x="1731" y="843.8" class="st1" width="200" height="200"/>
</g>
<g>
	<g>
		<rect x="2167.6" y="835.7" class="st1" width="200" height="200"/>
		<g>
			<path class="st0" d="M2266.7,961.6c-4.2-1.4-6.6,2.9-6.9,3.6c-0.2,0.7-5.1,11.5-5.1,11.5l-9.1-12.2c-1.2-2.3-4.1-3.9-7.1-3.9
				l-2.3-0.1c6-2.7,10.2-8.7,10.2-15.7c0-9.5-7.7-17.2-17.2-17.2c-9.5,0-17.2,7.7-17.2,17.2c0,6.6,3.7,12.4,9.2,15.2l-2.5-0.1
				c0,0-30.2-24.2-31-24.7s-4.1-2.1-6.6,0.8c-2.1,2.5-0.8,6.5,0.9,7.8c0.8,0.6,32.1,31.3,32.1,31.3l-2.6,19.7h15.8h1.5h15.8
				l-1.2-12.5l8.2,6.2c2.1,2.1,4.9,2.1,6.3,1.7c1.9-0.6,2.8-2.1,4.1-5.2c0,0,7.6-16.1,8-17.1S2270.7,962.9,2266.7,961.6z"/>
			<path class="st0" d="M2334.8,876.7h-61.8c-11.9,0-21.6,9.7-21.6,21.6V923c0,6.5,2.9,12.4,7.6,16.4l-5.2,15.1l17.8-9.9
				c0.5,0,1,0.1,1.4,0.1h61.8c11.9,0,21.6-9.7,21.6-21.6v-24.7C2356.4,886.4,2346.7,876.7,2334.8,876.7z"/>
			<g>
				<path class="st0" d="M2294.9,987.9c-1.3,0-2.4-0.9-2.7-2.1c-3.2-12.7-9.6-12.9-9.9-12.9c-1.5,0.1-2.7-1.1-2.8-2.6
					c-0.1-1.5,1-2.8,2.5-3c6.1-0.6,8.5-6.2,10-11.6c0.1-0.4,0.2-0.8,0.3-1.1c0.4-1.1,1.4-1.9,2.6-1.9c1.2,0,2.3,0.7,2.7,1.8
					c0.2,0.6,0.4,1.4,0.6,2.3c0.9,3.6,2.3,9.1,7.5,10.7c1.1,0.4,1.9,1.4,1.9,2.6c0,1.2-0.7,2.3-1.8,2.7c-6.5,2.3-8.1,12.5-8.1,12.6
					c-0.2,1.3-1.3,2.3-2.6,2.4C2295,987.9,2294.9,987.9,2294.9,987.9z M2289.6,970.2c1.7,1.4,3.5,3.4,5.1,6.4
					c1.1-2.2,2.5-4.4,4.5-6.2c-2.2-1.8-3.6-4-4.6-6.2C2293.5,966.4,2291.9,968.6,2289.6,970.2z"/>
			</g>
			<g>
				<path class="st0" d="M2199.7,931.2c-1.4,0-2.6-0.9-2.9-2.3c-4.7-18.8-14.5-18.9-14.9-18.9c-1.6,0.1-3-1.2-3.1-2.8s1.1-3,2.7-3.2
					c10.4-1,13.6-12.3,14.9-17.1c0.2-0.6,0.3-1.1,0.4-1.5c0.4-1.2,1.5-2.1,2.8-2.1c0,0,0,0,0.1,0c1.3,0,2.4,0.8,2.8,2
					c0.3,0.8,0.6,1.9,0.9,3.1c1.3,5.3,3.4,13.4,11.2,15.9c1.2,0.4,2.1,1.5,2.1,2.8c0,1.3-0.8,2.5-2,2.9c-9.8,3.4-12,18.4-12,18.6
					c-0.2,1.4-1.4,2.5-2.8,2.6C2199.8,931.2,2199.8,931.2,2199.7,931.2z M2190.7,907.1c3,2.1,6.2,5.5,8.8,11.2c1.6-3.8,4.1-8,7.9-11
					c-4.1-2.9-6.4-7.1-7.9-11C2197.7,900.2,2195,904.3,2190.7,907.1z"/>
			</g>
		</g>
	</g>
	<rect x="2167.6" y="835.7" class="st1" width="200" height="200"/>
</g>
<g>
	<g>
		<path class="st2" d="M570.2,1719.1h-47.6c-1.6,0-2.8-1.3-2.8-2.8V1676c0-1.6-1.3-2.8-2.8-2.8h-70.4c-1.6,0-2.8,1.3-2.8,2.8v40.3
			c0,1.6-1.3,2.8-2.8,2.8h-47.6c-1.6,0-2.8,1.3-2.8,2.8v85.9c0,1.6,1.3,2.8,2.8,2.8h58.5c1.6,0,2.8-1.3,2.8-2.8v-28.5
			c0-1.6,1.3-2.8,2.8-2.8h49.2c1.6,0,2.8,1.3,2.8,2.8v28.5c0,1.6,1.3,2.8,2.8,2.8h58c1.6,0,2.8-1.3,2.8-2.8V1722
			C573.1,1720.4,571.8,1719.1,570.2,1719.1z M418.5,1789.8h-14.2v-20.2h14.2V1789.8z M418.5,1755.2h-14.2v-20.2h14.2V1755.2z
			 M437.1,1789.8H423v-20.2h14.2V1789.8z M437.1,1755.2H423v-20.2h14.2V1755.2z M479.5,1755.2h-14.2v-20.2h14.2V1755.2z
			 M498.2,1755.2H484v-20.2h14.2V1755.2z M481.8,1724.8c-12.1,0-22-9.9-22-22c0-12.1,9.9-22,22-22c12.1,0,22,9.9,22,22
			C503.7,1715,493.9,1724.8,481.8,1724.8z M541.3,1789.8h-14.2v-20.2h14.2V1789.8z M541.3,1755.2h-14.2v-20.2h14.2V1755.2z
			 M560,1789.8h-14.2v-20.2H560V1789.8z M560,1755.2h-14.2v-20.2H560V1755.2z"/>
		<polygon class="st2" points="481.5,1709.4 466.9,1699.5 470.5,1694.2 480.9,1701.2 494,1689.6 498.3,1694.4 		"/>
	</g>
	<rect x="381.8" y="1641.9" class="st1" width="200" height="200"/>
</g>
<g>
	<g>
		<path class="st1" d="M-519.6,974.6c0.3,1.2,0.6,2.5,0.8,3.7C-518.9,977.1-519.2,975.8-519.6,974.6z"/>
		<path class="st1" d="M-522.6,967.5c0.7,1.1,1.2,2.3,1.8,3.5C-521.4,969.8-521.9,968.6-522.6,967.5z"/>
		<path class="st1" d="M-620.3,971c0.5-1.2,1.1-2.3,1.8-3.5C-619.2,968.6-619.8,969.8-620.3,971z"/>
		<path class="st1" d="M-518.7,979.1c0-0.2,0-0.5-0.1-0.7C-518.7,978.6-518.7,978.8-518.7,979.1L-518.7,979.1z"/>
		<polygon class="st1" points="-616.3,1026 -596.4,1015 -596.4,1015 		"/>
		<path class="st1" d="M-528.8,959.6c-9.5-9.2-24.7-15.2-41.7-15.2s-32.2,6-41.7,15.2c9.5-9.2,24.7-15.2,41.7-15.2
			S-538.3,950.4-528.8,959.6z"/>
		<path class="st1" d="M-622.7,982.2c0-1.3,0.1-2.6,0.3-3.9C-622.6,979.6-622.7,980.9-622.7,982.2z"/>
		<path class="st1" d="M-528.8,959.6c2,1.9,3.7,4,5.2,6.2C-525.1,963.6-526.8,961.6-528.8,959.6z"/>
		<path class="st1" d="M-622.4,978.3c0.2-1.3,0.4-2.5,0.8-3.7C-621.9,975.8-622.2,977.1-622.4,978.3z"/>
		<path class="st1" d="M-617.5,965.8c1.5-2.2,3.2-4.3,5.2-6.2C-614.3,961.6-616.1,963.6-617.5,965.8z"/>
		<path d="M-518.5,982.2c0-1-0.1-2.1-0.2-3.1l0,0C-518.6,980.1-518.5,981.2-518.5,982.2z"/>
		<path class="st2" d="M-446.9,1025.4V1003c0-13.2-10.7-23.9-23.9-23.9h-39.4c0.1,1,0.1,2.1,0.1,3.1c0,1.8-0.1,3.6-0.4,5.4h39.6
			c8.5,0,15.4,6.9,15.4,15.4v22.5c0,5.5-3,10.6-7.8,13.4l-3,1.7l3,9.7l-15.5-9.4H-527c-8.5,0-15.4-6.9-15.4-15.4v-2.3
			c-2.7,1.1-5.6,2-8.5,2.8c0.3,12.9,10.9,23.4,23.9,23.4h45.9l32.5,19.7l-7.6-24.7C-450.3,1039.8-446.9,1032.8-446.9,1025.4z"/>
		<path class="st2" d="M-609.7,1007.1c-1-0.8-2-1.7-2.9-2.6C-611.7,1005.4-610.7,1006.3-609.7,1007.1z"/>
		<path class="st2" d="M-612.6,1004.5c-1.8-1.8-3.4-3.7-4.8-5.7C-616,1000.8-614.4,1002.7-612.6,1004.5z"/>
		<path class="st2" d="M-580.9,1019.2c-2.2-0.3-4.4-0.8-6.5-1.3C-585.3,1018.4-583.1,1018.9-580.9,1019.2z"/>
		<path class="st2" d="M-618.3,997.3c-1.2-2.1-2.2-4.2-3-6.4C-620.5,993.1-619.6,995.2-618.3,997.3z"/>
		<path class="st2" d="M-596.4,1015c2.9,1.2,5.9,2.2,9,3C-590.5,1017.1-593.6,1016.1-596.4,1015L-596.4,1015z"/>
		<path class="st2" d="M-518.7,979.1c0-0.2,0-0.5-0.1-0.7c-0.2-1.3-0.4-2.5-0.8-3.7c-0.3-1.2-0.8-2.4-1.3-3.6
			c-0.5-1.2-1.1-2.3-1.8-3.5c-0.3-0.6-0.7-1.1-1-1.7c-1.5-2.2-3.2-4.3-5.2-6.2c-9.5-9.2-24.7-15.2-41.7-15.2s-32.2,6-41.7,15.2
			c-2,1.9-3.7,4-5.2,6.2c-0.4,0.5-0.7,1.1-1,1.7c-0.7,1.1-1.2,2.3-1.8,3.5c-0.5,1.2-0.9,2.4-1.3,3.6c-0.3,1.2-0.6,2.5-0.8,3.7
			c-0.2,1.3-0.3,2.6-0.3,3.9c0,3,0.5,5.9,1.4,8.7c0.7,2.2,1.7,4.4,3,6.4c0.3,0.5,0.6,1,1,1.5c1.4,2,3,3.9,4.8,5.7
			c0.9,0.9,1.9,1.8,2.9,2.6l-6.6,18.9l19.8-11c2.9,1.2,5.9,2.2,9,3c2.1,0.5,4.3,0.9,6.5,1.3c3.3,0.5,6.8,0.7,10.3,0.7
			c7,0,13.6-1,19.7-2.8c3-0.9,5.8-2,8.5-3.2c12.4-5.8,21.2-15.3,23.3-26.3c0.3-1.8,0.5-3.6,0.5-5.4
			C-518.5,981.2-518.6,980.1-518.7,979.1z M-602.1,989.3c-3.1,0-5.7-2.5-5.7-5.7c0-3.1,2.5-5.7,5.7-5.7s5.7,2.5,5.7,5.7
			C-596.5,986.8-599,989.3-602.1,989.3z M-581,989.3c-3.1,0-5.7-2.5-5.7-5.7c0-3.1,2.5-5.7,5.7-5.7s5.7,2.5,5.7,5.7
			C-575.3,986.8-577.9,989.3-581,989.3z M-559.9,989.3c-3.1,0-5.7-2.5-5.7-5.7c0-3.1,2.5-5.7,5.7-5.7s5.7,2.5,5.7,5.7
			C-554.2,986.8-556.8,989.3-559.9,989.3z M-538.8,989.3c-3.1,0-5.7-2.5-5.7-5.7c0-3.1,2.5-5.7,5.7-5.7c3.1,0,5.7,2.5,5.7,5.7
			C-533.1,986.8-535.6,989.3-538.8,989.3z"/>
		<g>
			<circle class="st2" cx="-495.1" cy="1013.3" r="5.7"/>
			<circle class="st2" cx="-516.2" cy="1013.3" r="5.7"/>
			<circle class="st2" cx="-474" cy="1013.3" r="5.7"/>
		</g>
	</g>
	<rect x="-634.8" y="906.8" class="st1" width="200" height="200"/>
</g>
<g>
	<g>
		<path class="st2" d="M-188.6,1069.6h-87.5c-2.3,0-4.3-1.9-4.3-4.3V949.1c0-2.3,1.9-4.3,4.3-4.3h104.9c2.3,0,4.3,1.9,4.3,4.3v96.9
			c0,1.1-0.4,2.1-1.1,2.8l-17.4,19.3C-186.3,1069-187.4,1069.6-188.6,1069.6z M-271.9,1061.1h81.3l15.1-16.7v-91h-96.4V1061.1z"/>
		<path class="st2" d="M-196.8,1058.8c-1.6,0-2.8-1.3-2.8-2.8v-16.1c0-1.6,1.3-2.8,2.8-2.8h15.6c1.6,0,2.8,1.3,2.8,2.8
			s-1.3,2.8-2.8,2.8H-194v13.2C-194,1057.5-195.2,1058.8-196.8,1058.8z"/>
		<g>
			<rect x="-257.7" y="967" class="st2" width="68" height="5.7"/>
			<rect x="-257.7" y="983.6" class="st2" width="68" height="5.7"/>
			<rect x="-257.7" y="1000.2" class="st2" width="68" height="5.7"/>
			<rect x="-257.7" y="1016.8" class="st2" width="68" height="5.7"/>
		</g>
	</g>
	<rect x="-323.7" y="907.2" class="st1" width="200" height="200"/>
</g>
<g>
	<g>
		<path class="st2" d="M67.3,970.2c0.8,17.7,17.7,47.7,23.7,58.1c6,10.4,23.6,40,38.5,49.6c3.6,2.4,9.6,3.1,14.7,2
			c5-1,13.4-4.7,15.1-7.6c1.7-2.9,1.9-5.2,1.5-6.5c-0.7-2.6-3.2-7.4-6.7-12.2c-4-5.6-9.5-10.6-11.7-11.2c-2.2-0.6-4,0.8-5.3,1.9
			c-1.2,1.1-7.5,6.6-10.7,5.4c-3.3-1.1-17.6-21.6-22-29.2c-4.4-7.6-14.9-30.2-14.3-33.6c0.7-3.4,8.5-6,10.1-6.6
			c1.6-0.5,3.7-1.4,4.3-3.6c0.6-2.2-1-9.5-3.8-15.8c-2.5-5.4-5.4-10-7.3-11.9c-1-1-3-2-6.4-1.9c-3.3,0.1-10.7,5.4-14.1,9.3
			C69.4,960.3,67,965.8,67.3,970.2z"/>
	</g>
	<rect x="14.1" y="913.8" class="st1" width="200" height="200"/>
</g>
<g>
	<g>
		<path class="st2" d="M636.5,943.8c-3.4-0.9-6.9,1.1-7.8,4.5l-4.8,21.3c-3.2,3.5-6.8,6.9-9.8,9.6h-6.4c6.8-2.7,11.5-9.4,11.5-17.1
			c0-10.2-8.3-18.5-18.5-18.5c-10.2,0-18.5,8.3-18.5,18.5c0,7.7,4.8,14.4,11.5,17.1h-8.4c-2.3-0.1-4.6,1.1-5.8,3.3l-11.6,20.9
			c-0.4,0.7-0.7,1.5-0.8,2.3l-1,18.1c-0.4,3.5,0.8,6.7,4.3,7.1c0.3,0,0.5,0,0.8,0c3.2,0,5.3-2.4,5.7-5.6l2.8-16.9l3.5-5l-1.9,24.6
			l-4.8,12.8c-0.7,1.9-0.5,4,0.6,5.7l8.6,13.5c1.2,1.9,3.3,2.9,5.4,2.9c1.2,0,2.4-0.3,3.4-1c3-1.9,3.8-5.8,2-8.8l-5.9-9.2l10.3-13.2
			l5.9,34c0,3.5,2.8,6.4,6.4,6.4s6.4-2.8,6.4-6.4l1-34.4c0-0.2,0-0.4,0-0.7l-1.6-31.7c4.2-5.6,14.2-19.1,16.2-21.8
			c1.3-1.3,4.7-24.6,4.7-24.6C640.7,948.2,639.9,944.7,636.5,943.8z"/>
		<path class="st2" d="M561.6,1023.3l-2.2-15.8c-0.1-0.8-0.3-1.5-0.7-2.2l-12.1-17.9c-1.1-2-3.2-3.1-5.4-3h-6.6
			c6-2.5,10.2-8.4,10.2-15.3c0-9.1-7.4-16.6-16.6-16.6c-9.1,0-16.5,7.4-16.5,16.6c0,6.9,4.2,12.8,10.2,15.3h-4.8
			c-2.8-2.5-6.2-5.7-9.1-9l-4.5-19.8c-0.9-3.2-4.1-5-7.3-4.2c-3.2,0.8-3.8,4.1-3,7.3c0,0,3.2,21.7,4.4,22.9
			c2.3,3.1,15.9,21.4,16.8,22.5c0.1,0.1,0.2,0.1,0.2,0.2l-1.1,14.2l-7.1,26.2l7.7-0.6l0.6,21.2c0,3.3,2.7,5.9,5.9,5.9s5-2.7,5-5.9
			l2.1-22.2l2.5-0.2l-1.4,5.8c-0.7,1.7-0.5,3.7,0.5,5.3l8,12.6c1.1,1.8,3,2.7,5,2.7c1.1,0,1.4-0.3,2.4-0.9c2.8-1.8,2.3-5.4,0.5-8.2
			l-4.7-8.6l4.3-9.8l7.9-0.6l-8.5-19.1l-1.5-19.2l4.8,7.2l3.9,14.7c0.4,3,2.3,5.2,5.3,5.2c0.2,0,0.5,0,0.7,0
			C560.9,1029.5,562,1026.5,561.6,1023.3z"/>
	</g>
	<rect x="466.5" y="907.4" class="st1" width="200" height="200"/>
</g>
<g>
	<g>
		<path class="st2" d="M-393.7,1353.2c-0.1,0-0.1-0.1-0.2-0.1c-0.9-0.6-1.8-1.1-2.7-1.6c-0.2-0.1-0.3-0.2-0.5-0.3
			c-0.9-0.5-1.8-0.9-2.8-1.3c-0.2-0.1-0.4-0.2-0.6-0.2c-1-0.4-1.9-0.7-3-1.1c-0.1,0-0.2-0.1-0.3-0.1c-4-1.2-8.2-1.7-12.5-1.5
			c-0.3,0-0.7,0-1,0.1c-0.6,0-1.2,0-1.8,0.1c-6.5,0.8-12.7,3.4-17.9,7.5c-9.1,7.2-14.2,17.7-14.2,29.1c0,12.1,5,22.2,15.2,30.9
			c1.2,1,2.3,5,3,7.9c1.1,4.2,2.4,9.3,5.6,12.5c0.6,0.6,1.5,0.9,2.3,0.9h21.4c0.9,0,1.7-0.3,2.3-0.9c3.2-3.1,4.5-8.3,5.6-12.5
			c0.8-2.9,1.8-6.9,3-7.9c10.3-8.7,15.2-18.8,15.2-30.9c0-9.9-3.8-19.1-10.8-26.1C-389.9,1356-391.8,1354.5-393.7,1353.2z
			 M-398.7,1407.4c-3.5,3-4.8,7.9-6,12.7c-0.9,3.3-2.1,8.3-3.7,8.3h-11.6c-1.5,0-2.8-5-3.7-8.3c-1.2-4.8-2.5-9.8-6-12.7
			c-8.1-6.9-11.9-14.4-11.9-23.6c0-7.3,2.9-14.2,8-19.4c5.2-5.2,12.1-8,19.4-8c7.3,0,14.2,2.9,19.4,8c5.2,5.2,8,12.1,8,19.4
			C-386.9,1393.1-390.6,1400.6-398.7,1407.4z"/>
		<path class="st2" d="M-427,1445.3c0,4,2,9.9,5.6,9.9c3.6,0,10.1,0,14.2,0s5.5-5.6,5.6-9.5c0-0.1,0-0.2,0-0.3h0c0,0,0,0,0,0H-427
			L-427,1445.3z"/>
		<g>
			<path class="st2" d="M-414.3,1314.7c-2.6,0-4.8,2.1-4.8,4.8l1.2,14c0,1.9,1.6,3.5,3.6,3.5s3.5-1.6,3.6-3.5l1.2-13.9l0-0.1
				C-409.5,1316.8-411.7,1314.7-414.3,1314.7z"/>
			<path class="st2" d="M-457.9,1332.4L-457.9,1332.4c-0.3-0.3-0.5-0.4-0.6-0.5c-0.2-0.1-0.4-0.3-0.6-0.4c-0.4-0.2-0.7-0.4-1.1-0.5
				c-0.2,0-0.3-0.1-0.5-0.1c-0.4-0.1-0.9-0.1-1.3,0c-0.2,0-0.3,0.1-0.5,0.1c-0.4,0.1-0.8,0.3-1.1,0.5c-0.2,0.1-0.4,0.2-0.5,0.4
				c-0.1,0.1-0.3,0.2-0.5,0.4c-1.9,1.9-1.9,4.9,0,6.7l10.7,9c0.7,0.6,1.5,1,2.5,1c0,0,0,0,0,0c1,0,1.9-0.4,2.5-1
				c0.7-0.7,1-1.6,1-2.5c0-0.9-0.4-1.8-1-2.5L-457.9,1332.4z"/>
			<path class="st2" d="M-466.3,1374.4l-13.4-3.6l-0.1,0c-1.3-0.2-2.5,0.1-3.6,0.8c-1,0.7-1.7,1.8-2,3.1c-0.2,1.3,0.1,2.5,0.8,3.6
				c0.7,1,1.8,1.7,3.1,2l14,1.2c0.2,0,0.4,0,0.6,0c1.7,0,3.2-1.2,3.5-3C-463.1,1376.6-464.4,1374.7-466.3,1374.4z"/>
			<path class="st2" d="M-363.4,1339.1c0.9-0.9,1.4-2.1,1.4-3.4c0-1.3-0.5-2.5-1.4-3.4c-0.2-0.2-0.4-0.3-0.5-0.4
				c-0.2-0.1-0.3-0.2-0.5-0.3c-0.4-0.2-0.8-0.4-1.1-0.5c-0.2,0-0.3-0.1-0.5-0.1c-0.4-0.1-0.9-0.1-1.3,0c-0.2,0-0.4,0.1-0.5,0.1
				c-0.4,0.1-0.8,0.3-1.2,0.5c-0.2,0.1-0.4,0.2-0.5,0.4c-0.1,0.1-0.3,0.2-0.5,0.4l-9,10.7c-1.3,1.4-1.3,3.6,0,5c0.7,0.7,1.6,1,2.5,1
				c0.9,0,1.8-0.4,2.5-1L-363.4,1339.1L-363.4,1339.1z"/>
			<path class="st2" d="M-343.2,1374.6c-0.2-1.3-0.9-2.3-2-3.1c-1-0.7-2.3-1-3.6-0.8l-13.6,3.6c-1.9,0.4-3.2,2.2-2.8,4.1
				c0.3,1.7,1.8,3,3.5,3c0.2,0,0.4,0,0.6,0l13.8-1.2l0.1,0c1.3-0.2,2.3-0.9,3.1-2C-343.3,1377.1-343,1375.9-343.2,1374.6z"/>
		</g>
		<path class="st2" d="M-400.9,1441.4c0,0.8-0.6,1.4-1.4,1.4h-23.9c-0.8,0-1.4-0.6-1.4-1.4v-1.4c0-0.8,0.6-1.4,1.4-1.4h23.9
			c0.8,0,1.4,0.6,1.4,1.4V1441.4z"/>
	</g>
	<rect x="-514.3" y="1284.9" class="st1" width="200" height="200"/>
</g>
<g>
	<g>
		<rect x="162.9" y="1366" class="st2" width="36.4" height="36.4"/>
		<g>
			<path class="st2" d="M69.8,1402.4H22.7l23.5-40.8L69.8,1402.4z"/>
		</g>
		<path class="st2" d="M189,1407.4h-17.6c-4.3,0-8,3.1-8.6,7.4l-3.8,18.4l-18.4-27.1c-1.9-3.6-6-5.3-9.8-4.4c9.6-6.1,16-16.8,16-29
			c0-18.9-15.3-34.2-34.2-34.2c-18.9,0-34.2,15.3-34.2,34.2c0,12.2,6.4,23,16.1,29c-3.8-1-8,0.7-9.9,4.3l-18.4,27.1l-3.8-18.4
			c-0.7-4.3-4.3-7.4-8.6-7.4H36.2c-4.8,0-8.7,3.9-8.7,8.7c0,4.8,3.9,8.7,8.7,8.7h10.1l8.8,26.6c0.6,3.7,3.5,6.7,7.2,7.3
			c0.5,0.1,1,0.1,1.5,0.1c3.2,0,5.2-1.7,7.7-4.6l15.2-16.5l-2.3,28.3h56.6l-2.3-28.2l15.1,16.3c2.8,2.8,4.5,4.6,7.7,4.6
			c0.5,0,1,0,1.5-0.1c3.7-0.6,6.6-3.6,7.2-7.3l8.8-26.6H189c4.8,0,8.7-3.9,8.7-8.7C197.8,1411.3,193.9,1407.4,189,1407.4z
			 M111.5,1418c-3.4,0-6-2.4-6-6c0-3.6,2.6-6,6-6c3.3,0,6,2.4,6,6C117.5,1415.6,114.8,1418,111.5,1418z M123.7,1384.6
			c-4.7,3.2-7.6,4.8-7.6,9.7v1.5c0,2.5-1.7,3.8-4.5,3.8c-2.8,0-4.6-1.3-4.6-3.8v-1.6c0-4.4,0.9-6.9,2.8-9.4c1.5-1.9,2.2-2.5,6.8-5.5
			c4.5-3.1,6-4.7,6-8c0-4.6-3.6-7.3-9.3-7.3c-5.5,0-8.4,2.7-10,7.1c-0.9,2.2-2.3,3-4.1,3c-0.7,0-1.4-0.1-2.2-0.4
			c-1.9-0.5-3.6-1.7-3.6-3.9c0-0.4,0.1-1,0.3-1.6c1.2-3.3,3.1-6.2,5.8-8.4c3.5-2.7,8-4.3,14.4-4.3c11.5,0,18.8,5.9,18.8,15.1
			C132.7,1377.8,128.7,1381.1,123.7,1384.6z"/>
	</g>
	<rect x="11" y="1302.3" class="st1" width="200" height="200"/>
</g>
<g>
	<g>
		<path class="st2" d="M652.8,1380c6.7-7.9,11-14.8,12.9-20.5c2.5-7.8,0.1-12.5-2.4-15l-0.2-0.2c-2.3-2.2-5.3-3.4-8.8-3.4
			c-1.9,0-4,0.4-6.2,1.1c-5.7,1.8-12.6,6.2-20.5,12.9c-5.5,4.6-10.7,9.9-15.6,15.5c-0.5,0.6-13.8,16.1-25.4,29.6
			c0.6,0.8,5.3,7.3,9.5,11.5c3.8,3.8,9.8,8.3,11.4,9.5c13.8-11.8,29.8-25.4,29.8-25.4C642.9,1390.7,648.2,1385.5,652.8,1380z"/>
		<path class="st2" d="M591,1416.8c-3.8-3.8-7.7-9-9.1-10.9c-6,7-11.6,13.4-12.1,13.9c-2.7,2.9,0,6.5,0.9,7.7c1.1,1.5,2.7,3.2,4.4,5
			c1.8,1.8,3.5,3.3,5,4.4c1,0.7,2.8,2.1,4.8,2.1c1.1,0,2.1-0.4,2.9-1.1c0.4-0.4,6.9-6.1,14-12.1
			C595.5,1421.4,595.5,1421.3,591,1416.8C590.9,1416.8,591,1416.8,591,1416.8z"/>
		<path class="st1" d="M557.5,1458.4c2.3-2.3,2.3-5.9,0-8.2c-2.3-2.3-5.9-2.3-8.2,0c-1.9,1.9-2.2,4.8-0.9,7l-16.1,16.8l1.4,1.4
			l16.8-16.1C552.7,1460.6,555.6,1460.3,557.5,1458.4z"/>
		<path class="st2" d="M548.4,1457.2c-1.3-2.2-1-5.1,0.9-7c2.3-2.3,5.9-2.3,8.2,0c2.3,2.3,2.3,5.9,0,8.2c-1.9,1.9-4.8,2.2-7,0.9
			l-16.8,16.1l1.7,1.7c6.5-2.9,16.5-6.5,26.9-6.6c3.2-7.2,7.9-16,15.8-24.8c0.9-1,1.9-2.1,2.9-3.1c0,0,0,0,0,0c0,0,0,0,0,0
			c-0.8-0.5-1.6-0.8-2.1-1.2c-1.9-1.5-4.5-3.3-6.9-5.7c-2.4-2.4-4.2-5-5.7-6.9c-0.3-0.4-0.6-1.1-1-1.8c0-0.1-0.1-0.1-0.1-0.2
			c0,0,0,0,0,0c0,0,0,0,0,0c-9.8,9.6-19.8,15.1-27.9,18.7c-0.4,10.1-3.9,20.2-6.8,26.8l1.8,1.8L548.4,1457.2z"/>
	</g>
	<rect x="498.6" y="1309" class="st1" width="200" height="200"/>
</g>
<g>
	<g>
		<path class="st2" d="M-382.8,1699.3h-20.8v-9.2h14l-7.1-18.2h-86.1l-7.1,18.2h15.7v9.2h-22.4c-1.5,0-2.9-0.8-3.8-2
			c-0.9-1.3-1-2.9-0.5-4.3l10.7-27.5c0.7-1.8,2.4-2.9,4.3-2.9h92.4c1.9,0,3.6,1.2,4.3,2.9l10.7,27.5c0.6,1.4,0.4,3-0.5,4.3
			C-379.8,1698.5-381.3,1699.3-382.8,1699.3z"/>
		<path class="st2" d="M-401.5,1725.4H-478v-46.9h76.5V1725.4z M-472.3,1719.7h65.2v-35.6h-65.2V1719.7z"/>
		<path class="st2" d="M-382.8,1817.8h-113.9c-2.5,0-4.6-2.1-4.6-4.6v-116.6c0-2,1.3-3.8,3.3-4.4c1.9-0.6,4,0.2,5.2,1.8l16.1,24
			h74.1l16.1-24c1.1-1.7,3.2-2.4,5.2-1.8c1.9,0.6,3.3,2.4,3.3,4.4v116.6C-378.2,1815.8-380.2,1817.8-382.8,1817.8z M-492.1,1808.6
			h104.7v-96.8l-9,13.5c-0.9,1.3-2.3,2-3.8,2h-79c-1.5,0-3-0.8-3.8-2l-9-13.5V1808.6z"/>
		<g>
			<path class="st2" d="M-474.5,1781.7l-3.5,8.7h-13.8l19.2-50h14.2l18.8,50h-13.9l-3.3-8.7H-474.5z M-465.5,1755.9h-0.1l-5.4,15.9
				h10.8L-465.5,1755.9z"/>
			<path class="st2" d="M-387.9,1764.5c0,16.2-11.6,27.6-27.7,27.6c-16.1,0-27.7-11.4-27.7-27.6c0-15.1,13.3-25.7,27.7-25.7
				S-387.9,1749.4-387.9,1764.5z M-429.7,1764.6c0,8.6,6.4,14.9,14.1,14.9c7.8,0,14.1-6.3,14.1-14.9c0-6.9-6.4-13.2-14.1-13.2
				C-423.4,1751.3-429.7,1757.7-429.7,1764.6z"/>
		</g>
		<g>
			<rect x="-464.9" y="1690.7" class="st2" width="51" height="4.3"/>
			<rect x="-464.9" y="1699.5" class="st2" width="51" height="4.3"/>
			<rect x="-464.9" y="1708.3" class="st2" width="51" height="4.3"/>
		</g>
	</g>
	<rect x="-539.7" y="1640.2" class="st1" width="200" height="200"/>
</g>
<g>
	<g>
		<rect x="-103.1" y="1632.1" class="st1" width="200" height="200"/>
		<g>
			<path class="st2" d="M-4,1758c-4.2-1.4-6.6,2.9-6.9,3.6c-0.2,0.7-5.1,11.5-5.1,11.5l-9.1-12.2c-1.2-2.3-4.1-3.9-7.1-3.9l-2.3-0.1
				c6-2.7,10.2-8.7,10.2-15.7c0-9.5-7.7-17.2-17.2-17.2c-9.5,0-17.2,7.7-17.2,17.2c0,6.6,3.7,12.4,9.2,15.2l-2.5-0.1
				c0,0-30.2-24.2-31-24.7s-4.1-2.1-6.6,0.8c-2.1,2.5-0.8,6.5,0.9,7.8c0.8,0.6,32.1,31.3,32.1,31.3l-2.6,19.7h15.8h1.5h15.8
				l-1.2-12.5l8.2,6.2c2.1,2.1,4.9,2.1,6.3,1.7c1.9-0.6,2.8-2.1,4.1-5.2c0,0,7.6-16.1,8-17.1C-0.4,1763.2,0,1759.3-4,1758z"/>
			<path class="st2" d="M64.1,1673.1H2.3c-11.9,0-21.6,9.7-21.6,21.6v24.7c0,6.5,2.9,12.4,7.6,16.4l-5.2,15.1l17.8-9.9
				c0.5,0,1,0.1,1.4,0.1h61.8c11.9,0,21.6-9.7,21.6-21.6v-24.7C85.7,1682.8,76,1673.1,64.1,1673.1z"/>
			<g>
				<path class="st2" d="M24.1,1784.3c-1.3,0-2.4-0.9-2.7-2.1c-3.2-12.7-9.6-12.9-9.9-12.9c-1.5,0.1-2.7-1.1-2.8-2.6
					c-0.1-1.5,1-2.8,2.5-3c6.1-0.6,8.5-6.2,10-11.6c0.1-0.4,0.2-0.8,0.3-1.1c0.4-1.1,1.4-1.9,2.6-1.9c1.2,0,2.3,0.7,2.7,1.8
					c0.2,0.6,0.4,1.4,0.6,2.3c0.9,3.6,2.3,9.1,7.5,10.7c1.1,0.4,1.9,1.4,1.9,2.6c0,1.2-0.7,2.3-1.8,2.7c-6.5,2.3-8.1,12.5-8.1,12.6
					c-0.2,1.3-1.3,2.3-2.6,2.4C24.2,1784.3,24.2,1784.3,24.1,1784.3z M18.8,1766.6c1.7,1.4,3.5,3.4,5.1,6.4c1.1-2.2,2.5-4.4,4.5-6.2
					c-2.2-1.8-3.6-4-4.6-6.2C22.7,1762.8,21.1,1765,18.8,1766.6z"/>
			</g>
			<g>
				<path class="st2" d="M-71,1727.6c-1.4,0-2.6-0.9-2.9-2.3c-4.7-18.8-14.5-18.9-14.9-18.9c-1.6,0.1-3-1.2-3.1-2.8
					c-0.1-1.6,1.1-3,2.7-3.2c10.4-1,13.6-12.3,14.9-17.1c0.2-0.6,0.3-1.1,0.4-1.5c0.4-1.2,1.5-2.1,2.8-2.1c0,0,0,0,0.1,0
					c1.3,0,2.4,0.8,2.8,2c0.3,0.8,0.6,1.9,0.9,3.1c1.3,5.3,3.4,13.4,11.2,15.9c1.2,0.4,2.1,1.5,2.1,2.8c0,1.3-0.8,2.5-2,2.9
					c-9.8,3.4-12,18.4-12,18.6c-0.2,1.4-1.4,2.5-2.8,2.6C-70.9,1727.6-70.9,1727.6-71,1727.6z M-80.1,1703.5c3,2.1,6.2,5.5,8.8,11.2
					c1.6-3.8,4.1-8,7.9-11c-4.1-2.9-6.4-7.1-7.9-11C-73,1696.6-75.7,1700.7-80.1,1703.5z"/>
			</g>
		</g>
	</g>
	<rect x="-103.1" y="1632.1" class="st1" width="200" height="200"/>
</g>
<g>
	<g>
		<path class="st1" d="M34.6,20.4c0.1,0.4,0.2,0.7,0.2,1.1C34.7,21.1,34.7,20.7,34.6,20.4z"/>
		<path class="st1" d="M33.6,18.2c0.2,0.3,0.4,0.7,0.5,1C34,18.9,33.8,18.6,33.6,18.2z"/>
		<path class="st1" d="M4.3,19.3c0.2-0.4,0.3-0.7,0.5-1C4.7,18.6,4.5,18.9,4.3,19.3z"/>
		<path class="st1" d="M34.8,21.7c0-0.1,0-0.1,0-0.2C34.8,21.6,34.8,21.6,34.8,21.7L34.8,21.7z"/>
		<polygon class="st1" points="5.5,35.8 11.5,32.5 11.5,32.5 		"/>
		<path class="st1" d="M31.8,15.9c-2.8-2.8-7.4-4.5-12.5-4.5s-9.7,1.8-12.5,4.5c2.8-2.8,7.4-4.5,12.5-4.5S28.9,13.1,31.8,15.9z"/>
		<path class="st1" d="M3.6,22.6c0-0.4,0-0.8,0.1-1.2C3.7,21.9,3.6,22.2,3.6,22.6z"/>
		<path class="st1" d="M31.8,15.9c0.6,0.6,1.1,1.2,1.6,1.9C32.9,17.1,32.4,16.4,31.8,15.9z"/>
		<path class="st1" d="M3.7,21.5c0.1-0.4,0.1-0.8,0.2-1.1C3.8,20.7,3.8,21.1,3.7,21.5z"/>
		<path class="st1" d="M5.2,17.7c0.4-0.7,1-1.3,1.6-1.9C6.1,16.4,5.6,17.1,5.2,17.7z"/>
		<path d="M34.9,22.6c0-0.3,0-0.6-0.1-0.9l0,0C34.9,22,34.9,22.3,34.9,22.6z"/>
		<path class="st0" d="M56.4,35.6v-6.7c0-4-3.2-7.2-7.2-7.2H37.4c0,0.3,0,0.6,0,0.9c0,0.5,0,1.1-0.1,1.6h11.9c2.5,0,4.6,2.1,4.6,4.6
			v6.7c0,1.7-0.9,3.2-2.4,4l-0.9,0.5l0.9,2.9l-4.6-2.8H32.3c-2.5,0-4.6-2.1-4.6-4.6v-0.7c-0.8,0.3-1.7,0.6-2.5,0.8
			c0.1,3.9,3.3,7,7.2,7h13.8l9.8,5.9l-2.3-7.4C55.3,39.9,56.4,37.8,56.4,35.6z"/>
		<path class="st2" d="M7.5,30.1c-0.3-0.2-0.6-0.5-0.9-0.8C6.9,29.6,7.2,29.9,7.5,30.1z"/>
		<path class="st2" d="M6.7,29.3c-0.5-0.5-1-1.1-1.4-1.7C5.6,28.2,6.1,28.8,6.7,29.3z"/>
		<path class="st2" d="M16.2,33.7c-0.7-0.1-1.3-0.2-1.9-0.4C14.8,33.5,15.5,33.6,16.2,33.7z"/>
		<path class="st2" d="M4.9,27.2c-0.4-0.6-0.7-1.3-0.9-1.9C4.3,25.9,4.6,26.5,4.9,27.2z"/>
		<path class="st2" d="M11.5,32.5c0.9,0.4,1.8,0.7,2.7,0.9C13.3,33.1,12.4,32.8,11.5,32.5L11.5,32.5z"/>
		<path class="st0" d="M34.8,21.7c0-0.1,0-0.1,0-0.2c-0.1-0.4-0.1-0.8-0.2-1.1c-0.1-0.4-0.2-0.7-0.4-1.1c-0.2-0.4-0.3-0.7-0.5-1
			c-0.1-0.2-0.2-0.3-0.3-0.5c-0.4-0.7-1-1.3-1.6-1.9c-2.8-2.8-7.4-4.5-12.5-4.5s-9.7,1.8-12.5,4.5c-0.6,0.6-1.1,1.2-1.6,1.9
			c-0.1,0.2-0.2,0.3-0.3,0.5c-0.2,0.3-0.4,0.7-0.5,1c-0.2,0.4-0.3,0.7-0.4,1.1c-0.1,0.4-0.2,0.7-0.2,1.1c-0.1,0.4-0.1,0.8-0.1,1.2
			c0,0.9,0.1,1.8,0.4,2.6c0.2,0.7,0.5,1.3,0.9,1.9c0.1,0.2,0.2,0.3,0.3,0.5c0.4,0.6,0.9,1.2,1.4,1.7c0.3,0.3,0.6,0.5,0.9,0.8l-2,5.7
			l6-3.3c0.9,0.4,1.8,0.7,2.7,0.9c0.6,0.2,1.3,0.3,1.9,0.4c1,0.1,2,0.2,3.1,0.2c2.1,0,4.1-0.3,5.9-0.8c0.9-0.3,1.7-0.6,2.6-1
			c3.7-1.7,6.3-4.6,7-7.9c0.1-0.5,0.2-1.1,0.2-1.6C34.9,22.3,34.9,22,34.8,21.7z M9.8,24.8c-0.9,0-1.7-0.8-1.7-1.7
			c0-0.9,0.8-1.7,1.7-1.7s1.7,0.8,1.7,1.7C11.5,24,10.7,24.8,9.8,24.8z M16.1,24.8c-0.9,0-1.7-0.8-1.7-1.7c0-0.9,0.8-1.7,1.7-1.7
			c0.9,0,1.7,0.8,1.7,1.7C17.8,24,17.1,24.8,16.1,24.8z M22.5,24.8c-0.9,0-1.7-0.8-1.7-1.7c0-0.9,0.8-1.7,1.7-1.7s1.7,0.8,1.7,1.7
			C24.2,24,23.4,24.8,22.5,24.8z M28.8,24.8c-0.9,0-1.7-0.8-1.7-1.7c0-0.9,0.8-1.7,1.7-1.7c0.9,0,1.7,0.8,1.7,1.7
			C30.5,24,29.7,24.8,28.8,24.8z"/>
		<g>
			<ellipse class="st0" cx="42.9" cy="32.5" rx="1.9" ry="1.1"/>
			<ellipse class="st0" cx="35.8" cy="32.5" rx="1.9" ry="1.1"/>
			<ellipse class="st0" cx="50" cy="32.5" rx="1.9" ry="1.1"/>
		</g>
	</g>
	<rect class="st1" width="60" height="60"/>
</g>
</svg>
