<?xml version="1.0" encoding="utf-8"?>
<!-- Generator: Adobe Illustrator 24.3.0, SVG Export Plug-In . SVG Version: 6.00 Build 0)  -->
<svg version="1.1" id="レイヤー_1" xmlns="http://www.w3.org/2000/svg" xmlns:xlink="http://www.w3.org/1999/xlink" x="0px"
     y="0px" viewBox="0 0 60 60" style="enable-background:new 0 0 60 60;" xml:space="preserve">
<style type="text/css">
	.st0{fill:#ff8b05;}
	.st1{fill:none;}
	.st2{fill:#FFFFFF;}
</style>
  <g>
	<path class="st0" d="M2351,241.8c0.8,17.7,17.7,47.7,23.7,58.1c6,10.4,23.6,40,38.5,49.6c3.6,2.4,9.6,3.1,14.7,2
		c5-1,13.4-4.7,15.1-7.6c1.7-2.9,1.9-5.2,1.5-6.5c-0.7-2.6-3.2-7.4-6.7-12.2c-4-5.6-9.5-10.6-11.7-11.2c-2.2-0.6-4,0.8-5.3,1.9
		c-1.2,1.1-7.5,6.6-10.7,5.4c-3.3-1.1-17.6-21.6-22-29.2c-4.4-7.6-14.9-30.2-14.3-33.6c0.7-3.4,8.5-6,10.1-6.6
		c1.6-0.5,3.7-1.4,4.3-3.6c0.6-2.2-1-9.5-3.8-15.8c-2.5-5.4-5.4-10-7.3-11.9c-1-1-3-2-6.4-1.9c-3.3,0.1-10.7,5.4-14.1,9.3
		C2353.2,231.9,2350.7,237.4,2351,241.8z"/>
</g>
  <g>
	<g>
		<path class="st0" d="M2854,990.7h-47.6c-1.6,0-2.8-1.3-2.8-2.8v-40.3c0-1.6-1.3-2.8-2.8-2.8h-70.4c-1.6,0-2.8,1.3-2.8,2.8v40.3
			c0,1.6-1.3,2.8-2.8,2.8H2677c-1.6,0-2.8,1.3-2.8,2.8v85.9c0,1.6,1.3,2.8,2.8,2.8h58.5c1.6,0,2.8-1.3,2.8-2.8V1051
			c0-1.6,1.3-2.8,2.8-2.8h49.2c1.6,0,2.8,1.3,2.8,2.8v28.5c0,1.6,1.3,2.8,2.8,2.8h58c1.6,0,2.8-1.3,2.8-2.8v-85.9
			C2856.8,992,2855.5,990.7,2854,990.7z M2702.2,1061.4H2688v-20.2h14.2V1061.4z M2702.2,1026.8H2688v-20.2h14.2V1026.8z
			 M2720.9,1061.4h-14.2v-20.2h14.2V1061.4z M2720.9,1026.8h-14.2v-20.2h14.2V1026.8z M2763.3,1026.8h-14.2v-20.2h14.2V1026.8z
			 M2782,1026.8h-14.2v-20.2h14.2V1026.8z M2765.5,996.4c-12.1,0-22-9.9-22-22c0-12.1,9.9-22,22-22c12.1,0,22,9.9,22,22
			C2787.5,986.6,2777.6,996.4,2765.5,996.4z M2825.1,1061.4h-14.2v-20.2h14.2V1061.4z M2825.1,1026.8h-14.2v-20.2h14.2V1026.8z
			 M2843.8,1061.4h-14.2v-20.2h14.2V1061.4z M2843.8,1026.8h-14.2v-20.2h14.2V1026.8z"/>
      <polygon class="st0" points="2765.2,981 2750.6,971.1 2754.3,965.8 2764.7,972.8 2777.8,961.2 2782.1,966 		"/>
	</g>
    <rect x="2665.5" y="913.5" class="st1" width="200" height="200"/>
</g>
  <g>
	<g>
		<path class="st1" d="M1764.2,246.2c0.3,1.2,0.6,2.5,0.8,3.7C1764.8,248.7,1764.5,247.4,1764.2,246.2z"/>
      <path class="st1" d="M1761.1,239.1c0.7,1.1,1.2,2.3,1.8,3.5C1762.4,241.4,1761.8,240.2,1761.1,239.1z"/>
      <path class="st1" d="M1663.4,242.6c0.5-1.2,1.1-2.3,1.8-3.5C1664.5,240.2,1663.9,241.4,1663.4,242.6z"/>
      <path class="st1" d="M1765,250.7c0-0.2,0-0.5-0.1-0.7C1765,250.2,1765,250.4,1765,250.7L1765,250.7z"/>
      <polygon class="st1" points="1667.5,297.6 1687.3,286.6 1687.3,286.6 		"/>
      <path class="st1" d="M1754.9,231.2c-9.5-9.2-24.7-15.2-41.7-15.2s-32.2,6-41.7,15.2c9.5-9.2,24.7-15.2,41.7-15.2
			S1745.4,222,1754.9,231.2z"/>
      <path class="st1" d="M1661.1,253.8c0-1.3,0.1-2.6,0.3-3.9C1661.2,251.2,1661.1,252.5,1661.1,253.8z"/>
      <path class="st1" d="M1754.9,231.2c2,1.9,3.7,4,5.2,6.2C1758.6,235.2,1756.9,233.2,1754.9,231.2z"/>
      <path class="st1" d="M1661.4,250c0.2-1.3,0.4-2.5,0.8-3.7C1661.8,247.4,1661.5,248.7,1661.4,250z"/>
      <path class="st1" d="M1666.2,237.4c1.5-2.2,3.2-4.3,5.2-6.2C1669.4,233.2,1667.7,235.2,1666.2,237.4z"/>
      <path d="M1765.2,253.8c0-1-0.1-2.1-0.2-3.1l0,0C1765.2,251.7,1765.2,252.8,1765.2,253.8z"/>
      <path class="st0" d="M1836.9,297.1v-22.5c0-13.2-10.7-23.9-23.9-23.9h-39.4c0.1,1,0.1,2.1,0.1,3.1c0,1.8-0.1,3.6-0.4,5.4h39.6
			c8.5,0,15.4,6.9,15.4,15.4v22.5c0,5.5-3,10.6-7.8,13.4l-3,1.7l3,9.7l-15.5-9.4h-48.3c-8.5,0-15.4-6.9-15.4-15.4v-2.3
			c-2.7,1.1-5.6,2-8.5,2.8c0.3,12.9,10.9,23.4,23.9,23.4h45.9l32.5,19.7l-7.6-24.7C1833.4,311.4,1836.9,304.5,1836.9,297.1z"/>
      <path class="st2" d="M1674,278.7c-1-0.8-2-1.7-2.9-2.6C1672.1,277,1673,277.9,1674,278.7z"/>
      <path class="st2" d="M1671.2,276.1c-1.8-1.8-3.4-3.7-4.8-5.7C1667.8,272.4,1669.4,274.3,1671.2,276.1z"/>
      <path class="st2" d="M1702.9,290.8c-2.2-0.3-4.4-0.8-6.5-1.3C1698.5,290.1,1700.6,290.5,1702.9,290.8z"/>
      <path class="st2" d="M1665.4,268.9c-1.2-2.1-2.2-4.2-3-6.4C1663.2,264.7,1664.2,266.8,1665.4,268.9z"/>
      <path class="st2" d="M1687.3,286.6c2.9,1.2,5.9,2.2,9,3C1693.2,288.8,1690.2,287.8,1687.3,286.6L1687.3,286.6z"/>
      <path class="st0" d="M1765,250.7c0-0.2,0-0.5-0.1-0.7c-0.2-1.3-0.4-2.5-0.8-3.7c-0.3-1.2-0.8-2.4-1.3-3.6
			c-0.5-1.2-1.1-2.3-1.8-3.5c-0.3-0.6-0.7-1.1-1-1.7c-1.5-2.2-3.2-4.3-5.2-6.2c-9.5-9.2-24.7-15.2-41.7-15.2s-32.2,6-41.7,15.2
			c-2,1.9-3.7,4-5.2,6.2c-0.4,0.5-0.7,1.1-1,1.7c-0.7,1.1-1.2,2.3-1.8,3.5c-0.5,1.2-0.9,2.4-1.3,3.6c-0.3,1.2-0.6,2.5-0.8,3.7
			c-0.2,1.3-0.3,2.6-0.3,3.9c0,3,0.5,5.9,1.4,8.7c0.7,2.2,1.7,4.4,3,6.4c0.3,0.5,0.6,1,1,1.5c1.4,2,3,3.9,4.8,5.7
			c0.9,0.9,1.9,1.8,2.9,2.6l-6.6,18.9l19.8-11c2.9,1.2,5.9,2.2,9,3c2.1,0.5,4.3,0.9,6.5,1.3c3.3,0.5,6.8,0.7,10.3,0.7
			c7,0,13.6-1,19.7-2.8c3-0.9,5.8-2,8.5-3.2c12.4-5.8,21.2-15.3,23.3-26.3c0.3-1.8,0.5-3.6,0.5-5.4
			C1765.2,252.8,1765.2,251.7,1765,250.7z M1681.6,260.9c-3.1,0-5.7-2.5-5.7-5.7c0-3.1,2.5-5.7,5.7-5.7s5.7,2.5,5.7,5.7
			C1687.3,258.4,1684.7,260.9,1681.6,260.9z M1702.7,260.9c-3.1,0-5.7-2.5-5.7-5.7c0-3.1,2.5-5.7,5.7-5.7s5.7,2.5,5.7,5.7
			C1708.4,258.4,1705.9,260.9,1702.7,260.9z M1723.8,260.9c-3.1,0-5.7-2.5-5.7-5.7c0-3.1,2.5-5.7,5.7-5.7s5.7,2.5,5.7,5.7
			C1729.5,258.4,1727,260.9,1723.8,260.9z M1745,260.9c-3.1,0-5.7-2.5-5.7-5.7c0-3.1,2.5-5.7,5.7-5.7c3.1,0,5.7,2.5,5.7,5.7
			C1750.6,258.4,1748.1,260.9,1745,260.9z"/>
      <g>
			<ellipse class="st0" cx="1792" cy="286.8" rx="6.4" ry="3.7"/>
        <ellipse class="st0" cx="1768.2" cy="286.8" rx="6.4" ry="3.7"/>
        <ellipse class="st0" cx="1815.7" cy="286.8" rx="6.4" ry="3.7"/>
		</g>
	</g>
    <rect x="1649" y="178.4" class="st1" width="200" height="200"/>
</g>
  <g>
	<g>
		<path class="st0" d="M2095.1,341.2h-87.5c-2.3,0-4.3-1.9-4.3-4.3V220.7c0-2.3,1.9-4.3,4.3-4.3h104.9c2.3,0,4.3,1.9,4.3,4.3v96.9
			c0,1.1-0.4,2.1-1.1,2.8l-17.4,19.3C2097.5,340.7,2096.3,341.2,2095.1,341.2z M2011.9,332.7h81.3l15.1-16.7v-91h-96.4V332.7z"/>
      <path class="st0" d="M2086.9,330.4c-1.6,0-2.8-1.3-2.8-2.8v-16.1c0-1.6,1.3-2.8,2.8-2.8h15.6c1.6,0,2.8,1.3,2.8,2.8
			s-1.3,2.8-2.8,2.8h-12.7v13.2C2089.8,329.1,2088.5,330.4,2086.9,330.4z"/>
      <g>
			<rect x="2026.1" y="238.6" class="st0" width="68" height="5.7"/>
        <rect x="2026.1" y="255.2" class="st0" width="68" height="5.7"/>
        <rect x="2026.1" y="271.8" class="st0" width="68" height="5.7"/>
        <rect x="2026.1" y="288.4" class="st0" width="68" height="5.7"/>
		</g>
	</g>
    <rect x="1960.1" y="178.8" class="st1" width="200" height="200"/>
</g>
  <rect x="2297.8" y="185.4" class="st1" width="200" height="200"/>
  <g>
	<g>
		<path class="st0" d="M2920.3,215.4c-3.4-0.9-6.9,1.1-7.8,4.5l-4.8,21.3c-3.2,3.5-6.8,6.9-9.8,9.6h-6.4c6.8-2.7,11.5-9.4,11.5-17.1
			c0-10.2-8.3-18.5-18.5-18.5c-10.2,0-18.5,8.3-18.5,18.5c0,7.7,4.8,14.4,11.5,17.1h-8.4c-2.3-0.1-4.6,1.1-5.8,3.3l-11.6,20.9
			c-0.4,0.7-0.7,1.5-0.8,2.3l-1,18.1c-0.4,3.5,0.8,6.7,4.3,7.1c0.3,0,0.5,0,0.8,0c3.2,0,5.3-2.4,5.7-5.6l2.8-16.9l3.5-5l-1.9,24.6
			l-4.8,12.8c-0.7,1.9-0.5,4,0.6,5.7l8.6,13.5c1.2,1.9,3.3,2.9,5.4,2.9c1.2,0,2.4-0.3,3.4-1c3-1.9,3.8-5.8,2-8.8l-5.9-9.2l10.3-13.2
			l5.9,34c0,3.5,2.8,6.4,6.4,6.4s6.4-2.8,6.4-6.4l1-34.4c0-0.2,0-0.4,0-0.7l-1.6-31.7c4.2-5.6,14.2-19.1,16.2-21.8
			c1.3-1.3,4.7-24.6,4.7-24.6C2924.4,219.8,2923.7,216.3,2920.3,215.4z"/>
      <path class="st0" d="M2845.4,294.9l-2.2-15.8c-0.1-0.8-0.3-1.5-0.7-2.2l-12.1-17.9c-1.1-2-3.2-3.1-5.4-3h-6.6
			c6-2.5,10.2-8.4,10.2-15.3c0-9.1-7.4-16.6-16.6-16.6c-9.1,0-16.5,7.4-16.5,16.6c0,6.9,4.2,12.8,10.2,15.3h-4.8
			c-2.8-2.5-6.2-5.7-9.1-9l-4.5-19.8c-0.9-3.2-4.1-5-7.3-4.2c-3.2,0.8-3.8,4.1-3,7.3c0,0,3.2,21.7,4.4,22.9
			c2.3,3.1,15.9,21.4,16.8,22.5c0.1,0.1,0.2,0.1,0.2,0.2l-1.1,14.2l-7.1,26.2l7.7-0.6l0.6,21.2c0,3.3,2.7,5.9,5.9,5.9s5-2.7,5-5.9
			l2.1-22.2l2.5-0.2l-1.4,5.8c-0.7,1.7-0.5,3.7,0.5,5.3l8,12.6c1.1,1.8,3,2.7,5,2.7c1.1,0,1.4-0.3,2.4-0.9c2.8-1.8,2.3-5.4,0.5-8.2
			l-4.7-8.6l4.3-9.8l7.9-0.6l-8.5-19.1l-1.5-19.2l4.8,7.2l3.9,14.7c0.4,3,2.3,5.2,5.3,5.2c0.2,0,0.5,0,0.7,0
			C2844.6,301.1,2845.8,298.1,2845.4,294.9z"/>
	</g>
    <rect x="2750.3" y="179" class="st1" width="200" height="200"/>
</g>
  <g>
	<g>
		<path class="st0" d="M1890,624.8c-0.1,0-0.1-0.1-0.2-0.1c-0.9-0.6-1.8-1.1-2.7-1.6c-0.2-0.1-0.3-0.2-0.5-0.3
			c-0.9-0.5-1.8-0.9-2.8-1.3c-0.2-0.1-0.4-0.2-0.6-0.2c-1-0.4-1.9-0.7-3-1.1c-0.1,0-0.2-0.1-0.3-0.1c-4-1.2-8.2-1.7-12.5-1.5
			c-0.3,0-0.7,0-1,0.1c-0.6,0-1.2,0-1.8,0.1c-6.5,0.8-12.7,3.4-17.9,7.5c-9.1,7.2-14.2,17.7-14.2,29.1c0,12.1,5,22.2,15.2,30.9
			c1.2,1,2.3,5,3,7.9c1.1,4.2,2.4,9.3,5.6,12.5c0.6,0.6,1.5,0.9,2.3,0.9h21.4c0.9,0,1.7-0.3,2.3-0.9c3.2-3.1,4.5-8.3,5.6-12.5
			c0.8-2.9,1.8-6.9,3-7.9c10.3-8.7,15.2-18.8,15.2-30.9c0-9.9-3.8-19.1-10.8-26.1C1893.8,627.6,1892,626.1,1890,624.8z M1885,679
			c-3.5,3-4.8,7.9-6,12.7c-0.9,3.3-2.1,8.3-3.7,8.3h-11.6c-1.5,0-2.8-5-3.7-8.3c-1.2-4.8-2.5-9.8-6-12.7
			c-8.1-6.9-11.9-14.4-11.9-23.6c0-7.3,2.9-14.2,8-19.4c5.2-5.2,12.1-8,19.4-8c7.3,0,14.2,2.9,19.4,8c5.2,5.2,8,12.1,8,19.4
			C1896.9,664.7,1893.1,672.2,1885,679z"/>
      <path class="st0" d="M1856.8,716.9c0,4,2,9.9,5.6,9.9c3.6,0,10.1,0,14.2,0c4,0,5.5-5.6,5.6-9.5c0-0.1,0-0.2,0-0.3h0c0,0,0,0,0,0
			H1856.8L1856.8,716.9z"/>
      <g>
			<path class="st0" d="M1869.5,586.3c-2.6,0-4.8,2.1-4.8,4.8l1.2,14c0,1.9,1.6,3.5,3.6,3.5s3.5-1.6,3.6-3.5l1.2-13.9l0-0.1
				C1874.2,588.5,1872.1,586.3,1869.5,586.3z"/>
        <path class="st0" d="M1825.9,604L1825.9,604c-0.3-0.3-0.5-0.4-0.6-0.5c-0.2-0.1-0.4-0.3-0.6-0.4c-0.4-0.2-0.7-0.4-1.1-0.5
				c-0.2,0-0.3-0.1-0.5-0.1c-0.4-0.1-0.9-0.1-1.3,0c-0.2,0-0.3,0.1-0.5,0.1c-0.4,0.1-0.8,0.3-1.1,0.5c-0.2,0.1-0.4,0.2-0.5,0.4
				c-0.1,0.1-0.3,0.2-0.5,0.4c-1.9,1.9-1.9,4.9,0,6.7l10.7,9c0.7,0.6,1.5,1,2.5,1c0,0,0,0,0,0c1,0,1.9-0.4,2.5-1
				c0.7-0.7,1-1.6,1-2.5c0-0.9-0.4-1.8-1-2.5L1825.9,604z"/>
        <path class="st0" d="M1817.5,646l-13.4-3.6l-0.1,0c-1.3-0.2-2.5,0.1-3.6,0.8c-1,0.7-1.7,1.8-2,3.1c-0.2,1.3,0.1,2.5,0.8,3.6
				c0.7,1,1.8,1.7,3.1,2l14,1.2c0.2,0,0.4,0,0.6,0c1.7,0,3.2-1.2,3.5-3C1820.6,648.2,1819.4,646.3,1817.5,646z"/>
        <path class="st0" d="M1920.4,610.7c0.9-0.9,1.4-2.1,1.4-3.4c0-1.3-0.5-2.5-1.4-3.4c-0.2-0.2-0.4-0.3-0.5-0.4
				c-0.2-0.1-0.3-0.2-0.5-0.3c-0.4-0.2-0.8-0.4-1.1-0.5c-0.2,0-0.3-0.1-0.5-0.1c-0.4-0.1-0.9-0.1-1.3,0c-0.2,0-0.4,0.1-0.5,0.1
				c-0.4,0.1-0.8,0.3-1.2,0.5c-0.2,0.1-0.4,0.2-0.5,0.4c-0.1,0.1-0.3,0.2-0.5,0.4l-9,10.7c-1.3,1.4-1.3,3.6,0,5c0.7,0.7,1.6,1,2.5,1
				c0.9,0,1.8-0.4,2.5-1L1920.4,610.7L1920.4,610.7z"/>
        <path class="st0" d="M1940.5,646.2c-0.2-1.3-0.9-2.3-2-3.1c-1-0.7-2.3-1-3.6-0.8l-13.6,3.6c-1.9,0.4-3.2,2.2-2.8,4.1
				c0.3,1.7,1.8,3,3.5,3c0.2,0,0.4,0,0.6,0l13.8-1.2l0.1,0c1.3-0.2,2.3-0.9,3.1-2C1940.5,648.7,1940.7,647.5,1940.5,646.2z"/>
		</g>
      <path class="st0" d="M1882.8,713c0,0.8-0.6,1.4-1.4,1.4h-23.9c-0.8,0-1.4-0.6-1.4-1.4v-1.4c0-0.8,0.6-1.4,1.4-1.4h23.9
			c0.8,0,1.4,0.6,1.4,1.4V713z"/>
	</g>
    <rect x="1769.5" y="556.5" class="st1" width="200" height="200"/>
</g>
  <g>
	<g>
		<rect x="2446.7" y="637.6" class="st0" width="36.4" height="36.4"/>
      <g>
			<path class="st0" d="M2353.6,674h-47.1l23.5-40.8L2353.6,674z"/>
		</g>
      <path class="st0" d="M2472.8,679h-17.6c-4.3,0-8,3.1-8.6,7.4l-3.8,18.4l-18.4-27.1c-1.9-3.6-6-5.3-9.8-4.4c9.6-6.1,16-16.8,16-29
			c0-18.9-15.3-34.2-34.2-34.2c-18.9,0-34.2,15.3-34.2,34.2c0,12.2,6.4,23,16.1,29c-3.8-1-8,0.7-9.9,4.3l-18.4,27.1l-3.8-18.4
			c-0.7-4.3-4.3-7.4-8.6-7.4h-17.6c-4.8,0-8.7,3.9-8.7,8.7s3.9,8.7,8.7,8.7h10.1l8.8,26.6c0.6,3.7,3.5,6.7,7.2,7.3
			c0.5,0.1,1,0.1,1.5,0.1c3.2,0,5.2-1.7,7.7-4.6l15.2-16.5l-2.3,28.3h56.6l-2.3-28.2l15.1,16.3c2.8,2.8,4.5,4.6,7.7,4.6
			c0.5,0,1,0,1.5-0.1c3.7-0.6,6.6-3.6,7.2-7.3l8.8-26.6h10.1c4.8,0,8.7-3.9,8.7-8.7S2477.6,679,2472.8,679z M2395.3,689.6
			c-3.4,0-6-2.4-6-6c0-3.6,2.6-6,6-6c3.3,0,6,2.4,6,6C2401.2,687.2,2398.6,689.6,2395.3,689.6z M2407.5,656.2
			c-4.7,3.2-7.6,4.8-7.6,9.7v1.5c0,2.5-1.7,3.8-4.5,3.8c-2.8,0-4.6-1.3-4.6-3.8v-1.6c0-4.4,0.9-6.9,2.8-9.4c1.5-1.9,2.2-2.5,6.8-5.5
			c4.5-3.1,6-4.7,6-8c0-4.6-3.6-7.3-9.3-7.3c-5.5,0-8.4,2.7-10,7.1c-0.9,2.2-2.3,3-4.1,3c-0.7,0-1.4-0.1-2.2-0.4
			c-1.9-0.5-3.6-1.7-3.6-3.9c0-0.4,0.1-1,0.3-1.6c1.2-3.3,3.1-6.2,5.8-8.4c3.5-2.7,8-4.3,14.4-4.3c11.5,0,18.8,5.9,18.8,15.1
			C2416.4,649.4,2412.4,652.7,2407.5,656.2z"/>
	</g>
    <rect x="2294.8" y="573.9" class="st1" width="200" height="200"/>
</g>
  <g>
	<g>
		<path class="st0" d="M2936.6,651.6c6.7-7.9,11-14.8,12.9-20.5c2.5-7.8,0.1-12.5-2.4-15l-0.2-0.2c-2.3-2.2-5.3-3.4-8.8-3.4
			c-1.9,0-4,0.4-6.2,1.1c-5.7,1.8-12.6,6.2-20.5,12.9c-5.5,4.6-10.7,9.9-15.6,15.5c-0.5,0.6-13.8,16.1-25.4,29.6
			c0.6,0.8,5.3,7.3,9.5,11.5c3.8,3.8,9.8,8.3,11.4,9.5c13.8-11.8,29.8-25.4,29.8-25.4C2926.7,662.3,2931.9,657.1,2936.6,651.6z"/>
      <path class="st0" d="M2874.7,688.4c-3.8-3.8-7.7-9-9.1-10.9c-6,7-11.6,13.4-12.1,13.9c-2.7,2.9,0,6.5,0.9,7.7
			c1.1,1.5,2.7,3.2,4.4,5c1.8,1.8,3.5,3.3,5,4.4c1,0.7,2.8,2.1,4.8,2.1c1.1,0,2.1-0.4,2.9-1.1c0.4-0.4,6.9-6.1,14-12.1
			C2879.3,693,2879.2,692.9,2874.7,688.4C2874.7,688.4,2874.7,688.4,2874.7,688.4z"/>
      <path class="st1" d="M2841.2,730c2.3-2.3,2.3-5.9,0-8.2c-2.3-2.3-5.9-2.3-8.2,0c-1.9,1.9-2.2,4.8-0.9,7l-16.1,16.8l1.4,1.4
			l16.8-16.1C2836.4,732.2,2839.3,731.9,2841.2,730z"/>
      <path class="st0" d="M2832.1,728.8c-1.3-2.2-1-5.1,0.9-7c2.3-2.3,5.9-2.3,8.2,0c2.3,2.3,2.3,5.9,0,8.2c-1.9,1.9-4.8,2.2-7,0.9
			l-16.8,16.1l1.7,1.7c6.5-2.9,16.5-6.5,26.9-6.6c3.2-7.2,7.9-16,15.8-24.8c0.9-1,1.9-2.1,2.9-3.1c0,0,0,0,0,0c0,0,0,0,0,0
			c-0.8-0.5-1.6-0.8-2.1-1.2c-1.9-1.5-4.5-3.3-6.9-5.7c-2.4-2.4-4.2-5-5.7-6.9c-0.3-0.4-0.6-1.1-1-1.8c0-0.1-0.1-0.1-0.1-0.2
			c0,0,0,0,0,0c0,0,0,0,0,0c-9.8,9.6-19.8,15.1-27.9,18.7c-0.4,10.1-3.9,20.2-6.8,26.8l1.8,1.8L2832.1,728.8z"/>
	</g>
    <rect x="2782.4" y="580.6" class="st1" width="200" height="200"/>
</g>
  <g>
	<g>
		<path class="st0" d="M1901,970.9h-20.8v-9.2h14l-7.1-18.2h-86.1l-7.1,18.2h15.7v9.2h-22.4c-1.5,0-2.9-0.8-3.8-2
			c-0.9-1.3-1-2.9-0.5-4.3l10.7-27.5c0.7-1.8,2.4-2.9,4.3-2.9h92.4c1.9,0,3.6,1.2,4.3,2.9l10.7,27.5c0.6,1.4,0.4,3-0.5,4.3
			C1903.9,970.1,1902.5,970.9,1901,970.9z"/>
      <path class="st0" d="M1882.3,997h-76.5v-46.9h76.5V997z M1811.4,991.3h65.2v-35.6h-65.2V991.3z"/>
      <path class="st0" d="M1901,1089.4h-113.9c-2.5,0-4.6-2.1-4.6-4.6V968.2c0-2,1.3-3.8,3.3-4.4c1.9-0.6,4,0.2,5.2,1.8l16.1,24h74.1
			l16.1-24c1.1-1.7,3.2-2.4,5.2-1.8c1.9,0.6,3.3,2.4,3.3,4.4v116.6C1905.6,1087.4,1903.5,1089.4,1901,1089.4z M1791.7,1080.2h104.7
			v-96.8l-9,13.5c-0.9,1.3-2.3,2-3.8,2h-79c-1.5,0-3-0.8-3.8-2l-9-13.5V1080.2z"/>
      <g>
			<path class="st0" d="M1809.2,1053.3l-3.5,8.7h-13.8l19.2-50h14.2l18.8,50h-13.9l-3.3-8.7H1809.2z M1818.3,1027.5h-0.1l-5.4,15.9
				h10.8L1818.3,1027.5z"/>
        <path class="st0" d="M1895.8,1036.1c0,16.2-11.6,27.6-27.7,27.6c-16.1,0-27.7-11.4-27.7-27.6c0-15.1,13.3-25.7,27.7-25.7
				S1895.8,1021,1895.8,1036.1z M1854,1036.2c0,8.6,6.4,14.9,14.1,14.9c7.8,0,14.1-6.3,14.1-14.9c0-6.9-6.4-13.2-14.1-13.2
				C1860.4,1023,1854,1029.3,1854,1036.2z"/>
		</g>
      <g>
			<rect x="1818.8" y="962.3" class="st0" width="51" height="4.3"/>
        <rect x="1818.8" y="971.1" class="st0" width="51" height="4.3"/>
        <rect x="1818.8" y="979.9" class="st0" width="51" height="4.3"/>
		</g>
	</g>
    <rect x="1744" y="911.8" class="st1" width="200" height="200"/>
</g>
  <g>
	<g>
		<rect x="2180.6" y="903.7" class="st1" width="200" height="200"/>
      <g>
			<path class="st0" d="M2279.7,1029.6c-4.2-1.4-6.6,2.9-6.9,3.6c-0.2,0.7-5.1,11.5-5.1,11.5l-9.1-12.2c-1.2-2.3-4.1-3.9-7.1-3.9
				l-2.3-0.1c6-2.7,10.2-8.7,10.2-15.7c0-9.5-7.7-17.2-17.2-17.2c-9.5,0-17.2,7.7-17.2,17.2c0,6.6,3.7,12.4,9.2,15.2l-2.5-0.1
				c0,0-30.2-24.2-31-24.7s-4.1-2.1-6.6,0.8c-2.1,2.5-0.8,6.5,0.9,7.8c0.8,0.6,32.1,31.3,32.1,31.3l-2.6,19.7h15.8h1.5h15.8
				l-1.2-12.5l8.2,6.2c2.1,2.1,4.9,2.1,6.3,1.7c1.9-0.6,2.8-2.1,4.1-5.2c0,0,7.6-16.1,8-17.1
				C2283.3,1034.8,2283.7,1030.9,2279.7,1029.6z"/>
        <path class="st0" d="M2347.8,944.7h-61.8c-11.9,0-21.6,9.7-21.6,21.6V991c0,6.5,2.9,12.4,7.6,16.4l-5.2,15.1l17.8-9.9
				c0.5,0,1,0.1,1.4,0.1h61.8c11.9,0,21.6-9.7,21.6-21.6v-24.7C2369.4,954.4,2359.7,944.7,2347.8,944.7z"/>
        <g>
				<path class="st0" d="M2307.9,1055.9c-1.3,0-2.4-0.9-2.7-2.1c-3.2-12.7-9.6-12.9-9.9-12.9c-1.5,0.1-2.7-1.1-2.8-2.6
					c-0.1-1.5,1-2.8,2.5-3c6.1-0.6,8.5-6.2,10-11.6c0.1-0.4,0.2-0.8,0.3-1.1c0.4-1.1,1.4-1.9,2.6-1.9c1.2,0,2.3,0.7,2.7,1.8
					c0.2,0.6,0.4,1.4,0.6,2.3c0.9,3.6,2.3,9.1,7.5,10.7c1.1,0.4,1.9,1.4,1.9,2.6c0,1.2-0.7,2.3-1.8,2.7c-6.5,2.3-8.1,12.5-8.1,12.6
					c-0.2,1.3-1.3,2.3-2.6,2.4C2308,1055.9,2307.9,1055.9,2307.9,1055.9z M2302.6,1038.2c1.7,1.4,3.5,3.4,5.1,6.4
					c1.1-2.2,2.5-4.4,4.5-6.2c-2.2-1.8-3.6-4-4.6-6.2C2306.5,1034.4,2304.9,1036.6,2302.6,1038.2z"/>
			</g>
        <g>
				<path class="st0" d="M2212.7,999.2c-1.4,0-2.6-0.9-2.9-2.3c-4.7-18.8-14.5-18.9-14.9-18.9c-1.6,0.1-3-1.2-3.1-2.8s1.1-3,2.7-3.2
					c10.4-1,13.6-12.3,14.9-17.1c0.2-0.6,0.3-1.1,0.4-1.5c0.4-1.2,1.5-2.1,2.8-2.1c0,0,0,0,0.1,0c1.3,0,2.4,0.8,2.8,2
					c0.3,0.8,0.6,1.9,0.9,3.1c1.3,5.3,3.4,13.4,11.2,15.9c1.2,0.4,2.1,1.5,2.1,2.8c0,1.3-0.8,2.5-2,2.9c-9.8,3.4-12,18.4-12,18.6
					c-0.2,1.4-1.4,2.5-2.8,2.6C2212.8,999.2,2212.8,999.2,2212.7,999.2z M2203.7,975.1c3,2.1,6.2,5.5,8.8,11.2c1.6-3.8,4.1-8,7.9-11
					c-4.1-2.9-6.4-7.1-7.9-11C2210.7,968.2,2208,972.3,2203.7,975.1z"/>
			</g>
		</g>
	</g>
    <rect x="2180.6" y="903.7" class="st1" width="200" height="200"/>
</g>
  <g>
	<g>
		<path class="st2" d="M583.2,1787.1h-47.6c-1.6,0-2.8-1.3-2.8-2.8V1744c0-1.6-1.3-2.8-2.8-2.8h-70.4c-1.6,0-2.8,1.3-2.8,2.8v40.3
			c0,1.6-1.3,2.8-2.8,2.8h-47.6c-1.6,0-2.8,1.3-2.8,2.8v85.9c0,1.6,1.3,2.8,2.8,2.8h58.5c1.6,0,2.8-1.3,2.8-2.8v-28.5
			c0-1.6,1.3-2.8,2.8-2.8h49.2c1.6,0,2.8,1.3,2.8,2.8v28.5c0,1.6,1.3,2.8,2.8,2.8h58c1.6,0,2.8-1.3,2.8-2.8V1790
			C586.1,1788.4,584.8,1787.1,583.2,1787.1z M431.5,1857.8h-14.2v-20.2h14.2V1857.8z M431.5,1823.2h-14.2v-20.2h14.2V1823.2z
			 M450.1,1857.8H436v-20.2h14.2V1857.8z M450.1,1823.2H436v-20.2h14.2V1823.2z M492.5,1823.2h-14.2v-20.2h14.2V1823.2z
			 M511.2,1823.2H497v-20.2h14.2V1823.2z M494.8,1792.8c-12.1,0-22-9.9-22-22c0-12.1,9.9-22,22-22c12.1,0,22,9.9,22,22
			C516.7,1783,506.9,1792.8,494.8,1792.8z M554.3,1857.8h-14.2v-20.2h14.2V1857.8z M554.3,1823.2h-14.2v-20.2h14.2V1823.2z
			 M573,1857.8h-14.2v-20.2H573V1857.8z M573,1823.2h-14.2v-20.2H573V1823.2z"/>
      <polygon class="st2" points="494.5,1777.4 479.9,1767.5 483.5,1762.2 493.9,1769.2 507,1757.6 511.3,1762.4 		"/>
	</g>
    <rect x="394.8" y="1709.9" class="st1" width="200" height="200"/>
</g>
  <g>
	<g>
		<path class="st1" d="M-506.6,1042.6c0.3,1.2,0.6,2.5,0.8,3.7C-505.9,1045.1-506.2,1043.8-506.6,1042.6z"/>
      <path class="st1" d="M-509.6,1035.5c0.7,1.1,1.2,2.3,1.8,3.5C-508.4,1037.8-508.9,1036.6-509.6,1035.5z"/>
      <path class="st1" d="M-607.3,1039c0.5-1.2,1.1-2.3,1.8-3.5C-606.2,1036.6-606.8,1037.8-607.3,1039z"/>
      <path class="st1" d="M-505.7,1047.1c0-0.2,0-0.5-0.1-0.7C-505.7,1046.6-505.7,1046.8-505.7,1047.1L-505.7,1047.1z"/>
      <polygon class="st1" points="-603.3,1094 -583.4,1083 -583.4,1083 		"/>
      <path class="st1" d="M-515.8,1027.6c-9.5-9.2-24.7-15.2-41.7-15.2s-32.2,6-41.7,15.2c9.5-9.2,24.7-15.2,41.7-15.2
			S-525.3,1018.4-515.8,1027.6z"/>
      <path class="st1" d="M-609.7,1050.2c0-1.3,0.1-2.6,0.3-3.9C-609.6,1047.6-609.7,1048.9-609.7,1050.2z"/>
      <path class="st1" d="M-515.8,1027.6c2,1.9,3.7,4,5.2,6.2C-512.1,1031.6-513.8,1029.6-515.8,1027.6z"/>
      <path class="st1" d="M-609.4,1046.3c0.2-1.3,0.4-2.5,0.8-3.7C-608.9,1043.8-609.2,1045.1-609.4,1046.3z"/>
      <path class="st1" d="M-604.5,1033.8c1.5-2.2,3.2-4.3,5.2-6.2C-601.3,1029.6-603.1,1031.6-604.5,1033.8z"/>
      <path d="M-505.5,1050.2c0-1-0.1-2.1-0.2-3.1l0,0C-505.6,1048.1-505.5,1049.2-505.5,1050.2z"/>
      <path class="st2" d="M-433.9,1093.4V1071c0-13.2-10.7-23.9-23.9-23.9h-39.4c0.1,1,0.1,2.1,0.1,3.1c0,1.8-0.1,3.6-0.4,5.4h39.6
			c8.5,0,15.4,6.9,15.4,15.4v22.5c0,5.5-3,10.6-7.8,13.4l-3,1.7l3,9.7l-15.5-9.4H-514c-8.5,0-15.4-6.9-15.4-15.4v-2.3
			c-2.7,1.1-5.6,2-8.5,2.8c0.3,12.9,10.9,23.4,23.9,23.4h45.9l32.5,19.7l-7.6-24.7C-437.3,1107.8-433.9,1100.8-433.9,1093.4z"/>
      <path class="st2" d="M-596.7,1075.1c-1-0.8-2-1.7-2.9-2.6C-598.7,1073.4-597.7,1074.3-596.7,1075.1z"/>
      <path class="st2" d="M-599.6,1072.5c-1.8-1.8-3.4-3.7-4.8-5.7C-603,1068.8-601.4,1070.7-599.6,1072.5z"/>
      <path class="st2" d="M-567.9,1087.2c-2.2-0.3-4.4-0.8-6.5-1.3C-572.3,1086.4-570.1,1086.9-567.9,1087.2z"/>
      <path class="st2" d="M-605.3,1065.3c-1.2-2.1-2.2-4.2-3-6.4C-607.5,1061.1-606.6,1063.2-605.3,1065.3z"/>
      <path class="st2" d="M-583.4,1083c2.9,1.2,5.9,2.2,9,3C-577.5,1085.1-580.6,1084.1-583.4,1083L-583.4,1083z"/>
      <path class="st2" d="M-505.7,1047.1c0-0.2,0-0.5-0.1-0.7c-0.2-1.3-0.4-2.5-0.8-3.7c-0.3-1.2-0.8-2.4-1.3-3.6
			c-0.5-1.2-1.1-2.3-1.8-3.5c-0.3-0.6-0.7-1.1-1-1.7c-1.5-2.2-3.2-4.3-5.2-6.2c-9.5-9.2-24.7-15.2-41.7-15.2s-32.2,6-41.7,15.2
			c-2,1.9-3.7,4-5.2,6.2c-0.4,0.5-0.7,1.1-1,1.7c-0.7,1.1-1.2,2.3-1.8,3.5c-0.5,1.2-0.9,2.4-1.3,3.6c-0.3,1.2-0.6,2.5-0.8,3.7
			c-0.2,1.3-0.3,2.6-0.3,3.9c0,3,0.5,5.9,1.4,8.7c0.7,2.2,1.7,4.4,3,6.4c0.3,0.5,0.6,1,1,1.5c1.4,2,3,3.9,4.8,5.7
			c0.9,0.9,1.9,1.8,2.9,2.6l-6.6,18.9l19.8-11c2.9,1.2,5.9,2.2,9,3c2.1,0.5,4.3,0.9,6.5,1.3c3.3,0.5,6.8,0.7,10.3,0.7
			c7,0,13.6-1,19.7-2.8c3-0.9,5.8-2,8.5-3.2c12.4-5.8,21.2-15.3,23.3-26.3c0.3-1.8,0.5-3.6,0.5-5.4
			C-505.5,1049.2-505.6,1048.1-505.7,1047.1z M-589.1,1057.3c-3.1,0-5.7-2.5-5.7-5.7c0-3.1,2.5-5.7,5.7-5.7s5.7,2.5,5.7,5.7
			C-583.5,1054.8-586,1057.3-589.1,1057.3z M-568,1057.3c-3.1,0-5.7-2.5-5.7-5.7c0-3.1,2.5-5.7,5.7-5.7s5.7,2.5,5.7,5.7
			C-562.3,1054.8-564.9,1057.3-568,1057.3z M-546.9,1057.3c-3.1,0-5.7-2.5-5.7-5.7c0-3.1,2.5-5.7,5.7-5.7s5.7,2.5,5.7,5.7
			C-541.2,1054.8-543.8,1057.3-546.9,1057.3z M-525.8,1057.3c-3.1,0-5.7-2.5-5.7-5.7c0-3.1,2.5-5.7,5.7-5.7c3.1,0,5.7,2.5,5.7,5.7
			C-520.1,1054.8-522.6,1057.3-525.8,1057.3z"/>
      <g>
			<circle class="st2" cx="-482.1" cy="1081.3" r="5.7"/>
        <circle class="st2" cx="-503.2" cy="1081.3" r="5.7"/>
        <circle class="st2" cx="-461" cy="1081.3" r="5.7"/>
		</g>
	</g>
    <rect x="-621.8" y="974.8" class="st1" width="200" height="200"/>
</g>
  <g>
	<g>
		<path class="st2" d="M-175.6,1137.6h-87.5c-2.3,0-4.3-1.9-4.3-4.3v-116.2c0-2.3,1.9-4.3,4.3-4.3h104.9c2.3,0,4.3,1.9,4.3,4.3v96.9
			c0,1.1-0.4,2.1-1.1,2.8l-17.4,19.3C-173.3,1137-174.4,1137.6-175.6,1137.6z M-258.9,1129.1h81.3l15.1-16.7v-91h-96.4V1129.1z"/>
      <path class="st2" d="M-183.8,1126.8c-1.6,0-2.8-1.3-2.8-2.8v-16.1c0-1.6,1.3-2.8,2.8-2.8h15.6c1.6,0,2.8,1.3,2.8,2.8
			s-1.3,2.8-2.8,2.8H-181v13.2C-181,1125.5-182.2,1126.8-183.8,1126.8z"/>
      <g>
			<rect x="-244.7" y="1035" class="st2" width="68" height="5.7"/>
        <rect x="-244.7" y="1051.6" class="st2" width="68" height="5.7"/>
        <rect x="-244.7" y="1068.2" class="st2" width="68" height="5.7"/>
        <rect x="-244.7" y="1084.8" class="st2" width="68" height="5.7"/>
		</g>
	</g>
    <rect x="-310.7" y="975.2" class="st1" width="200" height="200"/>
</g>
  <g>
	<g>
		<path class="st2" d="M80.3,1038.2c0.8,17.7,17.7,47.7,23.7,58.1c6,10.4,23.6,40,38.5,49.6c3.6,2.4,9.6,3.1,14.7,2
			c5-1,13.4-4.7,15.1-7.6c1.7-2.9,1.9-5.2,1.5-6.5c-0.7-2.6-3.2-7.4-6.7-12.2c-4-5.6-9.5-10.6-11.7-11.2c-2.2-0.6-4,0.8-5.3,1.9
			c-1.2,1.1-7.5,6.6-10.7,5.4c-3.3-1.1-17.6-21.6-22-29.2c-4.4-7.6-14.9-30.2-14.3-33.6c0.7-3.4,8.5-6,10.1-6.6
			c1.6-0.5,3.7-1.4,4.3-3.6c0.6-2.2-1-9.5-3.8-15.8c-2.5-5.4-5.4-10-7.3-11.9c-1-1-3-2-6.4-1.9c-3.3,0.1-10.7,5.4-14.1,9.3
			C82.4,1028.3,80,1033.8,80.3,1038.2z"/>
	</g>
    <rect x="27.1" y="981.8" class="st1" width="200" height="200"/>
</g>
  <g>
	<g>
		<path class="st2" d="M649.5,1011.8c-3.4-0.9-6.9,1.1-7.8,4.5l-4.8,21.3c-3.2,3.5-6.8,6.9-9.8,9.6h-6.4c6.8-2.7,11.5-9.4,11.5-17.1
			c0-10.2-8.3-18.5-18.5-18.5c-10.2,0-18.5,8.3-18.5,18.5c0,7.7,4.8,14.4,11.5,17.1h-8.4c-2.3-0.1-4.6,1.1-5.8,3.3l-11.6,20.9
			c-0.4,0.7-0.7,1.5-0.8,2.3l-1,18.1c-0.4,3.5,0.8,6.7,4.3,7.1c0.3,0,0.5,0,0.8,0c3.2,0,5.3-2.4,5.7-5.6l2.8-16.9l3.5-5l-1.9,24.6
			l-4.8,12.8c-0.7,1.9-0.5,4,0.6,5.7l8.6,13.5c1.2,1.9,3.3,2.9,5.4,2.9c1.2,0,2.4-0.3,3.4-1c3-1.9,3.8-5.8,2-8.8l-5.9-9.2l10.3-13.2
			l5.9,34c0,3.5,2.8,6.4,6.4,6.4s6.4-2.8,6.4-6.4l1-34.4c0-0.2,0-0.4,0-0.7l-1.6-31.7c4.2-5.6,14.2-19.1,16.2-21.8
			c1.3-1.3,4.7-24.6,4.7-24.6C653.7,1016.2,652.9,1012.7,649.5,1011.8z"/>
      <path class="st2" d="M574.6,1091.3l-2.2-15.8c-0.1-0.8-0.3-1.5-0.7-2.2l-12.1-17.9c-1.1-2-3.2-3.1-5.4-3h-6.6
			c6-2.5,10.2-8.4,10.2-15.3c0-9.1-7.4-16.6-16.6-16.6c-9.1,0-16.5,7.4-16.5,16.6c0,6.9,4.2,12.8,10.2,15.3h-4.8
			c-2.8-2.5-6.2-5.7-9.1-9l-4.5-19.8c-0.9-3.2-4.1-5-7.3-4.2c-3.2,0.8-3.8,4.1-3,7.3c0,0,3.2,21.7,4.4,22.9
			c2.3,3.1,15.9,21.4,16.8,22.5c0.1,0.1,0.2,0.1,0.2,0.2l-1.1,14.2l-7.1,26.2l7.7-0.6l0.6,21.2c0,3.3,2.7,5.9,5.9,5.9s5-2.7,5-5.9
			l2.1-22.2l2.5-0.2l-1.4,5.8c-0.7,1.7-0.5,3.7,0.5,5.3l8,12.6c1.1,1.8,3,2.7,5,2.7c1.1,0,1.4-0.3,2.4-0.9c2.8-1.8,2.3-5.4,0.5-8.2
			l-4.7-8.6l4.3-9.8l7.9-0.6l-8.5-19.1l-1.5-19.2l4.8,7.2l3.9,14.7c0.4,3,2.3,5.2,5.3,5.2c0.2,0,0.5,0,0.7,0
			C573.9,1097.5,575,1094.5,574.6,1091.3z"/>
	</g>
    <rect x="479.5" y="975.4" class="st1" width="200" height="200"/>
</g>
  <g>
	<g>
		<path class="st2" d="M-380.7,1421.2c-0.1,0-0.1-0.1-0.2-0.1c-0.9-0.6-1.8-1.1-2.7-1.6c-0.2-0.1-0.3-0.2-0.5-0.3
			c-0.9-0.5-1.8-0.9-2.8-1.3c-0.2-0.1-0.4-0.2-0.6-0.2c-1-0.4-1.9-0.7-3-1.1c-0.1,0-0.2-0.1-0.3-0.1c-4-1.2-8.2-1.7-12.5-1.5
			c-0.3,0-0.7,0-1,0.1c-0.6,0-1.2,0-1.8,0.1c-6.5,0.8-12.7,3.4-17.9,7.5c-9.1,7.2-14.2,17.7-14.2,29.1c0,12.1,5,22.2,15.2,30.9
			c1.2,1,2.3,5,3,7.9c1.1,4.2,2.4,9.3,5.6,12.5c0.6,0.6,1.5,0.9,2.3,0.9h21.4c0.9,0,1.7-0.3,2.3-0.9c3.2-3.1,4.5-8.3,5.6-12.5
			c0.8-2.9,1.8-6.9,3-7.9c10.3-8.7,15.2-18.8,15.2-30.9c0-9.9-3.8-19.1-10.8-26.1C-376.9,1424-378.8,1422.5-380.7,1421.2z
			 M-385.7,1475.4c-3.5,3-4.8,7.9-6,12.7c-0.9,3.3-2.1,8.3-3.7,8.3h-11.6c-1.5,0-2.8-5-3.7-8.3c-1.2-4.8-2.5-9.8-6-12.7
			c-8.1-6.9-11.9-14.4-11.9-23.6c0-7.3,2.9-14.2,8-19.4c5.2-5.2,12.1-8,19.4-8c7.3,0,14.2,2.9,19.4,8c5.2,5.2,8,12.1,8,19.4
			C-373.9,1461.1-377.6,1468.6-385.7,1475.4z"/>
      <path class="st2" d="M-414,1513.3c0,4,2,9.9,5.6,9.9c3.6,0,10.1,0,14.2,0s5.5-5.6,5.6-9.5c0-0.1,0-0.2,0-0.3h0c0,0,0,0,0,0H-414
			L-414,1513.3z"/>
      <g>
			<path class="st2" d="M-401.3,1382.7c-2.6,0-4.8,2.1-4.8,4.8l1.2,14c0,1.9,1.6,3.5,3.6,3.5s3.5-1.6,3.6-3.5l1.2-13.9l0-0.1
				C-396.5,1384.8-398.7,1382.7-401.3,1382.7z"/>
        <path class="st2" d="M-444.9,1400.4L-444.9,1400.4c-0.3-0.3-0.5-0.4-0.6-0.5c-0.2-0.1-0.4-0.3-0.6-0.4c-0.4-0.2-0.7-0.4-1.1-0.5
				c-0.2,0-0.3-0.1-0.5-0.1c-0.4-0.1-0.9-0.1-1.3,0c-0.2,0-0.3,0.1-0.5,0.1c-0.4,0.1-0.8,0.3-1.1,0.5c-0.2,0.1-0.4,0.2-0.5,0.4
				c-0.1,0.1-0.3,0.2-0.5,0.4c-1.9,1.9-1.9,4.9,0,6.7l10.7,9c0.7,0.6,1.5,1,2.5,1c0,0,0,0,0,0c1,0,1.9-0.4,2.5-1
				c0.7-0.7,1-1.6,1-2.5c0-0.9-0.4-1.8-1-2.5L-444.9,1400.4z"/>
        <path class="st2" d="M-453.3,1442.4l-13.4-3.6l-0.1,0c-1.3-0.2-2.5,0.1-3.6,0.8c-1,0.7-1.7,1.8-2,3.1c-0.2,1.3,0.1,2.5,0.8,3.6
				c0.7,1,1.8,1.7,3.1,2l14,1.2c0.2,0,0.4,0,0.6,0c1.7,0,3.2-1.2,3.5-3C-450.1,1444.6-451.4,1442.7-453.3,1442.4z"/>
        <path class="st2" d="M-350.4,1407.1c0.9-0.9,1.4-2.1,1.4-3.4c0-1.3-0.5-2.5-1.4-3.4c-0.2-0.2-0.4-0.3-0.5-0.4
				c-0.2-0.1-0.3-0.2-0.5-0.3c-0.4-0.2-0.8-0.4-1.1-0.5c-0.2,0-0.3-0.1-0.5-0.1c-0.4-0.1-0.9-0.1-1.3,0c-0.2,0-0.4,0.1-0.5,0.1
				c-0.4,0.1-0.8,0.3-1.2,0.5c-0.2,0.1-0.4,0.2-0.5,0.4c-0.1,0.1-0.3,0.2-0.5,0.4l-9,10.7c-1.3,1.4-1.3,3.6,0,5c0.7,0.7,1.6,1,2.5,1
				c0.9,0,1.8-0.4,2.5-1L-350.4,1407.1L-350.4,1407.1z"/>
        <path class="st2" d="M-330.2,1442.6c-0.2-1.3-0.9-2.3-2-3.1c-1-0.7-2.3-1-3.6-0.8l-13.6,3.6c-1.9,0.4-3.2,2.2-2.8,4.1
				c0.3,1.7,1.8,3,3.5,3c0.2,0,0.4,0,0.6,0l13.8-1.2l0.1,0c1.3-0.2,2.3-0.9,3.1-2C-330.3,1445.1-330,1443.9-330.2,1442.6z"/>
		</g>
      <path class="st2" d="M-387.9,1509.4c0,0.8-0.6,1.4-1.4,1.4h-23.9c-0.8,0-1.4-0.6-1.4-1.4v-1.4c0-0.8,0.6-1.4,1.4-1.4h23.9
			c0.8,0,1.4,0.6,1.4,1.4V1509.4z"/>
	</g>
    <rect x="-501.3" y="1352.9" class="st1" width="200" height="200"/>
</g>
  <g>
	<g>
		<rect x="175.9" y="1434" class="st2" width="36.4" height="36.4"/>
      <g>
			<path class="st2" d="M82.8,1470.4H35.7l23.5-40.8L82.8,1470.4z"/>
		</g>
      <path class="st2" d="M202,1475.4h-17.6c-4.3,0-8,3.1-8.6,7.4l-3.8,18.4l-18.4-27.1c-1.9-3.6-6-5.3-9.8-4.4c9.6-6.1,16-16.8,16-29
			c0-18.9-15.3-34.2-34.2-34.2c-18.9,0-34.2,15.3-34.2,34.2c0,12.2,6.4,23,16.1,29c-3.8-1-8,0.7-9.9,4.3l-18.4,27.1l-3.8-18.4
			c-0.7-4.3-4.3-7.4-8.6-7.4H49.2c-4.8,0-8.7,3.9-8.7,8.7c0,4.8,3.9,8.7,8.7,8.7h10.1l8.8,26.6c0.6,3.7,3.5,6.7,7.2,7.3
			c0.5,0.1,1,0.1,1.5,0.1c3.2,0,5.2-1.7,7.7-4.6l15.2-16.5l-2.3,28.3h56.6l-2.3-28.2l15.1,16.3c2.8,2.8,4.5,4.6,7.7,4.6
			c0.5,0,1,0,1.5-0.1c3.7-0.6,6.6-3.6,7.2-7.3l8.8-26.6H202c4.8,0,8.7-3.9,8.7-8.7C210.8,1479.3,206.9,1475.4,202,1475.4z
			 M124.5,1486c-3.4,0-6-2.4-6-6c0-3.6,2.6-6,6-6c3.3,0,6,2.4,6,6C130.5,1483.6,127.8,1486,124.5,1486z M136.7,1452.6
			c-4.7,3.2-7.6,4.8-7.6,9.7v1.5c0,2.5-1.7,3.8-4.5,3.8c-2.8,0-4.6-1.3-4.6-3.8v-1.6c0-4.4,0.9-6.9,2.8-9.4c1.5-1.9,2.2-2.5,6.8-5.5
			c4.5-3.1,6-4.7,6-8c0-4.6-3.6-7.3-9.3-7.3c-5.5,0-8.4,2.7-10,7.1c-0.9,2.2-2.3,3-4.1,3c-0.7,0-1.4-0.1-2.2-0.4
			c-1.9-0.5-3.6-1.7-3.6-3.9c0-0.4,0.1-1,0.3-1.6c1.2-3.3,3.1-6.2,5.8-8.4c3.5-2.7,8-4.3,14.4-4.3c11.5,0,18.8,5.9,18.8,15.1
			C145.7,1445.8,141.7,1449.1,136.7,1452.6z"/>
	</g>
    <rect x="24" y="1370.3" class="st1" width="200" height="200"/>
</g>
  <g>
	<g>
		<path class="st2" d="M665.8,1448c6.7-7.9,11-14.8,12.9-20.5c2.5-7.8,0.1-12.5-2.4-15l-0.2-0.2c-2.3-2.2-5.3-3.4-8.8-3.4
			c-1.9,0-4,0.4-6.2,1.1c-5.7,1.8-12.6,6.2-20.5,12.9c-5.5,4.6-10.7,9.9-15.6,15.5c-0.5,0.6-13.8,16.1-25.4,29.6
			c0.6,0.8,5.3,7.3,9.5,11.5c3.8,3.8,9.8,8.3,11.4,9.5c13.8-11.8,29.8-25.4,29.8-25.4C655.9,1458.7,661.2,1453.5,665.8,1448z"/>
      <path class="st2" d="M604,1484.8c-3.8-3.8-7.7-9-9.1-10.9c-6,7-11.6,13.4-12.1,13.9c-2.7,2.9,0,6.5,0.9,7.7c1.1,1.5,2.7,3.2,4.4,5
			c1.8,1.8,3.5,3.3,5,4.4c1,0.7,2.8,2.1,4.8,2.1c1.1,0,2.1-0.4,2.9-1.1c0.4-0.4,6.9-6.1,14-12.1
			C608.5,1489.4,608.5,1489.3,604,1484.8C603.9,1484.8,604,1484.8,604,1484.8z"/>
      <path class="st1" d="M570.5,1526.4c2.3-2.3,2.3-5.9,0-8.2c-2.3-2.3-5.9-2.3-8.2,0c-1.9,1.9-2.2,4.8-0.9,7l-16.1,16.8l1.4,1.4
			l16.8-16.1C565.7,1528.6,568.6,1528.3,570.5,1526.4z"/>
      <path class="st2" d="M561.4,1525.2c-1.3-2.2-1-5.1,0.9-7c2.3-2.3,5.9-2.3,8.2,0c2.3,2.3,2.3,5.9,0,8.2c-1.9,1.9-4.8,2.2-7,0.9
			l-16.8,16.1l1.7,1.7c6.5-2.9,16.5-6.5,26.9-6.6c3.2-7.2,7.9-16,15.8-24.8c0.9-1,1.9-2.1,2.9-3.1c0,0,0,0,0,0c0,0,0,0,0,0
			c-0.8-0.5-1.6-0.8-2.1-1.2c-1.9-1.5-4.5-3.3-6.9-5.7c-2.4-2.4-4.2-5-5.7-6.9c-0.3-0.4-0.6-1.1-1-1.8c0-0.1-0.1-0.1-0.1-0.2
			c0,0,0,0,0,0c0,0,0,0,0,0c-9.8,9.6-19.8,15.1-27.9,18.7c-0.4,10.1-3.9,20.2-6.8,26.8l1.8,1.8L561.4,1525.2z"/>
	</g>
    <rect x="511.6" y="1377" class="st1" width="200" height="200"/>
</g>
  <g>
	<g>
		<path class="st2" d="M-369.8,1767.3h-20.8v-9.2h14l-7.1-18.2h-86.1l-7.1,18.2h15.7v9.2h-22.4c-1.5,0-2.9-0.8-3.8-2
			c-0.9-1.3-1-2.9-0.5-4.3l10.7-27.5c0.7-1.8,2.4-2.9,4.3-2.9h92.4c1.9,0,3.6,1.2,4.3,2.9l10.7,27.5c0.6,1.4,0.4,3-0.5,4.3
			C-366.8,1766.5-368.3,1767.3-369.8,1767.3z"/>
      <path class="st2" d="M-388.5,1793.4H-465v-46.9h76.5V1793.4z M-459.3,1787.7h65.2v-35.6h-65.2V1787.7z"/>
      <path class="st2" d="M-369.8,1885.8h-113.9c-2.5,0-4.6-2.1-4.6-4.6v-116.6c0-2,1.3-3.8,3.3-4.4c1.9-0.6,4,0.2,5.2,1.8l16.1,24
			h74.1l16.1-24c1.1-1.7,3.2-2.4,5.2-1.8c1.9,0.6,3.3,2.4,3.3,4.4v116.6C-365.2,1883.8-367.2,1885.8-369.8,1885.8z M-479.1,1876.6
			h104.7v-96.8l-9,13.5c-0.9,1.3-2.3,2-3.8,2h-79c-1.5,0-3-0.8-3.8-2l-9-13.5V1876.6z"/>
      <g>
			<path class="st2" d="M-461.5,1849.7l-3.5,8.7h-13.8l19.2-50h14.2l18.8,50h-13.9l-3.3-8.7H-461.5z M-452.5,1823.9h-0.1l-5.4,15.9
				h10.8L-452.5,1823.9z"/>
        <path class="st2" d="M-374.9,1832.5c0,16.2-11.6,27.6-27.7,27.6c-16.1,0-27.7-11.4-27.7-27.6c0-15.1,13.3-25.7,27.7-25.7
				S-374.9,1817.4-374.9,1832.5z M-416.7,1832.6c0,8.6,6.4,14.9,14.1,14.9c7.8,0,14.1-6.3,14.1-14.9c0-6.9-6.4-13.2-14.1-13.2
				C-410.4,1819.3-416.7,1825.7-416.7,1832.6z"/>
		</g>
      <g>
			<rect x="-451.9" y="1758.7" class="st2" width="51" height="4.3"/>
        <rect x="-451.9" y="1767.5" class="st2" width="51" height="4.3"/>
        <rect x="-451.9" y="1776.3" class="st2" width="51" height="4.3"/>
		</g>
	</g>
    <rect x="-526.7" y="1708.2" class="st1" width="200" height="200"/>
</g>
  <g>
	<g>
		<rect x="-90.1" y="1700.1" class="st1" width="200" height="200"/>
      <g>
			<path class="st2" d="M9,1826c-4.2-1.4-6.6,2.9-6.9,3.6c-0.2,0.7-5.1,11.5-5.1,11.5l-9.1-12.2c-1.2-2.3-4.1-3.9-7.1-3.9l-2.3-0.1
				c6-2.7,10.2-8.7,10.2-15.7c0-9.5-7.7-17.2-17.2-17.2c-9.5,0-17.2,7.7-17.2,17.2c0,6.6,3.7,12.4,9.2,15.2l-2.5-0.1
				c0,0-30.2-24.2-31-24.7s-4.1-2.1-6.6,0.8c-2.1,2.5-0.8,6.5,0.9,7.8c0.8,0.6,32.1,31.3,32.1,31.3l-2.6,19.7h15.8h1.5h15.8
				l-1.2-12.5l8.2,6.2c2.1,2.1,4.9,2.1,6.3,1.7c1.9-0.6,2.8-2.1,4.1-5.2c0,0,7.6-16.1,8-17.1C12.6,1831.2,13,1827.3,9,1826z"/>
        <path class="st2" d="M77.1,1741.1H15.3c-11.9,0-21.6,9.7-21.6,21.6v24.7c0,6.5,2.9,12.4,7.6,16.4l-5.2,15.1l17.8-9.9
				c0.5,0,1,0.1,1.4,0.1h61.8c11.9,0,21.6-9.7,21.6-21.6v-24.7C98.7,1750.8,89,1741.1,77.1,1741.1z"/>
        <g>
				<path class="st2" d="M37.1,1852.3c-1.3,0-2.4-0.9-2.7-2.1c-3.2-12.7-9.6-12.9-9.9-12.9c-1.5,0.1-2.7-1.1-2.8-2.6
					c-0.1-1.5,1-2.8,2.5-3c6.1-0.6,8.5-6.2,10-11.6c0.1-0.4,0.2-0.8,0.3-1.1c0.4-1.1,1.4-1.9,2.6-1.9c1.2,0,2.3,0.7,2.7,1.8
					c0.2,0.6,0.4,1.4,0.6,2.3c0.9,3.6,2.3,9.1,7.5,10.7c1.1,0.4,1.9,1.4,1.9,2.6c0,1.2-0.7,2.3-1.8,2.7c-6.5,2.3-8.1,12.5-8.1,12.6
					c-0.2,1.3-1.3,2.3-2.6,2.4C37.2,1852.3,37.2,1852.3,37.1,1852.3z M31.8,1834.6c1.7,1.4,3.5,3.4,5.1,6.4c1.1-2.2,2.5-4.4,4.5-6.2
					c-2.2-1.8-3.6-4-4.6-6.2C35.7,1830.8,34.1,1833,31.8,1834.6z"/>
			</g>
        <g>
				<path class="st2" d="M-58,1795.6c-1.4,0-2.6-0.9-2.9-2.3c-4.7-18.8-14.5-18.9-14.9-18.9c-1.6,0.1-3-1.2-3.1-2.8
					c-0.1-1.6,1.1-3,2.7-3.2c10.4-1,13.6-12.3,14.9-17.1c0.2-0.6,0.3-1.1,0.4-1.5c0.4-1.2,1.5-2.1,2.8-2.1c0,0,0,0,0.1,0
					c1.3,0,2.4,0.8,2.8,2c0.3,0.8,0.6,1.9,0.9,3.1c1.3,5.3,3.4,13.4,11.2,15.9c1.2,0.4,2.1,1.5,2.1,2.8c0,1.3-0.8,2.5-2,2.9
					c-9.8,3.4-12,18.4-12,18.6c-0.2,1.4-1.4,2.5-2.8,2.6C-57.9,1795.6-57.9,1795.6-58,1795.6z M-67.1,1771.5c3,2.1,6.2,5.5,8.8,11.2
					c1.6-3.8,4.1-8,7.9-11c-4.1-2.9-6.4-7.1-7.9-11C-60,1764.6-62.7,1768.7-67.1,1771.5z"/>
			</g>
		</g>
	</g>
    <rect x="-90.1" y="1700.1" class="st1" width="200" height="200"/>
</g>
  <g>
	<g>
		<path class="st0" d="M40.5,48.7H14.3c-0.7,0-1.3-0.6-1.3-1.3V12.6c0-0.7,0.6-1.3,1.3-1.3h31.5c0.7,0,1.3,0.6,1.3,1.3v29.1
			c0,0.3-0.1,0.6-0.3,0.9l-5.2,5.8C41.2,48.6,40.9,48.7,40.5,48.7z M15.5,46.2h24.4l4.5-5V13.8H15.5V46.2z"/>
      <path class="st0" d="M38.1,45.5c-0.5,0-0.9-0.4-0.9-0.9v-4.8c0-0.5,0.4-0.9,0.9-0.9h4.7c0.5,0,0.9,0.4,0.9,0.9
			c0,0.5-0.4,0.9-0.9,0.9h-3.8v4C38.9,45.1,38.5,45.5,38.1,45.5z"/>
      <g>
			<rect x="19.8" y="17.9" class="st0" width="20.4" height="1.7"/>
        <rect x="19.8" y="22.9" class="st0" width="20.4" height="1.7"/>
        <rect x="19.8" y="27.9" class="st0" width="20.4" height="1.7"/>
        <rect x="19.8" y="32.9" class="st0" width="20.4" height="1.7"/>
		</g>
	</g>
    <rect class="st1" width="60" height="60"/>
</g>
</svg>