<?xml version="1.0" encoding="utf-8"?>
<!-- Generator: Adobe Illustrator 24.3.0, SVG Export Plug-In . SVG Version: 6.00 Build 0)  -->
<svg version="1.1" id="レイヤー_1" xmlns="http://www.w3.org/2000/svg" xmlns:xlink="http://www.w3.org/1999/xlink" x="0px"
	 y="0px" viewBox="0 0 60 60" style="enable-background:new 0 0 60 60;" xml:space="preserve">
<style type="text/css">
	.st0{fill:#ff8b05;}
	.st1{fill:none;}
	.st2{fill:#FFFFFF;}
</style>
<g>
	<g>
		<path class="st0" d="M2771.6,1001.7H2724c-1.6,0-2.8-1.3-2.8-2.8v-40.3c0-1.6-1.3-2.8-2.8-2.8h-70.4c-1.6,0-2.8,1.3-2.8,2.8v40.3
			c0,1.6-1.3,2.8-2.8,2.8h-47.6c-1.6,0-2.8,1.3-2.8,2.8v85.9c0,1.6,1.3,2.8,2.8,2.8h58.5c1.6,0,2.8-1.3,2.8-2.8v-28.5
			c0-1.6,1.3-2.8,2.8-2.8h49.2c1.6,0,2.8,1.3,2.8,2.8v28.5c0,1.6,1.3,2.8,2.8,2.8h58c1.6,0,2.8-1.3,2.8-2.8v-85.9
			C2774.4,1003,2773.1,1001.7,2771.6,1001.7z M2619.8,1072.4h-14.2v-20.2h14.2V1072.4z M2619.8,1037.8h-14.2v-20.2h14.2V1037.8z
			 M2638.5,1072.4h-14.2v-20.2h14.2V1072.4z M2638.5,1037.8h-14.2v-20.2h14.2V1037.8z M2680.9,1037.8h-14.2v-20.2h14.2V1037.8z
			 M2699.6,1037.8h-14.2v-20.2h14.2V1037.8z M2683.1,1007.4c-12.1,0-22-9.9-22-22c0-12.1,9.9-22,22-22c12.1,0,22,9.9,22,22
			C2705.1,997.6,2695.2,1007.4,2683.1,1007.4z M2742.7,1072.4h-14.2v-20.2h14.2V1072.4z M2742.7,1037.8h-14.2v-20.2h14.2V1037.8z
			 M2761.4,1072.4h-14.2v-20.2h14.2V1072.4z M2761.4,1037.8h-14.2v-20.2h14.2V1037.8z"/>
		<polygon class="st0" points="2682.8,992 2668.2,982.1 2671.9,976.8 2682.3,983.8 2695.4,972.2 2699.7,977 		"/>
	</g>
	<rect x="2583.1" y="924.5" class="st1" width="200" height="200"/>
</g>
<g>
	<g>
		<path class="st1" d="M1681.8,257.2c0.3,1.2,0.6,2.5,0.8,3.7C1682.4,259.7,1682.1,258.4,1681.8,257.2z"/>
		<path class="st1" d="M1678.7,250.1c0.7,1.1,1.2,2.3,1.8,3.5C1680,252.4,1679.4,251.2,1678.7,250.1z"/>
		<path class="st1" d="M1581,253.6c0.5-1.2,1.1-2.3,1.8-3.5C1582.1,251.2,1581.5,252.4,1581,253.6z"/>
		<path class="st1" d="M1682.7,261.7c0-0.2,0-0.5-0.1-0.7C1682.6,261.2,1682.6,261.4,1682.7,261.7L1682.7,261.7z"/>
		<polygon class="st1" points="1585.1,308.6 1604.9,297.6 1604.9,297.6 		"/>
		<path class="st1" d="M1672.5,242.2c-9.5-9.2-24.7-15.2-41.7-15.2s-32.2,6-41.7,15.2c9.5-9.2,24.7-15.2,41.7-15.2
			S1663,233,1672.5,242.2z"/>
		<path class="st1" d="M1578.7,264.8c0-1.3,0.1-2.6,0.3-3.9C1578.8,262.2,1578.7,263.5,1578.7,264.8z"/>
		<path class="st1" d="M1672.5,242.2c2,1.9,3.7,4,5.2,6.2C1676.2,246.2,1674.5,244.2,1672.5,242.2z"/>
		<path class="st1" d="M1579,260.9c0.2-1.3,0.4-2.5,0.8-3.7C1579.4,258.4,1579.1,259.7,1579,260.9z"/>
		<path class="st1" d="M1583.8,248.4c1.5-2.2,3.2-4.3,5.2-6.2C1587,244.2,1585.3,246.2,1583.8,248.4z"/>
		<path d="M1682.8,264.8c0-1-0.1-2.1-0.2-3.1l0,0C1682.8,262.7,1682.8,263.8,1682.8,264.8z"/>
		<path class="st0" d="M1754.5,308v-22.5c0-13.2-10.7-23.9-23.9-23.9h-39.4c0.1,1,0.1,2.1,0.1,3.1c0,1.8-0.1,3.6-0.4,5.4h39.6
			c8.5,0,15.4,6.9,15.4,15.4V308c0,5.5-3,10.6-7.8,13.4l-3,1.7l3,9.7l-15.5-9.4h-48.3c-8.5,0-15.4-6.9-15.4-15.4v-2.3
			c-2.7,1.1-5.6,2-8.5,2.8c0.3,12.9,10.9,23.4,23.9,23.4h45.9l32.5,19.7l-7.6-24.7C1751,322.4,1754.5,315.4,1754.5,308z"/>
		<path class="st2" d="M1591.6,289.7c-1-0.8-2-1.7-2.9-2.6C1589.7,288,1590.6,288.9,1591.6,289.7z"/>
		<path class="st2" d="M1588.8,287.1c-1.8-1.8-3.4-3.7-4.8-5.7C1585.4,283.4,1587,285.3,1588.8,287.1z"/>
		<path class="st2" d="M1620.5,301.8c-2.2-0.3-4.4-0.8-6.5-1.3C1616.1,301,1618.2,301.5,1620.5,301.8z"/>
		<path class="st2" d="M1583,279.9c-1.2-2.1-2.2-4.2-3-6.4C1580.8,275.7,1581.8,277.8,1583,279.9z"/>
		<path class="st2" d="M1604.9,297.6c2.9,1.2,5.9,2.2,9,3C1610.8,299.7,1607.8,298.7,1604.9,297.6L1604.9,297.6z"/>
		<path class="st0" d="M1682.7,261.7c0-0.2,0-0.5-0.1-0.7c-0.2-1.3-0.4-2.5-0.8-3.7c-0.3-1.2-0.8-2.4-1.3-3.6
			c-0.5-1.2-1.1-2.3-1.8-3.5c-0.3-0.6-0.7-1.1-1-1.7c-1.5-2.2-3.2-4.3-5.2-6.2c-9.5-9.2-24.7-15.2-41.7-15.2s-32.2,6-41.7,15.2
			c-2,1.9-3.7,4-5.2,6.2c-0.4,0.5-0.7,1.1-1,1.7c-0.7,1.1-1.2,2.3-1.8,3.5c-0.5,1.2-0.9,2.4-1.3,3.6c-0.3,1.2-0.6,2.5-0.8,3.7
			c-0.2,1.3-0.3,2.6-0.3,3.9c0,3,0.5,5.9,1.4,8.7c0.7,2.2,1.7,4.4,3,6.4c0.3,0.5,0.6,1,1,1.5c1.4,2,3,3.9,4.8,5.7
			c0.9,0.9,1.9,1.8,2.9,2.6l-6.6,18.9l19.8-11c2.9,1.2,5.9,2.2,9,3c2.1,0.5,4.3,0.9,6.5,1.3c3.3,0.5,6.8,0.7,10.3,0.7
			c7,0,13.6-1,19.7-2.8c3-0.9,5.8-2,8.5-3.2c12.4-5.8,21.2-15.3,23.3-26.3c0.3-1.8,0.5-3.6,0.5-5.4
			C1682.8,263.8,1682.8,262.7,1682.7,261.7z M1599.2,271.9c-3.1,0-5.7-2.5-5.7-5.7c0-3.1,2.5-5.7,5.7-5.7s5.7,2.5,5.7,5.7
			C1604.9,269.4,1602.3,271.9,1599.2,271.9z M1620.3,271.9c-3.1,0-5.7-2.5-5.7-5.7c0-3.1,2.5-5.7,5.7-5.7s5.7,2.5,5.7,5.7
			C1626,269.4,1623.5,271.9,1620.3,271.9z M1641.5,271.9c-3.1,0-5.7-2.5-5.7-5.7c0-3.1,2.5-5.7,5.7-5.7s5.7,2.5,5.7,5.7
			C1647.1,269.4,1644.6,271.9,1641.5,271.9z M1662.6,271.9c-3.1,0-5.7-2.5-5.7-5.7c0-3.1,2.5-5.7,5.7-5.7c3.1,0,5.7,2.5,5.7,5.7
			C1668.2,269.4,1665.7,271.9,1662.6,271.9z"/>
		<g>
			<ellipse class="st0" cx="1709.6" cy="297.8" rx="6.4" ry="3.7"/>
			<ellipse class="st0" cx="1685.8" cy="297.8" rx="6.4" ry="3.7"/>
			<ellipse class="st0" cx="1733.3" cy="297.8" rx="6.4" ry="3.7"/>
		</g>
	</g>
	<rect x="1566.6" y="189.4" class="st1" width="200" height="200"/>
</g>
<g>
	<g>
		<path class="st0" d="M2012.7,352.2h-87.5c-2.3,0-4.3-1.9-4.3-4.3V231.7c0-2.3,1.9-4.3,4.3-4.3h104.9c2.3,0,4.3,1.9,4.3,4.3v96.9
			c0,1.1-0.4,2.1-1.1,2.8l-17.4,19.3C2015.1,351.6,2013.9,352.2,2012.7,352.2z M1929.5,343.7h81.3l15.1-16.7v-91h-96.4V343.7z"/>
		<path class="st0" d="M2004.5,341.4c-1.6,0-2.8-1.3-2.8-2.8v-16.1c0-1.6,1.3-2.8,2.8-2.8h15.6c1.6,0,2.8,1.3,2.8,2.8
			s-1.3,2.8-2.8,2.8h-12.7v13.2C2007.4,340.1,2006.1,341.4,2004.5,341.4z"/>
		<g>
			<rect x="1943.7" y="249.6" class="st0" width="68" height="5.7"/>
			<rect x="1943.7" y="266.2" class="st0" width="68" height="5.7"/>
			<rect x="1943.7" y="282.8" class="st0" width="68" height="5.7"/>
			<rect x="1943.7" y="299.4" class="st0" width="68" height="5.7"/>
		</g>
	</g>
	<rect x="1877.7" y="189.8" class="st1" width="200" height="200"/>
</g>
<g>
	<g>
		<path class="st0" d="M2268.6,252.8c0.8,17.7,17.7,47.7,23.7,58.1c6,10.4,23.6,40,38.5,49.6c3.6,2.4,9.6,3.1,14.7,2
			c5-1,13.4-4.7,15.1-7.6c1.7-2.9,1.9-5.2,1.5-6.5c-0.7-2.6-3.2-7.4-6.7-12.2c-4-5.6-9.5-10.6-11.7-11.2c-2.2-0.6-4,0.8-5.3,1.9
			c-1.2,1.1-7.5,6.6-10.7,5.4c-3.3-1.1-17.6-21.6-22-29.2c-4.4-7.6-14.9-30.2-14.3-33.6c0.7-3.4,8.5-6,10.1-6.6
			c1.6-0.5,3.7-1.4,4.3-3.6c0.6-2.2-1-9.5-3.8-15.8c-2.5-5.4-5.4-10-7.3-11.9c-1-1-3-2-6.4-1.9c-3.3,0.1-10.7,5.4-14.1,9.3
			C2270.8,242.9,2268.3,248.4,2268.6,252.8z"/>
	</g>
	<rect x="2215.4" y="196.4" class="st1" width="200" height="200"/>
</g>
<g>
	<g>
		<path class="st0" d="M2837.9,226.4c-3.4-0.9-6.9,1.1-7.8,4.5l-4.8,21.3c-3.2,3.5-6.8,6.9-9.8,9.6h-6.4c6.8-2.7,11.5-9.4,11.5-17.1
			c0-10.2-8.3-18.5-18.5-18.5c-10.2,0-18.5,8.3-18.5,18.5c0,7.7,4.8,14.4,11.5,17.1h-8.4c-2.3-0.1-4.6,1.1-5.8,3.3l-11.6,20.9
			c-0.4,0.7-0.7,1.5-0.8,2.3l-1,18.1c-0.4,3.5,0.8,6.7,4.3,7.1c0.3,0,0.5,0,0.8,0c3.2,0,5.3-2.4,5.7-5.6l2.8-16.9l3.5-5l-1.9,24.6
			l-4.8,12.8c-0.7,1.9-0.5,4,0.6,5.7l8.6,13.5c1.2,1.9,3.3,2.9,5.4,2.9c1.2,0,2.4-0.3,3.4-1c3-1.9,3.8-5.8,2-8.8l-5.9-9.2l10.3-13.2
			l5.9,34c0,3.5,2.8,6.4,6.4,6.4s6.4-2.8,6.4-6.4l1-34.4c0-0.2,0-0.4,0-0.7l-1.6-31.7c4.2-5.6,14.2-19.1,16.2-21.8
			c1.3-1.3,4.7-24.6,4.7-24.6C2842,230.8,2841.3,227.3,2837.9,226.4z"/>
		<path class="st0" d="M2763,305.9l-2.2-15.8c-0.1-0.8-0.3-1.5-0.7-2.2l-12.1-17.9c-1.1-2-3.2-3.1-5.4-3h-6.6
			c6-2.5,10.2-8.4,10.2-15.3c0-9.1-7.4-16.6-16.6-16.6c-9.1,0-16.5,7.4-16.5,16.6c0,6.9,4.2,12.8,10.2,15.3h-4.8
			c-2.8-2.5-6.2-5.7-9.1-9l-4.5-19.8c-0.9-3.2-4.1-5-7.3-4.2c-3.2,0.8-3.8,4.1-3,7.3c0,0,3.2,21.7,4.4,22.9
			c2.3,3.1,15.9,21.4,16.8,22.5c0.1,0.1,0.2,0.1,0.2,0.2l-1.1,14.2l-7.1,26.2l7.7-0.6l0.6,21.2c0,3.3,2.7,5.9,5.9,5.9
			c3.3,0,5-2.7,5-5.9l2.1-22.2l2.5-0.2l-1.4,5.8c-0.7,1.7-0.5,3.7,0.5,5.3l8,12.6c1.1,1.8,3,2.7,5,2.7c1.1,0,1.4-0.3,2.4-0.9
			c2.8-1.8,2.3-5.4,0.5-8.2l-4.7-8.6l4.3-9.8l7.9-0.6l-8.5-19.1l-1.5-19.2l4.8,7.2l3.9,14.7c0.4,3,2.3,5.2,5.3,5.2
			c0.2,0,0.5,0,0.7,0C2762.2,312.1,2763.4,309.1,2763,305.9z"/>
	</g>
	<rect x="2667.9" y="190" class="st1" width="200" height="200"/>
</g>
<g>
	<g>
		<path class="st0" d="M1807.6,635.8c-0.1,0-0.1-0.1-0.2-0.1c-0.9-0.6-1.8-1.1-2.7-1.6c-0.2-0.1-0.3-0.2-0.5-0.3
			c-0.9-0.5-1.8-0.9-2.8-1.3c-0.2-0.1-0.4-0.2-0.6-0.2c-1-0.4-1.9-0.7-3-1.1c-0.1,0-0.2-0.1-0.3-0.1c-4-1.2-8.2-1.7-12.5-1.5
			c-0.3,0-0.7,0-1,0.1c-0.6,0-1.2,0-1.8,0.1c-6.5,0.8-12.7,3.4-17.9,7.5c-9.1,7.2-14.2,17.7-14.2,29.1c0,12.1,5,22.2,15.2,30.9
			c1.2,1,2.3,5,3,7.9c1.1,4.2,2.4,9.3,5.6,12.5c0.6,0.6,1.5,0.9,2.3,0.9h21.4c0.9,0,1.7-0.3,2.3-0.9c3.2-3.1,4.5-8.3,5.6-12.5
			c0.8-2.9,1.8-6.9,3-7.9c10.3-8.7,15.2-18.8,15.2-30.9c0-9.9-3.8-19.1-10.8-26.1C1811.4,638.6,1809.6,637.1,1807.6,635.8z
			 M1802.6,690c-3.5,3-4.8,7.9-6,12.7c-0.9,3.3-2.1,8.3-3.7,8.3h-11.6c-1.5,0-2.8-5-3.7-8.3c-1.2-4.8-2.5-9.8-6-12.7
			c-8.1-6.9-11.9-14.4-11.9-23.6c0-7.3,2.9-14.2,8-19.4c5.2-5.2,12.1-8,19.4-8c7.3,0,14.2,2.9,19.4,8c5.2,5.2,8,12.1,8,19.4
			C1814.5,675.7,1810.7,683.2,1802.6,690z"/>
		<path class="st0" d="M1774.4,727.9c0,4,2,9.9,5.6,9.9s10.1,0,14.2,0c4,0,5.5-5.6,5.6-9.5c0-0.1,0-0.2,0-0.3h0c0,0,0,0,0,0H1774.4
			L1774.4,727.9z"/>
		<g>
			<path class="st0" d="M1787.1,597.3c-2.6,0-4.8,2.1-4.8,4.8l1.2,14c0,1.9,1.6,3.5,3.6,3.5s3.5-1.6,3.6-3.5l1.2-13.9l0-0.1
				C1791.8,599.4,1789.7,597.3,1787.1,597.3z"/>
			<path class="st0" d="M1743.5,615L1743.5,615c-0.3-0.3-0.5-0.4-0.6-0.5c-0.2-0.1-0.4-0.3-0.6-0.4c-0.4-0.2-0.7-0.4-1.1-0.5
				c-0.2,0-0.3-0.1-0.5-0.1c-0.4-0.1-0.9-0.1-1.3,0c-0.2,0-0.3,0.1-0.5,0.1c-0.4,0.1-0.8,0.3-1.1,0.5c-0.2,0.1-0.4,0.2-0.5,0.4
				c-0.1,0.1-0.3,0.2-0.5,0.4c-1.9,1.9-1.9,4.9,0,6.7l10.7,9c0.7,0.6,1.5,1,2.5,1c0,0,0,0,0,0c1,0,1.9-0.4,2.5-1
				c0.7-0.7,1-1.6,1-2.5c0-0.9-0.4-1.8-1-2.5L1743.5,615z"/>
			<path class="st0" d="M1735.1,657l-13.4-3.6l-0.1,0c-1.3-0.2-2.5,0.1-3.6,0.8c-1,0.7-1.7,1.8-2,3.1c-0.2,1.3,0.1,2.5,0.8,3.6
				c0.7,1,1.8,1.7,3.1,2l14,1.2c0.2,0,0.4,0,0.6,0c1.7,0,3.2-1.2,3.5-3C1738.2,659.2,1737,657.3,1735.1,657z"/>
			<path class="st0" d="M1838,621.7c0.9-0.9,1.4-2.1,1.4-3.4c0-1.3-0.5-2.5-1.4-3.4c-0.2-0.2-0.4-0.3-0.5-0.4
				c-0.2-0.1-0.3-0.2-0.5-0.3c-0.4-0.2-0.8-0.4-1.1-0.5c-0.2,0-0.3-0.1-0.5-0.1c-0.4-0.1-0.9-0.1-1.3,0c-0.2,0-0.4,0.1-0.5,0.1
				c-0.4,0.1-0.8,0.3-1.2,0.5c-0.2,0.1-0.4,0.2-0.5,0.4c-0.1,0.1-0.3,0.2-0.5,0.4l-9,10.7c-1.3,1.4-1.3,3.6,0,5c0.7,0.7,1.6,1,2.5,1
				c0.9,0,1.8-0.4,2.5-1L1838,621.7L1838,621.7z"/>
			<path class="st0" d="M1858.1,657.2c-0.2-1.3-0.9-2.3-2-3.1c-1-0.7-2.3-1-3.6-0.8L1839,657c-1.9,0.4-3.2,2.2-2.8,4.1
				c0.3,1.7,1.8,3,3.5,3c0.2,0,0.4,0,0.6,0l13.8-1.2l0.1,0c1.3-0.2,2.3-0.9,3.1-2C1858.1,659.7,1858.3,658.5,1858.1,657.2z"/>
		</g>
		<path class="st0" d="M1800.4,724c0,0.8-0.6,1.4-1.4,1.4h-23.9c-0.8,0-1.4-0.6-1.4-1.4v-1.4c0-0.8,0.6-1.4,1.4-1.4h23.9
			c0.8,0,1.4,0.6,1.4,1.4V724z"/>
	</g>
	<rect x="1687.1" y="567.5" class="st1" width="200" height="200"/>
</g>
<g>
	<g>
		<rect x="2364.3" y="648.6" class="st0" width="36.4" height="36.4"/>
		<g>
			<path class="st0" d="M2271.2,685h-47.1l23.5-40.8L2271.2,685z"/>
		</g>
		<path class="st0" d="M2390.4,690h-17.6c-4.3,0-8,3.1-8.6,7.4l-3.8,18.4l-18.4-27.1c-1.9-3.6-6-5.3-9.8-4.4c9.6-6.1,16-16.8,16-29
			c0-18.9-15.3-34.2-34.2-34.2c-18.9,0-34.2,15.3-34.2,34.2c0,12.2,6.4,23,16.1,29c-3.8-1-8,0.7-9.9,4.3l-18.4,27.1l-3.8-18.4
			c-0.7-4.3-4.3-7.4-8.6-7.4h-17.6c-4.8,0-8.7,3.9-8.7,8.7s3.9,8.7,8.7,8.7h10.1l8.8,26.6c0.6,3.7,3.5,6.7,7.2,7.3
			c0.5,0.1,1,0.1,1.5,0.1c3.2,0,5.2-1.7,7.7-4.6l15.2-16.5l-2.3,28.3h56.6l-2.3-28.2l15.1,16.3c2.8,2.8,4.5,4.6,7.7,4.6
			c0.5,0,1,0,1.5-0.1c3.7-0.6,6.6-3.6,7.2-7.3l8.8-26.6h10.1c4.8,0,8.7-3.9,8.7-8.7S2395.2,690,2390.4,690z M2312.9,700.6
			c-3.4,0-6-2.4-6-6c0-3.6,2.6-6,6-6c3.3,0,6,2.4,6,6C2318.9,698.2,2316.2,700.6,2312.9,700.6z M2325.1,667.2
			c-4.7,3.2-7.6,4.8-7.6,9.7v1.5c0,2.5-1.7,3.8-4.5,3.8c-2.8,0-4.6-1.3-4.6-3.8v-1.6c0-4.4,0.9-6.9,2.8-9.4c1.5-1.9,2.2-2.5,6.8-5.5
			c4.5-3.1,6-4.7,6-8c0-4.6-3.6-7.3-9.3-7.3c-5.5,0-8.4,2.7-10,7.1c-0.9,2.2-2.3,3-4.1,3c-0.7,0-1.4-0.1-2.2-0.4
			c-1.9-0.5-3.6-1.7-3.6-3.9c0-0.4,0.1-1,0.3-1.6c1.2-3.3,3.1-6.2,5.8-8.4c3.5-2.7,8-4.3,14.4-4.3c11.5,0,18.8,5.9,18.8,15.1
			C2334,660.4,2330,663.7,2325.1,667.2z"/>
	</g>
	<rect x="2212.4" y="584.9" class="st1" width="200" height="200"/>
</g>
<g>
	<g>
		<path class="st0" d="M2854.2,662.6c6.7-7.9,11-14.8,12.9-20.5c2.5-7.8,0.1-12.5-2.4-15l-0.2-0.2c-2.3-2.2-5.3-3.4-8.8-3.4
			c-1.9,0-4,0.4-6.2,1.1c-5.7,1.8-12.6,6.2-20.5,12.9c-5.5,4.6-10.7,9.9-15.6,15.5c-0.5,0.6-13.8,16.1-25.4,29.6
			c0.6,0.8,5.3,7.3,9.5,11.5c3.8,3.8,9.8,8.3,11.4,9.5c13.8-11.8,29.8-25.4,29.8-25.4C2844.3,673.3,2849.5,668.1,2854.2,662.6z"/>
		<path class="st0" d="M2792.3,699.4c-3.8-3.8-7.7-9-9.1-10.9c-6,7-11.6,13.4-12.1,13.9c-2.7,2.9,0,6.5,0.9,7.7
			c1.1,1.5,2.7,3.2,4.4,5c1.8,1.8,3.5,3.3,5,4.4c1,0.7,2.8,2.1,4.8,2.1c1.1,0,2.1-0.4,2.9-1.1c0.4-0.4,6.9-6.1,14-12.1
			C2796.9,704,2796.8,703.9,2792.3,699.4C2792.3,699.4,2792.3,699.4,2792.3,699.4z"/>
		<path class="st1" d="M2758.8,741c2.3-2.3,2.3-5.9,0-8.2c-2.3-2.3-5.9-2.3-8.2,0c-1.9,1.9-2.2,4.8-0.9,7l-16.1,16.8l1.4,1.4
			l16.8-16.1C2754,743.2,2756.9,742.9,2758.8,741z"/>
		<path class="st0" d="M2749.7,739.8c-1.3-2.2-1-5.1,0.9-7c2.3-2.3,5.9-2.3,8.2,0c2.3,2.3,2.3,5.9,0,8.2c-1.9,1.9-4.8,2.2-7,0.9
			l-16.8,16.1l1.7,1.7c6.5-2.9,16.5-6.5,26.9-6.6c3.2-7.2,7.9-16,15.8-24.8c0.9-1,1.9-2.1,2.9-3.1c0,0,0,0,0,0c0,0,0,0,0,0
			c-0.8-0.5-1.6-0.8-2.1-1.2c-1.9-1.5-4.5-3.3-6.9-5.7c-2.4-2.4-4.2-5-5.7-6.9c-0.3-0.4-0.6-1.1-1-1.8c0-0.1-0.1-0.1-0.1-0.2
			c0,0,0,0,0,0c0,0,0,0,0,0c-9.8,9.6-19.8,15.1-27.9,18.7c-0.4,10.1-3.9,20.2-6.8,26.8l1.8,1.8L2749.7,739.8z"/>
	</g>
	<rect x="2700" y="591.6" class="st1" width="200" height="200"/>
</g>
<g>
	<g>
		<path class="st0" d="M1818.6,981.9h-20.8v-9.2h14l-7.1-18.2h-86.1l-7.1,18.2h15.7v9.2h-22.4c-1.5,0-2.9-0.8-3.8-2
			c-0.9-1.3-1-2.9-0.5-4.3l10.7-27.5c0.7-1.8,2.4-2.9,4.3-2.9h92.4c1.9,0,3.6,1.2,4.3,2.9l10.7,27.5c0.6,1.4,0.4,3-0.5,4.3
			C1821.5,981.1,1820.1,981.9,1818.6,981.9z"/>
		<path class="st0" d="M1799.9,1008h-76.5v-46.9h76.5V1008z M1729,1002.3h65.2v-35.6H1729V1002.3z"/>
		<path class="st0" d="M1818.6,1100.4h-113.9c-2.5,0-4.6-2.1-4.6-4.6V979.2c0-2,1.3-3.8,3.3-4.4c1.9-0.6,4,0.2,5.2,1.8l16.1,24h74.1
			l16.1-24c1.1-1.7,3.2-2.4,5.2-1.8c1.9,0.6,3.3,2.4,3.3,4.4v116.6C1823.2,1098.4,1821.1,1100.4,1818.6,1100.4z M1709.3,1091.2H1814
			v-96.8l-9,13.5c-0.9,1.3-2.3,2-3.8,2h-79c-1.5,0-3-0.8-3.8-2l-9-13.5V1091.2z"/>
		<g>
			<path class="st0" d="M1726.8,1064.3l-3.5,8.7h-13.8l19.2-50h14.2l18.8,50H1748l-3.3-8.7H1726.8z M1735.9,1038.5h-0.1l-5.4,15.9
				h10.8L1735.9,1038.5z"/>
			<path class="st0" d="M1813.4,1047.1c0,16.2-11.6,27.6-27.7,27.6c-16.1,0-27.7-11.4-27.7-27.6c0-15.1,13.3-25.7,27.7-25.7
				S1813.4,1032,1813.4,1047.1z M1771.6,1047.2c0,8.6,6.4,14.9,14.1,14.9c7.8,0,14.1-6.3,14.1-14.9c0-6.9-6.4-13.2-14.1-13.2
				C1778,1033.9,1771.6,1040.3,1771.6,1047.2z"/>
		</g>
		<g>
			<rect x="1736.4" y="973.3" class="st0" width="51" height="4.3"/>
			<rect x="1736.4" y="982.1" class="st0" width="51" height="4.3"/>
			<rect x="1736.4" y="990.9" class="st0" width="51" height="4.3"/>
		</g>
	</g>
	<rect x="1661.6" y="922.8" class="st1" width="200" height="200"/>
</g>
<g>
	<g>
		<rect x="2098.2" y="914.7" class="st1" width="200" height="200"/>
		<g>
			<path class="st0" d="M2197.3,1040.6c-4.2-1.4-6.6,2.9-6.9,3.6c-0.2,0.7-5.1,11.5-5.1,11.5l-9.1-12.2c-1.2-2.3-4.1-3.9-7.1-3.9
				l-2.3-0.1c6-2.7,10.2-8.7,10.2-15.7c0-9.5-7.7-17.2-17.2-17.2c-9.5,0-17.2,7.7-17.2,17.2c0,6.6,3.7,12.4,9.2,15.2l-2.5-0.1
				c0,0-30.2-24.2-31-24.7s-4.1-2.1-6.6,0.8c-2.1,2.5-0.8,6.5,0.9,7.8c0.8,0.6,32.1,31.3,32.1,31.3l-2.6,19.7h15.8h1.5h15.8
				l-1.2-12.5l8.2,6.2c2.1,2.1,4.9,2.1,6.3,1.7c1.9-0.6,2.8-2.1,4.1-5.2c0,0,7.6-16.1,8-17.1
				C2200.9,1045.8,2201.3,1041.9,2197.3,1040.6z"/>
			<path class="st0" d="M2265.4,955.7h-61.8c-11.9,0-21.6,9.7-21.6,21.6v24.7c0,6.5,2.9,12.4,7.6,16.4l-5.2,15.1l17.8-9.9
				c0.5,0,1,0.1,1.4,0.1h61.8c11.9,0,21.6-9.7,21.6-21.6v-24.7C2287,965.4,2277.3,955.7,2265.4,955.7z"/>
			<g>
				<path class="st0" d="M2225.5,1066.9c-1.3,0-2.4-0.9-2.7-2.1c-3.2-12.7-9.6-12.9-9.9-12.9c-1.5,0.1-2.7-1.1-2.8-2.6
					c-0.1-1.5,1-2.8,2.5-3c6.1-0.6,8.5-6.2,10-11.6c0.1-0.4,0.2-0.8,0.3-1.1c0.4-1.1,1.4-1.9,2.6-1.9c1.2,0,2.3,0.7,2.7,1.8
					c0.2,0.6,0.4,1.4,0.6,2.3c0.9,3.6,2.3,9.1,7.5,10.7c1.1,0.4,1.9,1.4,1.9,2.6c0,1.2-0.7,2.3-1.8,2.7c-6.5,2.3-8.1,12.5-8.1,12.6
					c-0.2,1.3-1.3,2.3-2.6,2.4C2225.6,1066.9,2225.5,1066.9,2225.5,1066.9z M2220.2,1049.2c1.7,1.4,3.5,3.4,5.1,6.4
					c1.1-2.2,2.5-4.4,4.5-6.2c-2.2-1.8-3.6-4-4.6-6.2C2224.1,1045.4,2222.5,1047.6,2220.2,1049.2z"/>
			</g>
			<g>
				<path class="st0" d="M2130.3,1010.2c-1.4,0-2.6-0.9-2.9-2.3c-4.7-18.8-14.5-18.9-14.9-18.9c-1.6,0.1-3-1.2-3.1-2.8
					c-0.1-1.6,1.1-3,2.7-3.2c10.4-1,13.6-12.3,14.9-17.1c0.2-0.6,0.3-1.1,0.4-1.5c0.4-1.2,1.5-2.1,2.8-2.1c0,0,0,0,0.1,0
					c1.3,0,2.4,0.8,2.8,2c0.3,0.8,0.6,1.9,0.9,3.1c1.3,5.3,3.4,13.4,11.2,15.9c1.2,0.4,2.1,1.5,2.1,2.8c0,1.3-0.8,2.5-2,2.9
					c-9.8,3.4-12,18.4-12,18.6c-0.2,1.4-1.4,2.5-2.8,2.6C2130.4,1010.2,2130.4,1010.2,2130.3,1010.2z M2121.3,986.1
					c3,2.1,6.2,5.5,8.8,11.2c1.6-3.8,4.1-8,7.9-11c-4.1-2.9-6.4-7.1-7.9-11C2128.3,979.2,2125.6,983.3,2121.3,986.1z"/>
			</g>
		</g>
	</g>
	<rect x="2098.2" y="914.7" class="st1" width="200" height="200"/>
</g>
<g>
	<g>
		<path class="st2" d="M500.9,1798.1h-47.6c-1.6,0-2.8-1.3-2.8-2.8V1755c0-1.6-1.3-2.8-2.8-2.8h-70.4c-1.6,0-2.8,1.3-2.8,2.8v40.3
			c0,1.6-1.3,2.8-2.8,2.8h-47.6c-1.6,0-2.8,1.3-2.8,2.8v85.9c0,1.6,1.3,2.8,2.8,2.8h58.5c1.6,0,2.8-1.3,2.8-2.8v-28.5
			c0-1.6,1.3-2.8,2.8-2.8h49.2c1.6,0,2.8,1.3,2.8,2.8v28.5c0,1.6,1.3,2.8,2.8,2.8h58c1.6,0,2.8-1.3,2.8-2.8V1801
			C503.7,1799.4,502.4,1798.1,500.9,1798.1z M349.1,1868.8h-14.2v-20.2h14.2V1868.8z M349.1,1834.1h-14.2v-20.2h14.2V1834.1z
			 M367.7,1868.8h-14.2v-20.2h14.2V1868.8z M367.7,1834.1h-14.2v-20.2h14.2V1834.1z M410.2,1834.1H396v-20.2h14.2V1834.1z
			 M428.8,1834.1h-14.2v-20.2h14.2V1834.1z M412.4,1803.8c-12.1,0-22-9.9-22-22c0-12.1,9.9-22,22-22c12.1,0,22,9.9,22,22
			C434.4,1793.9,424.5,1803.8,412.4,1803.8z M472,1868.8h-14.2v-20.2H472V1868.8z M472,1834.1h-14.2v-20.2H472V1834.1z
			 M490.6,1868.8h-14.2v-20.2h14.2V1868.8z M490.6,1834.1h-14.2v-20.2h14.2V1834.1z"/>
		<polygon class="st2" points="412.1,1788.4 397.5,1778.5 401.1,1773.2 411.5,1780.2 424.6,1768.6 428.9,1773.4 		"/>
	</g>
	<rect x="312.4" y="1720.9" class="st1" width="200" height="200"/>
</g>
<g>
	<g>
		<path class="st1" d="M-589,1053.6c0.3,1.2,0.6,2.5,0.8,3.7C-588.3,1056.1-588.6,1054.8-589,1053.6z"/>
		<path class="st1" d="M-592,1046.5c0.7,1.1,1.2,2.3,1.8,3.5C-590.7,1048.8-591.3,1047.6-592,1046.5z"/>
		<path class="st1" d="M-689.7,1050c0.5-1.2,1.1-2.3,1.8-3.5C-688.6,1047.6-689.2,1048.8-689.7,1050z"/>
		<path class="st1" d="M-588.1,1058.1c0-0.2,0-0.5-0.1-0.7C-588.1,1057.6-588.1,1057.8-588.1,1058.1L-588.1,1058.1z"/>
		<polygon class="st1" points="-685.7,1105 -665.8,1094 -665.8,1094 		"/>
		<path class="st1" d="M-598.2,1038.6c-9.5-9.2-24.7-15.2-41.7-15.2s-32.2,6-41.7,15.2c9.5-9.2,24.7-15.2,41.7-15.2
			S-607.7,1029.4-598.2,1038.6z"/>
		<path class="st1" d="M-692,1061.2c0-1.3,0.1-2.6,0.3-3.9C-692,1058.6-692,1059.9-692,1061.2z"/>
		<path class="st1" d="M-598.2,1038.6c2,1.9,3.7,4,5.2,6.2C-594.5,1042.6-596.2,1040.6-598.2,1038.6z"/>
		<path class="st1" d="M-691.8,1057.3c0.2-1.3,0.4-2.5,0.8-3.7C-691.3,1054.8-691.6,1056.1-691.8,1057.3z"/>
		<path class="st1" d="M-686.9,1044.8c1.5-2.2,3.2-4.3,5.2-6.2C-683.7,1040.6-685.4,1042.6-686.9,1044.8z"/>
		<path d="M-587.9,1061.2c0-1-0.1-2.1-0.2-3.1l0,0C-588,1059.1-587.9,1060.1-587.9,1061.2z"/>
		<path class="st2" d="M-516.3,1104.4V1082c0-13.2-10.7-23.9-23.9-23.9h-39.4c0.1,1,0.1,2.1,0.1,3.1c0,1.8-0.1,3.6-0.4,5.4h39.6
			c8.5,0,15.4,6.9,15.4,15.4v22.5c0,5.5-3,10.6-7.8,13.4l-3,1.7l3,9.7l-15.5-9.4h-48.3c-8.5,0-15.4-6.9-15.4-15.4v-2.3
			c-2.7,1.1-5.6,2-8.5,2.8c0.3,12.9,10.9,23.4,23.9,23.4h45.9l32.5,19.7l-7.6-24.7C-519.7,1118.8-516.3,1111.8-516.3,1104.4z"/>
		<path class="st2" d="M-679.1,1086.1c-1-0.8-2-1.7-2.9-2.6C-681.1,1084.4-680.1,1085.3-679.1,1086.1z"/>
		<path class="st2" d="M-682,1083.5c-1.8-1.8-3.4-3.7-4.8-5.7C-685.4,1079.8-683.8,1081.7-682,1083.5z"/>
		<path class="st2" d="M-650.3,1098.2c-2.2-0.3-4.4-0.8-6.5-1.3C-654.7,1097.4-652.5,1097.9-650.3,1098.2z"/>
		<path class="st2" d="M-687.7,1076.3c-1.2-2.1-2.2-4.2-3-6.4C-689.9,1072.1-688.9,1074.2-687.7,1076.3z"/>
		<path class="st2" d="M-665.8,1094c2.9,1.2,5.9,2.2,9,3C-659.9,1096.1-663,1095.1-665.8,1094L-665.8,1094z"/>
		<path class="st2" d="M-588.1,1058.1c0-0.2,0-0.5-0.1-0.7c-0.2-1.3-0.4-2.5-0.8-3.7c-0.3-1.2-0.8-2.4-1.3-3.6
			c-0.5-1.2-1.1-2.3-1.8-3.5c-0.3-0.6-0.7-1.1-1-1.7c-1.5-2.2-3.2-4.3-5.2-6.2c-9.5-9.2-24.7-15.2-41.7-15.2s-32.2,6-41.7,15.2
			c-2,1.9-3.7,4-5.2,6.2c-0.4,0.5-0.7,1.1-1,1.7c-0.7,1.1-1.2,2.3-1.8,3.5c-0.5,1.2-0.9,2.4-1.3,3.6c-0.3,1.2-0.6,2.5-0.8,3.7
			c-0.2,1.3-0.3,2.6-0.3,3.9c0,3,0.5,5.9,1.4,8.7c0.7,2.2,1.7,4.4,3,6.4c0.3,0.5,0.6,1,1,1.5c1.4,2,3,3.9,4.8,5.7
			c0.9,0.9,1.9,1.8,2.9,2.6l-6.6,18.9l19.8-11c2.9,1.2,5.9,2.2,9,3c2.1,0.5,4.3,0.9,6.5,1.3c3.3,0.5,6.8,0.7,10.3,0.7
			c7,0,13.6-1,19.7-2.8c3-0.9,5.8-2,8.5-3.2c12.4-5.8,21.2-15.3,23.3-26.3c0.3-1.8,0.5-3.6,0.5-5.4
			C-587.9,1060.1-588,1059.1-588.1,1058.1z M-671.5,1068.3c-3.1,0-5.7-2.5-5.7-5.7s2.5-5.7,5.7-5.7s5.7,2.5,5.7,5.7
			S-668.4,1068.3-671.5,1068.3z M-650.4,1068.3c-3.1,0-5.7-2.5-5.7-5.7s2.5-5.7,5.7-5.7s5.7,2.5,5.7,5.7S-647.3,1068.3-650.4,1068.3
			z M-629.3,1068.3c-3.1,0-5.7-2.5-5.7-5.7s2.5-5.7,5.7-5.7s5.7,2.5,5.7,5.7S-626.2,1068.3-629.3,1068.3z M-608.2,1068.3
			c-3.1,0-5.7-2.5-5.7-5.7s2.5-5.7,5.7-5.7c3.1,0,5.7,2.5,5.7,5.7S-605,1068.3-608.2,1068.3z"/>
		<g>
			<circle class="st2" cx="-564.5" cy="1092.3" r="5.7"/>
			<circle class="st2" cx="-585.6" cy="1092.3" r="5.7"/>
			<circle class="st2" cx="-543.4" cy="1092.3" r="5.7"/>
		</g>
	</g>
	<rect x="-704.2" y="985.7" class="st1" width="200" height="200"/>
</g>
<g>
	<g>
		<path class="st2" d="M-258,1148.5h-87.5c-2.3,0-4.3-1.9-4.3-4.3v-116.2c0-2.3,1.9-4.3,4.3-4.3h104.9c2.3,0,4.3,1.9,4.3,4.3v96.9
			c0,1.1-0.4,2.1-1.1,2.8l-17.4,19.3C-255.7,1148-256.8,1148.5-258,1148.5z M-341.3,1140h81.3l15.1-16.7v-91h-96.4V1140z"/>
		<path class="st2" d="M-266.2,1137.8c-1.6,0-2.8-1.3-2.8-2.8v-16.1c0-1.6,1.3-2.8,2.8-2.8h15.6c1.6,0,2.8,1.3,2.8,2.8
			s-1.3,2.8-2.8,2.8h-12.7v13.2C-263.4,1136.5-264.6,1137.8-266.2,1137.8z"/>
		<g>
			<rect x="-327.1" y="1046" class="st2" width="68" height="5.7"/>
			<rect x="-327.1" y="1062.6" class="st2" width="68" height="5.7"/>
			<rect x="-327.1" y="1079.2" class="st2" width="68" height="5.7"/>
			<rect x="-327.1" y="1095.8" class="st2" width="68" height="5.7"/>
		</g>
	</g>
	<rect x="-393.1" y="986.2" class="st1" width="200" height="200"/>
</g>
<g>
	<g>
		<path class="st2" d="M-2.1,1049.2c0.8,17.7,17.7,47.7,23.7,58.1c6,10.4,23.6,40,38.5,49.6c3.6,2.4,9.6,3.1,14.7,2
			c5-1,13.4-4.7,15.1-7.6c1.7-2.9,1.9-5.2,1.5-6.5c-0.7-2.6-3.2-7.4-6.7-12.2c-4-5.6-9.5-10.6-11.7-11.2c-2.2-0.6-4,0.8-5.3,1.9
			c-1.2,1.1-7.5,6.6-10.7,5.4c-3.3-1.1-17.6-21.6-22-29.2c-4.4-7.6-14.9-30.2-14.3-33.6c0.7-3.4,8.5-6,10.1-6.6
			c1.6-0.5,3.7-1.4,4.3-3.6c0.6-2.2-1-9.5-3.8-15.8c-2.5-5.4-5.4-10-7.3-11.9c-1-1-3-2-6.4-1.9c-3.3,0.1-10.7,5.4-14.1,9.3
			C0,1039.3-2.4,1044.8-2.1,1049.2z"/>
	</g>
	<rect x="-55.3" y="992.8" class="st1" width="200" height="200"/>
</g>
<g>
	<g>
		<path class="st2" d="M567.1,1022.8c-3.4-0.9-6.9,1.1-7.8,4.5l-4.8,21.3c-3.2,3.5-6.8,6.9-9.8,9.6h-6.4c6.8-2.7,11.5-9.4,11.5-17.1
			c0-10.2-8.3-18.5-18.5-18.5c-10.2,0-18.5,8.3-18.5,18.5c0,7.7,4.8,14.4,11.5,17.1h-8.4c-2.3-0.1-4.6,1.1-5.8,3.3l-11.6,20.9
			c-0.4,0.7-0.7,1.5-0.8,2.3l-1,18.1c-0.4,3.5,0.8,6.7,4.3,7.1c0.3,0,0.5,0,0.8,0c3.2,0,5.3-2.4,5.7-5.6l2.8-16.9l3.5-5l-1.9,24.6
			l-4.8,12.8c-0.7,1.9-0.5,4,0.6,5.7l8.6,13.5c1.2,1.9,3.3,2.9,5.4,2.9c1.2,0,2.4-0.3,3.4-1c3-1.9,3.8-5.8,2-8.8l-5.9-9.2l10.3-13.2
			l5.9,34c0,3.5,2.8,6.4,6.4,6.4c3.5,0,6.4-2.8,6.4-6.4l1-34.4c0-0.2,0-0.4,0-0.7l-1.6-31.7c4.2-5.6,14.2-19.1,16.2-21.8
			c1.3-1.3,4.7-24.6,4.7-24.6C571.3,1027.2,570.5,1023.7,567.1,1022.8z"/>
		<path class="st2" d="M492.2,1102.3l-2.2-15.8c-0.1-0.8-0.3-1.5-0.7-2.2l-12.1-17.9c-1.1-2-3.2-3.1-5.4-3h-6.6
			c6-2.5,10.2-8.4,10.2-15.3c0-9.1-7.4-16.6-16.6-16.6c-9.1,0-16.5,7.4-16.5,16.6c0,6.9,4.2,12.8,10.2,15.3h-4.8
			c-2.8-2.5-6.2-5.7-9.1-9l-4.5-19.8c-0.9-3.2-4.1-5-7.3-4.2c-3.2,0.8-3.8,4.1-3,7.3c0,0,3.2,21.7,4.4,22.9
			c2.3,3.1,15.9,21.4,16.8,22.5c0.1,0.1,0.2,0.1,0.2,0.2l-1.1,14.2l-7.1,26.2l7.7-0.6l0.6,21.2c0,3.3,2.7,5.9,5.9,5.9
			c3.3,0,5-2.7,5-5.9l2.1-22.2l2.5-0.2l-1.4,5.8c-0.7,1.7-0.5,3.7,0.5,5.3l8,12.6c1.1,1.8,3,2.7,5,2.7c1.1,0,1.4-0.3,2.4-0.9
			c2.8-1.8,2.3-5.4,0.5-8.2l-4.7-8.6l4.3-9.8l7.9-0.6L475,1101l-1.5-19.2l4.8,7.2l3.9,14.7c0.4,3,2.3,5.2,5.3,5.2c0.2,0,0.5,0,0.7,0
			C491.5,1108.5,492.6,1105.5,492.2,1102.3z"/>
	</g>
	<rect x="397.1" y="986.4" class="st1" width="200" height="200"/>
</g>
<g>
	<g>
		<path class="st2" d="M-463.1,1432.2c-0.1,0-0.1-0.1-0.2-0.1c-0.9-0.6-1.8-1.1-2.7-1.6c-0.2-0.1-0.3-0.2-0.5-0.3
			c-0.9-0.5-1.8-0.9-2.8-1.3c-0.2-0.1-0.4-0.2-0.6-0.2c-1-0.4-1.9-0.7-3-1.1c-0.1,0-0.2-0.1-0.3-0.1c-4-1.2-8.2-1.7-12.5-1.5
			c-0.3,0-0.7,0-1,0.1c-0.6,0-1.2,0-1.8,0.1c-6.5,0.8-12.7,3.4-17.9,7.5c-9.1,7.2-14.2,17.7-14.2,29.1c0,12.1,5,22.2,15.2,30.9
			c1.2,1,2.3,5,3,7.9c1.1,4.2,2.4,9.3,5.6,12.5c0.6,0.6,1.5,0.9,2.3,0.9h21.4c0.9,0,1.7-0.3,2.3-0.9c3.2-3.1,4.5-8.3,5.6-12.5
			c0.8-2.9,1.8-6.9,3-7.9c10.3-8.7,15.2-18.8,15.2-30.9c0-9.9-3.8-19.1-10.8-26.1C-459.3,1435-461.2,1433.5-463.1,1432.2z
			 M-468.1,1486.4c-3.5,3-4.8,7.9-6,12.7c-0.9,3.3-2.1,8.3-3.7,8.3h-11.6c-1.5,0-2.8-5-3.7-8.3c-1.2-4.8-2.5-9.8-6-12.7
			c-8.1-6.9-11.9-14.4-11.9-23.6c0-7.3,2.9-14.2,8-19.4c5.2-5.2,12.1-8,19.4-8c7.3,0,14.2,2.9,19.4,8c5.2,5.2,8,12.1,8,19.4
			C-456.3,1472-460,1479.6-468.1,1486.4z"/>
		<path class="st2" d="M-496.3,1524.3c0,4,2,9.9,5.6,9.9c3.6,0,10.1,0,14.2,0s5.5-5.6,5.6-9.5c0-0.1,0-0.2,0-0.3h0c0,0,0,0,0,0
			H-496.3L-496.3,1524.3z"/>
		<g>
			<path class="st2" d="M-483.7,1393.7c-2.6,0-4.8,2.1-4.8,4.8l1.2,14c0,1.9,1.6,3.5,3.6,3.5s3.5-1.6,3.6-3.5l1.2-13.9l0-0.1
				C-478.9,1395.8-481,1393.7-483.7,1393.7z"/>
			<path class="st2" d="M-527.3,1411.4L-527.3,1411.4c-0.3-0.3-0.5-0.4-0.6-0.5c-0.2-0.1-0.4-0.3-0.6-0.4c-0.4-0.2-0.7-0.4-1.1-0.5
				c-0.2,0-0.3-0.1-0.5-0.1c-0.4-0.1-0.9-0.1-1.3,0c-0.2,0-0.3,0.1-0.5,0.1c-0.4,0.1-0.8,0.3-1.1,0.5c-0.2,0.1-0.4,0.2-0.5,0.4
				c-0.1,0.1-0.3,0.2-0.5,0.4c-1.9,1.9-1.9,4.9,0,6.7l10.7,9c0.7,0.6,1.5,1,2.5,1c0,0,0,0,0,0c1,0,1.9-0.4,2.5-1
				c0.7-0.7,1-1.6,1-2.5c0-0.9-0.4-1.8-1-2.5L-527.3,1411.4z"/>
			<path class="st2" d="M-535.7,1453.3l-13.4-3.6l-0.1,0c-1.3-0.2-2.5,0.1-3.6,0.8c-1,0.7-1.7,1.8-2,3.1c-0.2,1.3,0.1,2.5,0.8,3.6
				c0.7,1,1.8,1.7,3.1,2l14,1.2c0.2,0,0.4,0,0.6,0c1.7,0,3.2-1.2,3.5-3C-532.5,1455.6-533.8,1453.7-535.7,1453.3z"/>
			<path class="st2" d="M-432.8,1418.1c0.9-0.9,1.4-2.1,1.4-3.4c0-1.3-0.5-2.5-1.4-3.4c-0.2-0.2-0.4-0.3-0.5-0.4
				c-0.2-0.1-0.3-0.2-0.5-0.3c-0.4-0.2-0.8-0.4-1.1-0.5c-0.2,0-0.3-0.1-0.5-0.1c-0.4-0.1-0.9-0.1-1.3,0c-0.2,0-0.4,0.1-0.5,0.1
				c-0.4,0.1-0.8,0.3-1.2,0.5c-0.2,0.1-0.4,0.2-0.5,0.4c-0.1,0.1-0.3,0.2-0.5,0.4l-9,10.7c-1.3,1.4-1.3,3.6,0,5c0.7,0.7,1.6,1,2.5,1
				c0.9,0,1.8-0.4,2.5-1L-432.8,1418.1L-432.8,1418.1z"/>
			<path class="st2" d="M-412.6,1453.6c-0.2-1.3-0.9-2.3-2-3.1c-1-0.7-2.3-1-3.6-0.8l-13.6,3.6c-1.9,0.4-3.2,2.2-2.8,4.1
				c0.3,1.7,1.8,3,3.5,3c0.2,0,0.4,0,0.6,0l13.8-1.2l0.1,0c1.3-0.2,2.3-0.9,3.1-2C-412.7,1456.1-412.4,1454.9-412.6,1453.6z"/>
		</g>
		<path class="st2" d="M-470.3,1520.4c0,0.8-0.6,1.4-1.4,1.4h-23.9c-0.8,0-1.4-0.6-1.4-1.4v-1.4c0-0.8,0.6-1.4,1.4-1.4h23.9
			c0.8,0,1.4,0.6,1.4,1.4V1520.4z"/>
	</g>
	<rect x="-583.7" y="1363.9" class="st1" width="200" height="200"/>
</g>
<g>
	<g>
		<rect x="93.5" y="1445" class="st2" width="36.4" height="36.4"/>
		<g>
			<path class="st2" d="M0.4,1481.4h-47.1l23.5-40.8L0.4,1481.4z"/>
		</g>
		<path class="st2" d="M119.6,1486.4H102c-4.3,0-8,3.1-8.6,7.4l-3.8,18.4l-18.4-27.1c-1.9-3.6-6-5.3-9.8-4.4c9.6-6.1,16-16.8,16-29
			c0-18.9-15.3-34.2-34.2-34.2c-18.9,0-34.2,15.3-34.2,34.2c0,12.2,6.4,23,16.1,29c-3.8-1-8,0.7-9.9,4.3l-18.4,27.1l-3.8-18.4
			c-0.7-4.3-4.3-7.4-8.6-7.4h-17.6c-4.8,0-8.7,3.9-8.7,8.7c0,4.8,3.9,8.7,8.7,8.7h10.1l8.8,26.6c0.6,3.7,3.5,6.7,7.2,7.3
			c0.5,0.1,1,0.1,1.5,0.1c3.2,0,5.2-1.7,7.7-4.6l15.2-16.5l-2.3,28.3h56.6l-2.3-28.2l15.1,16.3c2.8,2.8,4.5,4.6,7.7,4.6
			c0.5,0,1,0,1.5-0.1c3.7-0.6,6.6-3.6,7.2-7.3l8.8-26.6h10.1c4.8,0,8.7-3.9,8.7-8.7C128.4,1490.3,124.5,1486.4,119.6,1486.4z
			 M42.1,1497c-3.4,0-6-2.4-6-6c0-3.6,2.6-6,6-6c3.3,0,6,2.4,6,6C48.1,1494.6,45.4,1497,42.1,1497z M54.3,1463.6
			c-4.7,3.2-7.6,4.8-7.6,9.7v1.5c0,2.5-1.7,3.8-4.5,3.8c-2.8,0-4.6-1.3-4.6-3.8v-1.6c0-4.4,0.9-6.9,2.8-9.4c1.5-1.9,2.2-2.5,6.8-5.5
			c4.5-3.1,6-4.7,6-8c0-4.6-3.6-7.3-9.3-7.3c-5.5,0-8.4,2.7-10,7.1c-0.9,2.2-2.3,3-4.1,3c-0.7,0-1.4-0.1-2.2-0.4
			c-1.9-0.5-3.6-1.7-3.6-3.9c0-0.4,0.1-1,0.3-1.6c1.2-3.3,3.1-6.2,5.8-8.4c3.5-2.7,8-4.3,14.4-4.3c11.5,0,18.8,5.9,18.8,15.1
			C63.3,1456.8,59.3,1460.1,54.3,1463.6z"/>
	</g>
	<rect x="-58.4" y="1381.3" class="st1" width="200" height="200"/>
</g>
<g>
	<g>
		<path class="st2" d="M583.4,1459c6.7-7.9,11-14.8,12.9-20.5c2.5-7.8,0.1-12.5-2.4-15l-0.2-0.2c-2.3-2.2-5.3-3.4-8.8-3.4
			c-1.9,0-4,0.4-6.2,1.1c-5.7,1.8-12.6,6.2-20.5,12.9c-5.5,4.6-10.7,9.9-15.6,15.5c-0.5,0.6-13.8,16.1-25.4,29.6
			c0.6,0.8,5.3,7.3,9.5,11.5c3.8,3.8,9.8,8.3,11.4,9.5c13.8-11.8,29.8-25.4,29.8-25.4C573.5,1469.7,578.8,1464.5,583.4,1459z"/>
		<path class="st2" d="M521.6,1495.8c-3.8-3.8-7.7-9-9.1-10.9c-6,7-11.6,13.4-12.1,13.9c-2.7,2.9,0,6.5,0.9,7.7
			c1.1,1.5,2.7,3.2,4.4,5c1.8,1.8,3.5,3.3,5,4.4c1,0.7,2.8,2.1,4.8,2.1c1.1,0,2.1-0.4,2.9-1.1c0.4-0.4,6.9-6.1,14-12.1
			C526.2,1500.4,526.1,1500.3,521.6,1495.8C521.5,1495.8,521.6,1495.8,521.6,1495.8z"/>
		<path class="st1" d="M488.1,1537.4c2.3-2.3,2.3-5.9,0-8.2c-2.3-2.3-5.9-2.3-8.2,0c-1.9,1.9-2.2,4.8-0.9,7l-16.1,16.8l1.4,1.4
			l16.8-16.1C483.3,1539.5,486.2,1539.3,488.1,1537.4z"/>
		<path class="st2" d="M479,1536.2c-1.3-2.2-1-5.1,0.9-7c2.3-2.3,5.9-2.3,8.2,0c2.3,2.3,2.3,5.9,0,8.2c-1.9,1.9-4.8,2.2-7,0.9
			l-16.8,16.1l1.7,1.7c6.5-2.9,16.5-6.5,26.9-6.6c3.2-7.2,7.9-16,15.8-24.8c0.9-1,1.9-2.1,2.9-3.1c0,0,0,0,0,0c0,0,0,0,0,0
			c-0.8-0.5-1.6-0.8-2.1-1.2c-1.9-1.5-4.5-3.3-6.9-5.7c-2.4-2.4-4.2-5-5.7-6.9c-0.3-0.4-0.6-1.1-1-1.8c0-0.1-0.1-0.1-0.1-0.2
			c0,0,0,0,0,0c0,0,0,0,0,0c-9.8,9.6-19.8,15.1-27.9,18.7c-0.4,10.1-3.9,20.2-6.8,26.8l1.8,1.8L479,1536.2z"/>
	</g>
	<rect x="429.2" y="1388" class="st1" width="200" height="200"/>
</g>
<g>
	<g>
		<path class="st2" d="M-452.2,1778.3h-20.8v-9.2h14l-7.1-18.2h-86.1l-7.1,18.2h15.7v9.2h-22.4c-1.5,0-2.9-0.8-3.8-2
			c-0.9-1.3-1-2.9-0.5-4.3l10.7-27.5c0.7-1.8,2.4-2.9,4.3-2.9h92.4c1.9,0,3.6,1.2,4.3,2.9l10.7,27.5c0.6,1.4,0.4,3-0.5,4.3
			C-449.2,1777.5-450.6,1778.3-452.2,1778.3z"/>
		<path class="st2" d="M-470.9,1804.4h-76.5v-46.9h76.5V1804.4z M-541.7,1798.7h65.2v-35.6h-65.2V1798.7z"/>
		<path class="st2" d="M-452.2,1896.8h-113.9c-2.5,0-4.6-2.1-4.6-4.6v-116.6c0-2,1.3-3.8,3.3-4.4c1.9-0.6,4,0.2,5.2,1.8l16.1,24
			h74.1l16.1-24c1.1-1.7,3.2-2.4,5.2-1.8c1.9,0.6,3.3,2.4,3.3,4.4v116.6C-447.6,1894.7-449.6,1896.8-452.2,1896.8z M-561.5,1887.6
			h104.7v-96.8l-9,13.5c-0.9,1.3-2.3,2-3.8,2h-79c-1.5,0-3-0.8-3.8-2l-9-13.5V1887.6z"/>
		<g>
			<path class="st2" d="M-543.9,1860.7l-3.5,8.7h-13.8l19.2-50h14.2l18.8,50h-13.9l-3.3-8.7H-543.9z M-534.8,1834.9h-0.1l-5.4,15.9
				h10.8L-534.8,1834.9z"/>
			<path class="st2" d="M-457.3,1843.5c0,16.2-11.6,27.6-27.7,27.6c-16.1,0-27.7-11.4-27.7-27.6c0-15.1,13.3-25.7,27.7-25.7
				S-457.3,1828.4-457.3,1843.5z M-499.1,1843.5c0,8.6,6.4,14.9,14.1,14.9c7.8,0,14.1-6.3,14.1-14.9c0-6.9-6.4-13.2-14.1-13.2
				C-492.8,1830.3-499.1,1836.6-499.1,1843.5z"/>
		</g>
		<g>
			<rect x="-534.3" y="1769.7" class="st2" width="51" height="4.3"/>
			<rect x="-534.3" y="1778.5" class="st2" width="51" height="4.3"/>
			<rect x="-534.3" y="1787.3" class="st2" width="51" height="4.3"/>
		</g>
	</g>
	<rect x="-609.1" y="1719.2" class="st1" width="200" height="200"/>
</g>
<g>
	<g>
		<rect x="-172.5" y="1711.1" class="st1" width="200" height="200"/>
		<g>
			<path class="st2" d="M-73.4,1837c-4.2-1.4-6.6,2.9-6.9,3.6c-0.2,0.7-5.1,11.5-5.1,11.5l-9.1-12.2c-1.2-2.3-4.1-3.9-7.1-3.9
				l-2.3-0.1c6-2.7,10.2-8.7,10.2-15.7c0-9.5-7.7-17.2-17.2-17.2c-9.5,0-17.2,7.7-17.2,17.2c0,6.6,3.7,12.4,9.2,15.2l-2.5-0.1
				c0,0-30.2-24.2-31-24.7s-4.1-2.1-6.6,0.8c-2.1,2.5-0.8,6.5,0.9,7.8c0.8,0.6,32.1,31.3,32.1,31.3l-2.6,19.7h15.8h1.5h15.8
				l-1.2-12.5l8.2,6.2c2.1,2.1,4.9,2.1,6.3,1.7c1.9-0.6,2.8-2.1,4.1-5.2c0,0,7.6-16.1,8-17.1C-69.8,1842.2-69.4,1838.3-73.4,1837z"
				/>
			<path class="st2" d="M-5.3,1752.1h-61.8c-11.9,0-21.6,9.7-21.6,21.6v24.7c0,6.5,2.9,12.4,7.6,16.4l-5.2,15.1l17.8-9.9
				c0.5,0,1,0.1,1.4,0.1h61.8c11.9,0,21.6-9.7,21.6-21.6v-24.7C16.3,1761.8,6.6,1752.1-5.3,1752.1z"/>
			<g>
				<path class="st2" d="M-45.3,1863.2c-1.3,0-2.4-0.9-2.7-2.1c-3.2-12.7-9.6-12.9-9.9-12.9c-1.5,0.1-2.7-1.1-2.8-2.6
					c-0.1-1.5,1-2.8,2.5-3c6.1-0.6,8.5-6.2,10-11.6c0.1-0.4,0.2-0.8,0.3-1.1c0.4-1.1,1.4-1.9,2.6-1.9c1.2,0,2.3,0.7,2.7,1.8
					c0.2,0.6,0.4,1.4,0.6,2.3c0.9,3.6,2.3,9.1,7.5,10.7c1.1,0.4,1.9,1.4,1.9,2.6c0,1.2-0.7,2.3-1.8,2.7c-6.5,2.3-8.1,12.5-8.1,12.6
					c-0.2,1.3-1.3,2.3-2.6,2.4C-45.2,1863.2-45.2,1863.2-45.3,1863.2z M-50.6,1845.6c1.7,1.4,3.5,3.4,5.1,6.4
					c1.1-2.2,2.5-4.4,4.5-6.2c-2.2-1.8-3.6-4-4.6-6.2C-46.6,1841.8-48.3,1844-50.6,1845.6z"/>
			</g>
			<g>
				<path class="st2" d="M-140.4,1806.5c-1.4,0-2.6-0.9-2.9-2.3c-4.7-18.8-14.5-18.9-14.9-18.9c-1.6,0.1-3-1.2-3.1-2.8
					c-0.1-1.6,1.1-3,2.7-3.2c10.4-1,13.6-12.3,14.9-17.1c0.2-0.6,0.3-1.1,0.4-1.5c0.4-1.2,1.5-2.1,2.8-2.1c0,0,0,0,0.1,0
					c1.3,0,2.4,0.8,2.8,2c0.3,0.8,0.6,1.9,0.9,3.1c1.3,5.3,3.4,13.4,11.2,15.9c1.2,0.4,2.1,1.5,2.1,2.8c0,1.3-0.8,2.5-2,2.9
					c-9.8,3.4-12,18.4-12,18.6c-0.2,1.4-1.4,2.5-2.8,2.6C-140.3,1806.5-140.3,1806.5-140.4,1806.5z M-149.5,1782.5
					c3,2.1,6.2,5.5,8.8,11.2c1.6-3.8,4.1-8,7.9-11c-4.1-2.9-6.4-7.1-7.9-11C-142.4,1775.6-145.1,1779.7-149.5,1782.5z"/>
			</g>
		</g>
	</g>
	<rect x="-172.5" y="1711.1" class="st1" width="200" height="200"/>
</g>
<g>
	<g>
		<path class="st0" d="M16,16.9c0.3,5.3,5.3,14.3,7.1,17.4c1.8,3.1,7.1,12,11.5,14.9c1.1,0.7,2.9,0.9,4.4,0.6c1.5-0.3,4-1.4,4.5-2.3
			c0.5-0.9,0.6-1.5,0.4-1.9c-0.2-0.8-1-2.2-2-3.7c-1.2-1.7-2.9-3.2-3.5-3.4c-0.7-0.2-1.2,0.2-1.6,0.6c-0.4,0.3-2.2,2-3.2,1.6
			c-1-0.3-5.3-6.5-6.6-8.8c-1.3-2.3-4.5-9.1-4.3-10.1c0.2-1,2.6-1.8,3-2c0.5-0.2,1.1-0.4,1.3-1.1c0.2-0.7-0.3-2.9-1.2-4.7
			c-0.7-1.6-1.6-3-2.2-3.6c-0.3-0.3-0.9-0.6-1.9-0.6c-1,0-3.2,1.6-4.2,2.8C16.6,14,15.9,15.6,16,16.9z"/>
	</g>
	<rect class="st1" width="60" height="60"/>
</g>
</svg>
