<?xml version="1.0" encoding="utf-8"?>
<!-- Generator: Adobe Illustrator 21.0.2, SVG Export Plug-In . SVG Version: 6.00 Build 0)  -->
<!DOCTYPE svg PUBLIC "-//W3C//DTD SVG 1.1//EN" "http://www.w3.org/Graphics/SVG/1.1/DTD/svg11.dtd">
<svg version="1.1" id="レイヤー_1" xmlns="http://www.w3.org/2000/svg" xmlns:xlink="http://www.w3.org/1999/xlink" x="0px"
	 y="0px" viewBox="0 0 67.9 67.9" style="enable-background:new 0 0 67.9 67.9;" xml:space="preserve">
<style type="text/css">
	.st0{fill:#2854A1;}
	.st1{opacity:0.19;}
	.st2{clip-path:url(#SVGID_2_);}
	.st3{clip-path:url(#SVGID_4_);}
	.st4{fill:#FFFFFF;}
	.st5{fill:none;stroke:#FFFFFF;stroke-width:0.8717;stroke-miterlimit:10;}
	.st6{fill:none;stroke:#FFFFFF;stroke-width:1.3787;stroke-linecap:round;stroke-linejoin:round;stroke-miterlimit:10;}
	.st7{fill:none;stroke:#FFFFFF;stroke-width:1.25;stroke-linecap:round;stroke-linejoin:round;stroke-miterlimit:10;}
	.st8{fill:none;stroke:#FFFFFF;stroke-width:1.5158;stroke-linecap:round;stroke-linejoin:round;stroke-miterlimit:10;}
	.st9{fill:none;stroke:#FFFFFF;stroke-width:1.1729;stroke-linecap:round;stroke-linejoin:round;stroke-miterlimit:10;}
	.st10{fill:none;stroke:#FFFFFF;stroke-width:1.3;stroke-miterlimit:10;}
	.st11{fill:none;stroke:#FFFFFF;stroke-miterlimit:10;}
	.st12{fill:none;stroke:#000000;stroke-width:0.246;stroke-miterlimit:10;}
	.st13{fill:none;stroke:#FFFFFF;stroke-width:9.086470e-02;stroke-linecap:round;stroke-linejoin:round;}
	.st14{fill:none;stroke:#FFFFFF;stroke-width:0.2044;stroke-linecap:round;stroke-linejoin:round;}
	.st15{fill:none;stroke:#FFFFFF;stroke-width:0.492;stroke-miterlimit:10;}
	.st16{fill:none;stroke:#FFFFFF;stroke-linecap:round;stroke-miterlimit:10;}
	.st17{fill:none;stroke:#FFFFFF;stroke-width:0.5814;stroke-linecap:round;stroke-miterlimit:10;}
	.st18{fill:none;stroke:#FFFFFF;stroke-linecap:round;stroke-linejoin:bevel;stroke-miterlimit:10;}
</style>
<circle class="st5" cx="33.9" cy="33.9" r="33.5"/>
<g>
	<polyline class="st11" points="19.2,15.2 22.3,23.1 46,23.1 49.3,15.2 	"/>
	<g id="XMLID_2_">
		<g>
			<path class="st4" d="M33.9,19c0.9,0,1.5,0.7,1.5,1.5c0,0.9-0.7,1.5-1.5,1.5s-1.5-0.7-1.5-1.5C32.3,19.7,33,19,33.9,19z
				 M34.3,20.5c0-0.3-0.2-0.5-0.5-0.5s-0.5,0.2-0.5,0.5c0,0.3,0.2,0.5,0.5,0.5S34.3,20.8,34.3,20.5z"/>
		</g>
		<g>
			<circle class="st13" cx="33.9" cy="20.5" r="1.5"/>
			<circle class="st14" cx="33.9" cy="20.5" r="0.5"/>
		</g>
	</g>
	<path class="st15" d="M33.8,26.6c0,0,2.5,0.4,2.3,1.8"/>
	<g id="XMLID_1_">
		<g>
			<path class="st4" d="M33.9,23.9c0.9,0,1.5,0.7,1.5,1.5c0,0.9-0.7,1.5-1.5,1.5s-1.5-0.7-1.5-1.5C32.3,24.6,33,23.9,33.9,23.9z
				 M34.4,25.4c0-0.3-0.2-0.5-0.5-0.5c-0.3,0-0.5,0.2-0.5,0.5c0,0.3,0.2,0.5,0.5,0.5C34.1,25.9,34.4,25.7,34.4,25.4z"/>
		</g>
		<g>
			<circle class="st13" cx="33.9" cy="25.4" r="1.5"/>
			<circle class="st14" cx="33.9" cy="25.4" r="0.5"/>
		</g>
	</g>
	<line class="st15" x1="32.8" y1="21.1" x2="32.8" y2="24.8"/>
	<line class="st15" x1="35" y1="20.8" x2="35" y2="25"/>
	<g>
		<path class="st4" d="M49,15.7v39.5H19.3V15.7H49 M50,14.7H18.3v41.5H50V14.7L50,14.7z"/>
	</g>
	<path class="st16" d="M43,36.5H25.2c-1.9,0-3.4-1.5-3.4-3.4v0c0-1.9,1.5-3.4,3.4-3.4H43c1.9,0,3.4,1.5,3.4,3.4v0
		C46.4,35,44.8,36.5,43,36.5z"/>
	<line class="st17" x1="26.3" y1="32" x2="41.9" y2="32"/>
	<line class="st17" x1="26.3" y1="34.2" x2="41.9" y2="34.2"/>
	<polyline class="st18" points="49.3,55.6 46.2,52.3 22.3,52.3 19.2,55.4 	"/>
</g>
</svg>
