<?xml version="1.0" encoding="utf-8"?>
<!-- Generator: Adobe Illustrator 24.3.0, SVG Export Plug-In . SVG Version: 6.00 Build 0)  -->
<svg version="1.1" id="レイヤー_1" xmlns="http://www.w3.org/2000/svg" xmlns:xlink="http://www.w3.org/1999/xlink" x="0px"
	 y="0px" viewBox="0 0 60 60" style="enable-background:new 0 0 60 60;" xml:space="preserve">
<style type="text/css">
	.st0{fill:#FFFFFF;}
	.st1{fill:none;}
</style>
<g>
	<path class="st0" d="M2352.7,204.5c0.8,17.7,17.7,47.7,23.7,58.1c6,10.4,23.6,40,38.5,49.6c3.6,2.4,9.6,3.1,14.7,2
		c5-1,13.4-4.7,15.1-7.6c1.7-2.9,1.9-5.2,1.5-6.5c-0.7-2.6-3.2-7.4-6.7-12.2c-4-5.6-9.5-10.6-11.7-11.2c-2.2-0.6-4,0.8-5.3,1.9
		c-1.2,1.1-7.5,6.6-10.7,5.4c-3.3-1.1-17.6-21.6-22-29.2c-4.4-7.6-14.9-30.2-14.3-33.6c0.7-3.4,8.5-6,10.1-6.6
		c1.6-0.5,3.7-1.4,4.3-3.6c0.6-2.2-1-9.5-3.8-15.8c-2.5-5.4-5.4-10-7.3-11.9c-1-1-3-2-6.4-1.9c-3.3,0.1-10.7,5.4-14.1,9.3
		C2354.8,194.6,2352.4,200.1,2352.7,204.5z"/>
</g>
<g>
	<g>
		<path class="st0" d="M2855.6,953.4H2808c-1.6,0-2.8-1.3-2.8-2.8v-40.3c0-1.6-1.3-2.8-2.8-2.8H2732c-1.6,0-2.8,1.3-2.8,2.8v40.3
			c0,1.6-1.3,2.8-2.8,2.8h-47.6c-1.6,0-2.8,1.3-2.8,2.8v85.9c0,1.6,1.3,2.8,2.8,2.8h58.5c1.6,0,2.8-1.3,2.8-2.8v-28.5
			c0-1.6,1.3-2.8,2.8-2.8h49.2c1.6,0,2.8,1.3,2.8,2.8v28.5c0,1.6,1.3,2.8,2.8,2.8h58c1.6,0,2.8-1.3,2.8-2.8v-85.9
			C2858.5,954.7,2857.2,953.4,2855.6,953.4z M2703.9,1024.1h-14.2v-20.2h14.2V1024.1z M2703.9,989.4h-14.2v-20.2h14.2V989.4z
			 M2722.5,1024.1h-14.2v-20.2h14.2V1024.1z M2722.5,989.4h-14.2v-20.2h14.2V989.4z M2765,989.4h-14.2v-20.2h14.2V989.4z
			 M2783.6,989.4h-14.2v-20.2h14.2V989.4z M2767.2,959.1c-12.1,0-22-9.9-22-22c0-12.1,9.9-22,22-22c12.1,0,22,9.9,22,22
			C2789.2,949.2,2779.3,959.1,2767.2,959.1z M2826.8,1024.1h-14.2v-20.2h14.2V1024.1z M2826.8,989.4h-14.2v-20.2h14.2V989.4z
			 M2845.4,1024.1h-14.2v-20.2h14.2V1024.1z M2845.4,989.4h-14.2v-20.2h14.2V989.4z"/>
		<polygon class="st0" points="2766.9,943.6 2752.3,933.8 2755.9,928.4 2766.3,935.5 2779.4,923.9 2783.7,928.7 		"/>
	</g>
	<rect x="2667.2" y="876.2" class="st1" width="200" height="200"/>
</g>
<g>
	<g>
		<path class="st1" d="M1765.8,208.9c0.3,1.2,0.6,2.5,0.8,3.7C1766.5,211.3,1766.2,210.1,1765.8,208.9z"/>
		<path class="st1" d="M1762.8,201.8c0.7,1.1,1.2,2.3,1.8,3.5C1764.1,204.1,1763.5,202.9,1762.8,201.8z"/>
		<path class="st1" d="M1665.1,205.3c0.5-1.2,1.1-2.3,1.8-3.5C1666.2,202.9,1665.6,204.1,1665.1,205.3z"/>
		<path class="st1" d="M1766.7,213.4c0-0.2,0-0.5-0.1-0.7C1766.7,212.9,1766.7,213.1,1766.7,213.4L1766.7,213.4z"/>
		<polygon class="st1" points="1669.1,260.2 1689,249.2 1689,249.2 		"/>
		<path class="st1" d="M1756.6,193.9c-9.5-9.2-24.7-15.2-41.7-15.2s-32.2,6-41.7,15.2c9.5-9.2,24.7-15.2,41.7-15.2
			S1747.1,184.7,1756.6,193.9z"/>
		<path class="st1" d="M1662.8,216.5c0-1.3,0.1-2.6,0.3-3.9C1662.8,213.9,1662.8,215.2,1662.8,216.5z"/>
		<path class="st1" d="M1756.6,193.9c2,1.9,3.7,4,5.2,6.2C1760.3,197.9,1758.6,195.8,1756.6,193.9z"/>
		<path class="st1" d="M1663,212.6c0.2-1.3,0.4-2.5,0.8-3.7C1663.5,210.1,1663.2,211.3,1663,212.6z"/>
		<path class="st1" d="M1667.9,200.1c1.5-2.2,3.2-4.3,5.2-6.2C1671.1,195.8,1669.4,197.9,1667.9,200.1z"/>
		<path d="M1766.9,216.5c0-1-0.1-2.1-0.2-3.1l0,0C1766.8,214.4,1766.9,215.4,1766.9,216.5z"/>
		<path class="st0" d="M1838.5,259.7v-22.5c0-13.2-10.7-23.9-23.9-23.9h-39.4c0.1,1,0.1,2.1,0.1,3.1c0,1.8-0.1,3.6-0.4,5.4h39.6
			c8.5,0,15.4,6.9,15.4,15.4v22.5c0,5.5-3,10.6-7.8,13.4l-3,1.7l3,9.7l-15.5-9.4h-48.3c-8.5,0-15.4-6.9-15.4-15.4v-2.3
			c-2.7,1.1-5.6,2-8.5,2.8c0.3,12.9,10.9,23.4,23.9,23.4h45.9l32.5,19.7l-7.6-24.7C1835.1,274.1,1838.5,267.1,1838.5,259.7z"/>
		<path class="st0" d="M1675.7,241.4c-1-0.8-2-1.7-2.9-2.6C1673.7,239.7,1674.7,240.5,1675.7,241.4z"/>
		<path class="st0" d="M1672.8,238.8c-1.8-1.8-3.4-3.7-4.8-5.7C1669.4,235.1,1671,237,1672.8,238.8z"/>
		<path class="st0" d="M1704.5,253.5c-2.2-0.3-4.4-0.8-6.5-1.3C1700.1,252.7,1702.3,253.1,1704.5,253.5z"/>
		<path class="st0" d="M1667.1,231.6c-1.2-2.1-2.2-4.2-3-6.4C1664.9,227.4,1665.9,229.5,1667.1,231.6z"/>
		<path class="st0" d="M1689,249.2c2.9,1.2,5.9,2.2,9,3C1694.9,251.4,1691.8,250.4,1689,249.2L1689,249.2z"/>
		<path class="st0" d="M1766.7,213.4c0-0.2,0-0.5-0.1-0.7c-0.2-1.3-0.4-2.5-0.8-3.7c-0.3-1.2-0.8-2.4-1.3-3.6
			c-0.5-1.2-1.1-2.3-1.8-3.5c-0.3-0.6-0.7-1.1-1-1.7c-1.5-2.2-3.2-4.3-5.2-6.2c-9.5-9.2-24.7-15.2-41.7-15.2s-32.2,6-41.7,15.2
			c-2,1.9-3.7,4-5.2,6.2c-0.4,0.5-0.7,1.1-1,1.7c-0.7,1.1-1.2,2.3-1.8,3.5c-0.5,1.2-0.9,2.4-1.3,3.6c-0.3,1.2-0.6,2.5-0.8,3.7
			c-0.2,1.3-0.3,2.6-0.3,3.9c0,3,0.5,5.9,1.4,8.7c0.7,2.2,1.7,4.4,3,6.4c0.3,0.5,0.6,1,1,1.5c1.4,2,3,3.9,4.8,5.7
			c0.9,0.9,1.9,1.8,2.9,2.6l-6.6,18.9l19.8-11c2.9,1.2,5.9,2.2,9,3c2.1,0.5,4.3,0.9,6.5,1.3c3.3,0.5,6.8,0.7,10.3,0.7
			c7,0,13.6-1,19.7-2.8c3-0.9,5.8-2,8.5-3.2c12.4-5.8,21.2-15.3,23.3-26.3c0.3-1.8,0.5-3.6,0.5-5.4
			C1766.9,215.4,1766.8,214.4,1766.7,213.4z M1683.3,223.6c-3.1,0-5.7-2.5-5.7-5.7c0-3.1,2.5-5.7,5.7-5.7s5.7,2.5,5.7,5.7
			C1688.9,221,1686.4,223.6,1683.3,223.6z M1704.4,223.6c-3.1,0-5.7-2.5-5.7-5.7c0-3.1,2.5-5.7,5.7-5.7s5.7,2.5,5.7,5.7
			C1710.1,221,1707.5,223.6,1704.4,223.6z M1725.5,223.6c-3.1,0-5.7-2.5-5.7-5.7c0-3.1,2.5-5.7,5.7-5.7s5.7,2.5,5.7,5.7
			C1731.2,221,1728.6,223.6,1725.5,223.6z M1746.6,223.6c-3.1,0-5.7-2.5-5.7-5.7c0-3.1,2.5-5.7,5.7-5.7c3.1,0,5.7,2.5,5.7,5.7
			C1752.3,221,1749.8,223.6,1746.6,223.6z"/>
		<g>
			<circle class="st0" cx="1790.3" cy="247.5" r="5.7"/>
			<circle class="st0" cx="1769.2" cy="247.5" r="5.7"/>
			<circle class="st0" cx="1811.4" cy="247.5" r="5.7"/>
		</g>
	</g>
	<rect x="1650.6" y="141" class="st1" width="200" height="200"/>
</g>
<g>
	<g>
		<path class="st0" d="M2096.8,303.8h-87.5c-2.3,0-4.3-1.9-4.3-4.3V183.4c0-2.3,1.9-4.3,4.3-4.3h104.9c2.3,0,4.3,1.9,4.3,4.3v96.9
			c0,1.1-0.4,2.1-1.1,2.8l-17.4,19.3C2099.1,303.3,2098,303.8,2096.8,303.8z M2013.5,295.3h81.3l15.1-16.7v-91h-96.4V295.3z"/>
		<path class="st0" d="M2088.6,293c-1.6,0-2.8-1.3-2.8-2.8v-16.1c0-1.6,1.3-2.8,2.8-2.8h15.6c1.6,0,2.8,1.3,2.8,2.8
			s-1.3,2.8-2.8,2.8h-12.7v13.2C2091.4,291.8,2090.2,293,2088.6,293z"/>
		<g>
			<rect x="2027.7" y="201.3" class="st0" width="68" height="5.7"/>
			<rect x="2027.7" y="217.9" class="st0" width="68" height="5.7"/>
			<rect x="2027.7" y="234.5" class="st0" width="68" height="5.7"/>
			<rect x="2027.7" y="251.1" class="st0" width="68" height="5.7"/>
		</g>
	</g>
	<rect x="1961.7" y="141.5" class="st1" width="200" height="200"/>
</g>
<rect x="2299.5" y="148.1" class="st1" width="200" height="200"/>
<g>
	<g>
		<path class="st0" d="M2921.9,178.1c-3.4-0.9-6.9,1.1-7.8,4.5l-4.8,21.3c-3.2,3.5-6.8,6.9-9.8,9.6h-6.4c6.8-2.7,11.5-9.4,11.5-17.1
			c0-10.2-8.3-18.5-18.5-18.5c-10.2,0-18.5,8.3-18.5,18.5c0,7.7,4.8,14.4,11.5,17.1h-8.4c-2.3-0.1-4.6,1.1-5.8,3.3l-11.6,20.9
			c-0.4,0.7-0.7,1.5-0.8,2.3l-1,18.1c-0.4,3.5,0.8,6.7,4.3,7.1c0.3,0,0.5,0,0.8,0c3.2,0,5.3-2.4,5.7-5.6l2.8-16.9l3.5-5l-1.9,24.6
			l-4.8,12.8c-0.7,1.9-0.5,4,0.6,5.7l8.6,13.5c1.2,1.9,3.3,2.9,5.4,2.9c1.2,0,2.4-0.3,3.4-1c3-1.9,3.8-5.8,2-8.8l-5.9-9.2l10.3-13.2
			l5.9,34c0,3.5,2.8,6.4,6.4,6.4c3.5,0,6.4-2.8,6.4-6.4l1-34.4c0-0.2,0-0.4,0-0.7l-1.6-31.7c4.2-5.6,14.2-19.1,16.2-21.8
			c1.3-1.3,4.7-24.6,4.7-24.6C2926.1,182.5,2925.3,179,2921.9,178.1z"/>
		<path class="st0" d="M2847,257.5l-2.2-15.8c-0.1-0.8-0.3-1.5-0.7-2.2l-12.1-17.9c-1.1-2-3.2-3.1-5.4-3h-6.6
			c6-2.5,10.2-8.4,10.2-15.3c0-9.1-7.4-16.6-16.6-16.6c-9.1,0-16.5,7.4-16.5,16.6c0,6.9,4.2,12.8,10.2,15.3h-4.8
			c-2.8-2.5-6.2-5.7-9.1-9l-4.5-19.8c-0.9-3.2-4.1-5-7.3-4.2c-3.2,0.8-3.8,4.1-3,7.3c0,0,3.2,21.7,4.4,22.9
			c2.3,3.1,15.9,21.4,16.8,22.5c0.1,0.1,0.2,0.1,0.2,0.2l-1.1,14.2l-7.1,26.2l7.7-0.6l0.6,21.2c0,3.3,2.7,5.9,5.9,5.9s5-2.7,5-5.9
			l2.1-22.2l2.5-0.2l-1.4,5.8c-0.7,1.7-0.5,3.7,0.5,5.3l8,12.6c1.1,1.8,3,2.7,5,2.7c1.1,0,1.4-0.3,2.4-0.9c2.8-1.8,2.3-5.4,0.5-8.2
			l-4.7-8.6l4.3-9.8l7.9-0.6l-8.5-19.1l-1.5-19.2l4.8,7.2l3.9,14.7c0.4,3,2.3,5.2,5.3,5.2c0.2,0,0.5,0,0.7,0
			C2846.3,263.7,2847.4,260.8,2847,257.5z"/>
	</g>
	<rect x="2751.9" y="141.7" class="st1" width="200" height="200"/>
</g>
<g>
	<g>
		<path class="st0" d="M1891.7,587.5c-0.1,0-0.1-0.1-0.2-0.1c-0.9-0.6-1.8-1.1-2.7-1.6c-0.2-0.1-0.3-0.2-0.5-0.3
			c-0.9-0.5-1.8-0.9-2.8-1.3c-0.2-0.1-0.4-0.2-0.6-0.2c-1-0.4-1.9-0.7-3-1.1c-0.1,0-0.2-0.1-0.3-0.1c-4-1.2-8.2-1.7-12.5-1.5
			c-0.3,0-0.7,0-1,0.1c-0.6,0-1.2,0-1.8,0.1c-6.5,0.8-12.7,3.4-17.9,7.5c-9.1,7.2-14.2,17.7-14.2,29.1c0,12.1,5,22.2,15.2,30.9
			c1.2,1,2.3,5,3,7.9c1.1,4.2,2.4,9.3,5.6,12.5c0.6,0.6,1.5,0.9,2.3,0.9h21.4c0.9,0,1.7-0.3,2.3-0.9c3.2-3.1,4.5-8.3,5.6-12.5
			c0.8-2.9,1.8-6.9,3-7.9c10.3-8.7,15.2-18.8,15.2-30.9c0-9.9-3.8-19.1-10.8-26.1C1895.5,590.3,1893.6,588.8,1891.7,587.5z
			 M1886.7,641.7c-3.5,3-4.8,7.9-6,12.7c-0.9,3.3-2.1,8.3-3.7,8.3h-11.6c-1.5,0-2.8-5-3.7-8.3c-1.2-4.8-2.5-9.8-6-12.7
			c-8.1-6.9-11.9-14.4-11.9-23.6c0-7.3,2.9-14.2,8-19.4c5.2-5.2,12.1-8,19.4-8c7.3,0,14.2,2.9,19.4,8c5.2,5.2,8,12.1,8,19.4
			C1898.5,627.3,1894.8,634.8,1886.7,641.7z"/>
		<path class="st0" d="M1858.5,679.5c0,4,2,9.9,5.6,9.9s10.1,0,14.2,0s5.5-5.6,5.6-9.5c0-0.1,0-0.2,0-0.3h0c0,0,0,0,0,0H1858.5
			L1858.5,679.5z"/>
		<g>
			<path class="st0" d="M1871.1,549c-2.6,0-4.8,2.1-4.8,4.8l1.2,14c0,1.9,1.6,3.5,3.6,3.5s3.5-1.6,3.6-3.5l1.2-13.9l0-0.1
				C1875.9,551.1,1873.8,549,1871.1,549z"/>
			<path class="st0" d="M1827.5,566.7L1827.5,566.7c-0.3-0.3-0.5-0.4-0.6-0.5c-0.2-0.1-0.4-0.3-0.6-0.4c-0.4-0.2-0.7-0.4-1.1-0.5
				c-0.2,0-0.3-0.1-0.5-0.1c-0.4-0.1-0.9-0.1-1.3,0c-0.2,0-0.3,0.1-0.5,0.1c-0.4,0.1-0.8,0.3-1.1,0.5c-0.2,0.1-0.4,0.2-0.5,0.4
				c-0.1,0.1-0.3,0.2-0.5,0.4c-1.9,1.9-1.9,4.9,0,6.7l10.7,9c0.7,0.6,1.5,1,2.5,1c0,0,0,0,0,0c1,0,1.9-0.4,2.5-1
				c0.7-0.7,1-1.6,1-2.5c0-0.9-0.4-1.8-1-2.5L1827.5,566.7z"/>
			<path class="st0" d="M1819.1,608.6l-13.4-3.6l-0.1,0c-1.3-0.2-2.5,0.1-3.6,0.8c-1,0.7-1.7,1.8-2,3.1c-0.2,1.3,0.1,2.5,0.8,3.6
				c0.7,1,1.8,1.7,3.1,2l14,1.2c0.2,0,0.4,0,0.6,0c1.7,0,3.2-1.2,3.5-3C1822.3,610.8,1821,609,1819.1,608.6z"/>
			<path class="st0" d="M1922,573.4c0.9-0.9,1.4-2.1,1.4-3.4c0-1.3-0.5-2.5-1.4-3.4c-0.2-0.2-0.4-0.3-0.5-0.4
				c-0.2-0.1-0.3-0.2-0.5-0.3c-0.4-0.2-0.8-0.4-1.1-0.5c-0.2,0-0.3-0.1-0.5-0.1c-0.4-0.1-0.9-0.1-1.3,0c-0.2,0-0.4,0.1-0.5,0.1
				c-0.4,0.1-0.8,0.3-1.2,0.5c-0.2,0.1-0.4,0.2-0.5,0.4c-0.1,0.1-0.3,0.2-0.5,0.4l-9,10.7c-1.3,1.4-1.3,3.6,0,5c0.7,0.7,1.6,1,2.5,1
				c0.9,0,1.8-0.4,2.5-1L1922,573.4L1922,573.4z"/>
			<path class="st0" d="M1942.2,608.9c-0.2-1.3-0.9-2.3-2-3.1c-1-0.7-2.3-1-3.6-0.8l-13.6,3.6c-1.9,0.4-3.2,2.2-2.8,4.1
				c0.3,1.7,1.8,3,3.5,3c0.2,0,0.4,0,0.6,0l13.8-1.2l0.1,0c1.3-0.2,2.3-0.9,3.1-2C1942.1,611.4,1942.4,610.1,1942.2,608.9z"/>
		</g>
		<path class="st0" d="M1884.5,675.7c0,0.8-0.6,1.4-1.4,1.4h-23.9c-0.8,0-1.4-0.6-1.4-1.4v-1.4c0-0.8,0.6-1.4,1.4-1.4h23.9
			c0.8,0,1.4,0.6,1.4,1.4V675.7z"/>
	</g>
	<rect x="1771.1" y="519.2" class="st1" width="200" height="200"/>
</g>
<g>
	<g>
		<rect x="2448.3" y="600.3" class="st0" width="36.4" height="36.4"/>
		<g>
			<path class="st0" d="M2355.2,636.7h-47.1l23.5-40.8L2355.2,636.7z"/>
		</g>
		<path class="st0" d="M2474.4,641.7h-17.6c-4.3,0-8,3.1-8.6,7.4l-3.8,18.4l-18.4-27.1c-1.9-3.6-6-5.3-9.8-4.4
			c9.6-6.1,16-16.8,16-29c0-18.9-15.3-34.2-34.2-34.2c-18.9,0-34.2,15.3-34.2,34.2c0,12.2,6.4,23,16.1,29c-3.8-1-8,0.7-9.9,4.3
			l-18.4,27.1l-3.8-18.4c-0.7-4.3-4.3-7.4-8.6-7.4h-17.6c-4.8,0-8.7,3.9-8.7,8.7s3.9,8.7,8.7,8.7h10.1l8.8,26.6
			c0.6,3.7,3.5,6.7,7.2,7.3c0.5,0.1,1,0.1,1.5,0.1c3.2,0,5.2-1.7,7.7-4.6L2372,672l-2.3,28.3h56.6l-2.3-28.2l15.1,16.3
			c2.8,2.8,4.5,4.6,7.7,4.6c0.5,0,1,0,1.5-0.1c3.7-0.6,6.6-3.6,7.2-7.3l8.8-26.6h10.1c4.8,0,8.7-3.9,8.7-8.7
			S2479.3,641.7,2474.4,641.7z M2396.9,652.3c-3.4,0-6-2.4-6-6c0-3.6,2.6-6,6-6c3.3,0,6,2.4,6,6
			C2402.9,649.9,2400.2,652.3,2396.9,652.3z M2409.1,618.8c-4.7,3.2-7.6,4.8-7.6,9.7v1.5c0,2.5-1.7,3.8-4.5,3.8
			c-2.8,0-4.6-1.3-4.6-3.8v-1.6c0-4.4,0.9-6.9,2.8-9.4c1.5-1.9,2.2-2.5,6.8-5.5c4.5-3.1,6-4.7,6-8c0-4.6-3.6-7.3-9.3-7.3
			c-5.5,0-8.4,2.7-10,7.1c-0.9,2.2-2.3,3-4.1,3c-0.7,0-1.4-0.1-2.2-0.4c-1.9-0.5-3.6-1.7-3.6-3.9c0-0.4,0.1-1,0.3-1.6
			c1.2-3.3,3.1-6.2,5.8-8.4c3.5-2.7,8-4.3,14.4-4.3c11.5,0,18.8,5.9,18.8,15.1C2418.1,612.1,2414.1,615.4,2409.1,618.8z"/>
	</g>
	<rect x="2296.4" y="536.6" class="st1" width="200" height="200"/>
</g>
<g>
	<g>
		<path class="st0" d="M2938.2,614.3c6.7-7.9,11-14.8,12.9-20.5c2.5-7.8,0.1-12.5-2.4-15l-0.2-0.2c-2.3-2.2-5.3-3.4-8.8-3.4
			c-1.9,0-4,0.4-6.2,1.1c-5.7,1.8-12.6,6.2-20.5,12.9c-5.5,4.6-10.7,9.9-15.6,15.5c-0.5,0.6-13.8,16.1-25.4,29.6
			c0.6,0.8,5.3,7.3,9.5,11.5c3.8,3.8,9.8,8.3,11.4,9.5c13.8-11.8,29.8-25.4,29.8-25.4C2928.3,625,2933.6,619.7,2938.2,614.3z"/>
		<path class="st0" d="M2876.4,651.1c-3.8-3.8-7.7-9-9.1-10.9c-6,7-11.6,13.4-12.1,13.9c-2.7,2.9,0,6.5,0.9,7.7
			c1.1,1.5,2.7,3.2,4.4,5c1.8,1.8,3.5,3.3,5,4.4c1,0.7,2.8,2.1,4.8,2.1c1.1,0,2.1-0.4,2.9-1.1c0.4-0.4,6.9-6.1,14-12.1
			C2881,655.7,2880.9,655.6,2876.4,651.1C2876.3,651.1,2876.4,651.1,2876.4,651.1z"/>
		<path class="st1" d="M2842.9,692.6c2.3-2.3,2.3-5.9,0-8.2c-2.3-2.3-5.9-2.3-8.2,0c-1.9,1.9-2.2,4.8-0.9,7l-16.1,16.8l1.4,1.4
			l16.8-16.1C2838.1,694.8,2841,694.5,2842.9,692.6z"/>
		<path class="st0" d="M2833.8,691.4c-1.3-2.2-1-5.1,0.9-7c2.3-2.3,5.9-2.3,8.2,0c2.3,2.3,2.3,5.9,0,8.2c-1.9,1.9-4.8,2.2-7,0.9
			l-16.8,16.1l1.7,1.7c6.5-2.9,16.5-6.5,26.9-6.6c3.2-7.2,7.9-16,15.8-24.8c0.9-1,1.9-2.1,2.9-3.1c0,0,0,0,0,0c0,0,0,0,0,0
			c-0.8-0.5-1.6-0.8-2.1-1.2c-1.9-1.5-4.5-3.3-6.9-5.7c-2.4-2.4-4.2-5-5.7-6.9c-0.3-0.4-0.6-1.1-1-1.8c0-0.1-0.1-0.1-0.1-0.2
			c0,0,0,0,0,0c0,0,0,0,0,0c-9.8,9.6-19.8,15.1-27.9,18.7c-0.4,10.1-3.9,20.2-6.8,26.8l1.8,1.8L2833.8,691.4z"/>
	</g>
	<rect x="2784" y="543.2" class="st1" width="200" height="200"/>
</g>
<g>
	<g>
		<path class="st0" d="M1902.6,933.6h-20.8v-9.2h14l-7.1-18.2h-86.1l-7.1,18.2h15.7v9.2h-22.4c-1.5,0-2.9-0.8-3.8-2
			c-0.9-1.3-1-2.9-0.5-4.3l10.7-27.5c0.7-1.8,2.4-2.9,4.3-2.9h92.4c1.9,0,3.6,1.2,4.3,2.9l10.7,27.5c0.6,1.4,0.4,3-0.5,4.3
			C1905.6,932.8,1904.2,933.6,1902.6,933.6z"/>
		<path class="st0" d="M1883.9,959.7h-76.5v-46.9h76.5V959.7z M1813.1,954h65.2v-35.6h-65.2V954z"/>
		<path class="st0" d="M1902.6,1052.1h-113.9c-2.5,0-4.6-2.1-4.6-4.6V930.9c0-2,1.3-3.8,3.3-4.4c1.9-0.6,4,0.2,5.2,1.8l16.1,24h74.1
			l16.1-24c1.1-1.7,3.2-2.4,5.2-1.8c1.9,0.6,3.3,2.4,3.3,4.4v116.6C1907.2,1050,1905.2,1052.1,1902.6,1052.1z M1793.3,1042.9H1898
			V946l-9,13.5c-0.9,1.3-2.3,2-3.8,2h-79c-1.5,0-3-0.8-3.8-2l-9-13.5V1042.9z"/>
		<g>
			<path class="st0" d="M1810.9,1016l-3.5,8.7h-13.8l19.2-50h14.2l18.8,50H1832l-3.3-8.7H1810.9z M1820,990.1h-0.1l-5.4,15.9h10.8
				L1820,990.1z"/>
			<path class="st0" d="M1897.5,998.8c0,16.2-11.6,27.6-27.7,27.6c-16.1,0-27.7-11.4-27.7-27.6c0-15.1,13.3-25.7,27.7-25.7
				S1897.5,983.6,1897.5,998.8z M1855.7,998.8c0,8.6,6.4,14.9,14.1,14.9c7.8,0,14.1-6.3,14.1-14.9c0-6.9-6.4-13.2-14.1-13.2
				C1862,985.6,1855.7,991.9,1855.7,998.8z"/>
		</g>
		<g>
			<rect x="1820.5" y="925" class="st0" width="51" height="4.3"/>
			<rect x="1820.5" y="933.7" class="st0" width="51" height="4.3"/>
			<rect x="1820.5" y="942.5" class="st0" width="51" height="4.3"/>
		</g>
	</g>
	<rect x="1745.7" y="874.5" class="st1" width="200" height="200"/>
</g>
<g>
	<g>
		<rect x="2182.3" y="866.4" class="st1" width="200" height="200"/>
		<g>
			<path class="st0" d="M2281.4,992.3c-4.2-1.4-6.6,2.9-6.9,3.6c-0.2,0.7-5.1,11.5-5.1,11.5l-9.1-12.2c-1.2-2.3-4.1-3.9-7.1-3.9
				l-2.3-0.1c6-2.7,10.2-8.7,10.2-15.7c0-9.5-7.7-17.2-17.2-17.2c-9.5,0-17.2,7.7-17.2,17.2c0,6.6,3.7,12.4,9.2,15.2l-2.5-0.1
				c0,0-30.2-24.2-31-24.7s-4.1-2.1-6.6,0.8c-2.1,2.5-0.8,6.5,0.9,7.8c0.8,0.6,32.1,31.3,32.1,31.3l-2.6,19.7h15.8h1.5h15.8
				l-1.2-12.5l8.2,6.2c2.1,2.1,4.9,2.1,6.3,1.7c1.9-0.6,2.8-2.1,4.1-5.2c0,0,7.6-16.1,8-17.1C2285,997.4,2285.4,993.6,2281.4,992.3z
				"/>
			<path class="st0" d="M2349.5,907.4h-61.8c-11.9,0-21.6,9.7-21.6,21.6v24.7c0,6.5,2.9,12.4,7.6,16.4l-5.2,15.1l17.8-9.9
				c0.5,0,1,0.1,1.4,0.1h61.8c11.9,0,21.6-9.7,21.6-21.6V929C2371.1,917.1,2361.4,907.4,2349.5,907.4z"/>
			<g>
				<path class="st0" d="M2309.5,1018.5c-1.3,0-2.4-0.9-2.7-2.1c-3.2-12.7-9.6-12.9-9.9-12.9c-1.5,0.1-2.7-1.1-2.8-2.6
					c-0.1-1.5,1-2.8,2.5-3c6.1-0.6,8.5-6.2,10-11.6c0.1-0.4,0.2-0.8,0.3-1.1c0.4-1.1,1.4-1.9,2.6-1.9c1.2,0,2.3,0.7,2.7,1.8
					c0.2,0.6,0.4,1.4,0.6,2.3c0.9,3.6,2.3,9.1,7.5,10.7c1.1,0.4,1.9,1.4,1.9,2.6c0,1.2-0.7,2.3-1.8,2.7c-6.5,2.3-8.1,12.5-8.1,12.6
					c-0.2,1.3-1.3,2.3-2.6,2.4C2309.6,1018.5,2309.6,1018.5,2309.5,1018.5z M2304.2,1000.9c1.7,1.4,3.5,3.4,5.1,6.4
					c1.1-2.2,2.5-4.4,4.5-6.2c-2.2-1.8-3.6-4-4.6-6.2C2308.2,997,2306.5,999.3,2304.2,1000.9z"/>
			</g>
			<g>
				<path class="st0" d="M2214.4,961.8c-1.4,0-2.6-0.9-2.9-2.3c-4.7-18.8-14.5-18.9-14.9-18.9c-1.6,0.1-3-1.2-3.1-2.8s1.1-3,2.7-3.2
					c10.4-1,13.6-12.3,14.9-17.1c0.2-0.6,0.3-1.1,0.4-1.5c0.4-1.2,1.5-2.1,2.8-2.1c0,0,0,0,0.1,0c1.3,0,2.4,0.8,2.8,2
					c0.3,0.8,0.6,1.9,0.9,3.1c1.3,5.3,3.4,13.4,11.2,15.9c1.2,0.4,2.1,1.5,2.1,2.8c0,1.3-0.8,2.5-2,2.9c-9.8,3.4-12,18.4-12,18.6
					c-0.2,1.4-1.4,2.5-2.8,2.6C2214.5,961.8,2214.5,961.8,2214.4,961.8z M2205.3,937.7c3,2.1,6.2,5.5,8.8,11.2c1.6-3.8,4.1-8,7.9-11
					c-4.1-2.9-6.4-7.1-7.9-11C2212.4,930.8,2209.7,935,2205.3,937.7z"/>
			</g>
		</g>
	</g>
	<rect x="2182.3" y="866.4" class="st1" width="200" height="200"/>
</g>
<g>
	<path class="st0" d="M81.9,1000.8c0.8,17.7,17.7,47.7,23.7,58.1c6,10.4,23.6,40,38.5,49.6c3.6,2.4,9.6,3.1,14.7,2
		c5-1,13.4-4.7,15.1-7.6c1.7-2.9,1.9-5.2,1.5-6.5c-0.7-2.6-3.2-7.4-6.7-12.2c-4-5.6-9.5-10.6-11.7-11.2c-2.2-0.6-4,0.8-5.3,1.9
		c-1.2,1.1-7.5,6.6-10.7,5.4c-3.3-1.1-17.6-21.6-22-29.2c-4.4-7.6-14.9-30.2-14.3-33.6c0.7-3.4,8.5-6,10.1-6.6
		c1.6-0.5,3.7-1.4,4.3-3.6c0.6-2.2-1-9.5-3.8-15.8c-2.5-5.4-5.4-10-7.3-11.9c-1-1-3-2-6.4-1.9c-3.3,0.1-10.7,5.4-14.1,9.3
		C84.1,991,81.7,996.5,81.9,1000.8z"/>
</g>
<g>
	<g>
		<path class="st0" d="M584.9,1749.8h-47.6c-1.6,0-2.8-1.3-2.8-2.8v-40.3c0-1.6-1.3-2.8-2.8-2.8h-70.4c-1.6,0-2.8,1.3-2.8,2.8v40.3
			c0,1.6-1.3,2.8-2.8,2.8H408c-1.6,0-2.8,1.3-2.8,2.8v85.9c0,1.6,1.3,2.8,2.8,2.8h58.5c1.6,0,2.8-1.3,2.8-2.8V1810
			c0-1.6,1.3-2.8,2.8-2.8h49.2c1.6,0,2.8,1.3,2.8,2.8v28.5c0,1.6,1.3,2.8,2.8,2.8h58c1.6,0,2.8-1.3,2.8-2.8v-85.9
			C587.7,1751.1,586.5,1749.8,584.9,1749.8z M433.1,1820.5H419v-20.2h14.2V1820.5z M433.1,1785.8H419v-20.2h14.2V1785.8z
			 M451.8,1820.5h-14.2v-20.2h14.2V1820.5z M451.8,1785.8h-14.2v-20.2h14.2V1785.8z M494.2,1785.8H480v-20.2h14.2V1785.8z
			 M512.9,1785.8h-14.2v-20.2h14.2V1785.8z M496.4,1755.5c-12.1,0-22-9.9-22-22c0-12.1,9.9-22,22-22c12.1,0,22,9.9,22,22
			C518.4,1745.6,508.6,1755.5,496.4,1755.5z M556,1820.5h-14.2v-20.2H556V1820.5z M556,1785.8h-14.2v-20.2H556V1785.8z
			 M574.7,1820.5h-14.2v-20.2h14.2V1820.5z M574.7,1785.8h-14.2v-20.2h14.2V1785.8z"/>
		<polygon class="st0" points="496.1,1740 481.6,1730.2 485.2,1724.8 495.6,1731.9 508.7,1720.3 513,1725.1 		"/>
	</g>
	<rect x="396.4" y="1672.6" class="st1" width="200" height="200"/>
</g>
<g>
	<g>
		<path class="st1" d="M-504.9,1005.3c0.3,1.2,0.6,2.5,0.8,3.7C-504.3,1007.7-504.5,1006.5-504.9,1005.3z"/>
		<path class="st1" d="M-507.9,998.2c0.7,1.1,1.2,2.3,1.8,3.5C-506.7,1000.5-507.3,999.3-507.9,998.2z"/>
		<path class="st1" d="M-605.6,1001.6c0.5-1.2,1.1-2.3,1.8-3.5C-604.6,999.3-605.1,1000.5-605.6,1001.6z"/>
		<path class="st1" d="M-504,1009.8c0-0.2,0-0.5-0.1-0.7C-504.1,1009.3-504.1,1009.5-504,1009.8L-504,1009.8z"/>
		<polygon class="st1" points="-601.6,1056.6 -581.8,1045.6 -581.8,1045.6 		"/>
		<path class="st1" d="M-514.2,990.3c-9.5-9.2-24.7-15.2-41.7-15.2s-32.2,6-41.7,15.2c9.5-9.2,24.7-15.2,41.7-15.2
			S-523.7,981.1-514.2,990.3z"/>
		<path class="st1" d="M-608,1012.9c0-1.3,0.1-2.6,0.3-3.9C-607.9,1010.3-608,1011.6-608,1012.9z"/>
		<path class="st1" d="M-514.2,990.3c2,1.9,3.7,4,5.2,6.2C-510.4,994.3-512.2,992.2-514.2,990.3z"/>
		<path class="st1" d="M-607.7,1009c0.2-1.3,0.4-2.5,0.8-3.7C-607.3,1006.5-607.5,1007.7-607.7,1009z"/>
		<path class="st1" d="M-602.8,996.5c1.5-2.2,3.2-4.3,5.2-6.2C-599.6,992.2-601.4,994.3-602.8,996.5z"/>
		<path d="M-503.8,1012.9c0-1-0.1-2.1-0.2-3.1l0,0C-503.9,1010.8-503.8,1011.8-503.8,1012.9z"/>
		<path class="st0" d="M-432.2,1056.1v-22.5c0-13.2-10.7-23.9-23.9-23.9h-39.4c0.1,1,0.1,2.1,0.1,3.1c0,1.8-0.1,3.6-0.4,5.4h39.6
			c8.5,0,15.4,6.9,15.4,15.4v22.5c0,5.5-3,10.6-7.8,13.4l-3,1.7l3,9.7l-15.5-9.4h-48.3c-8.5,0-15.4-6.9-15.4-15.4v-2.3
			c-2.7,1.1-5.6,2-8.5,2.8c0.3,12.9,10.9,23.4,23.9,23.4h45.9l32.5,19.7l-7.6-24.7C-435.7,1070.5-432.2,1063.5-432.2,1056.1z"/>
		<path class="st0" d="M-595,1037.8c-1-0.8-2-1.7-2.9-2.6C-597,1036.1-596,1036.9-595,1037.8z"/>
		<path class="st0" d="M-597.9,1035.2c-1.8-1.8-3.4-3.7-4.8-5.7C-601.3,1031.5-599.7,1033.4-597.9,1035.2z"/>
		<path class="st0" d="M-566.2,1049.9c-2.2-0.3-4.4-0.8-6.5-1.3C-570.6,1049.1-568.4,1049.5-566.2,1049.9z"/>
		<path class="st0" d="M-603.6,1028c-1.2-2.1-2.2-4.2-3-6.4C-605.9,1023.8-604.9,1025.9-603.6,1028z"/>
		<path class="st0" d="M-581.8,1045.6c2.9,1.2,5.9,2.2,9,3C-575.9,1047.8-578.9,1046.8-581.8,1045.6L-581.8,1045.6z"/>
		<path class="st0" d="M-504,1009.8c0-0.2,0-0.5-0.1-0.7c-0.2-1.3-0.4-2.5-0.8-3.7c-0.3-1.2-0.8-2.4-1.3-3.6
			c-0.5-1.2-1.1-2.3-1.8-3.5c-0.3-0.6-0.7-1.1-1-1.7c-1.5-2.2-3.2-4.3-5.2-6.2c-9.5-9.2-24.7-15.2-41.7-15.2s-32.2,6-41.7,15.2
			c-2,1.9-3.7,4-5.2,6.2c-0.4,0.5-0.7,1.1-1,1.7c-0.7,1.1-1.2,2.3-1.8,3.5c-0.5,1.2-0.9,2.4-1.3,3.6c-0.3,1.2-0.6,2.5-0.8,3.7
			c-0.2,1.3-0.3,2.6-0.3,3.9c0,3,0.5,5.9,1.4,8.7c0.7,2.2,1.7,4.4,3,6.4c0.3,0.5,0.6,1,1,1.5c1.4,2,3,3.9,4.8,5.7
			c0.9,0.9,1.9,1.8,2.9,2.6l-6.6,18.9l19.8-11c2.9,1.2,5.9,2.2,9,3c2.1,0.5,4.3,0.9,6.5,1.3c3.3,0.5,6.8,0.7,10.3,0.7
			c7,0,13.6-1,19.7-2.8c3-0.9,5.8-2,8.5-3.2c12.4-5.8,21.2-15.3,23.3-26.3c0.3-1.8,0.5-3.6,0.5-5.4
			C-503.8,1011.8-503.9,1010.8-504,1009.8z M-587.5,1020c-3.1,0-5.7-2.5-5.7-5.7c0-3.1,2.5-5.7,5.7-5.7s5.7,2.5,5.7,5.7
			C-581.8,1017.4-584.3,1020-587.5,1020z M-566.3,1020c-3.1,0-5.7-2.5-5.7-5.7c0-3.1,2.5-5.7,5.7-5.7s5.7,2.5,5.7,5.7
			C-560.7,1017.4-563.2,1020-566.3,1020z M-545.2,1020c-3.1,0-5.7-2.5-5.7-5.7c0-3.1,2.5-5.7,5.7-5.7s5.7,2.5,5.7,5.7
			C-539.6,1017.4-542.1,1020-545.2,1020z M-524.1,1020c-3.1,0-5.7-2.5-5.7-5.7c0-3.1,2.5-5.7,5.7-5.7c3.1,0,5.7,2.5,5.7,5.7
			C-518.4,1017.4-521,1020-524.1,1020z"/>
		<g>
			<circle class="st0" cx="-480.4" cy="1043.9" r="5.7"/>
			<circle class="st0" cx="-501.6" cy="1043.9" r="5.7"/>
			<circle class="st0" cx="-459.3" cy="1043.9" r="5.7"/>
		</g>
	</g>
	<rect x="-620.1" y="937.4" class="st1" width="200" height="200"/>
</g>
<g>
	<g>
		<path class="st0" d="M-174,1100.2h-87.5c-2.3,0-4.3-1.9-4.3-4.3V979.7c0-2.3,1.9-4.3,4.3-4.3h104.9c2.3,0,4.3,1.9,4.3,4.3v96.9
			c0,1.1-0.4,2.1-1.1,2.8l-17.4,19.3C-171.6,1099.7-172.8,1100.2-174,1100.2z M-257.2,1091.7h81.3l15.1-16.7v-91h-96.4V1091.7z"/>
		<path class="st0" d="M-182.1,1089.4c-1.6,0-2.8-1.3-2.8-2.8v-16.1c0-1.6,1.3-2.8,2.8-2.8h15.6c1.6,0,2.8,1.3,2.8,2.8
			s-1.3,2.8-2.8,2.8h-12.7v13.2C-179.3,1088.2-180.6,1089.4-182.1,1089.4z"/>
		<g>
			<rect x="-243" y="997.7" class="st0" width="68" height="5.7"/>
			<rect x="-243" y="1014.3" class="st0" width="68" height="5.7"/>
			<rect x="-243" y="1030.9" class="st0" width="68" height="5.7"/>
			<rect x="-243" y="1047.5" class="st0" width="68" height="5.7"/>
		</g>
	</g>
	<rect x="-309" y="937.9" class="st1" width="200" height="200"/>
</g>
<rect x="28.7" y="944.5" class="st1" width="200" height="200"/>
<g>
	<g>
		<path class="st0" d="M651.2,974.5c-3.4-0.9-6.9,1.1-7.8,4.5l-4.8,21.3c-3.2,3.5-6.8,6.9-9.8,9.6h-6.4c6.8-2.7,11.5-9.4,11.5-17.1
			c0-10.2-8.3-18.5-18.5-18.5c-10.2,0-18.5,8.3-18.5,18.5c0,7.7,4.8,14.4,11.5,17.1h-8.4c-2.3-0.1-4.6,1.1-5.8,3.3l-11.6,20.9
			c-0.4,0.7-0.7,1.5-0.8,2.3l-1,18.1c-0.4,3.5,0.8,6.7,4.3,7.1c0.3,0,0.5,0,0.8,0c3.2,0,5.3-2.4,5.7-5.6l2.8-16.9l3.5-5l-1.9,24.6
			l-4.8,12.8c-0.7,1.9-0.5,4,0.6,5.7l8.6,13.5c1.2,1.9,3.3,2.9,5.4,2.9c1.2,0,2.4-0.3,3.4-1c3-1.9,3.8-5.8,2-8.8l-5.9-9.2l10.3-13.2
			l5.9,34c0,3.5,2.8,6.4,6.4,6.4c3.5,0,6.4-2.8,6.4-6.4l1-34.4c0-0.2,0-0.4,0-0.7l-1.6-31.7c4.2-5.6,14.2-19.1,16.2-21.8
			c1.3-1.3,4.7-24.6,4.7-24.6C655.3,978.9,654.6,975.4,651.2,974.5z"/>
		<path class="st0" d="M576.3,1053.9l-2.2-15.8c-0.1-0.8-0.3-1.5-0.7-2.2l-12.1-17.9c-1.1-2-3.2-3.1-5.4-3h-6.6
			c6-2.5,10.2-8.4,10.2-15.3c0-9.1-7.4-16.6-16.6-16.6c-9.1,0-16.5,7.4-16.5,16.6c0,6.9,4.2,12.8,10.2,15.3h-4.8
			c-2.8-2.5-6.2-5.7-9.1-9l-4.5-19.8c-0.9-3.2-4.1-5-7.3-4.2c-3.2,0.8-3.8,4.1-3,7.3c0,0,3.2,21.7,4.4,22.9
			c2.3,3.1,15.9,21.4,16.8,22.5c0.1,0.1,0.2,0.1,0.2,0.2l-1.1,14.2l-7.1,26.2l7.7-0.6l0.6,21.2c0,3.3,2.7,5.9,5.9,5.9
			c3.3,0,5-2.7,5-5.9l2.1-22.2l2.5-0.2l-1.4,5.8c-0.7,1.7-0.5,3.7,0.5,5.3l8,12.6c1.1,1.8,3,2.7,5,2.7c1.1,0,1.4-0.3,2.4-0.9
			c2.8-1.8,2.3-5.4,0.5-8.2l-4.7-8.6l4.3-9.8l7.9-0.6l-8.5-19.1l-1.5-19.2l4.8,7.2l3.9,14.7c0.4,3,2.3,5.2,5.3,5.2
			c0.2,0,0.5,0,0.7,0C575.6,1060.1,576.7,1057.2,576.3,1053.9z"/>
	</g>
	<rect x="481.2" y="938" class="st1" width="200" height="200"/>
</g>
<g>
	<g>
		<path class="st0" d="M-379.1,1383.9c-0.1,0-0.1-0.1-0.2-0.1c-0.9-0.6-1.8-1.1-2.7-1.6c-0.2-0.1-0.3-0.2-0.5-0.3
			c-0.9-0.5-1.8-0.9-2.8-1.3c-0.2-0.1-0.4-0.2-0.6-0.2c-1-0.4-1.9-0.7-3-1.1c-0.1,0-0.2-0.1-0.3-0.1c-4-1.2-8.2-1.7-12.5-1.5
			c-0.3,0-0.7,0-1,0.1c-0.6,0-1.2,0-1.8,0.1c-6.5,0.8-12.7,3.4-17.9,7.5c-9.1,7.2-14.2,17.7-14.2,29.1c0,12.1,5,22.2,15.2,30.9
			c1.2,1,2.3,5,3,7.9c1.1,4.2,2.4,9.3,5.6,12.5c0.6,0.6,1.5,0.9,2.3,0.9h21.4c0.9,0,1.7-0.3,2.3-0.9c3.2-3.1,4.5-8.3,5.6-12.5
			c0.8-2.9,1.8-6.9,3-7.9c10.3-8.7,15.2-18.8,15.2-30.9c0-9.9-3.8-19.1-10.8-26.1C-375.2,1386.7-377.1,1385.2-379.1,1383.9z
			 M-384.1,1438.1c-3.5,3-4.8,7.9-6,12.7c-0.9,3.3-2.1,8.3-3.7,8.3h-11.6c-1.5,0-2.8-5-3.7-8.3c-1.2-4.8-2.5-9.8-6-12.7
			c-8.1-6.9-11.9-14.4-11.9-23.6c0-7.3,2.9-14.2,8-19.4c5.2-5.2,12.1-8,19.4-8c7.3,0,14.2,2.9,19.4,8c5.2,5.2,8,12.1,8,19.4
			C-372.2,1423.7-376,1431.2-384.1,1438.1z"/>
		<path class="st0" d="M-412.3,1475.9c0,4,2,9.9,5.6,9.9c3.6,0,10.1,0,14.2,0s5.5-5.6,5.6-9.5c0-0.1,0-0.2,0-0.3h0c0,0,0,0,0,0
			H-412.3L-412.3,1475.9z"/>
		<g>
			<path class="st0" d="M-399.6,1345.4c-2.6,0-4.8,2.1-4.8,4.8l1.2,14c0,1.9,1.6,3.5,3.6,3.5s3.5-1.6,3.6-3.5l1.2-13.9l0-0.1
				C-394.8,1347.5-397,1345.4-399.6,1345.4z"/>
			<path class="st0" d="M-443.2,1363.1L-443.2,1363.1c-0.3-0.3-0.5-0.4-0.6-0.5c-0.2-0.1-0.4-0.3-0.6-0.4c-0.4-0.2-0.7-0.4-1.1-0.5
				c-0.2,0-0.3-0.1-0.5-0.1c-0.4-0.1-0.9-0.1-1.3,0c-0.2,0-0.3,0.1-0.5,0.1c-0.4,0.1-0.8,0.3-1.1,0.5c-0.2,0.1-0.4,0.2-0.5,0.4
				c-0.1,0.1-0.3,0.2-0.5,0.4c-1.9,1.9-1.9,4.9,0,6.7l10.7,9c0.7,0.6,1.5,1,2.5,1c0,0,0,0,0,0c1,0,1.9-0.4,2.5-1
				c0.7-0.7,1-1.6,1-2.5c0-0.9-0.4-1.8-1-2.5L-443.2,1363.1z"/>
			<path class="st0" d="M-451.6,1405l-13.4-3.6l-0.1,0c-1.3-0.2-2.5,0.1-3.6,0.8c-1,0.7-1.7,1.8-2,3.1c-0.2,1.3,0.1,2.5,0.8,3.6
				c0.7,1,1.8,1.7,3.1,2l14,1.2c0.2,0,0.4,0,0.6,0c1.7,0,3.2-1.2,3.5-3C-448.4,1407.2-449.7,1405.4-451.6,1405z"/>
			<path class="st0" d="M-348.7,1369.8c0.9-0.9,1.4-2.1,1.4-3.4c0-1.3-0.5-2.5-1.4-3.4c-0.2-0.2-0.4-0.3-0.5-0.4
				c-0.2-0.1-0.3-0.2-0.5-0.3c-0.4-0.2-0.8-0.4-1.1-0.5c-0.2,0-0.3-0.1-0.5-0.1c-0.4-0.1-0.9-0.1-1.3,0c-0.2,0-0.4,0.1-0.5,0.1
				c-0.4,0.1-0.8,0.3-1.2,0.5c-0.2,0.1-0.4,0.2-0.5,0.4c-0.1,0.1-0.3,0.2-0.5,0.4l-9,10.7c-1.3,1.4-1.3,3.6,0,5c0.7,0.7,1.6,1,2.5,1
				c0.9,0,1.8-0.4,2.5-1L-348.7,1369.8L-348.7,1369.8z"/>
			<path class="st0" d="M-328.6,1405.3c-0.2-1.3-0.9-2.3-2-3.1c-1-0.7-2.3-1-3.6-0.8l-13.6,3.6c-1.9,0.4-3.2,2.2-2.8,4.1
				c0.3,1.7,1.8,3,3.5,3c0.2,0,0.4,0,0.6,0l13.8-1.2l0.1,0c1.3-0.2,2.3-0.9,3.1-2C-328.6,1407.8-328.3,1406.5-328.6,1405.3z"/>
		</g>
		<path class="st0" d="M-386.2,1472.1c0,0.8-0.6,1.4-1.4,1.4h-23.9c-0.8,0-1.4-0.6-1.4-1.4v-1.4c0-0.8,0.6-1.4,1.4-1.4h23.9
			c0.8,0,1.4,0.6,1.4,1.4V1472.1z"/>
	</g>
	<rect x="-499.6" y="1315.6" class="st1" width="200" height="200"/>
</g>
<g>
	<g>
		<rect x="177.6" y="1396.7" class="st0" width="36.4" height="36.4"/>
		<g>
			<path class="st0" d="M84.5,1433.1H37.4l23.5-40.8L84.5,1433.1z"/>
		</g>
		<path class="st0" d="M203.7,1438.1h-17.6c-4.3,0-8,3.1-8.6,7.4l-3.8,18.4l-18.4-27.1c-1.9-3.6-6-5.3-9.8-4.4
			c9.6-6.1,16-16.8,16-29c0-18.9-15.3-34.2-34.2-34.2c-18.9,0-34.2,15.3-34.2,34.2c0,12.2,6.4,23,16.1,29c-3.8-1-8,0.7-9.9,4.3
			l-18.4,27.1l-3.8-18.4c-0.7-4.3-4.3-7.4-8.6-7.4H50.8c-4.8,0-8.7,3.9-8.7,8.7c0,4.8,3.9,8.7,8.7,8.7h10.1l8.8,26.6
			c0.6,3.7,3.5,6.7,7.2,7.3c0.5,0.1,1,0.1,1.5,0.1c3.2,0,5.2-1.7,7.7-4.6l15.2-16.5l-2.3,28.3h56.6l-2.3-28.2l15.1,16.3
			c2.8,2.8,4.5,4.6,7.7,4.6c0.5,0,1,0,1.5-0.1c3.7-0.6,6.6-3.6,7.2-7.3l8.8-26.6h10.1c4.8,0,8.7-3.9,8.7-8.7
			C212.4,1442,208.5,1438.1,203.7,1438.1z M126.2,1448.7c-3.4,0-6-2.4-6-6c0-3.6,2.6-6,6-6c3.3,0,6,2.4,6,6
			C132.2,1446.3,129.5,1448.7,126.2,1448.7z M138.4,1415.2c-4.7,3.2-7.6,4.8-7.6,9.7v1.5c0,2.5-1.7,3.8-4.5,3.8
			c-2.8,0-4.6-1.3-4.6-3.8v-1.6c0-4.4,0.9-6.9,2.8-9.4c1.5-1.9,2.2-2.5,6.8-5.5c4.5-3.1,6-4.7,6-8c0-4.6-3.6-7.3-9.3-7.3
			c-5.5,0-8.4,2.7-10,7.1c-0.9,2.2-2.3,3-4.1,3c-0.7,0-1.4-0.1-2.2-0.4c-1.9-0.5-3.6-1.7-3.6-3.9c0-0.4,0.1-1,0.3-1.6
			c1.2-3.3,3.1-6.2,5.8-8.4c3.5-2.7,8-4.3,14.4-4.3c11.5,0,18.8,5.9,18.8,15.1C147.3,1408.4,143.4,1411.8,138.4,1415.2z"/>
	</g>
	<rect x="25.7" y="1333" class="st1" width="200" height="200"/>
</g>
<g>
	<g>
		<path class="st0" d="M667.5,1410.7c6.7-7.9,11-14.8,12.9-20.5c2.5-7.8,0.1-12.5-2.4-15l-0.2-0.2c-2.3-2.2-5.3-3.4-8.8-3.4
			c-1.9,0-4,0.4-6.2,1.1c-5.7,1.8-12.6,6.2-20.5,12.9c-5.5,4.6-10.7,9.9-15.6,15.5c-0.5,0.6-13.8,16.1-25.4,29.6
			c0.6,0.8,5.3,7.3,9.5,11.5c3.8,3.8,9.8,8.3,11.4,9.5c13.8-11.8,29.8-25.4,29.8-25.4C657.6,1421.4,662.8,1416.1,667.5,1410.7z"/>
		<path class="st0" d="M605.6,1447.5c-3.8-3.8-7.7-9-9.1-10.9c-6,7-11.6,13.4-12.1,13.9c-2.7,2.9,0,6.5,0.9,7.7
			c1.1,1.5,2.7,3.2,4.4,5c1.8,1.8,3.5,3.3,5,4.4c1,0.7,2.8,2.1,4.8,2.1c1.1,0,2.1-0.4,2.9-1.1c0.4-0.4,6.9-6.1,14-12.1
			C610.2,1452.1,610.1,1452,605.6,1447.5C605.6,1447.5,605.6,1447.5,605.6,1447.5z"/>
		<path class="st1" d="M572.1,1489c2.3-2.3,2.3-5.9,0-8.2c-2.3-2.3-5.9-2.3-8.2,0c-1.9,1.9-2.2,4.8-0.9,7l-16.1,16.8l1.4,1.4
			l16.8-16.1C567.4,1491.2,570.2,1490.9,572.1,1489z"/>
		<path class="st0" d="M563.1,1487.8c-1.3-2.2-1-5.1,0.9-7c2.3-2.3,5.9-2.3,8.2,0c2.3,2.3,2.3,5.9,0,8.2c-1.9,1.9-4.8,2.2-7,0.9
			l-16.8,16.1l1.7,1.7c6.5-2.9,16.5-6.5,26.9-6.6c3.2-7.2,7.9-16,15.8-24.8c0.9-1,1.9-2.1,2.9-3.1c0,0,0,0,0,0c0,0,0,0,0,0
			c-0.8-0.5-1.6-0.8-2.1-1.2c-1.9-1.5-4.5-3.3-6.9-5.7c-2.4-2.4-4.2-5-5.7-6.9c-0.3-0.4-0.6-1.1-1-1.8c0-0.1-0.1-0.1-0.1-0.2
			c0,0,0,0,0,0c0,0,0,0,0,0c-9.8,9.6-19.8,15.1-27.9,18.7c-0.4,10.1-3.9,20.2-6.8,26.8l1.8,1.8L563.1,1487.8z"/>
	</g>
	<rect x="513.3" y="1339.6" class="st1" width="200" height="200"/>
</g>
<g>
	<g>
		<path class="st0" d="M-368.1,1729.9h-20.8v-9.2h14l-7.1-18.2h-86.1l-7.1,18.2h15.7v9.2H-482c-1.5,0-2.9-0.8-3.8-2
			c-0.9-1.3-1-2.9-0.5-4.3l10.7-27.5c0.7-1.8,2.4-2.9,4.3-2.9h92.4c1.9,0,3.6,1.2,4.3,2.9l10.7,27.5c0.6,1.4,0.4,3-0.5,4.3
			C-365.2,1729.2-366.6,1729.9-368.1,1729.9z"/>
		<path class="st0" d="M-386.8,1756.1h-76.5v-46.9h76.5V1756.1z M-457.7,1750.4h65.2v-35.6h-65.2V1750.4z"/>
		<path class="st0" d="M-368.1,1848.5H-482c-2.5,0-4.6-2.1-4.6-4.6v-116.6c0-2,1.3-3.8,3.3-4.4c1.9-0.6,4,0.2,5.2,1.8l16.1,24h74.1
			l16.1-24c1.1-1.7,3.2-2.4,5.2-1.8c1.9,0.6,3.3,2.4,3.3,4.4v116.6C-363.5,1846.4-365.6,1848.5-368.1,1848.5z M-477.4,1839.3h104.7
			v-96.8l-9,13.5c-0.9,1.3-2.3,2-3.8,2h-79c-1.5,0-3-0.8-3.8-2l-9-13.5V1839.3z"/>
		<g>
			<path class="st0" d="M-459.9,1812.4l-3.5,8.7h-13.8l19.2-50h14.2l18.8,50h-13.9l-3.3-8.7H-459.9z M-450.8,1786.5h-0.1l-5.4,15.9
				h10.8L-450.8,1786.5z"/>
			<path class="st0" d="M-373.3,1795.2c0,16.2-11.6,27.6-27.7,27.6c-16.1,0-27.7-11.4-27.7-27.6c0-15.1,13.3-25.7,27.7-25.7
				S-373.3,1780-373.3,1795.2z M-415.1,1795.2c0,8.6,6.4,14.9,14.1,14.9c7.8,0,14.1-6.3,14.1-14.9c0-6.9-6.4-13.2-14.1-13.2
				C-408.7,1782-415.1,1788.3-415.1,1795.2z"/>
		</g>
		<g>
			<rect x="-450.2" y="1721.4" class="st0" width="51" height="4.3"/>
			<rect x="-450.2" y="1730.1" class="st0" width="51" height="4.3"/>
			<rect x="-450.2" y="1738.9" class="st0" width="51" height="4.3"/>
		</g>
	</g>
	<rect x="-525.1" y="1670.9" class="st1" width="200" height="200"/>
</g>
<g>
	<g>
		<rect x="-88.5" y="1662.8" class="st1" width="200" height="200"/>
		<g>
			<path class="st0" d="M10.7,1788.7c-4.2-1.4-6.6,2.9-6.9,3.6c-0.2,0.7-5.1,11.5-5.1,11.5l-9.1-12.2c-1.2-2.3-4.1-3.9-7.1-3.9
				l-2.3-0.1c6-2.7,10.2-8.7,10.2-15.7c0-9.5-7.7-17.2-17.2-17.2c-9.5,0-17.2,7.7-17.2,17.2c0,6.6,3.7,12.4,9.2,15.2l-2.5-0.1
				c0,0-30.2-24.2-31-24.7c-0.8-0.5-4.1-2.1-6.6,0.8c-2.1,2.5-0.8,6.5,0.9,7.8c0.8,0.6,32.1,31.3,32.1,31.3l-2.6,19.7h15.8h1.5h15.8
				l-1.2-12.5l8.2,6.2c2.1,2.1,4.9,2.1,6.3,1.7c1.9-0.6,2.8-2.1,4.1-5.2c0,0,7.6-16.1,8-17.1C14.2,1793.8,14.7,1790,10.7,1788.7z"/>
			<path class="st0" d="M78.8,1703.8H17c-11.9,0-21.6,9.7-21.6,21.6v24.7c0,6.5,2.9,12.4,7.6,16.4l-5.2,15.1l17.8-9.9
				c0.5,0,1,0.1,1.4,0.1h61.8c11.9,0,21.6-9.7,21.6-21.6v-24.7C100.4,1713.5,90.6,1703.8,78.8,1703.8z"/>
			<g>
				<path class="st0" d="M38.8,1814.9c-1.3,0-2.4-0.9-2.7-2.1c-3.2-12.7-9.6-12.9-9.9-12.9c-1.5,0.1-2.7-1.1-2.8-2.6
					c-0.1-1.5,1-2.8,2.5-3c6.1-0.6,8.5-6.2,10-11.6c0.1-0.4,0.2-0.8,0.3-1.1c0.4-1.1,1.4-1.9,2.6-1.9c1.2,0,2.3,0.7,2.7,1.8
					c0.2,0.6,0.4,1.4,0.6,2.3c0.9,3.6,2.3,9.1,7.5,10.7c1.1,0.4,1.9,1.4,1.9,2.6c0,1.2-0.7,2.3-1.8,2.7c-6.5,2.3-8.1,12.5-8.1,12.6
					c-0.2,1.3-1.3,2.3-2.6,2.4C38.9,1814.9,38.8,1814.9,38.8,1814.9z M33.5,1797.3c1.7,1.4,3.5,3.4,5.1,6.4c1.1-2.2,2.5-4.4,4.5-6.2
					c-2.2-1.8-3.6-4-4.6-6.2C37.4,1793.4,35.8,1795.7,33.5,1797.3z"/>
			</g>
			<g>
				<path class="st0" d="M-56.3,1758.2c-1.4,0-2.6-0.9-2.9-2.3c-4.7-18.8-14.5-18.9-14.9-18.9c-1.6,0.1-3-1.2-3.1-2.8
					c-0.1-1.6,1.1-3,2.7-3.2c10.4-1,13.6-12.3,14.9-17.1c0.2-0.6,0.3-1.1,0.4-1.5c0.4-1.2,1.5-2.1,2.8-2.1c0,0,0,0,0.1,0
					c1.3,0,2.4,0.8,2.8,2c0.3,0.8,0.6,1.9,0.9,3.1c1.3,5.3,3.4,13.4,11.2,15.9c1.2,0.4,2.1,1.5,2.1,2.8c0,1.3-0.8,2.5-2,2.9
					c-9.8,3.4-12,18.4-12,18.6c-0.2,1.4-1.4,2.5-2.8,2.6C-56.2,1758.2-56.3,1758.2-56.3,1758.2z M-65.4,1734.1
					c3,2.1,6.2,5.5,8.8,11.2c1.6-3.8,4.1-8,7.9-11c-4.1-2.9-6.4-7.1-7.9-11C-58.3,1727.2-61.1,1731.4-65.4,1734.1z"/>
			</g>
		</g>
	</g>
	<rect x="-88.5" y="1662.8" class="st1" width="200" height="200"/>
</g>
<g>
	<g>
		<path class="st0" d="M40.5,48.7H14.3c-0.7,0-1.3-0.6-1.3-1.3V12.6c0-0.7,0.6-1.3,1.3-1.3h31.5c0.7,0,1.3,0.6,1.3,1.3v29.1
			c0,0.3-0.1,0.6-0.3,0.9l-5.2,5.8C41.2,48.6,40.9,48.7,40.5,48.7z M15.5,46.2h24.4l4.5-5V13.8H15.5V46.2z"/>
		<path class="st0" d="M38.1,45.5c-0.5,0-0.9-0.4-0.9-0.9v-4.8c0-0.5,0.4-0.9,0.9-0.9h4.7c0.5,0,0.9,0.4,0.9,0.9
			c0,0.5-0.4,0.9-0.9,0.9h-3.8v4C38.9,45.1,38.5,45.5,38.1,45.5z"/>
		<g>
			<rect x="19.8" y="17.9" class="st0" width="20.4" height="1.7"/>
			<rect x="19.8" y="22.9" class="st0" width="20.4" height="1.7"/>
			<rect x="19.8" y="27.9" class="st0" width="20.4" height="1.7"/>
			<rect x="19.8" y="32.9" class="st0" width="20.4" height="1.7"/>
		</g>
	</g>
	<rect class="st1" width="60" height="60"/>
</g>
</svg>
