<?xml version="1.0" encoding="utf-8"?>
<!-- Generator: Adobe Illustrator 24.3.0, SVG Export Plug-In . SVG Version: 6.00 Build 0)  -->
<svg version="1.1" id="レイヤー_1" xmlns="http://www.w3.org/2000/svg" xmlns:xlink="http://www.w3.org/1999/xlink" x="0px"
	 y="0px" viewBox="0 0 60 60" style="enable-background:new 0 0 60 60;" xml:space="preserve">
<style type="text/css">
	.st0{fill:#255096;}
	.st1{fill:none;}
	.st2{fill:#FFFFFF;}
</style>
<g>
	<g>
		<path class="st0" d="M2778.3,958.6h-47.6c-1.6,0-2.8-1.3-2.8-2.8v-40.3c0-1.6-1.3-2.8-2.8-2.8h-70.4c-1.6,0-2.8,1.3-2.8,2.8v40.3
			c0,1.6-1.3,2.8-2.8,2.8h-47.6c-1.6,0-2.8,1.3-2.8,2.8v85.9c0,1.6,1.3,2.8,2.8,2.8h58.5c1.6,0,2.8-1.3,2.8-2.8v-28.5
			c0-1.6,1.3-2.8,2.8-2.8h49.2c1.6,0,2.8,1.3,2.8,2.8v28.5c0,1.6,1.3,2.8,2.8,2.8h58c1.6,0,2.8-1.3,2.8-2.8v-85.9
			C2781.1,959.8,2779.8,958.6,2778.3,958.6z M2626.5,1029.3h-14.2V1009h14.2V1029.3z M2626.5,994.6h-14.2v-20.2h14.2V994.6z
			 M2645.2,1029.3H2631V1009h14.2V1029.3z M2645.2,994.6H2631v-20.2h14.2V994.6z M2687.6,994.6h-14.2v-20.2h14.2V994.6z
			 M2706.3,994.6h-14.2v-20.2h14.2V994.6z M2689.8,964.2c-12.1,0-22-9.9-22-22c0-12.1,9.9-22,22-22c12.1,0,22,9.9,22,22
			C2711.8,954.4,2701.9,964.2,2689.8,964.2z M2749.4,1029.3h-14.2V1009h14.2V1029.3z M2749.4,994.6h-14.2v-20.2h14.2V994.6z
			 M2768.1,1029.3h-14.2V1009h14.2V1029.3z M2768.1,994.6h-14.2v-20.2h14.2V994.6z"/>
		<polygon class="st0" points="2689.5,948.8 2674.9,939 2678.6,933.6 2689,940.6 2702.1,929 2706.4,933.9 		"/>
	</g>
	<rect x="2589.8" y="881.4" class="st1" width="200" height="200"/>
</g>
<g>
	<g>
		<path class="st1" d="M1688.5,214c0.3,1.2,0.6,2.5,0.8,3.7C1689.1,216.5,1688.8,215.3,1688.5,214z"/>
		<path class="st1" d="M1685.4,206.9c0.7,1.1,1.2,2.3,1.8,3.5C1686.7,209.2,1686.1,208.1,1685.4,206.9z"/>
		<path class="st1" d="M1587.7,210.4c0.5-1.2,1.1-2.3,1.8-3.5C1588.8,208.1,1588.2,209.2,1587.7,210.4z"/>
		<path class="st1" d="M1689.3,218.5c0-0.2,0-0.5-0.1-0.7C1689.3,218,1689.3,218.3,1689.3,218.5L1689.3,218.5z"/>
		<polygon class="st1" points="1591.8,265.4 1611.6,254.4 1611.6,254.4 		"/>
		<path class="st1" d="M1679.2,199.1c-9.5-9.2-24.7-15.2-41.7-15.2s-32.2,6-41.7,15.2c9.5-9.2,24.7-15.2,41.7-15.2
			S1669.7,189.8,1679.2,199.1z"/>
		<path class="st1" d="M1585.4,221.6c0-1.3,0.1-2.6,0.3-3.9C1585.5,219,1585.4,220.3,1585.4,221.6z"/>
		<path class="st1" d="M1679.2,199.1c2,1.9,3.7,4,5.2,6.2C1682.9,203.1,1681.2,201,1679.2,199.1z"/>
		<path class="st1" d="M1585.7,217.8c0.2-1.3,0.4-2.5,0.8-3.7C1586.1,215.3,1585.8,216.5,1585.7,217.8z"/>
		<path class="st1" d="M1590.5,205.3c1.5-2.2,3.2-4.3,5.2-6.2C1593.7,201,1592,203.1,1590.5,205.3z"/>
		<path d="M1689.5,221.6c0-1-0.1-2.1-0.2-3.1l0,0C1689.5,219.5,1689.5,220.6,1689.5,221.6z"/>
		<path class="st0" d="M1761.2,264.9v-22.5c0-13.2-10.7-23.9-23.9-23.9h-39.4c0.1,1,0.1,2.1,0.1,3.1c0,1.8-0.1,3.6-0.4,5.4h39.6
			c8.5,0,15.4,6.9,15.4,15.4v22.5c0,5.5-3,10.6-7.8,13.4l-3,1.7l3,9.7l-15.5-9.4h-48.3c-8.5,0-15.4-6.9-15.4-15.4v-2.3
			c-2.7,1.1-5.6,2-8.5,2.8c0.3,12.9,10.9,23.4,23.9,23.4h45.9l32.5,19.7l-7.6-24.7C1757.7,279.2,1761.2,272.3,1761.2,264.9z"/>
		<path class="st2" d="M1598.3,246.5c-1-0.8-2-1.7-2.9-2.6C1596.4,244.8,1597.3,245.7,1598.3,246.5z"/>
		<path class="st2" d="M1595.5,243.9c-1.8-1.8-3.4-3.7-4.8-5.7C1592.1,240.2,1593.7,242.2,1595.5,243.9z"/>
		<path class="st2" d="M1627.2,258.6c-2.2-0.3-4.4-0.8-6.5-1.3C1622.8,257.9,1624.9,258.3,1627.2,258.6z"/>
		<path class="st2" d="M1589.7,236.7c-1.2-2.1-2.2-4.2-3-6.4C1587.5,232.5,1588.5,234.7,1589.7,236.7z"/>
		<path class="st2" d="M1611.6,254.4c2.9,1.2,5.9,2.2,9,3C1617.5,256.6,1614.5,255.6,1611.6,254.4L1611.6,254.4z"/>
		<path class="st0" d="M1689.3,218.5c0-0.2,0-0.5-0.1-0.7c-0.2-1.3-0.4-2.5-0.8-3.7c-0.3-1.2-0.8-2.4-1.3-3.6
			c-0.5-1.2-1.1-2.3-1.8-3.5c-0.3-0.6-0.7-1.1-1-1.7c-1.5-2.2-3.2-4.3-5.2-6.2c-9.5-9.2-24.7-15.2-41.7-15.2s-32.2,6-41.7,15.2
			c-2,1.9-3.7,4-5.2,6.2c-0.4,0.5-0.7,1.1-1,1.7c-0.7,1.1-1.2,2.3-1.8,3.5c-0.5,1.2-0.9,2.4-1.3,3.6c-0.3,1.2-0.6,2.5-0.8,3.7
			c-0.2,1.3-0.3,2.6-0.3,3.9c0,3,0.5,5.9,1.4,8.7c0.7,2.2,1.7,4.4,3,6.4c0.3,0.5,0.6,1,1,1.5c1.4,2,3,3.9,4.8,5.7
			c0.9,0.9,1.9,1.8,2.9,2.6l-6.6,18.9l19.8-11c2.9,1.2,5.9,2.2,9,3c2.1,0.5,4.3,0.9,6.5,1.3c3.3,0.5,6.8,0.7,10.3,0.7
			c7,0,13.6-1,19.7-2.8c3-0.9,5.8-2,8.5-3.2c12.4-5.8,21.2-15.3,23.3-26.3c0.3-1.8,0.5-3.6,0.5-5.4
			C1689.5,220.6,1689.5,219.5,1689.3,218.5z M1605.9,228.7c-3.1,0-5.7-2.5-5.7-5.7c0-3.1,2.5-5.7,5.7-5.7s5.7,2.5,5.7,5.7
			C1611.6,226.2,1609,228.7,1605.9,228.7z M1627,228.7c-3.1,0-5.7-2.5-5.7-5.7c0-3.1,2.5-5.7,5.7-5.7s5.7,2.5,5.7,5.7
			C1632.7,226.2,1630.2,228.7,1627,228.7z M1648.1,228.7c-3.1,0-5.7-2.5-5.7-5.7c0-3.1,2.5-5.7,5.7-5.7s5.7,2.5,5.7,5.7
			C1653.8,226.2,1651.3,228.7,1648.1,228.7z M1669.3,228.7c-3.1,0-5.7-2.5-5.7-5.7c0-3.1,2.5-5.7,5.7-5.7c3.1,0,5.7,2.5,5.7,5.7
			C1674.9,226.2,1672.4,228.7,1669.3,228.7z"/>
		<g>
			<ellipse class="st0" cx="1716.3" cy="254.6" rx="6.4" ry="3.7"/>
			<ellipse class="st0" cx="1692.5" cy="254.6" rx="6.4" ry="3.7"/>
			<ellipse class="st0" cx="1740" cy="254.6" rx="6.4" ry="3.7"/>
		</g>
	</g>
	<rect x="1573.3" y="146.2" class="st1" width="200" height="200"/>
</g>
<g>
	<g>
		<path class="st0" d="M2019.4,309h-87.5c-2.3,0-4.3-1.9-4.3-4.3V188.5c0-2.3,1.9-4.3,4.3-4.3h104.9c2.3,0,4.3,1.9,4.3,4.3v96.9
			c0,1.1-0.4,2.1-1.1,2.8l-17.4,19.3C2021.8,308.5,2020.6,309,2019.4,309z M1936.2,300.5h81.3l15.1-16.7v-91h-96.4V300.5z"/>
		<path class="st0" d="M2011.2,298.2c-1.6,0-2.8-1.3-2.8-2.8v-16.1c0-1.6,1.3-2.8,2.8-2.8h15.6c1.6,0,2.8,1.3,2.8,2.8
			s-1.3,2.8-2.8,2.8h-12.7v13.2C2014.1,296.9,2012.8,298.2,2011.2,298.2z"/>
		<g>
			<rect x="1950.4" y="206.5" class="st0" width="68" height="5.7"/>
			<rect x="1950.4" y="223" class="st0" width="68" height="5.7"/>
			<rect x="1950.4" y="239.6" class="st0" width="68" height="5.7"/>
			<rect x="1950.4" y="256.2" class="st0" width="68" height="5.7"/>
		</g>
	</g>
	<rect x="1884.4" y="146.6" class="st1" width="200" height="200"/>
</g>
<g>
	<g>
		<path class="st0" d="M2275.3,209.6c0.8,17.7,17.7,47.7,23.7,58.1c6,10.4,23.6,40,38.5,49.6c3.6,2.4,9.6,3.1,14.7,2
			c5-1,13.4-4.7,15.1-7.6c1.7-2.9,1.9-5.2,1.5-6.5c-0.7-2.6-3.2-7.4-6.7-12.2c-4-5.6-9.5-10.6-11.7-11.2c-2.2-0.6-4,0.8-5.3,1.9
			c-1.2,1.1-7.5,6.6-10.7,5.4c-3.3-1.1-17.6-21.6-22-29.2c-4.4-7.6-14.9-30.2-14.3-33.6c0.7-3.4,8.5-6,10.1-6.6
			c1.6-0.5,3.7-1.4,4.3-3.6c0.6-2.2-1-9.5-3.8-15.8c-2.5-5.4-5.4-10-7.3-11.9c-1-1-3-2-6.4-1.9c-3.3,0.1-10.7,5.4-14.1,9.3
			C2277.5,199.7,2275,205.3,2275.3,209.6z"/>
	</g>
	<rect x="2222.1" y="153.2" class="st1" width="200" height="200"/>
</g>
<g>
	<g>
		<path class="st0" d="M2844.6,183.3c-3.4-0.9-6.9,1.1-7.8,4.5L2832,209c-3.2,3.5-6.8,6.9-9.8,9.6h-6.4c6.8-2.7,11.5-9.4,11.5-17.1
			c0-10.2-8.3-18.5-18.5-18.5c-10.2,0-18.5,8.3-18.5,18.5c0,7.7,4.8,14.4,11.5,17.1h-8.4c-2.3-0.1-4.6,1.1-5.8,3.3l-11.6,20.9
			c-0.4,0.7-0.7,1.5-0.8,2.3l-1,18.1c-0.4,3.5,0.8,6.7,4.3,7.1c0.3,0,0.5,0,0.8,0c3.2,0,5.3-2.4,5.7-5.6l2.8-16.9l3.5-5l-1.9,24.6
			l-4.8,12.8c-0.7,1.9-0.5,4,0.6,5.7l8.6,13.5c1.2,1.9,3.3,2.9,5.4,2.9c1.2,0,2.4-0.3,3.4-1c3-1.9,3.8-5.8,2-8.8l-5.9-9.2l10.3-13.2
			l5.9,34c0,3.5,2.8,6.4,6.4,6.4s6.4-2.8,6.4-6.4l1-34.4c0-0.2,0-0.4,0-0.7l-1.6-31.7c4.2-5.6,14.2-19.1,16.2-21.8
			c1.3-1.3,4.7-24.6,4.7-24.6C2848.7,187.7,2848,184.2,2844.6,183.3z"/>
		<path class="st0" d="M2769.7,262.7l-2.2-15.8c-0.1-0.8-0.3-1.5-0.7-2.2l-12.1-17.9c-1.1-2-3.2-3.1-5.4-3h-6.6
			c6-2.5,10.2-8.4,10.2-15.3c0-9.1-7.4-16.6-16.6-16.6c-9.1,0-16.5,7.4-16.5,16.6c0,6.9,4.2,12.8,10.2,15.3h-4.8
			c-2.8-2.5-6.2-5.7-9.1-9l-4.5-19.8c-0.9-3.2-4.1-5-7.3-4.2c-3.2,0.8-3.8,4.1-3,7.3c0,0,3.2,21.7,4.4,22.9
			c2.3,3.1,15.9,21.4,16.8,22.5c0.1,0.1,0.2,0.1,0.2,0.2l-1.1,14.2l-7.1,26.2l7.7-0.6l0.6,21.2c0,3.3,2.7,5.9,5.9,5.9
			c3.3,0,5-2.7,5-5.9l2.1-22.2l2.5-0.2l-1.4,5.8c-0.7,1.7-0.5,3.7,0.5,5.3l8,12.6c1.1,1.8,3,2.7,5,2.7c1.1,0,1.4-0.3,2.4-0.9
			c2.8-1.8,2.3-5.4,0.5-8.2l-4.7-8.6l4.3-9.8l7.9-0.6l-8.5-19.1l-1.5-19.2l4.8,7.2l3.9,14.7c0.4,3,2.3,5.2,5.3,5.2
			c0.2,0,0.5,0,0.7,0C2768.9,268.9,2770.1,266,2769.7,262.7z"/>
	</g>
	<rect x="2674.6" y="146.8" class="st1" width="200" height="200"/>
</g>
<g>
	<g>
		<path class="st0" d="M1814.3,592.6c-0.1,0-0.1-0.1-0.2-0.1c-0.9-0.6-1.8-1.1-2.7-1.6c-0.2-0.1-0.3-0.2-0.5-0.3
			c-0.9-0.5-1.8-0.9-2.8-1.3c-0.2-0.1-0.4-0.2-0.6-0.2c-1-0.4-1.9-0.7-3-1.1c-0.1,0-0.2-0.1-0.3-0.1c-4-1.2-8.2-1.7-12.5-1.5
			c-0.3,0-0.7,0-1,0.1c-0.6,0-1.2,0-1.8,0.1c-6.5,0.8-12.7,3.4-17.9,7.5c-9.1,7.2-14.2,17.7-14.2,29.1c0,12.1,5,22.2,15.2,30.9
			c1.2,1,2.3,5,3,7.9c1.1,4.2,2.4,9.3,5.6,12.5c0.6,0.6,1.5,0.9,2.3,0.9h21.4c0.9,0,1.7-0.3,2.3-0.9c3.2-3.1,4.5-8.3,5.6-12.5
			c0.8-2.9,1.8-6.9,3-7.9c10.3-8.7,15.2-18.8,15.2-30.9c0-9.9-3.8-19.1-10.8-26.1C1818.1,595.4,1816.3,594,1814.3,592.6z
			 M1809.3,646.9c-3.5,3-4.8,7.9-6,12.7c-0.9,3.3-2.1,8.3-3.7,8.3H1788c-1.5,0-2.8-5-3.7-8.3c-1.2-4.8-2.5-9.8-6-12.7
			c-8.1-6.9-11.9-14.4-11.9-23.6c0-7.3,2.9-14.2,8-19.4c5.2-5.2,12.1-8,19.4-8c7.3,0,14.2,2.9,19.4,8c5.2,5.2,8,12.1,8,19.4
			C1821.2,632.5,1817.4,640,1809.3,646.9z"/>
		<path class="st0" d="M1781.1,684.7c0,4,2,9.9,5.6,9.9c3.6,0,10.1,0,14.2,0c4,0,5.5-5.6,5.6-9.5c0-0.1,0-0.2,0-0.3h0c0,0,0,0,0,0
			H1781.1L1781.1,684.7z"/>
		<g>
			<path class="st0" d="M1793.8,554.1c-2.6,0-4.8,2.1-4.8,4.8l1.2,14c0,1.9,1.6,3.5,3.6,3.5s3.5-1.6,3.6-3.5l1.2-13.9l0-0.1
				C1798.5,556.3,1796.4,554.1,1793.8,554.1z"/>
			<path class="st0" d="M1750.2,571.9L1750.2,571.9c-0.3-0.3-0.5-0.4-0.6-0.5c-0.2-0.1-0.4-0.3-0.6-0.4c-0.4-0.2-0.7-0.4-1.1-0.5
				c-0.2,0-0.3-0.1-0.5-0.1c-0.4-0.1-0.9-0.1-1.3,0c-0.2,0-0.3,0.1-0.5,0.1c-0.4,0.1-0.8,0.3-1.1,0.5c-0.2,0.1-0.4,0.2-0.5,0.4
				c-0.1,0.1-0.3,0.2-0.5,0.4c-1.9,1.9-1.9,4.9,0,6.7l10.7,9c0.7,0.6,1.5,1,2.5,1c0,0,0,0,0,0c1,0,1.9-0.4,2.5-1
				c0.7-0.7,1-1.6,1-2.5c0-0.9-0.4-1.8-1-2.5L1750.2,571.9z"/>
			<path class="st0" d="M1741.8,613.8l-13.4-3.6l-0.1,0c-1.3-0.2-2.5,0.1-3.6,0.8c-1,0.7-1.7,1.8-2,3.1c-0.2,1.3,0.1,2.5,0.8,3.6
				c0.7,1,1.8,1.7,3.1,2l14,1.2c0.2,0,0.4,0,0.6,0c1.7,0,3.2-1.2,3.5-3C1744.9,616,1743.7,614.2,1741.8,613.8z"/>
			<path class="st0" d="M1844.7,578.5c0.9-0.9,1.4-2.1,1.4-3.4c0-1.3-0.5-2.5-1.4-3.4c-0.2-0.2-0.4-0.3-0.5-0.4
				c-0.2-0.1-0.3-0.2-0.5-0.3c-0.4-0.2-0.8-0.4-1.1-0.5c-0.2,0-0.3-0.1-0.5-0.1c-0.4-0.1-0.9-0.1-1.3,0c-0.2,0-0.4,0.1-0.5,0.1
				c-0.4,0.1-0.8,0.3-1.2,0.5c-0.2,0.1-0.4,0.2-0.5,0.4c-0.1,0.1-0.3,0.2-0.5,0.4l-9,10.7c-1.3,1.4-1.3,3.6,0,5c0.7,0.7,1.6,1,2.5,1
				c0.9,0,1.8-0.4,2.5-1L1844.7,578.5L1844.7,578.5z"/>
			<path class="st0" d="M1864.8,614c-0.2-1.3-0.9-2.3-2-3.1c-1-0.7-2.3-1-3.6-0.8l-13.6,3.6c-1.9,0.4-3.2,2.2-2.8,4.1
				c0.3,1.7,1.8,3,3.5,3c0.2,0,0.4,0,0.6,0l13.8-1.2l0.1,0c1.3-0.2,2.3-0.9,3.1-2C1864.7,616.6,1865,615.3,1864.8,614z"/>
		</g>
		<path class="st0" d="M1807.1,680.8c0,0.8-0.6,1.4-1.4,1.4h-23.9c-0.8,0-1.4-0.6-1.4-1.4v-1.4c0-0.8,0.6-1.4,1.4-1.4h23.9
			c0.8,0,1.4,0.6,1.4,1.4V680.8z"/>
	</g>
	<rect x="1693.8" y="524.4" class="st1" width="200" height="200"/>
</g>
<g>
	<g>
		<rect x="2371" y="605.4" class="st0" width="36.4" height="36.4"/>
		<g>
			<path class="st0" d="M2277.9,641.8h-47.1l23.5-40.8L2277.9,641.8z"/>
		</g>
		<path class="st0" d="M2397.1,646.8h-17.6c-4.3,0-8,3.1-8.6,7.4l-3.8,18.4l-18.4-27.1c-1.9-3.6-6-5.3-9.8-4.4
			c9.6-6.1,16-16.8,16-29c0-18.9-15.3-34.2-34.2-34.2c-18.9,0-34.2,15.3-34.2,34.2c0,12.2,6.4,23,16.1,29c-3.8-1-8,0.7-9.9,4.3
			l-18.4,27.1l-3.8-18.4c-0.7-4.3-4.3-7.4-8.6-7.4h-17.6c-4.8,0-8.7,3.9-8.7,8.7s3.9,8.7,8.7,8.7h10.1l8.8,26.6
			c0.6,3.7,3.5,6.7,7.2,7.3c0.5,0.1,1,0.1,1.5,0.1c3.2,0,5.2-1.7,7.7-4.6l15.2-16.5l-2.3,28.3h56.6l-2.3-28.2l15.1,16.3
			c2.8,2.8,4.5,4.6,7.7,4.6c0.5,0,1,0,1.5-0.1c3.7-0.6,6.6-3.6,7.2-7.3l8.8-26.6h10.1c4.8,0,8.7-3.9,8.7-8.7
			S2401.9,646.8,2397.1,646.8z M2319.6,657.4c-3.4,0-6-2.4-6-6c0-3.6,2.6-6,6-6c3.3,0,6,2.4,6,6
			C2325.5,655,2322.9,657.4,2319.6,657.4z M2331.7,624c-4.7,3.2-7.6,4.8-7.6,9.7v1.5c0,2.5-1.7,3.8-4.5,3.8c-2.8,0-4.6-1.3-4.6-3.8
			v-1.6c0-4.4,0.9-6.9,2.8-9.4c1.5-1.9,2.2-2.5,6.8-5.5c4.5-3.1,6-4.7,6-8c0-4.6-3.6-7.3-9.3-7.3c-5.5,0-8.4,2.7-10,7.1
			c-0.9,2.2-2.3,3-4.1,3c-0.7,0-1.4-0.1-2.2-0.4c-1.9-0.5-3.6-1.7-3.6-3.9c0-0.4,0.1-1,0.3-1.6c1.2-3.3,3.1-6.2,5.8-8.4
			c3.5-2.7,8-4.3,14.4-4.3c11.5,0,18.8,5.9,18.8,15.1C2340.7,617.2,2336.7,620.5,2331.7,624z"/>
	</g>
	<rect x="2219.1" y="541.7" class="st1" width="200" height="200"/>
</g>
<g>
	<g>
		<path class="st0" d="M2860.8,619.4c6.7-7.9,11-14.8,12.9-20.5c2.5-7.8,0.1-12.5-2.4-15l-0.2-0.2c-2.3-2.2-5.3-3.4-8.8-3.4
			c-1.9,0-4,0.4-6.2,1.1c-5.7,1.8-12.6,6.2-20.5,12.9c-5.5,4.6-10.7,9.9-15.6,15.5c-0.5,0.6-13.8,16.1-25.4,29.6
			c0.6,0.8,5.3,7.3,9.5,11.5c3.8,3.8,9.8,8.3,11.4,9.5c13.8-11.8,29.8-25.4,29.8-25.4C2851,630.1,2856.2,624.9,2860.8,619.4z"/>
		<path class="st0" d="M2799,656.3c-3.8-3.8-7.7-9-9.1-10.9c-6,7-11.6,13.4-12.1,13.9c-2.7,2.9,0,6.5,0.9,7.7c1.1,1.5,2.7,3.2,4.4,5
			c1.8,1.8,3.5,3.3,5,4.4c1,0.7,2.8,2.1,4.8,2.1c1.1,0,2.1-0.4,2.9-1.1c0.4-0.4,6.9-6.1,14-12.1
			C2803.6,660.8,2803.5,660.8,2799,656.3C2799,656.2,2799,656.3,2799,656.3z"/>
		<path class="st1" d="M2765.5,697.8c2.3-2.3,2.3-5.9,0-8.2c-2.3-2.3-5.9-2.3-8.2,0c-1.9,1.9-2.2,4.8-0.9,7l-16.1,16.8l1.4,1.4
			l16.8-16.1C2760.7,700,2763.6,699.7,2765.5,697.8z"/>
		<path class="st0" d="M2756.4,696.6c-1.3-2.2-1-5.1,0.9-7c2.3-2.3,5.9-2.3,8.2,0c2.3,2.3,2.3,5.9,0,8.2c-1.9,1.9-4.8,2.2-7,0.9
			l-16.8,16.1l1.7,1.7c6.5-2.9,16.5-6.5,26.9-6.6c3.2-7.2,7.9-16,15.8-24.8c0.9-1,1.9-2.1,2.9-3.1c0,0,0,0,0,0c0,0,0,0,0,0
			c-0.8-0.5-1.6-0.8-2.1-1.2c-1.9-1.5-4.5-3.3-6.9-5.7c-2.4-2.4-4.2-5-5.7-6.9c-0.3-0.4-0.6-1.1-1-1.8c0-0.1-0.1-0.1-0.1-0.2
			c0,0,0,0,0,0c0,0,0,0,0,0c-9.8,9.6-19.8,15.1-27.9,18.7c-0.4,10.1-3.9,20.2-6.8,26.8l1.8,1.8L2756.4,696.6z"/>
	</g>
	<rect x="2706.7" y="548.4" class="st1" width="200" height="200"/>
</g>
<g>
	<g>
		<path class="st0" d="M1825.3,938.7h-20.8v-9.2h14l-7.1-18.2h-86.1l-7.1,18.2h15.7v9.2h-22.4c-1.5,0-2.9-0.8-3.8-2
			c-0.9-1.3-1-2.9-0.5-4.3l10.7-27.5c0.7-1.8,2.4-2.9,4.3-2.9h92.4c1.9,0,3.6,1.2,4.3,2.9l10.7,27.5c0.6,1.4,0.4,3-0.5,4.3
			C1828.2,938,1826.8,938.7,1825.3,938.7z"/>
		<path class="st0" d="M1806.6,964.8H1730v-46.9h76.5V964.8z M1735.7,959.1h65.2v-35.6h-65.2V959.1z"/>
		<path class="st0" d="M1825.3,1057.2h-113.9c-2.5,0-4.6-2.1-4.6-4.6V936.1c0-2,1.3-3.8,3.3-4.4c1.9-0.6,4,0.2,5.2,1.8l16.1,24h74.1
			l16.1-24c1.1-1.7,3.2-2.4,5.2-1.8c1.9,0.6,3.3,2.4,3.3,4.4v116.6C1829.9,1055.2,1827.8,1057.2,1825.3,1057.2z M1716,1048h104.7
			v-96.8l-9,13.5c-0.9,1.3-2.3,2-3.8,2h-79c-1.5,0-3-0.8-3.8-2l-9-13.5V1048z"/>
		<g>
			<path class="st0" d="M1733.5,1021.2l-3.5,8.7h-13.8l19.2-50h14.2l18.8,50h-13.9l-3.3-8.7H1733.5z M1742.6,995.3h-0.1l-5.4,15.9
				h10.8L1742.6,995.3z"/>
			<path class="st0" d="M1820.1,1003.9c0,16.2-11.6,27.6-27.7,27.6c-16.1,0-27.7-11.4-27.7-27.6c0-15.1,13.3-25.7,27.7-25.7
				S1820.1,988.8,1820.1,1003.9z M1778.3,1004c0,8.6,6.4,14.9,14.1,14.9c7.8,0,14.1-6.3,14.1-14.9c0-6.9-6.4-13.2-14.1-13.2
				C1784.7,990.8,1778.3,997.1,1778.3,1004z"/>
		</g>
		<g>
			<rect x="1743.1" y="930.1" class="st0" width="51" height="4.3"/>
			<rect x="1743.1" y="938.9" class="st0" width="51" height="4.3"/>
			<rect x="1743.1" y="947.7" class="st0" width="51" height="4.3"/>
		</g>
	</g>
	<rect x="1668.3" y="879.6" class="st1" width="200" height="200"/>
</g>
<g>
	<g>
		<rect x="2104.9" y="871.6" class="st1" width="200" height="200"/>
		<g>
			<path class="st0" d="M2204,997.4c-4.2-1.4-6.6,2.9-6.9,3.6c-0.2,0.7-5.1,11.5-5.1,11.5l-9.1-12.2c-1.2-2.3-4.1-3.9-7.1-3.9
				l-2.3-0.1c6-2.7,10.2-8.7,10.2-15.7c0-9.5-7.7-17.2-17.2-17.2c-9.5,0-17.2,7.7-17.2,17.2c0,6.6,3.7,12.4,9.2,15.2l-2.5-0.1
				c0,0-30.2-24.2-31-24.7c-0.8-0.5-4.1-2.1-6.6,0.8c-2.1,2.5-0.8,6.5,0.9,7.8c0.8,0.6,32.1,31.3,32.1,31.3l-2.6,19.7h15.8h1.5h15.8
				l-1.2-12.5l8.2,6.2c2.1,2.1,4.9,2.1,6.3,1.7c1.9-0.6,2.8-2.1,4.1-5.2c0,0,7.6-16.1,8-17.1C2207.6,1002.6,2208,998.7,2204,997.4z"
				/>
			<path class="st0" d="M2272.1,912.5h-61.8c-11.9,0-21.6,9.7-21.6,21.6v24.7c0,6.5,2.9,12.4,7.6,16.4l-5.2,15.1l17.8-9.9
				c0.5,0,1,0.1,1.4,0.1h61.8c11.9,0,21.6-9.7,21.6-21.6v-24.7C2293.7,922.2,2284,912.5,2272.1,912.5z"/>
			<g>
				<path class="st0" d="M2232.2,1023.7c-1.3,0-2.4-0.9-2.7-2.1c-3.2-12.7-9.6-12.9-9.9-12.9c-1.5,0.1-2.7-1.1-2.8-2.6
					c-0.1-1.5,1-2.8,2.5-3c6.1-0.6,8.5-6.2,10-11.6c0.1-0.4,0.2-0.8,0.3-1.1c0.4-1.1,1.4-1.9,2.6-1.9c1.2,0,2.3,0.7,2.7,1.8
					c0.2,0.6,0.4,1.4,0.6,2.3c0.9,3.6,2.3,9.1,7.5,10.7c1.1,0.4,1.9,1.4,1.9,2.6c0,1.2-0.7,2.3-1.8,2.7c-6.5,2.3-8.1,12.5-8.1,12.6
					c-0.2,1.3-1.3,2.3-2.6,2.4C2232.3,1023.7,2232.2,1023.7,2232.2,1023.7z M2226.9,1006.1c1.7,1.4,3.5,3.4,5.1,6.4
					c1.1-2.2,2.5-4.4,4.5-6.2c-2.2-1.8-3.6-4-4.6-6.2C2230.8,1002.2,2229.2,1004.4,2226.9,1006.1z"/>
			</g>
			<g>
				<path class="st0" d="M2137,967c-1.4,0-2.6-0.9-2.9-2.3c-4.7-18.8-14.5-18.9-14.9-18.9c-1.6,0.1-3-1.2-3.1-2.8
					c-0.1-1.6,1.1-3,2.7-3.2c10.4-1,13.6-12.3,14.9-17.1c0.2-0.6,0.3-1.1,0.4-1.5c0.4-1.2,1.5-2.1,2.8-2.1c0,0,0,0,0.1,0
					c1.3,0,2.4,0.8,2.8,2c0.3,0.8,0.6,1.9,0.9,3.1c1.3,5.3,3.4,13.4,11.2,15.9c1.2,0.4,2.1,1.5,2.1,2.8c0,1.3-0.8,2.5-2,2.9
					c-9.8,3.4-12,18.4-12,18.6c-0.2,1.4-1.4,2.5-2.8,2.6C2137.1,967,2137.1,967,2137,967z M2128,942.9c3,2.1,6.2,5.5,8.8,11.2
					c1.6-3.8,4.1-8,7.9-11c-4.1-2.9-6.4-7.1-7.9-11C2135,936,2132.3,940.2,2128,942.9z"/>
			</g>
		</g>
	</g>
	<rect x="2104.9" y="871.6" class="st1" width="200" height="200"/>
</g>
<g>
	<g>
		<path class="st2" d="M507.5,1755h-47.6c-1.6,0-2.8-1.3-2.8-2.8v-40.3c0-1.6-1.3-2.8-2.8-2.8h-70.4c-1.6,0-2.8,1.3-2.8,2.8v40.3
			c0,1.6-1.3,2.8-2.8,2.8h-47.6c-1.6,0-2.8,1.3-2.8,2.8v85.9c0,1.6,1.3,2.8,2.8,2.8h58.5c1.6,0,2.8-1.3,2.8-2.8v-28.5
			c0-1.6,1.3-2.8,2.8-2.8h49.2c1.6,0,2.8,1.3,2.8,2.8v28.5c0,1.6,1.3,2.8,2.8,2.8h58c1.6,0,2.8-1.3,2.8-2.8v-85.9
			C510.4,1756.2,509.1,1755,507.5,1755z M355.8,1825.7h-14.2v-20.2h14.2V1825.7z M355.8,1791h-14.2v-20.2h14.2V1791z M374.4,1825.7
			h-14.2v-20.2h14.2V1825.7z M374.4,1791h-14.2v-20.2h14.2V1791z M416.8,1791h-14.2v-20.2h14.2V1791z M435.5,1791h-14.2v-20.2h14.2
			V1791z M419.1,1760.6c-12.1,0-22-9.9-22-22c0-12.1,9.9-22,22-22c12.1,0,22,9.9,22,22C441,1750.8,431.2,1760.6,419.1,1760.6z
			 M478.6,1825.7h-14.2v-20.2h14.2V1825.7z M478.6,1791h-14.2v-20.2h14.2V1791z M497.3,1825.7h-14.2v-20.2h14.2V1825.7z M497.3,1791
			h-14.2v-20.2h14.2V1791z"/>
		<polygon class="st2" points="418.8,1745.2 404.2,1735.3 407.8,1730 418.2,1737 431.3,1725.4 435.6,1730.3 		"/>
	</g>
	<rect x="319.1" y="1677.7" class="st1" width="200" height="200"/>
</g>
<g>
	<g>
		<path class="st1" d="M-582.3,1010.4c0.3,1.2,0.6,2.5,0.8,3.7C-581.7,1012.9-581.9,1011.6-582.3,1010.4z"/>
		<path class="st1" d="M-585.3,1003.3c0.7,1.1,1.2,2.3,1.8,3.5C-584.1,1005.6-584.6,1004.5-585.3,1003.3z"/>
		<path class="st1" d="M-683,1006.8c0.5-1.2,1.1-2.3,1.8-3.5C-681.9,1004.5-682.5,1005.6-683,1006.8z"/>
		<path class="st1" d="M-581.4,1014.9c0-0.2,0-0.5-0.1-0.7C-581.4,1014.4-581.4,1014.7-581.4,1014.9L-581.4,1014.9z"/>
		<polygon class="st1" points="-679,1061.8 -659.1,1050.8 -659.1,1050.8 		"/>
		<path class="st1" d="M-591.6,995.4c-9.5-9.2-24.7-15.2-41.7-15.2s-32.2,6-41.7,15.2c9.5-9.2,24.7-15.2,41.7-15.2
			S-601,986.2-591.6,995.4z"/>
		<path class="st1" d="M-685.4,1018c0-1.3,0.1-2.6,0.3-3.9C-685.3,1015.4-685.4,1016.7-685.4,1018z"/>
		<path class="st1" d="M-591.6,995.4c2,1.9,3.7,4,5.2,6.2C-587.8,999.5-589.6,997.4-591.6,995.4z"/>
		<path class="st1" d="M-685.1,1014.2c0.2-1.3,0.4-2.5,0.8-3.7C-684.6,1011.6-684.9,1012.9-685.1,1014.2z"/>
		<path class="st1" d="M-680.2,1001.7c1.5-2.2,3.2-4.3,5.2-6.2C-677,997.4-678.8,999.5-680.2,1001.7z"/>
		<path d="M-581.2,1018c0-1-0.1-2.1-0.2-3.1l0,0C-581.3,1015.9-581.2,1017-581.2,1018z"/>
		<path class="st2" d="M-509.6,1061.3v-22.5c0-13.2-10.7-23.9-23.9-23.9h-39.4c0.1,1,0.1,2.1,0.1,3.1c0,1.8-0.1,3.6-0.4,5.4h39.6
			c8.5,0,15.4,6.9,15.4,15.4v22.5c0,5.5-3,10.6-7.8,13.4l-3,1.7l3,9.7l-15.5-9.4h-48.3c-8.5,0-15.4-6.9-15.4-15.4v-2.3
			c-2.7,1.1-5.6,2-8.5,2.8c0.3,12.9,10.9,23.4,23.9,23.4h45.9l32.5,19.7l-7.6-24.7C-513,1075.6-509.6,1068.7-509.6,1061.3z"/>
		<path class="st2" d="M-672.4,1042.9c-1-0.8-2-1.7-2.9-2.6C-674.4,1041.2-673.4,1042.1-672.4,1042.9z"/>
		<path class="st2" d="M-675.3,1040.3c-1.8-1.8-3.4-3.7-4.8-5.7C-678.7,1036.6-677.1,1038.5-675.3,1040.3z"/>
		<path class="st2" d="M-643.6,1055c-2.2-0.3-4.4-0.8-6.5-1.3C-648,1054.3-645.8,1054.7-643.6,1055z"/>
		<path class="st2" d="M-681,1033.1c-1.2-2.1-2.2-4.2-3-6.4C-683.3,1028.9-682.3,1031.1-681,1033.1z"/>
		<path class="st2" d="M-659.1,1050.8c2.9,1.2,5.9,2.2,9,3C-653.2,1053-656.3,1052-659.1,1050.8L-659.1,1050.8z"/>
		<path class="st2" d="M-581.4,1014.9c0-0.2,0-0.5-0.1-0.7c-0.2-1.3-0.4-2.5-0.8-3.7c-0.3-1.2-0.8-2.4-1.3-3.6
			c-0.5-1.2-1.1-2.3-1.8-3.5c-0.3-0.6-0.7-1.1-1-1.7c-1.5-2.2-3.2-4.3-5.2-6.2c-9.5-9.2-24.7-15.2-41.7-15.2s-32.2,6-41.7,15.2
			c-2,1.9-3.7,4-5.2,6.2c-0.4,0.5-0.7,1.1-1,1.7c-0.7,1.1-1.2,2.3-1.8,3.5c-0.5,1.2-0.9,2.4-1.3,3.6c-0.3,1.2-0.6,2.5-0.8,3.7
			c-0.2,1.3-0.3,2.6-0.3,3.9c0,3,0.5,5.9,1.4,8.7c0.7,2.2,1.7,4.4,3,6.4c0.3,0.5,0.6,1,1,1.5c1.4,2,3,3.9,4.8,5.7
			c0.9,0.9,1.9,1.8,2.9,2.6l-6.6,18.9l19.8-11c2.9,1.2,5.9,2.2,9,3c2.1,0.5,4.3,0.9,6.5,1.3c3.3,0.5,6.8,0.7,10.3,0.7
			c7,0,13.6-1,19.7-2.8c3-0.9,5.8-2,8.5-3.2c12.4-5.8,21.2-15.3,23.3-26.3c0.3-1.8,0.5-3.6,0.5-5.4
			C-581.2,1017-581.3,1015.9-581.4,1014.9z M-664.8,1025.1c-3.1,0-5.7-2.5-5.7-5.7c0-3.1,2.5-5.7,5.7-5.7s5.7,2.5,5.7,5.7
			C-659.2,1022.6-661.7,1025.1-664.8,1025.1z M-643.7,1025.1c-3.1,0-5.7-2.5-5.7-5.7c0-3.1,2.5-5.7,5.7-5.7s5.7,2.5,5.7,5.7
			C-638,1022.6-640.6,1025.1-643.7,1025.1z M-622.6,1025.1c-3.1,0-5.7-2.5-5.7-5.7c0-3.1,2.5-5.7,5.7-5.7s5.7,2.5,5.7,5.7
			C-616.9,1022.6-619.5,1025.1-622.6,1025.1z M-601.5,1025.1c-3.1,0-5.7-2.5-5.7-5.7c0-3.1,2.5-5.7,5.7-5.7c3.1,0,5.7,2.5,5.7,5.7
			C-595.8,1022.6-598.3,1025.1-601.5,1025.1z"/>
		<g>
			<circle class="st2" cx="-557.8" cy="1049.1" r="5.7"/>
			<circle class="st2" cx="-578.9" cy="1049.1" r="5.7"/>
			<circle class="st2" cx="-536.7" cy="1049.1" r="5.7"/>
		</g>
	</g>
	<rect x="-697.5" y="942.6" class="st1" width="200" height="200"/>
</g>
<g>
	<g>
		<path class="st2" d="M-251.3,1105.4h-87.5c-2.3,0-4.3-1.9-4.3-4.3V984.9c0-2.3,1.9-4.3,4.3-4.3h104.9c2.3,0,4.3,1.9,4.3,4.3v96.9
			c0,1.1-0.4,2.1-1.1,2.8l-17.4,19.3C-249,1104.9-250.1,1105.4-251.3,1105.4z M-334.6,1096.9h81.3l15.1-16.7v-91h-96.4V1096.9z"/>
		<path class="st2" d="M-259.5,1094.6c-1.6,0-2.8-1.3-2.8-2.8v-16.1c0-1.6,1.3-2.8,2.8-2.8h15.6c1.6,0,2.8,1.3,2.8,2.8
			s-1.3,2.8-2.8,2.8h-12.7v13.2C-256.7,1093.3-257.9,1094.6-259.5,1094.6z"/>
		<g>
			<rect x="-320.4" y="1002.8" class="st2" width="68" height="5.7"/>
			<rect x="-320.4" y="1019.4" class="st2" width="68" height="5.7"/>
			<rect x="-320.4" y="1036" class="st2" width="68" height="5.7"/>
			<rect x="-320.4" y="1052.6" class="st2" width="68" height="5.7"/>
		</g>
	</g>
	<rect x="-386.4" y="943" class="st1" width="200" height="200"/>
</g>
<g>
	<g>
		<path class="st2" d="M4.5,1006c0.8,17.7,17.7,47.7,23.7,58.1c6,10.4,23.6,40,38.5,49.6c3.6,2.4,9.6,3.1,14.7,2
			c5-1,13.4-4.7,15.1-7.6c1.7-2.9,1.9-5.2,1.5-6.5c-0.7-2.6-3.2-7.4-6.7-12.2c-4-5.6-9.5-10.6-11.7-11.2c-2.2-0.6-4,0.8-5.3,1.9
			c-1.2,1.1-7.5,6.6-10.7,5.4c-3.3-1.1-17.6-21.6-22-29.2c-4.4-7.6-14.9-30.2-14.3-33.6c0.7-3.4,8.5-6,10.1-6.6
			c1.6-0.5,3.7-1.4,4.3-3.6c0.6-2.2-1-9.5-3.8-15.8c-2.5-5.4-5.4-10-7.3-11.9c-1-1-3-2-6.4-1.9c-3.3,0.1-10.7,5.4-14.1,9.3
			C6.7,996.1,4.3,1001.7,4.5,1006z"/>
	</g>
	<rect x="-48.6" y="949.6" class="st1" width="200" height="200"/>
</g>
<g>
	<g>
		<path class="st2" d="M573.8,979.6c-3.4-0.9-6.9,1.1-7.8,4.5l-4.8,21.3c-3.2,3.5-6.8,6.9-9.8,9.6H545c6.8-2.7,11.5-9.4,11.5-17.1
			c0-10.2-8.3-18.5-18.5-18.5c-10.2,0-18.5,8.3-18.5,18.5c0,7.7,4.8,14.4,11.5,17.1h-8.4c-2.3-0.1-4.6,1.1-5.8,3.3l-11.6,20.9
			c-0.4,0.7-0.7,1.5-0.8,2.3l-1,18.1c-0.4,3.5,0.8,6.7,4.3,7.1c0.3,0,0.5,0,0.8,0c3.2,0,5.3-2.4,5.7-5.6l2.8-16.9l3.5-5l-1.9,24.6
			l-4.8,12.8c-0.7,1.9-0.5,4,0.6,5.7l8.6,13.5c1.2,1.9,3.3,2.9,5.4,2.9c1.2,0,2.4-0.3,3.4-1c3-1.9,3.8-5.8,2-8.8l-5.9-9.2l10.3-13.2
			l5.9,34c0,3.5,2.8,6.4,6.4,6.4c3.5,0,6.4-2.8,6.4-6.4l1-34.4c0-0.2,0-0.4,0-0.7l-1.6-31.7c4.2-5.6,14.2-19.1,16.2-21.8
			c1.3-1.3,4.7-24.6,4.7-24.6C578,984.1,577.2,980.6,573.8,979.6z"/>
		<path class="st2" d="M498.9,1059.1l-2.2-15.8c-0.1-0.8-0.3-1.5-0.7-2.2l-12.1-17.9c-1.1-2-3.2-3.1-5.4-3h-6.6
			c6-2.5,10.2-8.4,10.2-15.3c0-9.1-7.4-16.6-16.6-16.6c-9.1,0-16.5,7.4-16.5,16.6c0,6.9,4.2,12.8,10.2,15.3h-4.8
			c-2.8-2.5-6.2-5.7-9.1-9l-4.5-19.8c-0.9-3.2-4.1-5-7.3-4.2c-3.2,0.8-3.8,4.1-3,7.3c0,0,3.2,21.7,4.4,22.9
			c2.3,3.1,15.9,21.4,16.8,22.5c0.1,0.1,0.2,0.1,0.2,0.2l-1.1,14.2l-7.1,26.2l7.7-0.6l0.6,21.2c0,3.3,2.7,5.9,5.9,5.9
			c3.3,0,5-2.7,5-5.9l2.1-22.2l2.5-0.2l-1.4,5.8c-0.7,1.7-0.5,3.7,0.5,5.3l8,12.6c1.1,1.8,3,2.7,5,2.7c1.1,0,1.4-0.3,2.4-0.9
			c2.8-1.8,2.3-5.4,0.5-8.2l-4.7-8.6l4.3-9.8l7.9-0.6l-8.5-19.1l-1.5-19.2l4.8,7.2l3.9,14.7c0.4,3,2.3,5.2,5.3,5.2
			c0.2,0,0.5,0,0.7,0C498.2,1065.3,499.3,1062.3,498.9,1059.1z"/>
	</g>
	<rect x="403.8" y="943.2" class="st1" width="200" height="200"/>
</g>
<g>
	<g>
		<path class="st2" d="M-456.4,1389c-0.1,0-0.1-0.1-0.2-0.1c-0.9-0.6-1.8-1.1-2.7-1.6c-0.2-0.1-0.3-0.2-0.5-0.3
			c-0.9-0.5-1.8-0.9-2.8-1.3c-0.2-0.1-0.4-0.2-0.6-0.2c-1-0.4-1.9-0.7-3-1.1c-0.1,0-0.2-0.1-0.3-0.1c-4-1.2-8.2-1.7-12.5-1.5
			c-0.3,0-0.7,0-1,0.1c-0.6,0-1.2,0-1.8,0.1c-6.5,0.8-12.7,3.4-17.9,7.5c-9.1,7.2-14.2,17.7-14.2,29.1c0,12.1,5,22.2,15.2,30.9
			c1.2,1,2.3,5,3,7.9c1.1,4.2,2.4,9.3,5.6,12.5c0.6,0.6,1.5,0.9,2.3,0.9h21.4c0.9,0,1.7-0.3,2.3-0.9c3.2-3.1,4.5-8.3,5.6-12.5
			c0.8-2.9,1.8-6.9,3-7.9c10.3-8.7,15.2-18.8,15.2-30.9c0-9.9-3.8-19.1-10.8-26.1C-452.6,1391.8-454.5,1390.4-456.4,1389z
			 M-461.4,1443.3c-3.5,3-4.8,7.9-6,12.7c-0.9,3.3-2.1,8.3-3.7,8.3h-11.6c-1.5,0-2.8-5-3.7-8.3c-1.2-4.8-2.5-9.8-6-12.7
			c-8.1-6.9-11.9-14.4-11.9-23.6c0-7.3,2.9-14.2,8-19.4c5.2-5.2,12.1-8,19.4-8c7.3,0,14.2,2.9,19.4,8c5.2,5.2,8,12.1,8,19.4
			C-449.6,1428.9-453.3,1436.4-461.4,1443.3z"/>
		<path class="st2" d="M-489.7,1481.1c0,4,2,9.9,5.6,9.9s10.1,0,14.2,0c4,0,5.5-5.6,5.6-9.5c0-0.1,0-0.2,0-0.3h0c0,0,0,0,0,0
			L-489.7,1481.1L-489.7,1481.1z"/>
		<g>
			<path class="st2" d="M-477,1350.5c-2.6,0-4.8,2.1-4.8,4.8l1.2,14c0,1.9,1.6,3.5,3.6,3.5s3.5-1.6,3.6-3.5l1.2-13.9l0-0.1
				C-472.2,1352.7-474.4,1350.5-477,1350.5z"/>
			<path class="st2" d="M-520.6,1368.3L-520.6,1368.3c-0.3-0.3-0.5-0.4-0.6-0.5c-0.2-0.1-0.4-0.3-0.6-0.4c-0.4-0.2-0.7-0.4-1.1-0.5
				c-0.2,0-0.3-0.1-0.5-0.1c-0.4-0.1-0.9-0.1-1.3,0c-0.2,0-0.3,0.1-0.5,0.1c-0.4,0.1-0.8,0.3-1.1,0.5c-0.2,0.1-0.4,0.2-0.5,0.4
				c-0.1,0.1-0.3,0.2-0.5,0.4c-1.9,1.9-1.9,4.9,0,6.7l10.7,9c0.7,0.6,1.5,1,2.5,1c0,0,0,0,0,0c1,0,1.9-0.4,2.5-1
				c0.7-0.7,1-1.6,1-2.5c0-0.9-0.4-1.8-1-2.5L-520.6,1368.3z"/>
			<path class="st2" d="M-529,1410.2l-13.4-3.6l-0.1,0c-1.3-0.2-2.5,0.1-3.6,0.8c-1,0.7-1.7,1.8-2,3.1c-0.2,1.3,0.1,2.5,0.8,3.6
				c0.7,1,1.8,1.7,3.1,2l14,1.2c0.2,0,0.4,0,0.6,0c1.7,0,3.2-1.2,3.5-3C-525.8,1412.4-527.1,1410.5-529,1410.2z"/>
			<path class="st2" d="M-426.1,1374.9c0.9-0.9,1.4-2.1,1.4-3.4c0-1.3-0.5-2.5-1.4-3.4c-0.2-0.2-0.4-0.3-0.5-0.4
				c-0.2-0.1-0.3-0.2-0.5-0.3c-0.4-0.2-0.8-0.4-1.1-0.5c-0.2,0-0.3-0.1-0.5-0.1c-0.4-0.1-0.9-0.1-1.3,0c-0.2,0-0.4,0.1-0.5,0.1
				c-0.4,0.1-0.8,0.3-1.2,0.5c-0.2,0.1-0.4,0.2-0.5,0.4c-0.1,0.1-0.3,0.2-0.5,0.4l-9,10.7c-1.3,1.4-1.3,3.6,0,5c0.7,0.7,1.6,1,2.5,1
				c0.9,0,1.8-0.4,2.5-1L-426.1,1374.9L-426.1,1374.9z"/>
			<path class="st2" d="M-405.9,1410.4c-0.2-1.3-0.9-2.3-2-3.1c-1-0.7-2.3-1-3.6-0.8l-13.6,3.6c-1.9,0.4-3.2,2.2-2.8,4.1
				c0.3,1.7,1.8,3,3.5,3c0.2,0,0.4,0,0.6,0l13.8-1.2l0.1,0c1.3-0.2,2.3-0.9,3.1-2C-406,1413-405.7,1411.7-405.9,1410.4z"/>
		</g>
		<path class="st2" d="M-463.6,1477.2c0,0.8-0.6,1.4-1.4,1.4H-489c-0.8,0-1.4-0.6-1.4-1.4v-1.4c0-0.8,0.6-1.4,1.4-1.4h23.9
			c0.8,0,1.4,0.6,1.4,1.4V1477.2z"/>
	</g>
	<rect x="-577" y="1320.8" class="st1" width="200" height="200"/>
</g>
<g>
	<g>
		<rect x="100.2" y="1401.8" class="st2" width="36.4" height="36.4"/>
		<g>
			<path class="st2" d="M7.1,1438.2H-40l23.5-40.8L7.1,1438.2z"/>
		</g>
		<path class="st2" d="M126.3,1443.2h-17.6c-4.3,0-8,3.1-8.6,7.4l-3.8,18.4l-18.4-27.1c-1.9-3.6-6-5.3-9.8-4.4
			c9.6-6.1,16-16.8,16-29c0-18.9-15.3-34.2-34.2-34.2c-18.9,0-34.2,15.3-34.2,34.2c0,12.2,6.4,23,16.1,29c-3.8-1-8,0.7-9.9,4.3
			l-18.4,27.1l-3.8-18.4c-0.7-4.3-4.3-7.4-8.6-7.4h-17.6c-4.8,0-8.7,3.9-8.7,8.7c0,4.8,3.9,8.7,8.7,8.7h10.1l8.8,26.6
			c0.6,3.7,3.5,6.7,7.2,7.3c0.5,0.1,1,0.1,1.5,0.1c3.2,0,5.2-1.7,7.7-4.6l15.2-16.5l-2.3,28.3h56.6l-2.3-28.2l15.1,16.3
			c2.8,2.8,4.5,4.6,7.7,4.6c0.5,0,1,0,1.5-0.1c3.7-0.6,6.6-3.6,7.2-7.3l8.8-26.6h10.1c4.8,0,8.7-3.9,8.7-8.7
			C135.1,1447.1,131.2,1443.2,126.3,1443.2z M48.8,1453.8c-3.4,0-6-2.4-6-6c0-3.6,2.6-6,6-6c3.3,0,6,2.4,6,6
			C54.8,1451.4,52.1,1453.8,48.8,1453.8z M61,1420.4c-4.7,3.2-7.6,4.8-7.6,9.7v1.5c0,2.5-1.7,3.8-4.5,3.8c-2.8,0-4.6-1.3-4.6-3.8
			v-1.6c0-4.4,0.9-6.9,2.8-9.4c1.5-1.9,2.2-2.5,6.8-5.5c4.5-3.1,6-4.7,6-8c0-4.6-3.6-7.3-9.3-7.3c-5.5,0-8.4,2.7-10,7.1
			c-0.9,2.2-2.3,3-4.1,3c-0.7,0-1.4-0.1-2.2-0.4c-1.9-0.5-3.6-1.7-3.6-3.9c0-0.4,0.1-1,0.3-1.6c1.2-3.3,3.1-6.2,5.8-8.4
			c3.5-2.7,8-4.3,14.4-4.3c11.5,0,18.8,5.9,18.8,15.1C70,1413.6,66,1416.9,61,1420.4z"/>
	</g>
	<rect x="-51.7" y="1338.1" class="st1" width="200" height="200"/>
</g>
<g>
	<g>
		<path class="st2" d="M590.1,1415.8c6.7-7.9,11-14.8,12.9-20.5c2.5-7.8,0.1-12.5-2.4-15l-0.2-0.2c-2.3-2.2-5.3-3.4-8.8-3.4
			c-1.9,0-4,0.4-6.2,1.1c-5.7,1.8-12.6,6.2-20.5,12.9c-5.5,4.6-10.7,9.9-15.6,15.5c-0.5,0.6-13.8,16.1-25.4,29.6
			c0.6,0.8,5.3,7.3,9.5,11.5c3.8,3.8,9.8,8.3,11.4,9.5c13.8-11.8,29.8-25.4,29.8-25.4C580.2,1426.5,585.5,1421.3,590.1,1415.8z"/>
		<path class="st2" d="M528.2,1452.6c-3.8-3.8-7.7-9-9.1-10.9c-6,7-11.6,13.4-12.1,13.9c-2.7,2.9,0,6.5,0.9,7.7
			c1.1,1.5,2.7,3.2,4.4,5c1.8,1.8,3.5,3.3,5,4.4c1,0.7,2.8,2.1,4.8,2.1c1.1,0,2.1-0.4,2.9-1.1c0.4-0.4,6.9-6.1,14-12.1
			C532.8,1457.2,532.8,1457.2,528.2,1452.6C528.2,1452.6,528.3,1452.7,528.2,1452.6z"/>
		<path class="st1" d="M494.8,1494.2c2.3-2.3,2.3-5.9,0-8.2c-2.3-2.3-5.9-2.3-8.2,0c-1.9,1.9-2.2,4.8-0.9,7l-16.1,16.8l1.4,1.4
			l16.8-16.1C490,1496.4,492.9,1496.1,494.8,1494.2z"/>
		<path class="st2" d="M485.7,1493c-1.3-2.2-1-5.1,0.9-7c2.3-2.3,5.9-2.3,8.2,0c2.3,2.3,2.3,5.9,0,8.2c-1.9,1.9-4.8,2.2-7,0.9
			l-16.8,16.1l1.7,1.7c6.5-2.9,16.5-6.5,26.9-6.6c3.2-7.2,7.9-16,15.8-24.8c0.9-1,1.9-2.1,2.9-3.1c0,0,0,0,0,0c0,0,0,0,0,0
			c-0.8-0.5-1.6-0.8-2.1-1.2c-1.9-1.5-4.5-3.3-6.9-5.7c-2.4-2.4-4.2-5-5.7-6.9c-0.3-0.4-0.6-1.1-1-1.8c0-0.1-0.1-0.1-0.1-0.2
			c0,0,0,0,0,0c0,0,0,0,0,0c-9.8,9.6-19.8,15.1-27.9,18.7c-0.4,10.1-3.9,20.2-6.8,26.8l1.8,1.8L485.7,1493z"/>
	</g>
	<rect x="435.9" y="1344.8" class="st1" width="200" height="200"/>
</g>
<g>
	<g>
		<path class="st2" d="M-445.5,1735.1h-20.8v-9.2h14l-7.1-18.2h-86.1l-7.1,18.2h15.7v9.2h-22.4c-1.5,0-2.9-0.8-3.8-2
			c-0.9-1.3-1-2.9-0.5-4.3l10.7-27.5c0.7-1.8,2.4-2.9,4.3-2.9h92.4c1.9,0,3.6,1.2,4.3,2.9l10.7,27.5c0.6,1.4,0.4,3-0.5,4.3
			C-442.5,1734.4-444,1735.1-445.5,1735.1z"/>
		<path class="st2" d="M-464.2,1761.2h-76.5v-46.9h76.5V1761.2z M-535,1755.5h65.2V1720H-535V1755.5z"/>
		<path class="st2" d="M-445.5,1853.6h-113.9c-2.5,0-4.6-2.1-4.6-4.6v-116.6c0-2,1.3-3.8,3.3-4.4c1.9-0.6,4,0.2,5.2,1.8l16.1,24
			h74.1l16.1-24c1.1-1.7,3.2-2.4,5.2-1.8c1.9,0.6,3.3,2.4,3.3,4.4V1849C-440.9,1851.6-442.9,1853.6-445.5,1853.6z M-554.8,1844.4
			h104.7v-96.8l-9,13.5c-0.9,1.3-2.3,2-3.8,2h-79c-1.5,0-3-0.8-3.8-2l-9-13.5V1844.4z"/>
		<g>
			<path class="st2" d="M-537.2,1817.6l-3.5,8.7h-13.8l19.2-50h14.2l18.8,50h-13.9l-3.3-8.7H-537.2z M-528.2,1791.7h-0.1l-5.4,15.9
				h10.8L-528.2,1791.7z"/>
			<path class="st2" d="M-450.6,1800.3c0,16.2-11.6,27.6-27.7,27.6c-16.1,0-27.7-11.4-27.7-27.6c0-15.1,13.3-25.7,27.7-25.7
				S-450.6,1785.2-450.6,1800.3z M-492.5,1800.4c0,8.6,6.4,14.9,14.1,14.9c7.8,0,14.1-6.3,14.1-14.9c0-6.9-6.4-13.2-14.1-13.2
				C-486.1,1787.2-492.5,1793.5-492.5,1800.4z"/>
		</g>
		<g>
			<rect x="-527.6" y="1726.5" class="st2" width="51" height="4.3"/>
			<rect x="-527.6" y="1735.3" class="st2" width="51" height="4.3"/>
			<rect x="-527.6" y="1744.1" class="st2" width="51" height="4.3"/>
		</g>
	</g>
	<rect x="-602.4" y="1676" class="st1" width="200" height="200"/>
</g>
<g>
	<g>
		<rect x="-165.8" y="1668" class="st1" width="200" height="200"/>
		<g>
			<path class="st2" d="M-66.7,1793.8c-4.2-1.4-6.6,2.9-6.9,3.6c-0.2,0.7-5.1,11.5-5.1,11.5l-9.1-12.2c-1.2-2.3-4.1-3.9-7.1-3.9
				l-2.3-0.1c6-2.7,10.2-8.7,10.2-15.7c0-9.5-7.7-17.2-17.2-17.2c-9.5,0-17.2,7.7-17.2,17.2c0,6.6,3.7,12.4,9.2,15.2l-2.5-0.1
				c0,0-30.2-24.2-31-24.7s-4.1-2.1-6.6,0.8c-2.1,2.5-0.8,6.5,0.9,7.8c0.8,0.6,32.1,31.3,32.1,31.3l-2.6,19.7h15.8h1.5h15.8
				l-1.2-12.5l8.2,6.2c2.1,2.1,4.9,2.1,6.3,1.7c1.9-0.6,2.8-2.1,4.1-5.2c0,0,7.6-16.1,8-17.1C-63.1,1799-62.7,1795.1-66.7,1793.8z"
				/>
			<path class="st2" d="M1.4,1708.9h-61.8c-11.9,0-21.6,9.7-21.6,21.6v24.7c0,6.5,2.9,12.4,7.6,16.4l-5.2,15.1l17.8-9.9
				c0.5,0,1,0.1,1.4,0.1H1.4c11.9,0,21.6-9.7,21.6-21.6v-24.7C23,1718.6,13.3,1708.9,1.4,1708.9z"/>
			<g>
				<path class="st2" d="M-38.6,1820.1c-1.3,0-2.4-0.9-2.7-2.1c-3.2-12.7-9.6-12.9-9.9-12.9c-1.5,0.1-2.7-1.1-2.8-2.6
					c-0.1-1.5,1-2.8,2.5-3c6.1-0.6,8.5-6.2,10-11.6c0.1-0.4,0.2-0.8,0.3-1.1c0.4-1.1,1.4-1.9,2.6-1.9c1.2,0,2.3,0.7,2.7,1.8
					c0.2,0.6,0.4,1.4,0.6,2.3c0.9,3.6,2.3,9.1,7.5,10.7c1.1,0.4,1.9,1.4,1.9,2.6c0,1.2-0.7,2.3-1.8,2.7c-6.5,2.3-8.1,12.5-8.1,12.6
					c-0.2,1.3-1.3,2.3-2.6,2.4C-38.5,1820.1-38.5,1820.1-38.6,1820.1z M-43.9,1802.5c1.7,1.4,3.5,3.4,5.1,6.4
					c1.1-2.2,2.5-4.4,4.5-6.2c-2.2-1.8-3.6-4-4.6-6.2C-40,1798.6-41.6,1800.8-43.9,1802.5z"/>
			</g>
			<g>
				<path class="st2" d="M-133.7,1763.4c-1.4,0-2.6-0.9-2.9-2.3c-4.7-18.8-14.5-18.9-14.9-18.9c-1.6,0.1-3-1.2-3.1-2.8
					s1.1-3,2.7-3.2c10.4-1,13.6-12.3,14.9-17.1c0.2-0.6,0.3-1.1,0.4-1.5c0.4-1.2,1.5-2.1,2.8-2.1c0,0,0,0,0.1,0c1.3,0,2.4,0.8,2.8,2
					c0.3,0.8,0.6,1.9,0.9,3.1c1.3,5.3,3.4,13.4,11.2,15.9c1.2,0.4,2.1,1.5,2.1,2.8s-0.8,2.5-2,2.9c-9.8,3.4-12,18.4-12,18.6
					c-0.2,1.4-1.4,2.5-2.8,2.6C-133.6,1763.4-133.6,1763.4-133.7,1763.4z M-142.8,1739.3c3,2.1,6.2,5.5,8.8,11.2
					c1.6-3.8,4.1-8,7.9-11c-4.1-2.9-6.4-7.1-7.9-11C-135.7,1732.4-138.5,1736.6-142.8,1739.3z"/>
			</g>
		</g>
	</g>
	<rect x="-165.8" y="1668" class="st1" width="200" height="200"/>
</g>
<g>
	<g>
		<path class="st0" d="M56.5,23.2H42.3c-0.5,0-0.9-0.4-0.9-0.9V10.2c0-0.5-0.4-0.9-0.9-0.9H19.4c-0.5,0-0.9,0.4-0.9,0.9v12.1
			c0,0.5-0.4,0.9-0.9,0.9H3.5c-0.5,0-0.9,0.4-0.9,0.9v25.8c0,0.5,0.4,0.9,0.9,0.9H21c0.5,0,0.9-0.4,0.9-0.9v-8.5
			c0-0.5,0.4-0.9,0.9-0.9h14.8c0.5,0,0.9,0.4,0.9,0.9v8.5c0,0.5,0.4,0.9,0.9,0.9h17.4c0.5,0,0.9-0.4,0.9-0.9V24
			C57.4,23.5,57,23.2,56.5,23.2z M11,44.4H6.8v-6.1H11V44.4z M11,34H6.8v-6.1H11V34z M16.6,44.4h-4.3v-6.1h4.3V44.4z M16.6,34h-4.3
			v-6.1h4.3V34z M29.3,34h-4.3v-6.1h4.3V34z M34.9,34h-4.3v-6.1h4.3V34z M30,24.9c-3.6,0-6.6-3-6.6-6.6c0-3.6,3-6.6,6.6-6.6
			c3.6,0,6.6,3,6.6,6.6C36.6,21.9,33.6,24.9,30,24.9z M47.9,44.4h-4.3v-6.1h4.3V44.4z M47.9,34h-4.3v-6.1h4.3V34z M53.5,44.4h-4.3
			v-6.1h4.3V44.4z M53.5,34h-4.3v-6.1h4.3V34z"/>
		<polygon class="st0" points="29.9,20.2 25.5,17.3 26.6,15.7 29.7,17.8 33.7,14.3 35,15.8 		"/>
	</g>
	<rect class="st1" width="60" height="60"/>
</g>
</svg>
