<?xml version="1.0" encoding="utf-8"?>
<!-- Generator: Adobe Illustrator 21.0.2, SVG Export Plug-In . SVG Version: 6.00 Build 0)  -->
<!DOCTYPE svg PUBLIC "-//W3C//DTD SVG 1.1//EN" "http://www.w3.org/Graphics/SVG/1.1/DTD/svg11.dtd">
<svg version="1.1" id="レイヤー_1" xmlns="http://www.w3.org/2000/svg" xmlns:xlink="http://www.w3.org/1999/xlink" x="0px"
	 y="0px" viewBox="0 0 67.9 67.9" style="enable-background:new 0 0 67.9 67.9;" xml:space="preserve">
<style type="text/css">
	.st0{fill:#2854A1;}
	.st1{opacity:0.19;}
	.st2{clip-path:url(#SVGID_2_);}
	.st3{clip-path:url(#SVGID_4_);}
	.st4{fill:#FFFFFF;}
	.st5{fill:none;stroke:#FFFFFF;stroke-width:0.8717;stroke-miterlimit:10;}
	.st6{fill:none;stroke:#FFFFFF;stroke-width:1.3787;stroke-linecap:round;stroke-linejoin:round;stroke-miterlimit:10;}
	.st7{fill:none;stroke:#FFFFFF;stroke-width:1.25;stroke-linecap:round;stroke-linejoin:round;stroke-miterlimit:10;}
	.st8{fill:none;stroke:#FFFFFF;stroke-width:1.5158;stroke-linecap:round;stroke-linejoin:round;stroke-miterlimit:10;}
	.st9{fill:none;stroke:#FFFFFF;stroke-width:1.1729;stroke-linecap:round;stroke-linejoin:round;stroke-miterlimit:10;}
	.st10{fill:none;stroke:#FFFFFF;stroke-width:1.3;stroke-miterlimit:10;}
	.st11{fill:none;stroke:#FFFFFF;stroke-miterlimit:10;}
	.st12{fill:none;stroke:#000000;stroke-width:0.246;stroke-miterlimit:10;}
	.st13{fill:none;stroke:#FFFFFF;stroke-width:9.086470e-02;stroke-linecap:round;stroke-linejoin:round;}
	.st14{fill:none;stroke:#FFFFFF;stroke-width:0.2044;stroke-linecap:round;stroke-linejoin:round;}
	.st15{fill:none;stroke:#FFFFFF;stroke-width:0.492;stroke-miterlimit:10;}
	.st16{fill:none;stroke:#FFFFFF;stroke-linecap:round;stroke-miterlimit:10;}
	.st17{fill:none;stroke:#FFFFFF;stroke-width:0.5814;stroke-linecap:round;stroke-miterlimit:10;}
	.st18{fill:none;stroke:#FFFFFF;stroke-linecap:round;stroke-linejoin:bevel;stroke-miterlimit:10;}
</style>
<circle class="st5" cx="33.9" cy="33.9" r="33.5"/>
<g>
	<path class="st10" d="M37,48.1c-11.1,0-20.1-6.3-20.1-14c0-1.8,0.5-3.5,1.4-5.1c-4.1,1.4-7,4.1-7.6,7.6c-0.6,3.4,1.2,6.9,4.4,9.5
		l-2.4,4l4.6-2.5c2.1,1.2,4.5,2.1,7.2,2.6c5.1,0.9,9.9,0,13.2-2.1C37.5,48,37.3,48.1,37,48.1z"/>
	<path class="st10" d="M57.3,34.1c0-7.7-9-14-20.1-14s-20.1,6.3-20.1,14s9,14,20.1,14c3.4,0,6.7-0.6,9.5-1.7l5.2,4.1L49.8,45
		C54.4,42.4,57.3,38.5,57.3,34.1z"/>
</g>
</svg>
