<?xml version="1.0" encoding="utf-8"?>
<!-- Generator: Adobe Illustrator 24.3.0, SVG Export Plug-In . SVG Version: 6.00 Build 0)  -->
<svg version="1.1" id="レイヤー_1" xmlns="http://www.w3.org/2000/svg" xmlns:xlink="http://www.w3.org/1999/xlink" x="0px"
	 y="0px" viewBox="0 0 60 60" style="enable-background:new 0 0 60 60;" xml:space="preserve">
<style type="text/css">
	.st0{fill:#255096;}
	.st1{fill:none;}
	.st2{fill:#FFFFFF;}
</style>
<g>
	<g>
		<path class="st0" d="M2819.6,1069.7H2772c-1.6,0-2.8-1.3-2.8-2.8v-40.3c0-1.6-1.3-2.8-2.8-2.8H2696c-1.6,0-2.8,1.3-2.8,2.8v40.3
			c0,1.6-1.3,2.8-2.8,2.8h-47.6c-1.6,0-2.8,1.3-2.8,2.8v85.9c0,1.6,1.3,2.8,2.8,2.8h58.5c1.6,0,2.8-1.3,2.8-2.8v-28.5
			c0-1.6,1.3-2.8,2.8-2.8h49.2c1.6,0,2.8,1.3,2.8,2.8v28.5c0,1.6,1.3,2.8,2.8,2.8h58c1.6,0,2.8-1.3,2.8-2.8v-85.9
			C2822.4,1071,2821.1,1069.7,2819.6,1069.7z M2667.8,1140.4h-14.2v-20.2h14.2V1140.4z M2667.8,1105.8h-14.2v-20.2h14.2V1105.8z
			 M2686.5,1140.4h-14.2v-20.2h14.2V1140.4z M2686.5,1105.8h-14.2v-20.2h14.2V1105.8z M2728.9,1105.8h-14.2v-20.2h14.2V1105.8z
			 M2747.6,1105.8h-14.2v-20.2h14.2V1105.8z M2731.1,1075.4c-12.1,0-22-9.9-22-22s9.9-22,22-22s22,9.9,22,22
			C2753.1,1065.6,2743.2,1075.4,2731.1,1075.4z M2790.7,1140.4h-14.2v-20.2h14.2V1140.4z M2790.7,1105.8h-14.2v-20.2h14.2V1105.8z
			 M2809.4,1140.4h-14.2v-20.2h14.2V1140.4z M2809.4,1105.8h-14.2v-20.2h14.2V1105.8z"/>
		<polygon class="st0" points="2730.8,1060 2716.2,1050.1 2719.9,1044.8 2730.3,1051.8 2743.4,1040.2 2747.7,1045 		"/>
	</g>
	<rect x="2631.1" y="992.5" class="st1" width="200" height="200"/>
</g>
<g>
	<g>
		<path class="st1" d="M1729.8,325.2c0.3,1.2,0.6,2.5,0.8,3.7C1730.4,327.7,1730.1,326.4,1729.8,325.2z"/>
		<path class="st1" d="M1726.7,318.1c0.7,1.1,1.2,2.3,1.8,3.5C1728,320.4,1727.4,319.2,1726.7,318.1z"/>
		<path class="st1" d="M1629,321.6c0.5-1.2,1.1-2.3,1.8-3.5C1630.1,319.2,1629.5,320.4,1629,321.6z"/>
		<path class="st1" d="M1730.7,329.7c0-0.2,0-0.5-0.1-0.7C1730.6,329.2,1730.6,329.4,1730.7,329.7L1730.7,329.7z"/>
		<polygon class="st1" points="1633.1,376.6 1652.9,365.6 1652.9,365.6 		"/>
		<path class="st1" d="M1720.5,310.2c-9.5-9.2-24.7-15.2-41.7-15.2s-32.2,6-41.7,15.2c9.5-9.2,24.7-15.2,41.7-15.2
			S1711,301,1720.5,310.2z"/>
		<path class="st1" d="M1626.7,332.8c0-1.3,0.1-2.6,0.3-3.9C1626.8,330.2,1626.7,331.5,1626.7,332.8z"/>
		<path class="st1" d="M1720.5,310.2c2,1.9,3.7,4,5.2,6.2C1724.2,314.2,1722.5,312.2,1720.5,310.2z"/>
		<path class="st1" d="M1627,328.9c0.2-1.3,0.4-2.5,0.8-3.7C1627.4,326.4,1627.1,327.7,1627,328.9z"/>
		<path class="st1" d="M1631.8,316.4c1.5-2.2,3.2-4.3,5.2-6.2C1635,312.2,1633.3,314.2,1631.8,316.4z"/>
		<path d="M1730.8,332.8c0-1-0.1-2.1-0.2-3.1l0,0C1730.8,330.7,1730.8,331.8,1730.8,332.8z"/>
		<path class="st0" d="M1802.5,376v-22.5c0-13.2-10.7-23.9-23.9-23.9h-39.4c0.1,1,0.1,2.1,0.1,3.1c0,1.8-0.1,3.6-0.4,5.4h39.6
			c8.5,0,15.4,6.9,15.4,15.4V376c0,5.5-3,10.6-7.8,13.4l-3,1.7l3,9.7l-15.5-9.4h-48.3c-8.5,0-15.4-6.9-15.4-15.4v-2.3
			c-2.7,1.1-5.6,2-8.5,2.8c0.3,12.9,10.9,23.4,23.9,23.4h45.9l32.5,19.7l-7.6-24.7C1799,390.4,1802.5,383.4,1802.5,376z"/>
		<path class="st2" d="M1639.6,357.7c-1-0.8-2-1.7-2.9-2.6C1637.7,356,1638.6,356.9,1639.6,357.7z"/>
		<path class="st2" d="M1636.8,355.1c-1.8-1.8-3.4-3.7-4.8-5.7C1633.4,351.4,1635,353.3,1636.8,355.1z"/>
		<path class="st2" d="M1668.5,369.8c-2.2-0.3-4.4-0.8-6.5-1.3C1664.1,369,1666.2,369.5,1668.5,369.8z"/>
		<path class="st2" d="M1631,347.9c-1.2-2.1-2.2-4.2-3-6.4C1628.8,343.7,1629.8,345.8,1631,347.9z"/>
		<path class="st2" d="M1652.9,365.6c2.9,1.2,5.9,2.2,9,3C1658.8,367.7,1655.8,366.7,1652.9,365.6L1652.9,365.6z"/>
		<path class="st0" d="M1730.7,329.7c0-0.2,0-0.5-0.1-0.7c-0.2-1.3-0.4-2.5-0.8-3.7c-0.3-1.2-0.8-2.4-1.3-3.6s-1.1-2.3-1.8-3.5
			c-0.3-0.6-0.7-1.1-1-1.7c-1.5-2.2-3.2-4.3-5.2-6.2c-9.5-9.2-24.7-15.2-41.7-15.2s-32.2,6-41.7,15.2c-2,1.9-3.7,4-5.2,6.2
			c-0.4,0.5-0.7,1.1-1,1.7c-0.7,1.1-1.2,2.3-1.8,3.5c-0.5,1.2-0.9,2.4-1.3,3.6c-0.3,1.2-0.6,2.5-0.8,3.7c-0.2,1.3-0.3,2.6-0.3,3.9
			c0,3,0.5,5.9,1.4,8.7c0.7,2.2,1.7,4.4,3,6.4c0.3,0.5,0.6,1,1,1.5c1.4,2,3,3.9,4.8,5.7c0.9,0.9,1.9,1.8,2.9,2.6l-6.6,18.9l19.8-11
			c2.9,1.2,5.9,2.2,9,3c2.1,0.5,4.3,0.9,6.5,1.3c3.3,0.5,6.8,0.7,10.3,0.7c7,0,13.6-1,19.7-2.8c3-0.9,5.8-2,8.5-3.2
			c12.4-5.8,21.2-15.3,23.3-26.3c0.3-1.8,0.5-3.6,0.5-5.4C1730.8,331.8,1730.8,330.7,1730.7,329.7z M1647.2,339.9
			c-3.1,0-5.7-2.5-5.7-5.7c0-3.1,2.5-5.7,5.7-5.7s5.7,2.5,5.7,5.7C1652.9,337.4,1650.3,339.9,1647.2,339.9z M1668.3,339.9
			c-3.1,0-5.7-2.5-5.7-5.7c0-3.1,2.5-5.7,5.7-5.7s5.7,2.5,5.7,5.7S1671.5,339.9,1668.3,339.9z M1689.5,339.9c-3.1,0-5.7-2.5-5.7-5.7
			c0-3.1,2.5-5.7,5.7-5.7s5.7,2.5,5.7,5.7C1695.1,337.4,1692.6,339.9,1689.5,339.9z M1710.6,339.9c-3.1,0-5.7-2.5-5.7-5.7
			c0-3.1,2.5-5.7,5.7-5.7c3.1,0,5.7,2.5,5.7,5.7C1716.2,337.4,1713.7,339.9,1710.6,339.9z"/>
		<g>
			<ellipse class="st0" cx="1757.6" cy="365.8" rx="6.4" ry="3.7"/>
			<ellipse class="st0" cx="1733.8" cy="365.8" rx="6.4" ry="3.7"/>
			<ellipse class="st0" cx="1781.3" cy="365.8" rx="6.4" ry="3.7"/>
		</g>
	</g>
	<rect x="1614.6" y="257.4" class="st1" width="200" height="200"/>
</g>
<g>
	<g>
		<path class="st0" d="M2060.7,420.2h-87.5c-2.3,0-4.3-1.9-4.3-4.3V299.7c0-2.3,1.9-4.3,4.3-4.3h104.9c2.3,0,4.3,1.9,4.3,4.3v96.9
			c0,1.1-0.4,2.1-1.1,2.8l-17.4,19.3C2063.1,419.6,2061.9,420.2,2060.7,420.2z M1977.5,411.7h81.3l15.1-16.7v-91h-96.4L1977.5,411.7
			L1977.5,411.7z"/>
		<path class="st0" d="M2052.5,409.4c-1.6,0-2.8-1.3-2.8-2.8v-16.1c0-1.6,1.3-2.8,2.8-2.8h15.6c1.6,0,2.8,1.3,2.8,2.8
			s-1.3,2.8-2.8,2.8h-12.7v13.2C2055.4,408.1,2054.1,409.4,2052.5,409.4z"/>
		<g>
			<rect x="1991.7" y="317.6" class="st0" width="68" height="5.7"/>
			<rect x="1991.7" y="334.2" class="st0" width="68" height="5.7"/>
			<rect x="1991.7" y="350.8" class="st0" width="68" height="5.7"/>
			<rect x="1991.7" y="367.4" class="st0" width="68" height="5.7"/>
		</g>
	</g>
	<rect x="1925.7" y="257.8" class="st1" width="200" height="200"/>
</g>
<g>
	<g>
		<path class="st0" d="M2316.6,320.8c0.8,17.7,17.7,47.7,23.7,58.1s23.6,40,38.5,49.6c3.6,2.4,9.6,3.1,14.7,2c5-1,13.4-4.7,15.1-7.6
			c1.7-2.9,1.9-5.2,1.5-6.5c-0.7-2.6-3.2-7.4-6.7-12.2c-4-5.6-9.5-10.6-11.7-11.2s-4,0.8-5.3,1.9c-1.2,1.1-7.5,6.6-10.7,5.4
			c-3.3-1.1-17.6-21.6-22-29.2s-14.9-30.2-14.3-33.6c0.7-3.4,8.5-6,10.1-6.6c1.6-0.5,3.7-1.4,4.3-3.6s-1-9.5-3.8-15.8
			c-2.5-5.4-5.4-10-7.3-11.9c-1-1-3-2-6.4-1.9c-3.3,0.1-10.7,5.4-14.1,9.3C2318.8,310.9,2316.3,316.4,2316.6,320.8z"/>
	</g>
	<rect x="2263.4" y="264.4" class="st1" width="200" height="200"/>
</g>
<g>
	<g>
		<path class="st0" d="M2885.9,294.4c-3.4-0.9-6.9,1.1-7.8,4.5l-4.8,21.3c-3.2,3.5-6.8,6.9-9.8,9.6h-6.4c6.8-2.7,11.5-9.4,11.5-17.1
			c0-10.2-8.3-18.5-18.5-18.5s-18.5,8.3-18.5,18.5c0,7.7,4.8,14.4,11.5,17.1h-8.4c-2.3-0.1-4.6,1.1-5.8,3.3l-11.6,20.9
			c-0.4,0.7-0.7,1.5-0.8,2.3l-1,18.1c-0.4,3.5,0.8,6.7,4.3,7.1c0.3,0,0.5,0,0.8,0c3.2,0,5.3-2.4,5.7-5.6l2.8-16.9l3.5-5l-1.9,24.6
			l-4.8,12.8c-0.7,1.9-0.5,4,0.6,5.7l8.6,13.5c1.2,1.9,3.3,2.9,5.4,2.9c1.2,0,2.4-0.3,3.4-1c3-1.9,3.8-5.8,2-8.8l-5.9-9.2l10.3-13.2
			l5.9,34c0,3.5,2.8,6.4,6.4,6.4s6.4-2.8,6.4-6.4l1-34.4c0-0.2,0-0.4,0-0.7l-1.6-31.7c4.2-5.6,14.2-19.1,16.2-21.8
			c1.3-1.3,4.7-24.6,4.7-24.6C2890,298.8,2889.3,295.3,2885.9,294.4z"/>
		<path class="st0" d="M2811,373.9l-2.2-15.8c-0.1-0.8-0.3-1.5-0.7-2.2L2796,338c-1.1-2-3.2-3.1-5.4-3h-6.6
			c6-2.5,10.2-8.4,10.2-15.3c0-9.1-7.4-16.6-16.6-16.6c-9.1,0-16.5,7.4-16.5,16.6c0,6.9,4.2,12.8,10.2,15.3h-4.8
			c-2.8-2.5-6.2-5.7-9.1-9l-4.5-19.8c-0.9-3.2-4.1-5-7.3-4.2s-3.8,4.1-3,7.3c0,0,3.2,21.7,4.4,22.9c2.3,3.1,15.9,21.4,16.8,22.5
			c0.1,0.1,0.2,0.1,0.2,0.2l-1.1,14.2l-7.1,26.2l7.7-0.6l0.6,21.2c0,3.3,2.7,5.9,5.9,5.9c3.3,0,5-2.7,5-5.9l2.1-22.2l2.5-0.2
			l-1.4,5.8c-0.7,1.7-0.5,3.7,0.5,5.3l8,12.6c1.1,1.8,3,2.7,5,2.7c1.1,0,1.4-0.3,2.4-0.9c2.8-1.8,2.3-5.4,0.5-8.2l-4.7-8.6l4.3-9.8
			l7.9-0.6l-8.5-19.1l-1.5-19.2l4.8,7.2l3.9,14.7c0.4,3,2.3,5.2,5.3,5.2c0.2,0,0.5,0,0.7,0C2810.2,380.1,2811.4,377.1,2811,373.9z"
			/>
	</g>
	<rect x="2715.9" y="258" class="st1" width="200" height="200"/>
</g>
<g>
	<g>
		<path class="st0" d="M1855.6,703.8c-0.1,0-0.1-0.1-0.2-0.1c-0.9-0.6-1.8-1.1-2.7-1.6c-0.2-0.1-0.3-0.2-0.5-0.3
			c-0.9-0.5-1.8-0.9-2.8-1.3c-0.2-0.1-0.4-0.2-0.6-0.2c-1-0.4-1.9-0.7-3-1.1c-0.1,0-0.2-0.1-0.3-0.1c-4-1.2-8.2-1.7-12.5-1.5
			c-0.3,0-0.7,0-1,0.1c-0.6,0-1.2,0-1.8,0.1c-6.5,0.8-12.7,3.4-17.9,7.5c-9.1,7.2-14.2,17.7-14.2,29.1c0,12.1,5,22.2,15.2,30.9
			c1.2,1,2.3,5,3,7.9c1.1,4.2,2.4,9.3,5.6,12.5c0.6,0.6,1.5,0.9,2.3,0.9h21.4c0.9,0,1.7-0.3,2.3-0.9c3.2-3.1,4.5-8.3,5.6-12.5
			c0.8-2.9,1.8-6.9,3-7.9c10.3-8.7,15.2-18.8,15.2-30.9c0-9.9-3.8-19.1-10.8-26.1C1859.4,706.6,1857.6,705.1,1855.6,703.8z
			 M1850.6,758c-3.5,3-4.8,7.9-6,12.7c-0.9,3.3-2.1,8.3-3.7,8.3h-11.6c-1.5,0-2.8-5-3.7-8.3c-1.2-4.8-2.5-9.8-6-12.7
			c-8.1-6.9-11.9-14.4-11.9-23.6c0-7.3,2.9-14.2,8-19.4c5.2-5.2,12.1-8,19.4-8s14.2,2.9,19.4,8c5.2,5.2,8,12.1,8,19.4
			C1862.5,743.7,1858.7,751.2,1850.6,758z"/>
		<path class="st0" d="M1822.4,795.9c0,4,2,9.9,5.6,9.9s10.1,0,14.2,0c4,0,5.5-5.6,5.6-9.5c0-0.1,0-0.2,0-0.3l0,0l0,0h-25.4V795.9z"
			/>
		<g>
			<path class="st0" d="M1835.1,665.3c-2.6,0-4.8,2.1-4.8,4.8l1.2,14c0,1.9,1.6,3.5,3.6,3.5s3.5-1.6,3.6-3.5l1.2-13.9v-0.1
				C1839.8,667.4,1837.7,665.3,1835.1,665.3z"/>
			<path class="st0" d="M1791.5,683L1791.5,683c-0.3-0.3-0.5-0.4-0.6-0.5c-0.2-0.1-0.4-0.3-0.6-0.4c-0.4-0.2-0.7-0.4-1.1-0.5
				c-0.2,0-0.3-0.1-0.5-0.1c-0.4-0.1-0.9-0.1-1.3,0c-0.2,0-0.3,0.1-0.5,0.1c-0.4,0.1-0.8,0.3-1.1,0.5c-0.2,0.1-0.4,0.2-0.5,0.4
				c-0.1,0.1-0.3,0.2-0.5,0.4c-1.9,1.9-1.9,4.9,0,6.7l10.7,9c0.7,0.6,1.5,1,2.5,1l0,0c1,0,1.9-0.4,2.5-1c0.7-0.7,1-1.6,1-2.5
				s-0.4-1.8-1-2.5L1791.5,683z"/>
			<path class="st0" d="M1783.1,725l-13.4-3.6h-0.1c-1.3-0.2-2.5,0.1-3.6,0.8c-1,0.7-1.7,1.8-2,3.1c-0.2,1.3,0.1,2.5,0.8,3.6
				c0.7,1,1.8,1.7,3.1,2l14,1.2c0.2,0,0.4,0,0.6,0c1.7,0,3.2-1.2,3.5-3C1786.2,727.2,1785,725.3,1783.1,725z"/>
			<path class="st0" d="M1886,689.7c0.9-0.9,1.4-2.1,1.4-3.4c0-1.3-0.5-2.5-1.4-3.4c-0.2-0.2-0.4-0.3-0.5-0.4
				c-0.2-0.1-0.3-0.2-0.5-0.3c-0.4-0.2-0.8-0.4-1.1-0.5c-0.2,0-0.3-0.1-0.5-0.1c-0.4-0.1-0.9-0.1-1.3,0c-0.2,0-0.4,0.1-0.5,0.1
				c-0.4,0.1-0.8,0.3-1.2,0.5c-0.2,0.1-0.4,0.2-0.5,0.4c-0.1,0.1-0.3,0.2-0.5,0.4l-9,10.7c-1.3,1.4-1.3,3.6,0,5c0.7,0.7,1.6,1,2.5,1
				s1.8-0.4,2.5-1L1886,689.7L1886,689.7z"/>
			<path class="st0" d="M1906.1,725.2c-0.2-1.3-0.9-2.3-2-3.1c-1-0.7-2.3-1-3.6-0.8L1887,725c-1.9,0.4-3.2,2.2-2.8,4.1
				c0.3,1.7,1.8,3,3.5,3c0.2,0,0.4,0,0.6,0l13.8-1.2h0.1c1.3-0.2,2.3-0.9,3.1-2C1906.1,727.7,1906.3,726.5,1906.1,725.2z"/>
		</g>
		<path class="st0" d="M1848.4,792c0,0.8-0.6,1.4-1.4,1.4h-23.9c-0.8,0-1.4-0.6-1.4-1.4v-1.4c0-0.8,0.6-1.4,1.4-1.4h23.9
			c0.8,0,1.4,0.6,1.4,1.4V792z"/>
	</g>
	<rect x="1735.1" y="635.5" class="st1" width="200" height="200"/>
</g>
<g>
	<g>
		<rect x="2412.3" y="716.6" class="st0" width="36.4" height="36.4"/>
		<g>
			<path class="st0" d="M2319.2,753h-47.1l23.5-40.8L2319.2,753z"/>
		</g>
		<path class="st0" d="M2438.4,758h-17.6c-4.3,0-8,3.1-8.6,7.4l-3.8,18.4l-18.4-27.1c-1.9-3.6-6-5.3-9.8-4.4c9.6-6.1,16-16.8,16-29
			c0-18.9-15.3-34.2-34.2-34.2s-34.2,15.3-34.2,34.2c0,12.2,6.4,23,16.1,29c-3.8-1-8,0.7-9.9,4.3l-18.4,27.1l-3.8-18.4
			c-0.7-4.3-4.3-7.4-8.6-7.4h-17.6c-4.8,0-8.7,3.9-8.7,8.7s3.9,8.7,8.7,8.7h10.1l8.8,26.6c0.6,3.7,3.5,6.7,7.2,7.3
			c0.5,0.1,1,0.1,1.5,0.1c3.2,0,5.2-1.7,7.7-4.6l15.2-16.5l-2.3,28.3h56.6l-2.3-28.2l15.1,16.3c2.8,2.8,4.5,4.6,7.7,4.6
			c0.5,0,1,0,1.5-0.1c3.7-0.6,6.6-3.6,7.2-7.3l8.8-26.6h10.1c4.8,0,8.7-3.9,8.7-8.7S2443.2,758,2438.4,758z M2360.9,768.6
			c-3.4,0-6-2.4-6-6s2.6-6,6-6c3.3,0,6,2.4,6,6C2366.9,766.2,2364.2,768.6,2360.9,768.6z M2373.1,735.2c-4.7,3.2-7.6,4.8-7.6,9.7
			v1.5c0,2.5-1.7,3.8-4.5,3.8s-4.6-1.3-4.6-3.8v-1.6c0-4.4,0.9-6.9,2.8-9.4c1.5-1.9,2.2-2.5,6.8-5.5c4.5-3.1,6-4.7,6-8
			c0-4.6-3.6-7.3-9.3-7.3c-5.5,0-8.4,2.7-10,7.1c-0.9,2.2-2.3,3-4.1,3c-0.7,0-1.4-0.1-2.2-0.4c-1.9-0.5-3.6-1.7-3.6-3.9
			c0-0.4,0.1-1,0.3-1.6c1.2-3.3,3.1-6.2,5.8-8.4c3.5-2.7,8-4.3,14.4-4.3c11.5,0,18.8,5.9,18.8,15.1
			C2382,728.4,2378,731.7,2373.1,735.2z"/>
	</g>
	<rect x="2260.4" y="652.9" class="st1" width="200" height="200"/>
</g>
<g>
	<g>
		<path class="st0" d="M2902.2,730.6c6.7-7.9,11-14.8,12.9-20.5c2.5-7.8,0.1-12.5-2.4-15l-0.2-0.2c-2.3-2.2-5.3-3.4-8.8-3.4
			c-1.9,0-4,0.4-6.2,1.1c-5.7,1.8-12.6,6.2-20.5,12.9c-5.5,4.6-10.7,9.9-15.6,15.5c-0.5,0.6-13.8,16.1-25.4,29.6
			c0.6,0.8,5.3,7.3,9.5,11.5c3.8,3.8,9.8,8.3,11.4,9.5c13.8-11.8,29.8-25.4,29.8-25.4C2892.3,741.3,2897.5,736.1,2902.2,730.6z"/>
		<path class="st0" d="M2840.3,767.4c-3.8-3.8-7.7-9-9.1-10.9c-6,7-11.6,13.4-12.1,13.9c-2.7,2.9,0,6.5,0.9,7.7
			c1.1,1.5,2.7,3.2,4.4,5c1.8,1.8,3.5,3.3,5,4.4c1,0.7,2.8,2.1,4.8,2.1c1.1,0,2.1-0.4,2.9-1.1c0.4-0.4,6.9-6.1,14-12.1
			C2844.9,772,2844.8,771.9,2840.3,767.4L2840.3,767.4z"/>
		<path class="st1" d="M2806.8,809c2.3-2.3,2.3-5.9,0-8.2s-5.9-2.3-8.2,0c-1.9,1.9-2.2,4.8-0.9,7l-16.1,16.8l1.4,1.4l16.8-16.1
			C2802,811.2,2804.9,810.9,2806.8,809z"/>
		<path class="st0" d="M2797.7,807.8c-1.3-2.2-1-5.1,0.9-7c2.3-2.3,5.9-2.3,8.2,0s2.3,5.9,0,8.2c-1.9,1.9-4.8,2.2-7,0.9L2783,826
			l1.7,1.7c6.5-2.9,16.5-6.5,26.9-6.6c3.2-7.2,7.9-16,15.8-24.8c0.9-1,1.9-2.1,2.9-3.1l0,0l0,0c-0.8-0.5-1.6-0.8-2.1-1.2
			c-1.9-1.5-4.5-3.3-6.9-5.7s-4.2-5-5.7-6.9c-0.3-0.4-0.6-1.1-1-1.8c0-0.1-0.1-0.1-0.1-0.2l0,0l0,0c-9.8,9.6-19.8,15.1-27.9,18.7
			c-0.4,10.1-3.9,20.2-6.8,26.8l1.8,1.8L2797.7,807.8z"/>
	</g>
	<rect x="2748" y="659.6" class="st1" width="200" height="200"/>
</g>
<g>
	<g>
		<path class="st0" d="M1866.6,1049.9h-20.8v-9.2h14l-7.1-18.2h-86.1l-7.1,18.2h15.7v9.2h-22.4c-1.5,0-2.9-0.8-3.8-2
			c-0.9-1.3-1-2.9-0.5-4.3l10.7-27.5c0.7-1.8,2.4-2.9,4.3-2.9h92.4c1.9,0,3.6,1.2,4.3,2.9l10.7,27.5c0.6,1.4,0.4,3-0.5,4.3
			C1869.5,1049.1,1868.1,1049.9,1866.6,1049.9z"/>
		<path class="st0" d="M1847.9,1076h-76.5v-46.9h76.5V1076z M1777,1070.3h65.2v-35.6H1777V1070.3z"/>
		<path class="st0" d="M1866.6,1168.4h-113.9c-2.5,0-4.6-2.1-4.6-4.6v-116.6c0-2,1.3-3.8,3.3-4.4c1.9-0.6,4,0.2,5.2,1.8l16.1,24
			h74.1l16.1-24c1.1-1.7,3.2-2.4,5.2-1.8c1.9,0.6,3.3,2.4,3.3,4.4v116.6C1871.2,1166.4,1869.1,1168.4,1866.6,1168.4z M1757.3,1159.2
			H1862v-96.8l-9,13.5c-0.9,1.3-2.3,2-3.8,2h-79c-1.5,0-3-0.8-3.8-2l-9-13.5L1757.3,1159.2L1757.3,1159.2z"/>
		<g>
			<path class="st0" d="M1774.8,1132.3l-3.5,8.7h-13.8l19.2-50h14.2l18.8,50H1796l-3.3-8.7H1774.8z M1783.9,1106.5L1783.9,1106.5
				l-5.5,15.9h10.8L1783.9,1106.5z"/>
			<path class="st0" d="M1861.4,1115.1c0,16.2-11.6,27.6-27.7,27.6s-27.7-11.4-27.7-27.6c0-15.1,13.3-25.7,27.7-25.7
				S1861.4,1100,1861.4,1115.1z M1819.6,1115.2c0,8.6,6.4,14.9,14.1,14.9c7.8,0,14.1-6.3,14.1-14.9c0-6.9-6.4-13.2-14.1-13.2
				C1826,1101.9,1819.6,1108.3,1819.6,1115.2z"/>
		</g>
		<g>
			<rect x="1784.4" y="1041.3" class="st0" width="51" height="4.3"/>
			<rect x="1784.4" y="1050.1" class="st0" width="51" height="4.3"/>
			<rect x="1784.4" y="1058.9" class="st0" width="51" height="4.3"/>
		</g>
	</g>
	<rect x="1709.6" y="990.8" class="st1" width="200" height="200"/>
</g>
<g>
	<g>
		<rect x="2146.2" y="982.7" class="st1" width="200" height="200"/>
		<g>
			<path class="st0" d="M2245.3,1108.6c-4.2-1.4-6.6,2.9-6.9,3.6c-0.2,0.7-5.1,11.5-5.1,11.5l-9.1-12.2c-1.2-2.3-4.1-3.9-7.1-3.9
				l-2.3-0.1c6-2.7,10.2-8.7,10.2-15.7c0-9.5-7.7-17.2-17.2-17.2s-17.2,7.7-17.2,17.2c0,6.6,3.7,12.4,9.2,15.2l-2.5-0.1
				c0,0-30.2-24.2-31-24.7s-4.1-2.1-6.6,0.8c-2.1,2.5-0.8,6.5,0.9,7.8c0.8,0.6,32.1,31.3,32.1,31.3l-2.6,19.7h15.8h1.5h15.8
				l-1.2-12.5l8.2,6.2c2.1,2.1,4.9,2.1,6.3,1.7c1.9-0.6,2.8-2.1,4.1-5.2c0,0,7.6-16.1,8-17.1
				C2248.9,1113.8,2249.3,1109.9,2245.3,1108.6z"/>
			<path class="st0" d="M2313.4,1023.7h-61.8c-11.9,0-21.6,9.7-21.6,21.6v24.7c0,6.5,2.9,12.4,7.6,16.4l-5.2,15.1l17.8-9.9
				c0.5,0,1,0.1,1.4,0.1h61.8c11.9,0,21.6-9.7,21.6-21.6v-24.7C2335,1033.4,2325.3,1023.7,2313.4,1023.7z"/>
			<g>
				<path class="st0" d="M2273.5,1134.9c-1.3,0-2.4-0.9-2.7-2.1c-3.2-12.7-9.6-12.9-9.9-12.9c-1.5,0.1-2.7-1.1-2.8-2.6s1-2.8,2.5-3
					c6.1-0.6,8.5-6.2,10-11.6c0.1-0.4,0.2-0.8,0.3-1.1c0.4-1.1,1.4-1.9,2.6-1.9c1.2,0,2.3,0.7,2.7,1.8c0.2,0.6,0.4,1.4,0.6,2.3
					c0.9,3.6,2.3,9.1,7.5,10.7c1.1,0.4,1.9,1.4,1.9,2.6s-0.7,2.3-1.8,2.7c-6.5,2.3-8.1,12.5-8.1,12.6c-0.2,1.3-1.3,2.3-2.6,2.4
					C2273.6,1134.9,2273.5,1134.9,2273.5,1134.9z M2268.2,1117.2c1.7,1.4,3.5,3.4,5.1,6.4c1.1-2.2,2.5-4.4,4.5-6.2
					c-2.2-1.8-3.6-4-4.6-6.2C2272.1,1113.4,2270.5,1115.6,2268.2,1117.2z"/>
			</g>
			<g>
				<path class="st0" d="M2178.3,1078.2c-1.4,0-2.6-0.9-2.9-2.3c-4.7-18.8-14.5-18.9-14.9-18.9c-1.6,0.1-3-1.2-3.1-2.8
					c-0.1-1.6,1.1-3,2.7-3.2c10.4-1,13.6-12.3,14.9-17.1c0.2-0.6,0.3-1.1,0.4-1.5c0.4-1.2,1.5-2.1,2.8-2.1c0,0,0,0,0.1,0
					c1.3,0,2.4,0.8,2.8,2c0.3,0.8,0.6,1.9,0.9,3.1c1.3,5.3,3.4,13.4,11.2,15.9c1.2,0.4,2.1,1.5,2.1,2.8s-0.8,2.5-2,2.9
					c-9.8,3.4-12,18.4-12,18.6c-0.2,1.4-1.4,2.5-2.8,2.6C2178.4,1078.2,2178.4,1078.2,2178.3,1078.2z M2169.3,1054.1
					c3,2.1,6.2,5.5,8.8,11.2c1.6-3.8,4.1-8,7.9-11c-4.1-2.9-6.4-7.1-7.9-11C2176.3,1047.2,2173.6,1051.3,2169.3,1054.1z"/>
			</g>
		</g>
	</g>
	<rect x="2146.2" y="982.7" class="st1" width="200" height="200"/>
</g>
<g>
	<g>
		<path class="st2" d="M548.9,1866.1h-47.6c-1.6,0-2.8-1.3-2.8-2.8V1823c0-1.6-1.3-2.8-2.8-2.8h-70.4c-1.6,0-2.8,1.3-2.8,2.8v40.3
			c0,1.6-1.3,2.8-2.8,2.8h-47.6c-1.6,0-2.8,1.3-2.8,2.8v85.9c0,1.6,1.3,2.8,2.8,2.8h58.5c1.6,0,2.8-1.3,2.8-2.8v-28.5
			c0-1.6,1.3-2.8,2.8-2.8h49.2c1.6,0,2.8,1.3,2.8,2.8v28.5c0,1.6,1.3,2.8,2.8,2.8h58c1.6,0,2.8-1.3,2.8-2.8V1869
			C551.7,1867.4,550.4,1866.1,548.9,1866.1z M397.1,1936.8h-14.2v-20.2h14.2V1936.8z M397.1,1902.1h-14.2v-20.2h14.2V1902.1z
			 M415.7,1936.8h-14.2v-20.2h14.2V1936.8z M415.7,1902.1h-14.2v-20.2h14.2V1902.1z M458.2,1902.1H444v-20.2h14.2V1902.1z
			 M476.8,1902.1h-14.2v-20.2h14.2V1902.1z M460.4,1871.8c-12.1,0-22-9.9-22-22s9.9-22,22-22s22,9.9,22,22
			S472.5,1871.8,460.4,1871.8z M520,1936.8h-14.2v-20.2H520V1936.8z M520,1902.1h-14.2v-20.2H520V1902.1z M538.6,1936.8h-14.2v-20.2
			h14.2V1936.8z M538.6,1902.1h-14.2v-20.2h14.2V1902.1z"/>
		<polygon class="st2" points="460.1,1856.4 445.5,1846.5 449.1,1841.2 459.5,1848.2 472.6,1836.6 476.9,1841.4 		"/>
	</g>
	<rect x="360.4" y="1788.9" class="st1" width="200" height="200"/>
</g>
<g>
	<g>
		<path class="st1" d="M-541,1121.6c0.3,1.2,0.6,2.5,0.8,3.7C-540.3,1124.1-540.6,1122.8-541,1121.6z"/>
		<path class="st1" d="M-544,1114.5c0.7,1.1,1.2,2.3,1.8,3.5C-542.7,1116.8-543.3,1115.6-544,1114.5z"/>
		<path class="st1" d="M-641.7,1118c0.5-1.2,1.1-2.3,1.8-3.5C-640.6,1115.6-641.2,1116.8-641.7,1118z"/>
		<path class="st1" d="M-540.1,1126.1c0-0.2,0-0.5-0.1-0.7C-540.1,1125.6-540.1,1125.8-540.1,1126.1L-540.1,1126.1z"/>
		<polygon class="st1" points="-637.7,1173 -617.8,1162 -617.8,1162 		"/>
		<path class="st1" d="M-550.2,1106.6c-9.5-9.2-24.7-15.2-41.7-15.2s-32.2,6-41.7,15.2c9.5-9.2,24.7-15.2,41.7-15.2
			S-559.7,1097.4-550.2,1106.6z"/>
		<path class="st1" d="M-644,1129.2c0-1.3,0.1-2.6,0.3-3.9C-644,1126.6-644,1127.9-644,1129.2z"/>
		<path class="st1" d="M-550.2,1106.6c2,1.9,3.7,4,5.2,6.2C-546.5,1110.6-548.2,1108.6-550.2,1106.6z"/>
		<path class="st1" d="M-643.8,1125.3c0.2-1.3,0.4-2.5,0.8-3.7C-643.3,1122.8-643.6,1124.1-643.8,1125.3z"/>
		<path class="st1" d="M-638.9,1112.8c1.5-2.2,3.2-4.3,5.2-6.2C-635.7,1108.6-637.4,1110.6-638.9,1112.8z"/>
		<path d="M-539.9,1129.2c0-1-0.1-2.1-0.2-3.1l0,0C-540,1127.1-539.9,1128.1-539.9,1129.2z"/>
		<path class="st2" d="M-468.3,1172.4V1150c0-13.2-10.7-23.9-23.9-23.9h-39.4c0.1,1,0.1,2.1,0.1,3.1c0,1.8-0.1,3.6-0.4,5.4h39.6
			c8.5,0,15.4,6.9,15.4,15.4v22.5c0,5.5-3,10.6-7.8,13.4l-3,1.7l3,9.7l-15.5-9.4h-48.3c-8.5,0-15.4-6.9-15.4-15.4v-2.3
			c-2.7,1.1-5.6,2-8.5,2.8c0.3,12.9,10.9,23.4,23.9,23.4h45.9l32.5,19.7l-7.6-24.7C-471.7,1186.8-468.3,1179.8-468.3,1172.4z"/>
		<path class="st2" d="M-631.1,1154.1c-1-0.8-2-1.7-2.9-2.6C-633.1,1152.4-632.1,1153.3-631.1,1154.1z"/>
		<path class="st2" d="M-634,1151.5c-1.8-1.8-3.4-3.7-4.8-5.7C-637.4,1147.8-635.8,1149.7-634,1151.5z"/>
		<path class="st2" d="M-602.3,1166.2c-2.2-0.3-4.4-0.8-6.5-1.3C-606.7,1165.4-604.5,1165.9-602.3,1166.2z"/>
		<path class="st2" d="M-639.7,1144.3c-1.2-2.1-2.2-4.2-3-6.4C-641.9,1140.1-640.9,1142.2-639.7,1144.3z"/>
		<path class="st2" d="M-617.8,1162c2.9,1.2,5.9,2.2,9,3C-611.9,1164.1-615,1163.1-617.8,1162L-617.8,1162z"/>
		<path class="st2" d="M-540.1,1126.1c0-0.2,0-0.5-0.1-0.7c-0.2-1.3-0.4-2.5-0.8-3.7c-0.3-1.2-0.8-2.4-1.3-3.6s-1.1-2.3-1.8-3.5
			c-0.3-0.6-0.7-1.1-1-1.7c-1.5-2.2-3.2-4.3-5.2-6.2c-9.5-9.2-24.7-15.2-41.7-15.2s-32.2,6-41.7,15.2c-2,1.9-3.7,4-5.2,6.2
			c-0.4,0.5-0.7,1.1-1,1.7c-0.7,1.1-1.2,2.3-1.8,3.5c-0.5,1.2-0.9,2.4-1.3,3.6c-0.3,1.2-0.6,2.5-0.8,3.7c-0.2,1.3-0.3,2.6-0.3,3.9
			c0,3,0.5,5.9,1.4,8.7c0.7,2.2,1.7,4.4,3,6.4c0.3,0.5,0.6,1,1,1.5c1.4,2,3,3.9,4.8,5.7c0.9,0.9,1.9,1.8,2.9,2.6l-6.6,18.9l19.8-11
			c2.9,1.2,5.9,2.2,9,3c2.1,0.5,4.3,0.9,6.5,1.3c3.3,0.5,6.8,0.7,10.3,0.7c7,0,13.6-1,19.7-2.8c3-0.9,5.8-2,8.5-3.2
			c12.4-5.8,21.2-15.3,23.3-26.3c0.3-1.8,0.5-3.6,0.5-5.4C-539.9,1128.1-540,1127.1-540.1,1126.1z M-623.5,1136.3
			c-3.1,0-5.7-2.5-5.7-5.7s2.5-5.7,5.7-5.7s5.7,2.5,5.7,5.7S-620.4,1136.3-623.5,1136.3z M-602.4,1136.3c-3.1,0-5.7-2.5-5.7-5.7
			s2.5-5.7,5.7-5.7s5.7,2.5,5.7,5.7S-599.3,1136.3-602.4,1136.3z M-581.3,1136.3c-3.1,0-5.7-2.5-5.7-5.7s2.5-5.7,5.7-5.7
			s5.7,2.5,5.7,5.7S-578.2,1136.3-581.3,1136.3z M-560.2,1136.3c-3.1,0-5.7-2.5-5.7-5.7s2.5-5.7,5.7-5.7c3.1,0,5.7,2.5,5.7,5.7
			S-557,1136.3-560.2,1136.3z"/>
		<g>
			<circle class="st2" cx="-516.5" cy="1160.3" r="5.7"/>
			<circle class="st2" cx="-537.6" cy="1160.3" r="5.7"/>
			<circle class="st2" cx="-495.4" cy="1160.3" r="5.7"/>
		</g>
	</g>
	<rect x="-656.2" y="1053.7" class="st1" width="200" height="200"/>
</g>
<g>
	<g>
		<path class="st2" d="M-210,1216.5h-87.5c-2.3,0-4.3-1.9-4.3-4.3V1096c0-2.3,1.9-4.3,4.3-4.3h104.9c2.3,0,4.3,1.9,4.3,4.3v96.9
			c0,1.1-0.4,2.1-1.1,2.8l-17.4,19.3C-207.7,1216-208.8,1216.5-210,1216.5z M-293.3,1208h81.3l15.1-16.7v-91h-96.4V1208z"/>
		<path class="st2" d="M-218.2,1205.8c-1.6,0-2.8-1.3-2.8-2.8v-16.1c0-1.6,1.3-2.8,2.8-2.8h15.6c1.6,0,2.8,1.3,2.8,2.8
			s-1.3,2.8-2.8,2.8h-12.7v13.2C-215.4,1204.5-216.6,1205.8-218.2,1205.8z"/>
		<g>
			<rect x="-279.1" y="1114" class="st2" width="68" height="5.7"/>
			<rect x="-279.1" y="1130.6" class="st2" width="68" height="5.7"/>
			<rect x="-279.1" y="1147.2" class="st2" width="68" height="5.7"/>
			<rect x="-279.1" y="1163.8" class="st2" width="68" height="5.7"/>
		</g>
	</g>
	<rect x="-345.1" y="1054.2" class="st1" width="200" height="200"/>
</g>
<g>
	<g>
		<path class="st2" d="M45.9,1117.2c0.8,17.7,17.7,47.7,23.7,58.1s23.6,40,38.5,49.6c3.6,2.4,9.6,3.1,14.7,2c5-1,13.4-4.7,15.1-7.6
			c1.7-2.9,1.9-5.2,1.5-6.5c-0.7-2.6-3.2-7.4-6.7-12.2c-4-5.6-9.5-10.6-11.7-11.2s-4,0.8-5.3,1.9c-1.2,1.1-7.5,6.6-10.7,5.4
			c-3.3-1.1-17.6-21.6-22-29.2s-14.9-30.2-14.3-33.6c0.7-3.4,8.5-6,10.1-6.6c1.6-0.5,3.7-1.4,4.3-3.6c0.6-2.2-1-9.5-3.8-15.8
			c-2.5-5.4-5.4-10-7.3-11.9c-1-1-3-2-6.4-1.9c-3.3,0.1-10.7,5.4-14.1,9.3C48,1107.3,45.6,1112.8,45.9,1117.2z"/>
	</g>
	<rect x="-7.3" y="1060.8" class="st1" width="200" height="200"/>
</g>
<g>
	<g>
		<path class="st2" d="M615.1,1090.8c-3.4-0.9-6.9,1.1-7.8,4.5l-4.8,21.3c-3.2,3.5-6.8,6.9-9.8,9.6h-6.4c6.8-2.7,11.5-9.4,11.5-17.1
			c0-10.2-8.3-18.5-18.5-18.5s-18.5,8.3-18.5,18.5c0,7.7,4.8,14.4,11.5,17.1h-8.4c-2.3-0.1-4.6,1.1-5.8,3.3l-11.6,20.9
			c-0.4,0.7-0.7,1.5-0.8,2.3l-1,18.1c-0.4,3.5,0.8,6.7,4.3,7.1c0.3,0,0.5,0,0.8,0c3.2,0,5.3-2.4,5.7-5.6l2.8-16.9l3.5-5l-1.9,24.6
			l-4.8,12.8c-0.7,1.9-0.5,4,0.6,5.7l8.6,13.5c1.2,1.9,3.3,2.9,5.4,2.9c1.2,0,2.4-0.3,3.4-1c3-1.9,3.8-5.8,2-8.8l-5.9-9.2l10.3-13.2
			l5.9,34c0,3.5,2.8,6.4,6.4,6.4c3.5,0,6.4-2.8,6.4-6.4l1-34.4c0-0.2,0-0.4,0-0.7l-1.6-31.7c4.2-5.6,14.2-19.1,16.2-21.8
			c1.3-1.3,4.7-24.6,4.7-24.6C619.3,1095.2,618.5,1091.7,615.1,1090.8z"/>
		<path class="st2" d="M540.2,1170.3l-2.2-15.8c-0.1-0.8-0.3-1.5-0.7-2.2l-12.1-17.9c-1.1-2-3.2-3.1-5.4-3h-6.6
			c6-2.5,10.2-8.4,10.2-15.3c0-9.1-7.4-16.6-16.6-16.6c-9.1,0-16.5,7.4-16.5,16.6c0,6.9,4.2,12.8,10.2,15.3h-4.8
			c-2.8-2.5-6.2-5.7-9.1-9l-4.5-19.8c-0.9-3.2-4.1-5-7.3-4.2c-3.2,0.8-3.8,4.1-3,7.3c0,0,3.2,21.7,4.4,22.9
			c2.3,3.1,15.9,21.4,16.8,22.5c0.1,0.1,0.2,0.1,0.2,0.2l-1.1,14.2l-7.1,26.2l7.7-0.6l0.6,21.2c0,3.3,2.7,5.9,5.9,5.9
			c3.3,0,5-2.7,5-5.9l2.1-22.2l2.5-0.2l-1.4,5.8c-0.7,1.7-0.5,3.7,0.5,5.3l8,12.6c1.1,1.8,3,2.7,5,2.7c1.1,0,1.4-0.3,2.4-0.9
			c2.8-1.8,2.3-5.4,0.5-8.2l-4.7-8.6l4.3-9.8l7.9-0.6L523,1169l-1.5-19.2l4.8,7.2l3.9,14.7c0.4,3,2.3,5.2,5.3,5.2c0.2,0,0.5,0,0.7,0
			C539.5,1176.5,540.6,1173.5,540.2,1170.3z"/>
	</g>
	<rect x="445.1" y="1054.4" class="st1" width="200" height="200"/>
</g>
<g>
	<g>
		<path class="st2" d="M-415.1,1500.2c-0.1,0-0.1-0.1-0.2-0.1c-0.9-0.6-1.8-1.1-2.7-1.6c-0.2-0.1-0.3-0.2-0.5-0.3
			c-0.9-0.5-1.8-0.9-2.8-1.3c-0.2-0.1-0.4-0.2-0.6-0.2c-1-0.4-1.9-0.7-3-1.1c-0.1,0-0.2-0.1-0.3-0.1c-4-1.2-8.2-1.7-12.5-1.5
			c-0.3,0-0.7,0-1,0.1c-0.6,0-1.2,0-1.8,0.1c-6.5,0.8-12.7,3.4-17.9,7.5c-9.1,7.2-14.2,17.7-14.2,29.1c0,12.1,5,22.2,15.2,30.9
			c1.2,1,2.3,5,3,7.9c1.1,4.2,2.4,9.3,5.6,12.5c0.6,0.6,1.5,0.9,2.3,0.9h21.4c0.9,0,1.7-0.3,2.3-0.9c3.2-3.1,4.5-8.3,5.6-12.5
			c0.8-2.9,1.8-6.9,3-7.9c10.3-8.7,15.2-18.8,15.2-30.9c0-9.9-3.8-19.1-10.8-26.1C-411.3,1503-413.2,1501.5-415.1,1500.2z
			 M-420.1,1554.4c-3.5,3-4.8,7.9-6,12.7c-0.9,3.3-2.1,8.3-3.7,8.3h-11.6c-1.5,0-2.8-5-3.7-8.3c-1.2-4.8-2.5-9.8-6-12.7
			c-8.1-6.9-11.9-14.4-11.9-23.6c0-7.3,2.9-14.2,8-19.4c5.2-5.2,12.1-8,19.4-8s14.2,2.9,19.4,8c5.2,5.2,8,12.1,8,19.4
			C-408.3,1540-412,1547.6-420.1,1554.4z"/>
		<path class="st2" d="M-448.3,1592.3c0,4,2,9.9,5.6,9.9s10.1,0,14.2,0s5.5-5.6,5.6-9.5c0-0.1,0-0.2,0-0.3l0,0l0,0L-448.3,1592.3
			L-448.3,1592.3z"/>
		<g>
			<path class="st2" d="M-435.7,1461.7c-2.6,0-4.8,2.1-4.8,4.8l1.2,14c0,1.9,1.6,3.5,3.6,3.5s3.5-1.6,3.6-3.5l1.2-13.9v-0.1
				C-430.9,1463.8-433,1461.7-435.7,1461.7z"/>
			<path class="st2" d="M-479.3,1479.4L-479.3,1479.4c-0.3-0.3-0.5-0.4-0.6-0.5c-0.2-0.1-0.4-0.3-0.6-0.4c-0.4-0.2-0.7-0.4-1.1-0.5
				c-0.2,0-0.3-0.1-0.5-0.1c-0.4-0.1-0.9-0.1-1.3,0c-0.2,0-0.3,0.1-0.5,0.1c-0.4,0.1-0.8,0.3-1.1,0.5c-0.2,0.1-0.4,0.2-0.5,0.4
				c-0.1,0.1-0.3,0.2-0.5,0.4c-1.9,1.9-1.9,4.9,0,6.7l10.7,9c0.7,0.6,1.5,1,2.5,1l0,0c1,0,1.9-0.4,2.5-1c0.7-0.7,1-1.6,1-2.5
				s-0.4-1.8-1-2.5L-479.3,1479.4z"/>
			<path class="st2" d="M-487.7,1521.3l-13.4-3.6h-0.1c-1.3-0.2-2.5,0.1-3.6,0.8c-1,0.7-1.7,1.8-2,3.1c-0.2,1.3,0.1,2.5,0.8,3.6
				c0.7,1,1.8,1.7,3.1,2l14,1.2c0.2,0,0.4,0,0.6,0c1.7,0,3.2-1.2,3.5-3C-484.5,1523.6-485.8,1521.7-487.7,1521.3z"/>
			<path class="st2" d="M-384.8,1486.1c0.9-0.9,1.4-2.1,1.4-3.4s-0.5-2.5-1.4-3.4c-0.2-0.2-0.4-0.3-0.5-0.4
				c-0.2-0.1-0.3-0.2-0.5-0.3c-0.4-0.2-0.8-0.4-1.1-0.5c-0.2,0-0.3-0.1-0.5-0.1c-0.4-0.1-0.9-0.1-1.3,0c-0.2,0-0.4,0.1-0.5,0.1
				c-0.4,0.1-0.8,0.3-1.2,0.5c-0.2,0.1-0.4,0.2-0.5,0.4c-0.1,0.1-0.3,0.2-0.5,0.4l-9,10.7c-1.3,1.4-1.3,3.6,0,5c0.7,0.7,1.6,1,2.5,1
				s1.8-0.4,2.5-1L-384.8,1486.1L-384.8,1486.1z"/>
			<path class="st2" d="M-364.6,1521.6c-0.2-1.3-0.9-2.3-2-3.1c-1-0.7-2.3-1-3.6-0.8l-13.6,3.6c-1.9,0.4-3.2,2.2-2.8,4.1
				c0.3,1.7,1.8,3,3.5,3c0.2,0,0.4,0,0.6,0l13.8-1.2h0.1c1.3-0.2,2.3-0.9,3.1-2C-364.7,1524.1-364.4,1522.9-364.6,1521.6z"/>
		</g>
		<path class="st2" d="M-422.3,1588.4c0,0.8-0.6,1.4-1.4,1.4h-23.9c-0.8,0-1.4-0.6-1.4-1.4v-1.4c0-0.8,0.6-1.4,1.4-1.4h23.9
			c0.8,0,1.4,0.6,1.4,1.4V1588.4z"/>
	</g>
	<rect x="-535.7" y="1431.9" class="st1" width="200" height="200"/>
</g>
<g>
	<g>
		<rect x="141.5" y="1513" class="st2" width="36.4" height="36.4"/>
		<g>
			<path class="st2" d="M48.4,1549.4H1.3l23.5-40.8L48.4,1549.4z"/>
		</g>
		<path class="st2" d="M167.6,1554.4H150c-4.3,0-8,3.1-8.6,7.4l-3.8,18.4l-18.4-27.1c-1.9-3.6-6-5.3-9.8-4.4c9.6-6.1,16-16.8,16-29
			c0-18.9-15.3-34.2-34.2-34.2S57,1500.8,57,1519.7c0,12.2,6.4,23,16.1,29c-3.8-1-8,0.7-9.9,4.3l-18.4,27.1l-3.8-18.4
			c-0.7-4.3-4.3-7.4-8.6-7.4H14.8c-4.8,0-8.7,3.9-8.7,8.7c0,4.8,3.9,8.7,8.7,8.7h10.1l8.8,26.6c0.6,3.7,3.5,6.7,7.2,7.3
			c0.5,0.1,1,0.1,1.5,0.1c3.2,0,5.2-1.7,7.7-4.6l15.2-16.5l-2.3,28.3h56.6l-2.3-28.2l15.1,16.3c2.8,2.8,4.5,4.6,7.7,4.6
			c0.5,0,1,0,1.5-0.1c3.7-0.6,6.6-3.6,7.2-7.3l8.8-26.6h10.1c4.8,0,8.7-3.9,8.7-8.7C176.4,1558.3,172.5,1554.4,167.6,1554.4z
			 M90.1,1565c-3.4,0-6-2.4-6-6s2.6-6,6-6c3.3,0,6,2.4,6,6S93.4,1565,90.1,1565z M102.3,1531.6c-4.7,3.2-7.6,4.8-7.6,9.7v1.5
			c0,2.5-1.7,3.8-4.5,3.8s-4.6-1.3-4.6-3.8v-1.6c0-4.4,0.9-6.9,2.8-9.4c1.5-1.9,2.2-2.5,6.8-5.5c4.5-3.1,6-4.7,6-8
			c0-4.6-3.6-7.3-9.3-7.3c-5.5,0-8.4,2.7-10,7.1c-0.9,2.2-2.3,3-4.1,3c-0.7,0-1.4-0.1-2.2-0.4c-1.9-0.5-3.6-1.7-3.6-3.9
			c0-0.4,0.1-1,0.3-1.6c1.2-3.3,3.1-6.2,5.8-8.4c3.5-2.7,8-4.3,14.4-4.3c11.5,0,18.8,5.9,18.8,15.1
			C111.3,1524.8,107.3,1528.1,102.3,1531.6z"/>
	</g>
	<rect x="-10.4" y="1449.3" class="st1" width="200" height="200"/>
</g>
<g>
	<g>
		<path class="st2" d="M631.4,1527c6.7-7.9,11-14.8,12.9-20.5c2.5-7.8,0.1-12.5-2.4-15l-0.2-0.2c-2.3-2.2-5.3-3.4-8.8-3.4
			c-1.9,0-4,0.4-6.2,1.1c-5.7,1.8-12.6,6.2-20.5,12.9c-5.5,4.6-10.7,9.9-15.6,15.5c-0.5,0.6-13.8,16.1-25.4,29.6
			c0.6,0.8,5.3,7.3,9.5,11.5c3.8,3.8,9.8,8.3,11.4,9.5c13.8-11.8,29.8-25.4,29.8-25.4C621.5,1537.7,626.8,1532.5,631.4,1527z"/>
		<path class="st2" d="M569.6,1563.8c-3.8-3.8-7.7-9-9.1-10.9c-6,7-11.6,13.4-12.1,13.9c-2.7,2.9,0,6.5,0.9,7.7
			c1.1,1.5,2.7,3.2,4.4,5c1.8,1.8,3.5,3.3,5,4.4c1,0.7,2.8,2.1,4.8,2.1c1.1,0,2.1-0.4,2.9-1.1c0.4-0.4,6.9-6.1,14-12.1
			C574.2,1568.4,574.1,1568.3,569.6,1563.8C569.5,1563.8,569.6,1563.8,569.6,1563.8z"/>
		<path class="st1" d="M536.1,1605.4c2.3-2.3,2.3-5.9,0-8.2c-2.3-2.3-5.9-2.3-8.2,0c-1.9,1.9-2.2,4.8-0.9,7l-16.1,16.8l1.4,1.4
			l16.8-16.1C531.3,1607.5,534.2,1607.3,536.1,1605.4z"/>
		<path class="st2" d="M527,1604.2c-1.3-2.2-1-5.1,0.9-7c2.3-2.3,5.9-2.3,8.2,0s2.3,5.9,0,8.2c-1.9,1.9-4.8,2.2-7,0.9l-16.8,16.1
			l1.7,1.7c6.5-2.9,16.5-6.5,26.9-6.6c3.2-7.2,7.9-16,15.8-24.8c0.9-1,1.9-2.1,2.9-3.1l0,0l0,0c-0.8-0.5-1.6-0.8-2.1-1.2
			c-1.9-1.5-4.5-3.3-6.9-5.7c-2.4-2.4-4.2-5-5.7-6.9c-0.3-0.4-0.6-1.1-1-1.8c0-0.1-0.1-0.1-0.1-0.2l0,0l0,0
			c-9.8,9.6-19.8,15.1-27.9,18.7c-0.4,10.1-3.9,20.2-6.8,26.8l1.8,1.8L527,1604.2z"/>
	</g>
	<rect x="477.2" y="1456" class="st1" width="200" height="200"/>
</g>
<g>
	<g>
		<path class="st2" d="M-404.2,1846.3H-425v-9.2h14l-7.1-18.2h-86.1l-7.1,18.2h15.7v9.2H-518c-1.5,0-2.9-0.8-3.8-2
			c-0.9-1.3-1-2.9-0.5-4.3l10.7-27.5c0.7-1.8,2.4-2.9,4.3-2.9h92.4c1.9,0,3.6,1.2,4.3,2.9l10.7,27.5c0.6,1.4,0.4,3-0.5,4.3
			C-401.2,1845.5-402.6,1846.3-404.2,1846.3z"/>
		<path class="st2" d="M-422.9,1872.4h-76.5v-46.9h76.5V1872.4z M-493.7,1866.7h65.2v-35.6h-65.2V1866.7z"/>
		<path class="st2" d="M-404.2,1964.8h-113.9c-2.5,0-4.6-2.1-4.6-4.6v-116.6c0-2,1.3-3.8,3.3-4.4c1.9-0.6,4,0.2,5.2,1.8l16.1,24
			h74.1l16.1-24c1.1-1.7,3.2-2.4,5.2-1.8c1.9,0.6,3.3,2.4,3.3,4.4v116.6C-399.6,1962.7-401.6,1964.8-404.2,1964.8z M-513.5,1955.6
			h104.7v-96.8l-9,13.5c-0.9,1.3-2.3,2-3.8,2h-79c-1.5,0-3-0.8-3.8-2l-9-13.5v96.8H-513.5z"/>
		<g>
			<path class="st2" d="M-495.9,1928.7l-3.5,8.7h-13.8l19.2-50h14.2l18.8,50h-13.9l-3.3-8.7H-495.9z M-486.8,1902.9h-0.1l-5.4,15.9
				h10.8L-486.8,1902.9z"/>
			<path class="st2" d="M-409.3,1911.5c0,16.2-11.6,27.6-27.7,27.6s-27.7-11.4-27.7-27.6c0-15.1,13.3-25.7,27.7-25.7
				S-409.3,1896.4-409.3,1911.5z M-451.1,1911.5c0,8.6,6.4,14.9,14.1,14.9c7.8,0,14.1-6.3,14.1-14.9c0-6.9-6.4-13.2-14.1-13.2
				C-444.8,1898.3-451.1,1904.6-451.1,1911.5z"/>
		</g>
		<g>
			<rect x="-486.3" y="1837.7" class="st2" width="51" height="4.3"/>
			<rect x="-486.3" y="1846.5" class="st2" width="51" height="4.3"/>
			<rect x="-486.3" y="1855.3" class="st2" width="51" height="4.3"/>
		</g>
	</g>
	<rect x="-561.1" y="1787.2" class="st1" width="200" height="200"/>
</g>
<g>
	<g>
		<rect x="-124.5" y="1779.1" class="st1" width="200" height="200"/>
		<g>
			<path class="st2" d="M-25.4,1905c-4.2-1.4-6.6,2.9-6.9,3.6c-0.2,0.7-5.1,11.5-5.1,11.5l-9.1-12.2c-1.2-2.3-4.1-3.9-7.1-3.9
				l-2.3-0.1c6-2.7,10.2-8.7,10.2-15.7c0-9.5-7.7-17.2-17.2-17.2s-17.2,7.7-17.2,17.2c0,6.6,3.7,12.4,9.2,15.2l-2.5-0.1
				c0,0-30.2-24.2-31-24.7s-4.1-2.1-6.6,0.8c-2.1,2.5-0.8,6.5,0.9,7.8c0.8,0.6,32.1,31.3,32.1,31.3l-2.6,19.7h15.8h1.5h15.8
				l-1.2-12.5l8.2,6.2c2.1,2.1,4.9,2.1,6.3,1.7c1.9-0.6,2.8-2.1,4.1-5.2c0,0,7.6-16.1,8-17.1C-21.8,1910.2-21.4,1906.3-25.4,1905z"
				/>
			<path class="st2" d="M42.7,1820.1h-61.8c-11.9,0-21.6,9.7-21.6,21.6v24.7c0,6.5,2.9,12.4,7.6,16.4l-5.2,15.1l17.8-9.9
				c0.5,0,1,0.1,1.4,0.1h61.8c11.9,0,21.6-9.7,21.6-21.6v-24.7C64.3,1829.8,54.6,1820.1,42.7,1820.1z"/>
			<g>
				<path class="st2" d="M2.7,1931.2c-1.3,0-2.4-0.9-2.7-2.1c-3.2-12.7-9.6-12.9-9.9-12.9c-1.5,0.1-2.7-1.1-2.8-2.6s1-2.8,2.5-3
					c6.1-0.6,8.5-6.2,10-11.6c0.1-0.4,0.2-0.8,0.3-1.1c0.4-1.1,1.4-1.9,2.6-1.9s2.3,0.7,2.7,1.8c0.2,0.6,0.4,1.4,0.6,2.3
					c0.9,3.6,2.3,9.1,7.5,10.7c1.1,0.4,1.9,1.4,1.9,2.6s-0.7,2.3-1.8,2.7c-6.5,2.3-8.1,12.5-8.1,12.6c-0.2,1.3-1.3,2.3-2.6,2.4
					C2.8,1931.2,2.8,1931.2,2.7,1931.2z M-2.6,1913.6c1.7,1.4,3.5,3.4,5.1,6.4c1.1-2.2,2.5-4.4,4.5-6.2c-2.2-1.8-3.6-4-4.6-6.2
					C1.4,1909.8-0.3,1912-2.6,1913.6z"/>
			</g>
			<g>
				<path class="st2" d="M-92.4,1874.5c-1.4,0-2.6-0.9-2.9-2.3c-4.7-18.8-14.5-18.9-14.9-18.9c-1.6,0.1-3-1.2-3.1-2.8
					c-0.1-1.6,1.1-3,2.7-3.2c10.4-1,13.6-12.3,14.9-17.1c0.2-0.6,0.3-1.1,0.4-1.5c0.4-1.2,1.5-2.1,2.8-2.1c0,0,0,0,0.1,0
					c1.3,0,2.4,0.8,2.8,2c0.3,0.8,0.6,1.9,0.9,3.1c1.3,5.3,3.4,13.4,11.2,15.9c1.2,0.4,2.1,1.5,2.1,2.8s-0.8,2.5-2,2.9
					c-9.8,3.4-12,18.4-12,18.6c-0.2,1.4-1.4,2.5-2.8,2.6C-92.3,1874.5-92.3,1874.5-92.4,1874.5z M-101.5,1850.5
					c3,2.1,6.2,5.5,8.8,11.2c1.6-3.8,4.1-8,7.9-11c-4.1-2.9-6.4-7.1-7.9-11C-94.4,1843.6-97.1,1847.7-101.5,1850.5z"/>
			</g>
		</g>
	</g>
	<rect x="-124.5" y="1779.1" class="st1" width="200" height="200"/>
</g>
<g>
	<path class="st2" d="M30,7.9c-8.3,0-14.9,6.7-14.9,14.9c0,8.9,14.9,29.3,14.9,29.3s14.9-20.3,14.9-29.3C44.9,14.6,38.3,7.9,30,7.9z
		 M30,28.8c-3.3,0-6-2.7-6-6s2.7-6,6-6s6,2.7,6,6S33.3,28.8,30,28.8z"/>
	<g>
		<rect class="st1" width="60" height="60"/>
	</g>
</g>
</svg>
