<?xml version="1.0" encoding="utf-8"?>
<!-- Generator: Adobe Illustrator 24.3.0, SVG Export Plug-In . SVG Version: 6.00 Build 0)  -->
<svg version="1.1" id="レイヤー_1" xmlns="http://www.w3.org/2000/svg" xmlns:xlink="http://www.w3.org/1999/xlink" x="0px"
	 y="0px" viewBox="0 0 60 60" style="enable-background:new 0 0 60 60;" xml:space="preserve">
<style type="text/css">
	.st0{fill:#FFFFFF;}
	.st1{fill:none;}
</style>
<g>
	<path class="st0" d="M2259.6,163.8c0.8,17.7,17.7,47.7,23.7,58.1c6,10.4,23.6,40,38.5,49.6c3.6,2.4,9.6,3.1,14.7,2
		c5-1,13.4-4.7,15.1-7.6c1.7-2.9,1.9-5.2,1.5-6.5c-0.7-2.6-3.2-7.4-6.7-12.2c-4-5.6-9.5-10.6-11.7-11.2c-2.2-0.6-4,0.8-5.3,1.9
		c-1.2,1.1-7.5,6.6-10.7,5.4c-3.3-1.1-17.6-21.6-22-29.2c-4.4-7.6-14.9-30.2-14.3-33.6c0.7-3.4,8.5-6,10.1-6.6
		c1.6-0.5,3.7-1.4,4.3-3.6c0.6-2.2-1-9.5-3.8-15.8c-2.5-5.4-5.4-10-7.3-11.9c-1-1-3-2-6.4-1.9c-3.3,0.1-10.7,5.4-14.1,9.3
		C2261.8,153.9,2259.3,159.4,2259.6,163.8z"/>
</g>
<g>
	<g>
		<path class="st0" d="M2762.6,912.7H2715c-1.6,0-2.8-1.3-2.8-2.8v-40.3c0-1.6-1.3-2.8-2.8-2.8h-70.4c-1.6,0-2.8,1.3-2.8,2.8v40.3
			c0,1.6-1.3,2.8-2.8,2.8h-47.6c-1.6,0-2.8,1.3-2.8,2.8v85.9c0,1.6,1.3,2.8,2.8,2.8h58.5c1.6,0,2.8-1.3,2.8-2.8v-28.5
			c0-1.6,1.3-2.8,2.8-2.8h49.2c1.6,0,2.8,1.3,2.8,2.8v28.5c0,1.6,1.3,2.8,2.8,2.8h58c1.6,0,2.8-1.3,2.8-2.8v-85.9
			C2765.4,914,2764.1,912.7,2762.6,912.7z M2610.8,983.4h-14.2v-20.2h14.2V983.4z M2610.8,948.8h-14.2v-20.2h14.2V948.8z
			 M2629.5,983.4h-14.2v-20.2h14.2V983.4z M2629.5,948.8h-14.2v-20.2h14.2V948.8z M2671.9,948.8h-14.2v-20.2h14.2V948.8z
			 M2690.6,948.8h-14.2v-20.2h14.2V948.8z M2674.1,918.4c-12.1,0-22-9.9-22-22c0-12.1,9.9-22,22-22c12.1,0,22,9.9,22,22
			C2696.1,908.6,2686.2,918.4,2674.1,918.4z M2733.7,983.4h-14.2v-20.2h14.2V983.4z M2733.7,948.8h-14.2v-20.2h14.2V948.8z
			 M2752.4,983.4h-14.2v-20.2h14.2V983.4z M2752.4,948.8h-14.2v-20.2h14.2V948.8z"/>
		<polygon class="st0" points="2673.8,903 2659.2,893.1 2662.9,887.8 2673.3,894.8 2686.4,883.2 2690.7,888 		"/>
	</g>
	<rect x="2574.1" y="835.5" class="st1" width="200" height="200"/>
</g>
<g>
	<g>
		<path class="st1" d="M1672.8,168.2c0.3,1.2,0.6,2.5,0.8,3.7C1673.4,170.7,1673.1,169.4,1672.8,168.2z"/>
		<path class="st1" d="M1669.7,161.1c0.7,1.1,1.2,2.3,1.8,3.5C1671,163.4,1670.4,162.2,1669.7,161.1z"/>
		<path class="st1" d="M1572,164.6c0.5-1.2,1.1-2.3,1.8-3.5C1573.1,162.2,1572.5,163.4,1572,164.6z"/>
		<path class="st1" d="M1673.7,172.7c0-0.2,0-0.5-0.1-0.7C1673.6,172.2,1673.6,172.4,1673.7,172.7L1673.7,172.7z"/>
		<polygon class="st1" points="1576.1,219.6 1595.9,208.6 1595.9,208.6 		"/>
		<path class="st1" d="M1663.5,153.2c-9.5-9.2-24.7-15.2-41.7-15.2s-32.2,6-41.7,15.2c9.5-9.2,24.7-15.2,41.7-15.2
			S1654,144,1663.5,153.2z"/>
		<path class="st1" d="M1569.7,175.8c0-1.3,0.1-2.6,0.3-3.9C1569.8,173.2,1569.7,174.5,1569.7,175.8z"/>
		<path class="st1" d="M1663.5,153.2c2,1.9,3.7,4,5.2,6.2C1667.2,157.2,1665.5,155.2,1663.5,153.2z"/>
		<path class="st1" d="M1570,171.9c0.2-1.3,0.4-2.5,0.8-3.7C1570.4,169.4,1570.1,170.7,1570,171.9z"/>
		<path class="st1" d="M1574.8,159.4c1.5-2.2,3.2-4.3,5.2-6.2C1578,155.2,1576.3,157.2,1574.8,159.4z"/>
		<path d="M1673.8,175.8c0-1-0.1-2.1-0.2-3.1l0,0C1673.8,173.7,1673.8,174.8,1673.8,175.8z"/>
		<path class="st0" d="M1745.5,219v-22.5c0-13.2-10.7-23.9-23.9-23.9h-39.4c0.1,1,0.1,2.1,0.1,3.1c0,1.8-0.1,3.6-0.4,5.4h39.6
			c8.5,0,15.4,6.9,15.4,15.4V219c0,5.5-3,10.6-7.8,13.4l-3,1.7l3,9.7l-15.5-9.4h-48.3c-8.5,0-15.4-6.9-15.4-15.4v-2.3
			c-2.7,1.1-5.6,2-8.5,2.8c0.3,12.9,10.9,23.4,23.9,23.4h45.9l32.5,19.7l-7.6-24.7C1742,233.4,1745.5,226.4,1745.5,219z"/>
		<path class="st0" d="M1582.6,200.7c-1-0.8-2-1.7-2.9-2.6C1580.7,199,1581.6,199.9,1582.6,200.7z"/>
		<path class="st0" d="M1579.8,198.1c-1.8-1.8-3.4-3.7-4.8-5.7C1576.4,194.4,1578,196.3,1579.8,198.1z"/>
		<path class="st0" d="M1611.5,212.8c-2.2-0.3-4.4-0.8-6.5-1.3C1607.1,212,1609.2,212.5,1611.5,212.8z"/>
		<path class="st0" d="M1574,190.9c-1.2-2.1-2.2-4.2-3-6.4C1571.8,186.7,1572.8,188.8,1574,190.9z"/>
		<path class="st0" d="M1595.9,208.6c2.9,1.2,5.9,2.2,9,3C1601.8,210.7,1598.8,209.7,1595.9,208.6L1595.9,208.6z"/>
		<path class="st0" d="M1673.7,172.7c0-0.2,0-0.5-0.1-0.7c-0.2-1.3-0.4-2.5-0.8-3.7c-0.3-1.2-0.8-2.4-1.3-3.6
			c-0.5-1.2-1.1-2.3-1.8-3.5c-0.3-0.6-0.7-1.1-1-1.7c-1.5-2.2-3.2-4.3-5.2-6.2c-9.5-9.2-24.7-15.2-41.7-15.2s-32.2,6-41.7,15.2
			c-2,1.9-3.7,4-5.2,6.2c-0.4,0.5-0.7,1.1-1,1.7c-0.7,1.1-1.2,2.3-1.8,3.5c-0.5,1.2-0.9,2.4-1.3,3.6c-0.3,1.2-0.6,2.5-0.8,3.7
			c-0.2,1.3-0.3,2.6-0.3,3.9c0,3,0.5,5.9,1.4,8.7c0.7,2.2,1.7,4.4,3,6.4c0.3,0.5,0.6,1,1,1.5c1.4,2,3,3.9,4.8,5.7
			c0.9,0.9,1.9,1.8,2.9,2.6l-6.6,18.9l19.8-11c2.9,1.2,5.9,2.2,9,3c2.1,0.5,4.3,0.9,6.5,1.3c3.3,0.5,6.8,0.7,10.3,0.7
			c7,0,13.6-1,19.7-2.8c3-0.9,5.8-2,8.5-3.2c12.4-5.8,21.2-15.3,23.3-26.3c0.3-1.8,0.5-3.6,0.5-5.4
			C1673.8,174.8,1673.8,173.7,1673.7,172.7z M1590.2,182.9c-3.1,0-5.7-2.5-5.7-5.7c0-3.1,2.5-5.7,5.7-5.7s5.7,2.5,5.7,5.7
			C1595.9,180.4,1593.3,182.9,1590.2,182.9z M1611.3,182.9c-3.1,0-5.7-2.5-5.7-5.7c0-3.1,2.5-5.7,5.7-5.7s5.7,2.5,5.7,5.7
			C1617,180.4,1614.5,182.9,1611.3,182.9z M1632.5,182.9c-3.1,0-5.7-2.5-5.7-5.7c0-3.1,2.5-5.7,5.7-5.7s5.7,2.5,5.7,5.7
			C1638.1,180.4,1635.6,182.9,1632.5,182.9z M1653.6,182.9c-3.1,0-5.7-2.5-5.7-5.7c0-3.1,2.5-5.7,5.7-5.7c3.1,0,5.7,2.5,5.7,5.7
			C1659.2,180.4,1656.7,182.9,1653.6,182.9z"/>
		<g>
			<circle class="st0" cx="1697.2" cy="206.9" r="5.7"/>
			<circle class="st0" cx="1676.1" cy="206.9" r="5.7"/>
			<circle class="st0" cx="1718.4" cy="206.9" r="5.7"/>
		</g>
	</g>
	<rect x="1557.6" y="100.4" class="st1" width="200" height="200"/>
</g>
<g>
	<g>
		<path class="st0" d="M2003.7,263.2h-87.5c-2.3,0-4.3-1.9-4.3-4.3V142.7c0-2.3,1.9-4.3,4.3-4.3h104.9c2.3,0,4.3,1.9,4.3,4.3v96.9
			c0,1.1-0.4,2.1-1.1,2.8l-17.4,19.3C2006.1,262.6,2004.9,263.2,2003.7,263.2z M1920.5,254.7h81.3l15.1-16.7v-91h-96.4V254.7z"/>
		<path class="st0" d="M1995.5,252.4c-1.6,0-2.8-1.3-2.8-2.8v-16.1c0-1.6,1.3-2.8,2.8-2.8h15.6c1.6,0,2.8,1.3,2.8,2.8
			s-1.3,2.8-2.8,2.8h-12.7v13.2C1998.4,251.1,1997.1,252.4,1995.5,252.4z"/>
		<g>
			<rect x="1934.7" y="160.6" class="st0" width="68" height="5.7"/>
			<rect x="1934.7" y="177.2" class="st0" width="68" height="5.7"/>
			<rect x="1934.7" y="193.8" class="st0" width="68" height="5.7"/>
			<rect x="1934.7" y="210.4" class="st0" width="68" height="5.7"/>
		</g>
	</g>
	<rect x="1868.7" y="100.8" class="st1" width="200" height="200"/>
</g>
<rect x="2206.4" y="107.4" class="st1" width="200" height="200"/>
<g>
	<g>
		<path class="st0" d="M2828.9,137.4c-3.4-0.9-6.9,1.1-7.8,4.5l-4.8,21.3c-3.2,3.5-6.8,6.9-9.8,9.6h-6.4c6.8-2.7,11.5-9.4,11.5-17.1
			c0-10.2-8.3-18.5-18.5-18.5c-10.2,0-18.5,8.3-18.5,18.5c0,7.7,4.8,14.4,11.5,17.1h-8.4c-2.3-0.1-4.6,1.1-5.8,3.3l-11.6,20.9
			c-0.4,0.7-0.7,1.5-0.8,2.3l-1,18.1c-0.4,3.5,0.8,6.7,4.3,7.1c0.3,0,0.5,0,0.8,0c3.2,0,5.3-2.4,5.7-5.6l2.8-16.9l3.5-5l-1.9,24.6
			l-4.8,12.8c-0.7,1.9-0.5,4,0.6,5.7l8.6,13.5c1.2,1.9,3.3,2.9,5.4,2.9c1.2,0,2.4-0.3,3.4-1c3-1.9,3.8-5.8,2-8.8l-5.9-9.2l10.3-13.2
			l5.9,34c0,3.5,2.8,6.4,6.4,6.4s6.4-2.8,6.4-6.4l1-34.4c0-0.2,0-0.4,0-0.7l-1.6-31.7c4.2-5.6,14.2-19.1,16.2-21.8
			c1.3-1.3,4.7-24.6,4.7-24.6C2833,141.8,2832.3,138.3,2828.9,137.4z"/>
		<path class="st0" d="M2754,216.9l-2.2-15.8c-0.1-0.8-0.3-1.5-0.7-2.2l-12.1-17.9c-1.1-2-3.2-3.1-5.4-3h-6.6
			c6-2.5,10.2-8.4,10.2-15.3c0-9.1-7.4-16.6-16.6-16.6c-9.1,0-16.5,7.4-16.5,16.6c0,6.9,4.2,12.8,10.2,15.3h-4.8
			c-2.8-2.5-6.2-5.7-9.1-9l-4.5-19.8c-0.9-3.2-4.1-5-7.3-4.2c-3.2,0.8-3.8,4.1-3,7.3c0,0,3.2,21.7,4.4,22.9
			c2.3,3.1,15.9,21.4,16.8,22.5c0.1,0.1,0.2,0.1,0.2,0.2l-1.1,14.2l-7.1,26.2l7.7-0.6l0.6,21.2c0,3.3,2.7,5.9,5.9,5.9
			c3.3,0,5-2.7,5-5.9l2.1-22.2l2.5-0.2l-1.4,5.8c-0.7,1.7-0.5,3.7,0.5,5.3l8,12.6c1.1,1.8,3,2.7,5,2.7c1.1,0,1.4-0.3,2.4-0.9
			c2.8-1.8,2.3-5.4,0.5-8.2l-4.7-8.6l4.3-9.8l7.9-0.6l-8.5-19.1l-1.5-19.2l4.8,7.2l3.9,14.7c0.4,3,2.3,5.2,5.3,5.2
			c0.2,0,0.5,0,0.7,0C2753.2,223.1,2754.4,220.1,2754,216.9z"/>
	</g>
	<rect x="2658.9" y="101" class="st1" width="200" height="200"/>
</g>
<g>
	<g>
		<path class="st0" d="M1798.6,546.8c-0.1,0-0.1-0.1-0.2-0.1c-0.9-0.6-1.8-1.1-2.7-1.6c-0.2-0.1-0.3-0.2-0.5-0.3
			c-0.9-0.5-1.8-0.9-2.8-1.3c-0.2-0.1-0.4-0.2-0.6-0.2c-1-0.4-1.9-0.7-3-1.1c-0.1,0-0.2-0.1-0.3-0.1c-4-1.2-8.2-1.7-12.5-1.5
			c-0.3,0-0.7,0-1,0.1c-0.6,0-1.2,0-1.8,0.1c-6.5,0.8-12.7,3.4-17.9,7.5c-9.1,7.2-14.2,17.7-14.2,29.1c0,12.1,5,22.2,15.2,30.9
			c1.2,1,2.3,5,3,7.9c1.1,4.2,2.4,9.3,5.6,12.5c0.6,0.6,1.5,0.9,2.3,0.9h21.4c0.9,0,1.7-0.3,2.3-0.9c3.2-3.1,4.5-8.3,5.6-12.5
			c0.8-2.9,1.8-6.9,3-7.9c10.3-8.7,15.2-18.8,15.2-30.9c0-9.9-3.8-19.1-10.8-26.1C1802.4,549.6,1800.6,548.1,1798.6,546.8z
			 M1793.6,601c-3.5,3-4.8,7.9-6,12.7c-0.9,3.3-2.1,8.3-3.7,8.3h-11.6c-1.5,0-2.8-5-3.7-8.3c-1.2-4.8-2.5-9.8-6-12.7
			c-8.1-6.9-11.9-14.4-11.9-23.6c0-7.3,2.9-14.2,8-19.4c5.2-5.2,12.1-8,19.4-8c7.3,0,14.2,2.9,19.4,8c5.2,5.2,8,12.1,8,19.4
			C1805.5,586.7,1801.7,594.2,1793.6,601z"/>
		<path class="st0" d="M1765.4,638.9c0,4,2,9.9,5.6,9.9s10.1,0,14.2,0c4,0,5.5-5.6,5.6-9.5c0-0.1,0-0.2,0-0.3h0c0,0,0,0,0,0H1765.4
			L1765.4,638.9z"/>
		<g>
			<path class="st0" d="M1778.1,508.3c-2.6,0-4.8,2.1-4.8,4.8l1.2,14c0,1.9,1.6,3.5,3.6,3.5s3.5-1.6,3.6-3.5l1.2-13.9l0-0.1
				C1782.8,510.4,1780.7,508.3,1778.1,508.3z"/>
			<path class="st0" d="M1734.5,526L1734.5,526c-0.3-0.3-0.5-0.4-0.6-0.5c-0.2-0.1-0.4-0.3-0.6-0.4c-0.4-0.2-0.7-0.4-1.1-0.5
				c-0.2,0-0.3-0.1-0.5-0.1c-0.4-0.1-0.9-0.1-1.3,0c-0.2,0-0.3,0.1-0.5,0.1c-0.4,0.1-0.8,0.3-1.1,0.5c-0.2,0.1-0.4,0.2-0.5,0.4
				c-0.1,0.1-0.3,0.2-0.5,0.4c-1.9,1.9-1.9,4.9,0,6.7l10.7,9c0.7,0.6,1.5,1,2.5,1c0,0,0,0,0,0c1,0,1.9-0.4,2.5-1
				c0.7-0.7,1-1.6,1-2.5c0-0.9-0.4-1.8-1-2.5L1734.5,526z"/>
			<path class="st0" d="M1726.1,568l-13.4-3.6l-0.1,0c-1.3-0.2-2.5,0.1-3.6,0.8c-1,0.7-1.7,1.8-2,3.1c-0.2,1.3,0.1,2.5,0.8,3.6
				c0.7,1,1.8,1.7,3.1,2l14,1.2c0.2,0,0.4,0,0.6,0c1.7,0,3.2-1.2,3.5-3C1729.2,570.2,1728,568.3,1726.1,568z"/>
			<path class="st0" d="M1829,532.7c0.9-0.9,1.4-2.1,1.4-3.4c0-1.3-0.5-2.5-1.4-3.4c-0.2-0.2-0.4-0.3-0.5-0.4
				c-0.2-0.1-0.3-0.2-0.5-0.3c-0.4-0.2-0.8-0.4-1.1-0.5c-0.2,0-0.3-0.1-0.5-0.1c-0.4-0.1-0.9-0.1-1.3,0c-0.2,0-0.4,0.1-0.5,0.1
				c-0.4,0.1-0.8,0.3-1.2,0.5c-0.2,0.1-0.4,0.2-0.5,0.4c-0.1,0.1-0.3,0.2-0.5,0.4l-9,10.7c-1.3,1.4-1.3,3.6,0,5c0.7,0.7,1.6,1,2.5,1
				c0.9,0,1.8-0.4,2.5-1L1829,532.7L1829,532.7z"/>
			<path class="st0" d="M1849.1,568.2c-0.2-1.3-0.9-2.3-2-3.1c-1-0.7-2.3-1-3.6-0.8L1830,568c-1.9,0.4-3.2,2.2-2.8,4.1
				c0.3,1.7,1.8,3,3.5,3c0.2,0,0.4,0,0.6,0l13.8-1.2l0.1,0c1.3-0.2,2.3-0.9,3.1-2C1849.1,570.7,1849.3,569.5,1849.1,568.2z"/>
		</g>
		<path class="st0" d="M1791.4,635c0,0.8-0.6,1.4-1.4,1.4h-23.9c-0.8,0-1.4-0.6-1.4-1.4v-1.4c0-0.8,0.6-1.4,1.4-1.4h23.9
			c0.8,0,1.4,0.6,1.4,1.4V635z"/>
	</g>
	<rect x="1678.1" y="478.5" class="st1" width="200" height="200"/>
</g>
<g>
	<g>
		<rect x="2355.3" y="559.6" class="st0" width="36.4" height="36.4"/>
		<g>
			<path class="st0" d="M2262.2,596h-47.1l23.5-40.8L2262.2,596z"/>
		</g>
		<path class="st0" d="M2381.4,601h-17.6c-4.3,0-8,3.1-8.6,7.4l-3.8,18.4l-18.4-27.1c-1.9-3.6-6-5.3-9.8-4.4c9.6-6.1,16-16.8,16-29
			c0-18.9-15.3-34.2-34.2-34.2c-18.9,0-34.2,15.3-34.2,34.2c0,12.2,6.4,23,16.1,29c-3.8-1-8,0.7-9.9,4.3l-18.4,27.1l-3.8-18.4
			c-0.7-4.3-4.3-7.4-8.6-7.4h-17.6c-4.8,0-8.7,3.9-8.7,8.7s3.9,8.7,8.7,8.7h10.1l8.8,26.6c0.6,3.7,3.5,6.7,7.2,7.3
			c0.5,0.1,1,0.1,1.5,0.1c3.2,0,5.2-1.7,7.7-4.6l15.2-16.5l-2.3,28.3h56.6l-2.3-28.2l15.1,16.3c2.8,2.8,4.5,4.6,7.7,4.6
			c0.5,0,1,0,1.5-0.1c3.7-0.6,6.6-3.6,7.2-7.3l8.8-26.6h10.1c4.8,0,8.7-3.9,8.7-8.7S2386.2,601,2381.4,601z M2303.9,611.6
			c-3.4,0-6-2.4-6-6c0-3.6,2.6-6,6-6c3.3,0,6,2.4,6,6C2309.9,609.2,2307.2,611.6,2303.9,611.6z M2316.1,578.2
			c-4.7,3.2-7.6,4.8-7.6,9.7v1.5c0,2.5-1.7,3.8-4.5,3.8c-2.8,0-4.6-1.3-4.6-3.8v-1.6c0-4.4,0.9-6.9,2.8-9.4c1.5-1.9,2.2-2.5,6.8-5.5
			c4.5-3.1,6-4.7,6-8c0-4.6-3.6-7.3-9.3-7.3c-5.5,0-8.4,2.7-10,7.1c-0.9,2.2-2.3,3-4.1,3c-0.7,0-1.4-0.1-2.2-0.4
			c-1.9-0.5-3.6-1.7-3.6-3.9c0-0.4,0.1-1,0.3-1.6c1.2-3.3,3.1-6.2,5.8-8.4c3.5-2.7,8-4.3,14.4-4.3c11.5,0,18.8,5.9,18.8,15.1
			C2325,571.4,2321,574.7,2316.1,578.2z"/>
	</g>
	<rect x="2203.4" y="495.9" class="st1" width="200" height="200"/>
</g>
<g>
	<g>
		<path class="st0" d="M2845.2,573.6c6.7-7.9,11-14.8,12.9-20.5c2.5-7.8,0.1-12.5-2.4-15l-0.2-0.2c-2.3-2.2-5.3-3.4-8.8-3.4
			c-1.9,0-4,0.4-6.2,1.1c-5.7,1.8-12.6,6.2-20.5,12.9c-5.5,4.6-10.7,9.9-15.6,15.5c-0.5,0.6-13.8,16.1-25.4,29.6
			c0.6,0.8,5.3,7.3,9.5,11.5c3.8,3.8,9.8,8.3,11.4,9.5c13.8-11.8,29.8-25.4,29.8-25.4C2835.3,584.3,2840.5,579.1,2845.2,573.6z"/>
		<path class="st0" d="M2783.3,610.4c-3.8-3.8-7.7-9-9.1-10.9c-6,7-11.6,13.4-12.1,13.9c-2.7,2.9,0,6.5,0.9,7.7
			c1.1,1.5,2.7,3.2,4.4,5c1.8,1.8,3.5,3.3,5,4.4c1,0.7,2.8,2.1,4.8,2.1c1.1,0,2.1-0.4,2.9-1.1c0.4-0.4,6.9-6.1,14-12.1
			C2787.9,615,2787.8,614.9,2783.3,610.4C2783.3,610.4,2783.3,610.4,2783.3,610.4z"/>
		<path class="st1" d="M2749.8,652c2.3-2.3,2.3-5.9,0-8.2c-2.3-2.3-5.9-2.3-8.2,0c-1.9,1.9-2.2,4.8-0.9,7l-16.1,16.8l1.4,1.4
			l16.8-16.1C2745,654.2,2747.9,653.9,2749.8,652z"/>
		<path class="st0" d="M2740.7,650.8c-1.3-2.2-1-5.1,0.9-7c2.3-2.3,5.9-2.3,8.2,0c2.3,2.3,2.3,5.9,0,8.2c-1.9,1.9-4.8,2.2-7,0.9
			l-16.8,16.1l1.7,1.7c6.5-2.9,16.5-6.5,26.9-6.6c3.2-7.2,7.9-16,15.8-24.8c0.9-1,1.9-2.1,2.9-3.1c0,0,0,0,0,0c0,0,0,0,0,0
			c-0.8-0.5-1.6-0.8-2.1-1.2c-1.9-1.5-4.5-3.3-6.9-5.7c-2.4-2.4-4.2-5-5.7-6.9c-0.3-0.4-0.6-1.1-1-1.8c0-0.1-0.1-0.1-0.1-0.2
			c0,0,0,0,0,0c0,0,0,0,0,0c-9.8,9.6-19.8,15.1-27.9,18.7c-0.4,10.1-3.9,20.2-6.8,26.8l1.8,1.8L2740.7,650.8z"/>
	</g>
	<rect x="2691" y="502.6" class="st1" width="200" height="200"/>
</g>
<g>
	<g>
		<path class="st0" d="M1809.6,892.9h-20.8v-9.2h14l-7.1-18.2h-86.1l-7.1,18.2h15.7v9.2h-22.4c-1.5,0-2.9-0.8-3.8-2
			c-0.9-1.3-1-2.9-0.5-4.3l10.7-27.5c0.7-1.8,2.4-2.9,4.3-2.9h92.4c1.9,0,3.6,1.2,4.3,2.9l10.7,27.5c0.6,1.4,0.4,3-0.5,4.3
			C1812.5,892.1,1811.1,892.9,1809.6,892.9z"/>
		<path class="st0" d="M1790.9,919h-76.5v-46.9h76.5V919z M1720,913.3h65.2v-35.6H1720V913.3z"/>
		<path class="st0" d="M1809.6,1011.4h-113.9c-2.5,0-4.6-2.1-4.6-4.6V890.2c0-2,1.3-3.8,3.3-4.4c1.9-0.6,4,0.2,5.2,1.8l16.1,24h74.1
			l16.1-24c1.1-1.7,3.2-2.4,5.2-1.8c1.9,0.6,3.3,2.4,3.3,4.4v116.6C1814.2,1009.4,1812.1,1011.4,1809.6,1011.4z M1700.3,1002.2H1805
			v-96.8l-9,13.5c-0.9,1.3-2.3,2-3.8,2h-79c-1.5,0-3-0.8-3.8-2l-9-13.5V1002.2z"/>
		<g>
			<path class="st0" d="M1717.8,975.3l-3.5,8.7h-13.8l19.2-50h14.2l18.8,50H1739l-3.3-8.7H1717.8z M1726.9,949.5h-0.1l-5.4,15.9
				h10.8L1726.9,949.5z"/>
			<path class="st0" d="M1804.4,958.1c0,16.2-11.6,27.6-27.7,27.6c-16.1,0-27.7-11.4-27.7-27.6c0-15.1,13.3-25.7,27.7-25.7
				S1804.4,943,1804.4,958.1z M1762.6,958.2c0,8.6,6.4,14.9,14.1,14.9c7.8,0,14.1-6.3,14.1-14.9c0-6.9-6.4-13.2-14.1-13.2
				C1769,944.9,1762.6,951.3,1762.6,958.2z"/>
		</g>
		<g>
			<rect x="1727.4" y="884.3" class="st0" width="51" height="4.3"/>
			<rect x="1727.4" y="893.1" class="st0" width="51" height="4.3"/>
			<rect x="1727.4" y="901.9" class="st0" width="51" height="4.3"/>
		</g>
	</g>
	<rect x="1652.6" y="833.8" class="st1" width="200" height="200"/>
</g>
<g>
	<g>
		<rect x="2089.2" y="825.7" class="st1" width="200" height="200"/>
		<g>
			<path class="st0" d="M2188.3,951.6c-4.2-1.4-6.6,2.9-6.9,3.6c-0.2,0.7-5.1,11.5-5.1,11.5l-9.1-12.2c-1.2-2.3-4.1-3.9-7.1-3.9
				l-2.3-0.1c6-2.7,10.2-8.7,10.2-15.7c0-9.5-7.7-17.2-17.2-17.2c-9.5,0-17.2,7.7-17.2,17.2c0,6.6,3.7,12.4,9.2,15.2l-2.5-0.1
				c0,0-30.2-24.2-31-24.7s-4.1-2.1-6.6,0.8c-2.1,2.5-0.8,6.5,0.9,7.8c0.8,0.6,32.1,31.3,32.1,31.3l-2.6,19.7h15.8h1.5h15.8
				l-1.2-12.5l8.2,6.2c2.1,2.1,4.9,2.1,6.3,1.7c1.9-0.6,2.8-2.1,4.1-5.2c0,0,7.6-16.1,8-17.1
				C2191.9,956.8,2192.3,952.9,2188.3,951.6z"/>
			<path class="st0" d="M2256.4,866.7h-61.8c-11.9,0-21.6,9.7-21.6,21.6V913c0,6.5,2.9,12.4,7.6,16.4l-5.2,15.1l17.8-9.9
				c0.5,0,1,0.1,1.4,0.1h61.8c11.9,0,21.6-9.7,21.6-21.6v-24.7C2278,876.4,2268.3,866.7,2256.4,866.7z"/>
			<g>
				<path class="st0" d="M2216.5,977.9c-1.3,0-2.4-0.9-2.7-2.1c-3.2-12.7-9.6-12.9-9.9-12.9c-1.5,0.1-2.7-1.1-2.8-2.6
					c-0.1-1.5,1-2.8,2.5-3c6.1-0.6,8.5-6.2,10-11.6c0.1-0.4,0.2-0.8,0.3-1.1c0.4-1.1,1.4-1.9,2.6-1.9c1.2,0,2.3,0.7,2.7,1.8
					c0.2,0.6,0.4,1.4,0.6,2.3c0.9,3.6,2.3,9.1,7.5,10.7c1.1,0.4,1.9,1.4,1.9,2.6c0,1.2-0.7,2.3-1.8,2.7c-6.5,2.3-8.1,12.5-8.1,12.6
					c-0.2,1.3-1.3,2.3-2.6,2.4C2216.6,977.9,2216.5,977.9,2216.5,977.9z M2211.2,960.2c1.7,1.4,3.5,3.4,5.1,6.4
					c1.1-2.2,2.5-4.4,4.5-6.2c-2.2-1.8-3.6-4-4.6-6.2C2215.1,956.4,2213.5,958.6,2211.2,960.2z"/>
			</g>
			<g>
				<path class="st0" d="M2121.3,921.2c-1.4,0-2.6-0.9-2.9-2.3c-4.7-18.8-14.5-18.9-14.9-18.9c-1.6,0.1-3-1.2-3.1-2.8
					c-0.1-1.6,1.1-3,2.7-3.2c10.4-1,13.6-12.3,14.9-17.1c0.2-0.6,0.3-1.1,0.4-1.5c0.4-1.2,1.5-2.1,2.8-2.1c0,0,0,0,0.1,0
					c1.3,0,2.4,0.8,2.8,2c0.3,0.8,0.6,1.9,0.9,3.1c1.3,5.3,3.4,13.4,11.2,15.9c1.2,0.4,2.1,1.5,2.1,2.8c0,1.3-0.8,2.5-2,2.9
					c-9.8,3.4-12,18.4-12,18.6c-0.2,1.4-1.4,2.5-2.8,2.6C2121.4,921.2,2121.4,921.2,2121.3,921.2z M2112.3,897.1
					c3,2.1,6.2,5.5,8.8,11.2c1.6-3.8,4.1-8,7.9-11c-4.1-2.9-6.4-7.1-7.9-11C2119.3,890.2,2116.6,894.3,2112.3,897.1z"/>
			</g>
		</g>
	</g>
	<rect x="2089.2" y="825.7" class="st1" width="200" height="200"/>
</g>
<g>
	<g>
		<path class="st0" d="M491.9,1709.1h-47.6c-1.6,0-2.8-1.3-2.8-2.8V1666c0-1.6-1.3-2.8-2.8-2.8h-70.4c-1.6,0-2.8,1.3-2.8,2.8v40.3
			c0,1.6-1.3,2.8-2.8,2.8h-47.6c-1.6,0-2.8,1.3-2.8,2.8v85.9c0,1.6,1.3,2.8,2.8,2.8h58.5c1.6,0,2.8-1.3,2.8-2.8v-28.5
			c0-1.6,1.3-2.8,2.8-2.8h49.2c1.6,0,2.8,1.3,2.8,2.8v28.5c0,1.6,1.3,2.8,2.8,2.8h58c1.6,0,2.8-1.3,2.8-2.8V1712
			C494.7,1710.4,493.4,1709.1,491.9,1709.1z M340.1,1779.8h-14.2v-20.2h14.2V1779.8z M340.1,1745.1h-14.2v-20.2h14.2V1745.1z
			 M358.7,1779.8h-14.2v-20.2h14.2V1779.8z M358.7,1745.1h-14.2v-20.2h14.2V1745.1z M401.2,1745.1H387v-20.2h14.2V1745.1z
			 M419.8,1745.1h-14.2v-20.2h14.2V1745.1z M403.4,1714.8c-12.1,0-22-9.9-22-22c0-12.1,9.9-22,22-22c12.1,0,22,9.9,22,22
			C425.4,1704.9,415.5,1714.8,403.4,1714.8z M463,1779.8h-14.2v-20.2H463V1779.8z M463,1745.1h-14.2v-20.2H463V1745.1z
			 M481.6,1779.8h-14.2v-20.2h14.2V1779.8z M481.6,1745.1h-14.2v-20.2h14.2V1745.1z"/>
		<polygon class="st0" points="403.1,1699.4 388.5,1689.5 392.1,1684.2 402.5,1691.2 415.6,1679.6 419.9,1684.4 		"/>
	</g>
	<rect x="303.4" y="1631.9" class="st1" width="200" height="200"/>
</g>
<g>
	<g>
		<path class="st1" d="M-598,964.6c0.3,1.2,0.6,2.5,0.8,3.7C-597.3,967.1-597.6,965.8-598,964.6z"/>
		<path class="st1" d="M-601,957.5c0.7,1.1,1.2,2.3,1.8,3.5C-599.7,959.8-600.3,958.6-601,957.5z"/>
		<path class="st1" d="M-698.7,961c0.5-1.2,1.1-2.3,1.8-3.5C-697.6,958.6-698.2,959.8-698.7,961z"/>
		<path class="st1" d="M-597.1,969.1c0-0.2,0-0.5-0.1-0.7C-597.1,968.6-597.1,968.8-597.1,969.1L-597.1,969.1z"/>
		<polygon class="st1" points="-694.7,1016 -674.8,1005 -674.8,1005 		"/>
		<path class="st1" d="M-607.2,949.6c-9.5-9.2-24.7-15.2-41.7-15.2s-32.2,6-41.7,15.2c9.5-9.2,24.7-15.2,41.7-15.2
			S-616.7,940.4-607.2,949.6z"/>
		<path class="st1" d="M-701,972.2c0-1.3,0.1-2.6,0.3-3.9C-701,969.6-701,970.9-701,972.2z"/>
		<path class="st1" d="M-607.2,949.6c2,1.9,3.7,4,5.2,6.2C-603.5,953.6-605.2,951.6-607.2,949.6z"/>
		<path class="st1" d="M-700.8,968.3c0.2-1.3,0.4-2.5,0.8-3.7C-700.3,965.8-700.6,967.1-700.8,968.3z"/>
		<path class="st1" d="M-695.9,955.8c1.5-2.2,3.2-4.3,5.2-6.2C-692.7,951.6-694.4,953.6-695.9,955.8z"/>
		<path d="M-596.9,972.2c0-1-0.1-2.1-0.2-3.1l0,0C-597,970.1-596.9,971.1-596.9,972.2z"/>
		<path class="st0" d="M-525.3,1015.4V993c0-13.2-10.7-23.9-23.9-23.9h-39.4c0.1,1,0.1,2.1,0.1,3.1c0,1.8-0.1,3.6-0.4,5.4h39.6
			c8.5,0,15.4,6.9,15.4,15.4v22.5c0,5.5-3,10.6-7.8,13.4l-3,1.7l3,9.7l-15.5-9.4h-48.3c-8.5,0-15.4-6.9-15.4-15.4v-2.3
			c-2.7,1.1-5.6,2-8.5,2.8c0.3,12.9,10.9,23.4,23.9,23.4h45.9l32.5,19.7l-7.6-24.7C-528.7,1029.8-525.3,1022.8-525.3,1015.4z"/>
		<path class="st0" d="M-688.1,997.1c-1-0.8-2-1.7-2.9-2.6C-690.1,995.4-689.1,996.3-688.1,997.1z"/>
		<path class="st0" d="M-691,994.5c-1.8-1.8-3.4-3.7-4.8-5.7C-694.4,990.8-692.8,992.7-691,994.5z"/>
		<path class="st0" d="M-659.3,1009.2c-2.2-0.3-4.4-0.8-6.5-1.3C-663.7,1008.4-661.5,1008.9-659.3,1009.2z"/>
		<path class="st0" d="M-696.7,987.3c-1.2-2.1-2.2-4.2-3-6.4C-698.9,983.1-697.9,985.2-696.7,987.3z"/>
		<path class="st0" d="M-674.8,1005c2.9,1.2,5.9,2.2,9,3C-668.9,1007.1-672,1006.1-674.8,1005L-674.8,1005z"/>
		<path class="st0" d="M-597.1,969.1c0-0.2,0-0.5-0.1-0.7c-0.2-1.3-0.4-2.5-0.8-3.7c-0.3-1.2-0.8-2.4-1.3-3.6
			c-0.5-1.2-1.1-2.3-1.8-3.5c-0.3-0.6-0.7-1.1-1-1.7c-1.5-2.2-3.2-4.3-5.2-6.2c-9.5-9.2-24.7-15.2-41.7-15.2s-32.2,6-41.7,15.2
			c-2,1.9-3.7,4-5.2,6.2c-0.4,0.5-0.7,1.1-1,1.7c-0.7,1.1-1.2,2.3-1.8,3.5c-0.5,1.2-0.9,2.4-1.3,3.6c-0.3,1.2-0.6,2.5-0.8,3.7
			c-0.2,1.3-0.3,2.6-0.3,3.9c0,3,0.5,5.9,1.4,8.7c0.7,2.2,1.7,4.4,3,6.4c0.3,0.5,0.6,1,1,1.5c1.4,2,3,3.9,4.8,5.7
			c0.9,0.9,1.9,1.8,2.9,2.6l-6.6,18.9l19.8-11c2.9,1.2,5.9,2.2,9,3c2.1,0.5,4.3,0.9,6.5,1.3c3.3,0.5,6.8,0.7,10.3,0.7
			c7,0,13.6-1,19.7-2.8c3-0.9,5.8-2,8.5-3.2c12.4-5.8,21.2-15.3,23.3-26.3c0.3-1.8,0.5-3.6,0.5-5.4
			C-596.9,971.1-597,970.1-597.1,969.1z M-680.5,979.3c-3.1,0-5.7-2.5-5.7-5.7c0-3.1,2.5-5.7,5.7-5.7s5.7,2.5,5.7,5.7
			C-674.9,976.7-677.4,979.3-680.5,979.3z M-659.4,979.3c-3.1,0-5.7-2.5-5.7-5.7c0-3.1,2.5-5.7,5.7-5.7s5.7,2.5,5.7,5.7
			C-653.7,976.7-656.3,979.3-659.4,979.3z M-638.3,979.3c-3.1,0-5.7-2.5-5.7-5.7c0-3.1,2.5-5.7,5.7-5.7s5.7,2.5,5.7,5.7
			C-632.6,976.7-635.2,979.3-638.3,979.3z M-617.2,979.3c-3.1,0-5.7-2.5-5.7-5.7c0-3.1,2.5-5.7,5.7-5.7c3.1,0,5.7,2.5,5.7,5.7
			C-611.5,976.7-614,979.3-617.2,979.3z"/>
		<g>
			<circle class="st0" cx="-573.5" cy="1003.3" r="5.7"/>
			<circle class="st0" cx="-594.6" cy="1003.3" r="5.7"/>
			<circle class="st0" cx="-552.4" cy="1003.3" r="5.7"/>
		</g>
	</g>
	<rect x="-713.2" y="896.7" class="st1" width="200" height="200"/>
</g>
<g>
	<g>
		<path class="st0" d="M-267,1059.5h-87.5c-2.3,0-4.3-1.9-4.3-4.3V939.1c0-2.3,1.9-4.3,4.3-4.3h104.9c2.3,0,4.3,1.9,4.3,4.3v96.9
			c0,1.1-0.4,2.1-1.1,2.8l-17.4,19.3C-264.7,1059-265.8,1059.5-267,1059.5z M-350.3,1051h81.3l15.1-16.7v-91h-96.4V1051z"/>
		<path class="st0" d="M-275.2,1048.8c-1.6,0-2.8-1.3-2.8-2.8v-16.1c0-1.6,1.3-2.8,2.8-2.8h15.6c1.6,0,2.8,1.3,2.8,2.8
			s-1.3,2.8-2.8,2.8h-12.7v13.2C-272.4,1047.5-273.6,1048.8-275.2,1048.8z"/>
		<g>
			<rect x="-336.1" y="957" class="st0" width="68" height="5.7"/>
			<rect x="-336.1" y="973.6" class="st0" width="68" height="5.7"/>
			<rect x="-336.1" y="990.2" class="st0" width="68" height="5.7"/>
			<rect x="-336.1" y="1006.8" class="st0" width="68" height="5.7"/>
		</g>
	</g>
	<rect x="-402.1" y="897.2" class="st1" width="200" height="200"/>
</g>
<g>
	<g>
		<path class="st0" d="M-11.1,960.2c0.8,17.7,17.7,47.7,23.7,58.1c6,10.4,23.6,40,38.5,49.6c3.6,2.4,9.6,3.1,14.7,2
			c5-1,13.4-4.7,15.1-7.6c1.7-2.9,1.9-5.2,1.5-6.5c-0.7-2.6-3.2-7.4-6.7-12.2c-4-5.6-9.5-10.6-11.7-11.2c-2.2-0.6-4,0.8-5.3,1.9
			c-1.2,1.1-7.5,6.6-10.7,5.4c-3.3-1.1-17.6-21.6-22-29.2C21.6,1003,11,980.4,11.7,977c0.7-3.4,8.5-6,10.1-6.6
			c1.6-0.5,3.7-1.4,4.3-3.6c0.6-2.2-1-9.5-3.8-15.8c-2.5-5.4-5.4-10-7.3-11.9c-1-1-3-2-6.4-1.9c-3.3,0.1-10.7,5.4-14.1,9.3
			C-9,950.3-11.4,955.8-11.1,960.2z"/>
	</g>
	<rect x="-64.3" y="903.8" class="st1" width="200" height="200"/>
</g>
<g>
	<g>
		<path class="st0" d="M558.1,933.8c-3.4-0.9-6.9,1.1-7.8,4.5l-4.8,21.3c-3.2,3.5-6.8,6.9-9.8,9.6h-6.4c6.8-2.7,11.5-9.4,11.5-17.1
			c0-10.2-8.3-18.5-18.5-18.5c-10.2,0-18.5,8.3-18.5,18.5c0,7.7,4.8,14.4,11.5,17.1h-8.4c-2.3-0.1-4.6,1.1-5.8,3.3l-11.6,20.9
			c-0.4,0.7-0.7,1.5-0.8,2.3l-1,18.1c-0.4,3.5,0.8,6.7,4.3,7.1c0.3,0,0.5,0,0.8,0c3.2,0,5.3-2.4,5.7-5.6l2.8-16.9l3.5-5l-1.9,24.6
			l-4.8,12.8c-0.7,1.9-0.5,4,0.6,5.7l8.6,13.5c1.2,1.9,3.3,2.9,5.4,2.9c1.2,0,2.4-0.3,3.4-1c3-1.9,3.8-5.8,2-8.8l-5.9-9.2l10.3-13.2
			l5.9,34c0,3.5,2.8,6.4,6.4,6.4c3.5,0,6.4-2.8,6.4-6.4l1-34.4c0-0.2,0-0.4,0-0.7l-1.6-31.7c4.2-5.6,14.2-19.1,16.2-21.8
			c1.3-1.3,4.7-24.6,4.7-24.6C562.3,938.2,561.5,934.7,558.1,933.8z"/>
		<path class="st0" d="M483.2,1013.3l-2.2-15.8c-0.1-0.8-0.3-1.5-0.7-2.2l-12.1-17.9c-1.1-2-3.2-3.1-5.4-3h-6.6
			c6-2.5,10.2-8.4,10.2-15.3c0-9.1-7.4-16.6-16.6-16.6c-9.1,0-16.5,7.4-16.5,16.6c0,6.9,4.2,12.8,10.2,15.3h-4.8
			c-2.8-2.5-6.2-5.7-9.1-9l-4.5-19.8c-0.9-3.2-4.1-5-7.3-4.2c-3.2,0.8-3.8,4.1-3,7.3c0,0,3.2,21.7,4.4,22.9
			c2.3,3.1,15.9,21.4,16.8,22.5c0.1,0.1,0.2,0.1,0.2,0.2l-1.1,14.2l-7.1,26.2l7.7-0.6l0.6,21.2c0,3.3,2.7,5.9,5.9,5.9
			c3.3,0,5-2.7,5-5.9l2.1-22.2l2.5-0.2l-1.4,5.8c-0.7,1.7-0.5,3.7,0.5,5.3l8,12.6c1.1,1.8,3,2.7,5,2.7c1.1,0,1.4-0.3,2.4-0.9
			c2.8-1.8,2.3-5.4,0.5-8.2l-4.7-8.6l4.3-9.8l7.9-0.6L466,1012l-1.5-19.2l4.8,7.2l3.9,14.7c0.4,3,2.3,5.2,5.3,5.2c0.2,0,0.5,0,0.7,0
			C482.5,1019.5,483.6,1016.5,483.2,1013.3z"/>
	</g>
	<rect x="388.1" y="897.4" class="st1" width="200" height="200"/>
</g>
<g>
	<g>
		<path class="st0" d="M-472.1,1343.2c-0.1,0-0.1-0.1-0.2-0.1c-0.9-0.6-1.8-1.1-2.7-1.6c-0.2-0.1-0.3-0.2-0.5-0.3
			c-0.9-0.5-1.8-0.9-2.8-1.3c-0.2-0.1-0.4-0.2-0.6-0.2c-1-0.4-1.9-0.7-3-1.1c-0.1,0-0.2-0.1-0.3-0.1c-4-1.2-8.2-1.7-12.5-1.5
			c-0.3,0-0.7,0-1,0.1c-0.6,0-1.2,0-1.8,0.1c-6.5,0.8-12.7,3.4-17.9,7.5c-9.1,7.2-14.2,17.7-14.2,29.1c0,12.1,5,22.2,15.2,30.9
			c1.2,1,2.3,5,3,7.9c1.1,4.2,2.4,9.3,5.6,12.5c0.6,0.6,1.5,0.9,2.3,0.9h21.4c0.9,0,1.7-0.3,2.3-0.9c3.2-3.1,4.5-8.3,5.6-12.5
			c0.8-2.9,1.8-6.9,3-7.9c10.3-8.7,15.2-18.8,15.2-30.9c0-9.9-3.8-19.1-10.8-26.1C-468.3,1346-470.2,1344.5-472.1,1343.2z
			 M-477.1,1397.4c-3.5,3-4.8,7.9-6,12.7c-0.9,3.3-2.1,8.3-3.7,8.3h-11.6c-1.5,0-2.8-5-3.7-8.3c-1.2-4.8-2.5-9.8-6-12.7
			c-8.1-6.9-11.9-14.4-11.9-23.6c0-7.3,2.9-14.2,8-19.4c5.2-5.2,12.1-8,19.4-8c7.3,0,14.2,2.9,19.4,8c5.2,5.2,8,12.1,8,19.4
			C-465.3,1383-469,1390.6-477.1,1397.4z"/>
		<path class="st0" d="M-505.3,1435.3c0,4,2,9.9,5.6,9.9c3.6,0,10.1,0,14.2,0s5.5-5.6,5.6-9.5c0-0.1,0-0.2,0-0.3h0c0,0,0,0,0,0
			H-505.3L-505.3,1435.3z"/>
		<g>
			<path class="st0" d="M-492.7,1304.7c-2.6,0-4.8,2.1-4.8,4.8l1.2,14c0,1.9,1.6,3.5,3.6,3.5s3.5-1.6,3.6-3.5l1.2-13.9l0-0.1
				C-487.9,1306.8-490,1304.7-492.7,1304.7z"/>
			<path class="st0" d="M-536.3,1322.4L-536.3,1322.4c-0.3-0.3-0.5-0.4-0.6-0.5c-0.2-0.1-0.4-0.3-0.6-0.4c-0.4-0.2-0.7-0.4-1.1-0.5
				c-0.2,0-0.3-0.1-0.5-0.1c-0.4-0.1-0.9-0.1-1.3,0c-0.2,0-0.3,0.1-0.5,0.1c-0.4,0.1-0.8,0.3-1.1,0.5c-0.2,0.1-0.4,0.2-0.5,0.4
				c-0.1,0.1-0.3,0.2-0.5,0.4c-1.9,1.9-1.9,4.9,0,6.7l10.7,9c0.7,0.6,1.5,1,2.5,1c0,0,0,0,0,0c1,0,1.9-0.4,2.5-1
				c0.7-0.7,1-1.6,1-2.5c0-0.9-0.4-1.8-1-2.5L-536.3,1322.4z"/>
			<path class="st0" d="M-544.7,1364.3l-13.4-3.6l-0.1,0c-1.3-0.2-2.5,0.1-3.6,0.8c-1,0.7-1.7,1.8-2,3.1c-0.2,1.3,0.1,2.5,0.8,3.6
				c0.7,1,1.8,1.7,3.1,2l14,1.2c0.2,0,0.4,0,0.6,0c1.7,0,3.2-1.2,3.5-3C-541.5,1366.6-542.8,1364.7-544.7,1364.3z"/>
			<path class="st0" d="M-441.8,1329.1c0.9-0.9,1.4-2.1,1.4-3.4c0-1.3-0.5-2.5-1.4-3.4c-0.2-0.2-0.4-0.3-0.5-0.4
				c-0.2-0.1-0.3-0.2-0.5-0.3c-0.4-0.2-0.8-0.4-1.1-0.5c-0.2,0-0.3-0.1-0.5-0.1c-0.4-0.1-0.9-0.1-1.3,0c-0.2,0-0.4,0.1-0.5,0.1
				c-0.4,0.1-0.8,0.3-1.2,0.5c-0.2,0.1-0.4,0.2-0.5,0.4c-0.1,0.1-0.3,0.2-0.5,0.4l-9,10.7c-1.3,1.4-1.3,3.6,0,5c0.7,0.7,1.6,1,2.5,1
				c0.9,0,1.8-0.4,2.5-1L-441.8,1329.1L-441.8,1329.1z"/>
			<path class="st0" d="M-421.6,1364.6c-0.2-1.3-0.9-2.3-2-3.1c-1-0.7-2.3-1-3.6-0.8l-13.6,3.6c-1.9,0.4-3.2,2.2-2.8,4.1
				c0.3,1.7,1.8,3,3.5,3c0.2,0,0.4,0,0.6,0l13.8-1.2l0.1,0c1.3-0.2,2.3-0.9,3.1-2C-421.7,1367.1-421.4,1365.9-421.6,1364.6z"/>
		</g>
		<path class="st0" d="M-479.3,1431.4c0,0.8-0.6,1.4-1.4,1.4h-23.9c-0.8,0-1.4-0.6-1.4-1.4v-1.4c0-0.8,0.6-1.4,1.4-1.4h23.9
			c0.8,0,1.4,0.6,1.4,1.4V1431.4z"/>
	</g>
	<rect x="-592.7" y="1274.9" class="st1" width="200" height="200"/>
</g>
<g>
	<g>
		<rect x="84.5" y="1356" class="st0" width="36.4" height="36.4"/>
		<g>
			<path class="st0" d="M-8.6,1392.4h-47.1l23.5-40.8L-8.6,1392.4z"/>
		</g>
		<path class="st0" d="M110.6,1397.4H93c-4.3,0-8,3.1-8.6,7.4l-3.8,18.4l-18.4-27.1c-1.9-3.6-6-5.3-9.8-4.4c9.6-6.1,16-16.8,16-29
			c0-18.9-15.3-34.2-34.2-34.2c-18.9,0-34.2,15.3-34.2,34.2c0,12.2,6.4,23,16.1,29c-3.8-1-8,0.7-9.9,4.3l-18.4,27.1l-3.8-18.4
			c-0.7-4.3-4.3-7.4-8.6-7.4h-17.6c-4.8,0-8.7,3.9-8.7,8.7c0,4.8,3.9,8.7,8.7,8.7h10.1l8.8,26.6c0.6,3.7,3.5,6.7,7.2,7.3
			c0.5,0.1,1,0.1,1.5,0.1c3.2,0,5.2-1.7,7.7-4.6l15.2-16.5l-2.3,28.3h56.6l-2.3-28.2l15.1,16.3c2.8,2.8,4.5,4.6,7.7,4.6
			c0.5,0,1,0,1.5-0.1c3.7-0.6,6.6-3.6,7.2-7.3l8.8-26.6h10.1c4.8,0,8.7-3.9,8.7-8.7C119.4,1401.3,115.5,1397.4,110.6,1397.4z
			 M33.1,1408c-3.4,0-6-2.4-6-6c0-3.6,2.6-6,6-6c3.3,0,6,2.4,6,6C39.1,1405.6,36.4,1408,33.1,1408z M45.3,1374.6
			c-4.7,3.2-7.6,4.8-7.6,9.7v1.5c0,2.5-1.7,3.8-4.5,3.8c-2.8,0-4.6-1.3-4.6-3.8v-1.6c0-4.4,0.9-6.9,2.8-9.4c1.5-1.9,2.2-2.5,6.8-5.5
			c4.5-3.1,6-4.7,6-8c0-4.6-3.6-7.3-9.3-7.3c-5.5,0-8.4,2.7-10,7.1c-0.9,2.2-2.3,3-4.1,3c-0.7,0-1.4-0.1-2.2-0.4
			c-1.9-0.5-3.6-1.7-3.6-3.9c0-0.4,0.1-1,0.3-1.6c1.2-3.3,3.1-6.2,5.8-8.4c3.5-2.7,8-4.3,14.4-4.3c11.5,0,18.8,5.9,18.8,15.1
			C54.3,1367.8,50.3,1371.1,45.3,1374.6z"/>
	</g>
	<rect x="-67.4" y="1292.3" class="st1" width="200" height="200"/>
</g>
<g>
	<g>
		<path class="st0" d="M574.4,1370c6.7-7.9,11-14.8,12.9-20.5c2.5-7.8,0.1-12.5-2.4-15l-0.2-0.2c-2.3-2.2-5.3-3.4-8.8-3.4
			c-1.9,0-4,0.4-6.2,1.1c-5.7,1.8-12.6,6.2-20.5,12.9c-5.5,4.6-10.7,9.9-15.6,15.5c-0.5,0.6-13.8,16.1-25.4,29.6
			c0.6,0.8,5.3,7.3,9.5,11.5c3.8,3.8,9.8,8.3,11.4,9.5c13.8-11.8,29.8-25.4,29.8-25.4C564.5,1380.7,569.8,1375.5,574.4,1370z"/>
		<path class="st0" d="M512.6,1406.8c-3.8-3.8-7.7-9-9.1-10.9c-6,7-11.6,13.4-12.1,13.9c-2.7,2.9,0,6.5,0.9,7.7
			c1.1,1.5,2.7,3.2,4.4,5c1.8,1.8,3.5,3.3,5,4.4c1,0.7,2.8,2.1,4.8,2.1c1.1,0,2.1-0.4,2.9-1.1c0.4-0.4,6.9-6.1,14-12.1
			C517.2,1411.4,517.1,1411.3,512.6,1406.8C512.5,1406.8,512.6,1406.8,512.6,1406.8z"/>
		<path class="st1" d="M479.1,1448.4c2.3-2.3,2.3-5.9,0-8.2c-2.3-2.3-5.9-2.3-8.2,0c-1.9,1.9-2.2,4.8-0.9,7l-16.1,16.8l1.4,1.4
			l16.8-16.1C474.3,1450.5,477.2,1450.3,479.1,1448.4z"/>
		<path class="st0" d="M470,1447.2c-1.3-2.2-1-5.1,0.9-7c2.3-2.3,5.9-2.3,8.2,0c2.3,2.3,2.3,5.9,0,8.2c-1.9,1.9-4.8,2.2-7,0.9
			l-16.8,16.1l1.7,1.7c6.5-2.9,16.5-6.5,26.9-6.6c3.2-7.2,7.9-16,15.8-24.8c0.9-1,1.9-2.1,2.9-3.1c0,0,0,0,0,0c0,0,0,0,0,0
			c-0.8-0.5-1.6-0.8-2.1-1.2c-1.9-1.5-4.5-3.3-6.9-5.7c-2.4-2.4-4.2-5-5.7-6.9c-0.3-0.4-0.6-1.1-1-1.8c0-0.1-0.1-0.1-0.1-0.2
			c0,0,0,0,0,0c0,0,0,0,0,0c-9.8,9.6-19.8,15.1-27.9,18.7c-0.4,10.1-3.9,20.2-6.8,26.8l1.8,1.8L470,1447.2z"/>
	</g>
	<rect x="420.2" y="1299" class="st1" width="200" height="200"/>
</g>
<g>
	<g>
		<path class="st0" d="M-461.2,1689.3h-20.8v-9.2h14l-7.1-18.2h-86.1l-7.1,18.2h15.7v9.2h-22.4c-1.5,0-2.9-0.8-3.8-2
			c-0.9-1.3-1-2.9-0.5-4.3l10.7-27.5c0.7-1.8,2.4-2.9,4.3-2.9h92.4c1.9,0,3.6,1.2,4.3,2.9l10.7,27.5c0.6,1.4,0.4,3-0.5,4.3
			C-458.2,1688.5-459.6,1689.3-461.2,1689.3z"/>
		<path class="st0" d="M-479.9,1715.4h-76.5v-46.9h76.5V1715.4z M-550.7,1709.7h65.2v-35.6h-65.2V1709.7z"/>
		<path class="st0" d="M-461.2,1807.8h-113.9c-2.5,0-4.6-2.1-4.6-4.6v-116.6c0-2,1.3-3.8,3.3-4.4c1.9-0.6,4,0.2,5.2,1.8l16.1,24
			h74.1l16.1-24c1.1-1.7,3.2-2.4,5.2-1.8c1.9,0.6,3.3,2.4,3.3,4.4v116.6C-456.6,1805.7-458.6,1807.8-461.2,1807.8z M-570.5,1798.6
			h104.7v-96.8l-9,13.5c-0.9,1.3-2.3,2-3.8,2h-79c-1.5,0-3-0.8-3.8-2l-9-13.5V1798.6z"/>
		<g>
			<path class="st0" d="M-552.9,1771.7l-3.5,8.7h-13.8l19.2-50h14.2l18.8,50h-13.9l-3.3-8.7H-552.9z M-543.8,1745.9h-0.1l-5.4,15.9
				h10.8L-543.8,1745.9z"/>
			<path class="st0" d="M-466.3,1754.5c0,16.2-11.6,27.6-27.7,27.6c-16.1,0-27.7-11.4-27.7-27.6c0-15.1,13.3-25.7,27.7-25.7
				S-466.3,1739.4-466.3,1754.5z M-508.1,1754.5c0,8.6,6.4,14.9,14.1,14.9c7.8,0,14.1-6.3,14.1-14.9c0-6.9-6.4-13.2-14.1-13.2
				C-501.8,1741.3-508.1,1747.6-508.1,1754.5z"/>
		</g>
		<g>
			<rect x="-543.3" y="1680.7" class="st0" width="51" height="4.3"/>
			<rect x="-543.3" y="1689.5" class="st0" width="51" height="4.3"/>
			<rect x="-543.3" y="1698.3" class="st0" width="51" height="4.3"/>
		</g>
	</g>
	<rect x="-618.1" y="1630.2" class="st1" width="200" height="200"/>
</g>
<g>
	<g>
		<rect x="-181.5" y="1622.1" class="st1" width="200" height="200"/>
		<g>
			<path class="st0" d="M-82.4,1748c-4.2-1.4-6.6,2.9-6.9,3.6c-0.2,0.7-5.1,11.5-5.1,11.5l-9.1-12.2c-1.2-2.3-4.1-3.9-7.1-3.9
				l-2.3-0.1c6-2.7,10.2-8.7,10.2-15.7c0-9.5-7.7-17.2-17.2-17.2c-9.5,0-17.2,7.7-17.2,17.2c0,6.6,3.7,12.4,9.2,15.2l-2.5-0.1
				c0,0-30.2-24.2-31-24.7s-4.1-2.1-6.6,0.8c-2.1,2.5-0.8,6.5,0.9,7.8c0.8,0.6,32.1,31.3,32.1,31.3l-2.6,19.7h15.8h1.5h15.8
				l-1.2-12.5l8.2,6.2c2.1,2.1,4.9,2.1,6.3,1.7c1.9-0.6,2.8-2.1,4.1-5.2c0,0,7.6-16.1,8-17.1C-78.8,1753.2-78.4,1749.3-82.4,1748z"
				/>
			<path class="st0" d="M-14.3,1663.1h-61.8c-11.9,0-21.6,9.7-21.6,21.6v24.7c0,6.5,2.9,12.4,7.6,16.4l-5.2,15.1l17.8-9.9
				c0.5,0,1,0.1,1.4,0.1h61.8c11.9,0,21.6-9.7,21.6-21.6v-24.7C7.3,1672.8-2.4,1663.1-14.3,1663.1z"/>
			<g>
				<path class="st0" d="M-54.3,1774.2c-1.3,0-2.4-0.9-2.7-2.1c-3.2-12.7-9.6-12.9-9.9-12.9c-1.5,0.1-2.7-1.1-2.8-2.6
					c-0.1-1.5,1-2.8,2.5-3c6.1-0.6,8.5-6.2,10-11.6c0.1-0.4,0.2-0.8,0.3-1.1c0.4-1.1,1.4-1.9,2.6-1.9c1.2,0,2.3,0.7,2.7,1.8
					c0.2,0.6,0.4,1.4,0.6,2.3c0.9,3.6,2.3,9.1,7.5,10.7c1.1,0.4,1.9,1.4,1.9,2.6c0,1.2-0.7,2.3-1.8,2.7c-6.5,2.3-8.1,12.5-8.1,12.6
					c-0.2,1.3-1.3,2.3-2.6,2.4C-54.2,1774.2-54.2,1774.2-54.3,1774.2z M-59.6,1756.6c1.7,1.4,3.5,3.4,5.1,6.4
					c1.1-2.2,2.5-4.4,4.5-6.2c-2.2-1.8-3.6-4-4.6-6.2C-55.6,1752.8-57.3,1755-59.6,1756.6z"/>
			</g>
			<g>
				<path class="st0" d="M-149.4,1717.5c-1.4,0-2.6-0.9-2.9-2.3c-4.7-18.8-14.5-18.9-14.9-18.9c-1.6,0.1-3-1.2-3.1-2.8
					c-0.1-1.6,1.1-3,2.7-3.2c10.4-1,13.6-12.3,14.9-17.1c0.2-0.6,0.3-1.1,0.4-1.5c0.4-1.2,1.5-2.1,2.8-2.1c0,0,0,0,0.1,0
					c1.3,0,2.4,0.8,2.8,2c0.3,0.8,0.6,1.9,0.9,3.1c1.3,5.3,3.4,13.4,11.2,15.9c1.2,0.4,2.1,1.5,2.1,2.8c0,1.3-0.8,2.5-2,2.9
					c-9.8,3.4-12,18.4-12,18.6c-0.2,1.4-1.4,2.5-2.8,2.6C-149.3,1717.5-149.3,1717.5-149.4,1717.5z M-158.5,1693.5
					c3,2.1,6.2,5.5,8.8,11.2c1.6-3.8,4.1-8,7.9-11c-4.1-2.9-6.4-7.1-7.9-11C-151.4,1686.6-154.1,1690.7-158.5,1693.5z"/>
			</g>
		</g>
	</g>
	<rect x="-181.5" y="1622.1" class="st1" width="200" height="200"/>
</g>
<g>
	<g>
		<path class="st0" d="M16,16.9c0.3,5.3,5.3,14.3,7.1,17.4c1.8,3.1,7.1,12,11.5,14.9c1.1,0.7,2.9,0.9,4.4,0.6c1.5-0.3,4-1.4,4.5-2.3
			c0.5-0.9,0.6-1.5,0.4-1.9c-0.2-0.8-1-2.2-2-3.7c-1.2-1.7-2.9-3.2-3.5-3.4c-0.7-0.2-1.2,0.2-1.6,0.6c-0.4,0.3-2.2,2-3.2,1.6
			c-1-0.3-5.3-6.5-6.6-8.8c-1.3-2.3-4.5-9.1-4.3-10.1c0.2-1,2.6-1.8,3-2c0.5-0.2,1.1-0.4,1.3-1.1c0.2-0.7-0.3-2.9-1.2-4.7
			c-0.7-1.6-1.6-3-2.2-3.6c-0.3-0.3-0.9-0.6-1.9-0.6c-1,0-3.2,1.6-4.2,2.8C16.6,14,15.9,15.6,16,16.9z"/>
	</g>
	<rect class="st1" width="60" height="60"/>
</g>
</svg>
