<?xml version="1.0" encoding="utf-8"?>
<!-- Generator: Adobe Illustrator 16.0.4, SVG Export Plug-In . SVG Version: 6.00 Build 0)  -->
<!DOCTYPE svg PUBLIC "-//W3C//DTD SVG 1.1//EN" "http://www.w3.org/Graphics/SVG/1.1/DTD/svg11.dtd">
<svg version="1.1" id="レイヤー_1" xmlns="http://www.w3.org/2000/svg" xmlns:xlink="http://www.w3.org/1999/xlink" x="0px"
	 y="0px" width="280.45px" height="52.819px" viewBox="0 0 280.45 52.819" enable-background="new 0 0 280.45 52.819"
	 xml:space="preserve">
<path fill="#06275E" d="M106.358,24.238c0,0.239,0.196,0.429,0.427,0.429h13.121c0.233,0,0.426-0.19,0.426-0.429v-1.328
	c0-0.236-0.193-0.432-0.426-0.432h-13.121c-0.231,0-0.427,0.196-0.427,0.432V24.238z"/>
<path fill="#06275E" d="M106.358,28.825c0,0.233,0.196,0.427,0.427,0.427h13.121c0.233,0,0.426-0.193,0.426-0.427V27.33
	c0-0.234-0.193-0.428-0.426-0.428h-13.121c-0.231,0-0.427,0.193-0.427,0.428V28.825z"/>
<path fill="#06275E" d="M106.535,33.232c0,0.234,0.188,0.427,0.424,0.427h13.118c0.24,0,0.431-0.192,0.431-0.427v-1.494
	c0-0.236-0.191-0.426-0.431-0.426h-13.118c-0.236,0-0.424,0.189-0.424,0.426V33.232z"/>
<path fill="#06275E" d="M106.358,37.437c0,0.232,0.196,0.431,0.427,0.431h13.121c0.233,0,0.426-0.198,0.426-0.431v-1.491
	c0-0.237-0.193-0.429-0.426-0.429h-13.121c-0.231,0-0.427,0.191-0.427,0.429V37.437z"/>
<path fill="#06275E" d="M133.676,25.075c0.067-0.225,0.313-0.407,0.549-0.407h3.79c0.234,0,0.424-0.19,0.424-0.429v-1.328
	c0-0.236-0.19-0.432-0.424-0.432h-15.797c-0.233,0-0.424,0.196-0.424,0.432v1.328c0,0.239,0.191,0.429,0.424,0.429h3.75
	c0.236,0,0.375,0.184,0.316,0.412l-0.383,1.412c-0.064,0.226-0.308,0.41-0.541,0.41h-2.366c-0.235,0-0.431,0.194-0.431,0.43v1.493
	c0,0.234,0.196,0.427,0.431,0.427h1.729c0.232,0,0.377,0.185,0.316,0.412l-1.484,5.439c-0.06,0.229-0.303,0.415-0.533,0.415h-0.69
	c-0.238,0-0.431,0.19-0.431,0.428v1.492c0,0.231,0.193,0.429,0.431,0.429h15.683c0.234,0,0.424-0.197,0.424-0.429v-1.492
	c0-0.237-0.126-0.428-0.284-0.428c-0.155,0-0.282-0.2-0.282-0.427v-7.707c0-0.233-0.192-0.424-0.426-0.424h-2.825
	c-0.237,0-0.486,0.183-0.552,0.408l-2.331,7.742c-0.067,0.221-0.202,0.407-0.437,0.407h-0.378c-0.238,0-0.281-0.187-0.211-0.41
	L133.676,25.075z"/>
<path fill="#06275E" d="M135.742,39.982h-0.86h-11.494h-0.857h-0.321c-0.233,0-0.425,0.191-0.425,0.432v0.315v0.854v9.654v0.855
	v0.295c0,0.236,0.192,0.429,0.425,0.429h0.321h0.857h11.494h0.86h2.299c0.237,0,0.428-0.192,0.428-0.429v-0.295v-0.855v-9.654
	v-0.854v-0.315c0-0.24-0.191-0.432-0.428-0.432H135.742z M131.418,42.14c0.232,0,0.425,0.193,0.425,0.429v7.493
	c0,0.236-0.193,0.43-0.425,0.43h-2.583c-0.233,0-0.427-0.193-0.427-0.43v-7.493c0-0.235,0.194-0.429,0.427-0.429H131.418z"/>
<path fill="#06275E" d="M146.208,46.97c-0.232,0-0.336,0.164-0.217,0.367l2.928,5.109c0.117,0.2,0.408,0.37,0.641,0.37h5.668
	c0.236,0,0.331-0.167,0.205-0.364l-3.129-5.119c-0.124-0.203-0.416-0.363-0.65-0.363H146.208z"/>
<path fill="#06275E" d="M181.668,22.479h-0.856h-2.595c-0.235,0-0.432,0.196-0.432,0.432v0.414v0.856v28.208
	c0,0.235,0.196,0.428,0.432,0.428h5.685c0.23,0,0.424-0.192,0.424-0.428V38.39c0-0.23,0.191-0.424,0.429-0.424h6.521h0.856h0.323
	c0.232,0,0.428-0.192,0.428-0.428v-0.322v-0.854V24.181v-0.856v-0.414c0-0.236-0.195-0.432-0.428-0.432h-0.323h-0.856H181.668z
	 M186.171,28.598c0,0.241-0.193,0.431-0.43,0.431h-0.898c-0.24,0-0.433-0.189-0.433-0.431v-3.242c0-0.238,0.192-0.429,0.433-0.429
	h0.898c0.236,0,0.43,0.191,0.43,0.429V28.598z M184.41,31.802c0-0.235,0.192-0.43,0.433-0.43h0.898c0.236,0,0.43,0.194,0.43,0.43
	v3.389c0,0.236-0.193,0.428-0.43,0.428h-0.898c-0.24,0-0.433-0.191-0.433-0.428V31.802z"/>
<path fill="#06275E" d="M216.61,22.479c-0.24,0-0.339,0.172-0.232,0.381l2.051,3.788c0.109,0.205,0.396,0.375,0.629,0.375h5.555
	c0.237,0,0.334-0.167,0.223-0.369l-2.152-3.8c-0.109-0.203-0.402-0.375-0.633-0.375H216.61z"/>
<path fill="#06275E" d="M224.404,22.479c-0.235,0-0.336,0.172-0.224,0.381l2.043,3.788c0.115,0.205,0.393,0.375,0.633,0.375h5.551
	c0.237,0,0.334-0.167,0.217-0.369l-2.14-3.8c-0.118-0.203-0.405-0.375-0.64-0.375H224.404z"/>
<path fill="#06275E" d="M244.448,28.328h-0.855h-2.01c-0.24,0-0.422-0.19-0.422-0.428v-4.99c0-0.236-0.201-0.432-0.432-0.432h-5.766
	c-0.232,0-0.428,0.196-0.428,0.432v4.99c0,0.237-0.191,0.428-0.426,0.428h-19.594h-0.859h-0.318c-0.23,0-0.43,0.197-0.43,0.432
	v0.564v0.855v5.213c0,0.235,0.199,0.426,0.43,0.426h5.938c0.236,0,0.425-0.19,0.425-0.426v-4.25c0-0.234,0.193-0.428,0.43-0.428
	h17.845c0.229,0,0.423,0.193,0.423,0.428v3.998c0,0.233,0.197,0.426,0.43,0.426h5.932c0.236,0,0.432-0.192,0.432-0.426v-4.961
	v-0.855v-0.564c0-0.234-0.195-0.432-0.432-0.432H244.448z"/>
<path fill="#06275E" d="M33.005,45.462c-6.475-1.004-11.503-5.317-12.487-13.219v-0.595h0.008c0-0.252,0.092-0.426,0.408-0.426
	l0.04-0.019h11.854c0.134,0,0.333-0.23,0.336-0.43v-1.464c-0.003-0.22-0.159-0.401-0.365-0.456H21.015
	c-0.272,0-0.489-0.119-0.489-0.38l-0.013-0.095v-5.542c-0.045-0.185-0.2-0.329-0.391-0.359h-6.574
	c-0.231,0.037-0.404,0.228-0.404,0.469h-0.012v5.469c0,0.256-0.145,0.438-0.364,0.438H0.957v0.012c-0.246,0-0.448,0.19-0.474,0.431
	v1.534c-0.009,0.187,0.16,0.373,0.347,0.373l11.842,0.008c0.275,0,0.417,0.16,0.417,0.395h0.014
	c-0.38,7.168-3.297,14.364-12.534,17.338c-0.014,0,0.007-0.004,0,0C0.352,49.037,0,49.338,0,49.682v2.651
	c0.014,0.291,0.312,0.416,0.497,0.439c7.23-0.595,13.828-4.008,17.779-10.595c3.199,7.899,10.478,10.41,14.633,10.619
	c0.198-0.035,0.351-0.2,0.376-0.408v-6.507C33.285,45.648,33.155,45.529,33.005,45.462"/>
<path fill="#06275E" d="M48.578,24.85v-1.901h-0.007c0-0.242-0.18-0.433-0.407-0.47h-1.27h-7.379H37.04
	c-0.227,0.037-0.405,0.228-0.405,0.47h-0.026v0.767v28.618h0.013c0,0.264,0.215,0.478,0.472,0.478v0.006h5.468v-0.006
	c0.259,0,0.475-0.214,0.475-0.478h0.018v-5.475c2.818,0.591,4.173-0.627,5.376-2.741c1.425-2.513,0.474-7.209-1.819-10.116
	L48.578,24.85z M43.055,24.85h1.546l-1.546,6.674V24.85z M45.078,40.931c-0.086,1.398-2.044,2.351-2.023,1.003v-7.081
	C45.608,37.802,45.107,39.871,45.078,40.931"/>
<path fill="#06275E" d="M69.234,47.763c0-0.266-0.212-0.475-0.474-0.475v-0.002c-3.58-0.531-7.672-6.559-7.672-8.643v-7.041
	c-0.046-0.213-0.237-0.369-0.457-0.369v-0.029h-2.478v0.029c-0.262,0-0.471,0.211-0.471,0.471v9.57
	c0,5.711,4.916,11.223,11.078,11.521v-0.029c0.262,0,0.474-0.211,0.474-0.478V47.763z"/>
<path fill="#06275E" d="M89.215,22.479h-3.061h-8.38h-2.842c-0.228,0.037-0.402,0.228-0.402,0.47v0.883l0.005,10.91
	c0.021,1.16-0.87,2.445-1.917,2.419h-0.381v0.026c-0.263,0-0.475,0.211-0.475,0.477h-0.026V40.3h0.026
	c0,0.238,0.174,0.437,0.405,0.475h2.42c4.203-0.006,5.866-1.038,6.27-3.494l1.978,1.797v4.702c-0.006,2.237-2.461,5.2-5.09,5.2
	h-4.418v0.011c-0.263,0-0.477,0.209-0.477,0.472h-0.027v2.871h0.027c0,0.264,0.214,0.478,0.477,0.478v0.006h5.197
	c5.87,0.056,11.006-1.374,11.006-7.808V23.832v-0.969C89.503,22.683,89.382,22.538,89.215,22.479 M82.835,32.308l-1.876-1.857
	v-4.775h0.025c0-0.263,0.214-0.477,0.477-0.477V25.17h0.877v0.007c0.266,0,0.477,0.214,0.477,0.474h0.02V32.308z"/>
<path fill="#06275E" d="M103.945,37.22v-0.205c0-0.172-0.062-0.318-0.207-0.444l-0.267-0.161L97.942,33V22.863
	c-0.027-0.18-0.148-0.325-0.315-0.384H91.95c-0.226,0.037-0.401,0.228-0.401,0.47H91.53l0.003,29.292v0.11
	c0,0.261,0.217,0.466,0.477,0.466h0.107h5.356c0.208,0,0.46-0.194,0.469-0.466V37.792l5.486,5.213c0.31,0.295,0.517,0.02,0.53-0.328
	L103.945,37.22z"/>
<path fill="#06275E" d="M69.234,24.545v-1.597c0-0.241-0.175-0.432-0.404-0.469H51.027h-1.044c-0.159,0.08-0.269,0.239-0.269,0.426
	h-0.026v0.7v23.028c0,1.032-0.838,2.347-1.932,2.347h-0.262v0.01c-0.263,0-0.48,0.209-0.48,0.473h-0.012v3.027
	c0.066,0.187,0.246,0.321,0.449,0.321v0.005h4.58c1.145,0,2.149-0.546,2.903-1.303c1.015-1.016,1.377-2.45,1.377-3.454V25.381h0.026
	c0-0.263,0.214-0.48,0.474-0.48v-0.008h11.973C69,24.89,69.177,24.745,69.234,24.545"/>
<path fill="#06275E" d="M69.234,27.349c0-0.26-0.212-0.473-0.474-0.473v-0.027h-2.978h-7.629v0.027
	c-0.262,0-0.471,0.211-0.471,0.471v1.582c0.055,0.13,0.177,0.231,0.318,0.267h3.971v0.022c0.222,0,0.407,0.16,0.459,0.365v10.512
	c0,4.55-3.1,7.354-5.531,8.979c-0.053,0.082-0.106,0.156-0.099,0.323v3.158c0.035,0.152,0.228,0.246,0.405,0.248
	c4.766-0.189,12.029-4.116,12.029-14.498V28.005V27.349z"/>
<path fill="#06275E" d="M119.866,52.817c0.26,0,0.474-0.216,0.474-0.476h0.019v-0.678V41.155v-0.806
	c-0.048-0.205-0.239-0.36-0.461-0.36v-0.007h-0.712h-11.657h-0.677v0.053c-0.263,0-0.48,0.214-0.48,0.479h-0.014v0.642v10.509v0.678
	h0.014c0,0.26,0.217,0.476,0.48,0.476h10.38H119.866z M114.072,50.062c0,0.236-0.189,0.43-0.427,0.43h-0.57
	c-0.236,0-0.43-0.193-0.43-0.43v-7.493c0-0.235,0.194-0.429,0.43-0.429h0.57c0.238,0,0.427,0.193,0.427,0.429V50.062z"/>
<path fill="#06275E" d="M161.702,27.58c0-0.246,0.19-0.446,0.431-0.469h11.717c0.253,0,0.45-0.193,0.476-0.434V25.23
	c-0.006-0.239-0.184-0.436-0.414-0.471h-11.83c-0.211-0.04-0.375-0.234-0.375-0.465h-0.016v-1.49
	c-0.049-0.162-0.183-0.288-0.354-0.326h-5.907c-0.247,0.025-0.44,0.223-0.44,0.47h-0.008v1.462
	c-0.059,0.199-0.231,0.338-0.449,0.338v0.011h-11.865c-0.233,0.035-0.413,0.232-0.413,0.471h-0.011v1.398h0.011
	c0,0.26,0.212,0.473,0.478,0.473v0.01h11.811c0.24,0.017,0.422,0.201,0.439,0.432v0.624c-0.002,0.245-0.19,0.442-0.431,0.469
	h-10.522h-0.692c-0.259,0-0.474,0.213-0.474,0.478h-0.008v0.693v10.906v0.699h0.008c0,0.26,0.205,0.469,0.465,0.472h0.701h19.633
	c0.184,0.065,0.316,0.243,0.316,0.45h0.014v0.441h-0.014c0,0.266-0.217,0.475-0.482,0.475v0.011h-20.764v0.021
	c-0.266,0-0.478,0.213-0.478,0.473h-0.011v1.385h0.011c0,0.247,0.19,0.452,0.435,0.469h20.916v0.006
	c0.213,0,0.387,0.168,0.387,0.377v1.3c-0.039,1.062-0.623,1.69-1.957,1.69h-1.571v0.037c-0.215,0-0.397,0.15-0.449,0.35v3.123
	c0.019,0.18,0.237,0.326,0.437,0.326h4.371c4.418,0,5.927-1.324,5.927-5.236v-1.492h0.006c0-0.264,0.217-0.475,0.471-0.475v-0.006
	l2.632,0.016c0.237,0,0.43-0.2,0.469-0.43v-1.601c-0.02-0.231-0.207-0.334-0.396-0.332h-2.804c-0.213-0.045-0.372-0.235-0.372-0.467
	h-0.006v-0.44h0.006c0-0.246,0.188-0.443,0.425-0.47h1.409l0.69-0.006c0.264,0,0.502-0.224,0.502-0.485l-0.016-0.68V29.806v-0.798
	c-0.049-0.209-0.24-0.364-0.464-0.364v-0.009h-0.713H162.11c-0.229-0.032-0.408-0.229-0.408-0.472h-0.012V27.58H161.702z
	 M154.981,39.113c0,0.233-0.193,0.427-0.423,0.427h-4.511c-0.236,0-0.43-0.193-0.43-0.427v-2.146c0-0.235,0.193-0.426,0.43-0.426
	h4.511c0.229,0,0.423,0.19,0.423,0.426V39.113z M154.981,33.765c0,0.237-0.193,0.428-0.423,0.428h-4.511
	c-0.236,0-0.43-0.19-0.43-0.428v-2.354c0-0.235,0.193-0.43,0.43-0.43h4.511c0.229,0,0.423,0.194,0.423,0.43V33.765z M167.056,39.113
	c0,0.233-0.191,0.427-0.429,0.427h-4.511c-0.235,0-0.426-0.193-0.426-0.427v-2.146c0-0.235,0.19-0.426,0.426-0.426h4.511
	c0.237,0,0.429,0.19,0.429,0.426V39.113z M167.056,31.412v2.354c0,0.237-0.191,0.428-0.429,0.428h-4.511
	c-0.235,0-0.426-0.19-0.426-0.428v-2.354c0-0.235,0.19-0.43,0.426-0.43h4.511C166.864,30.982,167.056,31.176,167.056,31.412"/>
<path fill="#06275E" d="M209.841,22.479h-0.789h-12.988h-0.798c-0.209,0.051-0.37,0.239-0.37,0.464h-0.003v0.814v13.037v0.702h0.003
	c0,0.257,0.215,0.471,0.48,0.471h0.688h7.186c0.195,0.032,0.346,0.174,0.389,0.365v8.748c0,1.229-1.042,1.977-1.955,1.977h-1.9
	c-0.238,0.027-0.423,0.224-0.423,0.467v2.828c0,0.231,0.175,0.431,0.397,0.466h6.171c0.957,0,1.918-0.249,2.704-1.038
	c0.988-0.985,1.596-2.044,1.596-4.699V23.757v-0.969C210.173,22.619,210.022,22.5,209.841,22.479 M201.51,25.355
	c0-0.238,0.196-0.428,0.433-0.428h1.268c0.234,0,0.428,0.19,0.428,0.428v3.242c0,0.242-0.193,0.432-0.428,0.432h-1.268
	c-0.236,0-0.433-0.189-0.433-0.432V25.355z M201.51,35.191v-3.389c0-0.235,0.196-0.429,0.433-0.429h1.268
	c0.234,0,0.428,0.193,0.428,0.429v3.389c0,0.236-0.193,0.429-0.428,0.429h-1.268C201.706,35.62,201.51,35.427,201.51,35.191"/>
<path fill="#06275E" d="M244.631,41.275v-0.008h-11.648c-0.112-0.01-0.202-0.096-0.202-0.209v-0.026c0-0.08,0.047-0.146,0.107-0.183
	c3.227-0.608,4.506-2.803,4.506-5.369v-1.909c-0.057-0.199-0.234-0.345-0.452-0.345v-0.004h-0.723h-15.024v0.004
	c-0.256,0-0.471,0.209-0.471,0.479h-0.01v1.391h0.013c0,0.254,0.198,0.457,0.447,0.472h8.31c0.93,1.516-0.46,3.29-2.561,3.514
	h-1.137c-0.211,0.046-0.371,0.236-0.371,0.466h-0.01v1.396c-0.05,0.158-0.171,0.277-0.334,0.324h-11.584v0.006
	c-0.26,0-0.474,0.207-0.474,0.471h-0.019v1.412h0.008c0,0.22,0.16,0.406,0.367,0.459h11.578v0.007c0.223,0,0.404,0.147,0.457,0.349
	v3.584c0,0.744-0.502,1.342-1.678,1.342h-0.842v0.012c-0.232,0-0.428,0.176-0.463,0.406v3.037h0.011
	c0,0.231,0.172,0.431,0.392,0.466h5.012c1.16,0,2.902-0.202,3.998-1.302c0.625-0.615,0.945-1.51,0.945-2.332v-5.092h0.008
	c0-0.257,0.215-0.47,0.48-0.47v-0.007h11.504c0.16-0.044,0.289-0.17,0.338-0.327v-1.549C245.1,41.48,244.892,41.275,244.631,41.275"
	/>
<path fill="#06275E" d="M258.304,30.993c0-0.218,0.109-0.415,0.375-0.418h1.891c0.184-0.041,0.322-0.18,0.36-0.358v-1.562
	c-0.025-0.236-0.224-0.424-0.464-0.424h-1.696v-0.018c-0.254,0-0.472-0.211-0.472-0.473h-0.008v-4.894
	c-0.047-0.209-0.226-0.359-0.449-0.368h-5.767v0.011c-0.265,0-0.471,0.209-0.471,0.472h-0.017v4.902
	c-0.047,0.207-0.238,0.367-0.457,0.367h-2.821c-0.22,0.04-0.375,0.236-0.375,0.462h-0.015l0.015,1.396
	c0,0.262,0.22,0.476,0.483,0.476v0.012h2.811c0.118,0.015,0.205,0.112,0.208,0.231c-0.479,2.222-1.142,3.324-2.935,6.455
	c0,0-0.226,0.457-0.232,0.656c-0.014,0.252,0,0.373,0,0.373v4.715c0,0.131,0.128,0.275,0.38,0.104
	c1.265-1.028,2.112-2.079,2.938-3.385v12.62h0.017c0,0.254,0.203,0.465,0.463,0.471h5.798c0.237-0.025,0.422-0.223,0.422-0.471
	h0.004V39.069c0.582,0.679,1.234,1.37,2.24,2.113c0.176,0.116,0.334,0.038,0.334-0.229v-4.008c0,0,0.024-0.095,0.016-0.236
	c0-0.177-0.114-0.338-0.168-0.398c-1.375-1.605-2.156-3.273-2.422-5.281v-0.036H258.304z"/>
<path fill="#06275E" d="M280.403,52.408v-4.822c-0.039-0.177-0.172-0.314-0.342-0.361c-0.016-0.002-0.031-0.004-0.045-0.008
	c-0.021-0.004-0.053-0.008-0.08-0.008v-0.012c-1.681-0.391-3.162-0.91-4.475-1.516l0.006-0.01c-0.163-0.06-0.24-0.23-0.203-0.395
	c1.473-2.314,2.35-4.699,2.879-6.46c0.057-0.087,0.146-0.142,0.25-0.146c0.51,0.076,1.039,0.145,1.588,0.186
	c0.229,0,0.422-0.162,0.469-0.377v-2.989c-0.026-0.112-0.102-0.212-0.189-0.276c-2.666-0.805-3.218-2.982-3.229-4.426v-2.135
	c0.008-0.252,0.214-0.456,0.474-0.456v-0.009h2.207c0.185-0.047,0.336-0.202,0.36-0.401v-1.572
	c-0.049-0.211-0.239-0.369-0.465-0.369v-0.009h-4.494c-0.24,0-0.439-0.188-0.439-0.41v-2.467c0-0.263-0.211-0.472-0.475-0.472v-0.01
	h-6.092v0.01c-0.254,0-0.449,0.194-0.469,0.434v2.455h-0.027c0,0.229-0.168,0.431-0.401,0.46h-4.767v0.009
	c-0.266,0-0.479,0.217-0.479,0.474h-0.006v1.397h0.006c0,0.239,0.18,0.437,0.41,0.471h2.135v0.02c0.258,0,0.475,0.213,0.475,0.475
	h0.008v2.105c-0.008,1.426-0.225,3.582-2.904,4.418c-0.123,0.082-0.202,0.223-0.202,0.387h-0.015v3.004h0.01
	c0,0.263,0.212,0.475,0.473,0.475v0.005c0.613-0.028,1.192-0.087,1.738-0.2v0.016c0.11,0,0.198,0.06,0.262,0.141
	c0.364,1.639,1.158,3.991,2.717,6.305c0.057,0.127,0.029,0.268-0.071,0.362c-1.319,0.621-2.856,1.142-4.647,1.509h-0.004
	c-0.057,0.014-0.117,0.023-0.182,0.034c-0.173,0.072-0.295,0.241-0.295,0.442v4.647h0.015c0,0.241,0.177,0.438,0.405,0.47
	c3.732-0.133,6.5-1.258,8.745-2.942c0.144-0.054,0.438-0.091,0.573,0.012c2.146,1.435,4.879,2.517,8.363,2.899
	C280.183,52.753,280.356,52.601,280.403,52.408 M274.782,37.917c-0.702,1.303-1.687,3.061-3.379,4.733l-0.006-0.017
	c-0.174,0.168-0.431,0.168-0.609,0.025c-1.784-1.579-2.909-3.213-3.571-4.473l0.011-0.006c-0.121-0.197-0.084-0.449,0.072-0.606
	c2.215-1.511,3.311-4.015,3.329-6.786v-2.125h0.003c0-0.265,0.174-0.41,0.398-0.434c0.238,0,0.381,0.169,0.381,0.434v2.125
	c-0.031,3.338,1.179,5.414,3.248,6.637C274.787,37.55,274.84,37.744,274.782,37.917"/>
<path fill="#06275E" d="M13.793,5.82v1.433c-0.984,0.881-3.039,2.211-4.403,2.763v0.138h7.253v1.692H9.39v3.092
	c0,1.243-1.244,1.433-1.417,1.433H4.588l-0.328-1.83h2.781c0.483,0,0.483-0.242,0.483-0.553v-2.142H0.289v-1.692h7.235V8.807h0.76
	c0.587-0.19,1.779-0.673,2.556-1.364H3.155V5.82H13.793z M3,2.884c-0.363-0.933-0.794-1.71-1.037-2.125l1.676-0.621
	c0.466,0.656,1.001,1.675,1.295,2.59L4.537,2.884h3.454C7.559,1.882,7.23,1.295,6.816,0.656L8.526,0
	c0.363,0.552,1.036,1.83,1.312,2.694l-0.569,0.19h2.797c0.207-0.397,0.466-0.916,1.14-2.833l1.986,0.588
	c-0.398,0.915-0.622,1.364-1.14,2.245h2.193v3.955h-1.744V4.525H2.499v2.314H0.754V2.884H3z"/>
<path fill="#06275E" d="M17.422,10.12c1.191-1.709,1.675-3.004,2.314-5.128h-2.176V3.333h2.4V0.122h1.641v3.212h1.83v1.658h-1.83
	v1.001c0.811,1.538,1.762,2.539,2.4,3.212l-0.898,1.676c-0.777-0.968-0.949-1.313-1.502-2.384v7.841H19.96V8.325
	c-0.553,1.778-1.001,2.746-1.882,4.145L17.422,10.12z M32.188,8.03c-0.328,0.916-0.985,2.677-2.435,4.404
	c1.571,1.329,3.23,1.848,4.438,2.176l-0.846,1.727c-0.95-0.311-2.988-0.968-4.887-2.625c-1.382,1.208-2.97,1.951-4.732,2.625
	l-0.915-1.606c1.139-0.381,2.866-0.985,4.438-2.28c-1.399-1.727-1.951-3.402-2.262-4.438l1.606-0.466
	c0.224,0.69,0.69,2.141,1.934,3.643c0.725-0.88,1.381-1.934,1.986-3.712L32.188,8.03z M27.628,4.628
	c-0.812,1.243-1.917,2.435-3.264,3.281l-1.226-1.26c1.865-1.088,2.624-2.194,3.039-2.798L27.628,4.628z M27.731,0.122h1.762v1.675
	h4.335v1.64H23.553v-1.64h4.179V0.122z M31.031,3.782c1.053,1.261,1.865,1.899,3.143,2.711l-1.14,1.434
	c-0.95-0.605-2.089-1.399-3.454-3.299L31.031,3.782z"/>
<path fill="#06275E" d="M39.236,10.31c-0.725,1.675-2.193,4.317-3.437,5.889l-1.174-1.727c0.76-0.898,1.519-1.831,3.16-5.267
	L39.236,10.31z M35.592,4.852c1.33,0.605,2.141,1.071,3.022,1.641L37.544,8.1c-0.899-0.674-1.797-1.209-2.833-1.676L35.592,4.852z
	 M36.404,0.121c0.708,0.294,2.331,1.209,2.953,1.675l-1.14,1.623c-0.812-0.638-1.019-0.759-2.798-1.813L36.404,0.121z M44.762,8.79
	c-0.656,1.969-1.33,3.385-2.383,5.232c1.986-0.068,2.763-0.086,5.561-0.362c-0.674-1.191-1.417-2.193-1.796-2.677l1.571-0.881
	c1.623,1.849,2.797,4.128,3.385,5.509l-1.796,0.829c-0.225-0.518-0.38-0.88-0.604-1.347c-2.504,0.415-7.426,0.674-9.343,0.743
	l-0.26-1.71c0.243,0,1.175-0.034,1.313-0.034c1.14-2.09,1.762-3.489,2.245-5.302h-3.298V7.132h5.008V4.231h-4.317V2.556h4.317V0.121
	h1.744v2.435h4.335v1.675h-4.335v2.901H51.1V8.79H44.762z"/>
<path fill="#06275E" d="M59.254,0.155h2.02V2.28c0,3.35,1.054,8.979,7.305,12.191l-1.192,1.762c-3.177-1.589-5.94-4.818-7.132-9.187
	c-1.07,4.144-3.661,7.408-7.097,9.187l-1.278-1.727c2.521-1.226,4.628-3.195,5.854-5.733c0.933-1.917,1.52-4.318,1.52-6.425V0.155z"
	/>
<path fill="#06275E" d="M84.573,16.371c-3.074-0.794-4.991-1.779-6.994-3.177c-2.521,1.865-4.87,2.642-7.149,3.177l-0.864-1.83
	c3.229-0.588,5.285-1.71,6.528-2.591c-2.919-2.832-3.869-6.079-4.3-7.65h-2.331V2.521h7.114V0.069h1.883v2.452h7.166V4.3h-2.452
	c-0.311,1.191-1.226,4.646-4.179,7.667c2.694,1.779,5.233,2.28,6.545,2.522L84.573,16.371z M73.693,4.3
	c0.415,1.312,1.347,4.23,3.834,6.51c2.556-2.417,3.385-5.422,3.696-6.51H73.693z"/>
<path fill="#06275E" d="M91.448,7.564c1.019-0.518,1.572-0.95,1.986-1.33c-0.673-0.639-1.209-1.036-1.33-1.122
	c-0.155,0.12-0.172,0.138-0.345,0.258l-0.691-1.139c-0.397,1.174-0.535,1.502-0.708,1.968c1.416,2.194,1.416,4.024,1.416,4.37
	c0,0.414,0,2.4-1.848,2.4h-0.587l-0.57-1.675h0.864c0.483,0,0.587-0.38,0.587-0.881c0-1.416-0.605-2.832-1.33-4.075
	c0.449-1.002,1.002-3.126,1.157-4.231h-1.33V16.32h-1.64V0.623h4.576v1.485c-0.086,0.414-0.121,0.621-0.501,1.813
	c0.778-0.605,2.142-2.245,2.539-3.73l1.554,0.19c-0.121,0.328-0.172,0.466-0.259,0.656h2.211c-0.035-0.172-0.052-0.259-0.069-0.535
	l1.347-0.173c0.051,0.225,0.051,0.276,0.138,0.639h4.127v1.52c-0.38,1.001-1.243,2.21-1.917,2.832
	c1.002,1.226,1.883,1.727,2.366,2.003l-1.14,1.364c-0.414-0.293-0.863-0.621-1.657-1.433v1.053h-5.803V7.132
	c-0.829,0.812-1.468,1.313-2.09,1.744L91.448,7.564z M95.316,12.572c-0.777,1.33-1.968,2.66-3.194,3.315l-1.226-1.191
	c1.104-0.604,2.175-1.451,2.918-2.832L95.316,12.572z M102.466,11.294h-4.248v3.247c0,1.157-0.277,1.779-1.589,1.779h-1.692
	l-0.346-1.779h1.468c0.362,0,0.432-0.087,0.432-0.467v-2.78h-3.99V9.723h9.965V11.294z M94.798,4.68
	c-0.345-0.275-0.552-0.414-1.45-0.949c-0.26,0.328-0.328,0.415-0.467,0.57c0.536,0.328,0.916,0.656,1.382,1.088
	C94.332,5.319,94.591,4.991,94.798,4.68 M94.384,2.246c-0.19,0.293-0.259,0.414-0.363,0.57c0.57,0.241,0.967,0.5,1.364,0.777
	c0.311-0.656,0.449-1.019,0.57-1.347H94.384z M99.962,6.788c-0.311-0.346-1.779-2.038-2.453-4.352
	c-0.587,2.038-1.796,3.488-2.59,4.352H99.962z M99.012,2.246c0.328,0.863,0.587,1.312,0.95,1.9c0.622-0.674,0.95-1.14,1.243-1.9
	H99.012z M101.792,15.991c-1.105-0.967-1.986-2.504-2.452-3.471l1.554-0.777c0.346,1.019,1.227,2.245,2.176,3.04L101.792,15.991z"/>
<path fill="#06275E" d="M117.423,5.82v1.433c-0.984,0.881-3.039,2.211-4.403,2.763v0.138h7.253v1.692h-7.253v3.092
	c0,1.243-1.244,1.433-1.416,1.433h-3.386l-0.328-1.83h2.781c0.483,0,0.483-0.242,0.483-0.553v-2.142h-7.235v-1.692h7.235V8.807h0.76
	c0.588-0.19,1.779-0.673,2.556-1.364h-7.685V5.82H117.423z M106.63,2.884c-0.363-0.933-0.794-1.71-1.036-2.125l1.675-0.621
	c0.466,0.656,1.001,1.675,1.295,2.59l-0.397,0.156h3.454c-0.432-1.002-0.76-1.589-1.175-2.228L112.157,0
	c0.363,0.552,1.036,1.83,1.312,2.694l-0.569,0.19h2.797c0.207-0.397,0.466-0.916,1.14-2.833l1.986,0.588
	c-0.398,0.915-0.622,1.364-1.14,2.245h2.193v3.955h-1.744V4.525h-12.002v2.314h-1.744V2.884H106.63z"/>
<path fill="#06275E" d="M136.733,15.922h-14.834V0.691h14.834V15.922z M135.058,2.175h-11.467v12.21h11.467V2.175z M134.367,10.447
	c-0.57,0.691-1.329,1.33-1.554,1.537c0.483,0.243,0.794,0.38,1.761,0.691l-0.863,1.295c-1.641-0.518-3.022-1.606-3.834-2.365v2.365
	h-1.554v-2.521c-0.397,0.346-1.658,1.451-3.54,2.09l-0.639-1.382c0.604-0.19,1.986-0.639,3.609-1.986h-2.97V6.959h9.014v3.143
	L134.367,10.447z M133.814,4.49h-3.712v0.708h4.317v1.105h-10.206V5.198h4.283V4.49h-3.644V3.419h3.644V2.59h1.606v0.829h3.712V4.49
	z M132.243,8.065h-5.906v0.967h5.906V8.065z M130.188,10.171c0.57,0.536,0.898,0.794,1.433,1.158c0.57-0.536,1.019-1.037,1.14-1.158
	H130.188z"/>
</svg>
