<?xml version="1.0" encoding="utf-8"?>
<!-- Generator: Adobe Illustrator 21.0.2, SVG Export Plug-In . SVG Version: 6.00 Build 0)  -->
<!DOCTYPE svg PUBLIC "-//W3C//DTD SVG 1.1//EN" "http://www.w3.org/Graphics/SVG/1.1/DTD/svg11.dtd">
<svg version="1.1" id="レイヤー_1" xmlns="http://www.w3.org/2000/svg" xmlns:xlink="http://www.w3.org/1999/xlink" x="0px"
	 y="0px" viewBox="0 0 186.9 35.2" style="enable-background:new 0 0 186.9 35.2;" xml:space="preserve">
<style type="text/css">
	.st0{fill:#FFFFFF;}
</style>
<g>
	<g>
		<path class="st0" d="M70.9,16.1c0,0.2,0.1,0.3,0.3,0.3h8.7c0.2,0,0.3-0.1,0.3-0.3v-0.9c0-0.2-0.1-0.3-0.3-0.3h-8.7
			c-0.2,0-0.3,0.1-0.3,0.3V16.1z"/>
		<path class="st0" d="M70.9,19.2c0,0.2,0.1,0.3,0.3,0.3h8.7c0.2,0,0.3-0.1,0.3-0.3v-1c0-0.2-0.1-0.3-0.3-0.3h-8.7
			c-0.2,0-0.3,0.1-0.3,0.3V19.2z"/>
		<path class="st0" d="M71,22.1c0,0.2,0.1,0.3,0.3,0.3H80c0.2,0,0.3-0.1,0.3-0.3v-1c0-0.2-0.1-0.3-0.3-0.3h-8.7
			c-0.2,0-0.3,0.1-0.3,0.3V22.1z"/>
		<path class="st0" d="M70.9,24.9c0,0.2,0.1,0.3,0.3,0.3h8.7c0.2,0,0.3-0.1,0.3-0.3v-1c0-0.2-0.1-0.3-0.3-0.3h-8.7
			c-0.2,0-0.3,0.1-0.3,0.3V24.9z"/>
		<path class="st0" d="M89.1,16.7c0-0.2,0.2-0.3,0.4-0.3H92c0.2,0,0.3-0.1,0.3-0.3v-0.9c0-0.2-0.1-0.3-0.3-0.3H81.4
			c-0.2,0-0.3,0.1-0.3,0.3v0.9c0,0.2,0.1,0.3,0.3,0.3h2.5c0.2,0,0.3,0.1,0.2,0.3l-0.3,0.9c0,0.2-0.2,0.3-0.4,0.3h-1.6
			c-0.2,0-0.3,0.1-0.3,0.3v1c0,0.2,0.1,0.3,0.3,0.3h1.2c0.2,0,0.3,0.1,0.2,0.3l-1,3.6c0,0.2-0.2,0.3-0.4,0.3h-0.5
			c-0.2,0-0.3,0.1-0.3,0.3v1c0,0.2,0.1,0.3,0.3,0.3H92c0.2,0,0.3-0.1,0.3-0.3v-1c0-0.2-0.1-0.3-0.2-0.3c-0.1,0-0.2-0.1-0.2-0.3v-5.1
			c0-0.2-0.1-0.3-0.3-0.3h-1.9c-0.2,0-0.3,0.1-0.4,0.3l-1.6,5.2c0,0.1-0.1,0.3-0.3,0.3h-0.3c-0.2,0-0.2-0.1-0.1-0.3L89.1,16.7z"/>
		<path class="st0" d="M90.4,26.6c-0.2,0-0.4,0-0.6,0h-7.7c-0.2,0-0.4,0-0.6,0h-0.2c-0.2,0-0.3,0.1-0.3,0.3v0.2c0,0.2,0,0.4,0,0.6
			v6.4c0,0.2,0,0.4,0,0.6v0.2c0,0.2,0.1,0.3,0.3,0.3h0.2c0.2,0,0.4,0,0.6,0h7.7c0.2,0,0.4,0,0.6,0H92c0.2,0,0.3-0.1,0.3-0.3v-0.2
			c0-0.2,0-0.4,0-0.6v-6.4c0-0.2,0-0.4,0-0.6v-0.2c0-0.2-0.1-0.3-0.3-0.3H90.4z M87.6,28.1c0.2,0,0.3,0.1,0.3,0.3v5
			c0,0.2-0.1,0.3-0.3,0.3h-1.7c-0.2,0-0.3-0.1-0.3-0.3v-5c0-0.2,0.1-0.3,0.3-0.3H87.6z"/>
		<path class="st0" d="M97.4,31.3c-0.2,0-0.2,0.1-0.1,0.2l2,3.4c0.1,0.1,0.3,0.2,0.4,0.2h3.8c0.2,0,0.2-0.1,0.1-0.2l-2.1-3.4
			c-0.1-0.1-0.3-0.2-0.4-0.2H97.4z"/>
		<path class="st0" d="M121,15c-0.2,0-0.4,0-0.6,0h-1.7c-0.2,0-0.3,0.1-0.3,0.3v0.3c0,0.2,0,0.4,0,0.6v18.8c0,0.2,0.1,0.3,0.3,0.3
			h3.8c0.2,0,0.3-0.1,0.3-0.3v-9.3c0-0.2,0.1-0.3,0.3-0.3h4.3c0.2,0,0.4,0,0.6,0h0.2c0.2,0,0.3-0.1,0.3-0.3v-0.2c0-0.2,0-0.4,0-0.6
			v-8.1c0-0.2,0-0.4,0-0.6v-0.3c0-0.2-0.1-0.3-0.3-0.3H128c-0.2,0-0.4,0-0.6,0H121z M124,19.1c0,0.2-0.1,0.3-0.3,0.3h-0.6
			c-0.2,0-0.3-0.1-0.3-0.3v-2.2c0-0.2,0.1-0.3,0.3-0.3h0.6c0.2,0,0.3,0.1,0.3,0.3V19.1z M122.9,21.2c0-0.2,0.1-0.3,0.3-0.3h0.6
			c0.2,0,0.3,0.1,0.3,0.3v2.3c0,0.2-0.1,0.3-0.3,0.3h-0.6c-0.2,0-0.3-0.1-0.3-0.3V21.2z"/>
		<path class="st0" d="M144.3,15c-0.2,0-0.2,0.1-0.2,0.3l1.4,2.5c0.1,0.1,0.3,0.3,0.4,0.3h3.7c0.2,0,0.2-0.1,0.1-0.2l-1.4-2.5
			c-0.1-0.1-0.3-0.3-0.4-0.3H144.3z"/>
		<path class="st0" d="M149.5,15c-0.2,0-0.2,0.1-0.1,0.3l1.4,2.5c0.1,0.1,0.3,0.3,0.4,0.3h3.7c0.2,0,0.2-0.1,0.1-0.2l-1.4-2.5
			c-0.1-0.1-0.3-0.3-0.4-0.3H149.5z"/>
		<path class="st0" d="M162.9,18.9c-0.2,0-0.4,0-0.6,0H161c-0.2,0-0.3-0.1-0.3-0.3v-3.3c0-0.2-0.1-0.3-0.3-0.3h-3.8
			c-0.2,0-0.3,0.1-0.3,0.3v3.3c0,0.2-0.1,0.3-0.3,0.3h-13.1c-0.2,0-0.4,0-0.6,0h-0.2c-0.2,0-0.3,0.1-0.3,0.3v0.4c0,0.2,0,0.4,0,0.6
			v3.5c0,0.2,0.1,0.3,0.3,0.3h4c0.2,0,0.3-0.1,0.3-0.3v-2.8c0-0.2,0.1-0.3,0.3-0.3h11.9c0.2,0,0.3,0.1,0.3,0.3v2.7
			c0,0.2,0.1,0.3,0.3,0.3h4c0.2,0,0.3-0.1,0.3-0.3v-3.3c0-0.2,0-0.4,0-0.6v-0.4c0-0.2-0.1-0.3-0.3-0.3H162.9z"/>
		<path class="st0" d="M22,30.3c-4.3-0.7-7.7-3.5-8.3-8.8v-0.4h0c0-0.2,0.1-0.3,0.3-0.3l0,0h7.9c0.1,0,0.2-0.2,0.2-0.3v-1
			c0-0.1-0.1-0.3-0.2-0.3H14c-0.2,0-0.3-0.1-0.3-0.3l0-0.1v-3.7c0-0.1-0.1-0.2-0.3-0.2H9c-0.2,0-0.3,0.2-0.3,0.3h0v3.6
			c0,0.2-0.1,0.3-0.2,0.3H0.6v0c-0.2,0-0.3,0.1-0.3,0.3v1c0,0.1,0.1,0.2,0.2,0.2l7.9,0c0.2,0,0.3,0.1,0.3,0.3h0
			c-0.3,4.8-2.2,9.6-8.4,11.6l0,0c0,0,0,0,0,0C0.2,32.7,0,32.9,0,33.1v1.8c0,0.2,0.2,0.3,0.3,0.3c4.8-0.4,9.2-2.7,11.8-7.1
			c2.1,5.3,7,6.9,9.7,7.1c0.1,0,0.2-0.1,0.3-0.3v-4.3C22.2,30.4,22.1,30.3,22,30.3z"/>
		<path class="st0" d="M32.4,16.6v-1.3h0c0-0.2-0.1-0.3-0.3-0.3h-0.8h-4.9h-1.6c-0.2,0-0.3,0.2-0.3,0.3h0v0.5v19.1h0
			c0,0.2,0.1,0.3,0.3,0.3v0h3.6v0c0.2,0,0.3-0.1,0.3-0.3h0v-3.6c1.9,0.4,2.8-0.4,3.6-1.8c0.9-1.7,0.3-4.8-1.2-6.7L32.4,16.6z
			 M28.7,16.6h1l-1,4.4V16.6z M30,27.3c-0.1,0.9-1.4,1.6-1.3,0.7v-4.7C30.4,25.2,30.1,26.6,30,27.3z"/>
		<path class="st0" d="M46.1,31.8c0-0.2-0.1-0.3-0.3-0.3v0c-2.4-0.4-5.1-4.4-5.1-5.8c0,0,0-3.7,0-4.7c0-0.1-0.2-0.2-0.3-0.2v0h-1.7
			v0c-0.2,0-0.3,0.1-0.3,0.3v6.4c0,3.8,3.3,7.5,7.4,7.7v0c0.2,0,0.3-0.1,0.3-0.3l0,0V31.8L46.1,31.8z"/>
		<path class="st0" d="M59.4,15h-2h-5.6h-1.9c-0.2,0-0.3,0.2-0.3,0.3l0,0v0.6l0,7.3c0,0.8-0.6,1.6-1.3,1.6h-0.3v0
			c-0.2,0-0.3,0.1-0.3,0.3h0v1.8h0c0,0.2,0.1,0.3,0.3,0.3h1.6c2.8,0,3.9-0.7,4.2-2.3l1.3,1.2v3.1c0,1.5-1.6,3.5-3.4,3.5h-2.9v0
			c-0.2,0-0.3,0.1-0.3,0.3h0v1.9h0c0,0.2,0.1,0.3,0.3,0.3v0h3.5c3.9,0,7.3-0.9,7.3-5.2V15.9v-0.6C59.6,15.1,59.6,15,59.4,15z
			 M55.2,21.5l-1.2-1.2v-3.2h0c0-0.2,0.1-0.3,0.3-0.3v0h0.6v0c0.2,0,0.3,0.1,0.3,0.3h0V21.5z"/>
		<path class="st0" d="M69.3,24.8v-0.1c0-0.1,0-0.2-0.1-0.3l-0.2-0.1L65.3,22v-6.8c0-0.1-0.1-0.2-0.2-0.3h-3.8
			c-0.2,0-0.3,0.2-0.3,0.3h0l0,19.5v0.1c0,0.2,0.1,0.3,0.3,0.3h0.1h3.6c0.1,0,0.3-0.1,0.3-0.3v-9.7l3.7,3.5c0.2,0.2,0.3,0,0.4-0.2
			L69.3,24.8z"/>
		<path class="st0" d="M46.1,16.4v-1.1l0,0c0-0.2-0.1-0.3-0.3-0.3H34h-0.7c-0.1,0.1-0.2,0.2-0.2,0.3h0v0.5v15.3
			c0,0.7-0.6,1.6-1.3,1.6h-0.2v0c-0.2,0-0.3,0.1-0.3,0.3h0v2c0,0.1,0.2,0.2,0.3,0.2v0h3.1c0.8,0,1.4-0.4,1.9-0.9
			c0.7-0.7,0.9-1.6,0.9-2.3V16.9h0c0-0.2,0.1-0.3,0.3-0.3v0h8C46,16.6,46.1,16.5,46.1,16.4z"/>
		<path class="st0" d="M46.1,18.2c0-0.2-0.1-0.3-0.3-0.3v0h-2h-5.1v0c-0.2,0-0.3,0.1-0.3,0.3v1.1c0,0.1,0.1,0.2,0.2,0.2h2.6v0
			c0.1,0,0.3,0.1,0.3,0.2v7c0,3-2.1,4.9-3.7,6c0,0.1-0.1,0.1-0.1,0.2V35c0,0.1,0.2,0.2,0.3,0.2c3.2-0.1,8-2.7,8-9.7v-6.9V18.2
			L46.1,18.2z"/>
		<path class="st0" d="M79.9,35.2c0.2,0,0.3-0.1,0.3-0.3h0v-0.5v-7v-0.5c0-0.1-0.2-0.2-0.3-0.2v0h-0.5h-7.8h-0.5v0
			c-0.2,0-0.3,0.1-0.3,0.3h0v0.4v7v0.5h0c0,0.2,0.1,0.3,0.3,0.3l0,0h6.9H79.9L79.9,35.2z M76,33.4c0,0.2-0.1,0.3-0.3,0.3h-0.4
			c-0.2,0-0.3-0.1-0.3-0.3v-5c0-0.2,0.1-0.3,0.3-0.3h0.4c0.2,0,0.3,0.1,0.3,0.3V33.4z"/>
		<path class="st0" d="M107.7,18.4c0-0.2,0.1-0.3,0.3-0.3h7.8l0,0c0.2,0,0.3-0.1,0.3-0.3v-1c0-0.2-0.1-0.3-0.3-0.3H108
			c-0.1,0-0.3-0.2-0.3-0.3h0v-1c0-0.1-0.1-0.2-0.2-0.2h-3.9c-0.2,0-0.3,0.1-0.3,0.3h0v1c0,0.1-0.2,0.2-0.3,0.2v0h-7.9
			c-0.2,0-0.3,0.2-0.3,0.3h0v0.9h0c0,0.2,0.1,0.3,0.3,0.3v0h7.9c0.2,0,0.3,0.1,0.3,0.3v0.4c0,0.2-0.1,0.3-0.3,0.3h-7h-0.5l0,0
			c-0.2,0-0.3,0.1-0.3,0.3h0v0.5v7.3v0.5h0c0,0.2,0.1,0.3,0.3,0.3H96H109c0.1,0,0.2,0.2,0.2,0.3h0v0.3h0c0,0.2-0.1,0.3-0.3,0.3v0
			H95.1v0c-0.2,0-0.3,0.1-0.3,0.3h0v0.9h0c0,0.2,0.1,0.3,0.3,0.3H109v0c0.1,0,0.3,0.1,0.3,0.3v0.9c0,0.7-0.4,1.1-1.3,1.1h-1v0
			c-0.1,0-0.3,0.1-0.3,0.2V35c0,0.1,0.2,0.2,0.3,0.2l0,0h2.9c2.9,0,3.9-0.9,3.9-3.5v-1h0c0-0.2,0.1-0.3,0.3-0.3v0l1.8,0
			c0.2,0,0.3-0.1,0.3-0.3V29c0-0.2-0.1-0.2-0.3-0.2H114c-0.1,0-0.2-0.2-0.2-0.3h0v-0.3h0c0-0.2,0.1-0.3,0.3-0.3h0.9l0.5,0
			c0.2,0,0.3-0.1,0.3-0.3l0-0.5v-7.3v-0.5c0-0.1-0.2-0.2-0.3-0.2v0H115h-7c-0.2,0-0.3-0.2-0.3-0.3h0L107.7,18.4L107.7,18.4z
			 M103.3,26.1c0,0.2-0.1,0.3-0.3,0.3h-3c-0.2,0-0.3-0.1-0.3-0.3v-1.4c0-0.2,0.1-0.3,0.3-0.3h3c0.2,0,0.3,0.1,0.3,0.3V26.1z
			 M103.3,22.5c0,0.2-0.1,0.3-0.3,0.3h-3c-0.2,0-0.3-0.1-0.3-0.3v-1.6c0-0.2,0.1-0.3,0.3-0.3h3c0.2,0,0.3,0.1,0.3,0.3V22.5z
			 M111.3,26.1c0,0.2-0.1,0.3-0.3,0.3h-3c-0.2,0-0.3-0.1-0.3-0.3v-1.4c0-0.2,0.1-0.3,0.3-0.3h3c0.2,0,0.3,0.1,0.3,0.3V26.1z
			 M111.3,20.9v1.6c0,0.2-0.1,0.3-0.3,0.3h-3c-0.2,0-0.3-0.1-0.3-0.3v-1.6c0-0.2,0.1-0.3,0.3-0.3h3
			C111.2,20.6,111.3,20.8,111.3,20.9z"/>
		<path class="st0" d="M139.8,15h-0.5h-8.7h-0.5c-0.1,0-0.2,0.2-0.2,0.3h0v0.5v8.7V25h0c0,0.2,0.1,0.3,0.3,0.3l0,0h0.5h4.8
			c0.1,0,0.2,0.1,0.3,0.2v5.8c0,0.8-0.7,1.3-1.3,1.3h-1.3c-0.2,0-0.3,0.1-0.3,0.3l0,0v1.9l0,0c0,0.2,0.1,0.3,0.3,0.3h4.1
			c0.6,0,1.3-0.2,1.8-0.7c0.7-0.7,1.1-1.4,1.1-3.1V15.8v-0.6C140,15.1,139.9,15,139.8,15z M134.3,16.9c0-0.2,0.1-0.3,0.3-0.3h0.8
			c0.2,0,0.3,0.1,0.3,0.3v2.2c0,0.2-0.1,0.3-0.3,0.3h-0.8c-0.2,0-0.3-0.1-0.3-0.3V16.9z M134.3,23.4v-2.3c0-0.2,0.1-0.3,0.3-0.3h0.8
			c0.2,0,0.3,0.1,0.3,0.3v2.3c0,0.2-0.1,0.3-0.3,0.3h-0.8C134.4,23.7,134.3,23.6,134.3,23.4z"/>
		<path class="st0" d="M163,27.5L163,27.5l-7.8,0c-0.1,0-0.1-0.1-0.1-0.1l0,0v0l0,0c0-0.1,0-0.1,0.1-0.1c2.1-0.4,3-1.9,3-3.6v-1.3
			c0-0.1-0.2-0.2-0.3-0.2v0h-0.5h-10v0c-0.2,0-0.3,0.1-0.3,0.3h0v0.9h0c0,0.2,0.1,0.3,0.3,0.3h5.5c0.6,1-0.3,2.2-1.7,2.3h-0.8
			c-0.1,0-0.2,0.2-0.2,0.3h0v0.9c0,0.1-0.1,0.2-0.2,0.2h-7.7v0c-0.2,0-0.3,0.1-0.3,0.3h0v0.9h0c0,0.1,0.1,0.3,0.2,0.3h7.7v0
			c0.1,0,0.3,0.1,0.3,0.2v2.4c0,0.5-0.3,0.9-1.1,0.9h-0.6v0c-0.2,0-0.3,0.1-0.3,0.3v2h0c0,0.2,0.1,0.3,0.3,0.3h3.3
			c0.8,0,1.9-0.1,2.7-0.9c0.4-0.4,0.6-1,0.6-1.6v-3.4h0c0-0.2,0.1-0.3,0.3-0.3v0h7.7c0.1,0,0.2-0.1,0.2-0.2v-1
			C163.3,27.6,163.2,27.5,163,27.5z"/>
		<path class="st0" d="M172.1,20.7c0-0.1,0.1-0.3,0.2-0.3h1.3c0.1,0,0.2-0.1,0.2-0.2v-1c0-0.2-0.1-0.3-0.3-0.3h-1.1v0
			c-0.2,0-0.3-0.1-0.3-0.3h0v-3.3c0-0.1-0.2-0.2-0.3-0.2h-3.8v0c-0.2,0-0.3,0.1-0.3,0.3h0v3.3c0,0.1-0.2,0.2-0.3,0.2h-1.9
			c-0.1,0-0.3,0.2-0.3,0.3h0l0,0.9c0,0.2,0.1,0.3,0.3,0.3v0h1.9c0.1,0,0.1,0.1,0.1,0.2c-0.3,1.5-0.8,2.2-2,4.3c0,0-0.2,0.3-0.2,0.4
			c0,0.2,0,0.2,0,0.2c0,0,0,3.1,0,3.1c0,0.1,0.1,0.2,0.3,0.1c0.8-0.7,1.4-1.4,2-2.3v8.4h0c0,0.2,0.1,0.3,0.3,0.3h3.9
			c0.2,0,0.3-0.1,0.3-0.3h0V26c0.4,0.5,0.8,0.9,1.5,1.4c0.1,0.1,0.2,0,0.2-0.2v-2.7c0,0,0-0.1,0-0.2c0-0.1-0.1-0.2-0.1-0.3
			C172.8,23.1,172.3,22,172.1,20.7L172.1,20.7L172.1,20.7z"/>
		<path class="st0" d="M186.8,34.9v-3.2c0-0.1-0.1-0.2-0.2-0.2c0,0,0,0,0,0c0,0,0,0-0.1,0v0c-1.1-0.3-2.1-0.6-3-1l0,0
			c-0.1,0-0.2-0.2-0.1-0.3c1-1.5,1.6-3.1,1.9-4.3c0-0.1,0.1-0.1,0.2-0.1c0.3,0.1,0.7,0.1,1.1,0.1l0,0c0.2,0,0.3-0.1,0.3-0.3v-2
			c0-0.1-0.1-0.1-0.1-0.2c-1.8-0.5-2.1-2-2.2-2.9c0,0,0-0.8,0-1.4c0-0.2,0.1-0.3,0.3-0.3v0h1.5c0.1,0,0.2-0.1,0.2-0.3v-1
			c0-0.1-0.2-0.2-0.3-0.2v0h-3c-0.2,0-0.3-0.1-0.3-0.3v-1.6l0,0c0-0.2-0.1-0.3-0.3-0.3v0h-4.1v0c-0.2,0-0.3,0.1-0.3,0.3v1.6h0
			c0,0.2-0.1,0.3-0.3,0.3h-3.2v0c-0.2,0-0.3,0.1-0.3,0.3h0v0.9h0c0,0.2,0.1,0.3,0.3,0.3h1.4v0c0.2,0,0.3,0.1,0.3,0.3h0v1.4
			c0,0.9-0.2,2.4-1.9,2.9c-0.1,0.1-0.1,0.1-0.1,0.3h0v2h0c0,0.2,0.1,0.3,0.3,0.3v0c0.4,0,0.8-0.1,1.2-0.1v0c0.1,0,0.1,0,0.2,0.1
			c0.2,1.1,0.8,2.7,1.8,4.2c0,0.1,0,0.2,0,0.2c-0.9,0.4-1.9,0.8-3.1,1l0,0c0,0,0,0,0,0c0,0-0.1,0-0.1,0c-0.1,0-0.2,0.2-0.2,0.3l0,0
			v3.1h0c0,0.2,0.1,0.3,0.3,0.3c2.5-0.1,4.3-0.8,5.8-2c0.1,0,0.3-0.1,0.4,0c1.4,1,3.3,1.7,5.6,1.9C186.7,35.1,186.8,35,186.8,34.9z
			 M183.1,25.3c-0.5,0.9-1.1,2-2.3,3.2l0,0c-0.1,0.1-0.3,0.1-0.4,0c-1.2-1.1-1.9-2.1-2.4-3l0,0c-0.1-0.1-0.1-0.3,0-0.4
			c1.5-1,2.2-2.7,2.2-4.5c0,0,0-0.8,0-1.4h0c0-0.2,0.1-0.3,0.3-0.3c0.2,0,0.3,0.1,0.3,0.3v1.4c0,2.2,0.8,3.6,2.2,4.4
			C183.1,25,183.1,25.1,183.1,25.3z"/>
	</g>
	<g>
		<path class="st0" d="M9.2,3.9v1c-0.7,0.6-2,1.5-2.9,1.8v0.1h4.8v1.1H6.3V10c0,0.8-0.8,1-0.9,1H3.1L2.8,9.7h1.9C5,9.7,5,9.5,5,9.3
			V7.9H0.2V6.8H5V5.9h0.5C5.9,5.7,6.7,5.4,7.2,5H2.1V3.9H9.2z M2,1.9C1.8,1.3,1.5,0.8,1.3,0.5l1.1-0.4c0.3,0.4,0.7,1.1,0.9,1.7
			L3,1.9h2.3C5,1.3,4.8,0.9,4.5,0.4L5.7,0c0.2,0.4,0.7,1.2,0.9,1.8L6.2,1.9H8C8.2,1.7,8.3,1.3,8.8,0l1.3,0.4C9.9,1,9.7,1.3,9.4,1.9
			h1.5v2.6H9.7V3h-8v1.5H0.5V1.9H2z"/>
		<path class="st0" d="M11.6,6.7c0.8-1.1,1.1-2,1.5-3.4h-1.4V2.2h1.6V0.1h1.1v2.1h1.2v1.1h-1.2V4c0.5,1,1.2,1.7,1.6,2.1l-0.6,1.1
			c-0.5-0.6-0.6-0.9-1-1.6v5.2h-1.1V5.5c-0.4,1.2-0.7,1.8-1.3,2.8L11.6,6.7z M21.4,5.4c-0.2,0.6-0.7,1.8-1.6,2.9
			c1,0.9,2.2,1.2,3,1.4l-0.6,1.2c-0.6-0.2-2-0.6-3.3-1.7c-0.9,0.8-2,1.3-3.2,1.7l-0.6-1.1c0.8-0.3,1.9-0.7,3-1.5
			c-0.9-1.2-1.3-2.3-1.5-3L17.7,5c0.1,0.5,0.5,1.4,1.3,2.4c0.5-0.6,0.9-1.3,1.3-2.5L21.4,5.4z M18.4,3.1c-0.5,0.8-1.3,1.6-2.2,2.2
			l-0.8-0.8c1.2-0.7,1.7-1.5,2-1.9L18.4,3.1z M18.5,0.1h1.2v1.1h2.9v1.1h-6.8V1.2h2.8V0.1z M20.7,2.5c0.7,0.8,1.2,1.3,2.1,1.8
			l-0.8,1c-0.6-0.4-1.4-0.9-2.3-2.2L20.7,2.5z"/>
		<path class="st0" d="M26.1,6.9c-0.5,1.1-1.5,2.9-2.3,3.9l-0.8-1.2c0.5-0.6,1-1.2,2.1-3.5L26.1,6.9z M23.7,3.2
			c0.9,0.4,1.4,0.7,2,1.1L25,5.4c-0.6-0.4-1.2-0.8-1.9-1.1L23.7,3.2z M24.3,0.1c0.5,0.2,1.6,0.8,2,1.1l-0.8,1.1
			c-0.5-0.4-0.7-0.5-1.9-1.2L24.3,0.1z M29.8,5.9c-0.4,1.3-0.9,2.3-1.6,3.5c1.3,0,1.8-0.1,3.7-0.2c-0.4-0.8-0.9-1.5-1.2-1.8l1-0.6
			c1.1,1.2,1.9,2.7,2.3,3.7L32.8,11c-0.1-0.3-0.3-0.6-0.4-0.9c-1.7,0.3-4.9,0.4-6.2,0.5L26,9.4c0.2,0,0.8,0,0.9,0
			c0.8-1.4,1.2-2.3,1.5-3.5h-2.2V4.8h3.3V2.8h-2.9V1.7h2.9V0.1h1.2v1.6h2.9v1.1h-2.9v1.9H34v1.1H29.8z"/>
		<path class="st0" d="M39.5,0.1h1.3v1.4c0,2.2,0.7,6,4.9,8.1l-0.8,1.2c-2.1-1.1-4-3.2-4.8-6.1c-0.7,2.8-2.4,4.9-4.7,6.1l-0.9-1.2
			c1.7-0.8,3.1-2.1,3.9-3.8c0.6-1.3,1-2.9,1-4.3V0.1z"/>
		<path class="st0" d="M56.3,10.9c-2-0.5-3.3-1.2-4.7-2.1c-1.7,1.2-3.2,1.8-4.8,2.1l-0.6-1.2c2.2-0.4,3.5-1.1,4.3-1.7
			c-1.9-1.9-2.6-4.1-2.9-5.1h-1.6V1.7H51V0h1.3v1.6H57v1.2h-1.6C55.2,3.7,54.6,6,52.6,8c1.8,1.2,3.5,1.5,4.4,1.7L56.3,10.9z
			 M49.1,2.9c0.3,0.9,0.9,2.8,2.6,4.3c1.7-1.6,2.3-3.6,2.5-4.3H49.1z"/>
		<path class="st0" d="M60.9,5c0.7-0.3,1-0.6,1.3-0.9c-0.4-0.4-0.8-0.7-0.9-0.7c-0.1,0.1-0.1,0.1-0.2,0.2l-0.5-0.8
			c-0.3,0.8-0.4,1-0.5,1.3c0.9,1.5,0.9,2.7,0.9,2.9c0,0.3,0,1.6-1.2,1.6h-0.4l-0.4-1.1h0.6c0.3,0,0.4-0.3,0.4-0.6
			c0-0.9-0.4-1.9-0.9-2.7c0.3-0.7,0.7-2.1,0.8-2.8h-0.9v9.5H58V0.4h3v1C61,1.7,61,1.8,60.7,2.6c0.5-0.4,1.4-1.5,1.7-2.5l1,0.1
			c-0.1,0.2-0.1,0.3-0.2,0.4h1.5c0-0.1,0-0.2,0-0.4l0.9-0.1c0,0.1,0,0.2,0.1,0.4h2.7v1c-0.3,0.7-0.8,1.5-1.3,1.9
			c0.7,0.8,1.3,1.2,1.6,1.3L68,5.8c-0.3-0.2-0.6-0.4-1.1-1v0.7H63V4.8c-0.6,0.5-1,0.9-1.4,1.2L60.9,5z M63.5,8.4
			c-0.5,0.9-1.3,1.8-2.1,2.2l-0.8-0.8c0.7-0.4,1.4-1,1.9-1.9L63.5,8.4z M68.3,7.5h-2.8v2.2c0,0.8-0.2,1.2-1.1,1.2h-1.1L63,9.7h1
			c0.2,0,0.3-0.1,0.3-0.3V7.5h-2.7v-1h6.6V7.5z M63.2,3.1c-0.2-0.2-0.4-0.3-1-0.6C62,2.7,62,2.8,61.9,2.9c0.4,0.2,0.6,0.4,0.9,0.7
			C62.9,3.5,63,3.3,63.2,3.1z M62.9,1.5c-0.1,0.2-0.2,0.3-0.2,0.4C63,2,63.3,2.2,63.6,2.4c0.2-0.4,0.3-0.7,0.4-0.9H62.9z M66.6,4.5
			c-0.2-0.2-1.2-1.4-1.6-2.9c-0.4,1.4-1.2,2.3-1.7,2.9H66.6z M66,1.5c0.2,0.6,0.4,0.9,0.6,1.3C67,2.3,67.2,2,67.4,1.5H66z
			 M67.8,10.7C67.1,10,66.5,9,66.2,8.3l1-0.5c0.2,0.7,0.8,1.5,1.4,2L67.8,10.7z"/>
		<path class="st0" d="M78.2,3.9v1c-0.7,0.6-2,1.5-2.9,1.8v0.1h4.8v1.1h-4.8V10c0,0.8-0.8,1-0.9,1h-2.3l-0.2-1.2h1.9
			c0.3,0,0.3-0.2,0.3-0.4V7.9h-4.8V6.8h4.8V5.9h0.5C75,5.7,75.8,5.4,76.3,5h-5.1V3.9H78.2z M71,1.9c-0.2-0.6-0.5-1.1-0.7-1.4
			l1.1-0.4c0.3,0.4,0.7,1.1,0.9,1.7l-0.3,0.1h2.3c-0.3-0.7-0.5-1.1-0.8-1.5L74.7,0c0.2,0.4,0.7,1.2,0.9,1.8l-0.4,0.1h1.9
			c0.1-0.3,0.3-0.6,0.8-1.9l1.3,0.4c-0.3,0.6-0.4,0.9-0.8,1.5h1.5v2.6h-1.2V3h-8v1.5h-1.2V1.9H71z"/>
		<path class="st0" d="M91.1,10.6h-9.9V0.5h9.9V10.6z M90,1.4h-7.6v8.1H90V1.4z M89.5,7c-0.4,0.5-0.9,0.9-1,1
			c0.3,0.2,0.5,0.3,1.2,0.5l-0.6,0.9c-1.1-0.3-2-1.1-2.6-1.6v1.6h-1V7.6c-0.3,0.2-1.1,1-2.4,1.4l-0.4-0.9C83.1,8,84,7.7,85.1,6.8h-2
			V4.6h6v2.1L89.5,7z M89.2,3h-2.5v0.5h2.9v0.7h-6.8V3.5h2.9V3h-2.4V2.3h2.4V1.7h1.1v0.6h2.5V3z M88.1,5.4h-3.9V6h3.9V5.4z
			 M86.7,6.8c0.4,0.4,0.6,0.5,1,0.8c0.4-0.4,0.7-0.7,0.8-0.8H86.7z"/>
	</g>
</g>
</svg>
