<?xml version="1.0" encoding="utf-8"?>
<!-- Generator: Adobe Illustrator 23.0.2, SVG Export Plug-In . SVG Version: 6.00 Build 0)  -->
<svg version="1.1" id="レイヤー_1" xmlns="http://www.w3.org/2000/svg" xmlns:xlink="http://www.w3.org/1999/xlink" x="0px"
	 y="0px" viewBox="0 0 280.5 52.8" style="enable-background:new 0 0 280.5 52.8;" xml:space="preserve">
<style type="text/css">
	.st0{fill:#2854A1;}
</style>
<path class="st0" d="M106.4,24.2c0,0.2,0.2,0.4,0.4,0.4h13.1c0.2,0,0.4-0.2,0.4-0.4v-1.3c0-0.2-0.2-0.4-0.4-0.4h-13.1
	c-0.2,0-0.4,0.2-0.4,0.4V24.2z"/>
<path class="st0" d="M106.4,28.8c0,0.2,0.2,0.4,0.4,0.4h13.1c0.2,0,0.4-0.2,0.4-0.4v-1.5c0-0.2-0.2-0.4-0.4-0.4h-13.1
	c-0.2,0-0.4,0.2-0.4,0.4V28.8z"/>
<path class="st0" d="M106.5,33.2c0,0.2,0.2,0.4,0.4,0.4h13.1c0.2,0,0.4-0.2,0.4-0.4v-1.5c0-0.2-0.2-0.4-0.4-0.4H107
	c-0.2,0-0.4,0.2-0.4,0.4C106.5,31.7,106.5,33.2,106.5,33.2z"/>
<path class="st0" d="M106.4,37.4c0,0.2,0.2,0.4,0.4,0.4h13.1c0.2,0,0.4-0.2,0.4-0.4v-1.5c0-0.2-0.2-0.4-0.4-0.4h-13.1
	c-0.2,0-0.4,0.2-0.4,0.4V37.4z"/>
<path class="st0" d="M133.7,25.1c0.1-0.2,0.3-0.4,0.5-0.4h3.8c0.2,0,0.4-0.2,0.4-0.4v-1.3c0-0.2-0.2-0.4-0.4-0.4h-15.8
	c-0.2,0-0.4,0.2-0.4,0.4v1.3c0,0.2,0.2,0.4,0.4,0.4h3.8c0.2,0,0.4,0.2,0.3,0.4l-0.4,1.4c-0.1,0.2-0.3,0.4-0.5,0.4H123
	c-0.2,0-0.4,0.2-0.4,0.4v1.5c0,0.2,0.2,0.4,0.4,0.4h1.7c0.2,0,0.4,0.2,0.3,0.4l-1.5,5.4c-0.1,0.2-0.3,0.4-0.5,0.4h-0.7
	c-0.2,0-0.4,0.2-0.4,0.4v1.5c0,0.2,0.2,0.4,0.4,0.4H138c0.2,0,0.4-0.2,0.4-0.4v-1.5c0-0.2-0.1-0.4-0.3-0.4c-0.2,0-0.3-0.2-0.3-0.4
	v-7.7c0-0.2-0.2-0.4-0.4-0.4h-2.8c-0.2,0-0.5,0.2-0.6,0.4l-2.3,7.7c-0.1,0.2-0.2,0.4-0.4,0.4h-0.4c-0.2,0-0.3-0.2-0.2-0.4
	L133.7,25.1z"/>
<path class="st0" d="M135.7,40h-0.9h-11.5h-0.9h-0.3c-0.2,0-0.4,0.2-0.4,0.4v0.3v0.9v9.7v0.9v0.3c0,0.2,0.2,0.4,0.4,0.4h0.3h0.9
	h11.5h0.9h2.3c0.2,0,0.4-0.2,0.4-0.4v-0.3v-0.9v-9.7v-0.9v-0.3c0-0.2-0.2-0.4-0.4-0.4H135.7z M131.4,42.1c0.2,0,0.4,0.2,0.4,0.4v7.5
	c0,0.2-0.2,0.4-0.4,0.4h-2.6c-0.2,0-0.4-0.2-0.4-0.4v-7.5c0-0.2,0.2-0.4,0.4-0.4H131.4z"/>
<path class="st0" d="M146.2,47c-0.2,0-0.3,0.2-0.2,0.4l2.9,5.1c0.1,0.2,0.4,0.4,0.6,0.4h5.7c0.2,0,0.3-0.2,0.2-0.4l-3.1-5.1
	c-0.1-0.2-0.4-0.4-0.6-0.4C151.7,47,146.2,47,146.2,47z"/>
<path class="st0" d="M181.7,22.5h-0.9h-2.6c-0.2,0-0.4,0.2-0.4,0.4v0.4v0.9v28.2c0,0.2,0.2,0.4,0.4,0.4h5.7c0.2,0,0.4-0.2,0.4-0.4
	v-14c0-0.2,0.2-0.4,0.4-0.4h6.5h0.9h0.3c0.2,0,0.4-0.2,0.4-0.4v-0.3v-0.9V24.2v-0.9v-0.4c0-0.2-0.2-0.4-0.4-0.4h-0.3h-0.9H181.7z
	 M186.2,28.6c0,0.2-0.2,0.4-0.4,0.4h-0.9c-0.2,0-0.4-0.2-0.4-0.4v-3.2c0-0.2,0.2-0.4,0.4-0.4h0.9c0.2,0,0.4,0.2,0.4,0.4V28.6z
	 M184.4,31.8c0-0.2,0.2-0.4,0.4-0.4h0.9c0.2,0,0.4,0.2,0.4,0.4v3.4c0,0.2-0.2,0.4-0.4,0.4h-0.9c-0.2,0-0.4-0.2-0.4-0.4V31.8z"/>
<path class="st0" d="M216.6,22.5c-0.2,0-0.3,0.2-0.2,0.4l2.1,3.8c0.1,0.2,0.4,0.4,0.6,0.4h5.6c0.2,0,0.3-0.2,0.2-0.4l-2.2-3.8
	c-0.1-0.2-0.4-0.4-0.6-0.4C222.1,22.5,216.6,22.5,216.6,22.5z"/>
<path class="st0" d="M224.4,22.5c-0.2,0-0.3,0.2-0.2,0.4l2,3.8c0.1,0.2,0.4,0.4,0.6,0.4h5.6c0.2,0,0.3-0.2,0.2-0.4l-2.1-3.8
	c-0.1-0.2-0.4-0.4-0.6-0.4C229.8,22.5,224.4,22.5,224.4,22.5z"/>
<path class="st0" d="M244.4,28.3h-0.9h-2c-0.2,0-0.4-0.2-0.4-0.4v-5c0-0.2-0.2-0.4-0.4-0.4H235c-0.2,0-0.4,0.2-0.4,0.4v5
	c0,0.2-0.2,0.4-0.4,0.4h-19.6h-0.9h-0.3c-0.2,0-0.4,0.2-0.4,0.4v0.6v0.9v5.2c0,0.2,0.2,0.4,0.4,0.4h5.9c0.2,0,0.4-0.2,0.4-0.4v-4.2
	c0-0.2,0.2-0.4,0.4-0.4H238c0.2,0,0.4,0.2,0.4,0.4v4c0,0.2,0.2,0.4,0.4,0.4h5.9c0.2,0,0.4-0.2,0.4-0.4v-5v-0.9v-0.6
	c0-0.2-0.2-0.4-0.4-0.4C244.8,28.3,244.4,28.3,244.4,28.3z"/>
<path class="st0" d="M33,45.5c-6.5-1-11.5-5.3-12.5-13.2v-0.6h0c0-0.3,0.1-0.4,0.4-0.4l0,0h11.9c0.1,0,0.3-0.2,0.3-0.4v-1.5
	c0-0.2-0.2-0.4-0.4-0.5H21c-0.3,0-0.5-0.1-0.5-0.4l0-0.1v-5.5c0-0.2-0.2-0.3-0.4-0.4h-6.6c-0.2,0-0.4,0.2-0.4,0.5h0v5.5
	c0,0.3-0.1,0.4-0.4,0.4H1v0c-0.2,0-0.4,0.2-0.5,0.4v1.5c0,0.2,0.2,0.4,0.3,0.4l11.8,0c0.3,0,0.4,0.2,0.4,0.4h0
	C12.7,38.8,9.8,46,0.6,48.9c0,0,0,0,0,0C0.4,49,0,49.3,0,49.7v2.7c0,0.3,0.3,0.4,0.5,0.4c7.2-0.6,13.8-4,17.8-10.6
	c3.2,7.9,10.5,10.4,14.6,10.6c0.2,0,0.4-0.2,0.4-0.4v-6.5C33.3,45.6,33.2,45.5,33,45.5"/>
<path class="st0" d="M48.6,24.9v-1.9h0c0-0.2-0.2-0.4-0.4-0.5h-1.3h-7.4H37c-0.2,0-0.4,0.2-0.4,0.5h0v0.8v28.6h0
	c0,0.3,0.2,0.5,0.5,0.5v0h5.5v0c0.3,0,0.5-0.2,0.5-0.5h0v-5.5c2.8,0.6,4.2-0.6,5.4-2.7c1.4-2.5,0.5-7.2-1.8-10.1L48.6,24.9z
	 M43.1,24.9h1.5l-1.5,6.7V24.9z M45.1,40.9c-0.1,1.4-2,2.4-2,1v-7.1C45.6,37.8,45.1,39.9,45.1,40.9"/>
<path class="st0" d="M69.2,47.8c0-0.3-0.2-0.5-0.5-0.5v0c-3.6-0.5-7.7-6.6-7.7-8.6v-7c0-0.2-0.2-0.4-0.5-0.4v0h-2.5v0
	c-0.3,0-0.5,0.2-0.5,0.5v9.6c0,5.7,4.9,11.2,11.1,11.5v0c0.3,0,0.5-0.2,0.5-0.5V47.8z"/>
<path class="st0" d="M89.2,22.5h-3.1h-8.4h-2.8c-0.2,0-0.4,0.2-0.4,0.5v0.9l0,10.9c0,1.2-0.9,2.4-1.9,2.4h-0.4v0
	c-0.3,0-0.5,0.2-0.5,0.5h0v2.6h0c0,0.2,0.2,0.4,0.4,0.5h2.4c4.2,0,5.9-1,6.3-3.5l2,1.8v4.7c0,2.2-2.5,5.2-5.1,5.2h-4.4v0
	c-0.3,0-0.5,0.2-0.5,0.5h0v2.9h0c0,0.3,0.2,0.5,0.5,0.5v0h5.2c5.9,0.1,11-1.4,11-7.8V23.8v-1C89.5,22.7,89.4,22.5,89.2,22.5
	 M82.8,32.3L81,30.5v-4.8h0c0-0.3,0.2-0.5,0.5-0.5v0h0.9v0c0.3,0,0.5,0.2,0.5,0.5h0C82.8,25.7,82.8,32.3,82.8,32.3z"/>
<path class="st0" d="M103.9,37.2V37c0-0.2-0.1-0.3-0.2-0.4l-0.3-0.2L97.9,33V22.9c0-0.2-0.1-0.3-0.3-0.4h-5.7
	c-0.2,0-0.4,0.2-0.4,0.5h0l0,29.3v0.1c0,0.3,0.2,0.5,0.5,0.5h0.1h5.4c0.2,0,0.5-0.2,0.5-0.5V37.8l5.5,5.2c0.3,0.3,0.5,0,0.5-0.3
	L103.9,37.2z"/>
<path class="st0" d="M69.2,24.5v-1.6c0-0.2-0.2-0.4-0.4-0.5H51h-1c-0.2,0.1-0.3,0.2-0.3,0.4h0v0.7v23c0,1-0.8,2.3-1.9,2.3h-0.3v0
	c-0.3,0-0.5,0.2-0.5,0.5h0v3c0.1,0.2,0.2,0.3,0.4,0.3v0H52c1.1,0,2.1-0.5,2.9-1.3c1-1,1.4-2.5,1.4-3.5V25.4h0c0-0.3,0.2-0.5,0.5-0.5
	v0h12C69,24.9,69.2,24.7,69.2,24.5"/>
<path class="st0" d="M69.2,27.3c0-0.3-0.2-0.5-0.5-0.5v0h-3h-7.6v0c-0.3,0-0.5,0.2-0.5,0.5v1.6c0.1,0.1,0.2,0.2,0.3,0.3h4v0
	c0.2,0,0.4,0.2,0.5,0.4v10.5c0,4.5-3.1,7.4-5.5,9c-0.1,0.1-0.1,0.2-0.1,0.3v3.2c0,0.2,0.2,0.2,0.4,0.2c4.8-0.2,12-4.1,12-14.5V28
	V27.3z"/>
<path class="st0" d="M119.9,52.8c0.3,0,0.5-0.2,0.5-0.5h0v-0.7V41.2v-0.8c0-0.2-0.2-0.4-0.5-0.4v0h-0.7h-11.7h-0.7V40
	c-0.3,0-0.5,0.2-0.5,0.5h0v0.6v10.5v0.7h0c0,0.3,0.2,0.5,0.5,0.5h10.4L119.9,52.8L119.9,52.8z M114.1,50.1c0,0.2-0.2,0.4-0.4,0.4
	h-0.6c-0.2,0-0.4-0.2-0.4-0.4v-7.5c0-0.2,0.2-0.4,0.4-0.4h0.6c0.2,0,0.4,0.2,0.4,0.4V50.1z"/>
<path class="st0" d="M161.7,27.6c0-0.2,0.2-0.4,0.4-0.5h11.7c0.3,0,0.4-0.2,0.5-0.4v-1.4c0-0.2-0.2-0.4-0.4-0.5h-11.8
	c-0.2,0-0.4-0.2-0.4-0.5h0v-1.5c0-0.2-0.2-0.3-0.4-0.3h-5.9c-0.2,0-0.4,0.2-0.4,0.5h0v1.5c-0.1,0.2-0.2,0.3-0.4,0.3v0h-11.9
	c-0.2,0-0.4,0.2-0.4,0.5h0v1.4h0c0,0.3,0.2,0.5,0.5,0.5v0h11.8c0.2,0,0.4,0.2,0.4,0.4v0.6c0,0.2-0.2,0.4-0.4,0.5H144h-0.7
	c-0.3,0-0.5,0.2-0.5,0.5h0v0.7v10.9v0.7h0c0,0.3,0.2,0.5,0.5,0.5h0.7h19.6c0.2,0.1,0.3,0.2,0.3,0.5h0v0.4h0c0,0.3-0.2,0.5-0.5,0.5v0
	h-20.8v0c-0.3,0-0.5,0.2-0.5,0.5h0v1.4h0c0,0.2,0.2,0.5,0.4,0.5h20.9v0c0.2,0,0.4,0.2,0.4,0.4v1.3c0,1.1-0.6,1.7-2,1.7h-1.6v0
	c-0.2,0-0.4,0.2-0.4,0.3v3.1c0,0.2,0.2,0.3,0.4,0.3h4.4c4.4,0,5.9-1.3,5.9-5.2v-1.5h0c0-0.3,0.2-0.5,0.5-0.5v0l2.6,0
	c0.2,0,0.4-0.2,0.5-0.4v-1.6c0-0.2-0.2-0.3-0.4-0.3h-2.8c-0.2,0-0.4-0.2-0.4-0.5h0v-0.4h0c0-0.2,0.2-0.4,0.4-0.5h1.4l0.7,0
	c0.3,0,0.5-0.2,0.5-0.5l0-0.7V29.8V29c0-0.2-0.2-0.4-0.5-0.4v0h-0.7h-10.5c-0.2,0-0.4-0.2-0.4-0.5h0L161.7,27.6L161.7,27.6z
	 M155,39.1c0,0.2-0.2,0.4-0.4,0.4H150c-0.2,0-0.4-0.2-0.4-0.4V37c0-0.2,0.2-0.4,0.4-0.4h4.5c0.2,0,0.4,0.2,0.4,0.4V39.1z M155,33.8
	c0,0.2-0.2,0.4-0.4,0.4H150c-0.2,0-0.4-0.2-0.4-0.4v-2.4c0-0.2,0.2-0.4,0.4-0.4h4.5c0.2,0,0.4,0.2,0.4,0.4V33.8z M167.1,39.1
	c0,0.2-0.2,0.4-0.4,0.4h-4.5c-0.2,0-0.4-0.2-0.4-0.4V37c0-0.2,0.2-0.4,0.4-0.4h4.5c0.2,0,0.4,0.2,0.4,0.4V39.1z M167.1,31.4v2.4
	c0,0.2-0.2,0.4-0.4,0.4h-4.5c-0.2,0-0.4-0.2-0.4-0.4v-2.4c0-0.2,0.2-0.4,0.4-0.4h4.5C166.9,31,167.1,31.2,167.1,31.4"/>
<path class="st0" d="M209.8,22.5h-0.8h-13h-0.8c-0.2,0.1-0.4,0.2-0.4,0.5h0v0.8v13v0.7h0c0,0.3,0.2,0.5,0.5,0.5h0.7h7.2
	c0.2,0,0.3,0.2,0.4,0.4v8.7c0,1.2-1,2-2,2h-1.9c-0.2,0-0.4,0.2-0.4,0.5v2.8c0,0.2,0.2,0.4,0.4,0.5h6.2c1,0,1.9-0.2,2.7-1
	c1-1,1.6-2,1.6-4.7V23.8v-1C210.2,22.6,210,22.5,209.8,22.5 M201.5,25.4c0-0.2,0.2-0.4,0.4-0.4h1.3c0.2,0,0.4,0.2,0.4,0.4v3.2
	c0,0.2-0.2,0.4-0.4,0.4h-1.3c-0.2,0-0.4-0.2-0.4-0.4V25.4z M201.5,35.2v-3.4c0-0.2,0.2-0.4,0.4-0.4h1.3c0.2,0,0.4,0.2,0.4,0.4v3.4
	c0,0.2-0.2,0.4-0.4,0.4h-1.3C201.7,35.6,201.5,35.4,201.5,35.2"/>
<path class="st0" d="M244.6,41.3L244.6,41.3l-11.6,0c-0.1,0-0.2-0.1-0.2-0.2v0c0-0.1,0-0.1,0.1-0.2c3.2-0.6,4.5-2.8,4.5-5.4v-1.9
	c-0.1-0.2-0.2-0.3-0.5-0.3v0h-0.7h-15v0c-0.3,0-0.5,0.2-0.5,0.5h0v1.4h0c0,0.3,0.2,0.5,0.4,0.5h8.3c0.9,1.5-0.5,3.3-2.6,3.5h-1.1
	c-0.2,0-0.4,0.2-0.4,0.5h0v1.4c-0.1,0.2-0.2,0.3-0.3,0.3h-11.6v0c-0.3,0-0.5,0.2-0.5,0.5h0v1.4h0c0,0.2,0.2,0.4,0.4,0.5h11.6v0
	c0.2,0,0.4,0.1,0.5,0.3v3.6c0,0.7-0.5,1.3-1.7,1.3h-0.8v0c-0.2,0-0.4,0.2-0.5,0.4v3h0c0,0.2,0.2,0.4,0.4,0.5h5c1.2,0,2.9-0.2,4-1.3
	c0.6-0.6,0.9-1.5,0.9-2.3v-5.1h0c0-0.3,0.2-0.5,0.5-0.5v0h11.5c0.2,0,0.3-0.2,0.3-0.3v-1.5C245.1,41.5,244.9,41.3,244.6,41.3"/>
<path class="st0" d="M258.3,31c0-0.2,0.1-0.4,0.4-0.4h1.9c0.2,0,0.3-0.2,0.4-0.4v-1.6c0-0.2-0.2-0.4-0.5-0.4h-1.7v0
	c-0.3,0-0.5-0.2-0.5-0.5h0v-4.9c0-0.2-0.2-0.4-0.4-0.4h-5.8v0c-0.3,0-0.5,0.2-0.5,0.5h0v4.9c0,0.2-0.2,0.4-0.5,0.4h-2.8
	c-0.2,0-0.4,0.2-0.4,0.5h0l0,1.4c0,0.3,0.2,0.5,0.5,0.5v0h2.8c0.1,0,0.2,0.1,0.2,0.2c-0.5,2.2-1.1,3.3-2.9,6.5c0,0-0.2,0.5-0.2,0.7
	c0,0.3,0,0.4,0,0.4V43c0,0.1,0.1,0.3,0.4,0.1c1.3-1,2.1-2.1,2.9-3.4v12.6h0c0,0.3,0.2,0.5,0.5,0.5h5.8c0.2,0,0.4-0.2,0.4-0.5h0V39.1
	c0.6,0.7,1.2,1.4,2.2,2.1c0.2,0.1,0.3,0,0.3-0.2v-4c0,0,0-0.1,0-0.2c0-0.2-0.1-0.3-0.2-0.4C259.3,34.7,258.6,33,258.3,31L258.3,31
	L258.3,31L258.3,31z"/>
<path class="st0" d="M280.4,52.4v-4.8c0-0.2-0.2-0.3-0.3-0.4c0,0,0,0,0,0c0,0-0.1,0-0.1,0v0c-1.7-0.4-3.2-0.9-4.5-1.5l0,0
	c-0.2-0.1-0.2-0.2-0.2-0.4c1.5-2.3,2.4-4.7,2.9-6.5c0.1-0.1,0.1-0.1,0.2-0.1c0.5,0.1,1,0.1,1.6,0.2c0.2,0,0.4-0.2,0.5-0.4v-3
	c0-0.1-0.1-0.2-0.2-0.3c-2.7-0.8-3.2-3-3.2-4.4v-2.1c0-0.3,0.2-0.5,0.5-0.5v0h2.2c0.2,0,0.3-0.2,0.4-0.4v-1.6c0-0.2-0.2-0.4-0.5-0.4
	v0h-4.5c-0.2,0-0.4-0.2-0.4-0.4V23c0-0.3-0.2-0.5-0.5-0.5v0h-6.1v0c-0.3,0-0.4,0.2-0.5,0.4v2.5h0c0,0.2-0.2,0.4-0.4,0.5h-4.8v0
	c-0.3,0-0.5,0.2-0.5,0.5h0v1.4h0c0,0.2,0.2,0.4,0.4,0.5h2.1v0c0.3,0,0.5,0.2,0.5,0.5h0v2.1c0,1.4-0.2,3.6-2.9,4.4
	c-0.1,0.1-0.2,0.2-0.2,0.4h0v3h0c0,0.3,0.2,0.5,0.5,0.5v0c0.6,0,1.2-0.1,1.7-0.2v0c0.1,0,0.2,0.1,0.3,0.1c0.4,1.6,1.2,4,2.7,6.3
	c0.1,0.1,0,0.3-0.1,0.4c-1.3,0.6-2.9,1.1-4.6,1.5h0c-0.1,0-0.1,0-0.2,0c-0.2,0.1-0.3,0.2-0.3,0.4v4.6h0c0,0.2,0.2,0.4,0.4,0.5
	c3.7-0.1,6.5-1.3,8.7-2.9c0.1-0.1,0.4-0.1,0.6,0c2.1,1.4,4.9,2.5,8.4,2.9C280.2,52.8,280.4,52.6,280.4,52.4 M274.8,37.9
	c-0.7,1.3-1.7,3.1-3.4,4.7l0,0c-0.2,0.2-0.4,0.2-0.6,0c-1.8-1.6-2.9-3.2-3.6-4.5l0,0c-0.1-0.2-0.1-0.4,0.1-0.6
	c2.2-1.5,3.3-4,3.3-6.8v-2.1h0c0-0.3,0.2-0.4,0.4-0.4c0.2,0,0.4,0.2,0.4,0.4v2.1c0,3.3,1.2,5.4,3.2,6.6
	C274.8,37.5,274.8,37.7,274.8,37.9"/>
<path class="st0" d="M13.8,5.8v1.4c-1,0.9-3,2.2-4.4,2.8v0.1h7.3v1.7H9.4v3.1c0,1.2-1.2,1.4-1.4,1.4H4.6l-0.3-1.8H7
	c0.5,0,0.5-0.2,0.5-0.6v-2.1H0.3v-1.7h7.2V8.8h0.8c0.6-0.2,1.8-0.7,2.6-1.4H3.2V5.8H13.8z M3,2.9C2.6,2,2.2,1.2,2,0.8l1.7-0.6
	c0.5,0.7,1,1.7,1.3,2.6L4.5,2.9H8c-0.4-1-0.8-1.6-1.2-2.2L8.5,0c0.4,0.6,1,1.8,1.3,2.7L9.3,2.9h2.8c0.2-0.4,0.5-0.9,1.1-2.8l2,0.6
	c-0.4,0.9-0.6,1.4-1.1,2.2h2.2v4h-1.7V4.5h-12v2.3H0.8v-4H3z"/>
<path class="st0" d="M17.4,10.1c1.2-1.7,1.7-3,2.3-5.1h-2.2V3.3H20V0.1h1.6v3.2h1.8V5h-1.8v1c0.8,1.5,1.8,2.5,2.4,3.2l-0.9,1.7
	c-0.8-1-0.9-1.3-1.5-2.4v7.8H20v-8c-0.6,1.8-1,2.7-1.9,4.1L17.4,10.1z M32.2,8c-0.3,0.9-1,2.7-2.4,4.4c1.6,1.3,3.2,1.8,4.4,2.2
	l-0.8,1.7c-1-0.3-3-1-4.9-2.6c-1.4,1.2-3,2-4.7,2.6l-0.9-1.6c1.1-0.4,2.9-1,4.4-2.3C25.8,10.7,25.3,9,25,8l1.6-0.5
	c0.2,0.7,0.7,2.1,1.9,3.6c0.7-0.9,1.4-1.9,2-3.7L32.2,8z M27.6,4.6c-0.8,1.2-1.9,2.4-3.3,3.3l-1.2-1.3c1.9-1.1,2.6-2.2,3-2.8
	L27.6,4.6z M27.7,0.1h1.8v1.7h4.3v1.6H23.6V1.8h4.2L27.7,0.1L27.7,0.1z M31,3.8c1.1,1.3,1.9,1.9,3.1,2.7L33,7.9
	c-1-0.6-2.1-1.4-3.5-3.3L31,3.8z"/>
<path class="st0" d="M39.2,10.3c-0.7,1.7-2.2,4.3-3.4,5.9l-1.2-1.7c0.8-0.9,1.5-1.8,3.2-5.3L39.2,10.3z M35.6,4.9
	c1.3,0.6,2.1,1.1,3,1.6l-1.1,1.6c-0.9-0.7-1.8-1.2-2.8-1.7L35.6,4.9z M36.4,0.1c0.7,0.3,2.3,1.2,3,1.7l-1.1,1.6
	c-0.8-0.6-1-0.8-2.8-1.8L36.4,0.1z M44.8,8.8c-0.7,2-1.3,3.4-2.4,5.2c2-0.1,2.8-0.1,5.6-0.4c-0.7-1.2-1.4-2.2-1.8-2.7l1.6-0.9
	c1.6,1.8,2.8,4.1,3.4,5.5l-1.8,0.8c-0.2-0.5-0.4-0.9-0.6-1.3c-2.5,0.4-7.4,0.7-9.3,0.7l-0.3-1.7c0.2,0,1.2,0,1.3,0
	c1.1-2.1,1.8-3.5,2.2-5.3h-3.3V7.1h5V4.2H40V2.6h4.3V0.1h1.7v2.4h4.3v1.7h-4.3v2.9h5v1.7H44.8z"/>
<path class="st0" d="M59.3,0.2h2v2.1c0,3.4,1.1,9,7.3,12.2l-1.2,1.8c-3.2-1.6-5.9-4.8-7.1-9.2c-1.1,4.1-3.7,7.4-7.1,9.2l-1.3-1.7
	c2.5-1.2,4.6-3.2,5.9-5.7c0.9-1.9,1.5-4.3,1.5-6.4V0.2z"/>
<path class="st0" d="M84.6,16.4c-3.1-0.8-5-1.8-7-3.2c-2.5,1.9-4.9,2.6-7.1,3.2l-0.9-1.8c3.2-0.6,5.3-1.7,6.5-2.6
	c-2.9-2.8-3.9-6.1-4.3-7.7h-2.3V2.5h7.1V0.1h1.9v2.5h7.2v1.8h-2.5C82.9,5.5,81.9,8.9,79,12c2.7,1.8,5.2,2.3,6.5,2.5L84.6,16.4z
	 M73.7,4.3c0.4,1.3,1.3,4.2,3.8,6.5c2.6-2.4,3.4-5.4,3.7-6.5H73.7z"/>
<path class="st0" d="M91.4,7.6c1-0.5,1.6-0.9,2-1.3c-0.7-0.6-1.2-1-1.3-1.1c-0.2,0.1-0.2,0.1-0.3,0.3l-0.7-1.1
	c-0.4,1.2-0.5,1.5-0.7,2c1.4,2.2,1.4,4,1.4,4.4c0,0.4,0,2.4-1.8,2.4h-0.6l-0.6-1.7h0.9c0.5,0,0.6-0.4,0.6-0.9c0-1.4-0.6-2.8-1.3-4.1
	c0.4-1,1-3.1,1.2-4.2h-1.3v14.2h-1.6V0.6h4.6v1.5c-0.1,0.4-0.1,0.6-0.5,1.8c0.8-0.6,2.1-2.2,2.5-3.7l1.6,0.2C95.1,0.7,95.1,0.8,95,1
	h2.2c0-0.2-0.1-0.3-0.1-0.5l1.3-0.2c0.1,0.2,0.1,0.3,0.1,0.6h4.1v1.5c-0.4,1-1.2,2.2-1.9,2.8c1,1.2,1.9,1.7,2.4,2l-1.1,1.4
	c-0.4-0.3-0.9-0.6-1.7-1.4v1.1h-5.8V7.1c-0.8,0.8-1.5,1.3-2.1,1.7L91.4,7.6z M95.3,12.6c-0.8,1.3-2,2.7-3.2,3.3l-1.2-1.2
	c1.1-0.6,2.2-1.5,2.9-2.8L95.3,12.6z M102.5,11.3h-4.2v3.2c0,1.2-0.3,1.8-1.6,1.8h-1.7l-0.3-1.8h1.5c0.4,0,0.4-0.1,0.4-0.5v-2.8h-4
	V9.7h10V11.3z M94.8,4.7c-0.3-0.3-0.6-0.4-1.4-0.9c-0.3,0.3-0.3,0.4-0.5,0.6c0.5,0.3,0.9,0.7,1.4,1.1C94.3,5.3,94.6,5,94.8,4.7
	 M94.4,2.2c-0.2,0.3-0.3,0.4-0.4,0.6c0.6,0.2,1,0.5,1.4,0.8c0.3-0.7,0.4-1,0.6-1.3C96,2.2,94.4,2.2,94.4,2.2z M100,6.8
	c-0.3-0.3-1.8-2-2.5-4.4c-0.6,2-1.8,3.5-2.6,4.4H100z M99,2.2c0.3,0.9,0.6,1.3,0.9,1.9c0.6-0.7,0.9-1.1,1.2-1.9
	C101.2,2.2,99,2.2,99,2.2z M101.8,16c-1.1-1-2-2.5-2.5-3.5l1.6-0.8c0.3,1,1.2,2.2,2.2,3L101.8,16z"/>
<path class="st0" d="M117.4,5.8v1.4c-1,0.9-3,2.2-4.4,2.8v0.1h7.3v1.7H113v3.1c0,1.2-1.2,1.4-1.4,1.4h-3.4l-0.3-1.8h2.8
	c0.5,0,0.5-0.2,0.5-0.6v-2.1h-7.2v-1.7h7.2V8.8h0.8c0.6-0.2,1.8-0.7,2.6-1.4h-7.7V5.8H117.4z M106.6,2.9c-0.4-0.9-0.8-1.7-1-2.1
	l1.7-0.6c0.5,0.7,1,1.7,1.3,2.6l-0.4,0.2h3.5c-0.4-1-0.8-1.6-1.2-2.2l1.7-0.7c0.4,0.6,1,1.8,1.3,2.7l-0.6,0.2h2.8
	c0.2-0.4,0.5-0.9,1.1-2.8l2,0.6c-0.4,0.9-0.6,1.4-1.1,2.2h2.2v4h-1.7V4.5h-12v2.3h-1.7v-4H106.6z"/>
<path class="st0" d="M136.7,15.9h-14.8V0.7h14.8V15.9z M135.1,2.2h-11.5v12.2h11.5V2.2z M134.4,10.4c-0.6,0.7-1.3,1.3-1.6,1.5
	c0.5,0.2,0.8,0.4,1.8,0.7l-0.9,1.3c-1.6-0.5-3-1.6-3.8-2.4V14h-1.6v-2.5c-0.4,0.3-1.7,1.5-3.5,2.1l-0.6-1.4c0.6-0.2,2-0.6,3.6-2h-3
	V7h9v3.1L134.4,10.4z M133.8,4.5h-3.7v0.7h4.3v1.1h-10.2V5.2h4.3V4.5h-3.6V3.4h3.6V2.6h1.6v0.8h3.7V4.5z M132.2,8.1h-5.9v1h5.9V8.1z
	 M130.2,10.2c0.6,0.5,0.9,0.8,1.4,1.2c0.6-0.5,1-1,1.1-1.2H130.2z"/>
</svg>
